<?xml version="1.0" standalone="no"?>
<!DOCTYPE svg PUBLIC "-//W3C//DTD SVG 1.1//EN" "http://www.w3.org/Graphics/SVG/1.1/DTD/svg11.dtd" >
<svg xmlns="http://www.w3.org/2000/svg" xmlns:xlink="http://www.w3.org/1999/xlink" version="1.1">
<metadata>
Created by FontForge 20170731 at Wed Jul 25 23:59:35 2018
 By Aleksey,,,
Copyright Benjamin A Melville 
</metadata>
<defs>
<font id="DirtyBoy" horiz-adv-x="250" >
  <font-face 
    font-family="DirtyBoy"
    font-weight="400"
    font-stretch="normal"
    units-per-em="1000"
    panose-1="3 0 5 3 0 0 0 0 0 0"
    ascent="800"
    descent="-200"
    x-height="475"
    cap-height="674"
    bbox="33 -96 645.167 696"
    underline-thickness="50"
    underline-position="-350"
    unicode-range="U+000D-00A0"
  />
<missing-glyph horiz-adv-x="364" 
d="M33 0v666h265v-666h-265zM66 33h199v600h-199v-600z" />
    <glyph glyph-name=".notdef" horiz-adv-x="364" 
d="M33 0v666h265v-666h-265zM66 33h199v600h-199v-600z" />
    <glyph glyph-name=".null" 
 />
    <glyph glyph-name=".null" 
 />
    <glyph glyph-name="nonmarkingreturn" horiz-adv-x="333" 
 />
    <glyph glyph-name="CR" unicode="&#xd;" 
 />
    <glyph glyph-name="space" unicode=" " 
 />
    <glyph glyph-name="exclam" unicode="!" horiz-adv-x="281" 
d="M58 191q3 3 15 3q23 0 74 -5q43 -4 52 -9q8 -5 12 -5q5 0 12 -7.5t7 -13.5q0 -21 -16 -53q-6 -9 -6 -18q0 -11 -11.5 -23t-24.5 -12q-4 0 -10 2q-12 4 -22 4q-11 1 -25 20q-14 18 -21 18q-11 0 -24 25.5t-15 50.5q-1 19 3 23zM179 299q0 -3 1 -3l1 6v1q-2 -1 -2 -4z
M128 326v17q-3 0 -8.5 -6t-5.5 -10q0 -2 3.5 -3t7 -0.5t3.5 2.5zM130 358q0 10 -5 10t-4 -8q1 -11 6 -10q3 0 3 8zM127 343q0 4 -5 4q-4 0 -4 -4q0 45 4 45q2 0 5 -45zM219 343v3l-3 27q-4 -10 -4 -19q-1 -20 -3 -51q-2 -37 -12 -55q-9 -18 -14 -21q-10 -4 -35 -4
q-12 0 -12 2q0 4 -15 19q-12 12 -16 12q-2 0 -2 -4q0 -6 2 -11t2 -10q0 -3 -2 -3q-3 0 -8.5 7t-6.5 14q0 2 -4 11.5t-4 14.5t2 8q3 5 3 11q0 3 -1 9t-1 9q0 1 0.5 3t0.5 3q3 9 -2 19q-5 8 -5 25q1 17 -4 22q-2 2 -5 -18v-3l-1 -2q0 22 -3 31q-5 14 -6.5 49.5t-2.5 85
t-4 52.5q-2 2 1 11q4 10 4 24q0 13 7 27q4 8 7 9q4 2 10 0q5 -2 35 -3q23 -1 30 -7q3 -3 6.5 -3.5t11 1t11.5 2.5q11 1 14 -0.5t6 -8.5q5 -11 13 -14q7 -3 15 -26q6 -18 6 -51v-27q0 -28 -4 -66q-7 -77 -7 -104z" />
    <glyph glyph-name="quotedbl" unicode="&#x22;" horiz-adv-x="524" 
d="M258 87q-2 -2 -4 0t2 2t2 -2zM71 129q-2 2 1 7q2 5 3 -1q2 -6 -1 -7q-2 0 -3 1zM394 139q0 2 2 2q1 0 1 -2q0 -1 -1 -1q-2 0 -2 1zM377 151q3 11 8 5q3 -4 3 -10q0 -8 -1 -9t-5 3q-7 5 -5 11zM411 170q5 1 7 -1t3 -10q7 -27 12 -27h1q3 1 8 1q13 0 21 -14q6 -11 0 -16
q-6 -4 -8 -4q-3 0 -4 -6q-1 -5 -21 -15.5t-28 -10.5q-7 0 -16 -7q-5 -4 -9 -4t-4 4q0 6 10 12q10 5 14 13q3 8 -4 8t-8 3.5t4 8.5q5 3 10 16.5t5 23.5q0 4 -0.5 9.5t-0.5 8t1.5 5t6.5 2.5zM449 167q-6 0 -21 9l10 -2q14 -3 14 -6q0 -1 -3 -1zM227 261l2 4q2 -2 0 -6l-1 -2
q-1 1 -1 4zM116 411q-1 0 -2.5 3.5t-1 6.5t2.5 3q3 0 3 -7q0 -6 -2 -6zM132 84q2 -2 9 5q4 4 -1 4q-4 0 -7 -3.5t-1 -5.5zM197 119q6 2 -2 2t-12.5 -4.5t-2.5 -9.5q2 -4 5.5 -3.5t6.5 4.5t2 6q-1 4 3 5zM159 123q0 2 -3 2t-3 -4q0 -5 6 2zM337 118q-5 5 -12 8t-9 0
q-1 -1 -0.5 -4t1.5 -6q2 -7 15 -7q10 0 10.5 1.5t-5.5 7.5zM277 134q-1 0 -9 2t-9 -1q-4 -2 2 -11t12 -6q10 4 8 13q-1 3 -4 3zM246 139q0 7 -9 3q-5 -2 -1 -6q3 -2 6 -2q4 0 4 5zM214 147q-9 6 -13 0q-5 -7 3 -8q2 0 5 1q8 2 8 4q0 1 -3 3zM185 245q0 1 0.5 3t0.5 3
q0 6 -4 6q-3 0 -6.5 -5t-3.5 -12q0 -9 7 -5q5 4 6 10zM177 295q-1 2 -3 3t-3.5 -0.5t-1.5 -3.5q0 -5 5 -15t8 -10q1 1 1 5.5t-2 11t-4 9.5zM250 55q0 5 -8.5 10t-8.5 8q0 4 -5 4q-3 0 -17.5 4.5t-21.5 4.5q-8 0 -9 -4q-2 -5 -10 -7t-28.5 -10.5t-28.5 -10.5q-9 -3 -13 -3
q-5 0 -17 6q-14 7 -17 11.5t-3 18.5q0 11 3.5 17t22.5 25q25 25 25 29q0 2 5 2q4 0 9.5 7t7.5 15q1 3 3 30.5t4 31.5q4 6 4 19q0 12 -7.5 20t-18.5 10q-11 1 -29.5 10.5t-23.5 15.5q-5 8 -5 15q0 11 11 25l12 14l-10 18q-18 33 -21 86q-1 8 -1 19q0 13 10 32q10 21 31 48
q14 17 22.5 23.5t35.5 19.5q40 19 56 22q19 4 34 4q14 0 19 -4q7 -6 11 -2q3 3 12 3q10 0 21 -4t11 -8q0 -5 -12 -2q-12 2 -51 2q-28 0 -38.5 -2t-40.5 -14q-40 -16 -57 -33q-33 -34 -44 -65q-7 -20 -7 -28q0 -3 2 -13q4 -18 4 -27t5 -22.5t6 -19.5q5 -27 23 -27h2
q11 2 13 10q2 6 3.5 7.5t3.5 -0.5t6 -8q10 -15 14 -7q1 2 1 5q0 7 6 11q6 5 0 9t-6 16q0 11 -6 11t-8 -3q-3 -6 -8 4q-3 5 -2 9q2 7 8 7q15 0 -4 17q-7 6 -8 8.5t2 8.5q4 7 18.5 18t18.5 16q5 5 9 8.5t7 4.5t10.5 4t13.5 5q17 6 34 6q19 0 44 -4q26 -4 43 -17q16 -14 21 -14
q7 0 10 -8t4 -32q2 -25 5 -32.5t14 -7.5q7 0 11 1q67 4 72 9q2 4 -5 30q-18 66 -27 80q-7 11 -32 32t-42 29q-20 9 -20 14t9 2q4 -1 15 -5q12 -4 20.5 -10t18.5 -13.5t18 -12.5q18 -12 28 -30q10 -22 10 -23t8 -27q11 -36 11 -61q0 -7 -2 -25q-3 -22 -8.5 -32t-18.5 -19
q-8 -7 -23 -7q-9 0 -21 5q-30 16 -48 67q-20 57 -28 64q-28 24 -77 24q-38 0 -55 -16q-18 -15 -18 -37q0 -4 2 -10q5 -8 5 -15q0 -6 5 -13q4 -4 4 -15q0 -8 11 -15q12 -8 17 -16q6 -10 8 -10q5 0 3 14q-1 5 14 -2q6 -2 8 -4q4 -4 2 -12.5t-6 -8.5q-5 0 -8 5q-6 7 -9 0l2 -12
q4 -8 3 -10t-12 -9q-6 -3 -1 -7q8 -8 -1 -17q-11 -11 4 -12q10 -2 10.5 -8.5t-9.5 -10.5t-10 -11q0 -5 5 -9t3 -14q-4 -20 -6 -64q-1 -13 0.5 -16.5t8.5 -6.5q4 -2 27 -7q19 -2 39 -11q17 -7 38 -7q16 0 31 4q7 1 7 -1q1 -2 -7 -12q-5 -5 -1 -12q2 -6 2 -7q0 -7 -16 -7
q-2 0 -6 0.5t-7 0.5q-25 1 -25 -3t-4 -3.5t-13 4.5q-5 2 -5.5 3t1.5 3q-2 2 -6 3q-22 0 -45 9q-22 10 -27 2q-2 -6 -2 -8q0 -11 15 -17q14 -6 18 -6q10 0 29 -17q8 -7 14 -3q8 5 17 5q15 0 25 -9q12 -10 12 -13q0 -4 -12.5 -4.5t-14.5 3.5q-2 2 -6 2q-5 0 -17 -2t-14 -2
q-17 -1 -19.5 0t-2.5 6z" />
    <glyph glyph-name="numbersign" unicode="#" horiz-adv-x="560" 
d="M120 284l-1 -51q0 -8 -0.5 -18t-0.5 -13q0 -19 4 -19q8 0 -4 -6q-8 -4 -14 -4q-19 0 -34.5 17t-15.5 37q0 23 16.5 40.5t41.5 17.5q2 0 4.5 -0.5t3.5 -0.5zM480 355q3 5 5 1q6 -9 -2 -9q-6 0 -3 8zM84 420q24 19 49 19q3 0 9 -2q7 -3 3 -5q-4 -3 -4 -57q0 -41 3 -43
q7 -5 -6 -7q-6 -1 -15 -1q-20 0 -31 8q-25 17 -25 48q0 25 17 40zM426 475q-2 7 5 7t2 -6l-2 -2q-1 -1 -1 -2q-2 -6 -4 3zM437 491q0 4 4 4q5 0 5 -4q0 -3 -5 -3q-4 0 -4 3zM244 515q0 2 1 2q2 0 2 -2q0 -1 -2 -1q-1 0 -1 1zM319 514q-7 0 -3 8.5t8 3.5q2 -4 0.5 -8t-5.5 -4
zM442 560q-6 2 3 5q4 2 7 0q4 -3 2 -8t-7 -5q-3 0 -3 3t-2 5zM409 579q9 4 18 -1t6 -11q-1 -2 -5 0q-6 2 -15 2q-4 0 -6.5 2t-2 4.5t4.5 3.5zM308 355q0 1 2 1q1 0 1 -1q0 -2 -1 -2q-2 0 -2 2zM363 123q0 2 -4 2q-3 0 -3 -4q1 -2 7 2zM372 177q-13 9 -13 -4q0 -6 4 -6
q3 0 3 -8q0 -4 0.5 -4t4.5 8q6 10 1 14zM240 175q-4 4 -14 4t-27 -5q-15 -4 -16 -3q-3 3 -7 -3q-4 -5 0 -16q5 -11 -1 -19q-4 -5 -10 -60q-2 -16 1 -20q2 -3 21.5 -6.5t33.5 -3.5q4 0 8.5 16t4.5 29q0 15 5 47q3 21 3 29q0 9 -2 11zM416 187q3 0 5.5 2t1.5 4t-7 2t-7 -2
t1.5 -4t5.5 -2zM371 226l-4 1q-3 0 -3 -1l6 -1zM484 243q-2 2 -14.5 3t-14.5 -1q-7 -7 -47 -7h-4q-7 1 -13 -2t-6 -8t6 -10t10 -3q2 1 7 1q7 0 24.5 -3.5t21.5 -3.5t4 1q2 4 10 2h4q17 0 17 17q0 8 -5 14zM401 258q-1 3 -4 4.5t-6 0.5t-3 -4q0 -6 7 -6q3 0 5 1.5t1 3.5z
M385 257q0 2 -2 2.5t-4.5 -0.5t-4.5 1q-6 3 -10 -2t2 -9q3 -2 11 1t8 7zM387 298q2 3 0 6l-1 -1v-3zM254 380q0 2 -3 3.5t-7 1t-5 -2.5q-5 -7 4 -9q11 -2 11 7zM269 384q0 4 -3 4t-3 -4q0 -5 3 -5t3 5zM343 390q0 5 -2 5l-20 -4q-13 -3 -15.5 -5t-2.5 -11q0 -12 -8 -20
q-9 -9 -11 -32t4 -27q4 -3 7.5 -3t11 2t10.5 3q14 4 20 21l5 -10q11 -22 26 -22q8 0 11 9q1 6 14 19q11 11 10 21q-2 12 -6 16q-3 3 -3.5 5.5t0 5t1.5 6.5l2 8q2 11 -4 11q-13 0 -13 -16q0 -9 4 -20q2 -5 -5.5 -7t-16.5 -2q-3 0 -3 -3q0 -2 -3 -2q-5 0 -12.5 5.5t-7.5 11.5
q0 3 4 6q3 1 3 11q0 8 5 13l2 3l-2 -1q-5 -2 -5 3zM347 406q0 2 -2 2t-2 -2q0 -1 2 -1t2 1zM340 411q0 7 -7 7q-5 0 -9.5 -3t-4.5 -6q0 -4 10 -4q11 0 11 6zM385 503q0 1 -1 1q-2 0 -2 -1q0 -2 2 -2q1 0 1 2zM245 630q9 6 28 6q51 0 55 -63q1 -23 -3 -27q-5 -3 -7 4
q-2 5 -4.5 8t-7.5 4.5t-8.5 2.5t-14 2t-17.5 2q-24 3 -34 3q-12 0 -12 -7q0 -2 1 -9t1 -13v-9q-2 -15 6 -23q5 -5 8 -28.5t5 -27.5q3 -9 7 -4t9 2.5t5 -9.5q0 -10 3 -11q2 0 4 3q3 4 9 4q2 0 6.5 -0.5t6.5 -0.5q7 0 7 5l-2 6q-1 3 -1 12q0 34 7 39q2 1 5 1q13 0 13 -14
q0 -4 -3 -8q-4 -8 0 -14q3 -4 -4 -17q-3 -5 -4 -8t-0.5 -5t2.5 -3t6 -1q7 0 7 -3q0 -2 11 0q14 2 20 2l13 -1q4 -1 5 0t0 4q-5 30 -5 43q0 7 2 11q4 4 4 22q0 5 1 18.5t2 18.5q2 15 0.5 16.5t-13.5 -3.5q-5 -2 -5 3q0 4 15 8q10 2 12 2q7 0 7 -12v-5q0 -3 -0.5 -9
t-1.5 -14.5t-1 -14.5q0 -25 2 -25q2 1 2.5 0t-1.5 -4q-7 -17 -7 -36q0 -6 2 -12t3.5 -6.5t5 -0.5t7.5 -4q8 -6 19 -6q10 0 10 -3q0 -4 11 -6l8 -3q-1 0 -6 -2q-9 -5 -10 -6q-2 -3 -2 -12q0 -13 4 -20q5 -10 -1 -13q-5 -3 -1 -3t3.5 -3t-4.5 -3q-5 0 -5 -3q0 -4 11 -4
q12 0 12 4q0 3 6 3q7 0 6 -6q-1 -3 -14.5 -5.5t-13.5 -6.5t-6 -4h-14q-13 0 -3 -20q4 -9 1 -9q-2 2 -7.5 -3.5t-6.5 1.5q-2 8 -5 3q-3 -3 -3 -8q0 -11 15 -19q7 -4 1 -7q-3 -2 1 -2l9 1q19 2 18 5l-3 2q-4 1 -4 3q0 3 10.5 6t17.5 3q4 0 5 -1q4 -4 1.5 -8.5t-7.5 -3.5
q-7 2 -10 -3q-2 -2 -2 -3q0 -7 29 -10q30 -3 30 -17q0 -5 -10.5 -20t-14.5 -15q-12 0 -14 -17q-1 -8 -5.5 -9.5t-23.5 -1.5q-23 0 -29 -8q-2 -3 -5 -7t-3 -5q-3 -4 -3.5 -14.5t2.5 -12.5q4 -3 -1 -8t-5 -12.5t4 -9.5q4 -1 0 -6q-4 -4 -3 -24v-10q0 -20 -15 -20q-9 0 -17 -8
q-10 -8 -16 -8q-7 0 -20 13q-11 13 -16 13q-7 0 -10 5.5t0 12.5q3 8 5 29q1 14 6.5 30t10.5 16q3 0 4.5 7t-0.5 11q-1 2 -5 2q-2 0 -2.5 0.5t0.5 5.5t-1 7t-12 3q-10 2 -26 2t-19 -4q-3 -5 -5 -47q-1 -47 -5.5 -65t-16.5 -31q-5 -5 -7 -17q-3 -22 -29 -22q-28 0 -38 21
q-11 22 -11 45q0 7 2 19q4 22 4 27q0 1 -0.5 14.5t-0.5 22.5l-1 29l-12 1q-12 1 -12 6q0 6 14 4q2 0 4.5 -0.5t3.5 -0.5q10 0 10 21q0 12 7 19q6 6 6 18q0 11 -5 13t-5 9q0 8 -6 14l-8 7l11 10q10 9 10 17q0 5 -5 10q-4 4 -3.5 7t6.5 14q5 8 5 17q0 18 8 18q2 0 9 -5
q6 -5 11 1q4 4 4 11t9 16t20 14q13 6 13 11q0 7 -13 7q-8 1 -11 -1.5t-11 -15.5q-11 -18 -17 -18q-5 0 -9 9.5t-2 14.5q2 7 -3 10.5t-16 3.5q-15 0 -15 5t17 6q16 1 20 8t6 35q2 25 6 33q2 5 1 13.5t3 12.5q6 6 3 13v1q-1 2 -1 3q0 7 10 27q11 21 15.5 27.5t14.5 12.5z" />
    <glyph glyph-name="dollar" unicode="$" horiz-adv-x="586" 
d="M118 387q0 1 2 1q1 0 1 -1q0 -2 -1 -2q-2 0 -2 2zM119 558q10 4 13 4q1 0 1 -3q0 -1 -7 -36q-2 -12 -13 -27q-11 -14 -11 -26q0 -8 4 -12q6 -6 9 -18q4 -14 -4 -20q-7 -6 -8 -2q-12 24 -12 39l1 3q4 4 10 35.5t6 44.5q0 10 1.5 13t9.5 5zM164 567q8 5 9 5t1 -2
q0 -1 -1.5 -7t-1.5 -9q0 -2 1 -3t-2 -3t-8 6q-4 5 -3.5 7t5.5 6zM186 581q6 4 6 0q0 -3 -5 -3t-1 3zM187 356l-5 -1l11 -1q1 1 -0.5 1.5t-5.5 0.5zM266 39q0 -6 5 -3q6 4 3 7q-1 1 -3 1q-5 0 -5 -5zM246 46q0 4 -5 7q-2 1 -3 0t0 -4q0 -5 5 -7q2 -1 3 0t0 4zM243 67
q0 7 -1.5 9t-5.5 -2q-3 -3 -2 -10t5 -7t4 10zM340 160q-19 0 -28 -7q-4 -3 -2 -7.5t7 -6.5h3q8 0 18 6t10 11q0 4 -8 4zM155 252q-4 5 -23 9.5t-31 4.5q-8 0 -10 -1t-1 -6q2 -11 19 -46q6 -12 11 -6q1 1 1 4q0 8 4 8q3 0 11 -6t10 -6h1q2 1 2 5.5t4 7.5q6 6 6 17q0 10 -4 15
zM388 278q-26 14 -30 14q-15 0 -15 -12q0 -6 4 -11q5 -7 6 -24.5t2 -22.5q4 -16 4 -28q0 -28 14 -33q4 -1 19 6q31 16 31 57q0 12 -5 25q-4 10 -8.5 14.5t-21.5 14.5zM126 290q-2 7 -10 10.5t-13 -2.5q-2 -4 5 -10t14 -6t4 8zM200 348q0 4 -2.5 7.5t-5 5.5t-8.5 4.5t-7 3.5
q-11 6 -19 8q-11 2 -11 -4q0 -7 12 -15q12 -7 20 -23q7 -14 7 -28q0 -13 -9 -30q-9 -16 -3 -23q11 -11 0 -20q-6 -5 -5 -9t8 -2q8 3 9 -5.5t-3 -14.5q-2 -4 -2 -6q0 -18 37 -35q16 -7 20 -7q9 0 9 32q0 31 3 44q4 24 4 58q0 20 -2 28q-2 6 -14 10q-24 7 -31 10.5t-7 10.5z
M440 507q0 4 -4 4q-2 -1 2 -7q2 0 2 3zM472 544q0 -3 1 -3l1 6v1q-2 -1 -2 -4zM252 571q-2 1 -5 5q-2 5 -4 1q-1 -1 -2 -3q-2 -5 -3 -9t-0.5 -6.5t2 -3.5t4 -1t6.5 2q13 8 2 15zM393 581q0 3 -2 4t-4.5 0.5t-6 -1.5t-6.5 -2t-5 0q-5 2 -7 -2q-2 -3 15 -3q16 0 16 4zM305 644
q0 5 -4 5q-3 0 -3 -3q0 -4 4 -5q2 1 3 3zM208 417q4 0 12 -5t14 -5q10 -1 15 8t-1 17q-4 7 -5.5 15.5t-3 21t-2.5 19.5q-1 6 -2 15.5t-2 14.5t-3.5 10.5t-7.5 9.5q-9 7 -6 13q5 10 1 17q-4 4 0 4q5 0 5 8q0 16 -11 16q-3 0 -4 -1q-5 -2 -5 2t6 4q5 0 12 8t7 13q0 6 9.5 12
t24 12t18.5 8q13 8 21 8q12 0 20 -15q6 -9 22 -13q23 -7 28 -10q10 -5 11 -1q1 3 5 3q5 0 17.5 -8t15.5 -8t9.5 -6.5t8.5 -6.5q4 0 9 -7q6 -8 14 -10q8 -3 8 -10t6.5 -15.5t11.5 -8.5q1 0 2 1q2 3 2 -2q0 -3 -1 -7q-1 -14 3 -17q5 -3 5 -16q0 -9 6 -15q7 -7 7 -24
q0 -7 -3 -7t-3 -9q0 -35 -38 -35h-6q-17 2 -28.5 12t-11.5 26q0 15 -2 17q-4 2 -4 13q-1 15 -14.5 36t-22.5 21q-2 0 -8.5 2.5t-10 3.5t-7.5 -2q-7 -9 -7 -83q0 -40 4 -56q1 -4 12 -10t18 -6q2 0 3 1q3 1 21 -8q20 -10 27 -10q8 0 20.5 -10t17.5 -12q11 -4 26 -22t20 -34
q1 -5 12 -26q7 -14 7 -39q0 -28 -8.5 -61t-17.5 -44q-3 -4 -9 -13t-11 -14t-13 -10q-1 -1 -19.5 -13t-32 -19.5t-22.5 -8.5t-27 -15q-14 -12 -18 -12t-6 12q-3 17 -11 17q-1 0 -13 -2q-15 -3 -15 -7q0 -5 12 -6q15 -3 15 -10q0 -3 -4 -5q-6 -3 -5 -6t8 -3q17 0 -2 -21
q-17 -20 -42 -20q-16 0 -29 7q-25 14 -30 46q-2 12 -5.5 15.5t-19.5 7.5q-8 2 -35 14q-18 9 -24 9q-5 0 -13 8q-3 3 -11 8t-13.5 10.5t-6.5 11.5q-1 7 -11 14.5t-10 14.5q0 9 -8 15q-8 5 -8 20q0 14 -7 21q-9 9 -1 25q4 7 0 17q-3 8 8 29q20 35 25 49q11 33 36 40q13 4 13 7
q0 1 -9 10q-13 13 -6 16q2 1 5 -1q10 -6 10 7q0 5 3 7t8.5 0.5t11.5 -5.5q25 -17 43 -17q3 0 4 1q2 4 2 9q0 15 -8 20q-7 5 -19 17.5t-18 17.5q-12 12 -12 24q0 47 -3 50q-2 2 1 8q4 7 17 5q15 -2 16 -3t1 -2q0 -4 -11 -29q-4 -8 -4 -23q0 -32 11 -32q3 0 12.5 -10t11.5 -10
z" />
    <glyph glyph-name="percent" unicode="%" horiz-adv-x="659" 
d="M210 120q0 2 -1 2q-2 0 -2 -2t2 -2q1 0 1 2zM191 160q0 3 -5 3t-5 -3t5 -3t5 3zM554 172q0 1 -3 1t-3 -4q0 -5 6 3zM226 172q0 7 -5 4q-7 -4 -7 -9q0 -3 6 -1t6 6zM561 189q0 3 -1 3l-3 -6q4 0 4 3zM196 178q6 -12 11 3l1 7q-2 3 -5.5 2t-5.5 -5t-1 -7zM564 253q0 4 -3 4
t-3 -4q0 -3 3 -3t3 3zM558 268q0 1 -2 1t-2 -1q0 -2 2 -2t2 2zM432 213q-1 -5 -5 -9.5t-4 -10.5q0 -12 13.5 -20.5t31.5 -8.5q15 0 27 6q20 9 26 42q2 12 5 15q3 2 0 10t-2 13q2 10 -4 10q-9 0 -15.5 16t-17.5 16q-29 -3 -41 -12q-9 -7 -9 -29q0 -24 -2 -26q-3 -6 -3 -12z
M315 448q-2 -4 -2 -6q1 -5 7 3q3 4 0 6t-5 -3zM323 506q1 1 1 6q0 24 -9 24q-1 0 -3 -3q-1 -3 3.5 -12t4.5 -12q0 -6 3 -3zM258 547q-8 6 -19 2q-3 -1 -8.5 -3t-7.5 -2q-14 -3 -19 -11t-7 -31q-3 -37 -11 -46q-6 -6 -2 -15q8 -18 43 -19q4 0 8.5 -0.5t6.5 -0.5q10 0 22 9
q15 11 13 14q-1 4 2.5 7.5t6.5 1.5l1 3q0 1 -1 2q-8 19 -2 22q4 4 4 19q0 11 -3 13q-2 1 -3 -0.5t-2 -1.5q-2 0 -8.5 13t-6.5 17q0 2 -7 7zM445 639q0 7 20.5 22.5t33.5 15.5h1q8 0 8 -6q0 -14 -19 -21q-11 -4 -11 -8t11 -10t11 -10q0 -5 8 -8q7 -4 11.5 -12t0.5 -10
q-3 -2 -3 -19q1 -15 -17 -50q-21 -39 -38 -66q-36 -53 -36 -62q0 -3 22 -3q55 0 86 -21q47 -31 57 -79q1 -4 5.5 -12t2.5 -15q-2 -8 0 -10q5 -2 5 -34q0 -9 -1 -10q-3 -3 -5 -29q-3 -25 -14 -47.5t-26 -22.5q-9 0 -20 -13q-24 -26 -49 -26q-10 0 -16 -3q-10 -5 -46 -5
q-21 0 -30 3q-22 7 -53 36q-38 34 -42 74q-3 22 -9 20q-2 -1 -4 -4q-28 -41 -52 -81q-15 -24 -19 -27t-4 -10q0 -4 -4.5 -5.5t-7.5 2.5q-6 10 -22 -1q-7 -5 -15 -5q-10 0 -16 6q-7 7 -8 29q0 3 -1 8.5t-1.5 10t-0.5 6.5q-2 10 5 15q4 3 8 3q4 1 6 9q2 11 14 27.5t16 24.5
q6 11 12 16q8 6 8 12q0 4 8 12q6 6 6 18q0 9 15 33q13 22 13 27q0 2 -1 3q-3 3 -10 -1q-4 -4 -20 -4q-3 0 -10 0.5t-11 0.5q-36 1 -48 6t-42 31q-38 34 -44 80q-1 8 -5.5 27.5t-4.5 30.5q0 15 9 36q7 14 7 17t10 11t17 22q8 17 26 33t35 22q28 10 58 10q49 0 81 -21
q20 -14 38 -39.5t18 -41.5q0 -9 4 -13q4 -3 -1 -6.5t-1 -7.5t4 0t5 2h1q5 0 14 13.5t11 23.5q2 9 5 9t3 5t4 6q5 3 7 11t12 18q9 9 13 19q4 9 8 9t4 3z" />
    <glyph glyph-name="ampersand" unicode="&#x26;" horiz-adv-x="593" 
d="M156 114q0 3 -2.5 7t-2.5 8q0 5 3 5q4 0 12 -8.5t7 -11.5q-1 -4 -9 -4t-8 4zM116 138q0 3 1 3q2 0 4 -4q1 -3 -2 -3t-3 4zM122 193q0 9 11 -1q6 -5 8 -11q4 -9 4 -27q0 -13 -3 -13q-4 0 -4 3t-14 10t-16 13q-1 3 1 9.5t5 11t5 3.5q3 -1 3 2zM142 216l1 4q2 -3 1 -6l-1 -2
q-1 1 -1 4zM61 213q0 2 -1 2q-2 0 -2 -2q0 -1 2 -1q1 0 1 1zM60 224q5 6 8 6t8 -6q6 -7 3 -15q-1 -6 -5 -4q-2 2 -3 -3q-1 -2 -1 -5q-3 -11 2 -16q4 -4 9.5 -19t5.5 -23q0 -1 -1 -3q-2 -5 -9 -7q-4 -1 -4.5 -2.5t3.5 -6.5q6 -11 3 -12q-4 -2 -7 6q-1 1 -1 3q0 4 -5 9
q-11 11 -11 33q0 14 4 29q5 17 0 21q-7 6 1 15zM136 260q-8 0 4 9q2 0 2 -4q0 -5 -6 -5zM148 274q0 5 3 5q2 0 1.5 -2.5t-1.5 -5t-2 -2.5t-1 5zM100 245q0 2 -2 2q-1 0 -1 -2q0 -1 1 -1q2 0 2 1zM101 291q3 6 7.5 5t4.5 -8q0 -6 -3 -6q-8 0 -8 -32v-8q2 -16 -6 -24
q-7 -7 -10 -6t-1 9q3 9 -4 12q-5 3 -5 13t4.5 21.5t10.5 13.5q7 3 10 10zM98 303q0 2 11 15t15 13q1 0 1 -2v-2q0 -4 -11 -14t-15 -10h-1zM158 353q-2 4 3 7t10 3t-5 -8q-7 -6 -8 -2zM268 65q-5 5 -16 -1q-7 -3 -1 -7q4 -3 8 -3t7.5 4.5t1.5 6.5zM289 70q0 3 -2 3
q-3 0 -5.5 -3t-0.5 -5t5 0t3 5zM137 74q-4 14 -13 3q-4 -4 -3 -6t11 -11q14 -12 23 -12q7 0 7 8q0 6 -11 7q-12 1 -14 11zM491 267q0 1 0.5 3t0.5 3q0 6 -4 6t-18 -14q-9 -10 -10.5 -14t1.5 -13q4 -14 -2 -20q-5 -5 -5 -8t6 -10q6 -8 6 -14q0 -7 8 -7q11 0 5 10q-4 6 1 18
q6 14 11 60zM431 272q-6 8 -10 8q0 -2 7 -9l6 -4q-1 1 -3 5zM418 287q0 2 -2 2q-1 0 -1 -2q0 -1 1 -1q2 0 2 1zM403 278q3 11 -4 11q-13 0 -13 -17q0 -12 5 -12q9 0 12 18zM320 367q4 6 4.5 8.5t-1.5 3t-8 -1.5q-13 -5 -13 -20q0 -7 5 -7t5 3q0 4 8 14zM220 437
q-14 14 -14 7q0 -1 1 -3q2 -5 -1 -6t-3 -4q0 -4 7 -7.5t13 -3.5t6 4t-9 13zM235 454q0 5 -5 5t-5 -3q0 -4 6 -5q3 1 4 3zM317 569q-1 0 -7 2t-12 3t-10 1t-5 -1t-12 -3q-24 -4 -32 -30q-6 -24 -16 -24q-5 0 -5 -6q0 -17 19 -34q10 -10 10 -22q0 -4 -2 -8l-2 -6q0 -2 3 -2
q5 0 20 9q25 15 45 33.5t22 28.5q6 30 6 31q0 7 -3 14q-6 12 -19 14zM142 495q0 4 -6.5 8t-6.5 9q0 4 -2 38q0 3 -0.5 9t-0.5 8q0 27 17 53q31 45 80 56q17 4 41 4q76 0 109 -33l27 -27q11 -11 15 -21t14 -50q4 -16 4 -23q0 -6 -2 -9q-4 -8 -4 -22q2 -39 -29 -71
q-20 -20 -30 -26q-8 -5 -15 -16q-4 -8 -4 -10t6 -13q13 -21 27 -35q17 -18 21 -18q5 0 22 21q14 18 25 19h3q13 0 34.5 -9t28.5 -17q8 -10 8 -24q0 -7 -4 -19q-4 -10 -4 -20q-4 -35 -8 -38q-3 -1 -3 -9t-3 -10q-4 -3 -4 -8q0 -6 5 -19t5 -15q0 -3 7 -8q7 -6 6 -16
q-1 -5 0 -8t3 -2q4 1 8.5 -4.5t4.5 -10.5t-11 -9q-6 -2 -8 -2t-2.5 1t-0.5 5q0 8 -3 8q-8 0 -17 -26q-12 12 -17 12q-4 0 -5 -8q-1 -7 -10.5 -12.5t-12.5 -0.5q-3 3 -3 11t-5 11q-2 2 -4 2q-5 0 -42 -29q-42 -34 -53 -34q-5 0 -19 -5t-20 -5q-8 0 -11 -5t-21 -2t-18 0
q0 -2 -8 -2q-24 0 -48 7q-9 2 -10.5 3.5t0.5 8.5q2 10 -1 10t-7 -3.5t-4 -5.5t-4.5 -2t-11 1t-7.5 1q-8 0 -18 6q-8 6 -11 6q-7 0 -23.5 18t-16.5 26q0 9 9 0q2 -1 3 -3q5 -7 10 -5t7 10l1 8l11 -9q12 -10 16 -10t14.5 -6.5t15.5 -6.5t13 -4.5t13 -4.5q6 0 4 7q-7 22 -14 22
q-4 0 -5 6t3 9q14 11 20 -2q4 -10 16 -10q7 0 7 5q0 8 15 -1q5 -4 13 -4q10 0 34 11q14 8 21 8q3 0 20 17q11 11 13 15t-1 8q-2 4 -17 15q-37 23 -60 44q-12 10 -29.5 21.5t-29.5 22.5q-17 15 -19 15q-4 0 -22 -20q-17 -17 -23 -17q-1 0 -1 1t8 11q9 9 13 17q3 5 2.5 11
t-4.5 6q-3 0 -3 8q0 5 8.5 15.5t12.5 10.5h1q3 -2 3 1q-1 10 14 17q19 10 19 20q0 8 -4 19q-6 17 -4 22q2 3 -5 5q-6 1 -10 10q-1 4 -3 5t-3 1t-2 2t-1 6q0 10 -13 23t-13 15q0 5 -8 15t-8 18z" />
    <glyph glyph-name="quotesingle" unicode="'" horiz-adv-x="261" 
d="M82 492q5 6 22 -8q20 -18 0 -18q-8 0 -16 8t-8 14q0 2 2 4zM138 505v-2l2 6v1q-1 -3 -2 -5zM132 523q0 9 -1 10.5t-9 2.5q-4 1 -11 1q-17 0 -17 -7q0 -1 2 -5q3 -4 15.5 -10t17.5 -6h1q2 2 2 14zM180 603q-2 3 -46 5q-12 1 -29 1q-20 0 -20 -8q0 -7 11 -29q8 -15 22 1
q7 7 10 7.5t8 -4.5q6 -5 11 -2q8 7 20 9q7 2 11.5 9t1.5 11zM138 675q-12 3 -28 -1q-12 -4 -24 -17.5t-12 -22.5q0 -3 2 -5h3q12 0 48 6t40 9q2 1 2 4q0 6 -9.5 14.5t-21.5 12.5zM74 546q-1 0 -5 -3q-15 -10 -15 -4q0 2 4 6q4 3 -1 14q-3 6 -3 18q0 7 1 16t2.5 17.5
t1.5 11.5q2 28 20.5 50t45.5 22q13 0 31 -8q33 -16 33 -47q0 -14 5 -19t5 -25t5 -28q3 -5 3 -9q0 -7 -15 -17q-9 -6 -10.5 -9t-0.5 -12q0 -2 0.5 -4.5t0.5 -3.5q0 -16 -20 -27q-13 -6 -26 -2q-12 4 -16 9t-12 7q-9 2 -9 6q0 2 -6 2q-7 0 -15 8.5t-8 14.5q0 4 3 5q2 1 3 4
t0.5 5t-2.5 2z" />
    <glyph glyph-name="parenleft" unicode="(" horiz-adv-x="351" 
d="M201 19q-15 43 -20 44q-6 2 -8 -4q-1 -6 -12 -4q-7 1 -8.5 -1t-1.5 -9q0 -8 -9.5 -12t-11.5 -8q-3 -4 0 -7t9 -5.5t7 -4.5q3 -5 9 -5q5 0 6.5 -5.5t-2.5 -9.5t-1.5 -11t9.5 -8q10 -2 17 -2q18 0 25 5q4 4 4 6q0 4 -12 41zM178 242q0 4 -3 5t-5 -3q-2 -3 0.5 -6.5
t5.5 -1.5q2 1 2 6zM199 288q0 7 -4 9q-4 1 -5.5 -1.5t-3.5 -14.5l-3 -28l1 1q2 6 6 6q6 0 9 28zM191 319q0 7 -12 3q-8 -3 0 -11q7 -6 9 -2q3 3 3 10zM218 469q0 15 -4 15q-7 0 -7 -25q0 -10 4 -10q5 0 7 20zM214 506q1 7 0 9t-6 0q-4 -1 -4 -9t5 -8q3 0 5 8zM104 565
q0 -2 1 -2q3 2 2 5q-1 1 -2 -0.5t-1 -2.5zM166 574q0 4 -5 4t-7.5 -4.5t-1.5 -8.5l1 -1q1 -4 4 0l2 1q7 7 7 9zM233 578q0 -4 2 -2t0 4q-1 1 -1.5 0.5t-0.5 -2.5zM53 269q0 2 16 44.5t16 43.5q0 3 -2 3q-4 0 -15.5 -8.5t-12.5 -8.5q-2 0 -2 15q0 14 10 25q9 11 9 16
q0 4 6 16q5 9 6 68q2 68 4 79q8 47 21 54q5 4 9 9q12 20 16.5 25t12.5 5q10 0 22 6q8 4 30 4q5 0 5 -5q0 -7 6.5 -16t10.5 -9h1q5 2 3 5t0 3q3 -1 14 -9q22 -19 22 -43t-23 -38q-10 -6 -9 -15q2 -8 -2 -8t-4 -8t4 -10q3 -1 1 -11t2 -15q3 -4 1 -4t-5 -19t-3 -24q0 -7 -3 -9
q-4 -3 -4 -18q0 -14 4 -17q3 -1 3 -16q0 -33 -8 -47q-4 -8 -4 -12q0 -3 9 -18q6 -10 8.5 -17t5 -21t4.5 -22q6 -36 6 -95q0 -43 -4 -44q-2 -1 -4 2l-6 11q-7 17 -18 17q-5 0 -9 -1q-11 -2 -16 -7.5t0 -10.5q4 -5 14 -1q21 8 21 -13q0 -5 1 -7t5 -1q5 0 11 2q5 0 30 -48
q24 -48 24 -57q0 -8 -8 -11q-2 -1 -7 -4.5t-6.5 -3.5t-9.5 1q-9 3 -30 -5q-19 -8 -33 -8q-5 0 -7.5 -0.5t-3 -1t0 -3.5t0.5 -5q0 -6 -5 -6q-14 0 -24 19q-5 10 -14 8q-1 0 -2.5 -0.5t-2.5 -0.5q-8 0 -32 25q-9 9 -20 30.5t-16 38.5q-4 14 -4 88q0 55 -1 67.5t-7 26.5
q-8 18 -8 25zM180 671l-4 6l2 1q4 0 4 -3q0 -4 -2 -4z" />
    <glyph glyph-name="parenright" unicode=")" horiz-adv-x="350" 
d="M117 43q0 1 -2 1q-1 0 -1 -1q0 -2 1 -2q2 0 2 2zM199 48q0 3 -7 5q-7 1 -7 -5q0 -7 7 -6t7 6zM246 59q0 1 -2 1t-2 -1q0 -2 2 -2t2 2zM197 62q0 2 -1 2q-2 0 -2 -2t2 -2q1 0 1 2zM146 118q0 8 -4 7q-2 0 -3 -2q-3 -5 -4 -14l-2 -12q13 16 13 21zM143 158q0 12 -3 12
q-7 0 -7 -23v-6v-3q1 -4 3 -1q1 2 2 3q5 5 5 18zM185 303q0 2 -2 2t-2 -2q0 -1 2 -1t2 1zM171 311q-2 6 -5 7.5t-5 -2t-2 -10.5q0 -13 11 -5q4 2 1 10zM162 332q0 2 3 14t3 16t-2 4q-1 0 -6 -5q-10 -12 -10 -28q0 -7 3 -9q9 -6 9 8zM174 382q-3 -5 2 -5q4 0 5 3q0 2 -2 3
q-4 2 -5 -1zM164 678q2 2 5 1t8 -5t10 -11q10 -12 18 -10q1 0 2 0.5t2 0.5q7 0 23 -15q23 -22 42 -69q4 -11 7 -96q2 -84 10 -104l7 -19l-16 -42q-17 -43 -17 -45q0 -4 3 -4q4 0 15.5 11t12.5 11t1 -17t-8 -26q-8 -8 -8 -13q0 -6 -6 -16q-8 -14 -9 -66q-2 -74 -9 -74
q-5 0 -5 -5t5 -5q7 0 1 -20q-5 -17 -34 -54q-11 -15 -25 -17q-15 -2 -22 -7q-5 -4 -13 -4q-14 0 -24 16q-7 12 -17 12t-21 12q-14 14 -14 27q0 7 1 11q4 20 23 32q8 6 8 13q0 8 4 8q2 0 3 4t-0.5 8.5t-3.5 5.5t-1 13.5t-1 14.5q-5 7 -1 13l2 12q0 3 2 7.5t4 7.5l1 3
q-2 2 3 15q4 11 4 19q0 9 -5 12q-6 3 -3 22q3 38 8 45q5 8 1 14q-7 11 -10.5 17t-5.5 13.5t-3 12t-2.5 17t-3.5 23.5q-7 40 -7 92q0 34 4 36q1 1 4.5 -3t5.5 -9q8 -18 15 -18q2 0 9.5 2t12.5 3t7 6t-1 9t-15 2q-11 -2 -16 2t-4 13q1 5 0 7t-4 1t-5.5 -2.5t-5.5 -2.5t-4 0
q-5 3 -28.5 50.5t-23.5 54.5q0 9 13 15q11 6 20 4h2q9 0 32 7t29 7q7 0 7 -5q0 -4 -9 -6q-13 -3 -13 -10q0 -6 12 -42q16 -45 22 -45q2 0 5 4t13 6.5t13 10.5q4 11 7 11q8 0 12 10q4 9 -6 9q-4 0 -9 7q-5 6 -11 6q-5 0 -6.5 5t2.5 9q5 6 1.5 12t-12.5 6q-12 0 -18 9
q-2 4 0 6q3 0 2 4.5t0 6.5z" />
    <glyph glyph-name="comma" unicode="," horiz-adv-x="180" 
d="M68 248q13 7 22 1q6 -5 2 -13q-4 -7 -2.5 -15.5t6.5 -8.5q4 0 6 11t8 13q1 1 4 1q6 0 7.5 -11.5t3.5 -48.5q1 -15 1 -34q0 -18 -5 -23q-7 -5 -15 -2q-10 3 -13 0t-8 -3q-10 0 -21 11t-11 18q0 5 8 18q7 11 7 19t-7 19q-8 14 -8 24q0 16 15 24z" />
    <glyph glyph-name="period" unicode="." horiz-adv-x="217" 
d="M97 123q2 -2 4 0t-2 2t-2 -2zM133 164q0 3 -6.5 6t-11.5 3q-3 0 -3 -1t4 -4q11 -8 17 -4zM126 208q8 4 10 4q5 0 18 -19q9 -14 9 -40q0 -24 -4.5 -30t-25.5 -6h-12q-25 1 -35 4t-23 16q-8 8 -8 12q0 8 26 24q21 14 30 23t15 12z" />
    <glyph glyph-name="zero" unicode="0" horiz-adv-x="544" 
d="M58 448q0 2 2 2q1 0 1 -2t-1 -2q-2 0 -2 2zM89 557q2 4 5 3q3 -4 -1 -8q-9 -6 -4 5zM164 348q0 2 2 2q1 0 1 -2q0 -1 -1 -1q-2 0 -2 1zM174 308q0 3 -4 3q-5 0 2 -6q2 0 2 3zM117 306q18 0 1 17l-8 9v-13q1 -13 7 -13zM109 339q0 1 -1 1q-2 0 -2 -1q0 -2 2 -2q1 0 1 2z
M68 429q0 1 -2 1t-2 -1q0 -2 2 -2t2 2zM119 430q0 3 -1 3q-4 0 -4 -4q0 -2 2 -2q3 0 3 3zM119 438q0 2 -2 2q-1 0 -1 -2q0 -1 1 -1q2 0 2 1zM121 460q-3 9 -6 9q-6 0 -6 -12q0 -6 4 -9q5 -2 7 1.5t1 10.5zM317 481q-13 23 -25.5 32.5t-38.5 9.5q-37 0 -55 -16
q-8 -7 -18 -30.5t-11 -35.5q0 -12 -8 -20q-8 -7 -4 -11q4 -5 7 -29q4 -25 -1 -30q-3 -3 -4.5 -6.5t0 -5.5t4.5 -2q7 0 1 -3q-5 -3 -1 -11.5t9 -6.5h1q3 0 8.5 -9t10.5 -19t6 -11q5 -5 5 -9q0 -16 26 -16q21 0 45.5 9.5t24.5 18.5q0 1 12 29q10 21 10 29q0 1 -0.5 3t-0.5 3
q-2 12 -2 25q0 19 3 23q3 6 3 14q0 2 0.5 7t1.5 12t1 12q1 6 1 14q0 10 -11 30zM67 510q0 3 3.5 13.5t3.5 12.5q0 3 5 6q4 3 7.5 -2.5t8.5 0.5q5 5 5 12t3 7q4 0 11 12t7 18t6 13.5t12 7.5q3 0 17.5 10t16.5 13q3 6 16 13t23 8q12 2 56 6q17 2 18 3t3 1q4 0 18 -4.5t18 -4.5
q22 0 47 -21q16 -12 27 -19q9 -4 26.5 -27t26.5 -41q17 -34 24 -73q2 -9 6 -24.5t6 -28.5t2 -25t-3 -26q-2 -10 -2.5 -17t-0.5 -10t-2 -9.5t-7 -16.5q-12 -26 -12 -27q0 -3 -15 -38t-24 -52q-11 -23 -30 -36.5t-61 -28.5q-57 -20 -81 -20q-18 0 -43 10q-8 3 -16.5 6t-13 4.5
t-10.5 4.5t-13 8q-14 12 -22 15q-24 12 -58 95q-3 7 -4.5 13.5t-0.5 10.5t3 4q3 0 3 4q0 5 -5 5q-3 0 -7 9.5t-6 10.5q-4 3 -4.5 10.5t3.5 9.5q3 2 3 9.5t-3 9.5q-4 2 -4 47q0 24 3 24q2 -1 3 0.5t1 4.5q0 7 3 7t3 7q0 11 3 26q3 18 0 21l-3 -6q-1 -1 -1 -2q-3 -8 -7 -5
q-3 3 -3 5q0 3 5.5 12.5t5.5 14.5z" />
    <glyph glyph-name="one" unicode="1" horiz-adv-x="325" 
d="M72 555q0 1 1 1q2 0 2 -1q0 -2 -2 -2q-1 0 -1 2zM81 566q0 3 3 3q4 0 4 -3t-4 -3q-3 0 -3 3zM57 591q5 6 15 1q6 -3 6 -10q0 -12 -10 -12q-3 0 -4 1q-5 2 -7.5 9t0.5 11zM163 268q-1 2 -2 6q4 0 4 -3t-2 -3zM221 381q-2 -2 -4 0t2 2t2 -2zM139 133q0 -3 1 -3q2 2 1 6
q-1 -1 -2 -3zM156 157q2 -2 4 0t-2 2t-2 -2zM234 168q1 3 -1.5 3t-19.5 -6l-1 -1h-1h-1l-2 -1q-30 -10 -30 -17q0 -2 2 -4q1 -1 3 -1q8 0 28.5 11.5t22.5 15.5zM220 414v-2l1 8q-1 -3 -1 -6zM207 434q0 5 -4 6q-2 -1 -3 -3q0 -6 -3 -6q-4 0 -4 -3t4 -1q2 -6 3 -11
q0 -14 5 -16q6 -4 2 -12q-5 -9 -1 -18q2 -5 2 -24q0 -27 -4 -31q-5 -8 -8 -20q-3 -14 -7 -14t-4 17q-1 27 -4 31q-3 5 -15 -7q-13 -11 -21 -13q-8 -1 -9 -12q-2 -9 3 -14q2 -2 2 -13q0 -2 -0.5 -8t-0.5 -10v-13q0 -19 5 -34l6 -19l45 -1h22q24 0 26 5q2 3 2 15q0 18 -4 41
q-5 28 -6 77q-1 31 -6 37q-3 4 -8.5 4.5t-5.5 5.5q0 7 5 7q4 0 6 7.5t0 14.5t-6.5 1t-6.5 4q-2 8 -7 8q-4 0 -4 4.5t2 10.5t2 7zM176 411l2 13q1 14 1 22q0 11 -3 11q-5 0 -5 -8q0 -7 -3 -9q-2 -1 -7.5 -16.5t-5.5 -20.5t11 -3q4 0 6 1.5t2.5 3t1.5 6.5zM176 494l-4 1
q-3 0 -3 -1l6 -1zM130 617q2 7 4.5 8.5t11.5 0.5q11 -2 30 -10q18 -8 21 -7q6 2 18 -8q31 -27 40.5 -40.5t14.5 -41.5t5 -94v-63q0 -138 -2 -160q-2 -17 -11 -43.5t-17 -37.5q-13 -20 -46 -25h-5q-34 0 -48 19q-2 3 -11 9t-15 13t-6 15q0 4 3 10q4 10 6 10q1 0 1 1.5t-0.5 4
t-1.5 4.5q-3 9 2 27t0 29q-5 10 -7 33q-2 53 -5 132q-2 67 -3 72q-1 7 -6 11t-10 1q-2 -1 -4 0.5t-3.5 5t-1.5 7.5q0 5 7 5q11 0 13 28q0 9 3 12t1 22v11q0 11 9 19q8 8 13 20zM215 647q-2 -2 -5 0q2 1 3 2q4 0 2 -2zM212 657q-1 -1 -3 -1q-3 1 -2 2l2 1q2 -1 3 -2z" />
    <glyph glyph-name="two" unicode="2" horiz-adv-x="566" 
d="M440 249q4 3 11 3q12 0 26 -8q15 -8 24 -28q9 -19 9 -29q0 -7 -3 -7q-4 0 -36 30.5t-32 37.5zM96 523q0 1 2 1t2 -1q0 -2 -2 -2t-2 2zM251 216q4 4 8 4t0 -7q-3 -6 -8 -6q-9 0 0 9zM175 220q-5 0 -6 3q3 2 6 3q5 0 6 -2q0 -3 -6 -4zM231 223q-5 0 -1 4l3 2q1 0 1 -3
t-3 -3zM200 225q11 5 11 2l-1 -5q-3 -12 -3 -19q-2 -13 -8 -19t-6 -3t-4 3h-1q-3 0 -3 6q0 8 5 20t10 15zM229 254q-5 4 -14 4q-18 0 -23 -11q-1 -3 -3.5 -4t-4 0t-1.5 4q0 4 -2.5 4.5t-18.5 1.5q-16 0 -16 -5q0 -6 5 -15.5t9 -12.5q6 -3 16 -3l9 -1l-8 -4q-9 -4 -9 -12
q0 -9 10 -19q11 -12 11 -24q0 -11 6 -16q4 -2 5 -2q4 0 50 46q33 33 53 47q18 14 18 15q0 9 -21 9q-14 0 -22 -5q-11 -7 -23 0q-6 4 -13.5 1.5t-12.5 1.5zM160 496q0 6 -1 6q-5 0 -5 -9q0 -3 2 -4t3 3q1 2 1 4zM179 496q2 0 13 11t13 11q4 0 4 8t-6 8q-4 0 -3 5t-2 5
q-9 0 -9 -13q0 -9 -6 -15q-9 -15 -4 -20zM225 547q0 3 -5 3q-7 0 -1 -4l3 -2q3 0 3 3zM205 555q0 5 -2 5q-3 0 -5 -4.5t0 -6.5t4.5 0t2.5 6zM415 579q-3 4 -16 12l-5 1l9 -8q16 -13 16 -11q1 1 -4 6zM253 593q-1 4 -10 -3q-5 -5 -13 -5q-9 0 -9 -5t3 -5t8 -0.5t7 0t5 2
t5 5.5q4 7 4 11zM191 601q-2 7 -5 7q-5 0 -20 -16t-15 -25q0 -4 5 -11q11 -12 11 6q0 12 13 16q16 6 11 23zM384 599q3 3 -10 10q-7 3 -8 -1q0 -3 8 -7t10 -2zM230 624q-10 0 -21 -11q-9 -9 -7 -12.5t14 -1.5q9 2 18 9t9 11q0 5 -13 5zM325 625q-4 1 -10.5 1.5t-11.5 -0.5
t-5 -2q0 -2 9.5 -6t16.5 -4t6 6zM266 624q0 -3 2 -3t2 2t-1 3t-2 0t-1 -2zM149 417q-34 0 -34 31v9q1 18 -8 25q-14 10 -15 12.5t4 9.5q7 7 7 12t4 8q3 2 11.5 26.5t10.5 26.5q3 6 3 10q0 14 13 14q5 0 10 9q2 4 8 8.5t15.5 9.5t10.5 6q28 10 41 22q5 5 15 9q8 2 23 2
q60 0 77 -7q3 -1 21.5 -7t22.5 -10q3 -3 14 -3q14 0 47 -33q18 -19 20 -29q2 -7 10.5 -20t10.5 -19q2 -10 2 -25q0 -56 -7 -74q-5 -10 -5 -21t-6 -26t-13 -20q-11 -9 -18 -20q-9 -13 -26.5 -31.5t-24.5 -22.5q-8 -4 -42 -30q-8 -6 -8 -9q0 -6 4.5 -6.5t8.5 4.5l5 7l9 -8
q8 -6 8 -13q0 -5 5 -5q6 0 1 9l-4 5q-6 4 3 7l6 1q4 -1 11 -14q6 -13 11 -14q2 0 2.5 2t-0.5 6q-2 10 0 12t11 -3.5t9 -8.5q0 -6 -5.5 -11.5t-10.5 -4.5q-4 1 -5 0t-1 -6q0 -6 6 -17t11 -15q0 -1 -4 -2q-7 0 -11 -9q-4 -8 2.5 -13t-2.5 -13q-9 -9 -12 -17q-6 -15 -17 -4
q-9 11 -20 -2q-15 -16 -38 -18q-9 0 -47 -4q-29 -3 -94 -5q-17 -1 -39 -1q-25 0 -36 4q-31 11 -45 36q-9 15 -9 37q0 21 8 37q6 11 57 65t69 67q29 23 60 43q51 32 74 57t25 50v7q0 9 -14 21q-18 17 -43 17q-13 0 -21 -2q-34 -6 -46 -30q-7 -15 -13 -16q-9 -4 -6 -11
q1 -2 4 -2t6 -8t1 -10t-14 -4t-17 -13q-13 -27 -37 -27z" />
    <glyph glyph-name="three" unicode="3" horiz-adv-x="537" 
d="M66 324q0 7 3 8q2 0 4 -4t0.5 -8t-4.5 -4t-3 8zM230 250q0 2 1 2q2 0 2 -2q0 -1 -2 -1q-1 0 -1 1zM284 454q-5 0 6 9q10 9 10 0q0 -3 -5.5 -6t-10.5 -3zM313 467q0 3 1 3q2 -2 1 -6q-1 1 -2 3zM268 209q0 4 -8 4t-8 -4q0 -5 8 -5t8 5zM223 219q-2 2 -6.5 3.5t-8.5 0.5
t-4 -3q0 -3 8.5 -6.5t11.5 -1.5q3 1 -1 7zM111 221q0 2 -1 2q-2 0 -2 -2q0 -1 2 -1q1 0 1 1zM109 238q-2 10 -8 7q-3 -1 -2 -7q2 -7 6 -8q3 -1 4 1t0 7zM177 263q-9 3 -13 1t-2 -8q3 -7 14.5 -20t17.5 -14q9 -3 5 3l-8 8q-9 6 -9 18q0 10 -5 12zM175 286q0 1 -1 1
q-2 0 -2 -1q0 -2 2 -2q1 0 1 2zM158 275q4 -4 8 7q3 9 -2 10q-2 0 -5 -2q-5 -3 -2 -3q4 0 0 -4q-3 -4 1 -8zM138 343q-8 4 -15 -2q-6 -5 -1 -10q2 -2 4.5 -3t4.5 -0.5t4.5 1t4.5 0.5t2.5 3t-1 6.5t-3.5 4.5zM203 350q-14 10 -15 1q0 -7 -3 -5t-4 0q1 -4 7 -11q10 -11 3 -13
q-3 0 -3 -4t-3 -6q-4 -2 -1 -14q1 -9 1.5 -9t2.5 5q3 12 3 -2q0 -8 7.5 -17.5t13.5 -9.5q4 0 10 -10q4 -7 10 -9.5t36 -7.5q19 -4 24 1q2 2 -2 3h-10h-15q8 12 16 13q2 -1 3 -3q0 -3 4 -3q9 0 26 9.5t29 21.5q9 9 10 12t-3 10q-2 4 -6 15q-1 3 -12 12q-10 5 -26 5
q-3 0 -12 -0.5t-16 -0.5h-20q-22 0 -32 3t-23 14zM201 438q0 -4 2 -2t0 4q-1 1 -1.5 0.5t-0.5 -2.5zM275 442q0 -9 11.5 -39.5t21.5 -33.5q4 0 12 -8q5 -5 16 -5l24 3q21 3 51 22.5t30 30.5q0 5 -12 17t-22 17q-5 3 -24 6.5t-25 9.5q-8 8 -10 6t-28 3q-27 5 -32 5
q-7 0 -15 -8q-6 -7 -5.5 -9t4 -7t3.5 -10zM328 512q0 20 -7 19q-1 0 -3 -4q-1 -4 -24 -3h-10q-24 0 -40 -23l-8 -13l12 2q18 2 46 4l34 2v16zM233 521q6 0 -1 8l-4 2q-7 -1 5 -10zM117 522q-3 5 -9 8.5t-8 1.5q-3 -3 -1.5 -10.5t5.5 -9.5q7 -2 13 -10q4 -4 17.5 -10t22.5 -6
q7 0 10 4t4.5 9.5t0.5 9t-4 3.5q-5 0 -7 -4q-2 -3 -14.5 -3t-12.5 3q0 4 3 5q8 6 1 14q-5 6 -11 -3q-7 -8 -10 -2zM92 538l-17 9l10 10q13 15 23 33q19 33 33.5 45t55.5 31l34 16l55 -1q42 -1 59 -4.5t39 -15.5q4 -3 22 -12q21 -10 30 -20t23 -39q22 -47 22 -80
q0 -32 -20 -75q-7 -14 -7 -24q0 -17 23 -48q9 -12 9 -19q0 -6 -1 -10q-4 -36 -4 -40q0 -23 -4 -33t-4 -20q0 -12 -15 -27q-8 -8 -26 -29q-20 -26 -58 -41q-39 -17 -93 -17q-33 0 -71 10q-9 2 -18.5 4.5t-16.5 4.5t-8 2q-9 2 -21 14q-13 12 -10 20q3 10 2 11.5t-9 -1.5
q-1 -1 -4 -1q-7 0 -15.5 12t-12.5 14q-6 3 -11.5 15t-8.5 14q-5 5 -4 22q1 16 -3 16t-4 8t6 8q2 0 8 -5q2 -1 4 3q3 6 -1 8t-4 17t-5 15q-10 0 2 23q14 30 52 30q21 0 39 -12q12 -8 14 -8t2 15q0 24 -3 32q-1 5 -9 -2q-6 -6 -14 -10t-22 -4q-11 0 -11 3q0 4 -7 10.5t-11 6.5
q-5 0 -3 -7q3 -9 -5 -8q-6 0 -16 6q-25 14 -28 39v7q0 22 19 35q8 5 11 11.5t-1 10.5q-2 2 -9 -5q-12 -11 -15 -3q-1 3 1 7q7 12 18 14q14 2 14 9z" />
    <glyph glyph-name="four" unicode="4" horiz-adv-x="548" 
d="M264 194q2 7 7 5q6 -2 76 -2h72v-11q0 -20 -14 -39.5t-34 -28.5q-12 -5 -29 -5q-22 0 -32 6q-19 10 -33 29.5t-14 36.5q0 6 1 9zM420 223q0 3 1 4l2 -5q0 -2 -1 -3q-1 0 -2 4zM492 342q-1 0 -3 3t-3.5 6t-0.5 3t3 -3t3.5 -6t0.5 -3zM185 420q0 5 5 5t5 -1l-5 -5
q-2 -2 -5 1zM114 450q6 4 7 1q0 -2 -2 -11q-1 -13 -14 -26t-13 -15q0 -3 -3 -3t-3 4q0 9 9.5 26t18.5 24zM179 459q0 4 3 4t3 -4q0 -5 -3 -5t-3 5zM201 486q-3 0 4 9q6 8 6 1q0 -2 -4 -6t-6 -4zM172 502q0 2 11 12.5t14 10.5q1 0 1 -2q0 -4 -7.5 -16t-10.5 -13q-4 -1 -2 -13
q1 -7 -0.5 -10t-11.5 -9q-13 -8 -13 -15q0 -6 -5 -6q-4 0 -4.5 6t3.5 8q3 1 3 15q0 13 3 13t11 8t8 11zM408 276q0 16 -14 0q-8 -8 -2 -10q5 -2 10.5 1.5t5.5 8.5zM96 291q-18 9 -21 9q-2 0 -2 -2q0 -4 10 -12.5t18 -9.5q9 -2 12 1l1 1q3 2 -5 6q-2 1 -8 5q-3 1 -5 2z
M114 311q-4 3 -6 9q-1 8 -5 2l-1 -6q0 -5 5 -9t8 -2q5 3 -1 6zM108 335q0 -2 1 -2q3 2 2 5q-1 1 -2 -0.5t-1 -2.5zM422 346q0 12 -4 12q-5 0 -5 -12q0 -11 5 -11q4 0 4 11zM307 626q0 5 -13 1q-8 -3 -8 -5q0 -7 14 -7q7 0 7 4v7zM288 649q-10 7 -10 0q0 -3 8 -3q6 0 2 3z
M377 602q2 0 10.5 -7t9.5 -7q10 0 16 -39q3 -18 3 -95q0 -46 -2 -56q-1 -7 10 -18t11 -14q0 -2 17 -21q38 -41 38 -52q0 -5 -5 -15q-11 -20 -40 -20q-12 0 -15 -1t-5 -8q-7 -17 -14 -6q-1 3 -14 1q-17 -3 -32 -3q-19 0 -27 4q-17 6 -18 -1q0 -2 3 -6q3 -3 3 -6q0 -5 -14 -5
q-2 0 -7 0.5t-8 0.5q-7 1 -15 1q-10 0 -15 -5q-6 -6 -14 -2q-5 4 -28 4h-16q-69 0 -98 25q-9 7 -14 7q-6 0 -19 11.5t-18 20.5q-6 12 -6 29q0 20 7 35q8 17 9 17q3 0 11 7.5t8 10.5q0 2 2.5 3t6 0t6.5 -4q5 -5 8 0q1 1 6.5 7t6 8.5t-0.5 8.5q-3 4 -3 13q0 6 9 6q10 0 13 -11
q2 -8 2 -10q0 -6 -8 -21q-9 -19 -8 -23t8 -4q14 0 26 12q12 14 50 17q22 2 32 4q6 1 8.5 8t-1.5 11t-6 15l-2 10l-3 -11q-3 -11 -9 -11q-15 0 -1 16q15 17 18 56q2 22 2 26q0 25 -13 25q-8 0 -8 -8q0 -9 -8 -12q-6 -2 -8 6q-4 7 -7 9q-2 1 -1.5 4.5t3.5 7t6 3.5q4 0 12 8
l14 14q7 6 8 29q0 4 10 16q10 11 8 21q-2 11 0 19q2 9 10 9q4 0 4 -4t14 -2h6q26 0 45 -11q6 -3 15 -3q16 0 20 7q9 12 11 0v-10q-2 -9 -0.5 -11t9.5 -6q12 -6 12 -9q0 -5 -6 -5.5t-11 4.5q-4 3 -7.5 4.5t-6 0t-2.5 -5.5l-1 -2q-2 5 -12 15t-13 10l-1 -1q-2 -4 -9 -2
q-6 2 -13 -5q-5 -4 -5 -10.5t5 -7.5q2 0 11 -2t17 -1q15 1 15 -3q1 -4 3 -4z" />
    <glyph glyph-name="five" unicode="5" horiz-adv-x="549" 
d="M132 177q0 1 2 1q1 0 1 -1q0 -2 -1 -2q-2 0 -2 2zM145 526q0 5 3 5t3 -3t-3 -5t-3 3zM257 245q-3 0 -4 -1l5 -2q2 0 3 1q0 1 -4 2zM309 259q-3 3 7 10q4 1 5 -1q0 -3 -5 -6.5t-7 -2.5zM125 397q-2 -2 -5 0q2 1 3 2q4 0 2 -2zM211 228l-4 1q-3 0 -3 -1l6 -1zM426 271
q6 10 -1 12q-2 0 -3 -3q-3 -14 -2 -15.5t6 6.5zM190 294l2 -3q2 3 0 5q-1 1 -1.5 0.5t-0.5 -2.5zM440 302q0 1 -2 1q-1 0 -1 -1q0 -2 1 -2q2 0 2 2zM450 305q0 8 -4 8q-3 0 -3 -8t3 -8q4 0 4 8zM154 358q-5 3 -23 -6q17 -9 22 -2q5 5 1 8zM415 327q1 1 1 3q0 8 -6.5 21
t-10.5 13q-5 0 -2 -4q6 -8 0 -24q-1 -1 -1 -4q0 -4 3.5 -17t3.5 -18q0 -3 -1 -4q-4 -6 -4 -15t-7.5 -22t-15.5 -17t-9 -15q1 -4 3 -5q4 0 18 15t18 23t6 8q1 0 1 6q0 3 -0.5 13t-0.5 16q0 19 4 27zM180 367q0 4 -3 4t-3 -4q0 -3 3 -3t3 3zM260 179q0 7 -16 12q15 12 11 17
q-5 5 -12.5 3t-9.5 -9q-5 -18 -9 1q-4 17 -25 17q-7 1 1 11q0 3 5 3q4 -1 4 1.5t-4 4.5t-3.5 8.5t4.5 6.5q3 0 3 7q0 5 3 5.5t5 -4.5q1 -4 4 -4q11 2 11 -5q0 -5 -4 -5q-5 0 -1 -4q3 -3 21 -5q38 -4 38 -14q0 -3 6 -3q7 0 12.5 7.5t5.5 11.5q0 2 7.5 8.5t17 13.5t11.5 9
q10 11 11 31q0 6 0.5 14t0.5 11q0 20 -17 49q-7 13 -11 16.5t-18 9.5q-19 7 -36 7t-26 -7q-6 -6 -9 -6q-8 -2 -17.5 -8.5t-12.5 -12.5q-3 -4 -3 -17v-17q0 -11 -3 -17q-5 -10 -5 -28t-3 -18q-2 -1 -5 3q-5 9 -13 -6q-2 -4 -2 -6q0 -4 -14 -15.5t-22 -13.5q-7 -1 -7 -5
q0 -5 16 -22q13 -15 20 -15q1 0 1 2q0 3 -5 9q-5 7 -5 11q0 6 5 1q4 -4 16 -8q8 -2 9 -4t-2 -8q-7 -12 4 -12q8 0 17 -6q16 -9 40 -9q10 0 10 3zM164 446q0 7 -8 12.5t-13 -1.5q-2 -4 -10 -2q-9 1 -20 -13l-20 -25q-12 -15 -12 -30q0 -7 4 -7q6 0 16.5 4.5t16.5 5.5
q12 2 12 5q0 2 2.5 3.5t7.5 2.5t11 1t14 -2q16 -5 23 -10q8 -6 11 -4t6 16q4 14 -1 20t-1.5 12t-1.5 9q-8 4 -11 3q-21 -6 -23 -6q-3 0 -3 6zM244 486q0 3 -2.5 4.5t-4.5 -0.5q-7 -7 3 -7q4 0 4 3zM78 472v6q0 11 5 23.5t5 25.5q0 5 5 37q1 6 5.5 16.5t4.5 18.5q0 19 20 42
l3 3q2 2 3 4l2 2q1 2 2 2l1 1q1 0 1 -1q0 -8 -10 -36q-5 -17 -5 -25t1 -13q2 -19 -2 -24q-2 -4 -2 -8q0 -17 11 -25q7 -5 10 -22q1 -16 6 -16q4 0 26 14.5t24 18.5q1 4 -4.5 10.5t-5.5 7.5q2 3 31 25.5t32 22.5t8.5 -6.5t9.5 -6.5q6 0 1 -3q-6 -4 0 -12q4 -6 3.5 -7.5
t-5.5 -4.5q-5 -4 -6.5 -7.5t1.5 -5t10 -1.5h12q37 0 37 -4q0 -3 7 -3q6 0 6 -6t32 -21q29 -14 45 -30t31 -45q13 -25 13 -32q0 -5 -4 -9q-5 -5 -5 -17q0 -13 -5 -15q-6 -3 0 -9q5 -4 6.5 -0.5t4.5 9.5t7 5t5 -32q0 -7 0.5 -15.5t1.5 -14t1 -6.5q0 -4 -7.5 -21.5t-12.5 -17.5
l-2 2q-2 3 -8.5 3t-6.5 -3q0 -5 1.5 -7t4.5 -1q4 2 4 -2q0 -3 5 -4q4 -1 -1 -4l-4 -2q-10 -5 -10 -7q1 -15 -8 -19q-8 -3 -8 -11q0 -6 -6.5 -14.5t-11.5 -1.5q-4 5 -9 0t-5 -11q0 -4 -19 -13q-23 -11 -54 -16q-22 -5 -25 -7q-7 -5 -13 -5q-3 0 -9.5 3t-12.5 3q-12 0 -18 6
q-7 7 -9 7q-3 0 -3 3t8 3q4 0 13 -1t12 -1q5 0 5 2q0 3 -9 8q-15 8 -15 2q1 -1 -0.5 -2t-4.5 -1q-6 0 -6 2q0 3 -9.5 4.5t-13.5 -0.5q-5 -3 1 -5t6 -8q0 -5 -8 -5q-16 0 -50 17l-1 2q0 1 -0.5 3t-0.5 4q0 7 -4 13q-4 5 2 5q5 0 8 -3l2 -1l4 -2l5 -3l5 -2l13 -5l-16 15
q-7 7 -12 11.5t-7 6t-6 6t-11 13.5q-26 33 -38 33h-1q-1 -1 -2 1t-1 6q0 10 -3 10q-2 0 -2 -6t1.5 -12t3.5 -7q3 -2 6.5 -13t5.5 -13q1 -1 6.5 -13.5t11.5 -12.5q5 0 13 -4t2 -9q-5 -3 -8 -3q-5 0 -17.5 10.5t-12.5 14.5t-3 4q-6 0 -13 34q-1 7 -9.5 18.5t-9.5 18.5
q-2 10 -2 21q0 27 6 55q5 15 5 24t5 17q4 8 4 29q0 14 2 24t2 24zM344 673q0 5 5 5q4 0 4 -5q0 -4 -4 -4q-5 0 -5 4zM193 678q20 2 54 2q70 0 70 -5q0 -7 -45 -8q-117 -5 -124 -10q-3 -1 -3 1q0 4 17.5 11.5t30.5 8.5zM406 680q10 3 20 3q28 0 47.5 -19.5t19.5 -44.5
q0 -7 -1 -10q-2 -13 -12.5 -29t-18.5 -20q-10 -5 -27 -16.5t-17 -13.5q0 -4 -8.5 -7.5t-12.5 -1.5q-4 3 -4 72t-3 74q-2 2 -2 3.5t2 3t6 3t11 3.5z" />
    <glyph glyph-name="six" unicode="6" horiz-adv-x="550" 
d="M229 385q0 2 2 2q1 0 1 -2t-1 -2q-2 0 -2 2zM428 398q0 1 1 1q2 0 2 -1q0 -2 -2 -2q-1 0 -1 2zM234 396q2 3 8 3t5 -3t-9 -3q-3 0 -4 0.5t0 2.5zM434 404.5q0 4.5 2 3.5q4 0 3 -5q0 -1 -2 -2q-3 -1 -3 3.5zM412 414q0 5 3 5t3 -5t-3 -5t-3 5zM293 415q0 4 -3 4t-3 -4
q0 -3 3 -3t3 3zM319 414q0 -4 8 -13t8 -11q0 -4 -5 -4t-12.5 2t-9.5 2q-8 0 -9 3q-1 2 -16.5 5t-15.5 7q0 2 2.5 2.5t6 1t4.5 1.5q3 4 2.5 14.5t-3.5 10.5t0 2l3 1q17 6 17 -12q-1 -9 2 -11t12 2q6 3 6 -3zM261 508q-6 0 4 6q6 3 8 2q3 -1 8 -1q2 0 2 -5q0 -4 -4 -4.5
t-10.5 1t-7.5 1.5zM338 298q0 -3 1 -3l1 6v1q-2 -1 -2 -4zM335 353q0 1 -2 1q-1 0 -1 -1q0 -2 1 -2q2 0 2 2zM341 507q0 1 -3 1t-3 -3q0 -5 6 2zM389 527q0 5 -8 11t-13 -1q-4 -5 -4 -12q0 -4 -4 -4q-3 0 -3 -6q0 -5 6 -10.5t11 -3.5q4 2 9.5 11t5.5 15zM126 202
q0 3 -9.5 13.5t-9.5 13.5q0 6 -5 11.5t-11 5.5q-16 0 -16 20q0 5 -3.5 13.5t-3.5 12.5t1 7q1 2 1 6q0 5 -2.5 13t-2.5 13t1 7t1 6q0 5 -3 17.5t-3 17.5q0 15 -4 25q-5 12 -1 21q3 7 3 27q0 35 6 50q12 32 21 62q4 12 26 43q9 14 31 34.5t35 27.5q18 9 54 17t66 8t58 -13
q26 -12 35 -12q6 0 14 -8q6 -8 17 -8q8 0 15 -11q7 -10 7 -15q0 -4 6.5 -11t6.5 -10t6 -6.5t6 -7.5t5 -10t4 -11q-2 -9 15 -20l-35 -57q-36 -59 -44 -62q-2 0 -4.5 -1.5t-3.5 -1.5q-5 0 -20 27q-7 15 -10.5 18.5t-11.5 4.5q-10 0 -30 4t-27 5q-9 1 -11.5 1.5t-4 2.5t-0.5 6
q2 9 5 10q4 2 10 -2.5t5 -7.5q-1 -1 0 -1.5t3 -0.5q3 1 3 2q-2 3 5 10q4 4 3.5 6.5t-9.5 11.5q-12 12 -25 12q-9 0 -26 -3q-29 -7 -29 -15l1 -1q2 -2 -8 -15q-15 -22 -17 -59q0 -7 -4.5 -14t-4.5 -15q0 -7 1.5 -8.5t6.5 -1.5q8 0 8 -5q0 -7 -10 -18l-10 -12l1 -32
q3 -51 30 -71q10 -7 11.5 -7.5t7.5 1.5q7 5 23 7q30 4 41 25q2 3 5 32t6 32q4 4 4 9q0 1 7.5 4t7.5 8q0 10 8 7q5 -3 7 -9q4 -10 6 -10q3 0 3 6.5t-3 8.5q-4 2 -4 9q0 6 -10.5 17t-17.5 11q-4 0 -11.5 6t-12.5 6t-5 4q0 10 23 3q12 -3 34.5 -23.5t29.5 -35.5q9 -19 16 -10
q0 1 1 3q1 3 5 3.5t9.5 -1t7.5 -1.5q3 0 10 -9.5t11 -9.5q23 0 23 -69q0 -21 -3 -32q-6 -20 -37 -57t-50 -47q-24 -12 -84 -22q-4 -2 -15 -2q-10 0 -22.5 2.5t-26 6t-18.5 4.5q-11 2 -21 10t-17 8q-6 0 -29.5 20.5t-23.5 25.5z" />
    <glyph glyph-name="seven" unicode="7" horiz-adv-x="536" 
d="M312 563q-2 -2 -4 0t2 2t2 -2zM185 170q0 3 -2 3q-1 -2 -2 -6q4 0 4 3zM236 199q0 15 -3 17t-3 -1t-4 -3q-6 0 -9.5 -3t1.5 -9q10 -9 0 -17q-5 -3 -5 -8t5 -10t10 -5q2 0 5 14t3 25zM230 264q0 14 -5 16q-6 3 -6 -3q0 -3 2 -8q6 -14 -3 -28q-5 -6 -3 -12q1 -5 6 -5t5 5
t7 9q6 4 6 12l-1 5l-1 -1q-5 -4 -7 10zM252 284q0 8 -7 4q-3 -2 -4 -6q-4 -19 4 -17q5 2 1 4q-4 1 1 6t5 9zM239 311q-1 8 -6 9q-2 -1 -3 -5q0 -3 -6.5 -10.5t-3.5 -11.5q3 -3 7.5 0t8.5 9t3 9zM205 305q3 0 5 7.5t3 17t2 11.5q2 6 -1 6q-4 0 -4 -5q0 -3 -10 -13
q-9 -8 -8 -20q1 -6 0 -8t-4 -1h-2q-9 0 -9 -16q0 -11 8 -14q7 -4 10 4q4 11 5 27q0 4 5 4zM230 377q0 3 -2 4t-5 0t-4 -4q-5 -14 2 -14q9 0 9 14zM252 428q0 2 -1 2q-2 0 -8 -10t-6 -16q0 -3 2 -3t7.5 11.5t5.5 15.5zM271 548q0 1 -1 1q-2 0 -2 -1q0 -2 2 -2q1 0 1 2z
M381 507q0 4 -3 10t-4 10q0 7 -8 11q-4 2 -4.5 4t1 5t0.5 6q-2 6 -8 6q-5 0 -14.5 -5t-11.5 -9t-21 -2q-19 1 -26 -6t-10 -7t-7 -9.5t-2 -12.5q2 -4 10 -4t8 4q0 3 6.5 2t6.5 3t5 4t2 -4t5 -8q8 -3 15 -3q13 0 16 8q3 7 7 7q8 0 8 13q0 3 -5 3q-4 0 -5 4.5t3 6.5q2 1 6 -1.5
t6.5 -6t1.5 -4.5l4 -3q13 -6 -1 -11q-2 0 -4 -1q-7 -2 -9.5 -4.5t-1.5 -4.5q2 -4 2 -6q0 -1 16 -1t16 6zM355 572q0 3 -3 3t-3 -5q0 -7 4 -1q2 1 2 3zM339 621q0 5 -4 5q-8 0 -20 -15q-15 -17 -16 -23q-2 -9 -13 -18l-10 -10q19 -3 20 -6q1 -4 9 -4q5 0 5 0.5t-4 1.5
q-9 4 10 7q7 0 10.5 5.5t6.5 18.5t4 15q2 6 -1 6q-2 0 -4 -7q-2 -6 -8 -6q-5 0 5 13q10 14 10 17zM204 658q19 2 122 2q76 -1 91.5 -3t31.5 -17q11 -10 21 -27.5t10 -26.5q-2 -30 -63 -94q-40 -42 -53 -59q-35 -48 -35 -52t-12 -21t-16 -31q-4 -13 -10 -19q-8 -8 -15 -36
q-8 -31 -8 -70q0 -28 -1 -35t-6 -9q-19 -8 -19 -21q0 -14 -12.5 -23.5t-28.5 -9.5q-15 0 -28 8q-6 4 -11 13t-5 15q0 18 -13 18q-4 0 -4 3q0 4 4 4q5 0 5 3t-4 3q-7 0 -7 21q0 37 7 46q6 8 7 29q2 47 17 62q6 6 2.5 14t0.5 14q5 7 4 26q-1 18 7 25q8 6 8 15t6 14
q12 12 21 43q1 2 1 5q0 8 -34 8q-29 0 -31 3q-2 2 -6.5 1.5t-9.5 -0.5t-5 2q0 3 -7 6q-6 4 -12 -1q-4 -3 -8 -3.5t-9.5 1t-8.5 1.5q-4 0 -9 7q-6 7 -14 6h-3q-6 0 -6 4q0 8 12 20q9 9 9 18q0 8 -4 21q-2 5 0 6t6 0t8 2q3 3 3 7q0 3 -1.5 9.5t-1.5 9.5t1 5q3 4 3 10q-1 4 2 4
q2 0 10 -3.5t12 -3.5q3 0 5 3q8 15 22 19.5t62 8.5z" />
    <glyph glyph-name="eight" unicode="8" horiz-adv-x="514" 
d="M335 260q4 0 4 3q0 4 -7.5 10t-11.5 6q-3 0 -3 -4t6.5 -9.5t11.5 -5.5zM120 265q0 3 -5 11.5t-8 8.5t-3 -9q0 -8 7 -21.5t12 -15.5q4 -1 6 0t1.5 4.5t-3.5 7.5q-7 9 -7 14zM75 310q0 1 -1 1q-2 0 -2 -1q0 -2 2 -2q1 0 1 2zM233 340q-10 5 -36 5q-9 0 -9 -3q0 -4 -7 -11
t-11 -7q-2 0 -5.5 6.5t-8.5 3.5t1 -8q3 -2 4.5 -7.5t0.5 -9.5t-3 -4q-3 0 -3 3t-5 3t-3 -5q0 -1 6 -20q6 -20 12 -20q5 0 5 11q0 6 -1 9q-2 16 0 16q1 0 10 -16q13 -23 17 -28q9 -10 17 -10q3 0 7 0.5t11 1.5l14 2q10 1 29.5 7.5t21.5 8.5q9 9 9 35v3q0 5 5 7q1 1 3 1l11 3
h-9q-6 0 -7 1.5t1 4.5t2 5q0 3 4.5 5.5t6.5 4t-2 5.5q-6 5 -12 1q-12 -6 -59 -6q-13 0 -17 2zM137 350q1 8 -3 9q-3 0 -5 -3q-1 -2 -8 -2q-5 0 -13 -11t-8 -19t8 -9q6 -1 6 4q0 4 6 6q5 2 10.5 10t6.5 15zM296 495q-3 -5 2 -5t5 3q0 2 -2 3q-4 2 -5 -1zM284 525q-3 5 -6 5
l-5 -1q-5 -1 -13.5 -2t-16.5 -2q-35 -5 -41 -12q-10 -11 -10 -21t17 -18q10 -5 16 0q7 3 21.5 6.5t22.5 7.5q15 7 17 19q3 13 -2 18zM79 386q0 1 9.5 20t9.5 20q0 5 -8 15q-9 13 -10 33q-2 25 -6 34q-5 13 -5 19q0 11 15 29q13 14 11 29q0 8 7 15t19 21q4 5 8.5 8.5t8 5
t10 4t11.5 4.5q11 5 30 10t30 10q21 8 35 8q15 0 24 3q3 1 9 1q14 0 46 -14q20 -9 45 -13q3 0 15.5 -11t13.5 -11q3 0 22 -26.5t25 -39.5q8 -19 8 -37v-15q-1 -58 -34 -107q-19 -27 -30 -33q-5 -2 -16.5 -10t-20.5 -11q-8 -2 -10.5 -5.5t1 -6.5t11.5 -3q3 0 15 -2.5t15 1.5
q2 1 6 1q6 0 15.5 -4.5t13.5 -4.5q22 -2 29 -42q3 -15 3 -28q0 -46 -51 -91q-25 -22 -42.5 -30.5t-50.5 -12.5q-23 -3 -50 -3q-64 0 -75 11q-4 4 -10 4q-4 0 -26 10q-24 12 -52 41.5t-28 41.5q0 4 5 4t5 4q0 5 -5 5t-5 -3t-2 -3q-3 0 -8 4.5t-5 9.5q0 3 3 6q6 7 7 14
q-1 -1 -3 -1q-7 0 -11 33q0 2 -0.5 4t-1 5t0 5.5t0.5 4.5t1 3t3 0q3 -2 7 4q3 5 3 -1q0 -14 5 -4q2 5 4 13q4 16 1 20t-2 11t5 7q2 0 5 -6.5t6 -4.5q4 1 11 14.5t7 18.5q0 6 -6 6q-4 0 -10.5 -2.5t-10.5 -5.5z" />
    <glyph glyph-name="nine" unicode="9" horiz-adv-x="541" 
d="M249 268q0 1 -2 1q-1 0 -1 -1q0 -2 1 -2q2 0 2 2zM242 268q0 1 -1 1q-2 0 -2 -1q0 -2 2 -2q1 0 1 2zM190 292q-6 7 -14 7t-14 -7t-6 -16t8 -13q9 -5 10 0q2 5 11 14q7 6 8 8t-3 7zM95 415q1 -1 3 -1q3 1 2 2l-2 1q-2 -1 -3 -2zM151 417q2 4 -5 7q-5 3 -8 0.5t0 -7.5
q2 -3 6.5 -3t6.5 3zM188 440q0 -4 2 -2t0 4q-1 1 -1.5 0.5t-0.5 -2.5zM332 441q0 5 -5 5q-6 0 -3 -5q4 -6 7 -3q1 1 1 3zM324 495q1 -1 3 -1q1 2 -1 4q-1 0 -2 -1t0 -2zM81 504q2 3 -1 6l-1 -5q0 -7 2 -1zM210 543q0 3 -1 3q-4 0 -4 -4q0 -2 2 -2q3 0 3 3zM298 546
q-12 6 -32 6q-37 -1 -50 -19q-4 -6 -8.5 -9.5t-7.5 -3t-4 3.5q-1 4 -7 1q-7 -4 -7.5 -10t5.5 -10q6 -5 3 -14q-2 -8 -2 -13q0 -14 5 -35q5 -29 20 -29q16 0 26 -2q5 -1 15 -1q24 0 39.5 12.5t16.5 32.5q0 25 9 38t9 24q0 5 -9 14t-21 14zM212 551q2 2 3 2.5t-2 3t-3 3.5
q-2 0 -3 -4q0 -4 1 -5t4 0zM197 587q0 3 -6 3q-7 0 -13 -6t-6 -12t-7 -10q-5 -3 -11.5 -15t-10.5 -15q-10 -9 -6 -18q1 -3 4 -3t8.5 6t10.5 13.5t6 8.5q6 4 6 14t17 24q8 6 8 10zM78 442l-1 9q-1 9 -2 22t-1 23q0 27 7 27q3 0 5 6q3 10 9 16.5t9 4.5h1q4 0 11 10.5t7 15.5
q0 15 -20 -8q-12 -15 -12 -7q0 14 19.5 41.5t29.5 27.5q11 0 3 -10q-3 -4 -8 -7q-17 -12 -10 -18l3 -1q11 -1 21 10q10 10 12 10q4 0 9 6t5 11q0 11 45 21q22 5 38 5h4q50 -4 81 -15q10 -3 17 -4t10 -1t8.5 -3t13.5 -10q10 -9 18.5 -20.5t15.5 -18.5q9 -11 9 -17
q0 -8 12 -15q12 -5 16 -18q3 -11 9 -17q5 -5 1 -14q-1 -3 -1 -8q0 -4 2 -13.5t2 -15.5v-5q0 -11 5.5 -40t5.5 -37q0 -5 -1 -6q-3 -12 -3 -38q0 -32 -6 -43q-3 -4 -16 -44q-13 -43 -56 -87q-45 -47 -143 -55q-22 -2 -25 -2q-12 0 -32 7q-7 3 -23 8t-27.5 10t-18.5 11
q-8 6 -16 8q-7 1 -16.5 17t-10.5 17q-5 7 -5 10q0 2 -6.5 5.5t-5.5 8.5q2 6 -4 9t-6 13t-7 11q-5 2 -5 4q0 5 31 56q27 47 27 51q0 10 -10.5 31t-10.5 23q0 6 -2 6q-2 -2 -4.5 -0.5t-4.5 5t-2 6.5q0 6 11 6q7 0 7.5 1t-3.5 3q-2 1 -5.5 1.5t-6.5 1t-3 2.5zM345 659q0 3 2 3
l4 -6l-2 -1q-4 0 -4 4z" />
    <glyph glyph-name="question" unicode="?" horiz-adv-x="602" 
d="M371 216q-4 4 3 14q3 0 4 -2q0 -2 -1.5 -5.5t-3 -5.5t-2.5 -1zM381 236q-1 -1 -3 -1q-3 1 -2 2q0 1 2 1q2 -1 3 -2zM353 236q0 2 1 2q2 0 2 -2q0 -1 -2 -1q-1 0 -1 1zM379 271l1 4q2 -3 1 -6l-1 -2q-1 1 -1 4zM237 272q0 4 3 4t3 -4q0 -5 -3 -5t-3 5zM240 284q0 2 2 2
q1 0 1 -2q0 -1 -1 -1q-2 0 -2 1zM243 296q0 2 1 2q3 -2 2 -5q-1 -1 -2 0t-1 3zM335 145q-2 3 -6.5 3t-6.5 -3t0 -8t5 -5t6 5t2 8zM329 247q9 9 -1 8q-8 -1 -12 -6q-6 -8 -15 1q-6 5 -7.5 3t3.5 -9q5 -6 13 -6q12 0 19 9zM369 290q0 6 2 8v-6q-1 1 -1.5 0.5t-0.5 -2.5z
M385 396q0 2 -1 2q-5 0 -18.5 -12.5t-16.5 -19.5q-5 -10 -13 -14q-10 -5 -11 -10q-1 -1 -5 -1t-8 -7q-9 -17 -17 -20l-9 4q3 -10 -7 -19l-5 -2h5q3 -1 5.5 -4t3.5 -4.5t2 -0.5q2 5 0 4.5t1 0.5q1 0 4 5l5 7q0 5 8 13l8 -1q5 7 5 12q0 1 2 2t5.5 4t9 7t13 12t16.5 18
q18 22 18 24zM114 492q-8 5 -15 5t-7 -6q0 -4 4 -8q2 -3 -1 -8q-3 -6 -3 -10q0 -6 5 -6q9 0 16 10q12 16 1 23zM179 490q0 6 -6 11t-11 4t-7 -8t2 -10t13 -3t9 6zM389 270q-3 0 -6 6.5t-7 6.5q-7 0 -7 -11q0 -7 -5 -18t-8 -11h-1q-4 0 -5 -4l-2 -8q-4 -16 -14 -24
q-6 -5 -6 -9q0 -5 9 -5q17 0 21 6q2 3 5 3q2 0 1 -2q-2 -3 6 -8.5t14 -5.5q7 0 15 -8t8 -15q0 -12 -4.5 -23t-13.5 -24.5t-12 -19.5q-7 -15 -19 -24.5t-23 -9.5q-3 0 -9 2q-6 3 -14 5q-5 1 -27 23q-19 20 -30 20q-10 0 -20.5 9t-10.5 17q0 3 -5.5 15.5t-5.5 16.5q0 14 -2 17
q-4 10 4 16q5 4 15 3.5t15 2.5q4 3 13 -3q14 -9 31 -9q9 0 9 4q0 5 -3 5t-16 11q-18 15 -21 44q-1 11 -7 11q-3 0 -3 7q3 8 4 9l1 2v-1q0 -7 1 -7.5t3 4.5q3 7 1 7h-2q-3 -1 -6 -1q-12 0 -4 12q15 22 16 28q0 2 2 3t4.5 1t7 2.5t9.5 7.5q45 47 45 51l13 11q13 11 13 14
q0 1 -2 1q-3 0 -5 -1q-15 -5 -18 -5q-1 0 -1 1q0 2 10 12q18 18 22 23q8 9 13 8t7 3t-4 6q-3 1 -3 13q0 10 -11 20q-12 10 -28 10h-18q-24 0 -32 -9q-7 -9 -9 -19t-5 -12q-3 -1 0 -6.5t1 -6.5q-4 -2 -2 -6q1 -4 -5 -6t-18 -2q-9 0 -15.5 -7t-31.5 -42q-14 -19 -33 -43
l-8 -10l-13 13q-20 20 -8 21q10 0 2 9q-4 4 -9 7q-10 7 -20 7q-9 0 -14 5l-16 15q-15 14 -15 20q0 7 -7 9t-6 6.5t9 8.5q11 4 14 9q3 6 -1 4q-2 -1 -6 -1q-8 -1 -11 2t0 7q4 6 9 7q14 4 7.5 8.5t-2.5 9.5q1 1 4.5 0.5t5.5 4.5q6 12 6 16q0 8 17.5 38t28.5 42q13 13 42.5 34
t34.5 21t22 10q15 9 60 14q38 5 43 5h1q6 0 28 -5t30 -8q61 -24 85 -46q35 -33 51 -62t16 -67q0 -18 -4 -32q-5 -18 -5 -29q0 -9 -9 -27q-10 -20 -10 -23q0 -6 -15 -21q-5 -5 -21 -25.5t-26 -26.5q-5 -3 -12.5 -3t-15.5 -1t-15 -6q-5 -4 -10.5 -7.5t-8 -5t-4 -3t-1.5 -4.5
l1 -1v-1q-3 -9 -2 -14q2 -8 -1 -8z" />
    <glyph glyph-name="at" unicode="@" horiz-adv-x="527" 
d="M284 197q0 -4 3 -4q5 0 15 9t10 14l-1 2q-1 1 -2 1q-5 0 -15 -8.5t-10 -13.5zM136 220q0 4 -5 4t4 -11q31 -42 79 -57q18 -5 45 -5q31 0 50 6l22 7q-15 12 -22 12q-6 0 -14 5q-8 4 -27 -2q-18 -6 -44 -6q-27 0 -46 10q-15 8 -28.5 20t-13.5 17zM298 405q-7 4 -16 4
q-19 0 -41 -13.5t-35 -33.5q-27 -40 -27 -79q0 -16 5 -25q11 -24 33 -24q26 0 44 21q17 18 25 59q8 39 10 47q7 25 7 34q0 7 -5 10zM202 440q4 0 19 8t20 8q8 0 23 5q10 3 18 3q11 0 24 -10q8 -8 17 -8q6 0 17.5 -10t14.5 -18q3 -7 8 -7t5 -3t-8 -10t-14 -8q-5 -1 -5 -2.5
t4 -10.5q6 -12 19 -11q4 1 3.5 -3t-4.5 -5q-5 -2 -5 -8q0 -4 -5 -11q-4 -6 -6 -24q-2 -16 -12 -47q-7 -21 -7 -26q0 -4 3 -7q5 -5 15 0q34 16 56 61q14 28 14 49q0 18 -7 43q-17 66 -81 87q-26 9 -65 9q-26 0 -39 -4q-38 -10 -73 -45t-44 -71q-5 -23 -5 -49q0 -38 8 -57
q7 -16 11 -16q3 0 1 9q-2 18 -2 30q0 43 10 60q6 9 6 16q0 4 8.5 15.5t9.5 15.5t11 17t10 17t10 11t17 7zM212 530q17 6 49 6q42 0 81 -9q38 -10 42 -12q8 -5 36 -35q32 -34 40 -53.5t13 -83.5v-11q0 -27 -22 -71l-10 -20l7 -9q8 -11 4 -23q-4 -14 -26 -36t-42 -32t-24 -10
q-2 0 -26 -11q-17 -8 -26 -9.5t-45 -2.5l-49 -1l-40 20q-39 20 -61 43q-47 51 -54 127q-1 10 -2 19.5t-2 15t-1 7.5q0 11 9.5 41t16.5 43q7 11 34 48q8 11 32.5 29t36.5 21q14 4 29 9z" />
    <glyph glyph-name="A" unicode="A" horiz-adv-x="571" 
d="M235 444q-6 -5 -7 -1q0 7 6 10h4q4 -4 -3 -9zM129 469q-1 2 -2 6q4 0 4 -3t-2 -3zM136 458q-2 2 -2 7q0 7 3.5 15.5t7.5 8.5t10 -13q5 -12 2.5 -17.5t-10.5 -3.5q-10 2 -11 3zM153 499q0 2 2 2q1 0 1 -2q0 -1 -1 -1q-2 0 -2 1zM159 508q-1 -1 -3 -1q-2 2 0 4q2 0 3 -1
t0 -2zM155 517q-3 6 5 7q5 -1 6 -3q0 -3 -5 -4.5t-6 0.5zM156 212q0 3 -1 3q-2 0 -4 -4q-1 -3 2 -3t3 4zM332 286q6 0 3 5q-4 6 -7 3l-1 -3q0 -5 5 -5zM195 282q2 3 2 8q0 4 -5 4q-4 0 -16 -4q-7 -3 -8.5 -6t2 -5t10.5 -2q11 -1 15 5zM256 432q0 4 -3 7t-3 6t-5 11
q-2 2 -14 37t-15 37q-5 3 -5 8t-5 9.5t-9 2.5q-5 -2 -8.5 -13.5t-7.5 -11.5q-3 0 -10 7q-7 8 -7.5 10.5t4.5 6.5q4 3 4 8q0 4 13 11q9 5 10.5 8t0.5 11v5q0 26 28 35q17 5 34 5q18 0 27 3q20 6 27 -2q5 -7 13 -7q16 0 35 -36q29 -56 42 -107q5 -27 20 -56q4 -7 4 -15t8 -18
t14 -27q2 -4 19 -45t20 -51q1 -4 7 -18t6 -21q0 -8 8 -22q8 -16 8 -25t-6 -21q-6 -13 -26 -23q-24 -12 -45 -12q-40 0 -54 35q-5 10 -12 17q-14 14 -14 45q0 8 3 8t3 -2q0 -4 11 -18.5t16 -17.5q2 -1 6 -1q9 0 37 12q36 15 38 17q1 1 1 4q0 21 -30 72q-2 3 -4 7.5t-3.5 7.5
t-3.5 5.5t-4 2.5q-5 0 -12 -7q-14 -13 -16 -5q0 7 6 20q5 13 5 17t-2 4q-3 0 -11 -12q-12 -19 -15 -23q-6 -9 -5 -12t9 -1q9 1 9 -5q0 -10 -19 -10q-10 0 -10 -5t-6 -8q-6 -4 -6 -18q0 -17 -6 -17q-3 0 -5 5q-4 6 -14 16l-10 11l-51 -1q-45 -1 -58.5 -4t-17.5 -14
q-3 -10 -7 -10q-5 0 -7 -7q-9 -33 -21 -37q-6 -1 -5 -4q1 -4 -1 -7q-1 -3 -4 -3q-5 0 -12 6.5t-8 9.5q-3 6 -20 11q-10 2 -12.5 4t-3.5 8q-1 9 -14 9q-9 0 -17 5.5t-8 11.5v1l1 2q2 6 5 6t3 6t-3 8q-7 4 -7 19q0 13 4 25q12 41 28.5 80.5t21.5 39.5h1q4 -2 2 -6
q-2 -5 3 -6.5t11 1.5q2 1 10 1h22q10 0 12 2q3 2 11 2h12q6 0 9 1q9 2 12 0q10 -5 33 -5q11 0 11 4zM217 652q0 2 1 2q3 -1 2 -4q-1 -1 -2 0t-1 2zM261 676q-2 -2 -4 0t2 2t2 -2zM288 672q-10 5 -4 6q10 3 13 -4q1 -2 1 -3q0 -5 -10 1z" />
    <glyph glyph-name="B" unicode="B" horiz-adv-x="520" 
d="M386 199q0 3 4 3q5 0 4 -10q-1 -9 -4.5 -13t-8.5 -2q-3 1 -4 6t0.5 9t4.5 4q4 -2 4 3zM405 210q0 5 5 5q4 0 7.5 -6t1.5 -8t-8 1.5t-6 7.5zM458 318q2 9 5 1q2 -6 2 -16q0 -27 -6 -43q-4 -9 -10.5 -17.5t-10.5 -8.5t-5 5.5t3 12.5q5 10 5 33q0 17 1 20t6 4q8 2 10 9z
M428 339q0 1 1 1q2 0 2 -1q0 -2 -2 -2q-1 0 -1 2zM418 350q0 4 4 -1l2 -3q0 -4 -4 1zM408 358q0 1 2 1q1 0 1 -1q0 -2 -1 -2q-2 0 -2 2zM373 382q-6 9 1 9t8 -6q0 -2 -2 -4q-4 -4 -7 1zM443 406q0 -2 5 -16t5 -18q0 -3 -2 -3q-3 0 -13 5q-25 11 -25 28q0 8 6 8q3 0 9 -2
t8 -2q4 0 5 2l2 2q1 0 0 -4zM372 425q-2 -2 -5 0q2 1 3 2q4 0 2 -2zM380 432l1 4q2 -3 1 -6l-1 -2q-1 1 -1 4zM428 443q0 -4 2 -2t0 4q-1 1 -1.5 0t-0.5 -2zM418 450q0 3 8 12t8 12q0 7 4 0q4 -5 6 -4q3 2 3 -3q0 -11 -7 -16q-6 -5 -5 -5.5t3.5 -4.5t0.5 -9q-2 -10 -2 -15
q0 -6 -5 -1l-2 2q-7 7 -5 13q2 8 -2 8q-2 0 -3 -2t-4.5 -3t-7 -0.5t-3.5 2.5q0 1 6.5 6.5t6.5 7.5zM425 530q0 4 1 5l2 -6q-1 -2 -1 -3q-1 0 -2 4zM464 542q3 4 4 3.5t1 -6.5l-1 -5l-2 1q-4 4 -2 7zM439 558q1 3 3 3q4 0 9 -15.5t5 -29.5q0 -2 -0.5 -5t-0.5 -4q-2 -10 1 -11
q4 -2 4 -5t-3 -1t-7 -4q-3 -4 -3 -2q0 4 -5 4t-5 -4q0 -5 -2 1q-3 5 -5 0q-2 -3 -2 1v10q1 15 10 25q6 7 6.5 10t-3.5 11q-4 9 -2 16zM358 589q8 3 8 -3q0 -5 -4 -6q-2 -1 -4 1t-2 4.5t2 3.5zM397 600l-1 1v2q0 13 19 13q5 0 10 -3q7 -5 4 -18q-1 -10 -3 -12t-8 -2
q-7 0 -13.5 6t-7.5 13zM407 627q-1 -1 -3 -1q-1 2 1 4q1 0 2 -1t0 -2zM171 240q4 -2 5 1q1 4 -2 7q-3 1 -5 -1q-2 -3 2 -7zM196 264q0 2 -3 2q-4 0 -5 -3t1 -4t4.5 0.5t2.5 4.5zM299 266q0 -4 2 -2t0 4q-1 1 -1.5 0.5t-0.5 -2.5zM382 268q0 8 -4 13q-5 6 -6 1q0 -1 -1 -3v-1
q-1 -3 -1 -8q0 -10 6 -10q5 0 6 8zM341 446q0 4 -1 5q-4 4 -8 -3q-5 -8 4 -8q5 0 5 6zM320 451q-6 6 -11 0q-6 -6 0 -10.5t10 -1.5q8 5 1 12zM190 548q0 8 -4 8q-3 0 -3 -8t3 -8q4 0 4 8zM161 567q0 -6 5 -3q7 4 4 7q-1 1 -4 1q-5 0 -5 -5zM328 646q-2 0 -4.5 0.5t-4.5 1
t-4.5 -0.5t-4.5 -3q-4 -4 -4 -5t4 -5q5 -4 14 -4q7 0 7 8t-3 8zM55 394q0 15 -2.5 88.5t-2.5 92.5v40l13 24q12 22 22.5 30t34.5 8h9q3 0 8.5 -0.5t7.5 -0.5q9 0 26 1.5t28 1.5q95 -4 103 -9q15 -6 23 -7q10 -1 17 -4.5t13 -4.5q7 -1 8 -4t-4 -4q-4 -1 -10 -1q-10 1 -10 -2
q2 -4 -1 -4t-3 -8q0 -5 1 -6.5t7 -1.5q9 0 13 4q5 5 6 1l-2 -6q-4 -6 -17 -3q-14 2 -15 -1q-1 -1 -17 -10t-16 -13t1.5 -9.5t1.5 -7.5q0 -6 -15 -17q-6 -4 -13 -9t-10.5 -7t-10.5 -4t-18 -3q-25 -3 -30 -6.5t-5 -20.5q0 -19 6 -23q15 -8 29 0q6 3 29 3q15 0 24 -1
q13 0 27 -8q14 -7 21 -3q9 4 10 7q2 2 2 0q0 -1 -1 -3q-2 -7 3 -9q4 -1 5.5 1t3.5 11q3 13 14 13q7 0 13 -5t6 -10q0 -4 -4 -7t-4 -12q0 -17 10 -20q3 -1 4 -1q1 -2 -2 -2q-4 -2 -7 1q-8 8 -23 -4q-7 -8 -3 -9q3 -1 -3 -3t-19 -6q-31 -8 -31 -15q0 -3 4 -7q16 -16 16 -24
q0 -1 -0.5 -2t-0.5 -2q-2 -8 -3 -7.5t-5 10.5q-5 11 -8 11q-4 0 -13 -14q-10 -13 -23 -18.5t-43 -9.5q-33 -4 -34 -5q-2 -2 -2 -24q0 -38 20 -38q7 0 14 4q6 3 18 3q7 0 20 -1t17 -1q23 -2 35 -19q6 -6 16 -1q5 3 11.5 4t7.5 3t2 7.5t1 19.5q0 27 -2 28q-4 2 -4 13
q0 10 -8 14q-8 3 -8 10t10 1q3 -2 11.5 -2.5t14 -2t5.5 -6.5l-1 -1v-2q-2 -5 -4 -5q-6 3 -5 -4q0 -6 5 -15q10 -17 15 -17q4 0 4 8q0 9 3.5 11.5t8.5 -2.5t2 -5q-4 0 -6 -13q-3 -13 3 -18q5 -4 3 -12q-3 -10 -16.5 -28.5t-21.5 -22.5q-18 -10 -5 -14q5 -2 5.5 -4.5t-1.5 -7
t-2 -8.5q0 -7 -20 -17q-22 -10 -23 -10q-3 0 -8 -4.5t-9 -4.5q-7 0 -16 -6q-27 -15 -109 -15q-60 0 -73 6q-23 10 -34 32q-6 12 -6 29q0 16 1 28q1 11 1 29q0 19 -3 31q-2 6 -2.5 13t0.5 8q2 4 2 18q0 40 -5 48q-3 6 -3 19z" />
    <glyph glyph-name="C" unicode="C" horiz-adv-x="618" 
d="M510 338q-7 5 -27 7q-21 2 -24 -4t-3 -12q0 -10 7 -10q5 0 9 4q5 5 11.5 3.5t7.5 -7.5q1 -8 4 -9t5.5 1.5t6 4.5t6.5 1q4 -2 5 4q0 12 -8 17zM469 462q4 -3 5 0q3 5 -2 9q-3 2 -5 -2q-2 -3 2 -7zM521 496q7 -4 8 4q1 11 -7 11q-4 0 -4.5 -6.5t3.5 -8.5zM466 515q0 2 -2 2
t-2 -2q0 -1 2 -1t2 1zM427 548q0 4 -8 4q-10 0 -10 -8q0 -7 7 -14t16 -8q5 0 7.5 2t1.5 6t-6 7q-8 5 -8 11zM457 573q2 -2 4 0t-2 2t-2 -2zM408 567q0 10 -21 10h-10l10 -7q14 -12 20 -6q1 1 1 3zM373 580q0 4 -5 4q-2 0 -1 -2q1 -5 5 -4zM298 588q0 3 -4 3q-5 0 -5 -3t5 -3
q4 0 4 3zM448 585q6 0 2 7q-2 2 -3 2q-3 0 -3 -5q0 -4 4 -4zM339 582q6 6 -6 10.5t-12 -3.5q0 -4 7.5 -6.5t10.5 -0.5zM532 343q4 0 8 -9l5 -10q5 5 10 7.5t10 -1.5q0 -4 -4 -8t-8 -4t-8.5 -4.5t-4.5 -8.5q0 -2 4 -2h7q4 0 4 -2q0 -4 -7 -14q-5 -7 -23 -40
q-20 -38 -44.5 -69.5t-41.5 -40.5q-64 -33 -139 -33q-10 0 -32 2q-57 6 -108.5 45t-78.5 97q-15 33 -26 94q-3 19 -3 44q0 56 13 91q8 21 8 27q0 8 7.5 21.5t20.5 31.5t15 22q7 10 16 17t15 15q10 14 25 22q13 7 23 14q5 4 13 4h5q5 0 13 3l25 10q11 4 34 4q36 0 82.5 -10
t67.5 -21q15 -8 42 -37t27 -37q0 -7 4 -7q5 0 11 -14q5 -11 12 -16q5 -3 5 -11q0 -9 5 -17q3 -6 3 -8q0 -7 -20 -8q-7 -1 -13 -14q-11 -25 -32 -25q-7 0 -16 7t-13 15q-8 19 -25 12q-7 -2 -10.5 2t-0.5 11q2 6 0 13.5t-6 7.5q-3 0 -3 4t-14.5 14.5t-20.5 10.5q-7 0 -21 9
q-15 9 -22 9q-1 0 -3.5 -0.5t-4.5 -0.5q-11 -1 -22 -8t-19 -8q-13 -2 -27 -12.5t-22 -21.5q-9 -13 -13 -14t-4 -7q0 -3 -6 -13q-12 -18 -12 -68q0 -20 3 -35q5 -18 5 -29q0 -9 7 -21q33 -63 95 -63q35 0 53 14q29 24 29 34v1l-1 2q0 4 11.5 11t11.5 10q0 7 7 15.5t13 8.5
q7 0 11 3.5t2 8.5q0 1 -0.5 2t-0.5 2q0 19 16 31q9 8 25 8q13 0 19 -5q5 -4 15 -21.5t10 -23.5q0 -15 7 -15z" />
    <glyph glyph-name="D" unicode="D" horiz-adv-x="568" 
d="M383 189q2 0 12.5 5t14.5 5q3 0 3 -4q0 -3 -1 -5q-2 -4 -5.5 -4.5t-8 1t-9.5 -0.5q-7 -1 -4 -7q4 -5 2 -10.5t-7 -3.5q-7 3 -7 11q0 13 10 13zM449 265q5 18 9 18q3 0 7 -3q5 -5 9 -3q3 2 4 -3q0 -13 -7 -23q-8 -10 -14 -19q-6 -12 -17 -16q-7 -3 -8 -5t0 -7q2 -9 -2 -9
q-5 0 -8 -1h-1q-1 -1 -2 -1q-3 0 -3 5q0 10 9 22q19 28 24 45zM465 313q0 1 2 1q1 0 1 -1q0 -2 -1 -2q-2 0 -2 2zM448 333q3 9 8 1q3 -6 3 -15q0 -8 -4 -9q-2 -1 -3 2v2q0 10 -2 0q-2 -6 -5 -4t3 23zM489 411q6 3 8 3q7 -15 8 -18l2 10q4 14 5 -4q1 -5 1 -11q1 -16 -4 -17
q-5 -2 -5 -7q0 -4 -5 -6t-5 -13q0 -8 4 -18q1 -1 1 -4q0 -5 -4 -14.5t-4 -12.5q0 -4 -7 -4t-2 6q6 8 6 14q0 1 -0.5 12t-0.5 19q0 22 -2 22q-4 -2 -5.5 4.5t0.5 19.5q3 16 9 19zM514 428l1 4q2 -3 1 -6l-1 -2q-1 1 -1 4zM409 414q-2 2 -5 10t0 9q4 0 8.5 -9.5t4.5 -18.5
q0 -12 7 -18q3 -3 4 -6t0 -9t-1 -8q0 -4 -10.5 -7.5t-11.5 3.5q-2 7 -5 1q-1 -1 -1 -2l-4 -8l-1 8q0 8 6 20.5t10 12.5q2 0 3 4.5t-0.5 10t-3.5 7.5zM404 440q-5 0 -1 4l3 2q1 0 1 -3t-3 -3zM439 437q0 1 -1 4l-2 5q0 1 1.5 2.5t5.5 0.5q5 -1 9 -8t4 -13q0 -7 -5 -7
q-7 0 -6 16q1 5 0 5q-1 1 -4 -3q-2 -3 -2 -2zM427 446l2 3q2 -3 0 -5q-1 -1 -1.5 -0.5t-0.5 2.5zM389 490q-2 8 -2 11q0 9 5 9q3 0 9 -6q18 -20 18 -32q0 -9 -10 -10q-7 -2 -14 6q-3 6 -3 10.5t-3 11.5zM381 512q-1 -1 -3 -1q-3 1 -2 2l2 1q2 -1 3 -2zM284 187q-10 2 -13 2
q-12 0 -26 -9l10 -2q14 -2 26 -2h7q9 1 1 8zM182 226q0 8 -5 4q-8 -5 -3 -8l3 -1q5 0 5 5zM234 241q0 3 -4 3q-2 -1 2 -7q2 0 2 4zM198 233q4 -4 5 2q1 7 -2 10q-2 3 -5 -3q-2 -5 2 -9zM390 270l8 8q-14 6 -25 0q-11 -7 -11 -8q-3 -29 2 -29q4 0 11 7t7 11q0 5 8 11z
M195 543q0 3 -3 3t-3 -3t3 -3t3 3zM443 567q-6 1 -13 2t-10 0q0 -3 12 -15.5t18 -15.5q4 -3 6 -12q2 -10 4 -10.5t4 8.5v5q0 12 -6.5 24t-14.5 14zM182 564q-3 13 -14 1q-6 -7 -3 -10q4 -4 11 0t6 9zM261 591q2 3 1 5t-3.5 2t-5.5 -2q-5 -7 3 -7q4 0 5 2zM285 594
q2 0 10 -2.5t12 -2.5q7 0 7 7q0 3 -6.5 5t-13.5 3.5t-8 2.5q-5 6 -20 -9q12 -6 19 -4zM397 609q-15 15 -20 8q-3 -5 15 -15q11 -7 13 -5t-8 12zM301 641q0 1 -3 1t-3 -3q0 -5 6 2zM54 390q0 32 -2 56.5t-2 72.5q0 61 2.5 77.5t15.5 46.5q16 37 74 37q20 0 31 -1q20 -1 53 -1
q28 0 48 -17q12 -10 74 -20q9 -2 18.5 -4t15 -3t9.5 -1h1q4 0 12.5 -8.5t11.5 -14.5q5 -11 27 -24q24 -14 28 -22q7 -12 12 -18q6 -7 17.5 -31.5t11.5 -38.5q0 -8 -6 -10q-4 -1 -5 1.5t-1 9.5q0 10 -5.5 14.5t-11.5 0.5q-2 -2 -5 -2q-3 -2 -3 -4q0 -5 6.5 -9t6.5 -7
q0 -4 -5 -3.5t-6 -1.5l-7 10l-7 10q-3 0 -10 14q-18 34 -61 73q-20 19 -23 12q0 -2 1 -4l2 -6q2 -5 2 -6.5t-3 -4.5q-6 -2 -6 -6q0 -5 -3 -6l1 -1q3 0 4.5 -2.5t0.5 -6t-5 -5.5q-14 -8 -14 2q0 5 -4 5q-5 0 -5 3q0 7 -68 7q-37 0 -58 -14l-11 -8l-1 -35q0 -39 3 -46
q4 -12 4 -31q0 -12 4 -86q2 -66 8 -72q6 -5 6 -3h1q2 0 5.5 -1.5t6.5 -3.5q18 -9 24 -29q5 -19 11 0q4 9 20 13q17 4 24 9q5 4 11 3t6 -6q0 -3 -3 -9q-3 -7 1 -7q8 0 14 9q0 3 -1 4q-4 1 -4 5t5 13.5t5 11.5q-2 6 4 12q2 2 13 22q14 30 14 8q0 -8 2.5 -13t6.5 -3
q3 1 4.5 0.5t3 -1.5t3 0t2.5 6q2 9 7 10q2 0 3 -2t1 -4q0 -7 -3 -7q-4 0 -4 -11t-3 -19q-4 -9 -23.5 -30.5t-29.5 -26.5q-18 -10 -2 -14q6 -1 7.5 -3.5t-0.5 -5.5t-2.5 -6.5t2.5 -6.5q10 -10 -5 -13q-6 -1 -18 -8t-18 -8q-9 -2 -11 -8q-2 -8 -9 -5q-8 2 -39 2t-48 -10
q-30 -16 -69 -16q-20 0 -34 6q-37 17 -43 58q-1 8 -3 87q0 71 -4 79t-4 51z" />
    <glyph glyph-name="E" unicode="E" horiz-adv-x="514" 
d="M367 241q-2 11 1 12t13 -6q9 -6 4 -14q-3 -8 -8 -8q-7 0 -10 16zM357 331q-2 2 4 4t7 -1q0 -3 -5 -4.5t-6 1.5zM357 541q-2 -2 -4 0t2 2t2 -2zM249 540q0 3 14 3t26 -3q7 -2 7.5 -2.5t-4.5 -3.5q-4 -2 -9.5 -3.5t-10 -0.5t-4.5 3q0 3 -9 3q-10 0 -10 4zM378 551q0 2 10 0
q10 -1 11 -7q-1 -3 -6 -4q-5 0 -10 3.5t-5 7.5zM192 255q-7 7 -19 1q-11 -6 -11 -15t14 -25q12 -14 17 -14q4 0 4 23q0 26 -5 30zM178 332q-3 3 -16 3q-12 0 -15 -3t-3 -4q0 -3 12 -3h6q10 0 10 -2q0 -3 3 1q1 2 12 2t13 2q3 5 -6 7q-4 1 -8 -1zM172 478q0 -3 1 -3q2 2 1 6
q-1 -1 -2 -3zM198 608q0 2 -16 2q-20 1 -23 -8q-1 -2 1 -4q1 1 2 3q0 6 3 0q4 -5 12.5 -5t13.5 5zM276 615q-4 0 -20 2t-23 2q-12 0 -16 -4q-5 -3 -5 -5q0 -6 22 -6q16 0 21 3q1 1 4 1t12 -4t13 -4q6 0 8 6q2 5 -0.5 6.5t-15.5 2.5zM163 631q2 -2 5 0q-2 1 -3 2q-4 0 -2 -2z
M249 647q0 5 -6 5q-8 0 -4 -6q2 -4 6 -4t4 5zM355 248q0 -3 5 -13t5 -15q-2 -7 6 -20q6 -13 0 -14q-7 -2 -11 -6q-5 -6 3 -15q6 -6 6.5 -8.5t-3.5 -9.5q-4 -9 -16 -9q-10 0 -12 3q-1 2 -5 1t-10.5 -4t-10.5 -7q-13 -13 -40 -15q-98 -5 -123 -5q-29 0 -38 3q-31 9 -44 30
q-11 17 -14 43.5t-3 111.5q0 129 10 135q4 2 5 82q0 59 1 70t6 13q7 3 5.5 12.5t1.5 15.5q3 5 3 0q0 -4 10 6q9 9 14 9q4 0 -2 4q-4 2 1 2q3 0 8 -1q14 -3 14 3q0 5 2 5q55 2 60 7q3 3 20 3h118h25q26 0 32 3q8 5 13 1.5t4 -14.5q0 -9 4 -9q5 0 5 -5q0 -7 8 -4q7 3 19 -9
t12 -25q0 -12 -10 -22q-10 -13 -12 -8q-1 2 3 8q5 5 7 17q2 7 0.5 10t-9.5 7q-12 6 -12 10q0 5 -5 5t-3.5 -6.5t-1.5 -6.5q-4 0 3 -5q6 -5 10 -3q2 1 4 -2.5t2.5 -8.5t-0.5 -9q-1 -3 -9.5 -7.5t-8.5 -11.5q0 -6 -2 -7t-12 1q-14 3 -11 -2q1 -2 0 -2.5t-6 1.5q-3 1 -10 1
q-25 0 -25 -6q0 -5 -4.5 -7t-9 -0.5t-4.5 4.5q0 2 5 0q7 -3 3 11l-3 10q-1 1 -18 1h-4v-2q2 0 3 -1q4 -2 6.5 -7.5t1.5 -10.5t-5 -5t-4.5 -5.5t-2.5 -6.5q-1 -1 -2 1t-1 6q0 8 4 8t4 4q0 3 -12 3q-13 0 -21 8t-11 3q-3 -6 -27 -7q-38 -2 -38 -11q0 -4 8 -5q8 -2 8 -4
q0 -1 3 -1t7 2q2 1 6 1q9 0 9 -6t-11 -6h-15q-23 0 -27 -5q-2 -3 -6.5 -3t-4.5 -2q0 -3 -3 -1t-3 -14q0 -17 3 -17t3 -9q0 -7 4 -8q8 -2 125 -3q86 -1 103 -4t34 -22q17 -17 17 -43v-11q-2 -19 -12.5 -29t-33.5 -18q-26 -8 -28 -3q-3 3 -3 57q0 53 -4 57t-22 4q-30 0 -94 -6
q-29 -3 -60 -3q-24 0 -29 -3q-4 -3 -4.5 -13.5t3.5 -12.5q3 -2 3.5 -8t-3.5 -6t-25.5 20.5t-21.5 24.5q0 2 5.5 5t9.5 2h8q7 0 2 5q-3 5 -5 1q-1 -3 -5.5 -3t-5.5 4q0 2 -6 2q-19 0 -42 -13q-13 -7 -13 -17q0 -12 -5 -22q-3 -9 -3 -16q0 -15 12 -30q10 -13 20.5 -18t34.5 -7
l15 -2l23 24q21 21 26 21q6 0 6 -21q0 -16 3.5 -21t15.5 -5q41 0 92 -9q10 -3 9 -5q-6 -3 -71 -3q-33 0 -41 -3t-8 -26q0 -34 13 -34q2 0 7 3q5 6 10.5 2.5t11.5 -2.5q11 2 18 -4q8 -7 14 -1q5 5 14 -1q9 -5 15 1q4 4 6 4q4 0 18 -21q7 -11 10 -5q2 5 -3 12q-3 5 -3 7
q0 3 5 3t10 -3.5t5 -7.5z" />
    <glyph glyph-name="F" unicode="F" horiz-adv-x="539" 
d="M120 160q0 3 4 3q3 0 3 -3t-3 -3q-4 0 -4 3zM146 156q0 11 26 25q6 4 7.5 3t5.5 -10l6 -12v10q0 6 1.5 7.5t5.5 0.5q6 -2 6 -5q-1 -1 -3 -2q-2 0 -3 -2.5t0.5 -5t3.5 -2.5l-8 -5q-1 -1 -2 0q-2 2 -5 -1t-22 -5t-19 4zM201 206l2 5q2 -2 0 -6q-2 -6 -2 1zM81 204q0 1 1 3
q1 4 1.5 3.5t0.5 -4.5l1 -7q1 -7 2.5 -11t3.5 -3q4 0 4 -12q0 -9 -1.5 -10.5t-8.5 -3.5t-14 0.5t-11 2.5q-10 1 -10 4q0 1 4 1q5 0 5 4t2.5 5t3.5 -3q1 -1 1 -2q1 -2 2 1q1 4 3 14q0 2 1 6l2 10l1 -2q3 -9 6 4zM134 232q1 -3 2 -11q1 -4 1 -10q0 -9 -4 -9q-5 0 -8 15
q-3 11 3 11t6 4zM91 236q0 1 2 1t2 -1q0 -2 -2 -2t-2 2zM86 234v4l1 -7v-1q-1 1 -1 4zM75 247q0 3 4 3q3 0 3 -3t-3 -3q-4 0 -4 3zM104 265q0 1 2 1t2 -1q0 -2 -2 -2t-2 2zM60 253q-5 0 -5 13q0 6 1 6q2 0 5 -10q2 -9 -1 -9zM105 292q0 4 1 5l2 -6q-1 -2 -1 -3q-1 0 -2 4z
M111 557q0 2 1 2q2 0 2 -2q0 -1 -2 -1q-1 0 -1 1zM268 570q0 2 2 2t2 -2t-2 -2t-2 2zM259 600q0 4 3 4t3 -1zM188 311q4 1 -2 7q-1 0 -1 -4q0 -3 3 -3zM163 396q-2 6 -6 5t-4 -8q0 -8 6 -8q8 0 4 11zM176 458l1 -5q1 6 0 10q-1 -3 -1 -5zM336 460q0 7 -4 7q-5 1 -5 -5l1 -3
q1 -2 3 -3t3.5 0.5t1.5 3.5zM191 437q1 0 11 -13l9 -13q7 0 8 37q1 27 -3 28q-4 2 -11 -3.5t-7 -10.5q0 -6 -5 -11q-8 -8 -4 -13zM165 509l-7 11q-2 0 -5 -8q-4 -12 -4 -15q0 -11 8 -11q3 0 8 3q6 4 6 6.5t-6 13.5zM135 502q4 4 4 9q0 9 -7 9q-6 0 -10 -11q-7 -18 1 -25
q7 -6 9 1q1 3 0 9.5t3 7.5zM185 540l2 -3q2 3 0 5q-1 1 -1.5 0.5t-0.5 -2.5zM218 541q-4 11 -19 0q-6 -5 -1 -8t10.5 -3t8.5 3.5t1 7.5zM207 598q0 6 -8 1q-3 -2 -5 -5q-3 -7 -8 -5q-4 1 -4 -1q0 -6 8.5 -5t11.5 5q5 7 5 10zM104 604q0 -2 1 -2q3 1 2 4q-1 1 -2 0t-1 -2z
M345 549q6 0 20.5 5t20.5 5q14 0 17.5 9t3.5 41q0 39 -5 43q-2 2 -21 2q-14 0 -37 -1l-24 -1q-2 0 -20.5 -2t-27.5 -2q-7 0 -9 1q-7 4 -23 -2q-14 -5 -23 0q-9 6 -17 3q-13 -4 -48 -4q-13 0 -16 -2t-13 -13q-12 -16 -10 -26q2 -11 -4 -11t0 -2q8 -2 -6 -11q-2 -2 -2 -3
q5 0 1 -3q-4 -2 -3.5 -8t4.5 -9q3 -3 -1 -5t1 -13.5t2 -12.5q-4 -1 -3.5 -8.5t4.5 -7.5q5 0 5 21v22l5 -10q9 -19 13 -11q1 2 1 5q0 8 -5 8t-5 13q0 11 3 14q5 3 -1 28q0 1 -0.5 2t-0.5 2q0 16 42 16q22 0 39 -5q4 -1 13.5 -4t12.5 -4q19 -6 3 -13q-6 -3 -7 -5.5t0 -12.5
q2 -16 -1 -17t-1 -6t21 -5q23 0 27 6t11 -1q6 -6 14 -3q6 2 14 2q23 0 23 -5t-27 -11.5t-49 -7.5q-33 0 -33 -22q0 -9 4 -17q3 -6 6.5 -7t18.5 0q21 1 25 -4q2 -5 10 -2.5t12 0.5q6 -5 11 0t8 1q2 -4 11 -2t16 -5q8 -8 10 -3q2 4 17 -3q5 -3 3 -4q-4 -2 -4 -9t-8 -10
q-6 -3 -7.5 -10.5t2.5 -12.5q13 -13 0 -19q-7 -2 -8.5 -10t3.5 -15q5 -3 1.5 -12t-3.5 -10q0 -2 -16 -2q-15 0 -24 -8q-11 -10 -20 -13t-39 -6q-39 -4 -43 -5q-4 -3 -4 -18v-16v-16q0 -17 -5 -18q-4 -1 -4.5 1.5t-0.5 11.5v9q0 21 -7 21q-2 0 -5 -4t-9 -4q-5 0 -6 -19v-18
l-3 19l-2 14q0 -6 -4 -6q-3 0 -3 16t3 16t3 5q0 7 -16 7q-17 0 -19 -8q0 -5 -3 -1q0 1 -1 3q-2 5 -5 6t-6 -1.5t-4 -7.5q0 -5 -4 -9q-2 -2 -4 -16l-2 -16q0 -1 -6 -1q-7 0 -8 -4q-2 -5 -6 -5t-1 14q5 28 14 28t1 13q-2 5 -6 8q-6 5 -6.5 14t-5.5 15q-7 7 -11 27q-3 14 -3 91
q0 134 5 152q8 27 28 41q16 12 37.5 15t95.5 3q92 0 93 1q2 2 8 2q9 0 23 -3q2 0 7 -0.5t8 -0.5t9 0.5t9 0.5q14 1 18 0t9 -7q6 -8 14 -5q6 2 9 2q13 0 27 -9t19 -21q4 -9 4 -19q0 -12 -9 -30q-20 -40 -51 -40q-9 0 -13 -9q-2 -7 -4.5 -8t-15.5 0q-54 5 -54 10q0 4 9 4z" />
    <glyph glyph-name="G" unicode="G" horiz-adv-x="616" 
d="M351 316q8 10 16 -11q4 -9 1.5 -11.5t-10.5 1.5q-18 9 -7 21zM544 197q0 2 -2 2t-2 -2t2 -2t2 2zM439 294q-1 4 -6 5.5t-7 -1.5t3 -8q2 -3 5 -3.5t4.5 2t0.5 5.5zM446 331q-2 0 -11.5 11.5t-13.5 11.5t-5 -5q-1 -3 1.5 -11t1.5 -12q-1 -3 1 -4t7 -3q9 -2 18 -11
q10 -10 13 -10q9 0 0 10q-6 7 -7 20q0 3 -5 3zM148 419q0 7 -3 8q-3 0 -6 -8t4 -8q5 0 5 8zM167 485q3 10 0 9t-9 -8q-13 -17 -4 -22q3 -1 6.5 4.5t6.5 16.5zM374 324q0 3 -3.5 13t-3.5 15q0 7 7 7q2 0 10 5q4 3 3 4.5t-8 9.5q-5 5 -6.5 8t-0.5 4t2.5 4.5t1.5 7.5q0 6 5 6
t5 -5t4 -5q2 0 1 3l21 2q22 0 28 7q3 4 12 8.5t9 9.5q0 3 -5 15q-5 10 -14.5 15.5t-12.5 21.5q-4 20 -17 32q-9 9 -12 10.5t-9 -1.5q-10 -4 -15 -2q-10 4 -11 12q0 2 2 2q4 0 0 5q-4 4 -17 4t-16 3q-4 4 -10 3.5t-7 -4.5t-10 -4t-19 -7q-8 -5 -14 -5t-13 -5q-2 -1 -9 -6
t-10 -7q-11 -7 -20 -21.5t-9 -24.5q0 -13 -6 -25t-6 -57v-47l13 -24q12 -25 20.5 -34t27.5 -18q31 -14 60 -14q44 0 64 26q5 7 5 15q0 12 -10 22q-7 9 -7 16zM295 576q2 -2 7 0q-1 1 -3 1zM376 581q0 4 -6 4t-6 -4q0 -3 6 -3t6 3zM281 576q3 9 -4 9q-6 0 -8 -4q-1 -3 -13 -3
q-11 0 -11 -5q0 -3 -6 -7q-7 -4 1 -4q6 0 2 -4t-8 0t-9 4q-11 0 -31 -21q-20 -22 -20 -27q0 -4 11 7q10 11 24 14q13 2 13 6q0 5 6.5 9t14.5 3h2q26 0 33 11q1 2 3 12zM210 575q10 0 10 5q0 8 -9 8q-6 0 -9 -6q-2 -3 -14 -2q-6 1 -8 1t-2.5 -2t0.5 -5q2 -8 -3 -16
q-4 -9 -1 -9q6 2 16 13q12 13 20 13zM222 610q2 3 2 5v1l-4 -3q-1 -3 -6 -1q-2 1 -6 -1t-6 -5t-1 -4q3 -3 11 0t10 8zM428 620q-5 5 -21.5 10.5t-25.5 5.5q-4 0 -9.5 -1.5t-8.5 -2.5l-3 -2q1 -1 -1.5 -7.5t-1.5 -7.5l29 -6q28 -6 37 -13q8 -5 25.5 -23t17.5 -21l10 -24
q10 -20 8 -29q-2 -8 -4 -8t-6 8t-4 13q0 7 -8 19.5t-16 16.5q-15 10 -18 14q-5 5 -7 5t-2 -2q0 -4 4.5 -16t4.5 -14t4 -8q6 -10 9 -20q13 -40 27 -40q4 0 6 2t26 4q26 1 26 8q0 4 -6 10q-9 9 -8 20q1 7 -1.5 11.5t-2.5 8.5q0 8 -8 16q-8 9 -4 14t-3 10l-13 11
q-14 12 -26.5 22t-15.5 10q-4 0 -10 6zM331 641q0 3 -2 4t-5 0t-6 -4q-4 -4 -28 -4t-26 -5q-4 -6 -8 -6q-5 0 -5 -3q0 -2 6.5 -1t6.5 -2t-4 -3t-11.5 -7.5t-7.5 -11.5q0 -12 15 2l3 3l11 12h35q42 0 42 6q0 1 -2 3q-3 5 0 8q0 4 -5 4q-9 0 -9 5zM310 671q5 0 10.5 1t9.5 1.5
t5 0.5q3 0 17 -3.5t19 -3.5h3q6 1 15 -6q10 -8 23 -10q29 -5 68 -45q30 -31 49.5 -64t21.5 -54q1 -11 -7 -13q-8 -3 -9 -13q0 -6 -5 -23q-4 -11 5 -21q23 -24 28 -84q2 -32 2 -34q0 -10 -3 -13q-4 -4 -8 -23.5t-4 -33.5q0 -2 0.5 -5t0.5 -4q1 -4 1 -9q0 -4 -2 -11.5
t-2 -16.5q0 -31 -10 -53q-10 -19 -33 -19q-12 0 -22 8l-9 8l20 -1h9q19 0 30 14q2 3 3.5 8.5t0.5 9.5t-3 4q-4 0 -2 13q0 2 0.5 4.5t0.5 3.5q0 7 -4 7q-6 0 -16 -16q-8 -13 -22 -20q-14 -8 -17 -14q-4 -7 -9 -7q-7 0 -16 -7q-25 -19 -61 -28q-20 -5 -72 -5q-38 0 -53 3
q-47 10 -58 17q-3 3 -8 3q-7 2 -26.5 14.5t-32.5 24.5q-8 8 -17 19t-19 25t-14 19q-8 10 -19 48.5t-14 64.5q-3 27 -3 50q0 50 17 106q18 56 43 82q21 23 22 26q6 12 14 15q10 4 15 11q6 8 9 8q4 0 18 7q51 28 120 34z" />
    <glyph glyph-name="H" unicode="H" horiz-adv-x="576" 
d="M391 154q0 2 13 -9q18 -17 13 -17q-4 0 -15 11t-11 15zM177 573q-2 -2 -4 0t2 2t2 -2zM522 631q0 2 2 2t2 -2q0 -1 -2 -1t-2 1zM393 631q-2 -2 -5 0q2 1 3 2q4 0 2 -2zM178 631q0 2 2 2t2 -2q0 -1 -2 -1t-2 1zM199 354q-4 4 -7.5 1.5t-3.5 -7.5t5 -5q4 0 6 4.5t0 6.5z
M175 351q1 3 -1 4t-7 1q-4 0 -8.5 -2.5t-6.5 -5.5t0 -5q3 -3 12.5 0.5t10.5 7.5zM386 358q-5 8 -6 8q-3 0 -5.5 -5t-1.5 -10q5 -16 14 -6q4 5 -1 13zM501 340q0 3 0.5 7.5t0.5 6.5q0 21 -11 21q-7 0 -17 -6q-11 -6 -28 -5q-14 1 -16 -1t6 -12q5 -7 5 -9q0 -4 -10 -4
q-3 0 -12 1t-13 1q-12 0 -13 -5q-6 -15 -6 -109v-6q0 -12 5 -12q6 0 30 24q26 26 33 26q3 0 3 -5t24 -29q21 -21 25 -21q5 0 5 12q0 8 -7 62q-4 34 -4 55v8zM200 370q4 8 -2 13q-6 6 -13 -3q-6 -6 -6.5 -7.5t4.5 -5.5q12 -8 17 3zM376 392q-5 -6 2 -7q3 0 3 3q0 2 -1 4
q-1 5 -4 0zM358 400q0 5 -6 5t-6 -5t6 -5t6 5zM500 425q0 8 -8 8t-10 -12q-5 -30 -37 -30h-6q-9 1 -9 -2t-10 -2q-13 3 -13 -3q0 -5 6.5 -8.5t11.5 -0.5q6 4 20 2h4q20 0 35.5 15.5t15.5 32.5zM398 429q0 -19 27 -19q15 0 27.5 6.5t12.5 15.5q0 12 -5 12q-2 0 -4 -2
q-4 -4 -4 -8t-2 -5t-5 -0.5t-6.5 1.5t-7 1.5t-5.5 -1.5q-2 -1 -27 7q-1 -3 -1 -8zM416 454q-1 2 -5 3t-7.5 0.5t-3.5 -1.5q0 -3 9 -3zM403 464q0 2 -1 2q-2 0 -2 -2t2 -2q1 0 1 2zM411 488q-2 4 -8 3t-8 -5q-5 -11 8 -11q5 0 7.5 4.5t0.5 8.5zM70 482v-8l1 15q-1 -2 -1 -7z
M479 536q-6 10 -8 10q-3 0 -4 -4.5t1 -8.5q2 -2 0 -11q-2 -5 0.5 -14.5t6.5 -9.5q1 0 1.5 3.5t3.5 4.5q5 2 5 9t-6 21zM500 575q0 -4 2 -2t0 4q-1 1 -1.5 0t-0.5 -2zM437 563q2 5 -7 12q-7 2 -7 1q0 -4 -2.5 -9.5t-1.5 -13.5q2 -14 2 -33q0 -14 0.5 -17.5t3.5 -2.5t3 6t2 5
q4 0 0 3q-4 1 0 3t0 6q-5 3 -2 21q2 16 4 16q3 -3 5 3zM149 607q0 3 -4 3t-6 -2t-2 -6q1 -8 12 5zM160 612v-5q3 5 1 11zM487 653q0 -5 3.5 -10t3.5 -12q0 -6 1 -8.5t3 -1.5q4 2 4 7q0 6 7 6q8 0 9 -12q0 -14 -3 -19q-6 -8 -6 -109v-11q0 -9 9 -25q7 -14 7 -27q0 -14 -1 -25
q-3 -52 -3 -87q0 -20 2 -42q2 -18 2 -20q0 -6 -4 -14q-4 -7 0 -11t4 -12q0 -6 -2.5 -18t-2.5 -16q-2 -18 -8 -28q-4 -9 -14.5 -17.5t-17.5 -10.5q-2 0 -6 -1t-10 -2t-10 -2q-12 -2 -15 -2q-12 0 -12 7l1 2v3q0 5 -15.5 24t-20.5 19h-1h-1q-4 0 -9 12.5t-5 20.5q0 15 -4 25
q-5 13 -2 28q2 10 2 14q0 5 -2 16t-2 18q-1 18 -10 21t-61 4h-9l-68 1l-10 -10q-8 -8 -8.5 -10t3.5 -5q7 -5 0 -12q-10 -11 -2 -17q13 -9 -10 -19q-11 -5 -11 -8q1 -6 5 -4.5t10 4t8 0.5q9 -9 -12 -18q-24 -11 -6 -11q12 0 12 -4q0 -2 -3.5 -7.5t-3.5 -8.5v-1q1 -1 1 -2
q2 -4 -1 -3t-12 5t-9 11v3q0 6 -8 6t-18 -4t-11 -7q-3 -9 -7 -2q-2 3 -2 8q0 10 -5 13.5t-12 -4.5q-5 -7 -16 -3q-13 5 -13 17q0 5 3 9q1 2 1 6q0 10 -14 29q-7 8 -11 43q-2 20 -2 34q0 12 -3 36q-2 20 -2 21q0 10 6 22q7 15 2 23q-4 8 0 9t4 24q0 21 3 23q4 1 6 33q0 7 5 2
q1 -1 2 -3q6 -6 6 -17q0 -9 3 -11q4 -2 4 2q0 7 8 1q2 -1 4.5 -8t2.5 -12.5t-2 -6.5q-4 0 -4 6q0 5 -4 1l-2 -3q-8 -9 -6.5 -12.5t12.5 -0.5h23q20 0 24 2q6 5 6 35q0 16 -3 22q-5 9 -3 18q1 2 1 5q0 6 -5 6t-11 -4.5t-6 -9.5q0 -8 -7 -2q-2 2 -4 5t-12 11.5t-15 8.5
q-1 0 -3 -2q-5 -10 -12 1q-3 4 -4 10q-1 11 -8 13q-5 2 -8.5 9t-1.5 11q1 2 10 0q4 -1 11.5 2.5t9.5 -0.5q4 -3 13 -1t14 0q12 -5 5 -8l-4 -1q-7 0 -9 -4t3 -8q4 -4 8 -2t4 7q0 4 13 4t13 4q0 8 15 8q17 0 17 -10q0 -2 -5 -9q-6 -6 -3 -28q2 -10 2 -22q0 -10 -5 -10t-5 -9
l1 -7l2 5q4 7 7 7q1 0 1 -10v-27q0 -14 2 -15q4 -2 108 -4l104 -2q6 16 6 22q0 2 -2 16q-2 16 -2 29v11q1 20 9 23t8 6q0 2 -3 1t-3 2t-5 3t-5 10q0 6 1.5 7.5t6.5 1.5q8 0 8 3q0 4 5.5 17t5.5 15q2 7 14.5 16.5t20.5 9.5q14 0 26 -10.5t12 -23.5z" />
    <glyph glyph-name="I" unicode="I" horiz-adv-x="256" 
d="M154 202v-4l1 7v1q-1 -1 -1 -4zM137 232q0 2 -1 2q-2 0 -2 -2q0 -1 2 -1q1 0 1 1zM112 240q-4 10 -8 -1q-2 -4 -0.5 -9.5t4.5 -5.5q2 0 3.5 6t0.5 10zM101 612q0 5 -2 5q-3 0 -6.5 -4.5t-3.5 -8.5q0 -3 4 -3h2q6 2 6 11zM97 669q12 5 20 5q20 0 20 -15q0 -6 -14 -18
q-15 -13 -15 -15q0 -3 9 -3t13 -11q3 -9 5 -10t11 0q13 2 27 -8q25 -19 31 -64q2 -12 2 -71q0 -144 -7 -188q-3 -15 -3 -52q0 -36 3 -36q1 0 1 -1t-2 -4q-3 -5 -11 -5t-8 -13q0 -16 -26 -30q-17 -9 -24 -9q-4 0 -14 5q-23 12 -23 32q0 10 -2.5 14.5t-8.5 3.5
q-8 -2 -10.5 1.5t-0.5 11.5q3 11 3 31q0 14 -2 24q-2 9 3 14t2 5t-3 7q0 5 -4 13q-3 6 -5 34q0 21 -2.5 40t-3.5 38q-3 54 -5 82q-3 42 -3 69q0 36 5 49q4 7 8 29q8 32 34 45z" />
    <glyph glyph-name="J" unicode="J" horiz-adv-x="455" 
d="M140 187h1q2 0 2 2q0 4 -4.5 9.5t-7.5 5.5t-3 -5q0 -11 12 -12zM162 216q-3 10 -10 9q-5 -1 -4 -7q1 -5 6 -10t8 -2q2 2 0 10zM112 223q0 1 -2 1q-1 0 -1 -1q0 -2 1 -2q2 0 2 2zM144 249q0 1 -2 1q-1 0 -1 -1q0 -2 1 -2q2 0 2 2zM96 236q3 -5 4 -5q3 0 3 9q0 15 -3 21
q-3 5 -8 -8q-4 -9 -2 -14q1 -1 1 -3l1 1q0 6 4 -1zM96 280q-4 9 -8 9q-7 0 -7 -14q0 -9 5 -9q16 0 10 14zM77 337q8 22 29 22q8 0 23.5 -9.5t19.5 -16.5q5 -8 5 -17q0 -8 9 -21q10 -11 10 -19q0 -2 -4 -10q-2 -2 -2 -5q0 -7 23 -22q12 -7 16 -7.5t11 5.5q5 5 17 7
q11 2 14.5 13.5t3.5 56.5q0 7 -0.5 25.5t-0.5 30.5q0 23 -1 51t-1.5 46t-0.5 23q0 4 -0.5 12t-0.5 12q0 70 9 79q4 4 4.5 9.5t5.5 9.5q4 4 6 4t7 -4q12 -12 15 -12q2 0 2 10v10q0 16 9 27l10 12h-14q-21 0 -5 10q8 6 22 6q12 0 13.5 -1t-1.5 -7q-3 -8 -7 -8t2 -10
q8 -13 -10 -19q-1 -1 -2 -1q-4 -1 -7.5 -8.5t-1.5 -10.5q2 -4 7 -3t8 6q4 5 7 3t2 -8q-2 -7 2.5 -11t12.5 0q10 5 20 -4q8 -8 13 -8q3 0 3 -7t7 -16q19 -23 19 -157q0 -44 -1 -70q-1 -69 -4.5 -87.5t-17.5 -48.5q-17 -36 -30 -49t-49 -30q-34 -15 -50 -15h-13q-53 1 -77 12
q-6 2 -18.5 8t-16.5 8q-12 5 -29.5 24t-25.5 35q-17 32 -19 80q-1 15 0 18.5t8 7.5q10 6 10 15q0 10 6 10t20 9t14 13q0 9 -22 -1z" />
    <glyph glyph-name="K" unicode="K" horiz-adv-x="594" 
d="M448 135q0 3 -11 7.5t-18 4.5q-6 0 -6 -3q0 -6 23 -11q12 -3 12 2zM481 252q0 1 -6.5 8t-4.5 10t10 -5q5 -5 21 -14q37 -19 37 -56q0 -13 -6 -27q-6 -13 -14 -19.5t-29 -14.5q-30 -12 -46 -12q-21 0 -50 28q-21 22 -20 23l3 -1q2 -2 4.5 -3.5t4.5 -1.5q5 1 50.5 41
t45.5 44zM456 288q-8 -8 -14 5q-1 8 3 9q6 0 10 -5.5t1 -8.5zM93 502q-4 -10 2 -11q2 0 2.5 3t-0.5 8l-1 7zM70 532q0 14 3 14q1 0 5 -4.5t8 -8.5t5 -3t2 -2l1 -5q2 -9 6 -10q4 -3 4 -16q0 -9 -4 -14.5t-11 -11t-10 -9.5q-7 -7 -7 -5q0 1 1 4q4 11 -2 18q-2 2 -3 -1t-3 -11
l-2 20v2q0 27 3 29q4 2 4 14zM104 570q0 2 2 2t2 -2t-2 -2t-2 2zM185 265q3 4 -3 4q-7 0 -7 -4q0 -5 3 -5q4 0 7 5zM201 376q0 3 -4 3q-2 -1 2 -7q2 0 2 4zM259 421q0 12 -4 12t-18.5 -17t-14.5 -22q0 -12 18 -1l7 5q12 10 12 23zM294 480q2 -2 6 3t-1 5q-4 0 -6 -3t1 -5z
M230 497q-4 6 -7 6.5t-13 -4.5q-22 -9 -22 -20q0 -3 -7 -12q-10 -15 4 -12q5 2 5 -2q0 -6 -5 -8q-10 0 -10 -15q0 -8 7 -18.5t12 -10.5q4 0 29.5 22t32.5 32q6 10 6 13q0 4 5.5 9t1.5 12q-3 5 -5.5 6t-13.5 -1q-16 -3 -20 3zM320 506q0 5 -4 0l-1 -2q-2 -3 1 -2q4 2 4 4z
M153 527q0 -4 1 -5l2 6q-1 2 -1 3q-1 0 -2 -4zM362 534q0 7 -13 0l-6 -5q-12 -13 -5 -15q5 0 14.5 8t9.5 12zM174 614q-3 0 -10 -13t-9 -13q-7 0 1 -10l5 -5q8 -7 8 -19t-4 -16q-3 -3 -3 -26v-18q0 -9 1 -9t3 3q17 21 40 25q9 1 24.5 14.5t69.5 66.5q28 26 35 28t7 6t7 9.5
t11 0.5t11 -3t7 8q0 7 -4 3q-9 -9 -10 2q0 7 5 15q6 10 11 10q3 0 11 -6.5t14 -6.5h3q19 4 27 4q6 0 12 -3q9 -6 16 -19q5 -10 4.5 -13.5t-5.5 -12.5q-7 -14 -7 -18t5 -11q9 -10 -12 -20q-9 -5 -9 0t5 7q9 4 2 7h-5q-7 -1 -6 -13q1 -11 -12 -24q-19 -19 -46 -39
q-6 -5 -18 -17t-25 -18q-17 -8 -19 -11q0 -1 -1 -3q0 -8 81 -95q44 -48 44 -51q0 -6 -4 -6q-2 0 -5.5 2t-6.5 5l-6 7l-6 6l-5 4l-2 3q-28 24 -74 70q-32 32 -41 32q-5 0 -5 -10q0 -5 -9.5 -17.5t-9.5 -17.5q0 -8 -13 -20q-13 -13 -13 -18q0 -12 63 -85q32 -40 40 -48
q16 -18 16 -20t-2 -2q-8 0 -42 37q-90 95 -101 95q-3 0 -5 -5t-9 -14q-8 -8 -4 -17q3 -8 -1 -14q-3 -5 0 -9q9 -10 -11 -20q-12 -6 -13 -10q-1 -2 2 -2.5t8 0.5q11 2 12 -2q0 -2 -4 -5q-3 -1 -3 -12q0 -8 -2 -8q-1 0 -3 3q-4 6 -14 8q-14 2 -6.5 8t0.5 9q-1 1 -5 1
q-13 0 -24 -11q-5 -8 -7 3q-1 2 -1 3q-1 9 -6.5 12t-11.5 -3q-2 -6 -11.5 -3t-10.5 3q-3 0 -3 20q0 17 -9.5 31.5t-11.5 25.5q-8 43 -8 52q0 11 13 20q12 6 11 17q-1 8 -6.5 17t-9.5 7q-1 -1 -2 1t-1 6l1 6q0 -1 1 -2l1 -2q3 -8 7 5l1 7l2 -1v-1q0 -7 5 -11.5t5 -10.5
q1 -7 3 -7q3 2 3 -1q0 -10 15 3q8 6 8 17q0 6 0.5 6.5t3.5 -1.5q4 -3 18 9l13 12v39q0 60 -4 64q-2 2 -10.5 -2t-8.5 -8q0 -5 -4 -6q-3 -1 -4.5 1t-0.5 7q1 17 -17 17q-11 0 -18 8q-7 9 -7 11q0 3 -6 3q-11 0 -11 13q0 5 4 5t6 -2q7 -3 10 0t20 3h16q6 0 6 -5t-6 -5
q-7 0 -5 -6q5 -7 11 -1q3 6 10 6t7 -11q0 -10 4 -10t12.5 7t8.5 10q0 6 -10 0q-2 -1 -4 -3q-6 -6 -6 4q0 7 5.5 11.5t13.5 4.5q3 0 9 -2q8 -4 11 -2t3 -1t-4 -3z" />
    <glyph glyph-name="L" unicode="L" horiz-adv-x="449" 
d="M205 204q0 1 -2 1q-1 0 -1 -1q0 -2 1 -2q2 0 2 2zM198 213q0 2 -1 2q-2 0 -2 -2q0 -1 2 -1q1 0 1 1zM189 252q0 1 -2 1t-2 -1q0 -2 2 -2t2 2zM186 237q-2 0 -4 11q-2 13 -4 4q-1 -7 0 -15q1 -18 13 -18q4 0 7 1q5 2 8 9.5t-1 13.5q-3 5 -9.5 4.5t-6.5 -5.5t-3 -5z
M153 253q0 4 -3 4q-6 0 -1 -6q2 -1 3 -1t1 3zM156 416q0 11 -4 11q-5 0 -5 -11t5 -11q4 0 4 11zM147 456q0 -4 1 -5q4 -3 8 5q2 6 -4 6q-5 0 -5 -6zM159 500q4 3 2.5 7t-2 5t-4.5 4.5t-5 4.5q-4 -18 -2 -22q2 -5 -1 -6q-4 -2 -3.5 -6.5t4.5 -4.5q5 0 5 4t6 14zM105 525l-1 5
q-9 -3 -9 -7q0 -3 5 -3t5 5zM128 523q-3 0 -5 9l-1 6l-1 -5q0 -3 -2.5 -14t-2.5 -16t2 -7q4 -5 7 -3t1 8t1 6q4 0 4 8t-3 8zM165 537q-1 2 -9 6q-4 2 -5 1t-1 -7q0 -13 6 -12q7 3 9 12zM109 562q-6 0 -8 6q-1 3 -1 -1l-1 -8l1 -12q1 0 3 3q5 7 5 3q0 -3 3 -2q4 3 3 7t-5 4z
M178 575q-2 0 -5 3q-3 -1 -3 -4q0 -5 1 -6t5 0q9 3 6 6q-1 1 -4 1zM176 604q0 -4 2 -2t0 4q-1 1 -1.5 0.5t-0.5 -2.5zM102 599q0 2 3 5.5t1 9.5q-4 15 -12 7q-2 -2 -1.5 -9.5t2.5 -7.5q3 0 3 -9q1 -10 3 -10q1 0 1 5v9zM50 252q0 30 2 98t2 88q0 2 -0.5 7.5t-0.5 8.5
q0 9 3 39q2 30 2 61v23v30q0 19 6 23q3 2 6 4.5t6 4t9 1.5q8 0 23 12t15 18q0 1 -1 2q-2 2 -5 2q-13 0 -24 -13q-9 -11 -10 -3l1 5q4 13 23 20l14 4q3 0 22 -8q11 -5 15.5 -9.5t9.5 -14.5q8 -14 8 -21q0 -4 6 -5q4 -1 8 -14t4 -25q0 -7 -2 -11q-3 -6 -3 -41q0 -37 3 -46
q3 -7 -4 -21q-1 -3 -3 -8q-3 -6 -2.5 -6t2.5 1q4 1 10 -23q3 -5 4.5 -25.5t2.5 -43t2 -27.5q0 -1 1 -21t2.5 -36.5t4.5 -17.5q6 -3 55 -3q108 0 111 -10q2 -4 9 -4q4 0 5 -0.5t1.5 -3t-0.5 -6.5q-2 -11 -4 -13q-8 -5 -8 -16q0 -1 2 -17q2 -14 -1 -14h-3q-4 1 -5 -1t0 -8
q1 -3 1.5 -11t0.5 -11q1 -10 -3 -14t-13 -2q-7 1 -14 -8q-11 -14 -31.5 -17.5t-101.5 -3.5q-95 0 -109 2q-9 2 -21.5 11.5t-16.5 17.5q-3 6 -10 29q-6 24 -6 91z" />
    <glyph glyph-name="M" unicode="M" horiz-adv-x="665" 
d="M606 170q0 3 3 3t3 -3t-3 -3t-3 3zM461 171q0 2 2 2q1 0 1 -2q0 -1 -1 -1q-2 0 -2 1zM487 179q-3 8 3 21q2 4 4 0q2 -5 2 0t4 5q2 -1 2 -6t-2 -11.5t-4 -7.5q-3 -2 -3 -6t-4 -4q-1 0 -0.5 1t0 3.5t-1.5 4.5zM580 232q0 2 -2 2q-1 0 -1 -2q0 -1 1 -1q2 0 2 1zM580 242
q0 5 -3 5q-4 0 -4 -3q0 -4 4 -5zM559 335q2 6 3.5 7.5t4.5 0t9 -7.5q9 -9 10 -34v-14v-21v-20q0 -15 2 -35q3 -15 -3 -22q-5 -7 -5 -15q0 -4 -1.5 -6t-5.5 -1q-8 1 -7 9q4 35 4 53q0 15 -4 19t-3 29q2 24 2 25q0 8 -5 18q-3 6 -1 15zM104 366q-4 0 -5 6q0 4 3 4q5 0 5 -5
t-3 -5zM123 382q0 3 4 3q3 0 3 -3t-3 -3q-4 0 -4 3zM557 425q0 9 4.5 0t1.5 -10l-2 1q-4 2 -4 9zM602 433q0 4 4 4q3 0 3 -4q0 -3 -3 -3q-4 0 -4 3zM580 393q-2 0 -5 -2q-5 -3 -5 3q0 7 3 7q4 0 4 5t3 5q2 0 0.5 13t3.5 13q8 0 8 -11q0 -9 -4.5 -21t-7.5 -12zM574 495
q0 2 2 -2l2 -4q6 -11 10 -12q5 -2 5 -11t4 -11t-2 -2q-5 0 -5 -5t-5 -5t-5 3q0 4 -7 4q-6 0 -6 7.5t5 9.5q4 2 4.5 9.5t-3.5 9.5q-3 2 -3 -1t-7 -3t-1 6q2 3 5 4t5 1.5t2 1.5zM577 550q4 6 7.5 6.5t4 -3.5t-1.5 -11q-4 -10 -4 -22t-2.5 -12t-4.5 12q-1 5 -2.5 10.5t-1.5 7.5
q0 6 5 12zM564 594q0 4 1 5l2 -6q-1 -2 -1 -3q-1 0 -2 4zM526 665q-3 0 -31 -17.5t-31 -17.5q-9 0 0 17l6 8q6 8 25 16q17 6 24 6q6 0 6 -4q0 -1 1 -2t2 -3q3 -3 -2 -3zM336 200q0 2 -2 2t-2 -2q0 -1 2 -1t2 1zM326 199q5 0 -2 6q-1 0 -1 -3t3 -3zM358 220q0 4 -3 4
q-4 0 -5 -5q-1 -4 3 -4q5 0 5 5zM316 224q0 17 -6 17q-4 0 -8 -10q-8 -19 7 -19q5 0 6 2t1 10zM304 254q-2 6 -7.5 6t-5.5 -6q0 -9 8 -8q7 0 5 8zM336 268q0 5 -4 5q-3 0 -3 -3q0 -4 4 -5q2 1 3 3zM377 270q-3 8 -9 10h-1q-7 0 -7 -17q0 -7 2 -13q3 -6 -2 -11t-5 -7
q0 -4 12.5 -12t17.5 -8h1q5 2 5 9q0 13 -14 49zM356 284q-4 10 -11 -1q-3 -5 -1 -7.5t8 -0.5q5 1 5.5 2.5t-1.5 6.5zM362 295q0 -4 1 -5l2 6q-1 2 -1 3q-1 0 -2 -4zM319 305q0 6 -2 6q-4 0 -5 -3t3 -6q3 -2 3.5 -2t0.5 5zM300 300q0 5 -5 8q-3 3 -3.5 2.5t-0.5 -6.5
q0 -9 4 -9q5 0 5 5zM355 308q0 7 -6 10q-3 2 -5 -2q-3 -9 -2 -10q1 0 4 2q5 4 7 -1q2 -6 2 1zM337 346q0 9 -7 10q-4 1 -5.5 -0.5t-1.5 -6.5q0 -12 12 -12q2 0 2 9zM242 340q0 -2 -4 -8q-6 -10 2 -11q9 0 18 -12q10 -10 10 -5q0 6 -10 26q-9 19 -4 23q4 3 4 9q0 3 -1 3.5
t-3.5 0.5t-4.5 1q-1 1 -10 4q-4 1 -5 -1t-1 -7q0 -10 4 -13q5 -3 5 -10zM218 353q4 0 4 5t-4.5 13t-6.5 8t-2 -4q0 -3 3 -15q2 -7 6 -7zM269 383q-7 2 -8.5 1.5t0.5 -6.5t2 -7q0 -13 14 -39q12 -25 14 -9q0 1 0.5 5t0.5 6q1 3 1 10q0 6 7 6t3 6q-4 7 -11 5t-12.5 3t-5.5 12
q0 5 -5 7zM229 406q0 4 -9 11t-14 7h-2q-4 -2 1.5 -12.5t11.5 -11.5q12 -3 12 6zM254 395l5 -5q2 2 2 3q0 5 6 4q5 -1 4.5 4t-5.5 20q-5 14 -8.5 18t-12.5 6q-8 2 -12 7q-2 6 -5 -2q-2 -8 13 -25q4 -4 2 -11q-1 -6 2.5 -12.5t8.5 -6.5zM233 466q3 1 -2 9q-2 0 -2 -5
q0 -4 4 -4zM193 515q-10 23 -13 2q-2 -9 -9 -7t-14.5 -1t-7.5 -8t6.5 -18.5t9.5 -13.5q1 1 0 5.5t-2 10.5t-1 7q0 4 0.5 4.5t3.5 -1.5q6 -4 12 10l8 -9q6 -8 9 -8q2 0 2.5 4t-1 10.5t-3.5 12.5zM204 539q0 4 -4 5l-3 -3q0 -5 3 -5q4 0 4 3zM158 535q-4 11 -9 11q-6 0 -3 -10
q4 -12 4 -17l1 -3q2 4 6 4q6 0 1 15zM506 398q0 -5 -5 -16t-5 -16q0 -7 -9 -27q-13 -28 -37 -89q-13 -33 -45 -103q-19 -40 -51 -48q-5 -2 -17 -2q-35 0 -57 24q-15 17 -42 83q-27 68 -33 68q-2 0 -2 -14v-16q0 -38 -2 -49q-3 -20 1 -20t-8 -8q-11 -7 -15 -20
q-11 -39 -47 -39q-13 0 -25 6q-10 4 -17.5 16t-7.5 23q0 4 -8 10q-5 4 -6 11.5t-1 44.5q0 51 -4 58q-2 4 -2 8q0 9 8 27q3 8 -2 21q-3 10 -3 24q0 26 6 26h1q7 -2 11 -9q4 -6 4 -8.5t-4 -10.5q-11 -19 0 -26q12 -9 2 -13q-2 -2 -2 -16q0 -15 2 -41.5t3.5 -47.5t1.5 -22
l1 -19l40 -1h19q22 0 25 4q4 4 4 28q0 19 -1 32q-4 82 -4 89q0 27 4 27q3 0 8 -13q4 -13 8 -13t4 27q0 28 4 28q5 0 1 8l-2 1h-1q-3 0 -7.5 8t-6.5 8q-4 0 -5 -15q-1 -5 -2 -12t-1 -8q-1 -6 -3 -6q-5 0 -19 35t-16 35q-6 0 -12 10t-6 18q0 5 2 6q4 2 4 8q0 5 -4 5
q-3 0 -9.5 11.5t-6.5 17.5q0 5 -5 5q-4 0 -4 -6q1 -8 0 -10.5t-5 -1.5q-3 1 -7.5 -6.5t-5.5 -8.5q-2 -2 -4 -43q-1 -41 -6 -46q-5 2 -5 10q0 17 -4 25q-5 11 -2 20q2 6 2 12q0 12 -7 36q-4 16 -1 24t3 27q0 15 -3 17q-3 3 -3 32q0 39 14 58.5t46 27.5q16 4 33 4q41 0 66 -35
q14 -21 14 -28q0 -9 7 -20q7 -10 14 -30q5 -14 19 -37q11 -18 11 -22t18 -44q32 -73 39 -77q2 -1 4 -1q5 0 9 3q16 7 2 16q-6 3 7 16t9 21q-2 4 -2 6t2.5 4t8.5 5q12 6 14 10t-2 11q-3 6 -1.5 9t12.5 12q11 10 11.5 12t-3.5 7q-4 6 -4 7q0 4 19 14q16 7 15 13q0 3 -6 1
q-7 -2 -9 2.5t2 10.5q1 1 8 4.5t12.5 7.5t5.5 8q0 2 -3 5q-3 1 -3 4q0 6 11 15t17 9h1h1q6 0 21 12l15 12q7 4 19 4q34 0 50 -18t16 -41q0 -9 -5 -15.5t-10 -6.5h-3q-5 1 -1 4q2 2 2 11q0 21 -5 24q-2 1 -5.5 7.5t-8.5 7.5q-6 2 -6 5q0 2 -9 2l-7 -1q1 0 4 -2q-1 -3 -9 -3
q-27 0 -27 -14q0 -8 -4 -10q-3 -2 -3 -6.5t3 -4.5q4 0 5 6q2 5 8 6.5t8 -2.5q1 -2 -5 -12q-6 -13 -8 -22t-1 -10.5t6 0.5q10 5 12 8q3 4 12 0t12 -1q10 7 9 -3t-9 -15q-7 -5 -14 -16t-7 -16q0 -3 1 -3q10 -4 -1 -13q-4 -3 -5 -12t2 -14q1 -1 1 -8q0 -26 -10 -44
q-6 -9 -6 -19z" />
    <glyph glyph-name="N" unicode="N" horiz-adv-x="566" 
d="M65 190q2 2 5 -1q4 -4 66 -4q63 0 67 4q6 6 9 -8q1 -6 0 -13q-5 -33 -34 -52q-14 -10 -43 -10q-13 0 -23 3q-12 4 -25 16t-18 24q-6 12 -6 30q0 7 2 11zM503 216q0 2 2 2q1 0 1 -2q0 -1 -1 -1q-2 0 -2 1zM511 229q-3 3 1 7q2 2 3 -2q2 -5 -1 -6q-1 -1 -3 1zM503 242
q0 2 2 2q1 0 1 -2q0 -1 -1 -1q-2 0 -2 1zM59 236q0 8 5 8t5 -8t-5 -8t-5 8zM509 372q0 4 4 4q3 0 3 -4q0 -3 -3 -3q-4 0 -4 3zM204 366q0 19 3 19t6 -11t3 -20q0 -6 -2 -8q-7 -7 -9 8q-1 5 -1 12zM455 441q0 9 4 9t11 -6t7 -10t-5 -5t-8 3q-2 3 -5.5 3t-3.5 6zM508 451
q4 8 7 0q1 -2 1 -5q0 -6 -3 -8q-4 -3 -6 5zM394 456q0 4 1 5l2 -6q-1 -2 -1 -3q-1 0 -2 4zM481 460l2 5q2 -3 0 -6q-2 -6 -2 1zM469 457q-2 5 -0.5 10t5.5 5q3 0 3 -6t-3 -10t-5 1zM400 493q0 8 5 3q2 -2 3 -7q2 -15 -6 -14q-2 0 -4 2q-8 9 -1 11q3 0 3 5zM384 553
q3 5 6.5 4t3.5 -7q0 -5 3 -1l1 2l2 -2q0 -6 -5 -8q-11 -5 2 -18q7 -7 2 -11q-3 -3 -5 -3q-11 0 -11 34q0 8 1 10zM452 277q-3 5 -6 5q-1 0 -1 -5q0 -4 5 -4q4 0 4 0.5t-2 3.5zM435 283q10 2 -8 10q-8 4 -8 2q0 -4 5.5 -8.5t10.5 -3.5zM500 396q0 2 -2 2q-1 0 -1 -2
q0 -1 1 -1q2 0 2 1zM210 457q0 15 -6 21l-7 8l2 -18q2 -16 4 -23q3 -10 6 1zM445 478q0 2 -3 7q-3 4 -3 -2q0 -8 3 -8t3 3zM203 491q4 18 4 32q0 7 0.5 16.5t0.5 17.5q0 6 -6 12q-5 6 -7.5 6t-8.5 -7q-13 -15 -13 -27t11 -21q9 -7 14 -17zM130 561q-1 1 -4 12t-6 11
q-2 0 -6 -7q-4 -8 -6 -8.5t-7 4.5q-3 3 -7.5 3.5t-7.5 -2t-4 -7.5q-1 -4 1.5 -5t10.5 0q11 1 24 -9q11 -10 22 -10q15 0 18 22q2 13 -3 13q-3 1 -6 -8q-2 -6 -8.5 -9.5t-10.5 0.5zM445 569q6 3 -5 15q-8 9 -8 -2q0 -5 4.5 -9.5t8.5 -3.5zM420 515v10v10q0 3 -0.5 7t-1 6
t-1.5 4t-2.5 3t-4.5 1q-6 0 -10 13l-5 10q-1 -1 -1 -3q-1 -6 -4 -7q-1 -1 -2 2q-1 2 -1 5q0 10 -3 17q-3 8 0 13t10 3q11 -4 30 -6q7 0 21 -7l10 -5l11 12q11 13 11 21q0 6 -2 8t-12 3q-14 2 -14 5q0 2 6 2q22 0 31 -22q6 -14 14 -12q1 0 3 0.5t3 0.5q9 0 9 -16
q0 -10 -1 -16q-2 -25 1 -26q1 -1 1 -8q0 -33 -7 -36q-5 -3 -7 -0.5t-1 8.5q2 9 4 29q2 11 1 15.5t-2 5t-6 0.5q-8 0 -8 -3q0 -4 -4 -2h-1q-4 0 -4 -14q0 -11 1 -18t1.5 -10t1.5 -5.5t1.5 -3t2.5 -0.5q4 1 4 0t-2 -6q-1 -4 -4 -3l-3 -3q-1 -4 -1 -10q0 -9 -1 -9q0 -1 -3 5
q-1 5 -2 7q-2 4 -2 13t-3 12q-5 5 -2 5q8 0 5 24q-1 7 -1.5 9t-2 3t-5.5 0q-8 -2 -11 -10q-6 -15 -12 -5q-7 11 -9 -3l-1 -14q1 -19 7 -19t8 -2t2 -33q0 -28 -3 -28h-2q-10 0 -10 -28q0 -10 1 -13t5 -2q6 2 8 12q2 8 3 8.5t5 -2.5q14 -12 20 -4q2 4 6.5 3.5t5.5 4.5t-4 11
t-3 11q2 6 5 5t3 -8t4 -7q3 0 2 -14t1 -14q3 0 3 8v9q0 -1 2 -3q15 -18 7 -18q-3 0 -3 -22q0 -23 -3 -23t-3 -10q0 -9 -6 -19q-6 -7 -1 -9q4 -2 4 -21q0 -20 -4 -24q-3 -3 0 -7q4 -4 3 -12.5t-5 -13.5q-7 -3 -0.5 -14.5t6.5 -13.5q0 -9 5 -9q7 2 7 14q0 7 4 7q3 0 3 -12
q0 -9 -4.5 -18t-8.5 -9h-1q-4 2 -6.5 -3t-2.5 -13q0 -9 5 -9q6 0 1 -9q-8 -17 -31 -29q-6 -3 -16 -3q-14 0 -28.5 4.5t-18.5 10.5q-1 2 1.5 2.5t6.5 -0.5q10 -2 10 3q0 4 -11 9.5t-20 5.5q-6 0 -6.5 1t1.5 7q4 10 -1 15q-40 61 -42 64q-6 8 -12.5 17t-12.5 17.5t-7 10.5
q-9 12 -11 12t-13 17q-10 15 -18 19q-21 9 -21 17q0 4 -8 14t-8 17q0 6 -10 15q-6 3 -8 0q-2 -4 -3 -4q-3 0 -9.5 17.5t-10.5 18.5q-8 3 -23.5 21t-15.5 24q0 5 -10 15q-7 5 -17 24q-15 31 -33 31h-2q-6 -2 -4 -15q0 -3 1.5 -7t1.5 -6v-4q0 -3 -2 -4t-5 -1q-9 0 -10 -3
q-1 -2 -1 -41q0 -37 -5 -44q-5 -8 -1 -8q2 0 2.5 -20t1 -44t0.5 -27q1 -9 1.5 -14t0 -7.5t-1.5 -2.5h-3q-5 1 -10 41q-2 15 -2 33q0 10 1 11q2 4 -0.5 12.5t0.5 13.5q4 7 -2 12q-4 4 -4 5.5t4 7.5q6 9 0 17q-5 7 2 15q10 12 1 17q-5 3 1 15q6 10 0 17q-5 6 -4.5 9t7.5 10
q10 12 5 13q-1 1 -4 -1q-5 -4 -7 5q0 5 2 9q4 7 10 9t1 6l-2 2q-5 4 -5 9q0 10 11 21q3 3 13 25t15 25q8 8 8 9q0 8 11 8q7 0 17.5 -2.5t19.5 -5.5l10 -4q15 -2 27.5 -16t45.5 -64q10 -15 22 -31.5t18 -26.5q7 -11 14 -17q10 -8 12 -17q1 -6 8.5 -16t8.5 -15q2 -8 16 -26.5
t16 -22.5q17 -32 30 -41q4 -3 5 -2.5t1 6.5q0 50 7 57q3 3 3 14t3 11q2 0 2 -15v-21q0 -9 4 -10q2 -2 3 3q1 4 0 9v5q0 4 1 15t1 16q0 7 -2 11q-4 5 3 10q5 4 5 39z" />
    <glyph glyph-name="O" unicode="O" horiz-adv-x="610" 
d="M68 374q0 2 -2 2q-1 0 -1 -2t1 -2q2 0 2 2zM508 406q0 8 -4 8q-5 0 -5 -6t5 -8q3 -1 3.5 0t0.5 6zM282 681q10 2 23 2q1 0 39 -4q72 -7 129 -56q26 -23 41 -51q41 -80 41 -134q0 -8 -2 -16q-4 -12 0 -14q3 -2 5 -19q3 -17 -3 -25q-5 -7 -3 -11v-1q1 -2 1 -3
q0 -21 -11 -52q-5 -10 -5 -20t-10 -23q-12 -16 -22 -37.5t-21 -33t-38 -26.5q-15 -9 -23 -15q-10 -8 -12 -8q-3 0 -11 -6t-19 -6q-10 0 -18 -4q-7 -5 -25 -5q-2 0 -42 2q-66 4 -104 25q-7 4 -13.5 7.5t-12.5 8.5t-10 8t-10 10l-9 8q-3 3 -10 10.5t-8 9.5t-9 11.5t-9 10.5
q-17 20 -24 35q-2 5 -5 13t-4 9q-4 8 -4 20t-5 17q-3 1 -2 8t0 10q-4 12 -4 18q0 7 4 23q5 17 12 17q3 0 10.5 -7.5t12.5 -7.5q4 0 7 3q5 4 12.5 4t11.5 -4q6 -7 16 -1q9 5 19 1q5 -2 6.5 -4t1.5 -3.5t2.5 -4t7.5 -5.5q17 -11 34 -40q7 -12 29 -37q19 -19 40 -25
q27 -8 48 -8q23 0 43 9q28 13 49.5 39.5t25.5 52.5q2 17 7 30q5 15 0 25q-6 11 -3 21q2 11 0 15q-4 4 -4 11q-5 21 -15 30q-5 3 -5 8t-7.5 13.5t-14.5 9.5q-11 2 -16 7q-13 12 -52 13h-8q-37 0 -71 -23q-12 -9 -16.5 -14t-9 -18.5t-7.5 -20.5q-9 -20 -8 -21q2 -2 -2 -2
q-2 0 -2 -6t-9 -6q-10 -1 -11 -2l9 -2q7 0 7.5 -1.5t-3 -4t-3.5 -4.5q0 -5 -10 -6q-4 -1 -4 2q0 9 -24 9h-6q-12 -2 -18 5t-14 3q-9 -4 -19 1q-11 6 -13 4q-3 -2 -2 0l4 9q5 7 -4 16q-8 8 -8 20v10q2 44 28 86.5t69 70.5q49 32 102 37z" />
    <glyph glyph-name="P" unicode="P" horiz-adv-x="568" 
d="M479 591l-4 6q3 0 4 -6zM319 535q0 1 2 1q1 0 1 -1q0 -2 -1 -2q-2 0 -2 2zM197 159q0 4 -3 4q-6 0 -1 -7q2 -2 3 -2t1 5zM208 269q-2 4 -30 4q-33 0 -33 -8q0 -7 31 -7q10 0 15 1q7 1 10.5 2t5.5 2t2 2.5t-1 3.5zM316 429q0 1 -2 1q-1 0 -1 -1q0 -2 1 -2q2 0 2 2z
M200 430q0 3 -8 3t-8 -3t8 -3t8 3zM171 434q-4 2 -12.5 2t-10.5 -2q-10 -10 10 -10q15 0 16 6zM377 538q0 2 -2 2q-1 0 -1 -2t1 -2q2 0 2 2zM224 541q-11 -1 -12 4q-1 6 -10 -8q-8 -15 -4 -19q4 -6 4 -33q0 -46 17 -46q5 0 12 3q10 4 19 1q8 -3 10 0q1 3 11 2t14 -5t6 -1
q2 2 6 2q7 0 16 -3t9 -7q0 -2 16 -4q17 0 26 8q21 18 21 42q0 17 -10 33t-17 16q-2 0 -3 -1q-2 -2 -7 2q-5 3 -4 12q1 7 0 8.5t-7 1.5q-8 0 -8 -3q0 -2 -14 -6q-13 -3 -6 -3q6 -1 6 -3q-3 -3 -38 -3q-22 0 -22 2q0 8 -25 8h-6zM258 549q0 3 -6 3t-10 -3t1 -5t10 -0.5t5 5.5z
M355 559q5 0 -2 6q-2 0 -2 -3t4 -3zM313 585l2 -3q2 3 0 5q-1 1 -1.5 0t-0.5 -2zM306 585q0 -3 2 -3t2 2t-1 3t-2 0t-1 -2zM340 594q-5 5 -13 2t-8 -10q0 -3 12.5 -6.5t23.5 -3.5q2 0 4 0.5t3 0.5q8 2 13 -2t16.5 -3t11.5 5q0 12 -35 13q-26 2 -28 4zM236 595q0 1 0.5 1
t0.5 1q0 9 -19 9q-11 0 -11 -7t19 -7q8 0 10 3zM283 633q2 -5 11 1q6 5 2 7q-2 1 -8 -1q-9 -2 -5 -7zM203 640q0 6 -15 -2q-5 -3 -5.5 -3.5t2.5 -2.5q4 -2 11 1t7 7zM185 643q2 -2 4 -1q1 2 -2 4q-1 0 -2 -1t0 -2zM368 646q-7 7 -32 7q-10 0 -10 -4v-1l1 -2q2 -3 -2 -5
q-8 -3 4 -5q6 -1 16 -2q21 -2 24 4q2 5 -1 8zM219 240q0 -11 -3.5 -29.5t-3.5 -31.5q0 -20 -5 -27q-5 -5 -5 -11t-9 -6t-16 6q-6 6 -14 6q-7 0 -18 -4q-10 -4 -13 -3t-3 8q0 5 -7 6t-14 -4q-6 -3 -17 0q-16 4 -9 20q1 5 -7 10q-12 7 -16 20t-7 54q-2 28 -2 50q0 15 7 176
q1 29 3.5 45t3.5 31q1 24 13 50l11 24l27 13q25 12 35 12q9 0 15 -1q24 -2 30 1q14 5 19 -1q1 -1 0 -3t12 -15l2 10q2 7 4 8.5t15 0.5q17 -2 20 1t6 3q5 0 14.5 -6t12.5 -6h1q8 2 15 2l8 1l-13 4q0 1 3 1q7 0 12 7q9 13 13 3q2 -3 25 -5q41 -3 54 -16q7 -6 2 -7q-4 -1 -11 3
q-19 11 -25 0q-7 -14 7 -14q4 0 13 -4t14 -4h3h2q5 0 10.5 -3t11.5 -8.5t11 -10t11.5 -11.5t8.5 -9q6 -6 12 -31.5t8 -30.5q6 -15 6 -25q0 -4 5 -10t4 -12q-2 -8 1 -9q4 -2 3 -10t-5 -8t-4 -8t3 -8q2 0 3 -2.5t-0.5 -6t-3.5 -5.5q-13 -13 -13 -22q0 -4 1 -5t1 -5
q0 -9 -5.5 -21t-11.5 -13q-6 -2 -13 -14q-13 -22 -28 -22q-4 0 -17 -9.5t-17 -9.5t-12 -10q-7 -10 -16 -10q-11 0 -18 -3q-4 -2 -73 -6q-65 -4 -66 -5t-1 -15z" />
    <glyph glyph-name="Q" unicode="Q" horiz-adv-x="590" 
d="M442 184q-3 7 -8.5 5t-8.5 -11q-2 -11 1 -11q6 0 12 6t4 11zM507 218q-8 11 -9 -13q0 -24 6 -22l3 3q3 4 3 15t-3 17zM459 211q0 10 -4.5 13.5t-9.5 -2.5q-4 -5 -5 -12.5t3 -9.5q3 -1 1 -5q-2 -3 0 -2q3 0 9 4t6 14zM334 281q0 -5 -15 -17l11 -9q15 -13 10 -20
q-1 -1 -3 -1q-7 0 1 -11q4 -6 9 -1q8 8 8 30q0 7 -2 17q-2 11 -6 17t-9 4q-4 -2 -4 -9zM465 297q0 1 -1 1q-2 0 -2 -1q0 -2 2 -2q1 0 1 2zM179 509q0 5 -4 0l-1 -2q-2 -3 1 -2q4 2 4 4zM179 486q0 -6 -4 -17t-4 -13l-4 -10q-9 -25 -4 -25q4 0 8.5 -12.5t4.5 -22.5
q0 -13 12 -32q23 -36 37.5 -45.5t50.5 -13.5l31 -4l17 12q18 11 21 11q4 0 20 9q12 6 15.5 10.5t9.5 20.5q9 24 9 62q0 64 -15 86q-5 7 -5 14q0 6 -17 23q-30 32 -71 32q-9 0 -15 -3q-4 -1 -8.5 -1.5t-5.5 0.5q-8 3 -10 2.5t-6.5 -4t-7.5 -4.5q-10 -2 -19 -10q-10 -8 -13 -8
q-2 0 -16 -13t-14 -15q0 -1 4 -1t4 -6t-3 -9q-2 -2 -2 -13zM166 570q0 2 -1 2q-2 0 -2 -2t2 -2q1 0 1 2zM170 575q0 -4 2 -2t0 4q-1 1 -1.5 0t-0.5 -2zM280 579q2 -2 4 0t-2 2t-2 -2zM156 615l-4 1q-3 0 -3 -1l6 -1zM311 670q8 0 27 -3t27 -3q14 0 24 -7q12 -8 15 -8
q5 0 22 -12t27 -23q12 -14 17 -31q7 -19 14 -20q8 -1 15 -18q9 -15 7 -17t3 -11q5 -8 5 -18q0 -9 5 -17q7 -10 15 -86v-8q0 -9 -4.5 -24.5t-4.5 -28.5q-2 -25 -8 -39q-7 -17 -3 -24q4 -8 14.5 -52.5t10.5 -54.5q0 -25 -25 -42q-13 -8 -29 -8q-33 0 -45 23q-5 8 -15 14
q-11 6 -11 8t-10 5t-19 3h-5q-13 -3 -31 -10l-23 -9l-43 4q-60 5 -92 17.5t-61 41.5q-51 50 -69 119q-9 34 -9 87q0 15 1 19q17 67 18 69q2 8 6 21t5.5 17t5 12.5t7.5 14t11 13.5t17 18q21 21 21 25q0 2 5.5 7t13.5 8.5t12 3.5q11 0 14 5q7 9 53 17q32 5 41 5q11 0 28 -3z
" />
    <glyph glyph-name="R" unicode="R" horiz-adv-x="521" 
d="M409 601q5 9 19 8q7 -1 10.5 -2.5t4 -2.5t1.5 -5.5t2 -7.5t3 -25q0 -20 4 -24q2 -2 3 -7t0 -8.5t-3 -3.5q-3 0 -3 5q0 6 -14 8q-8 0 -8 13q0 2 3 2t3 5t-6 5.5t-8 5.5q-3 8 -6 8q-4 0 -6 9.5t1 16.5zM364 328q12 6 12 -4q0 -6 -8 -6q-6 0 -7.5 4t3.5 6zM250 550
q3 1 5.5 1t7.5 -1t6 -1q4 0 4 -3t-13 -3q-12 0 -12 3q0 2 2 4zM176 231q5 0 8 6q-1 3 -4 4q-6 0 -6 -5t2 -5zM439 237q0 11 -8 11q-7 0 -20 -8q-30 -15 -33 -16q-18 -7 -18 -10q0 -2 9 -2q5 0 18 1t18 1q10 0 10 -2q0 -11 -30 -15q-18 -3 -18 -9q0 -5 9 -14q20 -20 41 -20
q8 0 20 5q23 11 23 39q0 26 -9 26q-3 0 -5 -1q-6 -2 -7 0t0 7v7zM376 262q0 5 -7 -4q-3 -4 -2.5 -4.5t4.5 2.5q5 3 5 6zM404 275q-4 5 -6 4t-9 -8l-8 -9l11 3q14 3 14 6q1 1 -2 4zM338 248q1 -1 3 -1q7 0 7 21q0 12 -3 13h-1q-9 0 -9 -23q0 -7 3 -10zM183 319q0 5 -16 5
t-16 -5t16 -5t16 5zM418 379q-15 9 -20 9t-12 -5q-8 -6 -4 -17t1.5 -13t-12.5 5q-12 8 -19 5q-6 -3 -7.5 -9t3.5 -9q2 -1 2 -4t-1.5 -6t-0.5 -5.5t4 -2.5q5 0 4 -12l-1 -12h21q39 -2 58 -22q8 -8 10 -8q5 0 5 11q0 15 -11 59q-3 15 -5 19.5t-4.5 8t-10.5 8.5zM346 406
q7 6 6 7t-10 -1q-12 -3 -8 -10q2 -4 12 4zM409 421q-12 7 -18 1q-1 -1 2 -4.5t8 -6.5t8 -3q6 0 6 4.5t-6 8.5zM395 442q2 4 -2 19q-3 -20 -2 -21t4 2zM177 467q0 7 -9 3q-5 -2 -4 -5t6 -3q7 0 7 5zM284 572q-1 0 -12 1.5t-17 1.5t-8 -2q-1 -3 -27 -3h-10q-24 0 -24 -11
q0 -7 -3 -7q-2 0 -2 -5q0 -4 2 -16t2 -17q2 -22 6 -30t14 -8q1 0 3 0.5t4 0.5q14 2 25 2q26 0 49 -5t23 -12q0 -2 7 -2q22 0 29 7q10 12 10 35v7q0 14 1 14q2 -1 3.5 -0.5t2.5 1.5t2 0t3 -6q4 -11 6 -11q4 0 4.5 9.5t-3.5 16.5q-8 17 -17 7q-5 -4 -7 -4t-20 4q-19 5 -18 7
q3 1 -1 1q-2 1 -6 0q-10 -1 -10 2q2 2 7 2q16 0 35 -7q9 -5 12 -0.5t8 4.5q14 0 1 13q-8 7 -17 6q-10 -2 -10 0t-4 3t-8.5 -0.5t-6.5 -3.5q-4 -5 -11.5 -6t-10.5 3q-2 2 -2 5q-2 3 -4 3zM188 607q1 1 2.5 3t1.5 3l1 1q-2 2 -9 0t-8 -5q-5 -8 0 -8.5t12 6.5zM319 661
q-15 3 -21 3q-5 0 -5 -5q0 -20 22 -18q19 1 24 10q2 3 0 4q-2 2 -20 6zM293 669q8 10 12 11.5t6 -3.5q1 -5 23 -5q20 0 22 -4q2 -3 10 -3q7 0 13.5 -4t6.5 -9q0 -8 -15 2q-5 4 -10 4q-7 0 -7 -7t6 -14t6 -11q0 -2 -49 -2q-59 0 -59 -8q0 -3 4 -7q4 -3 4 -7q0 -2 -2 -5.5
t-2 -4.5q0 -4 12 -4q4 0 15 -3t16 -3q2 0 8 2q9 4 26 1q20 -4 23 -7q2 -1 3 0t3 6q3 13 5 2q1 -8 -1 -9q-1 -1 -0.5 -2.5t3 -5t5.5 -6.5q10 -11 16 -28q4 -15 8 -15t4 3t3 7q2 4 11 -2t9 0q0 5 7 1q3 -2 5 -1t4.5 -3t2.5 -8t-2 -6q-5 -1 -4 -5.5t6 -5.5q7 -1 7 -19
q0 -17 -5 -24q-5 -5 -5 -14q0 -2 -6.5 -15t-6.5 -19q0 -3 3 -5l1 -1q1 -1 2 -3t2.5 -4t3 -5t3.5 -5q20 -31 21 -143l1 -66l-9 -13q-22 -33 -60 -33q-10 0 -21 3q-11 4 -29 21t-20 27q-1 6 -8 22q-6 13 -6 33q0 16 5 21t5 19q0 9 -3 19q-3 11 -16 13q-1 0 -8 0.5t-14 0.5
q-5 0 -17.5 -0.5t-18.5 -0.5l-46 -3l-6 -11q-6 -10 -3 -15q3 -4 -1.5 -11t-2.5 -10q3 -5 3 -14q0 -22 -8 -22h-1q-2 2 -9 -2t-7 -7q0 -2 6 -2q15 0 6 -12q-8 -11 -26 7q-6 6 -9 6.5t-11 -2.5q-8 -4 -10.5 -3.5t-7.5 6.5t-7.5 6.5t-9.5 -3.5q-6 -3 -13 -3q-14 0 -14 12
q0 8 3 10q7 4 -8 20q-14 16 -16.5 28.5t-2.5 69.5v26q0 165 6 175q1 2 3 31q4 47 20.5 63t62.5 16h6h45q7 0 9 -3q2 -4 5.5 -3.5t5.5 3.5q1 3 28 3q42 0 42 -4q0 -1 2.5 0.5t7.5 7.5z" />
    <glyph glyph-name="S" unicode="S" horiz-adv-x="545" 
d="M354 486q9 9 12 0q2 -4 -2.5 -12t-8.5 -8t-4.5 8t3.5 12zM158 197q0 2 -1 2q-2 0 -2 -2t2 -2q1 0 1 2zM300 197q0 5 -7 5q-6 0 -6 -5t6 -5q7 0 7 5zM251 200q-1 3 -5.5 4.5t-9 0.5t-4.5 -4q0 -6 10 -6q5 0 7.5 1.5t1.5 3.5zM216 204q-3 3 -6.5 4.5t-6.5 -1.5q0 -5 7 -5
q6 0 6 2zM186 233q-3 4 -10.5 4t-9.5 -4t6.5 -11t14.5 -7q7 2 5 8t-6 10zM218 329q-7 4 -29 10.5t-33 6.5q-4 0 -6 -2q-2 -3 3 -5t5 -8q0 -3 6.5 -12t5.5 -11q-2 -4 1 -5q4 -2 3 -11.5t-5 -9.5t-4 -6t-7 -6q-6 0 -6 3q0 7 -13 0l-5 -4q-4 -5 -4 -5.5t8 -0.5q7 0 8.5 -1.5
t1.5 -8.5q0 -9 4 -9q5 0 12 9.5t7 15.5q1 14 18 -3l4 -5q10 -14 17 -14q4 0 16 -10q9 -9 20 -9q6 0 12 3t11 -2q4 -4 12.5 -3t8.5 5q0 3 10 8t17 5q12 0 24 15t12 28q0 4 -2 8q-7 13 -37 13q-10 0 -17 5q-5 4 -39.5 8.5t-39.5 7.5zM435 432q0 1 -5 1t-5 -3q0 -2 2.5 -1.5
t5 1.5t2.5 2zM390 443q11 0 0 8q-3 2 -4 2q-3 0 -3 -5t7 -5zM330 528q-22 10 -57 10q-19 0 -36 -5q-37 -11 -37 -21q0 -7 5.5 -17t11.5 -14q7 -5 55.5 -18t67.5 -15q4 -1 10 -1t10 4t12 19q8 20 3 21q-5 0 -3 3q2 4 -0.5 8.5t-7.5 4.5q-6 0 -11 7q-4 6 -23 14zM295 688
q3 2 7 1q16 -7 21 -2q2 2 6 2q7 0 23 -13q10 -8 15 -5q12 7 18 -6q6 -10 14 -8q9 2 13 -6q4 -9 15 -9t14 -9q5 -12 13 -22q10 -11 8 -19q-2 -7 6 -11q9 -3 7 -16q-2 -9 -1 -11.5t7 -4.5q14 -5 -1 -24q-10 -15 -10 -22q0 -5 5 -5q2 0 7.5 8t7.5 7q3 -1 3 -12q0 -17 -6 -48
q-2 -8 -15.5 -22.5t-23.5 -18.5q-10 -3 -10 -10q0 -6 16 -22q16 -17 19 -35q10 -47 10 -83q0 -25 -6 -34q-3 -6 -6.5 -14t-7 -13.5t-11.5 -11.5q-14 -12 -17 -21t-10 -10q-5 0 -37 -16q-45 -22 -94 -22q-9 0 -37 2q-36 3 -53 7.5t-43 18.5q-32 17 -51 35t-19 29q0 5 -5 13
q-11 26 -11 33q0 2 0.5 5t0.5 5q0 8 -6.5 17.5t-7.5 12.5q-4 10 -8 10t3 5q5 5 15 5q8 0 14 11q10 19 36 23q14 2 14 4q0 1 -1 3q-3 5 -14 9q-8 3 -26.5 23t-24.5 32q-13 25 -17 95q-1 11 -1 24q0 12 8 28q10 19 33.5 45.5t40.5 36.5q19 13 61.5 24t69.5 11h3q24 -2 27 1z
" />
    <glyph glyph-name="T" unicode="T" horiz-adv-x="525" 
d="M318 128q8 15 9 9q0 -2 -1 -5q-1 -6 -11.5 -16t-17.5 -12q-8 -2 -7 1q2 3 12 8t16 15zM432 569q-5 -2 -10 1l5 1l6 -1zM392 568q10 4 12 3.5t2 -5.5q0 -13 -16 -8q-16 4 2 10zM402 582q-1 -1 -3 -1q-2 2 0 4q1 0 2.5 -1t0.5 -2zM377 589q0 2 1 2q2 0 2 -2q0 -1 -2 -1
q-1 0 -1 1zM450 578q-3 2 0 6t8 6.5t6 1.5q5 -5 5 -27q0 -8 -1 -10q-3 -8 -9 -6q-2 1 -2 3q0 4 -8 6q-5 1 -7 4.5t0 6.5t6 4q6 2 2 5zM410 624q17 2 17 -6q0 -6 -11 -6q-17 0 -17 9q0 1 11 3zM373 651l-11 4h15q10 -2 10 -3q-4 -4 -14 -1zM418 688l-2 1q1 1 4 1l4 -1
q-3 -3 -6 -1zM461 690q0 3 2 -1l2 -5q5 -13 5 -28q0 -10 -3 -13t-8 -2t-5 5q0 2 -9 11q-6 6 -6.5 7.5t4.5 5.5q7 5 3 7q-3 1 -2.5 7.5t4.5 6.5q3 0 3 -4q0 -6 6 -2q4 2 4 5zM229 242q0 2 2 2q1 0 1 -2q0 -1 -1 -1q-2 0 -2 1zM232 274q0 2 2 2q1 0 1 -2q0 -1 -1 -1q-2 0 -2 1
zM307 282q-4 44 -4 103q0 12 -3 12q-4 2 -4 8q0 4 -1 4l-1 -2q-1 -5 -4 -5q-3 -1 -3 7q0 7 6 9q10 2 0 2q-4 0 -6 3q1 3 5 4q5 0 6.5 8t-1.5 18l-3 7v-1q0 -5 -4 -6q-3 -1 -3 2q0 4 -7 10t-11 6q-2 0 -2 -1q0 -4 7 -12q10 -12 3 -24q-5 -8 -1 -18q3 -11 3 -34q0 -42 -6 -55
q-5 -12 -5 -22q0 -5 -1.5 -8.5t-4 -4t-4.5 1.5t-2 29q-2 30 -2 33q0 1 -1 1q-3 0 -12 -9t-9 -13t-9 -8q-14 -5 -14 -16q0 -5 3 -9q3 -5 2.5 -15.5t3.5 -12.5q6 -5 2 -12q-5 -8 -1 -13q2 -3 5 -36t6 -36q3 -5 42 -5q40 0 43 5t3 20q0 18 -3 42q-2 19 -4 21q-4 6 -4 22z
M279 501q0 10 -4 12q-3 2 -4 -3v-6q-1 -9 -3 -8q-4 2 -4 -3q0 -6 8 -4q7 1 7 12zM252 509q-5 12 -13 3q-7 -8 1 -25q2 -5 -4 -7q-9 -3 -9 -14q0 -13 11 -13q7 0 8 21q2 22 5 24q5 3 1 11zM224 562q-4 0 -12 15l-1 2q-17 20 -19 16q-2 -5 -4 -26t5 -26q3 -5 13 -0.5t13 4.5
q10 0 10 7q0 8 -5 8zM198 691q42 3 60 3t22 -3q4 -2 17 -2q11 0 18 1q11 1 20 1.5t9 -0.5q2 -2 13 0q10 2 18 -0.5t8 -7.5q0 -6 -13 -3q-12 2 -19 -4t-6 -14t9 -10q9 -3 2 -3t-1 -3q4 -3 3 -4t-9 -5q-6 -4 -5 -22q1 -15 4 -21t14 -11q10 -7 18 -21l-14 2q-14 3 -18 -3
q-4 -5 -4 -180q0 -172 2 -190q1 -16 -9 -21q-10 -6 -11 -9q-1 -4 -7 -4t-13 -12l-6 -9q-7 -8 -12 -15.5t-5 -9.5l1 -3q2 -2 1 -4q-2 -5 -21 0q-47 11 -47 42v5q1 13 -7 18q-7 3 -8 5t2 12q1 1 1 6q0 4 -1.5 16t-1.5 16q0 7 2 9q4 5 0 11q-4 7 1 17q6 11 0 17q-5 5 -5 18
q0 8 -4.5 14.5t-4.5 12.5q0 1 0.5 3t0.5 4q2 13 -2 20q-5 9 -6 142v40h-17q-33 0 -43 8q-4 2 -7 0q-4 -2 -10 -2q-15 0 -24 6q-8 5 -16 5q-7 0 -9 2t2 11t11 16q11 12 0 26q-10 16 6 16q7 0 7 8t-3 10t-3 9q0 21 12 21q5 0 10 -5q4 -3 7 -1.5t13 11.5q15 15 29 15
q3 0 11 0.5t19 1.5t19 1z" />
    <glyph glyph-name="U" unicode="U" horiz-adv-x="538" 
d="M171 592q-2 -2 -4 0t2 2t2 -2zM140 324q0 7 -5 7t-5 -7q0 -6 5 -6t5 6zM130 363q2 -6 4 -6q5 0 5 17q0 11 -5 11q-3 0 -4.5 -7.5t0.5 -14.5zM118 454q0 2 -2 2t-2 -2q0 -1 2 -1t2 1zM111 438q0 21 -5 19q-2 -1 -5 -7q-4 -8 -3.5 -14t4.5 -6q3 0 3 -5q0 -4 3 -4t3 17z
M144 450q-8 18 -12 6q-2 -6 -5 -6q-1 -2 -0.5 -4.5t1 -10t0.5 -11.5q0 -19 4 -19q5 0 5 9q0 10 6 17q6 8 1 19zM92 459q0 3 -3 3q-4 0 -4 -3t4 -3q3 0 3 3zM89 475q0 -6 1 -6l1 12q-1 -2 -2 -6zM110 481q-1 9 -6 10q-2 0 -2 -2q-1 -2 -1 -4q0 -4 1.5 -5t3 0t3.5 -2q1 1 1 3z
M166 501q0 3 -4 3t3 -6q1 0 1 3zM155 489q1 24 -1 21q-1 -2 -2 -8q-2 -9 -7 -2q-8 13 -13 -12q-3 -19 15 -20q5 -1 6 2t2 19zM154 535v-5q3 5 1 11zM95 542q1 4 -2.5 5.5t-7.5 -1.5t-1 -3t3 -5t-0.5 -10.5t1.5 -8.5q3 -1 2 -9t0 -11q2 -3 3 -3q6 0 9 26q2 15 1 15t-3 -3
q-5 -6 -5 -1v9zM349 564q-5 -6 0 -7q8 -1 9 5q1 1 -1 3q-3 3 -8 -1zM96 602q-5 5 -8 5t-4.5 -8.5t0.5 -11.5q3 -3 3 -13q0 -7 1.5 -8.5t3.5 3.5q6 12 2 14q1 1 2 1q5 0 5 6.5t-5 11.5zM95 666q8 4 17 4q16 0 28.5 -13t16.5 -29q2 -9 9 -18q8 -12 5 -12l-5 1q-5 2 -6 0
t-1 -10q0 -9 0.5 -9.5t5.5 3.5q4 4 6 3t4 -11t2 -12q0 -14 -12 -14h-3q-3 0 -3 -14q0 -15 4 -15q3 0 3 -6q0 -7 2 -7t2 -40q0 -42 3 -48q2 -7 -3 -27q-4 -15 -4 -18.5t5 -8.5q7 -9 12 -42q4 -27 10 -37q8 -12 53 -20q6 -1 18 -1q29 0 48 14q23 20 23 85q0 23 -3 52
q-2 18 1 19q2 2 2 10q0 14 -4 24q-2 6 2 8t2 12q-3 11 3 15q4 3 0 10q-3 5 2 12t0 11t-1.5 11.5t1.5 12.5q-3 6 1 12.5t11 7.5q8 1 10 3q-3 2 -5 3q-8 0 -9.5 2.5t0.5 12.5q2 8 4 9q1 -2 10.5 -6.5t9.5 -9.5q0 -15 25 -2q16 9 16 0q0 -19 18 -8q2 5 11 2.5t10 -2.5
q3 1 4 -2.5t1 -14.5q0 -18 8 -27q8 -8 12 -18q3 -7 6 -69t3 -101v-18q-2 -26 -11 -67q-4 -17 -18.5 -44.5t-27.5 -41.5q-29 -32 -77 -51q-26 -10 -61 -10h-21q-56 0 -83 9q-75 24 -105 80q-3 6 -8 15.5t-6 11.5q-18 33 -18 109v13q0 6 0.5 59.5t0.5 87.5l1 108q14 8 14 14
q0 5 9 5q11 0 15 7q11 15 1 15q-1 0 -3 -1q-5 -2 -6 0q0 5 13 12z" />
    <glyph glyph-name="V" unicode="V" horiz-adv-x="525" 
d="M279 247q-1 0 -2 3.5t-1.5 6.5t1.5 3q3 0 3 -7q0 -6 -1 -6zM257 269q0 3 -4.5 9.5t-4.5 10.5q0 6 -3 6q-10 0 -17 -28q-8 -30 -8 -43q0 -4 2 -6q4 -2 11 0t10 6q4 5 11 -1q12 -8 44 -8q7 0 21 2q9 1 11.5 3.5t2.5 8.5q0 23 -15 23h-3q-9 -1 -9 4q0 4 -8.5 17t-11.5 13
q-4 0 -8 -5.5t-3 -9.5q2 -5 -4 -11q-3 -4 -4.5 -5t-2.5 0t-3 4q-4 8 -4 10zM272 332q-11 21 -16 15q-1 -1 -2 -4q-2 -4 -2 -7q0 -9 6.5 -19t13.5 -10q2 0 5 3q4 5 -5 22zM232 362q0 2 -5 9q-5 6 -5 -3t5 -9t5 3zM210 414q-10 12 -10 5q0 -4 5 -14t7 -10t3 3t-0.5 7.5
t-4.5 8.5zM196 427q0 -2 1 -2q3 1 2 4q-1 1 -2 0t-1 -2zM191 434q1 -1 3 -1q1 2 -1 4q-1 0 -2 -1t0 -2zM165 451q-6 14 -11 9q-10 -8 4 -18q8 -5 9.5 -3t-2.5 12zM164 469q0 4 -6 0q-4 -3 1 -3t5 3zM134 476q-4 6 -6 6t-2 -4q0 -19 8 -19q4 0 4 6t-4 11zM122 505q0 2 -3 2
t-3 -5q0 -7 4 -1zM183 516q-3 4 -11 4q-6 0 -7 -1.5t1 -11.5q1 -9 6 -17t6 -18q2 -14 7 -19t10 1q5 7 4 10t-9 11q-10 10 -8 14q1 2 5 0q2 -1 2 2q2 12 -6 25zM130 521q1 1 1 2q0 5 -5.5 12.5t-9.5 7.5q-3 0 -3 -6q1 -11 13 -31.5t19 -20.5q6 0 1 9l-5 5q-5 1 -9 9.5
t-2 12.5zM203 519q0 -3 6.5 -13t6.5 -11q0 -3 7 -19q9 -19 10 -31q3 -13 11 -19t13 -13q9 -12 12 -14t7 3q4 4 15 40t11 44q0 5 3 5t10 20t7 26q0 7 6 8q7 1 7 11q0 9 5 9q3 0 3.5 1.5t0 6t-0.5 5.5q0 9 4.5 18.5t12.5 9.5h2l2 -1q6 -2 9 4q1 3 -2 4q-10 4 1 13q5 4 11 1.5
t6 -9.5q0 -16 18 -16h6q10 2 12.5 1t3.5 -8q2 -10 13 -10t21 -11q5 -5 7 -10.5t0.5 -8.5t-6.5 -3q-3 0 -4 -3.5t0.5 -8t4.5 -8.5q5 -7 5 -14q0 -14 -22 -86.5t-35 -99.5q-4 -9 -30 -75q-32 -85 -43 -105.5t-29 -30.5q-15 -8 -34 -8q-17 0 -28 5q-23 10 -32.5 26t-31.5 79
q-5 15 -13 33t-8 21q0 2 -4 12q-10 23 -18 52q-3 13 -7 17q-3 2 -3 8q0 5 -4 9q-3 3 -7.5 18t-4.5 23q0 6 -6.5 20.5t-7.5 19.5q-1 9 -16 46.5t-16 40.5q-1 5 -5 15t-6 18t-3 21v6q0 22 7 31.5t27 14.5q12 3 20 3q9 0 17 -4q12 -6 23.5 -16.5t12.5 -17.5q2 -12 6 -14
q12 -9 16 -36q1 -10 10 -27q8 -16 8 -18zM402 667l10 9q9 5 9 -3q0 -4 -8 -6t-11 0z" />
    <glyph glyph-name="W" unicode="W" horiz-adv-x="700" 
d="M601 586q0 5 5 5t5 -3q0 -4 -6 -5q-4 -1 -4 3zM579 595q0 6 3 6t3 -3q0 -5 -4 -6q-2 0 -2 3zM550 610q3 7 5 7q1 -3 11 -13q7 -6 7 -7.5t-5 -5.5q-10 -5 -11 -5t-4.5 -1.5t-5.5 -1.5q-7 -2 -9 2t3 9q5 6 9 16zM482 239q0 2 2 2q1 0 1 -2t-1 -2q-2 0 -2 2zM487 279
q-5 0 -6.5 4.5t0.5 9.5t5 5q6 0 16 -11.5t12 -21.5q1 -4 2.5 -10.5t2.5 -8.5q1 -4 -1 -4.5t-4.5 1t-2.5 -1.5q0 -4 -8 1q-8 7 -7 14q1 9 -2 16t-7 7zM257 193q-5 13 -10 8q-3 -2 -1 -8q5 -16 11 -12q4 4 0 12zM202 220q7 -7 8 3q2 11 -4 11q-3 0 -5 -5.5t1 -8.5zM222 258
q-7 6 -8.5 4.5t-1.5 -11.5q0 -7 1 -9t5.5 0t6.5 2q7 0 0 10q-1 2 -3 4zM262 240q-6 27 -13 27q-1 0 -3 -3q-2 -8 -2 -10q0 -3 1.5 -11t1.5 -13q0 -2 4 -2t8 -6q7 -10 6 4zM194 313q4 3 4 7q0 8 -12 8q-6 0 -7 -4q-2 -6 3 -13q5 -6 -2 -14q-13 -15 5 -15q17 0 7 19q-4 7 2 12
zM163 315q4 -2 5 5q1 9 -2 16l-5 9q-3 -18 -3 -19q0 -8 5 -11zM157 353q0 6 -1 6t-2.5 -3t-1 -6t2.5 -3t2 6zM199 406q-2 1 -4.5 2.5t-4 3t-3.5 1t-4 -2.5q-8 -8 8 -21q3 -3 3 -14t3 -15q4 -4 6 -10q1 -3 1.5 -3t0.5 4q0 5 7 5t5 16q-4 29 -18 34zM507 420q-10 26 -18 16
q-3 -3 1 -15q4 -10 -5 -16q-8 -6 -3 -14q2 -3 1.5 -14.5t2.5 -11.5q4 -2 2 -9q-1 -10 -4 -1q-3 10 -12 9q-2 -3 -3 -5q0 -2 1.5 -4t3.5 -1h1q-2 -1 -2 -6q0 -4 -8 -12t-7 -13q4 -15 -8 -25q-5 -3 -5 -32q0 -9 2 -11q9 -6 -6 -19q-5 -4 -6 -7.5t2 -5.5t9 -2q8 0 17 4.5
t11 9.5q1 -1 1 -3q0 -13 17 -13q3 0 9 2q10 4 10 9t6 -3q4 -4 4 0q0 5 9 -2q7 -5 13 -5q14 0 14 16q0 19 -9 28q-4 4 -4 13q1 10 -13.5 65t-23.5 78zM192 429q2 7 -12 22v-10q0 -9 6 -17q4 -4 6 5zM140 468q-1 7 -7.5 11t-9.5 -1q-1 -2 -4 -1q-3 2 -3 0l8 -13q7 -8 7 -20
v-13q-1 -22 5 -26t6 -10q0 -7 3 1l1 3l1 -6q0 -11 -2 -14q-3 -5 -1 -9t7 -4q7 0 4 6q-1 4 3 0l4 -4q7 -9 13 -3q9 9 -10 22q-7 4 -10 12t-6 34q-1 12 -4.5 20.5t-4.5 14.5zM154 522q0 4 -3 6q-2 -1 -3 -4q0 -7 3 -7t3 5zM98 556q-8 6 -10 6q-4 0 -4 -4q0 -6 6 -18
q6 -10 6 -23q0 -9 7 -13q6 -3 6 -9q0 -7 3 -9q4 -2 4 2q0 3 4 2q12 -4 3 24q-10 30 -25 42zM407 550q2 18 -1 18q-9 0 -28 -18q-14 -14 -20 -14q-1 0 -5.5 -3.5t-8.5 -7t-5 -2.5t-1.5 0t-0.5 -2q0 -4 4 -4q3 0 3 -6q0 -7 -3 -7q-4 0 -4 -9q0 -12 9 -44q13 -44 18 -44
q3 0 6 16q2 11 9 28q23 56 28 99zM334 555q0 2 -7 11.5t-11 9.5q-2 0 -3 -2q-2 -6 3 -18q1 -3 3.5 -13.5t5 -19.5t5.5 -10q4 -1 5 1t1 9q0 14 3 23q0 8 -1 8q-4 -2 -4 1zM202 469q0 -4 5 -13.5t5 -11.5q-2 -13 6 -24q4 -5 8 -5q5 0 7.5 13.5t4.5 30.5t5 21q14 23 14 49
q0 11 5 19q3 5 8 27t10 28q6 7 6 16q0 8 8 16t6 11v1q-1 1 -1 2q0 7 12.5 16t27.5 13q7 2 20 2q15 0 31 -4q27 -7 36.5 -16.5t15.5 -33.5q3 -14 13 -37t13 -33q19 -79 30 -79q5 0 11 9t1 15q-4 4 -4 8q0 7 16 14q21 9 21 19l-1 1v2q-3 5 -12 -1.5t-11 -2.5q-2 5 3.5 13
t10.5 8q7 0 15 6q6 5 15 5q1 0 4 -0.5t4 -0.5q7 0 13 3q17 9 17 -8q0 -16 8 -16q6 0 10 7q3 4 7 2.5t4 -6.5t3 -5q4 0 4 -5t4 -6q10 -4 -4 -25q-10 -14 -10 -26q0 -8 4 -15t4 -18q0 -13 -7 -40.5t-8 -33.5q-4 -28 -11.5 -57.5t-18.5 -70t-16 -57.5t-5 -29q0 -17 -13.5 -33.5
t-30.5 -20.5q-11 -3 -17 -3q-11 0 -26 7q-17 6 -35 31q-14 19 -22.5 40t-25.5 82q-30 106 -37 106q-1 0 -2 -1q-4 -4 -10 -21.5t-6 -23.5q0 -5 -13 -42q-16 -44 -23 -74q-2 -11 -5.5 -19t-4.5 -15q-2 -9 -6 -9t-10.5 -7.5t-8.5 -14.5q-2 -8 -15 -18q-12 -8 -20 -8t-13 1
q-17 2 -30 9.5t-13 16.5q0 12 -8 20q-17 17 -17 50q0 6 -4.5 16.5t-4.5 18.5q1 11 -8 36q-5 12 -10.5 37.5t-9.5 36.5q-3 7 -14 49q-6 24 -18 65t-16 55q-2 6 -6.5 21.5t-6.5 19.5q-3 8 -3 13q0 3 2.5 10t2.5 14q0 15 12.5 26t30.5 11q2 0 4 -0.5t4 -0.5q21 -3 34 -16
q15 -15 15 -20q0 -4 6.5 -23.5t6.5 -23.5q0 -6 4.5 -10.5t4.5 -12.5q0 -11 4 -13q10 -6 10 -17q0 -7 -1 -11q-2 -14 2 -20q4 -3 4 -11z" />
    <glyph glyph-name="X" unicode="X" horiz-adv-x="563" 
d="M373 155q-1 -1 -3 -1q-3 1 -2 2q0 1 2 1q2 -1 3 -2zM404 184q-2 5 -7 5l-4 -1q1 0 3 -2q3 -2 4 -3q5 -4 5 -2q0 1 -1 3zM377 168q-5 6 -5 16q0 14 12 14h2q1 -1 2 -1l12 -3q5 0 14 -7q16 -9 10 -13l-4 -1q-7 0 -15 -8q-10 -8 -14 -8q-6 0 -14 11zM448 236q0 1 1 1
q2 0 2 -1q0 -2 -2 -2q-1 0 -1 2zM309 233q0 5 7 -1q9 -9 4 -9q-7 -1 -10 7q-1 1 -1 3zM399 251q0 6 13 -6q3 -2 4 -4q2 -4 11 -4q8 0 8 -2q0 -4 -4 -9t-7 -5q-4 0 -14.5 13t-10.5 17zM497 250q3 8 7 5q7 -4 1 -8q-1 -1 -3 -2q-6 -1 -6 -6q0 -4 -11 -13q-10 -8 -12 -14
q-1 -3 -4 -3t-6 2.5t-3 5.5q0 5 5 11t6 10q1 8 13 7q11 -1 13 5zM329 273q0 9 8 0q4 -4 5 -9q0 -6 5 -9q5 -1 1 -6q-4 -6 -2 -13q2 -11 -3 -10q-7 3 -8 10q0 6 -8 16q-8 16 -3 17q5 0 5 4zM329 284q0 2 1 2q2 0 2 -2t-2 -2q-1 0 -1 2zM421 286l-3 6q4 0 4 -3t-1 -3zM116 477
q0 5 8 0q13 -9 10 -14l-2 -1q-4 0 -10 5.5t-6 9.5zM171 159q0 1 -2 1q-1 0 -1 -1q0 -2 1 -2q2 0 2 2zM153 161q-1 2 -7.5 4t-13 1.5t-6.5 -2.5q0 -5 6 -9.5t12 -4.5q14 0 9 11zM115 177q3 6 1 14.5t-7 9.5q-4 1 -4.5 -1t-0.5 -9q0 -16 8 -17q2 0 3 3zM219 233q2 4 -3 4
q-4 0 -8.5 -5t-4.5 -9q0 -5 -9 -5q-10 0 -10 -4t-8.5 -7t-6.5 -11t4.5 -10t8.5 -1q5 2 20.5 21.5t16.5 26.5zM226 269q0 4 -4 4q-3 0 -3 -4q0 -3 3 -3q4 0 4 3zM133 271q0 1 -1 2q-1 4 -5 0l-2 -3l-3 -2q-14 -12 -8 -17q1 -1 2 -1q5 0 11.5 8.5t5.5 12.5zM242 277
q0 -3 -5.5 -7t-5.5 -6t-9 -2q-7 1 -12 -4q-5 -8 -1 -7q2 0 6 2q8 3 9 1q1 -1 0 -2.5t-2 -2.5q-2 -2 1 -2q6 0 6 5t3 5q4 0 16.5 14t12.5 18q0 3 -4 3t-9.5 -5.5t-5.5 -9.5zM228 286q-9 14 -9 -2q0 -7 1.5 -7.5t6.5 1.5q4 2 1 8zM158 306q0 2 -1 2q-2 0 -2 -2q0 -1 2 -1
q1 0 1 1zM203 308q4 3 4 7q0 5 -6 8.5t-12 3.5t-7 -4q-5 -14 -2 -19q2 -4 2 -9q0 -10 9 -4q3 2 5 6q6 10 7 11zM256 310q3 3 3 11q0 9 -4 9t-8 -7q-5 -8 -11 -8q-5 2 -5 -3t10.5 -5.5t14.5 3.5zM222 334q-1 7 -6.5 8.5t-7.5 -3.5q-5 -12 7 -12q5 0 6.5 1.5t0.5 5.5zM254 347
q4 0 7.5 4.5t2.5 8.5q-1 5 -7 -1q-9 -10 -3 -12zM411 346q-3 7 -11 16q-9 11 -15 5q-7 -7 -7 -20q0 -7 3 -9q4 -1 10.5 2.5t10.5 -0.5q6 -4 8.5 -2.5t0.5 8.5zM309 398q-14 8 -23 3q-4 -2 -11.5 -15t-7.5 -17q0 -3 12.5 -6.5t22.5 -3.5q12 0 18.5 -6.5t12.5 -8.5q11 -3 15 3
q3 6 -13 22t-16 19q0 2 -10 10zM344 403q-1 4 -8 7.5t-9 1.5q-4 -4 10 -20q17 -18 22 -10q2 4 -2 11t-8 6q-3 -2 -5 4zM341 570q5 -4 7.5 2t-3.5 6q-4 0 -5.5 -3t1.5 -5zM338 593q2 0 12 8.5t12 8.5q4 0 10 -10t6 -17q0 -9 13 -16q14 -8 19 -6q4 1 5 -4.5t-3 -9.5
q-2 -3 -1 -6t6 -5.5t11 -3.5q8 -1 15.5 -7.5t7.5 -12.5q0 -2 -10 -14q-9 -10 -6 -18t3 -14q0 -14 -13 -36q-25 -40 -25 -48q0 -3 2 -3q10 -4 33 -32t23 -36q0 -12 -10 0q-3 3 -5 7q-9 13 -18 13q-10 0 -10 -7q0 -15 -14 -3q-6 6 -8 5q-2 -3 10 -15q10 -10 8 -13q0 -1 -2 -1
q-5 0 -30 25q-15 15 -21 13q-3 -1 -8 -1q-2 0 -2 -6q0 -7 -4 -9q-3 -1 -10 -16q-4 -9 -6 -11.5t-6 -1.5h-1q-8 0 -32 -26.5t-48 -62.5q-30 -46 -40 -46q-1 0 -2 1q-4 4 -9.5 1t-5.5 -8t-11.5 -14.5t-20.5 -11.5q-1 0 -3 -0.5t-3 -0.5q-16 0 -31 12t-15 23q0 8 -8 22
q-7 14 -7 15q0 6 14 31q4 7 1 13.5t1 13.5l7 13q5 11 10 18t10 9q6 2 8 2.5t2.5 -0.5t0.5 -5q0 -7 6 -4q12 4 10 13q0 5 -6 3q-5 -1 -5.5 0t0.5 5q1 3 6 10.5t5 10.5q0 2 6.5 5t6.5 7q0 3 13 19t13 18q0 3 -8 13q-9 12 -35 42q-11 12 -5 17h1q4 0 17 -12.5t15 -18.5
q2 -4 12 -11t14 -7h1q3 3 12 23q9 19 17 20q5 1 6 0t0 -5q-1 -6 1.5 -6t2.5 3v7q0 5 -5 5q-7 0 -9.5 8.5t2.5 13.5q2 2 11 20q4 8 16.5 20.5t15.5 21.5q2 6 2 8q0 7 -17 33q-19 30 -19 33q0 8 8 -1l4 -6q4 -8 19 -24.5t19 -17.5q2 -1 2 -15q0 -22 20 -42q3 -3 9.5 -13.5
t13 -19t11.5 -8.5q2 0 4 2t-1.5 7t-8 10.5t-4.5 7.5q0 5 -17 27q-18 23 -18 34q0 12 6 13q7 2 7 9q0 6 8 15.5t14 10.5zM126 584q0 9 -29 0q-16 -4 -16 -14q0 -6 3 -18q2 -13 4 -17.5t5 -3.5q4 1 18.5 24t14.5 29zM80 641q23 44 69 44q19 0 35 -8q24 -11 13 -14l-6 -1
q-9 0 -18 -7q-8 -7 -18.5 -25.5t-10.5 -25.5l1 -2h1q8 0 38 7t34 11q3 3 8 3q9 0 5 -9q-2 -5 -9 -8q-11 -5 -64 -44t-58 -46q-6 -5 -8.5 -4t-7 5t-8.5 5q-20 6 -20 29q0 11 8 21q9 12 9 33q0 22 7 36z" />
    <glyph glyph-name="Y" unicode="Y" horiz-adv-x="594" 
d="M309 112q0 2 2 2q1 0 1 -2q0 -1 -1 -1q-2 0 -2 1zM355 120q3 4 5 2q0 -2 -3 -3q-3 -2 -2 1zM301 117l-4 7h1l4 -7h-1zM257 185q5 0 3 -11.5t2 -11.5q3 0 -2 -5q-3 -3 -6 -3q-8 0 -8 15q0 16 11 16zM283 174q0 5 5.5 17.5t8.5 12.5q4 0 4 -20q0 -11 0.5 -14.5t2 -5
t7.5 -2.5q14 -3 1 -3q-10 0 -14 -6q-5 -7 -12 -7q-6 0 -9 7t2 11q4 3 4 10zM321 208q-2 9 0 12.5t9 0.5q5 -3 5 -9q0 -13 -8 -13q-3 0 -6 9zM299 223q0 2 1 2q3 -1 2 -4q-1 -1 -2 0t-1 2zM252 221l1 4q2 -3 1 -6l-1 -2q-1 1 -1 4zM223 566q0 3 8 3q5 1 5 -1q0 -4 -7 -6
q-6 -1 -6 4zM392 167q0 2 -4 2q-5 0 -5 -4q1 -3 9 2zM378 290q0 3 -2 5t-4 1t-2 -6q0 -4 2 -5t4 1t2 4zM357 300q0 3 -5 3q-4 0 -4 -3t4 -3q5 0 5 3zM293 362q0 2 -2 2q-1 0 -1 -2q0 -1 1 -1q2 0 2 1zM332 359q0 11 -7 4q-2 -2 -4 -6q-8 -17 -1 -24q5 2 5 10q0 15 3 13
q4 -2 4 3zM296 377q3 -4 4 1q2 6 -1 7q-4 3 -4 -2q-1 -3 1 -6zM354 391q0 2 -2 2q-1 0 -1 -2q0 -1 1 -1q2 0 2 1zM347 393q1 10 -4 14t-11 -2q-4 -4 -3.5 -9.5t4.5 -7.5q4 -1 8.5 -12.5t4.5 -18.5q0 -13 2 -17l5 -9l5 8q4 7 3 16t-6 11q-4 1 -4 8q0 4 -2.5 8t-1.5 11z
M283 396q2 9 -9 18q-6 4 -8 1t3 -7q6 -4 13 -20zM294 424q5 5 -5 14q-7 6 -11 0q-2 -4 5 -11t11 -3zM306 446q0 1 -2 1q-1 0 -1 -1q0 -2 1 -2q2 0 2 2zM375 442q-18 18 -22 7q0 -1 -1 -3q0 -8 8 -16t16 -8q4 0 5 1q9 4 -6 19zM342 467v-4l1 7v1q-1 -1 -1 -4zM309 470
q0 -4 2 -2t0 4q-1 1 -1.5 0.5t-0.5 -2.5zM338 479q0 7 -8 14q-5 4 -7 -2q-1 -6 5 -12q10 -10 10 0zM437 633q0 -2 1 -2q3 2 2 5q-1 1 -2 -0.5t-1 -2.5zM117 638q0 2 -7.5 1.5t-13.5 -2.5q-7 -2 -9 -8q-1 -4 3 -9.5t8 -5.5q2 0 10.5 11t8.5 13zM453 648q0 5 -3 5t-3 -5t3 -5
t3 5zM229 494q0 1 -5 13t-5 17q0 4 3 4t10 -8.5t7 -12.5t10.5 -14t14.5 -10t3 21q-1 18 5 26q6 7 -1 22q-11 23 -20 23q-1 0 -3 -1q-6 -2 -6 8q0 9 -8 12q-8 2 -8 5t-15 20q-20 23 -23 27q-8 10 -12 10q-3 0 -34 -21.5t-37 -27.5q-3 -3 -3 -6q0 -10 20 -30q40 -42 48 -60
q5 -9 10 -11q6 -1 11.5 -9.5t3.5 -11.5q-1 -3 6 -10q12 -12 21 -25q30 -45 35 -45q2 0 3 2t0 5.5t-4 5.5q-4 4 0 9q4 4 4 9q0 9 -11 23q-20 26 -20 41zM164 666q1 6 -4 7t-9 -4q-9 -10 -1 -9q10 1 14 6zM438 653q4 0 9 8t8 8q4 0 9 -8.5t5 -15.5q0 -8 8.5 -13.5t19.5 -5.5
q9 0 10.5 -2t-3.5 -10q-5 -7 2 -11.5t15 -4.5t14 -8q8 -11 -3 -23q-10 -11 -3 -22q3 -5 3 -10q0 -9 -10 -28q-26 -55 -96 -146q-36 -45 -36 -72q0 -13 -4 -19q-4 -5 0 -5q3 0 3 -7q0 -5 -3 -5q-4 2 -6 7q-4 17 -13 11q-3 -1 -3 -12q0 -19 6 -33q8 -16 0 -24q-2 -2 -2 -5.5
t1 -6t3 -2.5q4 1 9 -2.5t5 -6.5q0 -4 3 -4q6 0 6 45q0 26 3 29q2 3 -2 3t-4 4q0 5 8 -5q12 -14 7 -21l-2 -1q-2 0 -2.5 -4.5t0.5 -9.5t3 -7q4 -4 4 -26t-4 -26t-13 0q-8 3 -13 -3.5t-10 -6.5q-6 0 -12.5 7.5t-3.5 10.5t0 30q-3 19 -5 56q-2 28 -10 31q-7 3 -16 3
q-12 0 -16 -4q-5 -5 -8 1q-3 0 -3 -4q0 -9 5 -9t5 -10q0 -9 -5 -9q-6 0 -15 -7t-12 -3t-3 11q0 8 -4 1q-3 -5 -9 -5t-6 10l2 7v-1q4 -9 6 -1l1 7q0 10 6 16q7 7 7 11q0 7 -19 33q-96 138 -121 176q-42 62 -49 67t-5 18t-6 19q-16 16 -16 39q0 30 27 41q12 6 33 6
q43 0 60 -15q2 -2 8.5 -4.5t11.5 -5t5 -5.5t11.5 -15t11.5 -16t9 -13q4 -4 9.5 -16t13.5 -15q7 -2 11.5 -10t9.5 -10q7 -4 13 -13q6 -12 20 -26l15 -15l8 9q11 14 13 19q3 8 19 29q9 12 13 19q7 13 10 13t12.5 10t9.5 13q0 5 10.5 15.5t15.5 10.5z" />
    <glyph glyph-name="Z" unicode="Z" horiz-adv-x="545" 
d="M397 258q0 2 3 2q5 0 11 -5t6 -10q0 -9 -6 -9q-3 0 -8.5 8.5t-5.5 13.5zM142 547q-2 0 -3 4.5t3 4.5t3 -4.5t-3 -4.5zM226 220q-4 0 3 6q1 0 1 -3t-4 -3zM230 231q0 2 2 2q1 0 1 -2t-1 -2q-2 0 -2 2zM181 234q-2 -2 -5 0q2 1 3 2q4 0 2 -2zM371 571q0 1 2 1q1 0 1 -1
q0 -2 -1 -2q-2 0 -2 2zM375 253q-4 9 -6 4q-1 -2 -1 -5q0 -6 5 -6q4 0 4 1t-2 6zM158 255q-1 4 -5.5 6t-8.5 1t-4 -5q0 -14 15 -32q9 -9 15 -4q1 1 0 4t1.5 3.5t12.5 0.5q16 0 22 2q4 1 4 0q-1 -5 -11 -12q-8 -6 -15 -1q-5 3 -6.5 2t-6.5 -10q-6 -13 -1 -18t5 -10
q0 -3 8.5 -6t6.5 -9q-1 -4 -1.5 -5.5t0.5 -2.5q7 0 41 43.5t34 52.5q0 6 -15 6t-21 -6q-10 -8 -9 -2q0 1 1 3q0 3 -5 3q-12 0 -22 -13q-3 -4 -8 1q-3 4 -14.5 3t-12.5 5zM425 563q2 2 4 6q-2 -2 -4 -6zM281 580q0 2 -1 2q-2 0 -2 -2q0 -1 2 -1q1 0 1 1zM275 582q0 3 -1 3
l-3 -6q4 0 4 3zM252 582q1 5 -4 7.5t-7 -1.5q-1 -2 -9 -2q-9 0 -21 -3l-15 -3l18 -2q18 -2 22 -2q14 0 16 6zM182 584q0 4 -0.5 5.5t-2.5 1.5t-5 -1.5t-8 -4.5q-11 -7 -5 -12q8 -6 14.5 -2.5t6.5 13.5zM372 592q-6 6 -7.5 6t-10.5 -6q-9 -5 -7 -9t-1 -4q-4 0 -12 -9.5
t-8 -14.5t5 -6t35 -1q42 0 42 7q0 4 -11 15q-12 12 -17 12q-4 0 -9 -6q-6 -8 -8 -1q-1 8 8 10q7 0 1 7zM336 599q0 2 -10 2q-12 0 -15 -7q-1 -2 2 -4t13 2t10 7zM274 601q1 3 -3 4q-8 0 -11 -5q-3 -9 2 -9q8 2 12 10zM392 624q7 0 8 2q0 2 -4 4q-7 3 -10 1q-7 -7 6 -7z
M326 632q-8 5 -25 0q-17 -6 -3 -10q6 -2 2 -5q-3 -2 2 -2l8 1q16 2 28 2q14 0 14 4q0 5 -9 5q-10 0 -17 5zM282 634q-1 2 -1.5 4t-0.5 3t-1 1.5t-5 0.5q-9 0 -9 -3t-7.5 -7.5t-7.5 -6.5q0 -3 14 -4q20 -1 20 8q0 2 -2 4zM217 656q0 3 -3 3q-5 0 -1 -4l3 -2q1 0 1 3zM155 542
q-7 18 -10 18q-6 0 -20 10.5t-18 17.5q-5 10 -5 15q0 9 16 24q17 17 18 25q2 9 4.5 12t6.5 -1t11 -1q9 3 26 3q35 0 40 -7q2 -4 5.5 0.5t6.5 0.5q4 -5 6 -1q3 4 44 4q44 0 48 1q3 1 10 1q4 0 14 -1t14 -1t12 2q17 4 22 1q6 -3 16 2q12 6 26 2q29 -8 41 -58q2 -12 2 -19
q0 -22 -9 -29q-5 -3 -5 -12q0 -5 -10 -14t-11 -13q-2 -7 -14 -17q-10 -9 -26 -42q-9 -18 -14.5 -26.5t-13.5 -18.5t-16 -22q-17 -25 -26 -36q-15 -17 -27 -37t-22 -32q-13 -17 -13 -20q0 -1 10 -1q8 0 15 -5q6 -5 12 0t11 0q9 -8 17 -1q5 4 9.5 0t9.5 -1q6 3 14 -0.5t8 -9.5
q0 -2 5 -13.5t4 -13.5q-3 -6 12 -28l5 -9l-10 2h-5q-13 0 -13 -7q0 -4 5 -9q6 -6 6 -13q0 -6 -4.5 -11t-11.5 -5q-2 0 -8 2q-2 1 -5 1q-8 0 -28 -14q-12 -10 -70 -15q-55 -5 -145 -5q-28 0 -31 1q-19 4 -30.5 22.5t-11.5 42.5q0 16 4 29t14 27.5t27.5 36.5t21.5 27
q12 16 85 112q89 114 89 123q0 6 -28 6q-4 0 -18.5 -0.5t-24.5 -0.5z" />
    <glyph glyph-name="a" unicode="a" horiz-adv-x="395" 
d="M253 129q0 1 -1 1q-2 0 -2 -1q0 -2 2 -2q1 0 1 2zM200 259q-22 0 -33 -6q-14 -8 -14 -19q0 -14 17 -19h3q13 0 30 13t17 23q0 8 -20 8zM125 327q0 17 -15 3q-7 -6 -7.5 -7.5t4.5 -4.5q6 -5 12 -2t6 11zM189 353q0 4 -17 4q-25 0 -25 -8q0 -4 8 -9q8 -6 18 1q9 7 13 7
q3 0 3 5zM131 361q0 -2 1 -2q3 1 2 4q-1 1 -2 0t-1 -2zM112 369l-8 3l-1 -1q0 -4 4 -4q5 0 5 2zM191 480q10 2 19 2q37 0 57 -9q57 -28 71 -68q6 -20 6 -47q0 -22 -4 -33q-5 -16 -1 -24q6 -13 6 -40q0 -15 -3 -23q-5 -10 -5 -30q0 -18 -9 -27q-10 -10 -11 -33t-8 -24
q-4 -1 -11 4t-10 -2q-4 -6 -14 -2q-9 4 -11 0q-1 -1 -4.5 -2.5t-6 -3t-1.5 -4.5q2 -4 -4 -4q-5 -1 -9 2q-5 5 -18 5q-10 0 -26.5 5.5t-24.5 6.5q-7 1 -31 7.5t-34 6.5q-21 0 -21 16q0 7 -9 23q-15 26 -13 43q0 8 -5 11q-4 3 -4 15q0 31 14 49q6 6 3 15q-4 15 -4 28
q0 12 5 17t6 7t-0.5 3t-6.5 1t-6.5 2t0 5.5t6.5 7.5q2 2 6.5 10t11.5 9q9 2 24 19q39 46 80 56z" />
    <glyph glyph-name="b" unicode="b" horiz-adv-x="489" 
d="M173 121q-4 0 -4 4l2 2q3 0 3 -3t-1 -3zM344 130q-2 0 -1.5 2.5t1.5 5t2 2.5t1 -5t-3 -5zM261 124q0 2 7.5 6.5t10.5 4.5q1 0 0 2l-3 6q-4 7 0 9.5t18 2.5h13l-10 -3q-8 -2 -9.5 -8.5t5.5 -8.5q11 -3 16 10q4 8 15 14q7 3 12.5 3.5t8 -2.5t0.5 -8q-2 -8 -6.5 -11.5
t-16.5 -6.5q-52 -13 -55 -13q-6 0 -6 3zM325 333l2 5q2 -3 0 -7l-1 -2q-1 1 -1 4zM155 177q0 1 -2 1q-1 0 -1 -1q0 -2 1 -2q2 0 2 2zM200 189q0 9 -9 9q-7 0 -7 -7q0 -6 8 -6t8 4zM139 199q0 5 -5 5q-7 0 -3 -5q4 -7 7 -3q1 1 1 3zM276 213q2 3 -3 3q-12 0 -12 -6
q0 -2 3.5 -2t7 1.5t4.5 3.5zM155 220q5 0 5 4q0 6 -7.5 15t-12.5 9q-2 0 -2 -3q0 -4 1 -7q5 -18 16 -18zM323 235q-2 1 -7 11v1q-3 5 -5 3q0 -2 -2 -6l-3 -6q-8 -16 -11 -17q-7 -3 -5 -7q1 -1 3 -1t29 18q4 1 1 4zM100 223q-4 0 -8.5 14t-6.5 14l-2 -2q-1 -1 -1 -19
q0 -42 3 -42t6 7q4 7 13 13q10 5 6 10q-3 5 -10 5zM318 257q0 1 -1 1q-2 0 -2 -1q0 -2 2 -2q1 0 1 2zM81 279q0 -4 6.5 -13.5t6.5 -14.5t0.5 -5t2.5 4q3 5 11 5q7 0 15 8q7 7 16 3q18 -9 25 0q5 6 2 10.5t-12 4.5q-12 0 -14 3q-1 2 -11.5 0t-12.5 0t-9 2q-16 0 -16 -12
q0 -6 -5 -1q-2 2 -3 6l-1 7zM203 290q0 -3 1 -3q2 2 1 6q-1 -1 -2 -3zM88 290q0 4 -2 4l-4 -6l2 -1q4 0 4 3zM424 362q0 2 -2 2q-1 0 -1 -2q0 -1 1 -1q2 0 2 1zM378 380q0 5 -7 6q-4 1 -4 -2.5t5 -10.5q7 -8 5 -15q-3 -11 3 -15q3 -2 7 3q4 4 2 13t-8 13q-3 3 -3 8zM206 552
q0 -11 10 -11q2 0 24 2q8 1 19 1q13 0 38 -8q19 -6 52 -25q10 -5 26.5 -23t25.5 -33q25 -48 31 -70q4 -9 6 -56q0 -4 0.5 -9.5t0.5 -7.5q0 -14 -4 -21q-6 -13 -10 -9q-1 1 -1 4q0 7 -5 4q-2 -2 -3 -6q-3 -9 1 -11q2 -1 4 2q3 1 3 -7q0 -22 -10 -9q-5 5 -6 5t-5 -4
q-4 -5 -3 -11.5t6 -9.5q2 -1 5.5 -1t6 1.5t1.5 3.5q-1 3 1 3q1 0 5 6q5 2 6 -6q0 -18 -14 -49.5t-23 -31.5q-6 0 -6.5 5t5.5 11q9 11 10 17q0 1 1 3v2q0 4 -4 4q-6 0 -19 -13q-15 -13 -15 -9t19 66q5 17 1 21t-4 10t-3 0t-3 1t-6.5 10.5t-10.5 -1.5q-4 -6 -6 -0.5t-6 3.5
q-5 -3 -1 2q9 13 -5 24q-7 3 -9 16q-2 11 -4 11q-4 0 0 7q3 7 -6 27q-14 30 -34 30q-2 0 -10 -2q-5 -2 -15 -4t-17.5 -4.5t-12.5 -6.5q-6 -5 -7.5 -11.5t-2.5 -30.5q-1 -62 -9 -68q-6 -4 -10 -4q-5 0 -7.5 -7.5t0.5 -11.5q26 -34 49 -34h5q10 2 10 -1q0 -4 6 -4t6 5t7 10
q6 4 6 12q0 4 14 18q15 14 15 12q0 -1 -1 -5q-2 -6 0 -10q2 -3 11.5 -2.5t14.5 3.5q3 2 5 -4q2 -8 -1 -12q-3 -3 -8 -17.5t-5 -19.5q0 -6 4 -6q3 0 -1 -3t-10 -1h-2q-6 0 -27 -9t-24 -9q-4 0 -10 -4q-5 -4 3 -9q9 -6 4 -13q-4 -8 -3 -10q1 -3 -1 -3q-3 0 -3 -6q0 -7 -7 -7
q-6 0 -6 4q0 3 -5 3t-5 -5q0 -4 -3 -4q-7 0 -32 4q-20 3 -27 3q-5 0 -22 -5q-22 -6 -24 -6q-5 0 -11.5 -5.5t-12.5 -5.5q-4 0 -6 1q-26 7 -34 28q-4 9 -4 26q0 13 3 15t3 13t5 11q6 0 1 9q-2 3 -4 5t2 6t-3 8q-13 7 -13 29v3l1 2q2 8 2 25q0 22 -3 37v12q-1 11 -2.5 28.5
t-2.5 37.5t-1.5 42t-0.5 37q0 36 4 36q3 0 5 -9.5t3.5 -20.5t2.5 -13q4 -10 6 -18q3 -11 14 -11q9 0 12 9q2 8 20.5 26.5t30.5 25.5q3 1 15 6t18.5 8.5t13 9.5t6.5 12q0 8 3 8t3 -8zM193 570q0 8 4 4q3 -3 3 -7t-3 -4q-4 0 -4 7zM90 681q6 3 28 3q30 0 41 -4q19 -7 26.5 -20
t9.5 -39l1 -25l-66 -1q-66 0 -70 -4q-2 -3 -5 0q-1 1 -1 17q0 34 3 39t15.5 18t17.5 16z" />
    <glyph glyph-name="c" unicode="c" horiz-adv-x="423" 
d="M320 236q-17 9 -23 9t-7 -4q-2 -5 0 -7.5t7 -1.5q3 1 11 -6.5t11 -6.5q4 1 8 -2.5t8 -0.5q3 2 3.5 3.5t-1 4t-5.5 5.5t-12 7zM189 467q4 2 14 2q2 0 8.5 -0.5t10.5 -0.5q56 -4 98 -46q25 -25 25 -33q0 -3 -7 -12q-8 -10 -8 -17t-6 -15.5t-13 -10.5h-3q-12 0 -28 15
q-7 7 -12 5q-6 -2 -23 15q-16 16 -22 16q-5 0 -28 -12q-21 -11 -29 -28q-9 -17 -9 -35q0 -12 7 -38q10 -34 31 -39q11 -3 18 -3q10 0 18 8t4 8t2 4q4 2 6 12q1 8 27 27q8 6 23 18q10 8 27 8t25 -7q22 -17 22 -46q0 -8 1.5 -17.5t1.5 -10.5q0 -6 -6.5 -18.5t-11.5 -15.5
q-6 -4 -6 -5q0 -3 -9 -14q-30 -35 -62 -52q-31 -15 -49 -15q-60 0 -92 18q-13 7 -36 30.5t-29 35.5q-17 32 -17 91v9q2 40 8.5 61t26.5 50q13 19 43 38q26 16 43 16q10 0 16 4z" />
    <glyph glyph-name="d" unicode="d" horiz-adv-x="488" 
d="M331 451q0 8 1 8l2 -3q3 -6 0 -11q-3 2 -3 6zM274 376q-11 10 -31 10q-14 0 -29 -6q-34 -13 -44 -66q-2 -7 -2 -17q0 -8 4 -20q14 -41 25 -45q2 -1 11 -1q31 0 46 5q15 4 26 26.5t11 44.5q0 11 -3 18q-6 14 -6 21q0 4 2 12q3 9 -10 18zM313 587q2 5 -3 5q-8 0 -8 -7
q0 -2 2.5 -2.5t5 1t3.5 3.5zM305 623q10 11 13 12.5t8 -4.5q17 -19 24 -19h6q8 1 10 -0.5t2 -7.5q0 -5 1.5 -6t9.5 -2q32 -1 32 -5q0 -3 -4 -3q-7 0 4 -16l5 -5q12 -12 17 -79q3 -39 3 -64t-3 -25q-9 0 -21 27q-7 17 -27.5 37.5t-36.5 28.5q-5 2 -10.5 5t-8 4.5t-7.5 2.5
t-12 1h-11l-2 -21q-3 -18 1 -30q4 -10 2 -14q-3 -4 -3 -41q0 -22 2 -24q2 -1 10 5.5t9 6.5q2 0 7 11q5 9 9 9q1 0 4 -1t5 -1q5 0 10 4q6 4 9 4t15 -3q15 -5 26 -5q10 0 14 -10q2 -7 7.5 -6.5t7.5 -2.5q3 -5 3 -73q0 -32 -1 -39q-3 -17 0 -24q4 -12 4 -54q0 -12 -1 -14
q-2 -4 -7 -4t-5 15q0 17 -5 17q-4 0 -8.5 -10t-4.5 -19q0 -13 -5 -15q-6 -1 -7 2h-1q-3 0 -16 -10l-12 -9q-3 0 -3 -4q0 -3 -3 -5.5t-6.5 -4t-10 -3.5t-9.5 -3q-50 -20 -89 -20q-7 0 -9 2q-2 3 -11 3q-7 0 -40 10.5t-40 14.5q-5 3 -5 13q0 6 -1.5 7.5t-8.5 1.5q-9 0 -25 16
q-15 17 -15 20q0 5 -8 17q-14 20 -16 57q0 19 -6 29q-7 14 -7 34q0 34 16 53q5 6 5 14q0 10 4 17q3 5 9 17q5 11 20.5 27t25.5 21q8 4 24 14q12 8 17 8q6 0 6 3t9.5 6.5t18.5 3.5q8 0 23 2.5t25 2.5h8q21 -1 23 3q0 1 1 4q5 28 5 32q0 7 -1 12t-1 14q0 18 14 35z" />
    <glyph glyph-name="e" unicode="e" horiz-adv-x="451" 
d="M307 209q0 1 2 1q1 0 1 -1q0 -2 -1 -2q-2 0 -2 2zM330 171q0 -3 -6.5 -11.5t-6.5 -10.5q0 -3 -6 -3t-13 -5t-24 -7q-18 -2 -18 -6q0 -9 -15 -2q-10 4 -10 10q0 7 16 7q7 0 27 7.5t25 11.5q6 6 13 22q8 17 10 17q1 0 9 -6q4 -4 4.5 -3.5t-0.5 3.5q-1 4 5 9t11 4q1 0 6 8
q6 8 7 7q1 -2 2.5 -4.5t2.5 -3t1.5 -3.5t-0.5 -7q-3 -7 -3 -11q0 -2 -5 -6t-12 -7t-11 -3q-9 0 -9 -7zM362 231q0 2 1 2q2 0 2 -2t-2 -2q-1 0 -1 2zM250 178q0 3 -5 3t-5 -3t5 -3t5 3zM310 335q0 3 -4 3q-5 0 -5 -3t5 -3q4 0 4 3zM258 401q-18 7 -33 7q-22 0 -50 -21
q-8 -7 -17.5 -22.5t-9.5 -22.5t5 -7q7 0 23 4q20 4 71 8q33 2 42 10q7 7 4 14q-4 19 -35 30zM155 153q0 3 -15 8.5t-15 7.5t-15 19q-15 16 -16 32q-4 29 -14 41q-26 33 -26 42q0 11 6 17q7 7 7 10q0 1 8 13q7 8 15.5 28.5t8.5 27.5q0 3 14 25q14 20 45 38q33 19 45 21
q5 1 19 1q59 0 85 -13q8 -4 22 -8q11 -3 17.5 -10.5t16.5 -28.5q1 -1 9 -16.5t9 -19t6.5 -17t7 -22t3.5 -22t2 -28.5q0 -16 -1.5 -20.5t-9.5 -12.5q-12 -12 -10 -19q1 -5 0.5 -6.5t-5.5 0.5q-7 2 -10 5q-2 2 -11 2q-13 0 -20 -4q-7 -5 -7 -14q0 -16 -7 -18q-2 -1 -3 1
q-2 4 -6 2q-2 -1 -3.5 2.5t-3.5 11.5q0 4 -11 4q-9 0 -25 -3t-32.5 -7t-18.5 -4q-36 -5 -36 -9q0 -1 1.5 -7.5t1.5 -12.5q1 -5 3 -5.5t11 4.5q11 5 20 4h4q12 0 37 5l30 8q-7 -14 -2 -17q3 -1 3 -4q0 -5 -13.5 -11.5t-19.5 -6.5h-1q-5 2 -5 -1t-29 -5q-8 -1 -18 -1t-23 5
q-15 7 -20 4q-1 -1 2 -3q1 0 2 -2t2.5 -4t4 -5t4.5 -5q11 -14 18 -14q5 0 5 -0.5t-4 -1.5q-1 -1 -2 -1q-9 -3 -22 6q-15 9 -15 14z" />
    <glyph glyph-name="f" unicode="f" horiz-adv-x="343" 
d="M120 188q-5 0 -8 6q-1 4 3 3h2q6 0 7 -6q1 -3 -2 -3h-2zM108 195q-1 -1 -3 -1q-3 1 -2 2q0 1 2 1q2 -1 3 -2zM105 205q0 2 2 2t2 -2q0 -1 -2 -1t-2 1zM80 431l2 3q2 -3 0 -5q-1 -1 -1.5 0t-0.5 2zM88 437q2 5 4 -1q3 -6 -1 -10q-4 -5 -4 3q-1 4 1 8zM89 468q1 1 2 -1
l1 -2q2 -5 -2 -9t-4 3t3 9zM161 505q-3 0 -3 -1l6 -1h1q-1 2 -4 2zM257 533q0 4 5 4q6 0 12.5 -4t6.5 -8q0 -2 -3 -5q-6 -5 -3 -16q5 -21 -4 -21q-3 0 -1 11q1 3 1 8q0 15 -17 18q-8 2 -8.5 2t4.5 2q7 1 7 9zM132 535q1 6 6 4q22 -10 22 -12q0 -5 -7 -14.5t-14 -13.5
q-14 -8 -11 -14q0 -2 3 -2t3 -8t3 -8q6 0 2 -5q-2 -2 -5 -3q-4 -1 -5 0.5t-1 6.5q0 8 -4 2q-2 -4 -5 -7.5t-6 -8.5q-3 -6 -9 -6q-7 0 -7 19t11 36q10 17 6 17t-4 6q-1 6 4 7q4 0 5 -4q2 -6 10 2zM246 327q0 2 -1 2q-2 0 -2 -2q0 -1 2 -1q1 0 1 1zM83 327q0 5 -3 5t-3 -5
t3 -5t3 5zM219 346q2 -2 4 0t-2 2t-2 -2zM157 350q0 1 -2 1q-1 0 -1 -1q0 -2 1 -2q2 0 2 2zM223 360q6 8 -1 12q-5 3 -10 -3q-4 -5 1 -10t10 1zM146 379q-7 5 -9.5 4t-1.5 -7q1 -11 12 -5q5 3 -1 8zM208 400q0 -7 8 -2q11 5 7 10l-5 1q-10 0 -10 -9zM150 406q0 3 -3 3t-5 -3
t3 -3t5 3zM234 523q0 1 -2 1t-2 -1q0 -2 2 -2t2 2zM223 536q-6 6 -14 2q-10 -4 -1 -6l8 -1q8 0 9 1t-2 4zM166 255q0 -4 -6 -18t-6 -18q0 -5 -4 -7q-6 -4 -8 7q-1 5 0 11q0 2 0.5 5t0.5 5q0 22 -7 22q-3 0 -14.5 -11.5t-11.5 -14.5q0 -2 -9 -2q-7 0 -8.5 -2t-2.5 -13
q-2 -16 2 -20q2 -2 2 -14q0 -20 -4 -31q-3 -9 -7 -52t-4 -62t-4 -20q-1 0 -1 -0.5t-1 -0.5q-7 0 -8 50q-3 137 -9 201q0 5 -2.5 12t-0.5 12q5 12 5 36q0 6 6 8q10 3 10 46q0 18 3 20t7.5 -2t3.5 -8q-2 -4 2.5 -9.5t7.5 -3.5q4 2 4 8q0 15 28 22q17 5 19 14q5 18 15 3
q4 -6 15.5 -6.5t11.5 6.5q0 4 -5.5 13t-5.5 12q0 6 8.5 10t17.5 4t14 4t5 6t-4 11q-10 20 -25 20q-7 0 -7 9q2 8 5 10q4 2 4 7q0 6 -8 6t-8 -3q0 -2 -5 -2t-6 -3q-2 -5 -6 -1t-1.5 6.5t10.5 2.5q6 0 12 6q4 4 18 6q19 2 24 7q-5 0 1 7q11 9 14 4q0 -2 -3.5 -7t-5 -8.5
t1.5 -6.5q6 -8 4 -14q-3 0 -1 -27q2 -28 -4 -28q-4 0 -4 -0.5t3 -1.5q5 -1 7 -8t-1 -12q-5 -10 -5 -40q0 -14 2 -16q3 -1 3 -13t3 -13q4 -2 1 -5q-2 -2 -2 -16q0 -15 2 -17q1 -1 2 -1q4 0 7.5 6t3.5 13q0 4 -2 8l-4 16q-3 14 -2 16.5t9 3.5h2q10 0 17.5 -7.5t6.5 -16.5
q0 -10 3 -16q4 -7 4 -20q0 -11 -3 -17q-7 -15 -30 -15h-5q-14 2 -16 -2q-2 -2 -2 -24q0 -30 1 -53q2 -76 2 -113q0 -112 -6 -141t-28 -49.5t-52 -20.5q-11 0 -23 3q-54 15 -60 83v11q0 14 5 14q3 0 9 -6t32 -6h39l65 1l1 10q2 12 -5 39q-4 16 -7 59.5t-6 55.5q-4 21 -3 29
q2 12 -3 22t-1 12q7 5 -1 27q-4 14 -15 14q-13 0 -13 -17z" />
    <glyph glyph-name="g" unicode="g" horiz-adv-x="462" 
d="M377 144q0 4 2 2t0 -4q-1 -1 -1.5 -0.5t-0.5 2.5zM210 384q0 1 1 1q2 0 2 -1q0 -2 -2 -2q-1 0 -1 2zM164 378q9 9 19 8q7 -1 9 -2.5t1 -7.5q-4 -21 -14 -27q-13 -9 -20 6q-4 8 -3 11.5t8 11.5zM225 399q-2 -2 -5 0q2 1 3 2q4 0 2 -2zM220 408q0 3 6 3t6 -1t-3 -2t-6 -1.5
t-3 1.5zM197 458q0 1 2 1q1 0 1 -1q0 -2 -1 -2q-2 0 -2 2zM167 456q8 6 17 6t9 -7q0 -1 -2 -7q-5 -9 -1 -11t4 -5q0 -4 7 -3q5 1 5 0.5t-6 -4.5q-9 -5 -7 -9q2 -5 -3.5 -10t-10.5 -3q-11 3 -3 27q2 7 -4 7q-5 0 -8 3.5t-2.5 8t5.5 7.5zM284 109q0 2 -7 2q-18 0 -38 -2
q-21 -2 -21 -3t5 -4q9 -6 26 -6q35 0 35 13zM126 271q0 5 -5 5q-4 0 -4 -5t4 -5q5 0 5 5zM102 364q2 -8 5 -8q6 0 6 16q0 7 -4 7q-11 0 -7 -15zM304 373h3q6 0 6 3t-5.5 7.5t-9.5 4.5t-4 -5q0 -8 10 -10zM117 387q0 1 -4 1q-3 0 -3 -3q1 -2 7 2zM287 400q-6 8 -11 2
q-4 -3 3 -7q4 -2 7 -1q6 1 1 6zM255 467q0 2 -2 2q-1 0 -1 -2q0 -1 1 -1q2 0 2 1zM391 147q-3 0 -7 10t-6 10q-4 0 -25 -19.5t-22 -20.5q-9 -5 -9 -12q0 -5 -6.5 -13.5t-13.5 -12.5q-6 -3 -29 -7.5t-33 -4.5q-17 0 -17 -18q0 -20 -20 -43q-12 -13 -12 -19t19 -10
q15 -4 35 -4q16 0 17 -4q0 -2 -4 -4t-30 -2q-29 0 -36 5q-6 5 -35 9q-30 3 -30 9q0 3 3 6q6 6 6 13t8 12q7 4 9.5 3t-1.5 -8q-1 -2 -1 -5q0 -6 6.5 -10t13.5 -4t10 4q4 5 -8 18t-9 16q1 1 13 9.5t23 17.5t11 11q0 4 -15 13q-11 6 -14 6.5t-6 -3.5q-4 -5 -10 -4
q-8 3 -10.5 -3t-2.5 -20q0 -11 -9 -11q-5 0 -14 3q-4 2 -10 2q-7 0 -19 -8q-17 -11 -17 -16t10 -13q14 -13 6 -16q-5 0 -19.5 13t-19.5 23q-5 13 -5 21q0 1 0.5 5t0.5 7q3 42 31 55q13 7 24 7q8 0 21 -6q16 -8 16 -15q0 -4 -8 -4q-9 0 -16 -7.5t-7 -16.5q0 -15 7 -15
q3 0 6 3.5t3 6.5q0 5 12 17q10 10 14 11.5t18 1.5q19 0 19 3t-9 3q-10 0 -17 5q-3 2 -20 12q-15 8 -30 32q-23 34 -28 58q-1 7 -8 14t-3 10q4 4 -1 4q-4 0 0 2q3 1 3 9q0 5 -2 17.5t-2 15.5q0 7 -1.5 12t-1.5 7q0 5 5 15q5 11 5 28q-1 8 3.5 16.5t5.5 12.5q2 8 13.5 24.5
t16.5 18.5q8 3 9 -2q0 -4 -6 -9q-9 -7 -9 -12q0 -8 11 -3q4 3 7 7q5 8 8 8t3 -5t-2 -11.5t-6 -10.5q-8 -8 -8 -15q0 -8 -5 -16q-9 -20 -9 -36q0 -5 1 -6q3 -2 15 2t14 3q3 -1 3 1q0 4 3 4q2 0 2 -5.5t0.5 -11.5t2.5 -7q4 -1 4.5 -12.5t-3.5 -12.5q-2 0 -2 -6q0 -21 12 -35
q7 -7 7 -12q0 -16 41 -16q19 0 36 6q22 8 29 20t8 46q1 37 7 45q7 9 7 13q0 3 -12 14t-21 15q-8 5 -26 7q-17 2 -18 7q0 3 7 3q8 0 12 2t2 8t-7 6q-4 0 -4 2q0 3 7 5q10 2 17 2q12 0 21 -4q3 -1 9.5 -3.5t8.5 -3.5q10 -4 12 -2.5t2 11.5q0 13 -6 19q-10 10 -35 10h-5
q-5 -1 -10 2t-4 6q0 2 -4 8q0 -4 -7 -4q-6 0 -6 3q0 4 -9 4h-6q-1 0 1 1l4 2q7 4 7 6q0 4 20 2q20 -1 25 -8q14 -16 31 -16q7 0 10 -5q7 -7 14 -5q2 1 1 3q-2 3 6 11t20 8q17 0 17 -13q0 -6 5 -6t5 -3t4 -3t11 -7q6 -6 6 -20v-12q-2 -35 -9 -35l-1 1h-1q-1 1 -4 0t-4.5 -3
t1.5 -5q4 -2 10 -1.5t7 -6.5q4 -7 -3 -24q-5 -13 -5 -18q0 -4 3 -15q5 -18 5 -36q0 -19 -5 -32q-3 -10 -3 -30q0 -32 6 -44q3 -6 3 -19q0 -35 -15 -68q-10 -22 -27 -42t-29 -22t-20 -7q-18 -7 -38 -7q-8 0 -8 2q0 4 9 6q67 14 99 65q19 30 19 67q0 23 -10 23z" />
    <glyph glyph-name="h" unicode="h" horiz-adv-x="469" 
d="M71 189q1 -3 65 -3q63 0 65 -5q2 -4 -2 -17q-7 -25 -26 -39.5t-42 -14.5q-30 0 -52 23q-18 18 -18 44q0 13 6 15q2 1 4 -3zM203 209q0 7 0.5 7.5t2.5 -3.5q6 -14 0 -14q-3 0 -3 10zM57 238q7 7 6 -2q-1 -2 -1 -5q-1 -3 -1 -4q0 -3 -3 -3t-3.5 6t2.5 8zM193 237q0 7 4 7
q6 -2 8 -12q2 -11 -2 -11q-10 0 -10 16zM283 295q0 7 3 7t3 -7q0 -6 -3 -6t-3 6zM283 313q0 5 3 5t3 -5t-3 -5t-3 5zM415 339q0 1 1 1q2 0 2 -1q0 -2 -2 -2q-1 0 -1 2zM415 380q0 2 1 2q2 0 2 -2q0 -1 -2 -1q-1 0 -1 1zM267 419l2 4q2 -2 0 -6l-1 -2q-1 1 -1 4zM96 421
q0 3 5 3t5 -5q0 -7 -8 -1q-2 2 -2 3zM135 437q0 4 4 -1l2 -3q0 -4 -4 1zM370 121q4 4 -0.5 4.5t-9.5 -3.5q-6 -4 -14 -2q-7 2 -8 0q0 -1 1 -2q1 -3 9 -3q16 0 22 6zM322 141q4 0 -3 6q-1 0 -1 -3t4 -3zM381 146q-3 -6 -2 -8q0 -5 4 0q3 4 2 8q-1 7 -4 0zM393 209q1 -1 3 -1
q1 2 -1 4q-1 0 -2 -1t0 -2zM362 212q-3 0 -6.5 -3.5t-5.5 -4.5t-7 4q-6 10 -10 1q-2 -7 1.5 -15t8.5 -6q3 1 3 -1q-1 -3 -5 -5q-2 0 -4 -5.5t-2 -11.5t1 -11q1 -7 -3 -7q-5 0 -5 -3q0 -1 2.5 -1.5t6.5 -1t6 -2.5q11 -6 17 0q9 9 9 45q0 28 -7 28zM321 239q0 2 -1 2
q-2 0 -2 -2t2 -2q1 0 1 2zM348 305q6 -5 9 -1t1 11q-3 7 -9 1t-1 -11zM402 335q0 2 -2 2t-2 -2q0 -1 2 -1t2 1zM395 378q0 3 -2.5 5t-4.5 0q-7 -7 2 -7q5 0 5 2zM353 380q0 3 0.5 7t1 6t-1 5.5t-4.5 7.5l-8 9v-15q0 -16 1 -19t3.5 -4.5t5 -0.5t2.5 4zM190 423q-6 -7 -2 -8
q7 -2 8 5q0 2 -1 4q-1 4 -5 -1zM66 620q-2 -3 -1 -5q0 -3 6 1q4 3 0 5t-5 -1zM165 634q2 -2 4 0t-2 2t-2 -2zM147 659q3 -1 3 1q0 6 -5 8q-3 1 -3 -1q0 -6 5 -8zM103 660q0 -2 4 3q3 3 2 4t-2.5 0.5t-2.5 -3t-1 -4.5zM57 245q0 9 -3 114.5t-3 133.5v19q0 2 -1 14t-1 18
q0 11 3 14t1 12q-1 4 2 13.5t0 11.5q-4 4 -0.5 10.5t0.5 10.5q-3 5 0.5 11t9.5 6q12 0 12 15q0 14 17 28.5t37 14.5q13 0 23 -7q22 -15 24 -31q2 -13 14 -3q2 2 3 1t1 -5q0 -16 -13 -16q-16 0 -16 -12q0 -8 9 -17q14 -14 18 -38q3 -22 8 -24q3 -1 10 -1q14 0 25 1q10 1 24 1
q17 0 35 -7q64 -23 92 -78l7 -15q-14 -12 -11 -21q2 -8 6 -8q15 0 17 -69q3 -98 6 -126q1 -9 -5 -17q-10 -11 -10 0q0 6 -2 6q-3 1 -6 -12q-1 -8 0.5 -11.5t6.5 -6.5t7 -5q3 0 4 4q0 9 3 -3q4 -15 -8 -21q-6 -4 -6 -17q0 -15 -14 -25t-29 -10q-10 0 -17 5t-16 19t-9 19
q0 7 -7 12q-11 10 0 10q5 0 6 13q0 6 1.5 14.5t1.5 13.5q0 4 -2 14q-3 15 0 18q3 4 1 8.5t-7 6.5q-4 1 -4 10q0 8 -2 8q-4 1 -6 -15q-2 -14 -2 -66q0 -10 3 -10q4 -1 6 -5q4 -6 -1 -6q-4 0 -4 3t-4 1h-1q-3 0 -6.5 8.5t-3.5 15.5q0 1 1 3v2q2 8 2 42q0 35 4 35h2q13 0 17 39
q3 27 3 40q0 15 -4 22q-4 10 -4 13q0 5 -5 1q-5 -1 -5 6q0 23 -19 33q-11 6 -23 6q-22 0 -22 -12q0 -3 -10 -9q-9 -4 -9 -12q0 -5 -2 -27q-5 -53 -5 -110q-1 -6 -3 -6q-3 1 -3 12q0 9 -3 11q-4 2 -2 20q1 4 1 11q0 14 -8 14q-4 0 -12 -5q-15 -9 -35 -9q-24 0 -42 13
q-14 11 -5 11q3 -1 7 -2q11 -3 20 -3q25 0 57 29q12 11 12 24q0 21 -15 21q-8 0 -9 4t5 8q25 21 29 34q2 10 2 25q0 37 -5 42q-4 4 -10 1t-9 -10t-6 -7q-14 1 -24 -9q-6 -5 -18 -12q-9 -5 -17 -16.5t-8 -18.5q0 -10 -5 -13q-7 -4 -13.5 -26t-7.5 -42q0 -19 -2.5 -32.5
t-3.5 -34.5q-3 -57 -9 -57q-3 0 -3 1z" />
    <glyph glyph-name="i" unicode="i" horiz-adv-x="270" 
d="M82 493q12 12 20 7q1 0 1 -2q0 -3 13 -3q17 0 33 -26q8 -12 15 -13t7 -12v-16v-12q0 -20 4 -29q8 -20 13 -132q0 -8 3 -23t3 -22t-1 -10q-3 -6 -1 -24q1 -18 -5 -26q-8 -9 -9 -8t-1 2q0 3 2.5 13.5t2.5 15.5q0 6 -2 7q-4 3 -8.5 -1t-4.5 -11q0 -8 -10.5 -19t-18.5 -11
q-6 0 -12.5 -5t-6.5 -9q0 -3 5 -3t20 5t19 5t4 -3q0 -8 -29 -14q-11 -2 -19 6q-6 6 -6.5 10t1.5 17q1 6 1 16q0 22 -13 22h-3h-3q-22 0 -34 14q-10 11 -10 67q0 5 0.5 19.5t0.5 23.5q2 73 5 80q3 6 3 34v13q0 15 6 21q7 9 7 18q0 10 8 18zM138 635q13 7 27 7q19 0 33.5 -13
t16.5 -34q1 -17 -4 -17t-12 7q-6 6 -21 4q-17 -2 -18 -3q-3 -3 0 -11.5t9 -15.5q11 -12 15 -31q2 -11 -1 -14.5t-14 -1.5q-77 12 -104 23q-15 6 -15 15q0 4 3 10q5 8 5 16q0 7 9 23t21 17q12 2 12 6t12 4t26 9z" />
    <glyph glyph-name="j" unicode="j" horiz-adv-x="421" 
d="M267 -61q4 2 9 2q4 0 1 -2q-1 -1 -1.5 -1t-1.5 -1q-7 -5 -9 -5q-5 0 -1 5q1 1 3 2zM202 -33q20 10 26 6q18 -14 30 -14h1q4 2 4 10q0 5 1.5 6t7.5 -1q9 -4 9 -8q0 -5 -11.5 -10t-26.5 -5t-18 -4q-10 -8 -17 -6q0 2 -12 2q-21 0 -46 -5q-14 -2 -18 -2q-14 0 -22 9
q-5 6 0 6q3 0 13 -3q7 -2 13 -2t9.5 1.5t3.5 4.5t4.5 6t10 3.5t10.5 -1.5q7 -3 28 7zM82 44q14 10 14 0q0 -2 2 -2t6 1t5 1q0 -3 -9 -13q-13 -15 -15 -16q-3 -2 -5 -28l-1 -25l13 -15q13 -15 25 -19q11 -4 11 -8t-5 -4q-9 0 -25.5 9t-24.5 20q-15 20 -15 48q0 6 1 9
q2 11 9.5 24.5t13.5 17.5zM304 223l-4 1q-3 0 -3 -1l6 -1zM249 271l-4 1q-3 0 -3 -1l6 -1zM273 265l-4 17v-5q0 -3 -3.5 -13t0.5 -12q9 -10 8 6q-1 3 -1 7zM269 287q0 2 -1 2q-2 0 -2 -2q0 -1 2 -1q1 0 1 1zM319 284q-5 11 -16 2q-5 -4 -3 -7q2 -4 -3 -12t-1 -16q7 -13 13 5
q2 4 2 7q0 7 3 5q2 -1 3.5 2t2 7t-0.5 7zM331 385q-2 0 -8 11.5t-8 11.5q-4 0 -4 3q0 4 4 2q2 0 2.5 0.5t1.5 4t1 7.5l2 12v5q0 14 -10 14t-22 -12q-15 -16 -20 -7q-1 2 -1 5q0 6 -4 10t-18 4q-16 0 -18 -5q-1 -2 -1 -6q0 -6 3 -19t3 -18q0 -14 3 -20q3 -7 1 -10
q-3 -3 -1 -28q2 -18 3 -21t8 -4q8 -1 8 -8q0 -6 -4 -6q-5 0 -5 -15l2 -10v1q2 8 5 10q1 -1 2 -3q0 -9 5 -3q2 2 4 7q2 6 2 16t-1 15q0 3 -0.5 7t-0.5 6q0 27 8 32q3 2 3 11q0 12 6 14q4 1 7 -6q2 -6 2 -8q0 -3 -2 -8t-2 -8q0 -1 2 -7q2 -5 3.5 -7t3.5 -1.5t5 3t8 7.5
q11 11 18 13q9 3 6 7q0 1 -2 1zM237 615q16 29 40 29h5q18 -3 27 -4q27 -5 27 -23q0 -7 -4 -12q-10 -13 3 -16q6 -2 17 -13.5t11 -16.5q0 -6 3 -15q3 -7 2 -11t-11 -14q-14 -15 -14 -28q0 -16 -3 -19q-3 -4 1 -11q4 -8 4 -48q1 -54 9 -63q6 -8 6 -44q0 -3 -0.5 -8.5
t-0.5 -7.5q0 -9 2.5 -50t2.5 -57v-10q-1 -7 -1 -18q0 -13 3 -21q5 -13 5 -30q0 -33 -11 -44q-5 -6 2 -9q6 -3 6.5 -7.5t-4.5 -6.5q-6 -1 -4 -11q1 -9 -7 -15q-10 -8 -10 -11q0 -4 -7.5 -4.5t-9.5 3.5t-9 4t-8 6q-3 10 -25 9q-6 -1 -7.5 1t-3.5 8q0 4 -0.5 5.5t-3 2.5t-4 1.5
t-7.5 0.5q-14 2 -18 6q-6 6 -6 3t-5 4q-5 6 -8 -2q-2 -4 -2 -5l-1 7q0 9 -5 11q-19 6 -19 153v31q3 191 6 194q2 2 2 7q0 4 7 13q8 10 11 21q7 24 39 41q7 4 8.5 7t0.5 19q-1 26 -7 26q-2 0 -6 -2q-20 -10 -23 -25q-2 -10 -5 -10t-14 -7q-7 -6 -12 -6q-4 0 -4 12v9
q2 20 5 23t1 8q-3 9 13 16q10 5 21 24z" />
    <glyph glyph-name="k" unicode="k" horiz-adv-x="502" 
d="M405 238q0 3 2 3q7 0 21 -18q19 -25 19 -47q0 -14 -8 -30q-19 -37 -63 -37q-7 0 -25 2q-28 5 -44 21q-21 19 -5 24q6 2 54.5 40.5t48.5 41.5zM389 253q-9 9 -2 12q5 2 11 -7q5 -8 0 -9q-4 -1 -9 4zM125 460q-1 -1 -3 -1q-3 1 -2 2l2 1q2 -1 3 -2zM126 514q0 3 1 3
q1 -2 2 -6q-3 0 -3 3zM136 514v4l1 -7v-1q-1 1 -1 4zM171 165q0 2 -2 2t-2 -2t2 -2t2 2zM173 186q-2 -3 0 -5q3 -3 6 3q1 2 -2 3t-4 -1zM79 303q-8 3 -10 -1q-1 -1 -1 -3q0 -8 10 -20.5t17 -12.5q2 0 2 3q0 7 -6.5 20t-11.5 14zM100 329q0 4 -2.5 5t-5.5 -2q-2 -2 0 -5t5 -3
t3 5zM245 400q0 4 -3 4q-15 0 -21 -6q-11 -11 -1 -15h1q5 0 14.5 6.5t9.5 10.5zM180 403q0 4 -5 4q-4 0 -4 -4t4 -4q5 0 5 4zM87 399q-2 8 -6 11t-7 0t-3 -11q0 -7 -3 -9t-3 -6q0 -6 4.5 -11.5t9.5 -5.5q3 0 4 1q7 5 7 16q0 6 -3 15zM257 414q1 4 -1 4q-4 -1 -6 -6
q-1 -4 0 -4q3 0 7 6zM180 424q0 -3 4 -3q7 0 18 6.5t11 12.5q0 4 -5 4q-8 0 -18 -7t-10 -13zM90 443q0 7 -3 8t-3 -1q0 -3 -10 -1q-7 1 -8.5 0t-1.5 -8q0 -11 5 -14.5t13 3.5q8 6 8 13zM357 474q0 5 -5 5q-13 0 -30 -19q-7 -7 -7 -11q0 -2 1.5 -1t3 2.5t3.5 -0.5q1 -2 5 -2
q8 0 18.5 9t10.5 17zM269 472q-2 0 -16 -10.5t-15 -10.5q0 -1 8 -9l9 -9l9 8q64 51 64 65v1q-1 1 -1 2q-2 5 -6 5q-18 -3 -23 -12q-3 -7 -14 -18.5t-15 -11.5zM330 536q8 6 16 6q10 0 25 -9q20 -11 20 -31q0 -8 -2 -12q-4 -12 -8 -15t-3 -16l2 -12l-30 -23q-48 -36 -48 -50
q0 -3 19 -26q20 -24 29 -36q13 -17 18 -21q6 -6 4 -9q-3 -4 -10 3q-20 19 -43 45q-18 20 -22 20q-5 0 -10 6t-9 6t-18 -12q-13 -13 -15 -13q-4 0 -7 -5q-2 -2 -2 -4t1.5 -4t3 -3.5t4.5 -3.5t4 -3l-8 -7q-29 -22 -29 -31q0 -6 12 -20.5t13 -17.5q2 -7 16 -23q30 -33 30 -43
q0 -2 -1 -2q-5 0 -5 4q0 5 -11 12q-12 8 -20 19q-29 39 -41 39q-7 0 -11 -4.5t-1 -9.5q4 -6 -2 -12q-5 -5 -2 -10q3 -3 3 -16q0 -24 -10 -24h-2q-4 1 -6 -1q-1 -3 5 -6t0 -22q-2 -2 -7 0t-11 6t-6 7q0 5 -5.5 8.5t-7.5 0.5q-1 -2 -11.5 -7t-11.5 -6t-2 1t-1 5q0 20 -16 10
q-8 -5 -19 0q-8 4 -10 10t3 10q9 5 -8 24q-15 16 -15 52q0 4 0.5 13t0.5 15q1 48 9 64q9 17 6 17q-1 0 -2 -1t-4 1.5t-5 7.5q-6 10 -2 27q3 14 0 21q-4 8 -4 35q0 15 2 15t0 18q-3 27 8 27q3 0 2 -17q-2 -16 2 -23q3 -3 4 -2q0 2 3 2t3 2q0 3 7 1q5 -2 5.5 -0.5t-0.5 9.5
q-2 13 1 19q3 -5 3 -9q0 -17 5 -22q2 -2 3.5 -9t1 -12.5t-2.5 -5.5q-4 0 -4 -5t4 -6q2 -1 5.5 -26t4.5 -26q0 -1 1 -1q4 0 14.5 10t14.5 18q3 6 3 19q0 12 -3 20q-3 7 1 14.5t10 6.5q4 -1 5.5 1t1.5 10q0 10 3 19.5t7 9.5q1 -2 1 -6t-1 -11.5t-1 -9.5q0 -8 -3 -12.5t-3 -7.5
q0 -2 3 -11q4 -11 6.5 -12.5t12.5 -1.5q14 0 26 12q25 25 89 77q4 4 9 4q3 0 8.5 -3t8.5 -3q5 0 9 4zM55 563q0 5 6 5q7 0 7 -6t-4 -6q-3 0 -3 3q0 2 -3 1.5t-3 2.5zM100 642q0 3 10 3q6 0 7 -0.5t-3 -2.5q-14 -6 -14 0zM79 645l10 7v-5q0 -1 -1 -10v-8q0 -9 12 -21
q13 -13 21 -13t14 12l6 13l-9 8q-13 11 -6 11h5q9 -1 15 -12q9 -11 19 -16q11 -5 11 -8q0 -1 -4.5 -7t-4.5 -12q0 -9 -5 -12q-6 -4 -2 -4q2 0 3.5 -2t0.5 -4.5t-3 -2.5q-8 0 -1 -10l4 -4q10 -8 2 -20q-3 -4 -5 -4q-5 0 -6 26q-1 35 -7 35h-3q-6 -2 -11.5 -9.5t-4.5 -14.5
q1 -6 -3 -17t-7 -11t-5 9q-3 12 -16 32q-7 12 -22 15q-1 0 -2 1t-2 3q-4 6 -7 2t-5 3q-4 19 4 19q3 0 5 12t10 19zM97 652q0 3 8 3q5 0 6 -2q1 -1 -3 -3q-2 -1 -5 -1q-6 0 -6 3z" />
    <glyph glyph-name="l" unicode="l" horiz-adv-x="257" 
d="M64 155q0 2 2 2t2 -2q0 -1 -2 -1t-2 1zM161 176q0 5 -2 6q-1 1 -2 -2t1 -7q3 -6 3 3zM116 214q0 4 -3 4q-4 0 -4 -9q0 -5 1 -6t3 2q3 5 3 9zM101 581q0 4 -3.5 5.5t-5.5 -0.5q-8 -8 2 -9q7 -1 7 4zM106 646q3 1 9 1q9 0 15.5 -4t6.5 -10q0 -1 -1 -3q-2 -6 -13 -15
l-11 -10l8 -9q9 -9 9 -13q0 -5 6 -8t14 -1q7 1 26 -12q17 -14 21 -27q3 -12 8 -21q3 -6 3 -93t-3 -132q0 -8 -3 -84l-2 -54q-16 -1 -18 -7q-1 -3 -1 -8q-2 -15 -4 -17q-4 -6 -20.5 -13t-26.5 -7q-13 0 -22.5 9t-9.5 21q0 21 -16 22q-8 1 -8 8v38q1 29 7 35t2 8q-1 0 -7 11.5
t-7 11.5t-3 30q0 28 -2 44q-5 57 -5 114q0 35 -3 42q-4 9 -4 33q0 30 6 42q4 6 4 18q0 15 8 29q11 24 37 31z" />
    <glyph glyph-name="m" unicode="m" horiz-adv-x="622" 
d="M61 219q0 5 5 5t5 -6q0 -14 10.5 -17t66.5 -4q52 -2 58 -9q3 -4 3 -14q0 -2 -0.5 -6.5t-0.5 -7.5q-2 -18 -7 -27t-19 -17q-11 -7 -28 -7q-12 0 -12 5q0 4 -16 4q-21 0 -37.5 15t-23.5 40q-4 14 0 23q5 6 0.5 13t-4.5 10zM469 253q0 2 1 4l1 6l1 -3q2 -8 6 -10q3 -2 3 -22
q0 -19 3 -22t2.5 -8.5t-4.5 -6.5t-25 4q-15 4 -18 6.5t-5 11.5q-4 12 0 16q2 3 1 9t-1 12.5t4 6.5t3 -17q-1 -6 7 -11q11 -6 19 2q2 1 1 3q-2 4 1 19zM436 270q3 8 7 6q3 -3 2 -7q-2 -8 -3 -9t-4 2q-4 4 -2 8zM499 306l2 4q2 -2 0 -6l-1 -2q-1 1 -1 4zM284 301q0 17 8 6
q6 -10 1 -12q-4 0 -4 4l-1 -1q-4 -8 -4 3zM457 324q0 4 2 2t0 -4q-1 -1 -1.5 -0.5t-0.5 2.5zM489 363q0 3 3 3q4 0 4 -3q0 -4 -4 -4q-3 0 -3 4zM152 388l2 3q2 -3 0 -5q-1 -1 -1.5 -0.5t-0.5 2.5zM434 424q0 3 2 3q1 -2 2 -6q-4 0 -4 3zM434 434q-1 -1 -3 -1q-2 2 0 4
q1 0 2.5 -1t0.5 -2zM416 434q-3 -2 -8 0q1 2 4 2l5 -1zM402 537l-2 1q1 1 4 1l4 -1q-3 -3 -6 -1zM545 397q-3 9 -10 -2q-9 -15 -1 -17q1 -1 3 0q5 2 7.5 8t0.5 11zM312 425q0 6 -8 -2q-5 -4 -1 -7q3 -2 6 1t3 8zM74 427q0 3 -3 3t-3 -3t3 -3t3 3zM364 453q0 3 -2 3
q-4 0 -12.5 -11t-8.5 -17q0 -4 5 -4q4 0 11 12t7 17zM424 498q-5 -2 -13 2t-10 4q-3 0 -13 -2q-6 -1 -8 -2t-1 -5q3 -7 20 -5q20 2 26 -4q12 -10 18 5q1 4 -6 6.5t-13 0.5zM367 498q4 0 5 1q4 3 -3 7q-8 4 -8 -3q0 -5 6 -5zM382 524q3 -2 8 0q-1 2 -4 2l-5 -1zM467 530
q0 3 -4 3q-3 0 -3 -3t3 -3q4 0 4 3zM317 253q1 0 20 -19t21 -19q1 0 1 8q0 18 -1 31q-2 46 -2 48q0 5 0.5 12.5t0.5 10.5q0 5 -2 20.5t-2 22.5v6q3 9 0 21q-4 13 -11 13q-14 0 -21 -38q-3 -21 -8 -23h-1q-3 0 -3 10q0 6 1.5 20t1.5 18q0 3 -1 4q-4 4 -12 -0.5t-10 -10.5
q-1 -4 -3 -6t-4 -1h-2q-5 0 -9 -11t-4 -23q0 -10 3 -16t0 -8q-4 -2 -3 -9.5t5 -11.5q6 -6 3 -10q-3 -9 -3 -32q0 -27 -4 -28q-2 -1 -3 1.5t-1 7.5q0 11 -5 16q-8 10 -8 54q0 5 0.5 17t0.5 19q0 4 0.5 11t0.5 9q0 14 -5 27q-6 16 -17 16q-5 0 -7 -2q-4 -4 -9.5 -21.5
t-4.5 -26.5v-51q-1 -43 -5 -43t-6 17t-4 38.5t-7 28.5q-5 9 -3 16q1 3 1 9q0 19 -10 22q-4 1 -8 1q-3 0 -8 15t-5 25q0 24 -12 9q-7 -8 -22 -7q-5 0 -4 8t-1 10l-6 -14v-2l-3 -11v5q0 6 -1.5 7.5t-4 2t-4.5 3.5q-3 4 -4 4q-4 0 -7 -42q-1 -17 -8 -20t-7 -13q0 -68 -6 -119
q-2 -20 -6 -21q-2 -1 -3.5 0.5t-0.5 5.5q0 4 -1.5 12t-1.5 11q0 5 3 10q3 4 0 11.5t0 11.5t-1 12.5t-2 12.5q2 5 -0.5 15t1.5 13q10 10 1 19q-4 4 3 10q5 6 0 14q-4 6 -1 14.5t0 13.5t-0.5 12t7.5 7t13 8q7 8 2 8q-8 0 -14 -3q-5 -3 -5 -1l1 6q2 10 2 22q0 18 1 24
q1 10 12.5 23t22.5 18q8 3 16.5 4t9.5 -2q0 -4 -24 -28q-27 -27 -27 -35q0 -4 4 -7q6 -4 9 -4q9 0 36 26q28 26 43 33.5t47 11.5q21 3 36 3q31 0 64 -20q13 -7 17 -7q3 0 8 4t13 6q2 1 5 2l6 2q3 1 4 1h4l-1 -3q-2 -5 3 -5q3 0 10 1q16 2 26 2t13 7q3 5 9 4t9 -5q2 -4 9 0
q2 1 7 1q24 0 34 -10q6 -6 18 -13q11 -7 28.5 -36.5t17.5 -40.5t3 -15q5 -8 5 -20q0 -13 -4.5 -25t-10.5 -12h-2q-4 1 -6 -3t-1.5 -9.5t3.5 -7.5q6 -5 8.5 -4t4.5 8q2 9 4 2q0 -3 1 -7q2 -25 -4 -24q-3 1 -3 -2t-3 -3t-3 5q0 4 -7 4q-6 0 -6.5 -8t4.5 -14q5 -5 1 -19
q-2 -8 -2 -11q0 -5 5 -20q6 -20 6 -30t2.5 -15.5t6.5 -3.5t4 62q0 18 -1 22q-2 5 -7 5q-3 0 -4.5 4.5t0.5 9t5 5.5h2q9 0 12 -18.5t5 -77.5q1 -13 0 -15.5t-7 -2.5q-22 -2 -30 -17q-12 -23 -32 -23q-10 0 -18 8q-7 8 -6 10t10 -2q7 -3 13 -3q8 0 17 7q7 4 3.5 11.5
t-0.5 12.5q2 6 2 16q0 5 -0.5 13.5t-1 24t-0.5 29.5q-2 46 -8 46q-1 0 -4 -3q-2 -4 -6 0q-2 2 -2 4.5t1.5 3.5t4.5 0h2q9 0 9 30q0 8 -1 12q-4 22 -5 23q-2 2 -5.5 -1t-3.5 -7q0 -7 -4 -9q-2 -1 -4 2q-2 4 -6 4t-3 -28q0 -27 -2 -27q-5 0 -5 13t-1 13q-4 0 -4 -9l-1 -7
q0 1 -2 5q-3 8 -8 6q-4 -2 -4 4q-1 3 -1 12q0 27 -4 27q-3 0 -3 -14l-1 -13q-1 7 -2 21q-2 26 0 30q2 2 1 4.5t-2 4.5l-2 1q0 -2 -3 1q-3 5 -24 5q-18 0 -25 -4q-20 -10 -12 -23q3 -6 1 -10q-3 -6 -3 -96q0 -91 -2 -101q-6 -36 -20 -50q-7 -7 -12.5 -8.5t-23.5 -1.5
q-33 0 -46 11t-13 39q0 22 5 22q1 0 5 -2q1 -1 4 -1q7 0 22 18q17 19 20 19z" />
    <glyph glyph-name="n" unicode="n" horiz-adv-x="450" 
d="M274 175q0 1 -2 1q-1 0 -1 -1q0 -2 1 -2q2 0 2 2zM355 216q-1 5 -5.5 5t-7.5 -5q-3 -7 -6.5 -3.5t-6 3t-2.5 -12.5q0 -3 -2 -12t-2 -13t2 -6q4 -4 3.5 -9.5t-4.5 -5.5q-7 0 -7 -4t6.5 -9.5t11.5 -5.5q9 0 19 12q4 5 1 6q-4 2 -4 6q0 5 -7 5q-6 0 0 1q1 1 4 1q10 3 10 8
q0 1 -1 7t-1 11t-0.5 12.5t-0.5 8.5zM342 329q1 -8 5 -5q7 6 2 9l-3 1q-6 0 -4 -5zM344 362q-1 12 -6 13q-4 1 -5 -1t-1 -7q0 -17 10 -17q4 0 2 12zM128 420q-11 10 -18 3l-14 -14q-7 -5 -7.5 -13t-3.5 -14q-11 -13 -12 -64q-1 -9 -3 -86q-1 -15 -1 -34q0 -24 3 -24
q7 0 31 26l28 28l28 -28q24 -25 30 -25h1q1 1 4.5 55t3.5 55q1 3 -1 4q-2 0 -6 35q-3 38 -6 49.5t-11 11.5q-5 0 -17 -5q-5 -1 -5 3q0 5 4 5t3 14q-1 13 -4 16t-11 -1q-7 -4 -16 3zM185 500q18 10 46 10q1 0 3 -0.5t3 -0.5q4 -1 30 -5q33 -5 64 -25.5t43 -46.5q8 -14 17 -57
q6 -33 6 -39t-3 -15q-6 -13 -1 -16t5 -48q0 -44 -5 -49q-3 -2 -5.5 -1t-4 3t-2.5 0.5t-2 -8.5q-1 -8 7 -9q7 -2 7 2q0 3 3 2q4 -2 2.5 -14.5t-5.5 -13.5q-8 -4 -11 1v3q1 1 -0.5 2t-3.5 1q-4 0 -3 -3q2 -4 -5 -19q-7 -16 -16 -19q-2 -1 -4.5 -1.5t-4 -0.5t-1.5 1l-3 -5
q-3 -8 -13 -8q-13 0 -20 10q-7 8 -7 22v17q3 41 3 44q2 10 1 12.5t-7 3.5q-9 2 -9 1q-4 -4 -4 -42q0 -16 3 -16q5 0 5 -4q0 -2 -2 -2l-4 1q-2 1 -3 -1q-2 -4 -10 0q-13 7 -3 22q6 9 3 21q-2 5 -2 26q0 34 4 42q5 8 12 6q2 -1 2 -3q0 -5 -3 -5q-4 0 -4.5 -8.5t2.5 -14.5
q4 -6 9 -1q6 6 6 1q0 -2 1 1q1 1 2 4q5 18 -2 19q-1 1 -2 0h-1q-1 0 -1 2q0 3 6 29q3 15 -4 29q-8 15 -10 9l-1 12v2q1 20 -3 24t-6 1q-5 -8 -14 0q-6 6 -2 10q1 2 -7 8q-5 3 -7 3q-4 0 -20 -15q-18 -15 -23 -27q-2 -6 -2 -23q0 -4 0.5 -13t0.5 -14q1 -22 1 -106
q0 -66 -7 -80q-15 -29 -52 -36l-20 -3l-33 16q-26 13 -35 22t-9 22q0 1 0.5 5t0.5 5q1 10 3 112q2 166 14 174q4 2 14 -3q16 -8 22 2q7 12 32 31.5t34 19.5q5 0 15 5z" />
    <glyph glyph-name="o" unicode="o" horiz-adv-x="468" 
d="M379 207q0 11 -9 0q-8 -9 -4 -11q4 -1 8.5 3t4.5 8zM360 273q0 3 -1 3q-2 0 -4 -4q-1 -3 1 -3q4 0 4 4zM360 377q0 2 -2 2q-1 0 -1 -2q0 -1 1 -1q2 0 2 1zM285 390q-3 12 -18 12q-12 0 -32 -9q-16 -8 -21.5 -20t-6.5 -42q0 -30 -4 -34q-3 -3 -3 -10q0 -9 6 -20t15 -15
q13 -6 27 -6q10 0 16 3q7 4 17 4q7 0 15 12.5t11 27.5q4 9 5 9l1 -1v5q0 4 -1 19.5t-1 23.5q0 2 0.5 5.5t0.5 4.5q2 5 -5 5h-1q-10 0 -21 26zM228 520q24 2 27 2q12 0 33 -7q35 -12 61 -35q10 -10 29 -38t19 -33q0 -10 6 -19q9 -18 10 -43q2 -31 3 -36q2 -9 -2 -13
q-8 -8 -8 -36q0 -8 2 -12q3 -6 1 -6q-3 0 -7 -13q-4 -14 -15 -31t-19 -21q-9 -5 -12 -10t-17 -12t-21 -7q-6 0 -9 -6q-9 -16 -37 -16q-14 0 -24 -4q-8 -3 -22 -3q-38 0 -56 10q-5 2 -13.5 4.5t-15.5 5.5t-13 7q-33 27 -52 65q-23 44 -23 95q0 19 4 30q4 13 3 14t2 10
q6 14 8 26q5 17 23.5 48t33.5 45q17 16 48 26q44 12 53 13z" />
    <glyph glyph-name="p" unicode="p" horiz-adv-x="443" 
d="M385 265q0 1 2 1q1 0 1 -1q0 -2 -1 -2q-2 0 -2 2zM131 480q0 2 2 2q1 0 1 -2t-1 -2q-2 0 -2 2zM96 474q1 4 7.5 7.5t10.5 3.5v-1q-2 -3 -9 -8q-9 -6 -9 -4v2zM118 486q0 2 2 2q1 0 1 -2q0 -1 -1 -1q-2 0 -2 1zM172 149q-7 5 -9 5q-4 0 -4.5 -3.5t2.5 -5.5q5 -3 14 -1
q2 0 -3 5zM134 163q0 4 -3 4q-6 0 -1 -6q2 -1 3 -1t1 3zM276 384q-6 12 -23 17q-12 3 -24 3q-17 0 -28.5 -6t-11.5 -16t-3 -11t-3 -18q0 -53 12 -69q3 -4 21 -4q19 0 44 -6h3q7 0 14.5 8t7.5 15t4 17q1 2 1 10q0 36 -14 60zM91 423q1 3 1 4.5t-1.5 2t-5.5 0.5q-8 0 -10 -2.5
t-2 -10.5q0 -19 8 -19q5 0 6 9zM298 436q-10 10 -14 4q-2 -3 4.5 -8t11.5 -4t0 6zM349 435q6 -6 6 -2q2 9 -6 12q-2 1 -3 1q-8 0 3 -11zM269 445q0 5 -3 5t-3 -5t3 -5t3 5zM324 458q1 1 1 3q0 4 -4.5 7.5t-7.5 3.5q-2 0 -2 -2t5 -10q4 -6 8 -2zM269 488q0 3 -3 3t-3 -3t3 -3
t3 3zM253 501q0 -2 14.5 -7t14.5 -7q0 -1 1 -1h4q2 0 3 -1q1 -3 13 -1q1 0 3 0.5t3 0.5q9 0 31 -18q24 -18 24 -32q0 -4 -1 -5t-1 -6q0 -14 11 -29q4 -6 4 -26q0 -19 4 -27q4 -6 1 -12q-7 -12 5 -24q6 -6 2 -12q-7 -15 -13 -55q-6 -33 -34 -60q-12 -11 -40 -28.5t-35 -17.5
h-1q-3 2 -16 -4q-14 -6 -28 -3t-20 3t-7.5 -4t-1.5 -17v-7q0 -32 -5 -57q-6 -30 -6 -40q-2 -13 -5 -19q-4 -8 -4 -13q0 -10 -6 -10q-8 0 -17 12q-6 6 -14 3q-10 -4 -13 -3t-6 7q-2 5 -5.5 6t-10.5 -0.5t-10 -1.5q-8 0 -8.5 2t-0.5 14q0 7 -3 12.5t-7 11t-6 9.5q-4 9 -4 120
q0 82 3 83q4 2 2 8q-2 8 -2 39q0 33 -7 46q-10 20 -4 20q2 0 5 -1q5 -2 6.5 -1t1.5 8q0 10 -5 10q-4 0 -4.5 9t3.5 12q2 1 2 8t-2 23t-2 17q-1 10 1 11.5t12 3.5q11 2 13 6q1 3 5 3t9.5 -5.5t5.5 -9.5t4 -4t2 10q-1 11 8 12q10 2 14 9q5 8 13 6t9 1q4 6 18 13t25 9l16 2
q1 1 14 1q25 0 25 -2z" />
    <glyph glyph-name="q" unicode="q" horiz-adv-x="471" 
d="M409 -60q0 1 1 1q2 0 2 -1q0 -2 -2 -2q-1 0 -1 2zM409 -52q0 4 2 2t0 -4q-1 -1 -1.5 -0.5t-0.5 2.5zM415 -49q0 4 2 2t0 -4q-1 -1 -1.5 0t-0.5 2zM338 -39q0 3 5 3t5 -8t-3 -8q-7 0 -7 13zM345 29q7 15 9 15q13 0 13 -51v-12q0 -13 8 -15q8 -3 9 -15q1 -18 -11 -18
q-5 0 -6 3.5t3 7.5q4 5 0.5 11.5t-11.5 10.5q-13 6 -19 35q-3 13 5 28zM345 46l1 4q2 -3 1 -6l-1 -2q-1 1 -1 4zM401 61q-1 -4 -1 -9q0 -8 2 -8q3 0 3 10v7l-1 14zM272 386q-18 9 -35 9q-11 0 -26 -3q-22 -4 -44 -26q-16 -15 -21 -25t-11 -39q-4 -21 -4 -44q0 -60 30 -99
q16 -18 40 -18q13 0 20 -3q2 -1 7 -1q28 0 56 19q12 7 19 30q5 20 5 31v15q0 57 9 77q2 4 5.5 5t5.5 1t1.5 2.5t-4.5 10.5q-22 43 -53 58zM387 363q3 5 3 8q0 9 -11.5 17.5t-21.5 8.5q-1 0 -3 -1h-1q-5 -1 -5.5 -4.5t4.5 -4.5q3 -1 0 -1q-4 0 -4 -12q0 -11 -8 -15
q-9 -4 -9 -10t16 -4q31 5 40 18zM227 482q6 0 13 1t11.5 1.5t5.5 0.5h1q18 0 75 -33q24 -14 37 -29q12 -17 20 -19q6 -1 8.5 -14.5t4.5 -15.5q3 -3 3 -23v-8q0 -13 -11 -29l-12 -20q0 -3 10 -13q10 -9 10 -22q0 -4 -4 -22q-4 -13 2 -23q8 -16 8 -64q0 -23 -3 -26
q-4 -4 -4 -9t4 -7t4 -17t5 -18t5 -50v-48h-8q-5 0 -6.5 -2t-2.5 -10q-2 -12 -4 -12t-5 21t-3 31q0 23 -1 29q-10 86 -14 86q-3 0 -3 -7q0 -6 -5.5 -13.5t-5.5 -12.5q0 -13 -1 -15t-13 6q-11 9 -21 4q-36 -15 -50 -18t-44 -3h-38l-28 14q-28 13 -31 13q-4 0 -25 23t-21 27
q0 6 -6 10q-18 16 -23 43q-10 51 -10 93q0 24 3 49q6 50 50 94q30 31 54 42t69 15z" />
    <glyph glyph-name="r" unicode="r" horiz-adv-x="362" 
d="M244 380q0 2 2 2q1 0 1 -2q0 -1 -1 -1q-2 0 -2 1zM138 306q0 2 -1 2q-2 0 -2 -2q0 -1 2 -1q1 0 1 1zM144 304q5 -5 5 3q0 6 -3 6q-1 1 -3 -2q-2 -4 1 -7zM170 328q-9 6 -9 -5q0 -3 -4 -10q-2 -6 -2 -7q2 -1 9 3t9 10t-3 9zM135 318q-4 0 -17.5 14t-19.5 14q-4 0 -7 -5
q-2 -5 2.5 -12.5t12.5 -10.5q13 -5 25 -5q7 0 7 2q0 3 -3 3zM141 416q0 7 -4 3l-3 -4q-3 -10 6 -10q4 0 6 -4q1 1 1 3q0 7 -2 7q-4 0 -4 5zM227 466q12 12 11 13q-2 2 -13.5 -1t-15.5 -7q-5 -5 -9 -5q-7 0 -24.5 -10.5t-17.5 -14.5q0 -1 2 -1q3 0 9.5 -0.5t9.5 -0.5
q9 0 14 5q7 9 14 9t20 13zM192 491q32 7 40 7h3h4q4 0 11 1t10 1q4 0 6 -1q7 -4 18.5 -20.5t13.5 -23.5t6 -12q5 -3 5 -9q0 -5 -21.5 -25.5t-26.5 -20.5t-10 12q-9 22 -25 22q-1 0 -3 -0.5t-3 -0.5l-14 -5q-2 -2 2 -7.5t10 -8.5q7 -4 7 -6t5 -2t5 -5t3 -5q4 0 4 -3
q0 -5 -11.5 -21t-11.5 -17q0 -4 -5 -12q-5 -12 -5 -82q0 -37 1 -54q2 -23 -3 -25q-3 -2 -3 -14q0 -10 -5.5 -20.5t-10.5 -10.5h-1q-26 8 -39 8q-1 0 -4 -1h-2h-3q-4 0 -12.5 3.5t-12.5 3.5q-2 0 -6 -2q-8 -4 -16 -1t-10 10t-12 15q-13 12 -17 62q0 3 -0.5 10t-0.5 11
q0 76 8 122q3 16 -1 22q-6 11 -7 14t2 4q4 1 -1 10q-4 10 -0.5 13t13.5 1q6 -2 6 -2.5t-3 -2.5q-5 -3 -5 -11q0 -15 8 -15h2q14 3 7 21q-6 15 14 15q5 0 14 9t39 32q10 8 44 17z" />
    <glyph glyph-name="s" unicode="s" horiz-adv-x="419" 
d="M51 239q0 2 2 2q1 0 1 -2t-1 -2q-2 0 -2 2zM143 183q8 0 2 8l-5 4q-5 1 -5 -1t1 -5l2 -3v-2t5 -1zM131 209q0 -5 1 -7q3 -6 6 5q2 8 -2 8q-5 0 -5 -6zM202 239q-7 5 -38 5q-10 0 -11 -1q-4 -3 -2 -15q2 -14 3 -15q20 -19 40 -22h7q22 0 22 7l-1 1v1q-1 2 5 1h2q9 -2 20 3
q13 6 13 14q0 11 -34 16q-23 2 -26 5zM120 260q-12 4 -17 -1q-4 -8 11 -9q13 0 13 5q-1 3 -7 5zM330 362q2 11 -6 15q-5 3 -9 -5q-4 -6 -15 -4q-11 3 -11 -3q0 -13 25 -11q15 1 16 8zM248 377q-11 8 -47 8q-15 0 -20 -3q-11 -6 -11 -14q0 -6 34.5 -17t64.5 -16q10 -3 11 2
q-2 6 -12 11q-8 4 -12 10t-1 11q1 3 -7 8zM149 493q15 7 38 7h17q75 -4 83 -10q7 -5 14 -5t14 -10q6 -9 16 -9q6 0 8.5 -2.5t4.5 -11.5q4 -13 12 -20q6 -5 6 -18q0 -4 3 -12t3 -11q0 -2 -2 -6q-4 -7 0 -15q4 -7 -9 -20q-15 -15 -18 -20q-7 -9 -13 -9q-8 0 -8 -3q0 -6 14 -20
q29 -30 33 -84q1 -7 1 -18q0 -14 -7.5 -23t-39.5 -36q-17 -15 -49 -25q-15 -4 -18 -7q-1 -1 -8 -1q-55 0 -93 14q-23 8 -44.5 25.5t-24.5 30.5q-2 9 -7 9t-7 9t-9 16q-7 4 -2.5 10t3.5 13q-1 10 3 10q6 -1 -1 15q-3 6 -5 7q-1 1 -1 3q0 4 7 17t7 19q0 5 -3 7q-8 6 -11 70
q0 22 12 45q14 28 30.5 42t50.5 27z" />
    <glyph glyph-name="t" unicode="t" horiz-adv-x="392" 
d="M223 141q-6 0 -6 4q0 2 3 2q5 0 5 -3t-2 -3zM116 216q0 2 2 2q1 0 1 -2q0 -1 -1 -1q-2 0 -2 1zM335 223q0 1 1 1q2 0 2 -1q0 -2 -2 -2q-1 0 -1 2zM162 463q-2 4 -10 0q-4 -1 -3.5 -5.5t4.5 -4.5t7.5 4t1.5 6zM121 472q3 0 4 3t-4 3t-4 -3t4 -3zM225 466q0 7 -3.5 13
t-9.5 0q-3 -3 -3 -17q0 -11 1.5 -13.5t6.5 -1.5t6 -2t2 -17q1 -20 5 -20q6 0 6 20q0 21 -6 27q-5 5 -5 11zM198 518q5 5 -2 13q-4 2 -8 -1q-1 -2 1 -5.5t5 -5.5t4 -1zM197 567q-5 5 -43 5q-25 0 -33 -1.5t-8 -8.5q0 -1 2 -11l3 -10l26 1q56 2 56 19q0 3 -3 6zM97 590
q-2 19 12 35.5t34 16.5q14 0 26 -8q29 -19 34 -38q4 -14 10 -20q6 -10 6 -17q0 -11 14 -11q1 0 5.5 0.5t7.5 0.5h3q29 0 48 -17q9 -8 17 -26.5t8 -29.5q0 -18 -18.5 -39t-40.5 -28q-8 -3 -10 -4t-6.5 -3t-5 -4t-1.5 -5.5t-1 -8.5q0 -13 1 -23q2 -42 2 -61q0 -62 -6 -65
q-3 -3 0 -8t16 -5q2 0 7.5 0.5t9.5 0.5h7q27 0 39 -7t18 -24q5 -13 5 -20t-6 -19q-8 -18 -33 -24q-9 -2 -9 -6q0 -5 -9 -1q-2 1 -3 1q-4 2 -15 6q-8 2 -5 7q1 2 4 2q12 0 12 19q0 10 6 10q5 0 6.5 -4.5t-3.5 -6.5q-4 -1 1 -8q6 -7 18 -3q20 7 20 31q0 11 -11 22
q-10 10 -18 10q-7 0 -13 -1q-22 -2 -35 -7q-17 -5 -20 -5q-5 0 -5 5q0 3 1 5q1 6 0.5 8.5t-3.5 0.5t-5 -7q-2 -7 -9.5 -14t-12.5 -7t-9 5t-1 11q2 4 -0.5 10t-1.5 9q1 1 -0.5 2t-4.5 1q-5 0 -11 7t-14 4q-7 -2 -15 0t-8 6q0 1 -4 0q-2 0 -1 5q1 6 -8 12q-14 8 -20 35t-7 90
q-2 42 -4 52t-11 13q-6 2 -11 12t-5 20q0 12 9 21q10 10 15 10t7.5 7.5t-0.5 14.5v1q-1 2 -1 3q0 7 6 28t6 25z" />
    <glyph glyph-name="u" unicode="u" horiz-adv-x="425" 
d="M335 144q20 13 23 13q9 0 -5 -17l-6 -7q-16 -14 -29 -14q-4 0 -8 2q-3 1 -3 3q0 3 28 20zM280 232q0 2 1 2q2 0 2 -2q0 -1 -2 -1q-1 0 -1 1zM163 309q-2 -2 -5 0q2 1 3 2q4 0 2 -2zM231 332q0 7 3 7q3 -2 4 -9q0 -6 -3 -6q-4 0 -4 8zM103 258q7 -4 7.5 7t-6.5 11
q-4 0 -4.5 -8t3.5 -10zM104 300q-1 3 -3 4t-3.5 -1t-1.5 -5q0 -6 3 -6q8 0 5 8zM154 363q-1 5 -4 7.5t-6 -0.5q-2 -2 -2.5 -10.5t2.5 -10.5q4 -2 7.5 3t2.5 11zM148 411q-2 -4 -3.5 -0.5t-4.5 -3.5q-1 -3 -1 -7q0 -7 4 -7q8 0 8 13q-2 5 -3 5zM151 422q0 2 -2 2q-1 0 -1 -2
q0 -1 1 -1q2 0 2 1zM61 430q-1 0 -3 -3q-3 -3 -3 2q0 3 -1 8t-1 7q0 7 13 7q4 0 16 -2q17 -3 25 -3q10 0 13 4q1 2 4 3t5.5 1.5t2.5 1.5q0 6 4 -2q1 -1 4 -2l6 -2h2q0 -4 3 -2q4 2 11.5 -0.5t7.5 -6.5t-4 -7t-4 -20q0 -2 0.5 -10.5t0.5 -14.5l2 -41l-10 -9q-16 -16 -16 -28
q0 -3 2 -11q6 -20 7 -20t3 4q3 -5 3 -19q0 -24 10 -33q12 -10 20 -4q1 2 -1 5q-4 4 -0.5 4.5t10.5 -3.5q4 -2 7 -2q9 0 24 18q10 12 10 21t-1 17q0 3 -0.5 7.5t-0.5 5.5q0 12 4 12q1 0 6 -6q5 -7 4 -23q-1 -5 -1 -11q0 -9 14 -34q5 -8 5 -1q0 5 10 5l8 -1l-6 -1q-9 -2 -9 -4
t4 -2q1 0 2 -2t2.5 -6.5t2.5 -10.5q4 -19 9 -20q5 -2 7 2t8 3.5t10 -4.5q3 -5 6 -5t12 14.5t11 21.5q1 3 4 12.5t4 14.5q5 18 6 53.5t1.5 61t4.5 25.5q5 0 6 -30q2 -28 6 -41q2 -10 2 -30q0 -76 -9 -107l-6 -15q0 4 -4 4q-6 0 -9 5q-5 5 -14 5q-12 0 -15 -6q-6 -13 0 -11
q1 0 3 1q7 4 8.5 3t1.5 -9q0 -7 -4 -13.5t-8 -6.5q-3 0 -8 6t-2 9q4 4 1 4t-12 -9q-10 -10 -20 -12t-15 -7q-7 -7 -57 -7h-20q-32 1 -53 12q-25 13 -34 20.5t-19 24.5q-19 30 -22 46.5t-5 84.5q0 17 -0.5 39.5t-1 34t-0.5 13.5q0 6 6 12q10 12 4 15zM117 473q-4 -2 -9 1l1 1
h3l6 -1zM272 514q12 6 26 6q40 0 58 -34q9 -17 9 -33q0 -12 -5 -12l-4 2q-4 3 -62 3q-55 0 -59 2q-3 2 -3 9q0 22 18 42q6 6 22 15z" />
    <glyph glyph-name="v" unicode="v" horiz-adv-x="384" 
d="M180 254q0 6 -4 6t-10 -18.5t-6 -30.5q0 -11 1.5 -13t10.5 -1q13 2 18 -2q6 -4 14 0q6 3 19 0q11 -4 20 2q17 11 -2 11q-9 0 -9 7q0 6 -5 8t-10 -2q-5 -5 -3 -12t-2 -6q-7 1 -11 8q-3 7 -5 7t-9 15.5t-7 20.5zM196 282q-10 6 -10 0q-1 -13 7 -21q6 -8 6 -10q0 -4 3.5 -6
t6.5 0q1 2 0 5t-3 8.5t-2 8.5q-2 11 -8 15zM132 326q0 1 -2 1q-1 0 -1 -1q0 -2 1 -2q2 0 2 2zM156 342q-4 3 -4 12.5t-3 10.5h-2q-4 0 -4 -5q0 -4 2.5 -13.5t2.5 -11.5q0 -8 5 -8q6 0 7 5.5t-4 9.5zM197 344q0 4 4.5 12.5t4.5 11.5q0 14 17 37q4 5 4 13q0 9 43 41
q23 16 29 16q3 0 3 -14q0 -13 -8 -21q-13 -11 -1 -14q7 -2 6 -7q-1 -3 1 -5t8 -3q22 -5 25 -37v-6q0 -55 -29 -116q-1 -2 -24 -62q-17 -45 -24.5 -58.5t-21.5 -20.5q-13 -7 -29 -7q-27 0 -45 20q-6 6 -15.5 26.5t-9.5 26.5q0 3 -21 52q-3 6 -7 20t-9 24q-3 5 -8 24
t-9.5 34.5t-7.5 15.5q-2 0 -2 6q0 4 -8 26q-10 24 -10 43q0 8 3 10q5 2 9 0q4 -1 13 11q11 15 25 15q18 0 35.5 -21.5t20.5 -38.5q2 -10 10 -21q8 -13 11 -27q5 -17 11 -17t6 11z" />
    <glyph glyph-name="w" unicode="w" horiz-adv-x="539" 
d="M376 216q0 2 -2 2t-2 -2q0 -1 2 -1t2 1zM199 218q0 3 -4 3q-3 0 -3 -3t3 -3q4 0 4 3zM163 293q4 3 4 8q0 7 -4 14.5t-8 9.5t-4 -4q0 -3 1 -9q1 -5 1.5 -9t1.5 -6t2.5 -3.5t2.5 -1.5t3 1zM122 318q0 4 -3 6.5t-5 0.5q-3 -3 4 -13t12 -11q6 -1 7 1q0 4 -8 8q-7 4 -7 8z
M393 314q-2 5 -4.5 17t-5 17t-6.5 5q-5 0 -3 -17q1 -4 1 -9t-3.5 -10.5t-3.5 -14.5q1 -13 -4 -13t-5 -5t-3 -5t-7 -9t-3 -14q0 -9 -2 -12q-2 -5 0.5 -9.5t-2.5 -9.5t-5 -9q0 -5 5 -5t15 5q9 6 9 1l3 6q2 10 0.5 12t-10.5 2q-6 0 -7.5 1t0 5t1.5 6q0 1 5 1t5 3q0 4 7 4
q6 0 13.5 -10t9.5 -22q3 -15 16 -15q5 0 7 2q11 9 0 20q-5 5 -7 15q-7 37 -16 67zM115 363q0 3 -3 3t-3 -3q0 -4 3 -4t3 4zM102 363l2 -3q2 3 0 5q-1 1 -1.5 0t-0.5 -2zM99 385q3 0 3 4q0 8 -7.5 23t-10.5 15q-5 0 -3 -8q1 -3 4 -11q8 -23 14 -23zM253 430q0 -2 1 -2
q3 1 2 4q-1 1 -2 0t-1 -2zM286 365q21 51 21 68q0 7 -4 7q-10 0 -15 -14q-2 -5 -14 -11q-11 -5 -11 -16q0 -1 4 -27q4 -19 9 -19q4 0 10 12zM249 518q10 5 25 5h8q28 -2 38.5 -9.5t19.5 -33.5q7 -16 22 -66q8 -25 10 -27q4 -5 9.5 0.5t5.5 14.5q0 10 10 16q16 11 4 12
q-6 0 -6 2q0 3 5.5 8.5t9.5 5.5t4 7q0 6 -3 6q-4 0 3 11q7 9 7 17t3 8t3 -10t5 -12t5 -6q0 -5 -5 -5q-4 0 -4 -5t4 -6q6 -2 16 5q17 8 16 3q-1 -2 -4.5 -2t-2.5 -8t2 -9.5t7 -0.5q8 1 13.5 -7t6.5 -9q2 -2 1 -7t-4 -9.5t-5 -3.5q-2 2 -2 -26q0 -33 -28 -133q-14 -50 -18 -71
q-5 -29 -23 -39q-11 -6 -27 -6q-13 0 -18 4q-3 2 -21 24q-13 17 -19 31.5t-24 75.5q-17 50 -20 51q-4 0 -9.5 -10.5t-5.5 -17.5q0 -2 -8 -26q-13 -36 -24 -74q-8 -25 -12.5 -33t-14.5 -14q-13 -7 -24 -7q-12 0 -22 5q-12 6 -17.5 14.5t-10.5 31.5q-2 9 -5 19t-5 17l-3 18
q0 9 -5 21q-4 11 -9 31t-11 34q-3 12 -13.5 44t-17.5 58.5t-7 41.5q0 23 13 29q12 5 20 5q15 0 28 -11t18 -30q7 -25 18 -49q3 -5 6.5 -23.5t8 -33t9.5 -14.5q10 0 6 18q-1 8 6 24q10 18 17 64q2 10 9 23.5t9 18.5q7 18 27 30z" />
    <glyph glyph-name="x" unicode="x" horiz-adv-x="415" 
d="M321 167q0 3 1 3q2 -2 1 -6q-1 1 -2 3zM295 178q0 4 11 -1q18 -10 7 -16q-4 -2 -11 4.5t-7 12.5zM336 187q-1 11 1 11q5 -1 4 -14q-1 -7 0 -8.5t2.5 -0.5t4.5 1.5t6 -0.5q6 -3 6 -6q0 -4 -23 -31q-5 -6 -11 -9.5t-16 -6.5t-14 -5q-8 -2 -9 -2q-8 0 -8 18v8q0 9 7 9t16 -9
l9 -9l11 7q15 8 9 20q-4 5 1 10q4 4 4 17zM80 380q0 6 4 2l4 -4q12 -13 6 -15q-4 0 -9 6t-5 11zM128 149q0 1 -2 1q-1 0 -1 -1q0 -2 1 -2q2 0 2 2zM144 228q0 3 -1 3q-2 0 -4 -4q-1 -3 1 -3q4 0 4 4zM159 247q-4 -7 1.5 -6.5t2.5 6.5q-1 5 -4 0zM274 254q1 -1 3 -1q1 2 -1 4
q-1 0 -2 -1t0 -2zM234 274q-13 18 -25 18q-2 0 -3 -1q-4 -4 -1.5 -8t7.5 -4q19 0 19 -13q0 -6 3 -6q10 0 0 14zM234 334q5 0 1 4l-3 2q-1 0 -1 -3t3 -3zM273 286q0 -4 25.5 -33.5t25.5 -35.5q0 -2 -2 -2t-10 8t-11 7q-6 -2 1 -14q5 -8 5 -12v-1q-4 0 -26 22q-25 25 -33 25
q-4 0 -7 -4q-2 -4 -2 -7q0 -20 15 -29q9 -6 8 -17q-1 -8 0.5 -10t8.5 -4l5 -2h-1q-4 0 -3 -7t-4 -7q-4 0 -6 3q-2 2 -8 3.5t-9.5 4t-2.5 6.5v2q1 2 1 3q0 10 -5.5 21t-12.5 15q-5 3 -22 -17q-18 -22 -51 -69q-11 -17 -15 -17q-5 0 -16 -6q-12 -6 -21 -6q-12 0 -21 9
q-8 9 -8 18q0 11 1 20q2 30 2 32q0 4 3 4t19 15.5t23 26.5q4 6 14 18.5t15 21.5q6 14 2 23q-8 13 -26 31q-22 22 -22 25q0 9 13 -5q2 -1 3 -3q9 -12 24.5 -26t19.5 -14t7.5 7.5t3.5 15.5q0 7 6 15q7 9 7 11q0 3 6 11q10 13 -1 27q-36 49 -36 56q0 1 3 -2t9.5 -11t11.5 -13
q24 -28 28 -29q4 -2 12.5 2.5t8.5 8.5q0 2 21 27q25 25 32 25q5 0 5 -8q0 -12 13 -19q7 -4 7 -10t8 -10q18 -8 5 -21q-7 -8 -7 -19q0 -17 -25 -54q-14 -21 -14 -26zM79 484q10 7 23 7q24 0 39 -24l6 -10l-30 -22q-27 -19 -37 -29q-6 -8 -11 -8q-4 0 -9.5 15t-5.5 26
q0 29 25 45z" />
    <glyph glyph-name="y" unicode="y" horiz-adv-x="465" 
d="M185 212q-4 0 -5 5q-1 4 3 4q5 0 5 -5q0 -4 -3 -4zM159 348l2 4q2 -2 0 -6l-1 -2q-1 1 -1 4zM175 379q0 1 4.5 -1t7.5 -5t1 -5q-3 -3 -8 1.5t-5 9.5zM210 -31q0 5 -4 5q-6 0 -18 -11t-12 -16q0 -4 13 -4q12 0 22.5 5t10.5 10q0 4 -5 5q-7 2 -7 6zM180 -13q-4 -7 1.5 -6.5
t2.5 6.5q-1 5 -4 0zM274 25q0 5 -3 6.5t-8 -2.5q-3 -2 -13 -21t-16 -24q-11 -7 -8 -17q2 -3 5 -3q7 0 16 6.5t11 14.5q5 11 13 14q7 2 9.5 8.5t-2.5 9.5q-4 2 -4 8zM227 43q-15 6 -22 6q-6 0 -7 -4q-2 -7 -6 -8q-4 -3 -4 -9t4 -8q5 -2 5 -6q0 -5 10 -8t17 0q5 2 11 11.5
t6 14.5q0 2 -1 3q-1 2 -13 8zM269 72q2 8 -3 8q-8 0 -8 -12q0 -5 3 -6q4 -1 7 6zM273 94q4 6 4 16q0 12 -5 14q-2 1 -3 -4t-1 -14l1 -15zM236 134q0 9 -4 8q-3 0 -3 -7q0 -10 7 -11q6 -2 6 3q0 3 -1 3.5t-2 -0.5q-3 -1 -3 4zM262 139q7 -7 10 3t-6 12q-5 0 -6.5 -5.5
t2.5 -9.5zM221 187q8 0 8 12q0 9 -4.5 19t-9.5 10t-3 -7q3 -12 3 -21q0 -13 6 -13zM301 202q-1 1 -6 12.5t-10 19.5t-9 8q-2 0 -3 -1q-6 -6 4 -27q2 -4 6.5 -15t4.5 -12q11 -27 20 -29q5 -2 9 2q1 1 1 4q0 7 -17 38zM251 287q6 -7 3 3l-4 11q-4 1 -4 -2q0 -5 5 -12zM178 406
q0 8 -8.5 27t-14.5 19q-8 0 -44 -16.5t-36 -20.5q0 -14 14 -26q5 -5 5 -9q0 -3 11.5 -23t11.5 -24q0 -8 8 -16q6 -6 10 -23.5t9 -24.5t11.5 -23t10.5 -22q3 -3 7 -11.5t7.5 -15t6.5 -6.5h1q2 1 -0.5 5.5t-2.5 8t8 3.5q13 0 1 15q-3 3 -2 4t-10 26q-11 23 -14 49q-1 18 -5 29
q-2 6 2 7.5t8 -3.5q3 -4 7.5 -18t9 -24.5t9.5 -10.5q3 0 7 13t4 22q0 5 6.5 9t6.5 8q0 7 -4 14.5t-8 7.5t-4 8t-5 8t-5 5t-9 12q-10 7 -10 17zM244 337q3 0 10 19.5t11 19.5q6 0 6 9q0 10 3 10q4 0 4 7q0 9 4 14q3 4 3.5 8.5t7.5 9.5q11 11 12 15q2 7 6 7t10.5 -7.5
t10.5 -16.5q3 -7 5.5 -8t15.5 1l18 2l-1 -11q-1 -7 1 -8.5t12 -1.5q15 0 22 -6q6 -4 6.5 -6.5t-2.5 -8.5q-4 -9 -6 -9t-2 -2q0 -5 6 -18.5t6 -17.5q0 -48 -61 -191q-14 -31 -23 -56q-5 -14 -20 -33.5t-20 -19.5t-8 -6q-4 -7 1 -7q4 0 8 -7q1 -2 1 -6q0 -18 -27 -42
q-10 -8 -28 -26q-11 -11 -19 -14t-34 -5q-8 -1 -20 -1q-10 0 -13.5 2.5t-3.5 10.5t-6 10q-29 9 -36 21q-2 3 -2 21q0 25 4 32q4 6 10.5 10.5t8.5 2.5t-7 -17q-8 -15 -6 -29q5 -30 23 -30h1q7 1 9 9t11 17t7 12q-3 4 2.5 8t13.5 3q6 -1 7 0.5t-0.5 5.5t-1.5 5q0 2 -7.5 5.5
t-13.5 3.5q-7 0 -7 -4v-1l1 -2q2 -5 -4 -5q-7 0 -9 8q-1 7 -9 11q-7 2 2 9q10 7 7 16q-2 8 5 8q8 0 20 5.5t12 9.5t-11 30t-11 29q-1 4 -8.5 19t-9.5 24q-17 53 -34 80q-6 9 -6 17q0 7 -5 14q-4 6 -10 23q-7 20 -16 37q-16 29 -16 46q0 7 3 13q6 10 8 10q3 0 5 12
q7 42 12.5 53t22.5 15q13 4 30 -3q14 -7 22 -18q11 -15 17 -20q6 -4 15 -24.5t14 -24.5q7 -6 6 -16q0 -8 5.5 -17t6.5 -15q2 -8 10 -18.5t13 -10.5z" />
    <glyph glyph-name="z" unicode="z" horiz-adv-x="458" 
d="M266 400q0 1 2 1q1 0 1 -1q0 -2 -1 -2q-2 0 -2 2zM175 219q-5 7 -20 7q-22 0 -14 -14q7 -15 26 -15q6 0 19 2.5t19 2.5l-8 -16l-5 -9q-1 -3 -2.5 -4.5t-2.5 -1t-3 2.5q-4 5 -10.5 5t-8.5 -5q-2 -4 3 -12.5t5 -11.5q0 -7 9 -5t9 0l-3 -7q-5 -8 -2 -8q5 -1 16 11
q13 13 13 15l19 28q20 28 20 34q0 2 -2 2t-4 -1q-9 -3 -30 -3q-23 0 -31 -2q-6 -2 -12 5zM276 426q0 8 -11 3q-5 -2 -7 -6q-6 -9 -12 -10t-9 -7.5t-1 -12.5q4 -8 57 -8q13 0 19 2q2 1 -1 5.5t-7.5 8.5t-7.5 4q-4 0 -4 3t-7 3q-4 0 -4.5 -3t-7.5 -3t-8 1t1 5q2 3 4.5 5t4 4
t1.5 6zM110 417l16 -1h25q28 0 28 4q0 3 3.5 2t3.5 3l-1 5q-2 0 -15 -5q-13 -4 -29 -4q-12 0 -15 3q-4 4 -11 -1q-8 -6 -5 -6zM192 435q0 2 -1 2q-2 0 -2 -2t2 -2q1 0 1 2zM233 428q6 1 8.5 2.5t0.5 3.5t-8 3q-10 1 -10 -4q0 -6 9 -5zM348 451q-12 12 -17 7q-1 -1 -1 -2
q0 -4 5 -6q17 -9 8 -27q-4 -11 -1 -12q3 0 8 6q6 7 6 16q0 10 -8 18zM289 460v-2l2 6v1q-1 -3 -2 -5zM239 468q-7 5 -17 0q-5 -2 -5 -6q0 -6 13 -6q12 0 12 6q0 3 -3 6zM207 471q-7 14 -21 0q-12 -12 6 -12q11 0 14.5 2.5t0.5 9.5zM388 410q0 -3 -7.5 -16.5t-7.5 -14.5
q0 -4 -10 -12q-11 -11 -14 -21q-3 -12 -6 -12t-5 -10t-11 -17q-7 -5 -17 -22t-15 -22q-8 -9 -15 -19q-5 -7 1 -12q3 -2 12 -2t10 -3q2 -2 19 -2t24 -4q4 -2 11 -2.5t11.5 -1t4.5 -4.5t-2 -7q-6 -10 -11 -15q-7 -5 -2 -17q9 -20 0 -20q-6 0 -8.5 -5t1.5 -10q5 -8 5 -14
q0 -15 -14 -15q-2 0 -8 2q-8 4 -18 -6q-12 -12 -33.5 -15t-90.5 -3q-62 0 -75.5 1t-22.5 6q-23 13 -33 36q-7 17 -7 27q0 24 46 84q43 55 77 97q28 35 28 37q0 6 -50 6h-15q-42 0 -45 13q-2 10 -14 17q-19 12 -19 28q0 4 2 10q5 10 12 13q12 5 21 32q1 4 22 5t25 -6
q8 -15 23 -15l6 1l-1 1q-7 2 -7.5 6t6.5 4q8 0 8 3q0 1 20 1h62q48 0 49 3q2 3 8 3q7 0 12 5t17 4q23 -3 40 -23.5t17 -41.5q0 -15 -8 -23t-8 -12z" />
    <glyph glyph-name="nbsp" unicode="&#xa0;" 
 />
  </font>
</defs>
</svg>
