<?xml version="1.0" standalone="no"?>
<!DOCTYPE svg PUBLIC "-//W3C//DTD SVG 1.1//EN" "http://www.w3.org/Graphics/SVG/1.1/DTD/svg11.dtd" >
<svg xmlns="http://www.w3.org/2000/svg" xmlns:xlink="http://www.w3.org/1999/xlink" version="1.1">
<metadata>
Created by FontForge 20170731 at Wed Oct  1 05:37:36 2014
 By Aleksey,,,
Copyright (c) 2014 by Fonts by Jab-now. All rights reserved.
</metadata>
<defs>
<font id="DigitalFirebomb" horiz-adv-x="815" >
  <font-face 
    font-family="Digital Firebomb"
    font-weight="400"
    font-stretch="normal"
    units-per-em="1000"
    panose-1="0 0 0 0 0 0 0 0 0 0"
    ascent="1000"
    descent="0"
    x-height="725"
    cap-height="725"
    bbox="37 0 850.333 1000"
    underline-thickness="50"
    underline-position="-149"
    unicode-range="U+000D-007E"
  />
<missing-glyph horiz-adv-x="500" 
d="M63 0v1000h375v-1000h-375v0zM125 63h250v875h-250v-875v0z" />
    <glyph glyph-name=".notdef" horiz-adv-x="500" 
d="M63 0v1000h375v-1000h-375v0zM125 63h250v875h-250v-875v0z" />
    <glyph glyph-name=".null" horiz-adv-x="0" 
 />
    <glyph glyph-name="nonmarkingreturn" unicode="&#xd;" horiz-adv-x="250" 
 />
    <glyph glyph-name="NULL" horiz-adv-x="0" 
 />
    <glyph glyph-name="NULL" horiz-adv-x="0" 
 />
    <glyph glyph-name="space" unicode=" " horiz-adv-x="406" 
 />
    <glyph glyph-name="exclam" unicode="!" 
d="M405 250h-1q-3 45 -7.5 89.5t-6.5 89.5h29q-4 -45 -7.5 -89.5t-6.5 -89.5zM354 421q5 -42 8 -84l6 -84q-11 40 -21.5 81t-21.5 81q6 3 13.5 3.5t14.5 2.5h1zM487 416q-11 -42 -21.5 -82t-20.5 -82q2 42 6 84.5t7 84.5q13 -1 29 -5zM526 370q-12 -24 -25 -47.5t-25 -46.5
q5 25 12.5 50.5t14.5 51.5q6 -2 11.5 -4t11.5 -4zM137 576h17q46 -7 85 -22.5t77 -31.5q16 -6 31 -12t34 -8q-1 -1 -3 -2t-1 -3q5 4 11 7.5t11 7.5q2 -2 2.5 -4t2.5 -4q2 6 4 7q5 -4 11 -7.5t11 -7.5q0 2 -2 3.5t-2 2.5q17 1 31.5 6.5t29.5 11.5q14 5 27 11t28 12
q29 11 58 20q15 5 32 9.5t34 2.5q12 -1 21 -7t5 -21t-14 -29q-5 -7 -9 -13t-9 -10q5 6 9 12.5t9 15.5q4 7 8 19t-1 19q-3 4 -10 5t-14 0q-12 -1 -23.5 -4t-22.5 -8q-31 -11 -60.5 -26t-55.5 -29q9 -7 20.5 -11.5t28.5 -2.5q16 1 29.5 8t25.5 15q11 9 21.5 19t18.5 18
q-10 -13 -20 -25t-23 -23t-28.5 -19t-33.5 -10q-17 -1 -29 3t-22 10q-2 2 -4.5 4t-5.5 2q-5 1 -12.5 -3t-14.5 -6q-14 -5 -28 -5t-19 13q-4 -8 -11.5 -10.5t-16 -1t-17.5 4.5t-15 6q-4 1 -8 2.5t-6 0.5q-2 0 -6.5 -3.5t-7.5 -5.5q-24 -13 -48.5 -9t-43.5 16t-33 27.5
t-26 33.5q8 -10 18.5 -20t22.5 -19q12 -8 26 -14.5t30 -8.5q16 -1 27.5 3.5t19.5 12.5q-27 14 -58 29.5t-64 26.5q-11 4 -23.5 7.5t-24.5 2.5q-14 0 -17 -8t0.5 -18t7.5 -17q5 -9 9 -15.5t8 -13.5q-10 12 -18.5 25t-13.5 30v10q2 8 8.5 11t14.5 5zM280 377q6 2 11.5 4.5
t11.5 4.5q5 -19 10.5 -38t10.5 -39q2 -7 4 -13t3 -12v0l-26 46t-25 47zM144 141l11 -1q-3 -9 -10 -14t-15 -5q-10 0 -16 6q-5 5 -5 17q0 9 3 17q5 8 11 12q5 4 14 4t14 -5q6 -4 7 -13l-11 -1q-1 5 -3 7t-7 2q-3 0 -9 -2q-3 -3 -6 -9q-2 -4 -2 -12q0 -7 3 -10q4 -4 7 -4
q5 0 8 3q2 2 3 4t3 4zM196 146h-21l-5 -24h-11l12 54h11l-5 -21h21l5 21h11l-12 -54h-11zM225 122h-11l11 54h24q7 0 10 -1q3 -2 5 -5q2 -2 2 -8q0 -7 -4 -11q-5 -5 -12 -6q1 -1 1.5 -2t2.5 -3q2 -3 4 -7.5t4 -10.5h-12q-2 6 -6 14q-1 4 -4 7q-2 1 -6 1h-5zM231 152h6
q8 0 12 2q2 0 5 3q1 1 1 5q0 2 -2 4q-1 1 -7 1h-12zM267 122l12 54h11l-11 -54h-12zM291 140h10q0 -5 2 -7q1 -3 9 -3q4 0 8 2q2 4 2 5q0 2 -2 4q-1 1 -8 4q-3 2 -5 2.5t-4 2.5q-3 1 -4 4q-2 4 -2 7q0 6 5 11t14 5q10 0 15 -5q4 -2 6 -11l-11 -1q0 4 -3 6q-2 2 -7 2t-6 -1
q-2 -2 -2 -5q0 -2 2 -3q3 -3 8 -5q10 -3 11 -6q4 -4 4 -10t-6 -12q-5 -5 -15 -5q-6 0 -12 2q-6 3 -7 7q-3 5 -2 10zM366 122h-12l-9 54h11l7 -41l22 41h11zM389 122l11 54h11l-11 -54h-11zM411 122l11 54h11l-9 -45h27l-2 -9h-38zM456 122l12 54h40l-2 -9h-29l-3 -12h28
l-2 -9h-28l-3 -15h31l-1 -9h-43zM509 132h11l-3 -10h-10zM567 141l11 -1q-3 -9 -10 -14t-15 -5q-10 0 -16 6q-5 7 -5 17q0 9 3 17q5 8 11 12q5 4 14 4t14 -5q6 -4 7 -13l-11 -1q0 4 -3 7q-2 2 -7 2q-3 0 -9 -2q-3 -3 -6 -9q-2 -4 -2 -12q0 -7 3 -10q4 -4 7 -4q5 0 8 3
q4 3 6 8zM586 143q0 7 1 10q1 7 6 13q2 4 9 8q6 3 14 3q10 0 16 -6t6 -17q0 -9 -4 -16q-5 -9 -11 -13q-8 -4 -15 -4q-9 0 -13 4q-6 4 -7 8q-2 3 -2 10zM597 143q0 -5 3 -9q4 -4 9 -4t8 3q6 4 7 9q3 6 3 12q0 7 -3 10q-6 4 -9 4q-8 0 -13 -8q-5 -6 -5 -17zM672 122h-11l-2 45
l-8 -45h-10l11 54h16l1 -38l19 38h16l-11 -54h-11l11 45z" />
    <glyph glyph-name="quotedbl" unicode="&#x22;" 
d="M405 250h-1q-3 45 -7.5 89.5t-6.5 89.5h29q-4 -45 -7.5 -89.5t-6.5 -89.5zM354 421q5 -42 8 -84l6 -84q-11 40 -21.5 81t-21.5 81q6 3 13.5 3.5t14.5 2.5h1zM487 416q-11 -42 -21.5 -82t-20.5 -82q2 42 6 84.5t7 84.5q13 -1 29 -5zM526 370q-12 -24 -25 -47.5t-25 -46.5
q5 25 12.5 50.5t14.5 51.5q6 -2 11.5 -4t11.5 -4zM137 576h17q46 -7 85 -22.5t77 -31.5q16 -6 31 -12t34 -8q-1 -1 -3 -2t-1 -3q5 4 11 7.5t11 7.5q2 -2 2.5 -4t2.5 -4q2 6 4 7q5 -4 11 -7.5t11 -7.5q0 2 -2 3.5t-2 2.5q17 1 31.5 6.5t29.5 11.5q14 5 27 11t28 12
q29 11 58 20q15 5 32 9.5t34 2.5q12 -1 21 -7t5 -21t-14 -29q-5 -7 -9 -13t-9 -10q5 6 9 12.5t9 15.5q4 7 8 19t-1 19q-3 4 -10 5t-14 0q-12 -1 -23.5 -4t-22.5 -8q-31 -11 -60.5 -26t-55.5 -29q9 -7 20.5 -11.5t28.5 -2.5q16 1 29.5 8t25.5 15q11 9 21.5 19t18.5 18
q-10 -13 -20 -25t-23 -23t-28.5 -19t-33.5 -10q-17 -1 -29 3t-22 10q-2 2 -4.5 4t-5.5 2q-5 1 -12.5 -3t-14.5 -6q-14 -5 -28 -5t-19 13q-4 -8 -11.5 -10.5t-16 -1t-17.5 4.5t-15 6q-4 1 -8 2.5t-6 0.5q-2 0 -6.5 -3.5t-7.5 -5.5q-24 -13 -48.5 -9t-43.5 16t-33 27.5
t-26 33.5q8 -10 18.5 -20t22.5 -19q12 -8 26 -14.5t30 -8.5q16 -1 27.5 3.5t19.5 12.5q-27 14 -58 29.5t-64 26.5q-11 4 -23.5 7.5t-24.5 2.5q-14 0 -17 -8t0.5 -18t7.5 -17q5 -9 9 -15.5t8 -13.5q-10 12 -18.5 25t-13.5 30v10q2 8 8.5 11t14.5 5zM280 377q6 2 11.5 4.5
t11.5 4.5q5 -19 10.5 -38t10.5 -39q2 -7 4 -13t3 -12v0l-26 46t-25 47zM144 141l11 -1q-3 -9 -10 -14t-15 -5q-10 0 -16 6q-5 5 -5 17q0 9 3 17q5 8 11 12q5 4 14 4t14 -5q6 -4 7 -13l-11 -1q-1 5 -3 7t-7 2q-3 0 -9 -2q-3 -3 -6 -9q-2 -4 -2 -12q0 -7 3 -10q4 -4 7 -4
q5 0 8 3q2 2 3 4t3 4zM196 146h-21l-5 -24h-11l12 54h11l-5 -21h21l5 21h11l-12 -54h-11zM225 122h-11l11 54h24q7 0 10 -1q3 -2 5 -5q2 -2 2 -8q0 -7 -4 -11q-5 -5 -12 -6q1 -1 1.5 -2t2.5 -3q2 -3 4 -7.5t4 -10.5h-12q-2 6 -6 14q-1 4 -4 7q-2 1 -6 1h-5zM231 152h6
q8 0 12 2q2 0 5 3q1 1 1 5q0 2 -2 4q-1 1 -7 1h-12zM267 122l12 54h11l-11 -54h-12zM291 140h10q0 -5 2 -7q1 -3 9 -3q4 0 8 2q2 4 2 5q0 2 -2 4q-1 1 -8 4q-3 2 -5 2.5t-4 2.5q-3 1 -4 4q-2 4 -2 7q0 6 5 11t14 5q10 0 15 -5q4 -2 6 -11l-11 -1q0 4 -3 6q-2 2 -7 2t-6 -1
q-2 -2 -2 -5q0 -2 2 -3q3 -3 8 -5q10 -3 11 -6q4 -4 4 -10t-6 -12q-5 -5 -15 -5q-6 0 -12 2q-6 3 -7 7q-3 5 -2 10zM366 122h-12l-9 54h11l7 -41l22 41h11zM389 122l11 54h11l-11 -54h-11zM411 122l11 54h11l-9 -45h27l-2 -9h-38zM456 122l12 54h40l-2 -9h-29l-3 -12h28
l-2 -9h-28l-3 -15h31l-1 -9h-43zM509 132h11l-3 -10h-10zM567 141l11 -1q-3 -9 -10 -14t-15 -5q-10 0 -16 6q-5 7 -5 17q0 9 3 17q5 8 11 12q5 4 14 4t14 -5q6 -4 7 -13l-11 -1q0 4 -3 7q-2 2 -7 2q-3 0 -9 -2q-3 -3 -6 -9q-2 -4 -2 -12q0 -7 3 -10q4 -4 7 -4q5 0 8 3
q4 3 6 8zM586 143q0 7 1 10q1 7 6 13q2 4 9 8q6 3 14 3q10 0 16 -6t6 -17q0 -9 -4 -16q-5 -9 -11 -13q-8 -4 -15 -4q-9 0 -13 4q-6 4 -7 8q-2 3 -2 10zM597 143q0 -5 3 -9q4 -4 9 -4t8 3q6 4 7 9q3 6 3 12q0 7 -3 10q-6 4 -9 4q-8 0 -13 -8q-5 -6 -5 -17zM672 122h-11l-2 45
l-8 -45h-10l11 54h16l1 -38l19 38h16l-11 -54h-11l11 45z" />
    <glyph glyph-name="numbersign" unicode="#" 
d="M405 250h-1q-3 45 -7.5 89.5t-6.5 89.5h29q-4 -45 -7.5 -89.5t-6.5 -89.5zM354 421q5 -42 8 -84l6 -84q-11 40 -21.5 81t-21.5 81q6 3 13.5 3.5t14.5 2.5h1zM487 416q-11 -42 -21.5 -82t-20.5 -82q2 42 6 84.5t7 84.5q13 -1 29 -5zM526 370q-12 -24 -25 -47.5t-25 -46.5
q5 25 12.5 50.5t14.5 51.5q6 -2 11.5 -4t11.5 -4zM137 576h17q46 -7 85 -22.5t77 -31.5q16 -6 31 -12t34 -8q-1 -1 -3 -2t-1 -3q5 4 11 7.5t11 7.5q2 -2 2.5 -4t2.5 -4q2 6 4 7q5 -4 11 -7.5t11 -7.5q0 2 -2 3.5t-2 2.5q17 1 31.5 6.5t29.5 11.5q14 5 27 11t28 12
q29 11 58 20q15 5 32 9.5t34 2.5q12 -1 21 -7t5 -21t-14 -29q-5 -7 -9 -13t-9 -10q5 6 9 12.5t9 15.5q4 7 8 19t-1 19q-3 4 -10 5t-14 0q-12 -1 -23.5 -4t-22.5 -8q-31 -11 -60.5 -26t-55.5 -29q9 -7 20.5 -11.5t28.5 -2.5q16 1 29.5 8t25.5 15q11 9 21.5 19t18.5 18
q-10 -13 -20 -25t-23 -23t-28.5 -19t-33.5 -10q-17 -1 -29 3t-22 10q-2 2 -4.5 4t-5.5 2q-5 1 -12.5 -3t-14.5 -6q-14 -5 -28 -5t-19 13q-4 -8 -11.5 -10.5t-16 -1t-17.5 4.5t-15 6q-4 1 -8 2.5t-6 0.5q-2 0 -6.5 -3.5t-7.5 -5.5q-24 -13 -48.5 -9t-43.5 16t-33 27.5
t-26 33.5q8 -10 18.5 -20t22.5 -19q12 -8 26 -14.5t30 -8.5q16 -1 27.5 3.5t19.5 12.5q-27 14 -58 29.5t-64 26.5q-11 4 -23.5 7.5t-24.5 2.5q-14 0 -17 -8t0.5 -18t7.5 -17q5 -9 9 -15.5t8 -13.5q-10 12 -18.5 25t-13.5 30v10q2 8 8.5 11t14.5 5zM280 377q6 2 11.5 4.5
t11.5 4.5q5 -19 10.5 -38t10.5 -39q2 -7 4 -13t3 -12v0l-26 46t-25 47zM144 141l11 -1q-3 -9 -10 -14t-15 -5q-10 0 -16 6q-5 5 -5 17q0 9 3 17q5 8 11 12q5 4 14 4t14 -5q6 -4 7 -13l-11 -1q-1 5 -3 7t-7 2q-3 0 -9 -2q-3 -3 -6 -9q-2 -4 -2 -12q0 -7 3 -10q4 -4 7 -4
q5 0 8 3q2 2 3 4t3 4zM196 146h-21l-5 -24h-11l12 54h11l-5 -21h21l5 21h11l-12 -54h-11zM225 122h-11l11 54h24q7 0 10 -1q3 -2 5 -5q2 -2 2 -8q0 -7 -4 -11q-5 -5 -12 -6q1 -1 1.5 -2t2.5 -3q2 -3 4 -7.5t4 -10.5h-12q-2 6 -6 14q-1 4 -4 7q-2 1 -6 1h-5zM231 152h6
q8 0 12 2q2 0 5 3q1 1 1 5q0 2 -2 4q-1 1 -7 1h-12zM267 122l12 54h11l-11 -54h-12zM291 140h10q0 -5 2 -7q1 -3 9 -3q4 0 8 2q2 4 2 5q0 2 -2 4q-1 1 -8 4q-3 2 -5 2.5t-4 2.5q-3 1 -4 4q-2 4 -2 7q0 6 5 11t14 5q10 0 15 -5q4 -2 6 -11l-11 -1q0 4 -3 6q-2 2 -7 2t-6 -1
q-2 -2 -2 -5q0 -2 2 -3q3 -3 8 -5q10 -3 11 -6q4 -4 4 -10t-6 -12q-5 -5 -15 -5q-6 0 -12 2q-6 3 -7 7q-3 5 -2 10zM366 122h-12l-9 54h11l7 -41l22 41h11zM389 122l11 54h11l-11 -54h-11zM411 122l11 54h11l-9 -45h27l-2 -9h-38zM456 122l12 54h40l-2 -9h-29l-3 -12h28
l-2 -9h-28l-3 -15h31l-1 -9h-43zM509 132h11l-3 -10h-10zM567 141l11 -1q-3 -9 -10 -14t-15 -5q-10 0 -16 6q-5 7 -5 17q0 9 3 17q5 8 11 12q5 4 14 4t14 -5q6 -4 7 -13l-11 -1q0 4 -3 7q-2 2 -7 2q-3 0 -9 -2q-3 -3 -6 -9q-2 -4 -2 -12q0 -7 3 -10q4 -4 7 -4q5 0 8 3
q4 3 6 8zM586 143q0 7 1 10q1 7 6 13q2 4 9 8q6 3 14 3q10 0 16 -6t6 -17q0 -9 -4 -16q-5 -9 -11 -13q-8 -4 -15 -4q-9 0 -13 4q-6 4 -7 8q-2 3 -2 10zM597 143q0 -5 3 -9q4 -4 9 -4t8 3q6 4 7 9q3 6 3 12q0 7 -3 10q-6 4 -9 4q-8 0 -13 -8q-5 -6 -5 -17zM672 122h-11l-2 45
l-8 -45h-10l11 54h16l1 -38l19 38h16l-11 -54h-11l11 45z" />
    <glyph glyph-name="dollar" unicode="$" 
d="M405 250h-1q-3 45 -7.5 89.5t-6.5 89.5h29q-4 -45 -7.5 -89.5t-6.5 -89.5zM354 421q5 -42 8 -84l6 -84q-11 40 -21.5 81t-21.5 81q6 3 13.5 3.5t14.5 2.5h1zM487 416q-11 -42 -21.5 -82t-20.5 -82q2 42 6 84.5t7 84.5q13 -1 29 -5zM526 370q-12 -24 -25 -47.5t-25 -46.5
q5 25 12.5 50.5t14.5 51.5q6 -2 11.5 -4t11.5 -4zM137 576h17q46 -7 85 -22.5t77 -31.5q16 -6 31 -12t34 -8q-1 -1 -3 -2t-1 -3q5 4 11 7.5t11 7.5q2 -2 2.5 -4t2.5 -4q2 6 4 7q5 -4 11 -7.5t11 -7.5q0 2 -2 3.5t-2 2.5q17 1 31.5 6.5t29.5 11.5q14 5 27 11t28 12
q29 11 58 20q15 5 32 9.5t34 2.5q12 -1 21 -7t5 -21t-14 -29q-5 -7 -9 -13t-9 -10q5 6 9 12.5t9 15.5q4 7 8 19t-1 19q-3 4 -10 5t-14 0q-12 -1 -23.5 -4t-22.5 -8q-31 -11 -60.5 -26t-55.5 -29q9 -7 20.5 -11.5t28.5 -2.5q16 1 29.5 8t25.5 15q11 9 21.5 19t18.5 18
q-10 -13 -20 -25t-23 -23t-28.5 -19t-33.5 -10q-17 -1 -29 3t-22 10q-2 2 -4.5 4t-5.5 2q-5 1 -12.5 -3t-14.5 -6q-14 -5 -28 -5t-19 13q-4 -8 -11.5 -10.5t-16 -1t-17.5 4.5t-15 6q-4 1 -8 2.5t-6 0.5q-2 0 -6.5 -3.5t-7.5 -5.5q-24 -13 -48.5 -9t-43.5 16t-33 27.5
t-26 33.5q8 -10 18.5 -20t22.5 -19q12 -8 26 -14.5t30 -8.5q16 -1 27.5 3.5t19.5 12.5q-27 14 -58 29.5t-64 26.5q-11 4 -23.5 7.5t-24.5 2.5q-14 0 -17 -8t0.5 -18t7.5 -17q5 -9 9 -15.5t8 -13.5q-10 12 -18.5 25t-13.5 30v10q2 8 8.5 11t14.5 5zM280 377q6 2 11.5 4.5
t11.5 4.5q5 -19 10.5 -38t10.5 -39q2 -7 4 -13t3 -12v0l-26 46t-25 47zM144 141l11 -1q-3 -9 -10 -14t-15 -5q-10 0 -16 6q-5 5 -5 17q0 9 3 17q5 8 11 12q5 4 14 4t14 -5q6 -4 7 -13l-11 -1q-1 5 -3 7t-7 2q-3 0 -9 -2q-3 -3 -6 -9q-2 -4 -2 -12q0 -7 3 -10q4 -4 7 -4
q5 0 8 3q2 2 3 4t3 4zM196 146h-21l-5 -24h-11l12 54h11l-5 -21h21l5 21h11l-12 -54h-11zM225 122h-11l11 54h24q7 0 10 -1q3 -2 5 -5q2 -2 2 -8q0 -7 -4 -11q-5 -5 -12 -6q1 -1 1.5 -2t2.5 -3q2 -3 4 -7.5t4 -10.5h-12q-2 6 -6 14q-1 4 -4 7q-2 1 -6 1h-5zM231 152h6
q8 0 12 2q2 0 5 3q1 1 1 5q0 2 -2 4q-1 1 -7 1h-12zM267 122l12 54h11l-11 -54h-12zM291 140h10q0 -5 2 -7q1 -3 9 -3q4 0 8 2q2 4 2 5q0 2 -2 4q-1 1 -8 4q-3 2 -5 2.5t-4 2.5q-3 1 -4 4q-2 4 -2 7q0 6 5 11t14 5q10 0 15 -5q4 -2 6 -11l-11 -1q0 4 -3 6q-2 2 -7 2t-6 -1
q-2 -2 -2 -5q0 -2 2 -3q3 -3 8 -5q10 -3 11 -6q4 -4 4 -10t-6 -12q-5 -5 -15 -5q-6 0 -12 2q-6 3 -7 7q-3 5 -2 10zM366 122h-12l-9 54h11l7 -41l22 41h11zM389 122l11 54h11l-11 -54h-11zM411 122l11 54h11l-9 -45h27l-2 -9h-38zM456 122l12 54h40l-2 -9h-29l-3 -12h28
l-2 -9h-28l-3 -15h31l-1 -9h-43zM509 132h11l-3 -10h-10zM567 141l11 -1q-3 -9 -10 -14t-15 -5q-10 0 -16 6q-5 7 -5 17q0 9 3 17q5 8 11 12q5 4 14 4t14 -5q6 -4 7 -13l-11 -1q0 4 -3 7q-2 2 -7 2q-3 0 -9 -2q-3 -3 -6 -9q-2 -4 -2 -12q0 -7 3 -10q4 -4 7 -4q5 0 8 3
q4 3 6 8zM586 143q0 7 1 10q1 7 6 13q2 4 9 8q6 3 14 3q10 0 16 -6t6 -17q0 -9 -4 -16q-5 -9 -11 -13q-8 -4 -15 -4q-9 0 -13 4q-6 4 -7 8q-2 3 -2 10zM597 143q0 -5 3 -9q4 -4 9 -4t8 3q6 4 7 9q3 6 3 12q0 7 -3 10q-6 4 -9 4q-8 0 -13 -8q-5 -6 -5 -17zM672 122h-11l-2 45
l-8 -45h-10l11 54h16l1 -38l19 38h16l-11 -54h-11l11 45z" />
    <glyph glyph-name="percent" unicode="%" 
d="M405 250h-1q-3 45 -7.5 89.5t-6.5 89.5h29q-4 -45 -7.5 -89.5t-6.5 -89.5zM354 421q5 -42 8 -84l6 -84q-11 40 -21.5 81t-21.5 81q6 3 13.5 3.5t14.5 2.5h1zM487 416q-11 -42 -21.5 -82t-20.5 -82q2 42 6 84.5t7 84.5q13 -1 29 -5zM526 370q-12 -24 -25 -47.5t-25 -46.5
q5 25 12.5 50.5t14.5 51.5q6 -2 11.5 -4t11.5 -4zM137 576h17q46 -7 85 -22.5t77 -31.5q16 -6 31 -12t34 -8q-1 -1 -3 -2t-1 -3q5 4 11 7.5t11 7.5q2 -2 2.5 -4t2.5 -4q2 6 4 7q5 -4 11 -7.5t11 -7.5q0 2 -2 3.5t-2 2.5q17 1 31.5 6.5t29.5 11.5q14 5 27 11t28 12
q29 11 58 20q15 5 32 9.5t34 2.5q12 -1 21 -7t5 -21t-14 -29q-5 -7 -9 -13t-9 -10q5 6 9 12.5t9 15.5q4 7 8 19t-1 19q-3 4 -10 5t-14 0q-12 -1 -23.5 -4t-22.5 -8q-31 -11 -60.5 -26t-55.5 -29q9 -7 20.5 -11.5t28.5 -2.5q16 1 29.5 8t25.5 15q11 9 21.5 19t18.5 18
q-10 -13 -20 -25t-23 -23t-28.5 -19t-33.5 -10q-17 -1 -29 3t-22 10q-2 2 -4.5 4t-5.5 2q-5 1 -12.5 -3t-14.5 -6q-14 -5 -28 -5t-19 13q-4 -8 -11.5 -10.5t-16 -1t-17.5 4.5t-15 6q-4 1 -8 2.5t-6 0.5q-2 0 -6.5 -3.5t-7.5 -5.5q-24 -13 -48.5 -9t-43.5 16t-33 27.5
t-26 33.5q8 -10 18.5 -20t22.5 -19q12 -8 26 -14.5t30 -8.5q16 -1 27.5 3.5t19.5 12.5q-27 14 -58 29.5t-64 26.5q-11 4 -23.5 7.5t-24.5 2.5q-14 0 -17 -8t0.5 -18t7.5 -17q5 -9 9 -15.5t8 -13.5q-10 12 -18.5 25t-13.5 30v10q2 8 8.5 11t14.5 5zM280 377q6 2 11.5 4.5
t11.5 4.5q5 -19 10.5 -38t10.5 -39q2 -7 4 -13t3 -12v0l-26 46t-25 47zM144 141l11 -1q-3 -9 -10 -14t-15 -5q-10 0 -16 6q-5 5 -5 17q0 9 3 17q5 8 11 12q5 4 14 4t14 -5q6 -4 7 -13l-11 -1q-1 5 -3 7t-7 2q-3 0 -9 -2q-3 -3 -6 -9q-2 -4 -2 -12q0 -7 3 -10q4 -4 7 -4
q5 0 8 3q2 2 3 4t3 4zM196 146h-21l-5 -24h-11l12 54h11l-5 -21h21l5 21h11l-12 -54h-11zM225 122h-11l11 54h24q7 0 10 -1q3 -2 5 -5q2 -2 2 -8q0 -7 -4 -11q-5 -5 -12 -6q1 -1 1.5 -2t2.5 -3q2 -3 4 -7.5t4 -10.5h-12q-2 6 -6 14q-1 4 -4 7q-2 1 -6 1h-5zM231 152h6
q8 0 12 2q2 0 5 3q1 1 1 5q0 2 -2 4q-1 1 -7 1h-12zM267 122l12 54h11l-11 -54h-12zM291 140h10q0 -5 2 -7q1 -3 9 -3q4 0 8 2q2 4 2 5q0 2 -2 4q-1 1 -8 4q-3 2 -5 2.5t-4 2.5q-3 1 -4 4q-2 4 -2 7q0 6 5 11t14 5q10 0 15 -5q4 -2 6 -11l-11 -1q0 4 -3 6q-2 2 -7 2t-6 -1
q-2 -2 -2 -5q0 -2 2 -3q3 -3 8 -5q10 -3 11 -6q4 -4 4 -10t-6 -12q-5 -5 -15 -5q-6 0 -12 2q-6 3 -7 7q-3 5 -2 10zM366 122h-12l-9 54h11l7 -41l22 41h11zM389 122l11 54h11l-11 -54h-11zM411 122l11 54h11l-9 -45h27l-2 -9h-38zM456 122l12 54h40l-2 -9h-29l-3 -12h28
l-2 -9h-28l-3 -15h31l-1 -9h-43zM509 132h11l-3 -10h-10zM567 141l11 -1q-3 -9 -10 -14t-15 -5q-10 0 -16 6q-5 7 -5 17q0 9 3 17q5 8 11 12q5 4 14 4t14 -5q6 -4 7 -13l-11 -1q0 4 -3 7q-2 2 -7 2q-3 0 -9 -2q-3 -3 -6 -9q-2 -4 -2 -12q0 -7 3 -10q4 -4 7 -4q5 0 8 3
q4 3 6 8zM586 143q0 7 1 10q1 7 6 13q2 4 9 8q6 3 14 3q10 0 16 -6t6 -17q0 -9 -4 -16q-5 -9 -11 -13q-8 -4 -15 -4q-9 0 -13 4q-6 4 -7 8q-2 3 -2 10zM597 143q0 -5 3 -9q4 -4 9 -4t8 3q6 4 7 9q3 6 3 12q0 7 -3 10q-6 4 -9 4q-8 0 -13 -8q-5 -6 -5 -17zM672 122h-11l-2 45
l-8 -45h-10l11 54h16l1 -38l19 38h16l-11 -54h-11l11 45z" />
    <glyph glyph-name="ampersand" unicode="&#x26;" 
d="M405 250h-1q-3 45 -7.5 89.5t-6.5 89.5h29q-4 -45 -7.5 -89.5t-6.5 -89.5zM354 421q5 -42 8 -84l6 -84q-11 40 -21.5 81t-21.5 81q6 3 13.5 3.5t14.5 2.5h1zM487 416q-11 -42 -21.5 -82t-20.5 -82q2 42 6 84.5t7 84.5q13 -1 29 -5zM526 370q-12 -24 -25 -47.5t-25 -46.5
q5 25 12.5 50.5t14.5 51.5q6 -2 11.5 -4t11.5 -4zM137 576h17q46 -7 85 -22.5t77 -31.5q16 -6 31 -12t34 -8q-1 -1 -3 -2t-1 -3q5 4 11 7.5t11 7.5q2 -2 2.5 -4t2.5 -4q2 6 4 7q5 -4 11 -7.5t11 -7.5q0 2 -2 3.5t-2 2.5q17 1 31.5 6.5t29.5 11.5q14 5 27 11t28 12
q29 11 58 20q15 5 32 9.5t34 2.5q12 -1 21 -7t5 -21t-14 -29q-5 -7 -9 -13t-9 -10q5 6 9 12.5t9 15.5q4 7 8 19t-1 19q-3 4 -10 5t-14 0q-12 -1 -23.5 -4t-22.5 -8q-31 -11 -60.5 -26t-55.5 -29q9 -7 20.5 -11.5t28.5 -2.5q16 1 29.5 8t25.5 15q11 9 21.5 19t18.5 18
q-10 -13 -20 -25t-23 -23t-28.5 -19t-33.5 -10q-17 -1 -29 3t-22 10q-2 2 -4.5 4t-5.5 2q-5 1 -12.5 -3t-14.5 -6q-14 -5 -28 -5t-19 13q-4 -8 -11.5 -10.5t-16 -1t-17.5 4.5t-15 6q-4 1 -8 2.5t-6 0.5q-2 0 -6.5 -3.5t-7.5 -5.5q-24 -13 -48.5 -9t-43.5 16t-33 27.5
t-26 33.5q8 -10 18.5 -20t22.5 -19q12 -8 26 -14.5t30 -8.5q16 -1 27.5 3.5t19.5 12.5q-27 14 -58 29.5t-64 26.5q-11 4 -23.5 7.5t-24.5 2.5q-14 0 -17 -8t0.5 -18t7.5 -17q5 -9 9 -15.5t8 -13.5q-10 12 -18.5 25t-13.5 30v10q2 8 8.5 11t14.5 5zM280 377q6 2 11.5 4.5
t11.5 4.5q5 -19 10.5 -38t10.5 -39q2 -7 4 -13t3 -12v0l-26 46t-25 47zM144 141l11 -1q-3 -9 -10 -14t-15 -5q-10 0 -16 6q-5 5 -5 17q0 9 3 17q5 8 11 12q5 4 14 4t14 -5q6 -4 7 -13l-11 -1q-1 5 -3 7t-7 2q-3 0 -9 -2q-3 -3 -6 -9q-2 -4 -2 -12q0 -7 3 -10q4 -4 7 -4
q5 0 8 3q2 2 3 4t3 4zM196 146h-21l-5 -24h-11l12 54h11l-5 -21h21l5 21h11l-12 -54h-11zM225 122h-11l11 54h24q7 0 10 -1q3 -2 5 -5q2 -2 2 -8q0 -7 -4 -11q-5 -5 -12 -6q1 -1 1.5 -2t2.5 -3q2 -3 4 -7.5t4 -10.5h-12q-2 6 -6 14q-1 4 -4 7q-2 1 -6 1h-5zM231 152h6
q8 0 12 2q2 0 5 3q1 1 1 5q0 2 -2 4q-1 1 -7 1h-12zM267 122l12 54h11l-11 -54h-12zM291 140h10q0 -5 2 -7q1 -3 9 -3q4 0 8 2q2 4 2 5q0 2 -2 4q-1 1 -8 4q-3 2 -5 2.5t-4 2.5q-3 1 -4 4q-2 4 -2 7q0 6 5 11t14 5q10 0 15 -5q4 -2 6 -11l-11 -1q0 4 -3 6q-2 2 -7 2t-6 -1
q-2 -2 -2 -5q0 -2 2 -3q3 -3 8 -5q10 -3 11 -6q4 -4 4 -10t-6 -12q-5 -5 -15 -5q-6 0 -12 2q-6 3 -7 7q-3 5 -2 10zM366 122h-12l-9 54h11l7 -41l22 41h11zM389 122l11 54h11l-11 -54h-11zM411 122l11 54h11l-9 -45h27l-2 -9h-38zM456 122l12 54h40l-2 -9h-29l-3 -12h28
l-2 -9h-28l-3 -15h31l-1 -9h-43zM509 132h11l-3 -10h-10zM567 141l11 -1q-3 -9 -10 -14t-15 -5q-10 0 -16 6q-5 7 -5 17q0 9 3 17q5 8 11 12q5 4 14 4t14 -5q6 -4 7 -13l-11 -1q0 4 -3 7q-2 2 -7 2q-3 0 -9 -2q-3 -3 -6 -9q-2 -4 -2 -12q0 -7 3 -10q4 -4 7 -4q5 0 8 3
q4 3 6 8zM586 143q0 7 1 10q1 7 6 13q2 4 9 8q6 3 14 3q10 0 16 -6t6 -17q0 -9 -4 -16q-5 -9 -11 -13q-8 -4 -15 -4q-9 0 -13 4q-6 4 -7 8q-2 3 -2 10zM597 143q0 -5 3 -9q4 -4 9 -4t8 3q6 4 7 9q3 6 3 12q0 7 -3 10q-6 4 -9 4q-8 0 -13 -8q-5 -6 -5 -17zM672 122h-11l-2 45
l-8 -45h-10l11 54h16l1 -38l19 38h16l-11 -54h-11l11 45z" />
    <glyph glyph-name="quotesingle" unicode="'" 
d="M405 250h-1q-3 45 -7.5 89.5t-6.5 89.5h29q-4 -45 -7.5 -89.5t-6.5 -89.5zM354 421q5 -42 8 -84l6 -84q-11 40 -21.5 81t-21.5 81q6 3 13.5 3.5t14.5 2.5h1zM487 416q-11 -42 -21.5 -82t-20.5 -82q2 42 6 84.5t7 84.5q13 -1 29 -5zM526 370q-12 -24 -25 -47.5t-25 -46.5
q5 25 12.5 50.5t14.5 51.5q6 -2 11.5 -4t11.5 -4zM137 576h17q46 -7 85 -22.5t77 -31.5q16 -6 31 -12t34 -8q-1 -1 -3 -2t-1 -3q5 4 11 7.5t11 7.5q2 -2 2.5 -4t2.5 -4q2 6 4 7q5 -4 11 -7.5t11 -7.5q0 2 -2 3.5t-2 2.5q17 1 31.5 6.5t29.5 11.5q14 5 27 11t28 12
q29 11 58 20q15 5 32 9.5t34 2.5q12 -1 21 -7t5 -21t-14 -29q-5 -7 -9 -13t-9 -10q5 6 9 12.5t9 15.5q4 7 8 19t-1 19q-3 4 -10 5t-14 0q-12 -1 -23.5 -4t-22.5 -8q-31 -11 -60.5 -26t-55.5 -29q9 -7 20.5 -11.5t28.5 -2.5q16 1 29.5 8t25.5 15q11 9 21.5 19t18.5 18
q-10 -13 -20 -25t-23 -23t-28.5 -19t-33.5 -10q-17 -1 -29 3t-22 10q-2 2 -4.5 4t-5.5 2q-5 1 -12.5 -3t-14.5 -6q-14 -5 -28 -5t-19 13q-4 -8 -11.5 -10.5t-16 -1t-17.5 4.5t-15 6q-4 1 -8 2.5t-6 0.5q-2 0 -6.5 -3.5t-7.5 -5.5q-24 -13 -48.5 -9t-43.5 16t-33 27.5
t-26 33.5q8 -10 18.5 -20t22.5 -19q12 -8 26 -14.5t30 -8.5q16 -1 27.5 3.5t19.5 12.5q-27 14 -58 29.5t-64 26.5q-11 4 -23.5 7.5t-24.5 2.5q-14 0 -17 -8t0.5 -18t7.5 -17q5 -9 9 -15.5t8 -13.5q-10 12 -18.5 25t-13.5 30v10q2 8 8.5 11t14.5 5zM280 377q6 2 11.5 4.5
t11.5 4.5q5 -19 10.5 -38t10.5 -39q2 -7 4 -13t3 -12v0l-26 46t-25 47zM144 141l11 -1q-3 -9 -10 -14t-15 -5q-10 0 -16 6q-5 5 -5 17q0 9 3 17q5 8 11 12q5 4 14 4t14 -5q6 -4 7 -13l-11 -1q-1 5 -3 7t-7 2q-3 0 -9 -2q-3 -3 -6 -9q-2 -4 -2 -12q0 -7 3 -10q4 -4 7 -4
q5 0 8 3q2 2 3 4t3 4zM196 146h-21l-5 -24h-11l12 54h11l-5 -21h21l5 21h11l-12 -54h-11zM225 122h-11l11 54h24q7 0 10 -1q3 -2 5 -5q2 -2 2 -8q0 -7 -4 -11q-5 -5 -12 -6q1 -1 1.5 -2t2.5 -3q2 -3 4 -7.5t4 -10.5h-12q-2 6 -6 14q-1 4 -4 7q-2 1 -6 1h-5zM231 152h6
q8 0 12 2q2 0 5 3q1 1 1 5q0 2 -2 4q-1 1 -7 1h-12zM267 122l12 54h11l-11 -54h-12zM291 140h10q0 -5 2 -7q1 -3 9 -3q4 0 8 2q2 4 2 5q0 2 -2 4q-1 1 -8 4q-3 2 -5 2.5t-4 2.5q-3 1 -4 4q-2 4 -2 7q0 6 5 11t14 5q10 0 15 -5q4 -2 6 -11l-11 -1q0 4 -3 6q-2 2 -7 2t-6 -1
q-2 -2 -2 -5q0 -2 2 -3q3 -3 8 -5q10 -3 11 -6q4 -4 4 -10t-6 -12q-5 -5 -15 -5q-6 0 -12 2q-6 3 -7 7q-3 5 -2 10zM366 122h-12l-9 54h11l7 -41l22 41h11zM389 122l11 54h11l-11 -54h-11zM411 122l11 54h11l-9 -45h27l-2 -9h-38zM456 122l12 54h40l-2 -9h-29l-3 -12h28
l-2 -9h-28l-3 -15h31l-1 -9h-43zM509 132h11l-3 -10h-10zM567 141l11 -1q-3 -9 -10 -14t-15 -5q-10 0 -16 6q-5 7 -5 17q0 9 3 17q5 8 11 12q5 4 14 4t14 -5q6 -4 7 -13l-11 -1q0 4 -3 7q-2 2 -7 2q-3 0 -9 -2q-3 -3 -6 -9q-2 -4 -2 -12q0 -7 3 -10q4 -4 7 -4q5 0 8 3
q4 3 6 8zM586 143q0 7 1 10q1 7 6 13q2 4 9 8q6 3 14 3q10 0 16 -6t6 -17q0 -9 -4 -16q-5 -9 -11 -13q-8 -4 -15 -4q-9 0 -13 4q-6 4 -7 8q-2 3 -2 10zM597 143q0 -5 3 -9q4 -4 9 -4t8 3q6 4 7 9q3 6 3 12q0 7 -3 10q-6 4 -9 4q-8 0 -13 -8q-5 -6 -5 -17zM672 122h-11l-2 45
l-8 -45h-10l11 54h16l1 -38l19 38h16l-11 -54h-11l11 45z" />
    <glyph glyph-name="parenleft" unicode="(" 
d="M405 250h-1q-3 45 -7.5 89.5t-6.5 89.5h29q-4 -45 -7.5 -89.5t-6.5 -89.5zM354 421q5 -42 8 -84l6 -84q-11 40 -21.5 81t-21.5 81q6 3 13.5 3.5t14.5 2.5h1zM487 416q-11 -42 -21.5 -82t-20.5 -82q2 42 6 84.5t7 84.5q13 -1 29 -5zM526 370q-12 -24 -25 -47.5t-25 -46.5
q5 25 12.5 50.5t14.5 51.5q6 -2 11.5 -4t11.5 -4zM137 576h17q46 -7 85 -22.5t77 -31.5q16 -6 31 -12t34 -8q-1 -1 -3 -2t-1 -3q5 4 11 7.5t11 7.5q2 -2 2.5 -4t2.5 -4q2 6 4 7q5 -4 11 -7.5t11 -7.5q0 2 -2 3.5t-2 2.5q17 1 31.5 6.5t29.5 11.5q14 5 27 11t28 12
q29 11 58 20q15 5 32 9.5t34 2.5q12 -1 21 -7t5 -21t-14 -29q-5 -7 -9 -13t-9 -10q5 6 9 12.5t9 15.5q4 7 8 19t-1 19q-3 4 -10 5t-14 0q-12 -1 -23.5 -4t-22.5 -8q-31 -11 -60.5 -26t-55.5 -29q9 -7 20.5 -11.5t28.5 -2.5q16 1 29.5 8t25.5 15q11 9 21.5 19t18.5 18
q-10 -13 -20 -25t-23 -23t-28.5 -19t-33.5 -10q-17 -1 -29 3t-22 10q-2 2 -4.5 4t-5.5 2q-5 1 -12.5 -3t-14.5 -6q-14 -5 -28 -5t-19 13q-4 -8 -11.5 -10.5t-16 -1t-17.5 4.5t-15 6q-4 1 -8 2.5t-6 0.5q-2 0 -6.5 -3.5t-7.5 -5.5q-24 -13 -48.5 -9t-43.5 16t-33 27.5
t-26 33.5q8 -10 18.5 -20t22.5 -19q12 -8 26 -14.5t30 -8.5q16 -1 27.5 3.5t19.5 12.5q-27 14 -58 29.5t-64 26.5q-11 4 -23.5 7.5t-24.5 2.5q-14 0 -17 -8t0.5 -18t7.5 -17q5 -9 9 -15.5t8 -13.5q-10 12 -18.5 25t-13.5 30v10q2 8 8.5 11t14.5 5zM280 377q6 2 11.5 4.5
t11.5 4.5q5 -19 10.5 -38t10.5 -39q2 -7 4 -13t3 -12v0l-26 46t-25 47zM144 141l11 -1q-3 -9 -10 -14t-15 -5q-10 0 -16 6q-5 5 -5 17q0 9 3 17q5 8 11 12q5 4 14 4t14 -5q6 -4 7 -13l-11 -1q-1 5 -3 7t-7 2q-3 0 -9 -2q-3 -3 -6 -9q-2 -4 -2 -12q0 -7 3 -10q4 -4 7 -4
q5 0 8 3q2 2 3 4t3 4zM196 146h-21l-5 -24h-11l12 54h11l-5 -21h21l5 21h11l-12 -54h-11zM225 122h-11l11 54h24q7 0 10 -1q3 -2 5 -5q2 -2 2 -8q0 -7 -4 -11q-5 -5 -12 -6q1 -1 1.5 -2t2.5 -3q2 -3 4 -7.5t4 -10.5h-12q-2 6 -6 14q-1 4 -4 7q-2 1 -6 1h-5zM231 152h6
q8 0 12 2q2 0 5 3q1 1 1 5q0 2 -2 4q-1 1 -7 1h-12zM267 122l12 54h11l-11 -54h-12zM291 140h10q0 -5 2 -7q1 -3 9 -3q4 0 8 2q2 4 2 5q0 2 -2 4q-1 1 -8 4q-3 2 -5 2.5t-4 2.5q-3 1 -4 4q-2 4 -2 7q0 6 5 11t14 5q10 0 15 -5q4 -2 6 -11l-11 -1q0 4 -3 6q-2 2 -7 2t-6 -1
q-2 -2 -2 -5q0 -2 2 -3q3 -3 8 -5q10 -3 11 -6q4 -4 4 -10t-6 -12q-5 -5 -15 -5q-6 0 -12 2q-6 3 -7 7q-3 5 -2 10zM366 122h-12l-9 54h11l7 -41l22 41h11zM389 122l11 54h11l-11 -54h-11zM411 122l11 54h11l-9 -45h27l-2 -9h-38zM456 122l12 54h40l-2 -9h-29l-3 -12h28
l-2 -9h-28l-3 -15h31l-1 -9h-43zM509 132h11l-3 -10h-10zM567 141l11 -1q-3 -9 -10 -14t-15 -5q-10 0 -16 6q-5 7 -5 17q0 9 3 17q5 8 11 12q5 4 14 4t14 -5q6 -4 7 -13l-11 -1q0 4 -3 7q-2 2 -7 2q-3 0 -9 -2q-3 -3 -6 -9q-2 -4 -2 -12q0 -7 3 -10q4 -4 7 -4q5 0 8 3
q4 3 6 8zM586 143q0 7 1 10q1 7 6 13q2 4 9 8q6 3 14 3q10 0 16 -6t6 -17q0 -9 -4 -16q-5 -9 -11 -13q-8 -4 -15 -4q-9 0 -13 4q-6 4 -7 8q-2 3 -2 10zM597 143q0 -5 3 -9q4 -4 9 -4t8 3q6 4 7 9q3 6 3 12q0 7 -3 10q-6 4 -9 4q-8 0 -13 -8q-5 -6 -5 -17zM672 122h-11l-2 45
l-8 -45h-10l11 54h16l1 -38l19 38h16l-11 -54h-11l11 45z" />
    <glyph glyph-name="parenright" unicode=")" 
d="M405 250h-1q-3 45 -7.5 89.5t-6.5 89.5h29q-4 -45 -7.5 -89.5t-6.5 -89.5zM354 421q5 -42 8 -84l6 -84q-11 40 -21.5 81t-21.5 81q6 3 13.5 3.5t14.5 2.5h1zM487 416q-11 -42 -21.5 -82t-20.5 -82q2 42 6 84.5t7 84.5q13 -1 29 -5zM526 370q-12 -24 -25 -47.5t-25 -46.5
q5 25 12.5 50.5t14.5 51.5q6 -2 11.5 -4t11.5 -4zM137 576h17q46 -7 85 -22.5t77 -31.5q16 -6 31 -12t34 -8q-1 -1 -3 -2t-1 -3q5 4 11 7.5t11 7.5q2 -2 2.5 -4t2.5 -4q2 6 4 7q5 -4 11 -7.5t11 -7.5q0 2 -2 3.5t-2 2.5q17 1 31.5 6.5t29.5 11.5q14 5 27 11t28 12
q29 11 58 20q15 5 32 9.5t34 2.5q12 -1 21 -7t5 -21t-14 -29q-5 -7 -9 -13t-9 -10q5 6 9 12.5t9 15.5q4 7 8 19t-1 19q-3 4 -10 5t-14 0q-12 -1 -23.5 -4t-22.5 -8q-31 -11 -60.5 -26t-55.5 -29q9 -7 20.5 -11.5t28.5 -2.5q16 1 29.5 8t25.5 15q11 9 21.5 19t18.5 18
q-10 -13 -20 -25t-23 -23t-28.5 -19t-33.5 -10q-17 -1 -29 3t-22 10q-2 2 -4.5 4t-5.5 2q-5 1 -12.5 -3t-14.5 -6q-14 -5 -28 -5t-19 13q-4 -8 -11.5 -10.5t-16 -1t-17.5 4.5t-15 6q-4 1 -8 2.5t-6 0.5q-2 0 -6.5 -3.5t-7.5 -5.5q-24 -13 -48.5 -9t-43.5 16t-33 27.5
t-26 33.5q8 -10 18.5 -20t22.5 -19q12 -8 26 -14.5t30 -8.5q16 -1 27.5 3.5t19.5 12.5q-27 14 -58 29.5t-64 26.5q-11 4 -23.5 7.5t-24.5 2.5q-14 0 -17 -8t0.5 -18t7.5 -17q5 -9 9 -15.5t8 -13.5q-10 12 -18.5 25t-13.5 30v10q2 8 8.5 11t14.5 5zM280 377q6 2 11.5 4.5
t11.5 4.5q5 -19 10.5 -38t10.5 -39q2 -7 4 -13t3 -12v0l-26 46t-25 47zM144 141l11 -1q-3 -9 -10 -14t-15 -5q-10 0 -16 6q-5 5 -5 17q0 9 3 17q5 8 11 12q5 4 14 4t14 -5q6 -4 7 -13l-11 -1q-1 5 -3 7t-7 2q-3 0 -9 -2q-3 -3 -6 -9q-2 -4 -2 -12q0 -7 3 -10q4 -4 7 -4
q5 0 8 3q2 2 3 4t3 4zM196 146h-21l-5 -24h-11l12 54h11l-5 -21h21l5 21h11l-12 -54h-11zM225 122h-11l11 54h24q7 0 10 -1q3 -2 5 -5q2 -2 2 -8q0 -7 -4 -11q-5 -5 -12 -6q1 -1 1.5 -2t2.5 -3q2 -3 4 -7.5t4 -10.5h-12q-2 6 -6 14q-1 4 -4 7q-2 1 -6 1h-5zM231 152h6
q8 0 12 2q2 0 5 3q1 1 1 5q0 2 -2 4q-1 1 -7 1h-12zM267 122l12 54h11l-11 -54h-12zM291 140h10q0 -5 2 -7q1 -3 9 -3q4 0 8 2q2 4 2 5q0 2 -2 4q-1 1 -8 4q-3 2 -5 2.5t-4 2.5q-3 1 -4 4q-2 4 -2 7q0 6 5 11t14 5q10 0 15 -5q4 -2 6 -11l-11 -1q0 4 -3 6q-2 2 -7 2t-6 -1
q-2 -2 -2 -5q0 -2 2 -3q3 -3 8 -5q10 -3 11 -6q4 -4 4 -10t-6 -12q-5 -5 -15 -5q-6 0 -12 2q-6 3 -7 7q-3 5 -2 10zM366 122h-12l-9 54h11l7 -41l22 41h11zM389 122l11 54h11l-11 -54h-11zM411 122l11 54h11l-9 -45h27l-2 -9h-38zM456 122l12 54h40l-2 -9h-29l-3 -12h28
l-2 -9h-28l-3 -15h31l-1 -9h-43zM509 132h11l-3 -10h-10zM567 141l11 -1q-3 -9 -10 -14t-15 -5q-10 0 -16 6q-5 7 -5 17q0 9 3 17q5 8 11 12q5 4 14 4t14 -5q6 -4 7 -13l-11 -1q0 4 -3 7q-2 2 -7 2q-3 0 -9 -2q-3 -3 -6 -9q-2 -4 -2 -12q0 -7 3 -10q4 -4 7 -4q5 0 8 3
q4 3 6 8zM586 143q0 7 1 10q1 7 6 13q2 4 9 8q6 3 14 3q10 0 16 -6t6 -17q0 -9 -4 -16q-5 -9 -11 -13q-8 -4 -15 -4q-9 0 -13 4q-6 4 -7 8q-2 3 -2 10zM597 143q0 -5 3 -9q4 -4 9 -4t8 3q6 4 7 9q3 6 3 12q0 7 -3 10q-6 4 -9 4q-8 0 -13 -8q-5 -6 -5 -17zM672 122h-11l-2 45
l-8 -45h-10l11 54h16l1 -38l19 38h16l-11 -54h-11l11 45z" />
    <glyph glyph-name="asterisk" unicode="*" 
d="M405 250h-1q-3 45 -7.5 89.5t-6.5 89.5h29q-4 -45 -7.5 -89.5t-6.5 -89.5zM354 421q5 -42 8 -84l6 -84q-11 40 -21.5 81t-21.5 81q6 3 13.5 3.5t14.5 2.5h1zM487 416q-11 -42 -21.5 -82t-20.5 -82q2 42 6 84.5t7 84.5q13 -1 29 -5zM526 370q-12 -24 -25 -47.5t-25 -46.5
q5 25 12.5 50.5t14.5 51.5q6 -2 11.5 -4t11.5 -4zM137 576h17q46 -7 85 -22.5t77 -31.5q16 -6 31 -12t34 -8q-1 -1 -3 -2t-1 -3q5 4 11 7.5t11 7.5q2 -2 2.5 -4t2.5 -4q2 6 4 7q5 -4 11 -7.5t11 -7.5q0 2 -2 3.5t-2 2.5q17 1 31.5 6.5t29.5 11.5q14 5 27 11t28 12
q29 11 58 20q15 5 32 9.5t34 2.5q12 -1 21 -7t5 -21t-14 -29q-5 -7 -9 -13t-9 -10q5 6 9 12.5t9 15.5q4 7 8 19t-1 19q-3 4 -10 5t-14 0q-12 -1 -23.5 -4t-22.5 -8q-31 -11 -60.5 -26t-55.5 -29q9 -7 20.5 -11.5t28.5 -2.5q16 1 29.5 8t25.5 15q11 9 21.5 19t18.5 18
q-10 -13 -20 -25t-23 -23t-28.5 -19t-33.5 -10q-17 -1 -29 3t-22 10q-2 2 -4.5 4t-5.5 2q-5 1 -12.5 -3t-14.5 -6q-14 -5 -28 -5t-19 13q-4 -8 -11.5 -10.5t-16 -1t-17.5 4.5t-15 6q-4 1 -8 2.5t-6 0.5q-2 0 -6.5 -3.5t-7.5 -5.5q-24 -13 -48.5 -9t-43.5 16t-33 27.5
t-26 33.5q8 -10 18.5 -20t22.5 -19q12 -8 26 -14.5t30 -8.5q16 -1 27.5 3.5t19.5 12.5q-27 14 -58 29.5t-64 26.5q-11 4 -23.5 7.5t-24.5 2.5q-14 0 -17 -8t0.5 -18t7.5 -17q5 -9 9 -15.5t8 -13.5q-10 12 -18.5 25t-13.5 30v10q2 8 8.5 11t14.5 5zM280 377q6 2 11.5 4.5
t11.5 4.5q5 -19 10.5 -38t10.5 -39q2 -7 4 -13t3 -12v0l-26 46t-25 47zM144 141l11 -1q-3 -9 -10 -14t-15 -5q-10 0 -16 6q-5 5 -5 17q0 9 3 17q5 8 11 12q5 4 14 4t14 -5q6 -4 7 -13l-11 -1q-1 5 -3 7t-7 2q-3 0 -9 -2q-3 -3 -6 -9q-2 -4 -2 -12q0 -7 3 -10q4 -4 7 -4
q5 0 8 3q2 2 3 4t3 4zM196 146h-21l-5 -24h-11l12 54h11l-5 -21h21l5 21h11l-12 -54h-11zM225 122h-11l11 54h24q7 0 10 -1q3 -2 5 -5q2 -2 2 -8q0 -7 -4 -11q-5 -5 -12 -6q1 -1 1.5 -2t2.5 -3q2 -3 4 -7.5t4 -10.5h-12q-2 6 -6 14q-1 4 -4 7q-2 1 -6 1h-5zM231 152h6
q8 0 12 2q2 0 5 3q1 1 1 5q0 2 -2 4q-1 1 -7 1h-12zM267 122l12 54h11l-11 -54h-12zM291 140h10q0 -5 2 -7q1 -3 9 -3q4 0 8 2q2 4 2 5q0 2 -2 4q-1 1 -8 4q-3 2 -5 2.5t-4 2.5q-3 1 -4 4q-2 4 -2 7q0 6 5 11t14 5q10 0 15 -5q4 -2 6 -11l-11 -1q0 4 -3 6q-2 2 -7 2t-6 -1
q-2 -2 -2 -5q0 -2 2 -3q3 -3 8 -5q10 -3 11 -6q4 -4 4 -10t-6 -12q-5 -5 -15 -5q-6 0 -12 2q-6 3 -7 7q-3 5 -2 10zM366 122h-12l-9 54h11l7 -41l22 41h11zM389 122l11 54h11l-11 -54h-11zM411 122l11 54h11l-9 -45h27l-2 -9h-38zM456 122l12 54h40l-2 -9h-29l-3 -12h28
l-2 -9h-28l-3 -15h31l-1 -9h-43zM509 132h11l-3 -10h-10zM567 141l11 -1q-3 -9 -10 -14t-15 -5q-10 0 -16 6q-5 7 -5 17q0 9 3 17q5 8 11 12q5 4 14 4t14 -5q6 -4 7 -13l-11 -1q0 4 -3 7q-2 2 -7 2q-3 0 -9 -2q-3 -3 -6 -9q-2 -4 -2 -12q0 -7 3 -10q4 -4 7 -4q5 0 8 3
q4 3 6 8zM586 143q0 7 1 10q1 7 6 13q2 4 9 8q6 3 14 3q10 0 16 -6t6 -17q0 -9 -4 -16q-5 -9 -11 -13q-8 -4 -15 -4q-9 0 -13 4q-6 4 -7 8q-2 3 -2 10zM597 143q0 -5 3 -9q4 -4 9 -4t8 3q6 4 7 9q3 6 3 12q0 7 -3 10q-6 4 -9 4q-8 0 -13 -8q-5 -6 -5 -17zM672 122h-11l-2 45
l-8 -45h-10l11 54h16l1 -38l19 38h16l-11 -54h-11l11 45z" />
    <glyph glyph-name="plus" unicode="+" 
d="M405 250h-1q-3 45 -7.5 89.5t-6.5 89.5h29q-4 -45 -7.5 -89.5t-6.5 -89.5zM354 421q5 -42 8 -84l6 -84q-11 40 -21.5 81t-21.5 81q6 3 13.5 3.5t14.5 2.5h1zM487 416q-11 -42 -21.5 -82t-20.5 -82q2 42 6 84.5t7 84.5q13 -1 29 -5zM526 370q-12 -24 -25 -47.5t-25 -46.5
q5 25 12.5 50.5t14.5 51.5q6 -2 11.5 -4t11.5 -4zM137 576h17q46 -7 85 -22.5t77 -31.5q16 -6 31 -12t34 -8q-1 -1 -3 -2t-1 -3q5 4 11 7.5t11 7.5q2 -2 2.5 -4t2.5 -4q2 6 4 7q5 -4 11 -7.5t11 -7.5q0 2 -2 3.5t-2 2.5q17 1 31.5 6.5t29.5 11.5q14 5 27 11t28 12
q29 11 58 20q15 5 32 9.5t34 2.5q12 -1 21 -7t5 -21t-14 -29q-5 -7 -9 -13t-9 -10q5 6 9 12.5t9 15.5q4 7 8 19t-1 19q-3 4 -10 5t-14 0q-12 -1 -23.5 -4t-22.5 -8q-31 -11 -60.5 -26t-55.5 -29q9 -7 20.5 -11.5t28.5 -2.5q16 1 29.5 8t25.5 15q11 9 21.5 19t18.5 18
q-10 -13 -20 -25t-23 -23t-28.5 -19t-33.5 -10q-17 -1 -29 3t-22 10q-2 2 -4.5 4t-5.5 2q-5 1 -12.5 -3t-14.5 -6q-14 -5 -28 -5t-19 13q-4 -8 -11.5 -10.5t-16 -1t-17.5 4.5t-15 6q-4 1 -8 2.5t-6 0.5q-2 0 -6.5 -3.5t-7.5 -5.5q-24 -13 -48.5 -9t-43.5 16t-33 27.5
t-26 33.5q8 -10 18.5 -20t22.5 -19q12 -8 26 -14.5t30 -8.5q16 -1 27.5 3.5t19.5 12.5q-27 14 -58 29.5t-64 26.5q-11 4 -23.5 7.5t-24.5 2.5q-14 0 -17 -8t0.5 -18t7.5 -17q5 -9 9 -15.5t8 -13.5q-10 12 -18.5 25t-13.5 30v10q2 8 8.5 11t14.5 5zM280 377q6 2 11.5 4.5
t11.5 4.5q5 -19 10.5 -38t10.5 -39q2 -7 4 -13t3 -12v0l-26 46t-25 47zM144 141l11 -1q-3 -9 -10 -14t-15 -5q-10 0 -16 6q-5 5 -5 17q0 9 3 17q5 8 11 12q5 4 14 4t14 -5q6 -4 7 -13l-11 -1q-1 5 -3 7t-7 2q-3 0 -9 -2q-3 -3 -6 -9q-2 -4 -2 -12q0 -7 3 -10q4 -4 7 -4
q5 0 8 3q2 2 3 4t3 4zM196 146h-21l-5 -24h-11l12 54h11l-5 -21h21l5 21h11l-12 -54h-11zM225 122h-11l11 54h24q7 0 10 -1q3 -2 5 -5q2 -2 2 -8q0 -7 -4 -11q-5 -5 -12 -6q1 -1 1.5 -2t2.5 -3q2 -3 4 -7.5t4 -10.5h-12q-2 6 -6 14q-1 4 -4 7q-2 1 -6 1h-5zM231 152h6
q8 0 12 2q2 0 5 3q1 1 1 5q0 2 -2 4q-1 1 -7 1h-12zM267 122l12 54h11l-11 -54h-12zM291 140h10q0 -5 2 -7q1 -3 9 -3q4 0 8 2q2 4 2 5q0 2 -2 4q-1 1 -8 4q-3 2 -5 2.5t-4 2.5q-3 1 -4 4q-2 4 -2 7q0 6 5 11t14 5q10 0 15 -5q4 -2 6 -11l-11 -1q0 4 -3 6q-2 2 -7 2t-6 -1
q-2 -2 -2 -5q0 -2 2 -3q3 -3 8 -5q10 -3 11 -6q4 -4 4 -10t-6 -12q-5 -5 -15 -5q-6 0 -12 2q-6 3 -7 7q-3 5 -2 10zM366 122h-12l-9 54h11l7 -41l22 41h11zM389 122l11 54h11l-11 -54h-11zM411 122l11 54h11l-9 -45h27l-2 -9h-38zM456 122l12 54h40l-2 -9h-29l-3 -12h28
l-2 -9h-28l-3 -15h31l-1 -9h-43zM509 132h11l-3 -10h-10zM567 141l11 -1q-3 -9 -10 -14t-15 -5q-10 0 -16 6q-5 7 -5 17q0 9 3 17q5 8 11 12q5 4 14 4t14 -5q6 -4 7 -13l-11 -1q0 4 -3 7q-2 2 -7 2q-3 0 -9 -2q-3 -3 -6 -9q-2 -4 -2 -12q0 -7 3 -10q4 -4 7 -4q5 0 8 3
q4 3 6 8zM586 143q0 7 1 10q1 7 6 13q2 4 9 8q6 3 14 3q10 0 16 -6t6 -17q0 -9 -4 -16q-5 -9 -11 -13q-8 -4 -15 -4q-9 0 -13 4q-6 4 -7 8q-2 3 -2 10zM597 143q0 -5 3 -9q4 -4 9 -4t8 3q6 4 7 9q3 6 3 12q0 7 -3 10q-6 4 -9 4q-8 0 -13 -8q-5 -6 -5 -17zM672 122h-11l-2 45
l-8 -45h-10l11 54h16l1 -38l19 38h16l-11 -54h-11l11 45z" />
    <glyph glyph-name="comma" unicode="," 
d="M405 250h-1q-3 45 -7.5 89.5t-6.5 89.5h29q-4 -45 -7.5 -89.5t-6.5 -89.5zM354 421q5 -42 8 -84l6 -84q-11 40 -21.5 81t-21.5 81q6 3 13.5 3.5t14.5 2.5h1zM487 416q-11 -42 -21.5 -82t-20.5 -82q2 42 6 84.5t7 84.5q13 -1 29 -5zM526 370q-12 -24 -25 -47.5t-25 -46.5
q5 25 12.5 50.5t14.5 51.5q6 -2 11.5 -4t11.5 -4zM137 576h17q46 -7 85 -22.5t77 -31.5q16 -6 31 -12t34 -8q-1 -1 -3 -2t-1 -3q5 4 11 7.5t11 7.5q2 -2 2.5 -4t2.5 -4q2 6 4 7q5 -4 11 -7.5t11 -7.5q0 2 -2 3.5t-2 2.5q17 1 31.5 6.5t29.5 11.5q14 5 27 11t28 12
q29 11 58 20q15 5 32 9.5t34 2.5q12 -1 21 -7t5 -21t-14 -29q-5 -7 -9 -13t-9 -10q5 6 9 12.5t9 15.5q4 7 8 19t-1 19q-3 4 -10 5t-14 0q-12 -1 -23.5 -4t-22.5 -8q-31 -11 -60.5 -26t-55.5 -29q9 -7 20.5 -11.5t28.5 -2.5q16 1 29.5 8t25.5 15q11 9 21.5 19t18.5 18
q-10 -13 -20 -25t-23 -23t-28.5 -19t-33.5 -10q-17 -1 -29 3t-22 10q-2 2 -4.5 4t-5.5 2q-5 1 -12.5 -3t-14.5 -6q-14 -5 -28 -5t-19 13q-4 -8 -11.5 -10.5t-16 -1t-17.5 4.5t-15 6q-4 1 -8 2.5t-6 0.5q-2 0 -6.5 -3.5t-7.5 -5.5q-24 -13 -48.5 -9t-43.5 16t-33 27.5
t-26 33.5q8 -10 18.5 -20t22.5 -19q12 -8 26 -14.5t30 -8.5q16 -1 27.5 3.5t19.5 12.5q-27 14 -58 29.5t-64 26.5q-11 4 -23.5 7.5t-24.5 2.5q-14 0 -17 -8t0.5 -18t7.5 -17q5 -9 9 -15.5t8 -13.5q-10 12 -18.5 25t-13.5 30v10q2 8 8.5 11t14.5 5zM280 377q6 2 11.5 4.5
t11.5 4.5q5 -19 10.5 -38t10.5 -39q2 -7 4 -13t3 -12v0l-26 46t-25 47zM144 141l11 -1q-3 -9 -10 -14t-15 -5q-10 0 -16 6q-5 5 -5 17q0 9 3 17q5 8 11 12q5 4 14 4t14 -5q6 -4 7 -13l-11 -1q-1 5 -3 7t-7 2q-3 0 -9 -2q-3 -3 -6 -9q-2 -4 -2 -12q0 -7 3 -10q4 -4 7 -4
q5 0 8 3q2 2 3 4t3 4zM196 146h-21l-5 -24h-11l12 54h11l-5 -21h21l5 21h11l-12 -54h-11zM225 122h-11l11 54h24q7 0 10 -1q3 -2 5 -5q2 -2 2 -8q0 -7 -4 -11q-5 -5 -12 -6q1 -1 1.5 -2t2.5 -3q2 -3 4 -7.5t4 -10.5h-12q-2 6 -6 14q-1 4 -4 7q-2 1 -6 1h-5zM231 152h6
q8 0 12 2q2 0 5 3q1 1 1 5q0 2 -2 4q-1 1 -7 1h-12zM267 122l12 54h11l-11 -54h-12zM291 140h10q0 -5 2 -7q1 -3 9 -3q4 0 8 2q2 4 2 5q0 2 -2 4q-1 1 -8 4q-3 2 -5 2.5t-4 2.5q-3 1 -4 4q-2 4 -2 7q0 6 5 11t14 5q10 0 15 -5q4 -2 6 -11l-11 -1q0 4 -3 6q-2 2 -7 2t-6 -1
q-2 -2 -2 -5q0 -2 2 -3q3 -3 8 -5q10 -3 11 -6q4 -4 4 -10t-6 -12q-5 -5 -15 -5q-6 0 -12 2q-6 3 -7 7q-3 5 -2 10zM366 122h-12l-9 54h11l7 -41l22 41h11zM389 122l11 54h11l-11 -54h-11zM411 122l11 54h11l-9 -45h27l-2 -9h-38zM456 122l12 54h40l-2 -9h-29l-3 -12h28
l-2 -9h-28l-3 -15h31l-1 -9h-43zM509 132h11l-3 -10h-10zM567 141l11 -1q-3 -9 -10 -14t-15 -5q-10 0 -16 6q-5 7 -5 17q0 9 3 17q5 8 11 12q5 4 14 4t14 -5q6 -4 7 -13l-11 -1q0 4 -3 7q-2 2 -7 2q-3 0 -9 -2q-3 -3 -6 -9q-2 -4 -2 -12q0 -7 3 -10q4 -4 7 -4q5 0 8 3
q4 3 6 8zM586 143q0 7 1 10q1 7 6 13q2 4 9 8q6 3 14 3q10 0 16 -6t6 -17q0 -9 -4 -16q-5 -9 -11 -13q-8 -4 -15 -4q-9 0 -13 4q-6 4 -7 8q-2 3 -2 10zM597 143q0 -5 3 -9q4 -4 9 -4t8 3q6 4 7 9q3 6 3 12q0 7 -3 10q-6 4 -9 4q-8 0 -13 -8q-5 -6 -5 -17zM672 122h-11l-2 45
l-8 -45h-10l11 54h16l1 -38l19 38h16l-11 -54h-11l11 45z" />
    <glyph glyph-name="hyphen" unicode="-" 
d="M405 250h-1q-3 45 -7.5 89.5t-6.5 89.5h29q-4 -45 -7.5 -89.5t-6.5 -89.5zM354 421q5 -42 8 -84l6 -84q-11 40 -21.5 81t-21.5 81q6 3 13.5 3.5t14.5 2.5h1zM487 416q-11 -42 -21.5 -82t-20.5 -82q2 42 6 84.5t7 84.5q13 -1 29 -5zM526 370q-12 -24 -25 -47.5t-25 -46.5
q5 25 12.5 50.5t14.5 51.5q6 -2 11.5 -4t11.5 -4zM137 576h17q46 -7 85 -22.5t77 -31.5q16 -6 31 -12t34 -8q-1 -1 -3 -2t-1 -3q5 4 11 7.5t11 7.5q2 -2 2.5 -4t2.5 -4q2 6 4 7q5 -4 11 -7.5t11 -7.5q0 2 -2 3.5t-2 2.5q17 1 31.5 6.5t29.5 11.5q14 5 27 11t28 12
q29 11 58 20q15 5 32 9.5t34 2.5q12 -1 21 -7t5 -21t-14 -29q-5 -7 -9 -13t-9 -10q5 6 9 12.5t9 15.5q4 7 8 19t-1 19q-3 4 -10 5t-14 0q-12 -1 -23.5 -4t-22.5 -8q-31 -11 -60.5 -26t-55.5 -29q9 -7 20.5 -11.5t28.5 -2.5q16 1 29.5 8t25.5 15q11 9 21.5 19t18.5 18
q-10 -13 -20 -25t-23 -23t-28.5 -19t-33.5 -10q-17 -1 -29 3t-22 10q-2 2 -4.5 4t-5.5 2q-5 1 -12.5 -3t-14.5 -6q-14 -5 -28 -5t-19 13q-4 -8 -11.5 -10.5t-16 -1t-17.5 4.5t-15 6q-4 1 -8 2.5t-6 0.5q-2 0 -6.5 -3.5t-7.5 -5.5q-24 -13 -48.5 -9t-43.5 16t-33 27.5
t-26 33.5q8 -10 18.5 -20t22.5 -19q12 -8 26 -14.5t30 -8.5q16 -1 27.5 3.5t19.5 12.5q-27 14 -58 29.5t-64 26.5q-11 4 -23.5 7.5t-24.5 2.5q-14 0 -17 -8t0.5 -18t7.5 -17q5 -9 9 -15.5t8 -13.5q-10 12 -18.5 25t-13.5 30v10q2 8 8.5 11t14.5 5zM280 377q6 2 11.5 4.5
t11.5 4.5q5 -19 10.5 -38t10.5 -39q2 -7 4 -13t3 -12v0l-26 46t-25 47zM144 141l11 -1q-3 -9 -10 -14t-15 -5q-10 0 -16 6q-5 5 -5 17q0 9 3 17q5 8 11 12q5 4 14 4t14 -5q6 -4 7 -13l-11 -1q-1 5 -3 7t-7 2q-3 0 -9 -2q-3 -3 -6 -9q-2 -4 -2 -12q0 -7 3 -10q4 -4 7 -4
q5 0 8 3q2 2 3 4t3 4zM196 146h-21l-5 -24h-11l12 54h11l-5 -21h21l5 21h11l-12 -54h-11zM225 122h-11l11 54h24q7 0 10 -1q3 -2 5 -5q2 -2 2 -8q0 -7 -4 -11q-5 -5 -12 -6q1 -1 1.5 -2t2.5 -3q2 -3 4 -7.5t4 -10.5h-12q-2 6 -6 14q-1 4 -4 7q-2 1 -6 1h-5zM231 152h6
q8 0 12 2q2 0 5 3q1 1 1 5q0 2 -2 4q-1 1 -7 1h-12zM267 122l12 54h11l-11 -54h-12zM291 140h10q0 -5 2 -7q1 -3 9 -3q4 0 8 2q2 4 2 5q0 2 -2 4q-1 1 -8 4q-3 2 -5 2.5t-4 2.5q-3 1 -4 4q-2 4 -2 7q0 6 5 11t14 5q10 0 15 -5q4 -2 6 -11l-11 -1q0 4 -3 6q-2 2 -7 2t-6 -1
q-2 -2 -2 -5q0 -2 2 -3q3 -3 8 -5q10 -3 11 -6q4 -4 4 -10t-6 -12q-5 -5 -15 -5q-6 0 -12 2q-6 3 -7 7q-3 5 -2 10zM366 122h-12l-9 54h11l7 -41l22 41h11zM389 122l11 54h11l-11 -54h-11zM411 122l11 54h11l-9 -45h27l-2 -9h-38zM456 122l12 54h40l-2 -9h-29l-3 -12h28
l-2 -9h-28l-3 -15h31l-1 -9h-43zM509 132h11l-3 -10h-10zM567 141l11 -1q-3 -9 -10 -14t-15 -5q-10 0 -16 6q-5 7 -5 17q0 9 3 17q5 8 11 12q5 4 14 4t14 -5q6 -4 7 -13l-11 -1q0 4 -3 7q-2 2 -7 2q-3 0 -9 -2q-3 -3 -6 -9q-2 -4 -2 -12q0 -7 3 -10q4 -4 7 -4q5 0 8 3
q4 3 6 8zM586 143q0 7 1 10q1 7 6 13q2 4 9 8q6 3 14 3q10 0 16 -6t6 -17q0 -9 -4 -16q-5 -9 -11 -13q-8 -4 -15 -4q-9 0 -13 4q-6 4 -7 8q-2 3 -2 10zM597 143q0 -5 3 -9q4 -4 9 -4t8 3q6 4 7 9q3 6 3 12q0 7 -3 10q-6 4 -9 4q-8 0 -13 -8q-5 -6 -5 -17zM672 122h-11l-2 45
l-8 -45h-10l11 54h16l1 -38l19 38h16l-11 -54h-11l11 45z" />
    <glyph glyph-name="period" unicode="." 
d="M405 250h-1q-3 45 -7.5 89.5t-6.5 89.5h29q-4 -45 -7.5 -89.5t-6.5 -89.5zM354 421q5 -42 8 -84l6 -84q-11 40 -21.5 81t-21.5 81q6 3 13.5 3.5t14.5 2.5h1zM487 416q-11 -42 -21.5 -82t-20.5 -82q2 42 6 84.5t7 84.5q13 -1 29 -5zM526 370q-12 -24 -25 -47.5t-25 -46.5
q5 25 12.5 50.5t14.5 51.5q6 -2 11.5 -4t11.5 -4zM137 576h17q46 -7 85 -22.5t77 -31.5q16 -6 31 -12t34 -8q-1 -1 -3 -2t-1 -3q5 4 11 7.5t11 7.5q2 -2 2.5 -4t2.5 -4q2 6 4 7q5 -4 11 -7.5t11 -7.5q0 2 -2 3.5t-2 2.5q17 1 31.5 6.5t29.5 11.5q14 5 27 11t28 12
q29 11 58 20q15 5 32 9.5t34 2.5q12 -1 21 -7t5 -21t-14 -29q-5 -7 -9 -13t-9 -10q5 6 9 12.5t9 15.5q4 7 8 19t-1 19q-3 4 -10 5t-14 0q-12 -1 -23.5 -4t-22.5 -8q-31 -11 -60.5 -26t-55.5 -29q9 -7 20.5 -11.5t28.5 -2.5q16 1 29.5 8t25.5 15q11 9 21.5 19t18.5 18
q-10 -13 -20 -25t-23 -23t-28.5 -19t-33.5 -10q-17 -1 -29 3t-22 10q-2 2 -4.5 4t-5.5 2q-5 1 -12.5 -3t-14.5 -6q-14 -5 -28 -5t-19 13q-4 -8 -11.5 -10.5t-16 -1t-17.5 4.5t-15 6q-4 1 -8 2.5t-6 0.5q-2 0 -6.5 -3.5t-7.5 -5.5q-24 -13 -48.5 -9t-43.5 16t-33 27.5
t-26 33.5q8 -10 18.5 -20t22.5 -19q12 -8 26 -14.5t30 -8.5q16 -1 27.5 3.5t19.5 12.5q-27 14 -58 29.5t-64 26.5q-11 4 -23.5 7.5t-24.5 2.5q-14 0 -17 -8t0.5 -18t7.5 -17q5 -9 9 -15.5t8 -13.5q-10 12 -18.5 25t-13.5 30v10q2 8 8.5 11t14.5 5zM280 377q6 2 11.5 4.5
t11.5 4.5q5 -19 10.5 -38t10.5 -39q2 -7 4 -13t3 -12v0l-26 46t-25 47zM144 141l11 -1q-3 -9 -10 -14t-15 -5q-10 0 -16 6q-5 5 -5 17q0 9 3 17q5 8 11 12q5 4 14 4t14 -5q6 -4 7 -13l-11 -1q-1 5 -3 7t-7 2q-3 0 -9 -2q-3 -3 -6 -9q-2 -4 -2 -12q0 -7 3 -10q4 -4 7 -4
q5 0 8 3q2 2 3 4t3 4zM196 146h-21l-5 -24h-11l12 54h11l-5 -21h21l5 21h11l-12 -54h-11zM225 122h-11l11 54h24q7 0 10 -1q3 -2 5 -5q2 -2 2 -8q0 -7 -4 -11q-5 -5 -12 -6q1 -1 1.5 -2t2.5 -3q2 -3 4 -7.5t4 -10.5h-12q-2 6 -6 14q-1 4 -4 7q-2 1 -6 1h-5zM231 152h6
q8 0 12 2q2 0 5 3q1 1 1 5q0 2 -2 4q-1 1 -7 1h-12zM267 122l12 54h11l-11 -54h-12zM291 140h10q0 -5 2 -7q1 -3 9 -3q4 0 8 2q2 4 2 5q0 2 -2 4q-1 1 -8 4q-3 2 -5 2.5t-4 2.5q-3 1 -4 4q-2 4 -2 7q0 6 5 11t14 5q10 0 15 -5q4 -2 6 -11l-11 -1q0 4 -3 6q-2 2 -7 2t-6 -1
q-2 -2 -2 -5q0 -2 2 -3q3 -3 8 -5q10 -3 11 -6q4 -4 4 -10t-6 -12q-5 -5 -15 -5q-6 0 -12 2q-6 3 -7 7q-3 5 -2 10zM366 122h-12l-9 54h11l7 -41l22 41h11zM389 122l11 54h11l-11 -54h-11zM411 122l11 54h11l-9 -45h27l-2 -9h-38zM456 122l12 54h40l-2 -9h-29l-3 -12h28
l-2 -9h-28l-3 -15h31l-1 -9h-43zM509 132h11l-3 -10h-10zM567 141l11 -1q-3 -9 -10 -14t-15 -5q-10 0 -16 6q-5 7 -5 17q0 9 3 17q5 8 11 12q5 4 14 4t14 -5q6 -4 7 -13l-11 -1q0 4 -3 7q-2 2 -7 2q-3 0 -9 -2q-3 -3 -6 -9q-2 -4 -2 -12q0 -7 3 -10q4 -4 7 -4q5 0 8 3
q4 3 6 8zM586 143q0 7 1 10q1 7 6 13q2 4 9 8q6 3 14 3q10 0 16 -6t6 -17q0 -9 -4 -16q-5 -9 -11 -13q-8 -4 -15 -4q-9 0 -13 4q-6 4 -7 8q-2 3 -2 10zM597 143q0 -5 3 -9q4 -4 9 -4t8 3q6 4 7 9q3 6 3 12q0 7 -3 10q-6 4 -9 4q-8 0 -13 -8q-5 -6 -5 -17zM672 122h-11l-2 45
l-8 -45h-10l11 54h16l1 -38l19 38h16l-11 -54h-11l11 45z" />
    <glyph glyph-name="slash" unicode="/" 
d="M405 250h-1q-3 45 -7.5 89.5t-6.5 89.5h29q-4 -45 -7.5 -89.5t-6.5 -89.5zM354 421q5 -42 8 -84l6 -84q-11 40 -21.5 81t-21.5 81q6 3 13.5 3.5t14.5 2.5h1zM487 416q-11 -42 -21.5 -82t-20.5 -82q2 42 6 84.5t7 84.5q13 -1 29 -5zM526 370q-12 -24 -25 -47.5t-25 -46.5
q5 25 12.5 50.5t14.5 51.5q6 -2 11.5 -4t11.5 -4zM137 576h17q46 -7 85 -22.5t77 -31.5q16 -6 31 -12t34 -8q-1 -1 -3 -2t-1 -3q5 4 11 7.5t11 7.5q2 -2 2.5 -4t2.5 -4q2 6 4 7q5 -4 11 -7.5t11 -7.5q0 2 -2 3.5t-2 2.5q17 1 31.5 6.5t29.5 11.5q14 5 27 11t28 12
q29 11 58 20q15 5 32 9.5t34 2.5q12 -1 21 -7t5 -21t-14 -29q-5 -7 -9 -13t-9 -10q5 6 9 12.5t9 15.5q4 7 8 19t-1 19q-3 4 -10 5t-14 0q-12 -1 -23.5 -4t-22.5 -8q-31 -11 -60.5 -26t-55.5 -29q9 -7 20.5 -11.5t28.5 -2.5q16 1 29.5 8t25.5 15q11 9 21.5 19t18.5 18
q-10 -13 -20 -25t-23 -23t-28.5 -19t-33.5 -10q-17 -1 -29 3t-22 10q-2 2 -4.5 4t-5.5 2q-5 1 -12.5 -3t-14.5 -6q-14 -5 -28 -5t-19 13q-4 -8 -11.5 -10.5t-16 -1t-17.5 4.5t-15 6q-4 1 -8 2.5t-6 0.5q-2 0 -6.5 -3.5t-7.5 -5.5q-24 -13 -48.5 -9t-43.5 16t-33 27.5
t-26 33.5q8 -10 18.5 -20t22.5 -19q12 -8 26 -14.5t30 -8.5q16 -1 27.5 3.5t19.5 12.5q-27 14 -58 29.5t-64 26.5q-11 4 -23.5 7.5t-24.5 2.5q-14 0 -17 -8t0.5 -18t7.5 -17q5 -9 9 -15.5t8 -13.5q-10 12 -18.5 25t-13.5 30v10q2 8 8.5 11t14.5 5zM280 377q6 2 11.5 4.5
t11.5 4.5q5 -19 10.5 -38t10.5 -39q2 -7 4 -13t3 -12v0l-26 46t-25 47zM144 141l11 -1q-3 -9 -10 -14t-15 -5q-10 0 -16 6q-5 5 -5 17q0 9 3 17q5 8 11 12q5 4 14 4t14 -5q6 -4 7 -13l-11 -1q-1 5 -3 7t-7 2q-3 0 -9 -2q-3 -3 -6 -9q-2 -4 -2 -12q0 -7 3 -10q4 -4 7 -4
q5 0 8 3q2 2 3 4t3 4zM196 146h-21l-5 -24h-11l12 54h11l-5 -21h21l5 21h11l-12 -54h-11zM225 122h-11l11 54h24q7 0 10 -1q3 -2 5 -5q2 -2 2 -8q0 -7 -4 -11q-5 -5 -12 -6q1 -1 1.5 -2t2.5 -3q2 -3 4 -7.5t4 -10.5h-12q-2 6 -6 14q-1 4 -4 7q-2 1 -6 1h-5zM231 152h6
q8 0 12 2q2 0 5 3q1 1 1 5q0 2 -2 4q-1 1 -7 1h-12zM267 122l12 54h11l-11 -54h-12zM291 140h10q0 -5 2 -7q1 -3 9 -3q4 0 8 2q2 4 2 5q0 2 -2 4q-1 1 -8 4q-3 2 -5 2.5t-4 2.5q-3 1 -4 4q-2 4 -2 7q0 6 5 11t14 5q10 0 15 -5q4 -2 6 -11l-11 -1q0 4 -3 6q-2 2 -7 2t-6 -1
q-2 -2 -2 -5q0 -2 2 -3q3 -3 8 -5q10 -3 11 -6q4 -4 4 -10t-6 -12q-5 -5 -15 -5q-6 0 -12 2q-6 3 -7 7q-3 5 -2 10zM366 122h-12l-9 54h11l7 -41l22 41h11zM389 122l11 54h11l-11 -54h-11zM411 122l11 54h11l-9 -45h27l-2 -9h-38zM456 122l12 54h40l-2 -9h-29l-3 -12h28
l-2 -9h-28l-3 -15h31l-1 -9h-43zM509 132h11l-3 -10h-10zM567 141l11 -1q-3 -9 -10 -14t-15 -5q-10 0 -16 6q-5 7 -5 17q0 9 3 17q5 8 11 12q5 4 14 4t14 -5q6 -4 7 -13l-11 -1q0 4 -3 7q-2 2 -7 2q-3 0 -9 -2q-3 -3 -6 -9q-2 -4 -2 -12q0 -7 3 -10q4 -4 7 -4q5 0 8 3
q4 3 6 8zM586 143q0 7 1 10q1 7 6 13q2 4 9 8q6 3 14 3q10 0 16 -6t6 -17q0 -9 -4 -16q-5 -9 -11 -13q-8 -4 -15 -4q-9 0 -13 4q-6 4 -7 8q-2 3 -2 10zM597 143q0 -5 3 -9q4 -4 9 -4t8 3q6 4 7 9q3 6 3 12q0 7 -3 10q-6 4 -9 4q-8 0 -13 -8q-5 -6 -5 -17zM672 122h-11l-2 45
l-8 -45h-10l11 54h16l1 -38l19 38h16l-11 -54h-11l11 45z" />
    <glyph glyph-name="zero" unicode="0" 
d="M405 250h-1q-3 45 -7.5 89.5t-6.5 89.5h29q-4 -45 -7.5 -89.5t-6.5 -89.5zM354 421q5 -42 8 -84l6 -84q-11 40 -21.5 81t-21.5 81q6 3 13.5 3.5t14.5 2.5h1zM487 416q-11 -42 -21.5 -82t-20.5 -82q2 42 6 84.5t7 84.5q13 -1 29 -5zM526 370q-12 -24 -25 -47.5t-25 -46.5
q5 25 12.5 50.5t14.5 51.5q6 -2 11.5 -4t11.5 -4zM137 576h17q46 -7 85 -22.5t77 -31.5q16 -6 31 -12t34 -8q-1 -1 -3 -2t-1 -3q5 4 11 7.5t11 7.5q2 -2 2.5 -4t2.5 -4q2 6 4 7q5 -4 11 -7.5t11 -7.5q0 2 -2 3.5t-2 2.5q17 1 31.5 6.5t29.5 11.5q14 5 27 11t28 12
q29 11 58 20q15 5 32 9.5t34 2.5q12 -1 21 -7t5 -21t-14 -29q-5 -7 -9 -13t-9 -10q5 6 9 12.5t9 15.5q4 7 8 19t-1 19q-3 4 -10 5t-14 0q-12 -1 -23.5 -4t-22.5 -8q-31 -11 -60.5 -26t-55.5 -29q9 -7 20.5 -11.5t28.5 -2.5q16 1 29.5 8t25.5 15q11 9 21.5 19t18.5 18
q-10 -13 -20 -25t-23 -23t-28.5 -19t-33.5 -10q-17 -1 -29 3t-22 10q-2 2 -4.5 4t-5.5 2q-5 1 -12.5 -3t-14.5 -6q-14 -5 -28 -5t-19 13q-4 -8 -11.5 -10.5t-16 -1t-17.5 4.5t-15 6q-4 1 -8 2.5t-6 0.5q-2 0 -6.5 -3.5t-7.5 -5.5q-24 -13 -48.5 -9t-43.5 16t-33 27.5
t-26 33.5q8 -10 18.5 -20t22.5 -19q12 -8 26 -14.5t30 -8.5q16 -1 27.5 3.5t19.5 12.5q-27 14 -58 29.5t-64 26.5q-11 4 -23.5 7.5t-24.5 2.5q-14 0 -17 -8t0.5 -18t7.5 -17q5 -9 9 -15.5t8 -13.5q-10 12 -18.5 25t-13.5 30v10q2 8 8.5 11t14.5 5zM280 377q6 2 11.5 4.5
t11.5 4.5q5 -19 10.5 -38t10.5 -39q2 -7 4 -13t3 -12v0l-26 46t-25 47zM144 141l11 -1q-3 -9 -10 -14t-15 -5q-10 0 -16 6q-5 5 -5 17q0 9 3 17q5 8 11 12q5 4 14 4t14 -5q6 -4 7 -13l-11 -1q-1 5 -3 7t-7 2q-3 0 -9 -2q-3 -3 -6 -9q-2 -4 -2 -12q0 -7 3 -10q4 -4 7 -4
q5 0 8 3q2 2 3 4t3 4zM196 146h-21l-5 -24h-11l12 54h11l-5 -21h21l5 21h11l-12 -54h-11zM225 122h-11l11 54h24q7 0 10 -1q3 -2 5 -5q2 -2 2 -8q0 -7 -4 -11q-5 -5 -12 -6q1 -1 1.5 -2t2.5 -3q2 -3 4 -7.5t4 -10.5h-12q-2 6 -6 14q-1 4 -4 7q-2 1 -6 1h-5zM231 152h6
q8 0 12 2q2 0 5 3q1 1 1 5q0 2 -2 4q-1 1 -7 1h-12zM267 122l12 54h11l-11 -54h-12zM291 140h10q0 -5 2 -7q1 -3 9 -3q4 0 8 2q2 4 2 5q0 2 -2 4q-1 1 -8 4q-3 2 -5 2.5t-4 2.5q-3 1 -4 4q-2 4 -2 7q0 6 5 11t14 5q10 0 15 -5q4 -2 6 -11l-11 -1q0 4 -3 6q-2 2 -7 2t-6 -1
q-2 -2 -2 -5q0 -2 2 -3q3 -3 8 -5q10 -3 11 -6q4 -4 4 -10t-6 -12q-5 -5 -15 -5q-6 0 -12 2q-6 3 -7 7q-3 5 -2 10zM366 122h-12l-9 54h11l7 -41l22 41h11zM389 122l11 54h11l-11 -54h-11zM411 122l11 54h11l-9 -45h27l-2 -9h-38zM456 122l12 54h40l-2 -9h-29l-3 -12h28
l-2 -9h-28l-3 -15h31l-1 -9h-43zM509 132h11l-3 -10h-10zM567 141l11 -1q-3 -9 -10 -14t-15 -5q-10 0 -16 6q-5 7 -5 17q0 9 3 17q5 8 11 12q5 4 14 4t14 -5q6 -4 7 -13l-11 -1q0 4 -3 7q-2 2 -7 2q-3 0 -9 -2q-3 -3 -6 -9q-2 -4 -2 -12q0 -7 3 -10q4 -4 7 -4q5 0 8 3
q4 3 6 8zM586 143q0 7 1 10q1 7 6 13q2 4 9 8q6 3 14 3q10 0 16 -6t6 -17q0 -9 -4 -16q-5 -9 -11 -13q-8 -4 -15 -4q-9 0 -13 4q-6 4 -7 8q-2 3 -2 10zM597 143q0 -5 3 -9q4 -4 9 -4t8 3q6 4 7 9q3 6 3 12q0 7 -3 10q-6 4 -9 4q-8 0 -13 -8q-5 -6 -5 -17zM672 122h-11l-2 45
l-8 -45h-10l11 54h16l1 -38l19 38h16l-11 -54h-11l11 45z" />
    <glyph glyph-name="one" unicode="1" 
d="M405 250h-1q-3 45 -7.5 89.5t-6.5 89.5h29q-4 -45 -7.5 -89.5t-6.5 -89.5zM354 421q5 -42 8 -84l6 -84q-11 40 -21.5 81t-21.5 81q6 3 13.5 3.5t14.5 2.5h1zM487 416q-11 -42 -21.5 -82t-20.5 -82q2 42 6 84.5t7 84.5q13 -1 29 -5zM526 370q-12 -24 -25 -47.5t-25 -46.5
q5 25 12.5 50.5t14.5 51.5q6 -2 11.5 -4t11.5 -4zM137 576h17q46 -7 85 -22.5t77 -31.5q16 -6 31 -12t34 -8q-1 -1 -3 -2t-1 -3q5 4 11 7.5t11 7.5q2 -2 2.5 -4t2.5 -4q2 6 4 7q5 -4 11 -7.5t11 -7.5q0 2 -2 3.5t-2 2.5q17 1 31.5 6.5t29.5 11.5q14 5 27 11t28 12
q29 11 58 20q15 5 32 9.5t34 2.5q12 -1 21 -7t5 -21t-14 -29q-5 -7 -9 -13t-9 -10q5 6 9 12.5t9 15.5q4 7 8 19t-1 19q-3 4 -10 5t-14 0q-12 -1 -23.5 -4t-22.5 -8q-31 -11 -60.5 -26t-55.5 -29q9 -7 20.5 -11.5t28.5 -2.5q16 1 29.5 8t25.5 15q11 9 21.5 19t18.5 18
q-10 -13 -20 -25t-23 -23t-28.5 -19t-33.5 -10q-17 -1 -29 3t-22 10q-2 2 -4.5 4t-5.5 2q-5 1 -12.5 -3t-14.5 -6q-14 -5 -28 -5t-19 13q-4 -8 -11.5 -10.5t-16 -1t-17.5 4.5t-15 6q-4 1 -8 2.5t-6 0.5q-2 0 -6.5 -3.5t-7.5 -5.5q-24 -13 -48.5 -9t-43.5 16t-33 27.5
t-26 33.5q8 -10 18.5 -20t22.5 -19q12 -8 26 -14.5t30 -8.5q16 -1 27.5 3.5t19.5 12.5q-27 14 -58 29.5t-64 26.5q-11 4 -23.5 7.5t-24.5 2.5q-14 0 -17 -8t0.5 -18t7.5 -17q5 -9 9 -15.5t8 -13.5q-10 12 -18.5 25t-13.5 30v10q2 8 8.5 11t14.5 5zM280 377q6 2 11.5 4.5
t11.5 4.5q5 -19 10.5 -38t10.5 -39q2 -7 4 -13t3 -12v0l-26 46t-25 47zM144 141l11 -1q-3 -9 -10 -14t-15 -5q-10 0 -16 6q-5 5 -5 17q0 9 3 17q5 8 11 12q5 4 14 4t14 -5q6 -4 7 -13l-11 -1q-1 5 -3 7t-7 2q-3 0 -9 -2q-3 -3 -6 -9q-2 -4 -2 -12q0 -7 3 -10q4 -4 7 -4
q5 0 8 3q2 2 3 4t3 4zM196 146h-21l-5 -24h-11l12 54h11l-5 -21h21l5 21h11l-12 -54h-11zM225 122h-11l11 54h24q7 0 10 -1q3 -2 5 -5q2 -2 2 -8q0 -7 -4 -11q-5 -5 -12 -6q1 -1 1.5 -2t2.5 -3q2 -3 4 -7.5t4 -10.5h-12q-2 6 -6 14q-1 4 -4 7q-2 1 -6 1h-5zM231 152h6
q8 0 12 2q2 0 5 3q1 1 1 5q0 2 -2 4q-1 1 -7 1h-12zM267 122l12 54h11l-11 -54h-12zM291 140h10q0 -5 2 -7q1 -3 9 -3q4 0 8 2q2 4 2 5q0 2 -2 4q-1 1 -8 4q-3 2 -5 2.5t-4 2.5q-3 1 -4 4q-2 4 -2 7q0 6 5 11t14 5q10 0 15 -5q4 -2 6 -11l-11 -1q0 4 -3 6q-2 2 -7 2t-6 -1
q-2 -2 -2 -5q0 -2 2 -3q3 -3 8 -5q10 -3 11 -6q4 -4 4 -10t-6 -12q-5 -5 -15 -5q-6 0 -12 2q-6 3 -7 7q-3 5 -2 10zM366 122h-12l-9 54h11l7 -41l22 41h11zM389 122l11 54h11l-11 -54h-11zM411 122l11 54h11l-9 -45h27l-2 -9h-38zM456 122l12 54h40l-2 -9h-29l-3 -12h28
l-2 -9h-28l-3 -15h31l-1 -9h-43zM509 132h11l-3 -10h-10zM567 141l11 -1q-3 -9 -10 -14t-15 -5q-10 0 -16 6q-5 7 -5 17q0 9 3 17q5 8 11 12q5 4 14 4t14 -5q6 -4 7 -13l-11 -1q0 4 -3 7q-2 2 -7 2q-3 0 -9 -2q-3 -3 -6 -9q-2 -4 -2 -12q0 -7 3 -10q4 -4 7 -4q5 0 8 3
q4 3 6 8zM586 143q0 7 1 10q1 7 6 13q2 4 9 8q6 3 14 3q10 0 16 -6t6 -17q0 -9 -4 -16q-5 -9 -11 -13q-8 -4 -15 -4q-9 0 -13 4q-6 4 -7 8q-2 3 -2 10zM597 143q0 -5 3 -9q4 -4 9 -4t8 3q6 4 7 9q3 6 3 12q0 7 -3 10q-6 4 -9 4q-8 0 -13 -8q-5 -6 -5 -17zM672 122h-11l-2 45
l-8 -45h-10l11 54h16l1 -38l19 38h16l-11 -54h-11l11 45z" />
    <glyph glyph-name="two" unicode="2" 
d="M405 250h-1q-3 45 -7.5 89.5t-6.5 89.5h29q-4 -45 -7.5 -89.5t-6.5 -89.5zM354 421q5 -42 8 -84l6 -84q-11 40 -21.5 81t-21.5 81q6 3 13.5 3.5t14.5 2.5h1zM487 416q-11 -42 -21.5 -82t-20.5 -82q2 42 6 84.5t7 84.5q13 -1 29 -5zM526 370q-12 -24 -25 -47.5t-25 -46.5
q5 25 12.5 50.5t14.5 51.5q6 -2 11.5 -4t11.5 -4zM137 576h17q46 -7 85 -22.5t77 -31.5q16 -6 31 -12t34 -8q-1 -1 -3 -2t-1 -3q5 4 11 7.5t11 7.5q2 -2 2.5 -4t2.5 -4q2 6 4 7q5 -4 11 -7.5t11 -7.5q0 2 -2 3.5t-2 2.5q17 1 31.5 6.5t29.5 11.5q14 5 27 11t28 12
q29 11 58 20q15 5 32 9.5t34 2.5q12 -1 21 -7t5 -21t-14 -29q-5 -7 -9 -13t-9 -10q5 6 9 12.5t9 15.5q4 7 8 19t-1 19q-3 4 -10 5t-14 0q-12 -1 -23.5 -4t-22.5 -8q-31 -11 -60.5 -26t-55.5 -29q9 -7 20.5 -11.5t28.5 -2.5q16 1 29.5 8t25.5 15q11 9 21.5 19t18.5 18
q-10 -13 -20 -25t-23 -23t-28.5 -19t-33.5 -10q-17 -1 -29 3t-22 10q-2 2 -4.5 4t-5.5 2q-5 1 -12.5 -3t-14.5 -6q-14 -5 -28 -5t-19 13q-4 -8 -11.5 -10.5t-16 -1t-17.5 4.5t-15 6q-4 1 -8 2.5t-6 0.5q-2 0 -6.5 -3.5t-7.5 -5.5q-24 -13 -48.5 -9t-43.5 16t-33 27.5
t-26 33.5q8 -10 18.5 -20t22.5 -19q12 -8 26 -14.5t30 -8.5q16 -1 27.5 3.5t19.5 12.5q-27 14 -58 29.5t-64 26.5q-11 4 -23.5 7.5t-24.5 2.5q-14 0 -17 -8t0.5 -18t7.5 -17q5 -9 9 -15.5t8 -13.5q-10 12 -18.5 25t-13.5 30v10q2 8 8.5 11t14.5 5zM280 377q6 2 11.5 4.5
t11.5 4.5q5 -19 10.5 -38t10.5 -39q2 -7 4 -13t3 -12v0l-26 46t-25 47zM144 141l11 -1q-3 -9 -10 -14t-15 -5q-10 0 -16 6q-5 5 -5 17q0 9 3 17q5 8 11 12q5 4 14 4t14 -5q6 -4 7 -13l-11 -1q-1 5 -3 7t-7 2q-3 0 -9 -2q-3 -3 -6 -9q-2 -4 -2 -12q0 -7 3 -10q4 -4 7 -4
q5 0 8 3q2 2 3 4t3 4zM196 146h-21l-5 -24h-11l12 54h11l-5 -21h21l5 21h11l-12 -54h-11zM225 122h-11l11 54h24q7 0 10 -1q3 -2 5 -5q2 -2 2 -8q0 -7 -4 -11q-5 -5 -12 -6q1 -1 1.5 -2t2.5 -3q2 -3 4 -7.5t4 -10.5h-12q-2 6 -6 14q-1 4 -4 7q-2 1 -6 1h-5zM231 152h6
q8 0 12 2q2 0 5 3q1 1 1 5q0 2 -2 4q-1 1 -7 1h-12zM267 122l12 54h11l-11 -54h-12zM291 140h10q0 -5 2 -7q1 -3 9 -3q4 0 8 2q2 4 2 5q0 2 -2 4q-1 1 -8 4q-3 2 -5 2.5t-4 2.5q-3 1 -4 4q-2 4 -2 7q0 6 5 11t14 5q10 0 15 -5q4 -2 6 -11l-11 -1q0 4 -3 6q-2 2 -7 2t-6 -1
q-2 -2 -2 -5q0 -2 2 -3q3 -3 8 -5q10 -3 11 -6q4 -4 4 -10t-6 -12q-5 -5 -15 -5q-6 0 -12 2q-6 3 -7 7q-3 5 -2 10zM366 122h-12l-9 54h11l7 -41l22 41h11zM389 122l11 54h11l-11 -54h-11zM411 122l11 54h11l-9 -45h27l-2 -9h-38zM456 122l12 54h40l-2 -9h-29l-3 -12h28
l-2 -9h-28l-3 -15h31l-1 -9h-43zM509 132h11l-3 -10h-10zM567 141l11 -1q-3 -9 -10 -14t-15 -5q-10 0 -16 6q-5 7 -5 17q0 9 3 17q5 8 11 12q5 4 14 4t14 -5q6 -4 7 -13l-11 -1q0 4 -3 7q-2 2 -7 2q-3 0 -9 -2q-3 -3 -6 -9q-2 -4 -2 -12q0 -7 3 -10q4 -4 7 -4q5 0 8 3
q4 3 6 8zM586 143q0 7 1 10q1 7 6 13q2 4 9 8q6 3 14 3q10 0 16 -6t6 -17q0 -9 -4 -16q-5 -9 -11 -13q-8 -4 -15 -4q-9 0 -13 4q-6 4 -7 8q-2 3 -2 10zM597 143q0 -5 3 -9q4 -4 9 -4t8 3q6 4 7 9q3 6 3 12q0 7 -3 10q-6 4 -9 4q-8 0 -13 -8q-5 -6 -5 -17zM672 122h-11l-2 45
l-8 -45h-10l11 54h16l1 -38l19 38h16l-11 -54h-11l11 45z" />
    <glyph glyph-name="three" unicode="3" 
d="M405 250h-1q-3 45 -7.5 89.5t-6.5 89.5h29q-4 -45 -7.5 -89.5t-6.5 -89.5zM354 421q5 -42 8 -84l6 -84q-11 40 -21.5 81t-21.5 81q6 3 13.5 3.5t14.5 2.5h1zM487 416q-11 -42 -21.5 -82t-20.5 -82q2 42 6 84.5t7 84.5q13 -1 29 -5zM526 370q-12 -24 -25 -47.5t-25 -46.5
q5 25 12.5 50.5t14.5 51.5q6 -2 11.5 -4t11.5 -4zM137 576h17q46 -7 85 -22.5t77 -31.5q16 -6 31 -12t34 -8q-1 -1 -3 -2t-1 -3q5 4 11 7.5t11 7.5q2 -2 2.5 -4t2.5 -4q2 6 4 7q5 -4 11 -7.5t11 -7.5q0 2 -2 3.5t-2 2.5q17 1 31.5 6.5t29.5 11.5q14 5 27 11t28 12
q29 11 58 20q15 5 32 9.5t34 2.5q12 -1 21 -7t5 -21t-14 -29q-5 -7 -9 -13t-9 -10q5 6 9 12.5t9 15.5q4 7 8 19t-1 19q-3 4 -10 5t-14 0q-12 -1 -23.5 -4t-22.5 -8q-31 -11 -60.5 -26t-55.5 -29q9 -7 20.5 -11.5t28.5 -2.5q16 1 29.5 8t25.5 15q11 9 21.5 19t18.5 18
q-10 -13 -20 -25t-23 -23t-28.5 -19t-33.5 -10q-17 -1 -29 3t-22 10q-2 2 -4.5 4t-5.5 2q-5 1 -12.5 -3t-14.5 -6q-14 -5 -28 -5t-19 13q-4 -8 -11.5 -10.5t-16 -1t-17.5 4.5t-15 6q-4 1 -8 2.5t-6 0.5q-2 0 -6.5 -3.5t-7.5 -5.5q-24 -13 -48.5 -9t-43.5 16t-33 27.5
t-26 33.5q8 -10 18.5 -20t22.5 -19q12 -8 26 -14.5t30 -8.5q16 -1 27.5 3.5t19.5 12.5q-27 14 -58 29.5t-64 26.5q-11 4 -23.5 7.5t-24.5 2.5q-14 0 -17 -8t0.5 -18t7.5 -17q5 -9 9 -15.5t8 -13.5q-10 12 -18.5 25t-13.5 30v10q2 8 8.5 11t14.5 5zM280 377q6 2 11.5 4.5
t11.5 4.5q5 -19 10.5 -38t10.5 -39q2 -7 4 -13t3 -12v0l-26 46t-25 47zM144 141l11 -1q-3 -9 -10 -14t-15 -5q-10 0 -16 6q-5 5 -5 17q0 9 3 17q5 8 11 12q5 4 14 4t14 -5q6 -4 7 -13l-11 -1q-1 5 -3 7t-7 2q-3 0 -9 -2q-3 -3 -6 -9q-2 -4 -2 -12q0 -7 3 -10q4 -4 7 -4
q5 0 8 3q2 2 3 4t3 4zM196 146h-21l-5 -24h-11l12 54h11l-5 -21h21l5 21h11l-12 -54h-11zM225 122h-11l11 54h24q7 0 10 -1q3 -2 5 -5q2 -2 2 -8q0 -7 -4 -11q-5 -5 -12 -6q1 -1 1.5 -2t2.5 -3q2 -3 4 -7.5t4 -10.5h-12q-2 6 -6 14q-1 4 -4 7q-2 1 -6 1h-5zM231 152h6
q8 0 12 2q2 0 5 3q1 1 1 5q0 2 -2 4q-1 1 -7 1h-12zM267 122l12 54h11l-11 -54h-12zM291 140h10q0 -5 2 -7q1 -3 9 -3q4 0 8 2q2 4 2 5q0 2 -2 4q-1 1 -8 4q-3 2 -5 2.5t-4 2.5q-3 1 -4 4q-2 4 -2 7q0 6 5 11t14 5q10 0 15 -5q4 -2 6 -11l-11 -1q0 4 -3 6q-2 2 -7 2t-6 -1
q-2 -2 -2 -5q0 -2 2 -3q3 -3 8 -5q10 -3 11 -6q4 -4 4 -10t-6 -12q-5 -5 -15 -5q-6 0 -12 2q-6 3 -7 7q-3 5 -2 10zM366 122h-12l-9 54h11l7 -41l22 41h11zM389 122l11 54h11l-11 -54h-11zM411 122l11 54h11l-9 -45h27l-2 -9h-38zM456 122l12 54h40l-2 -9h-29l-3 -12h28
l-2 -9h-28l-3 -15h31l-1 -9h-43zM509 132h11l-3 -10h-10zM567 141l11 -1q-3 -9 -10 -14t-15 -5q-10 0 -16 6q-5 7 -5 17q0 9 3 17q5 8 11 12q5 4 14 4t14 -5q6 -4 7 -13l-11 -1q0 4 -3 7q-2 2 -7 2q-3 0 -9 -2q-3 -3 -6 -9q-2 -4 -2 -12q0 -7 3 -10q4 -4 7 -4q5 0 8 3
q4 3 6 8zM586 143q0 7 1 10q1 7 6 13q2 4 9 8q6 3 14 3q10 0 16 -6t6 -17q0 -9 -4 -16q-5 -9 -11 -13q-8 -4 -15 -4q-9 0 -13 4q-6 4 -7 8q-2 3 -2 10zM597 143q0 -5 3 -9q4 -4 9 -4t8 3q6 4 7 9q3 6 3 12q0 7 -3 10q-6 4 -9 4q-8 0 -13 -8q-5 -6 -5 -17zM672 122h-11l-2 45
l-8 -45h-10l11 54h16l1 -38l19 38h16l-11 -54h-11l11 45z" />
    <glyph glyph-name="four" unicode="4" 
d="M405 250h-1q-3 45 -7.5 89.5t-6.5 89.5h29q-4 -45 -7.5 -89.5t-6.5 -89.5zM354 421q5 -42 8 -84l6 -84q-11 40 -21.5 81t-21.5 81q6 3 13.5 3.5t14.5 2.5h1zM487 416q-11 -42 -21.5 -82t-20.5 -82q2 42 6 84.5t7 84.5q13 -1 29 -5zM526 370q-12 -24 -25 -47.5t-25 -46.5
q5 25 12.5 50.5t14.5 51.5q6 -2 11.5 -4t11.5 -4zM137 576h17q46 -7 85 -22.5t77 -31.5q16 -6 31 -12t34 -8q-1 -1 -3 -2t-1 -3q5 4 11 7.5t11 7.5q2 -2 2.5 -4t2.5 -4q2 6 4 7q5 -4 11 -7.5t11 -7.5q0 2 -2 3.5t-2 2.5q17 1 31.5 6.5t29.5 11.5q14 5 27 11t28 12
q29 11 58 20q15 5 32 9.5t34 2.5q12 -1 21 -7t5 -21t-14 -29q-5 -7 -9 -13t-9 -10q5 6 9 12.5t9 15.5q4 7 8 19t-1 19q-3 4 -10 5t-14 0q-12 -1 -23.5 -4t-22.5 -8q-31 -11 -60.5 -26t-55.5 -29q9 -7 20.5 -11.5t28.5 -2.5q16 1 29.5 8t25.5 15q11 9 21.5 19t18.5 18
q-10 -13 -20 -25t-23 -23t-28.5 -19t-33.5 -10q-17 -1 -29 3t-22 10q-2 2 -4.5 4t-5.5 2q-5 1 -12.5 -3t-14.5 -6q-14 -5 -28 -5t-19 13q-4 -8 -11.5 -10.5t-16 -1t-17.5 4.5t-15 6q-4 1 -8 2.5t-6 0.5q-2 0 -6.5 -3.5t-7.5 -5.5q-24 -13 -48.5 -9t-43.5 16t-33 27.5
t-26 33.5q8 -10 18.5 -20t22.5 -19q12 -8 26 -14.5t30 -8.5q16 -1 27.5 3.5t19.5 12.5q-27 14 -58 29.5t-64 26.5q-11 4 -23.5 7.5t-24.5 2.5q-14 0 -17 -8t0.5 -18t7.5 -17q5 -9 9 -15.5t8 -13.5q-10 12 -18.5 25t-13.5 30v10q2 8 8.5 11t14.5 5zM280 377q6 2 11.5 4.5
t11.5 4.5q5 -19 10.5 -38t10.5 -39q2 -7 4 -13t3 -12v0l-26 46t-25 47zM144 141l11 -1q-3 -9 -10 -14t-15 -5q-10 0 -16 6q-5 5 -5 17q0 9 3 17q5 8 11 12q5 4 14 4t14 -5q6 -4 7 -13l-11 -1q-1 5 -3 7t-7 2q-3 0 -9 -2q-3 -3 -6 -9q-2 -4 -2 -12q0 -7 3 -10q4 -4 7 -4
q5 0 8 3q2 2 3 4t3 4zM196 146h-21l-5 -24h-11l12 54h11l-5 -21h21l5 21h11l-12 -54h-11zM225 122h-11l11 54h24q7 0 10 -1q3 -2 5 -5q2 -2 2 -8q0 -7 -4 -11q-5 -5 -12 -6q1 -1 1.5 -2t2.5 -3q2 -3 4 -7.5t4 -10.5h-12q-2 6 -6 14q-1 4 -4 7q-2 1 -6 1h-5zM231 152h6
q8 0 12 2q2 0 5 3q1 1 1 5q0 2 -2 4q-1 1 -7 1h-12zM267 122l12 54h11l-11 -54h-12zM291 140h10q0 -5 2 -7q1 -3 9 -3q4 0 8 2q2 4 2 5q0 2 -2 4q-1 1 -8 4q-3 2 -5 2.5t-4 2.5q-3 1 -4 4q-2 4 -2 7q0 6 5 11t14 5q10 0 15 -5q4 -2 6 -11l-11 -1q0 4 -3 6q-2 2 -7 2t-6 -1
q-2 -2 -2 -5q0 -2 2 -3q3 -3 8 -5q10 -3 11 -6q4 -4 4 -10t-6 -12q-5 -5 -15 -5q-6 0 -12 2q-6 3 -7 7q-3 5 -2 10zM366 122h-12l-9 54h11l7 -41l22 41h11zM389 122l11 54h11l-11 -54h-11zM411 122l11 54h11l-9 -45h27l-2 -9h-38zM456 122l12 54h40l-2 -9h-29l-3 -12h28
l-2 -9h-28l-3 -15h31l-1 -9h-43zM509 132h11l-3 -10h-10zM567 141l11 -1q-3 -9 -10 -14t-15 -5q-10 0 -16 6q-5 7 -5 17q0 9 3 17q5 8 11 12q5 4 14 4t14 -5q6 -4 7 -13l-11 -1q0 4 -3 7q-2 2 -7 2q-3 0 -9 -2q-3 -3 -6 -9q-2 -4 -2 -12q0 -7 3 -10q4 -4 7 -4q5 0 8 3
q4 3 6 8zM586 143q0 7 1 10q1 7 6 13q2 4 9 8q6 3 14 3q10 0 16 -6t6 -17q0 -9 -4 -16q-5 -9 -11 -13q-8 -4 -15 -4q-9 0 -13 4q-6 4 -7 8q-2 3 -2 10zM597 143q0 -5 3 -9q4 -4 9 -4t8 3q6 4 7 9q3 6 3 12q0 7 -3 10q-6 4 -9 4q-8 0 -13 -8q-5 -6 -5 -17zM672 122h-11l-2 45
l-8 -45h-10l11 54h16l1 -38l19 38h16l-11 -54h-11l11 45z" />
    <glyph glyph-name="five" unicode="5" 
d="M405 250h-1q-3 45 -7.5 89.5t-6.5 89.5h29q-4 -45 -7.5 -89.5t-6.5 -89.5zM354 421q5 -42 8 -84l6 -84q-11 40 -21.5 81t-21.5 81q6 3 13.5 3.5t14.5 2.5h1zM487 416q-11 -42 -21.5 -82t-20.5 -82q2 42 6 84.5t7 84.5q13 -1 29 -5zM526 370q-12 -24 -25 -47.5t-25 -46.5
q5 25 12.5 50.5t14.5 51.5q6 -2 11.5 -4t11.5 -4zM137 576h17q46 -7 85 -22.5t77 -31.5q16 -6 31 -12t34 -8q-1 -1 -3 -2t-1 -3q5 4 11 7.5t11 7.5q2 -2 2.5 -4t2.5 -4q2 6 4 7q5 -4 11 -7.5t11 -7.5q0 2 -2 3.5t-2 2.5q17 1 31.5 6.5t29.5 11.5q14 5 27 11t28 12
q29 11 58 20q15 5 32 9.5t34 2.5q12 -1 21 -7t5 -21t-14 -29q-5 -7 -9 -13t-9 -10q5 6 9 12.5t9 15.5q4 7 8 19t-1 19q-3 4 -10 5t-14 0q-12 -1 -23.5 -4t-22.5 -8q-31 -11 -60.5 -26t-55.5 -29q9 -7 20.5 -11.5t28.5 -2.5q16 1 29.5 8t25.5 15q11 9 21.5 19t18.5 18
q-10 -13 -20 -25t-23 -23t-28.5 -19t-33.5 -10q-17 -1 -29 3t-22 10q-2 2 -4.5 4t-5.5 2q-5 1 -12.5 -3t-14.5 -6q-14 -5 -28 -5t-19 13q-4 -8 -11.5 -10.5t-16 -1t-17.5 4.5t-15 6q-4 1 -8 2.5t-6 0.5q-2 0 -6.5 -3.5t-7.5 -5.5q-24 -13 -48.5 -9t-43.5 16t-33 27.5
t-26 33.5q8 -10 18.5 -20t22.5 -19q12 -8 26 -14.5t30 -8.5q16 -1 27.5 3.5t19.5 12.5q-27 14 -58 29.5t-64 26.5q-11 4 -23.5 7.5t-24.5 2.5q-14 0 -17 -8t0.5 -18t7.5 -17q5 -9 9 -15.5t8 -13.5q-10 12 -18.5 25t-13.5 30v10q2 8 8.5 11t14.5 5zM280 377q6 2 11.5 4.5
t11.5 4.5q5 -19 10.5 -38t10.5 -39q2 -7 4 -13t3 -12v0l-26 46t-25 47zM144 141l11 -1q-3 -9 -10 -14t-15 -5q-10 0 -16 6q-5 5 -5 17q0 9 3 17q5 8 11 12q5 4 14 4t14 -5q6 -4 7 -13l-11 -1q-1 5 -3 7t-7 2q-3 0 -9 -2q-3 -3 -6 -9q-2 -4 -2 -12q0 -7 3 -10q4 -4 7 -4
q5 0 8 3q2 2 3 4t3 4zM196 146h-21l-5 -24h-11l12 54h11l-5 -21h21l5 21h11l-12 -54h-11zM225 122h-11l11 54h24q7 0 10 -1q3 -2 5 -5q2 -2 2 -8q0 -7 -4 -11q-5 -5 -12 -6q1 -1 1.5 -2t2.5 -3q2 -3 4 -7.5t4 -10.5h-12q-2 6 -6 14q-1 4 -4 7q-2 1 -6 1h-5zM231 152h6
q8 0 12 2q2 0 5 3q1 1 1 5q0 2 -2 4q-1 1 -7 1h-12zM267 122l12 54h11l-11 -54h-12zM291 140h10q0 -5 2 -7q1 -3 9 -3q4 0 8 2q2 4 2 5q0 2 -2 4q-1 1 -8 4q-3 2 -5 2.5t-4 2.5q-3 1 -4 4q-2 4 -2 7q0 6 5 11t14 5q10 0 15 -5q4 -2 6 -11l-11 -1q0 4 -3 6q-2 2 -7 2t-6 -1
q-2 -2 -2 -5q0 -2 2 -3q3 -3 8 -5q10 -3 11 -6q4 -4 4 -10t-6 -12q-5 -5 -15 -5q-6 0 -12 2q-6 3 -7 7q-3 5 -2 10zM366 122h-12l-9 54h11l7 -41l22 41h11zM389 122l11 54h11l-11 -54h-11zM411 122l11 54h11l-9 -45h27l-2 -9h-38zM456 122l12 54h40l-2 -9h-29l-3 -12h28
l-2 -9h-28l-3 -15h31l-1 -9h-43zM509 132h11l-3 -10h-10zM567 141l11 -1q-3 -9 -10 -14t-15 -5q-10 0 -16 6q-5 7 -5 17q0 9 3 17q5 8 11 12q5 4 14 4t14 -5q6 -4 7 -13l-11 -1q0 4 -3 7q-2 2 -7 2q-3 0 -9 -2q-3 -3 -6 -9q-2 -4 -2 -12q0 -7 3 -10q4 -4 7 -4q5 0 8 3
q4 3 6 8zM586 143q0 7 1 10q1 7 6 13q2 4 9 8q6 3 14 3q10 0 16 -6t6 -17q0 -9 -4 -16q-5 -9 -11 -13q-8 -4 -15 -4q-9 0 -13 4q-6 4 -7 8q-2 3 -2 10zM597 143q0 -5 3 -9q4 -4 9 -4t8 3q6 4 7 9q3 6 3 12q0 7 -3 10q-6 4 -9 4q-8 0 -13 -8q-5 -6 -5 -17zM672 122h-11l-2 45
l-8 -45h-10l11 54h16l1 -38l19 38h16l-11 -54h-11l11 45z" />
    <glyph glyph-name="six" unicode="6" 
d="M405 250h-1q-3 45 -7.5 89.5t-6.5 89.5h29q-4 -45 -7.5 -89.5t-6.5 -89.5zM354 421q5 -42 8 -84l6 -84q-11 40 -21.5 81t-21.5 81q6 3 13.5 3.5t14.5 2.5h1zM487 416q-11 -42 -21.5 -82t-20.5 -82q2 42 6 84.5t7 84.5q13 -1 29 -5zM526 370q-12 -24 -25 -47.5t-25 -46.5
q5 25 12.5 50.5t14.5 51.5q6 -2 11.5 -4t11.5 -4zM137 576h17q46 -7 85 -22.5t77 -31.5q16 -6 31 -12t34 -8q-1 -1 -3 -2t-1 -3q5 4 11 7.5t11 7.5q2 -2 2.5 -4t2.5 -4q2 6 4 7q5 -4 11 -7.5t11 -7.5q0 2 -2 3.5t-2 2.5q17 1 31.5 6.5t29.5 11.5q14 5 27 11t28 12
q29 11 58 20q15 5 32 9.5t34 2.5q12 -1 21 -7t5 -21t-14 -29q-5 -7 -9 -13t-9 -10q5 6 9 12.5t9 15.5q4 7 8 19t-1 19q-3 4 -10 5t-14 0q-12 -1 -23.5 -4t-22.5 -8q-31 -11 -60.5 -26t-55.5 -29q9 -7 20.5 -11.5t28.5 -2.5q16 1 29.5 8t25.5 15q11 9 21.5 19t18.5 18
q-10 -13 -20 -25t-23 -23t-28.5 -19t-33.5 -10q-17 -1 -29 3t-22 10q-2 2 -4.5 4t-5.5 2q-5 1 -12.5 -3t-14.5 -6q-14 -5 -28 -5t-19 13q-4 -8 -11.5 -10.5t-16 -1t-17.5 4.5t-15 6q-4 1 -8 2.5t-6 0.5q-2 0 -6.5 -3.5t-7.5 -5.5q-24 -13 -48.5 -9t-43.5 16t-33 27.5
t-26 33.5q8 -10 18.5 -20t22.5 -19q12 -8 26 -14.5t30 -8.5q16 -1 27.5 3.5t19.5 12.5q-27 14 -58 29.5t-64 26.5q-11 4 -23.5 7.5t-24.5 2.5q-14 0 -17 -8t0.5 -18t7.5 -17q5 -9 9 -15.5t8 -13.5q-10 12 -18.5 25t-13.5 30v10q2 8 8.5 11t14.5 5zM280 377q6 2 11.5 4.5
t11.5 4.5q5 -19 10.5 -38t10.5 -39q2 -7 4 -13t3 -12v0l-26 46t-25 47zM144 141l11 -1q-3 -9 -10 -14t-15 -5q-10 0 -16 6q-5 5 -5 17q0 9 3 17q5 8 11 12q5 4 14 4t14 -5q6 -4 7 -13l-11 -1q-1 5 -3 7t-7 2q-3 0 -9 -2q-3 -3 -6 -9q-2 -4 -2 -12q0 -7 3 -10q4 -4 7 -4
q5 0 8 3q2 2 3 4t3 4zM196 146h-21l-5 -24h-11l12 54h11l-5 -21h21l5 21h11l-12 -54h-11zM225 122h-11l11 54h24q7 0 10 -1q3 -2 5 -5q2 -2 2 -8q0 -7 -4 -11q-5 -5 -12 -6q1 -1 1.5 -2t2.5 -3q2 -3 4 -7.5t4 -10.5h-12q-2 6 -6 14q-1 4 -4 7q-2 1 -6 1h-5zM231 152h6
q8 0 12 2q2 0 5 3q1 1 1 5q0 2 -2 4q-1 1 -7 1h-12zM267 122l12 54h11l-11 -54h-12zM291 140h10q0 -5 2 -7q1 -3 9 -3q4 0 8 2q2 4 2 5q0 2 -2 4q-1 1 -8 4q-3 2 -5 2.5t-4 2.5q-3 1 -4 4q-2 4 -2 7q0 6 5 11t14 5q10 0 15 -5q4 -2 6 -11l-11 -1q0 4 -3 6q-2 2 -7 2t-6 -1
q-2 -2 -2 -5q0 -2 2 -3q3 -3 8 -5q10 -3 11 -6q4 -4 4 -10t-6 -12q-5 -5 -15 -5q-6 0 -12 2q-6 3 -7 7q-3 5 -2 10zM366 122h-12l-9 54h11l7 -41l22 41h11zM389 122l11 54h11l-11 -54h-11zM411 122l11 54h11l-9 -45h27l-2 -9h-38zM456 122l12 54h40l-2 -9h-29l-3 -12h28
l-2 -9h-28l-3 -15h31l-1 -9h-43zM509 132h11l-3 -10h-10zM567 141l11 -1q-3 -9 -10 -14t-15 -5q-10 0 -16 6q-5 7 -5 17q0 9 3 17q5 8 11 12q5 4 14 4t14 -5q6 -4 7 -13l-11 -1q0 4 -3 7q-2 2 -7 2q-3 0 -9 -2q-3 -3 -6 -9q-2 -4 -2 -12q0 -7 3 -10q4 -4 7 -4q5 0 8 3
q4 3 6 8zM586 143q0 7 1 10q1 7 6 13q2 4 9 8q6 3 14 3q10 0 16 -6t6 -17q0 -9 -4 -16q-5 -9 -11 -13q-8 -4 -15 -4q-9 0 -13 4q-6 4 -7 8q-2 3 -2 10zM597 143q0 -5 3 -9q4 -4 9 -4t8 3q6 4 7 9q3 6 3 12q0 7 -3 10q-6 4 -9 4q-8 0 -13 -8q-5 -6 -5 -17zM672 122h-11l-2 45
l-8 -45h-10l11 54h16l1 -38l19 38h16l-11 -54h-11l11 45z" />
    <glyph glyph-name="seven" unicode="7" 
d="M405 250h-1q-3 45 -7.5 89.5t-6.5 89.5h29q-4 -45 -7.5 -89.5t-6.5 -89.5zM354 421q5 -42 8 -84l6 -84q-11 40 -21.5 81t-21.5 81q6 3 13.5 3.5t14.5 2.5h1zM487 416q-11 -42 -21.5 -82t-20.5 -82q2 42 6 84.5t7 84.5q13 -1 29 -5zM526 370q-12 -24 -25 -47.5t-25 -46.5
q5 25 12.5 50.5t14.5 51.5q6 -2 11.5 -4t11.5 -4zM137 576h17q46 -7 85 -22.5t77 -31.5q16 -6 31 -12t34 -8q-1 -1 -3 -2t-1 -3q5 4 11 7.5t11 7.5q2 -2 2.5 -4t2.5 -4q2 6 4 7q5 -4 11 -7.5t11 -7.5q0 2 -2 3.5t-2 2.5q17 1 31.5 6.5t29.5 11.5q14 5 27 11t28 12
q29 11 58 20q15 5 32 9.5t34 2.5q12 -1 21 -7t5 -21t-14 -29q-5 -7 -9 -13t-9 -10q5 6 9 12.5t9 15.5q4 7 8 19t-1 19q-3 4 -10 5t-14 0q-12 -1 -23.5 -4t-22.5 -8q-31 -11 -60.5 -26t-55.5 -29q9 -7 20.5 -11.5t28.5 -2.5q16 1 29.5 8t25.5 15q11 9 21.5 19t18.5 18
q-10 -13 -20 -25t-23 -23t-28.5 -19t-33.5 -10q-17 -1 -29 3t-22 10q-2 2 -4.5 4t-5.5 2q-5 1 -12.5 -3t-14.5 -6q-14 -5 -28 -5t-19 13q-4 -8 -11.5 -10.5t-16 -1t-17.5 4.5t-15 6q-4 1 -8 2.5t-6 0.5q-2 0 -6.5 -3.5t-7.5 -5.5q-24 -13 -48.5 -9t-43.5 16t-33 27.5
t-26 33.5q8 -10 18.5 -20t22.5 -19q12 -8 26 -14.5t30 -8.5q16 -1 27.5 3.5t19.5 12.5q-27 14 -58 29.5t-64 26.5q-11 4 -23.5 7.5t-24.5 2.5q-14 0 -17 -8t0.5 -18t7.5 -17q5 -9 9 -15.5t8 -13.5q-10 12 -18.5 25t-13.5 30v10q2 8 8.5 11t14.5 5zM280 377q6 2 11.5 4.5
t11.5 4.5q5 -19 10.5 -38t10.5 -39q2 -7 4 -13t3 -12v0l-26 46t-25 47zM144 141l11 -1q-3 -9 -10 -14t-15 -5q-10 0 -16 6q-5 5 -5 17q0 9 3 17q5 8 11 12q5 4 14 4t14 -5q6 -4 7 -13l-11 -1q-1 5 -3 7t-7 2q-3 0 -9 -2q-3 -3 -6 -9q-2 -4 -2 -12q0 -7 3 -10q4 -4 7 -4
q5 0 8 3q2 2 3 4t3 4zM196 146h-21l-5 -24h-11l12 54h11l-5 -21h21l5 21h11l-12 -54h-11zM225 122h-11l11 54h24q7 0 10 -1q3 -2 5 -5q2 -2 2 -8q0 -7 -4 -11q-5 -5 -12 -6q1 -1 1.5 -2t2.5 -3q2 -3 4 -7.5t4 -10.5h-12q-2 6 -6 14q-1 4 -4 7q-2 1 -6 1h-5zM231 152h6
q8 0 12 2q2 0 5 3q1 1 1 5q0 2 -2 4q-1 1 -7 1h-12zM267 122l12 54h11l-11 -54h-12zM291 140h10q0 -5 2 -7q1 -3 9 -3q4 0 8 2q2 4 2 5q0 2 -2 4q-1 1 -8 4q-3 2 -5 2.5t-4 2.5q-3 1 -4 4q-2 4 -2 7q0 6 5 11t14 5q10 0 15 -5q4 -2 6 -11l-11 -1q0 4 -3 6q-2 2 -7 2t-6 -1
q-2 -2 -2 -5q0 -2 2 -3q3 -3 8 -5q10 -3 11 -6q4 -4 4 -10t-6 -12q-5 -5 -15 -5q-6 0 -12 2q-6 3 -7 7q-3 5 -2 10zM366 122h-12l-9 54h11l7 -41l22 41h11zM389 122l11 54h11l-11 -54h-11zM411 122l11 54h11l-9 -45h27l-2 -9h-38zM456 122l12 54h40l-2 -9h-29l-3 -12h28
l-2 -9h-28l-3 -15h31l-1 -9h-43zM509 132h11l-3 -10h-10zM567 141l11 -1q-3 -9 -10 -14t-15 -5q-10 0 -16 6q-5 7 -5 17q0 9 3 17q5 8 11 12q5 4 14 4t14 -5q6 -4 7 -13l-11 -1q0 4 -3 7q-2 2 -7 2q-3 0 -9 -2q-3 -3 -6 -9q-2 -4 -2 -12q0 -7 3 -10q4 -4 7 -4q5 0 8 3
q4 3 6 8zM586 143q0 7 1 10q1 7 6 13q2 4 9 8q6 3 14 3q10 0 16 -6t6 -17q0 -9 -4 -16q-5 -9 -11 -13q-8 -4 -15 -4q-9 0 -13 4q-6 4 -7 8q-2 3 -2 10zM597 143q0 -5 3 -9q4 -4 9 -4t8 3q6 4 7 9q3 6 3 12q0 7 -3 10q-6 4 -9 4q-8 0 -13 -8q-5 -6 -5 -17zM672 122h-11l-2 45
l-8 -45h-10l11 54h16l1 -38l19 38h16l-11 -54h-11l11 45z" />
    <glyph glyph-name="eight" unicode="8" 
d="M405 250h-1q-3 45 -7.5 89.5t-6.5 89.5h29q-4 -45 -7.5 -89.5t-6.5 -89.5zM354 421q5 -42 8 -84l6 -84q-11 40 -21.5 81t-21.5 81q6 3 13.5 3.5t14.5 2.5h1zM487 416q-11 -42 -21.5 -82t-20.5 -82q2 42 6 84.5t7 84.5q13 -1 29 -5zM526 370q-12 -24 -25 -47.5t-25 -46.5
q5 25 12.5 50.5t14.5 51.5q6 -2 11.5 -4t11.5 -4zM137 576h17q46 -7 85 -22.5t77 -31.5q16 -6 31 -12t34 -8q-1 -1 -3 -2t-1 -3q5 4 11 7.5t11 7.5q2 -2 2.5 -4t2.5 -4q2 6 4 7q5 -4 11 -7.5t11 -7.5q0 2 -2 3.5t-2 2.5q17 1 31.5 6.5t29.5 11.5q14 5 27 11t28 12
q29 11 58 20q15 5 32 9.5t34 2.5q12 -1 21 -7t5 -21t-14 -29q-5 -7 -9 -13t-9 -10q5 6 9 12.5t9 15.5q4 7 8 19t-1 19q-3 4 -10 5t-14 0q-12 -1 -23.5 -4t-22.5 -8q-31 -11 -60.5 -26t-55.5 -29q9 -7 20.5 -11.5t28.5 -2.5q16 1 29.5 8t25.5 15q11 9 21.5 19t18.5 18
q-10 -13 -20 -25t-23 -23t-28.5 -19t-33.5 -10q-17 -1 -29 3t-22 10q-2 2 -4.5 4t-5.5 2q-5 1 -12.5 -3t-14.5 -6q-14 -5 -28 -5t-19 13q-4 -8 -11.5 -10.5t-16 -1t-17.5 4.5t-15 6q-4 1 -8 2.5t-6 0.5q-2 0 -6.5 -3.5t-7.5 -5.5q-24 -13 -48.5 -9t-43.5 16t-33 27.5
t-26 33.5q8 -10 18.5 -20t22.5 -19q12 -8 26 -14.5t30 -8.5q16 -1 27.5 3.5t19.5 12.5q-27 14 -58 29.5t-64 26.5q-11 4 -23.5 7.5t-24.5 2.5q-14 0 -17 -8t0.5 -18t7.5 -17q5 -9 9 -15.5t8 -13.5q-10 12 -18.5 25t-13.5 30v10q2 8 8.5 11t14.5 5zM280 377q6 2 11.5 4.5
t11.5 4.5q5 -19 10.5 -38t10.5 -39q2 -7 4 -13t3 -12v0l-26 46t-25 47zM144 141l11 -1q-3 -9 -10 -14t-15 -5q-10 0 -16 6q-5 5 -5 17q0 9 3 17q5 8 11 12q5 4 14 4t14 -5q6 -4 7 -13l-11 -1q-1 5 -3 7t-7 2q-3 0 -9 -2q-3 -3 -6 -9q-2 -4 -2 -12q0 -7 3 -10q4 -4 7 -4
q5 0 8 3q2 2 3 4t3 4zM196 146h-21l-5 -24h-11l12 54h11l-5 -21h21l5 21h11l-12 -54h-11zM225 122h-11l11 54h24q7 0 10 -1q3 -2 5 -5q2 -2 2 -8q0 -7 -4 -11q-5 -5 -12 -6q1 -1 1.5 -2t2.5 -3q2 -3 4 -7.5t4 -10.5h-12q-2 6 -6 14q-1 4 -4 7q-2 1 -6 1h-5zM231 152h6
q8 0 12 2q2 0 5 3q1 1 1 5q0 2 -2 4q-1 1 -7 1h-12zM267 122l12 54h11l-11 -54h-12zM291 140h10q0 -5 2 -7q1 -3 9 -3q4 0 8 2q2 4 2 5q0 2 -2 4q-1 1 -8 4q-3 2 -5 2.5t-4 2.5q-3 1 -4 4q-2 4 -2 7q0 6 5 11t14 5q10 0 15 -5q4 -2 6 -11l-11 -1q0 4 -3 6q-2 2 -7 2t-6 -1
q-2 -2 -2 -5q0 -2 2 -3q3 -3 8 -5q10 -3 11 -6q4 -4 4 -10t-6 -12q-5 -5 -15 -5q-6 0 -12 2q-6 3 -7 7q-3 5 -2 10zM366 122h-12l-9 54h11l7 -41l22 41h11zM389 122l11 54h11l-11 -54h-11zM411 122l11 54h11l-9 -45h27l-2 -9h-38zM456 122l12 54h40l-2 -9h-29l-3 -12h28
l-2 -9h-28l-3 -15h31l-1 -9h-43zM509 132h11l-3 -10h-10zM567 141l11 -1q-3 -9 -10 -14t-15 -5q-10 0 -16 6q-5 7 -5 17q0 9 3 17q5 8 11 12q5 4 14 4t14 -5q6 -4 7 -13l-11 -1q0 4 -3 7q-2 2 -7 2q-3 0 -9 -2q-3 -3 -6 -9q-2 -4 -2 -12q0 -7 3 -10q4 -4 7 -4q5 0 8 3
q4 3 6 8zM586 143q0 7 1 10q1 7 6 13q2 4 9 8q6 3 14 3q10 0 16 -6t6 -17q0 -9 -4 -16q-5 -9 -11 -13q-8 -4 -15 -4q-9 0 -13 4q-6 4 -7 8q-2 3 -2 10zM597 143q0 -5 3 -9q4 -4 9 -4t8 3q6 4 7 9q3 6 3 12q0 7 -3 10q-6 4 -9 4q-8 0 -13 -8q-5 -6 -5 -17zM672 122h-11l-2 45
l-8 -45h-10l11 54h16l1 -38l19 38h16l-11 -54h-11l11 45z" />
    <glyph glyph-name="nine" unicode="9" 
d="M405 250h-1q-3 45 -7.5 89.5t-6.5 89.5h29q-4 -45 -7.5 -89.5t-6.5 -89.5zM354 421q5 -42 8 -84l6 -84q-11 40 -21.5 81t-21.5 81q6 3 13.5 3.5t14.5 2.5h1zM487 416q-11 -42 -21.5 -82t-20.5 -82q2 42 6 84.5t7 84.5q13 -1 29 -5zM526 370q-12 -24 -25 -47.5t-25 -46.5
q5 25 12.5 50.5t14.5 51.5q6 -2 11.5 -4t11.5 -4zM137 576h17q46 -7 85 -22.5t77 -31.5q16 -6 31 -12t34 -8q-1 -1 -3 -2t-1 -3q5 4 11 7.5t11 7.5q2 -2 2.5 -4t2.5 -4q2 6 4 7q5 -4 11 -7.5t11 -7.5q0 2 -2 3.5t-2 2.5q17 1 31.5 6.5t29.5 11.5q14 5 27 11t28 12
q29 11 58 20q15 5 32 9.5t34 2.5q12 -1 21 -7t5 -21t-14 -29q-5 -7 -9 -13t-9 -10q5 6 9 12.5t9 15.5q4 7 8 19t-1 19q-3 4 -10 5t-14 0q-12 -1 -23.5 -4t-22.5 -8q-31 -11 -60.5 -26t-55.5 -29q9 -7 20.5 -11.5t28.5 -2.5q16 1 29.5 8t25.5 15q11 9 21.5 19t18.5 18
q-10 -13 -20 -25t-23 -23t-28.5 -19t-33.5 -10q-17 -1 -29 3t-22 10q-2 2 -4.5 4t-5.5 2q-5 1 -12.5 -3t-14.5 -6q-14 -5 -28 -5t-19 13q-4 -8 -11.5 -10.5t-16 -1t-17.5 4.5t-15 6q-4 1 -8 2.5t-6 0.5q-2 0 -6.5 -3.5t-7.5 -5.5q-24 -13 -48.5 -9t-43.5 16t-33 27.5
t-26 33.5q8 -10 18.5 -20t22.5 -19q12 -8 26 -14.5t30 -8.5q16 -1 27.5 3.5t19.5 12.5q-27 14 -58 29.5t-64 26.5q-11 4 -23.5 7.5t-24.5 2.5q-14 0 -17 -8t0.5 -18t7.5 -17q5 -9 9 -15.5t8 -13.5q-10 12 -18.5 25t-13.5 30v10q2 8 8.5 11t14.5 5zM280 377q6 2 11.5 4.5
t11.5 4.5q5 -19 10.5 -38t10.5 -39q2 -7 4 -13t3 -12v0l-26 46t-25 47zM144 141l11 -1q-3 -9 -10 -14t-15 -5q-10 0 -16 6q-5 5 -5 17q0 9 3 17q5 8 11 12q5 4 14 4t14 -5q6 -4 7 -13l-11 -1q-1 5 -3 7t-7 2q-3 0 -9 -2q-3 -3 -6 -9q-2 -4 -2 -12q0 -7 3 -10q4 -4 7 -4
q5 0 8 3q2 2 3 4t3 4zM196 146h-21l-5 -24h-11l12 54h11l-5 -21h21l5 21h11l-12 -54h-11zM225 122h-11l11 54h24q7 0 10 -1q3 -2 5 -5q2 -2 2 -8q0 -7 -4 -11q-5 -5 -12 -6q1 -1 1.5 -2t2.5 -3q2 -3 4 -7.5t4 -10.5h-12q-2 6 -6 14q-1 4 -4 7q-2 1 -6 1h-5zM231 152h6
q8 0 12 2q2 0 5 3q1 1 1 5q0 2 -2 4q-1 1 -7 1h-12zM267 122l12 54h11l-11 -54h-12zM291 140h10q0 -5 2 -7q1 -3 9 -3q4 0 8 2q2 4 2 5q0 2 -2 4q-1 1 -8 4q-3 2 -5 2.5t-4 2.5q-3 1 -4 4q-2 4 -2 7q0 6 5 11t14 5q10 0 15 -5q4 -2 6 -11l-11 -1q0 4 -3 6q-2 2 -7 2t-6 -1
q-2 -2 -2 -5q0 -2 2 -3q3 -3 8 -5q10 -3 11 -6q4 -4 4 -10t-6 -12q-5 -5 -15 -5q-6 0 -12 2q-6 3 -7 7q-3 5 -2 10zM366 122h-12l-9 54h11l7 -41l22 41h11zM389 122l11 54h11l-11 -54h-11zM411 122l11 54h11l-9 -45h27l-2 -9h-38zM456 122l12 54h40l-2 -9h-29l-3 -12h28
l-2 -9h-28l-3 -15h31l-1 -9h-43zM509 132h11l-3 -10h-10zM567 141l11 -1q-3 -9 -10 -14t-15 -5q-10 0 -16 6q-5 7 -5 17q0 9 3 17q5 8 11 12q5 4 14 4t14 -5q6 -4 7 -13l-11 -1q0 4 -3 7q-2 2 -7 2q-3 0 -9 -2q-3 -3 -6 -9q-2 -4 -2 -12q0 -7 3 -10q4 -4 7 -4q5 0 8 3
q4 3 6 8zM586 143q0 7 1 10q1 7 6 13q2 4 9 8q6 3 14 3q10 0 16 -6t6 -17q0 -9 -4 -16q-5 -9 -11 -13q-8 -4 -15 -4q-9 0 -13 4q-6 4 -7 8q-2 3 -2 10zM597 143q0 -5 3 -9q4 -4 9 -4t8 3q6 4 7 9q3 6 3 12q0 7 -3 10q-6 4 -9 4q-8 0 -13 -8q-5 -6 -5 -17zM672 122h-11l-2 45
l-8 -45h-10l11 54h16l1 -38l19 38h16l-11 -54h-11l11 45z" />
    <glyph glyph-name="colon" unicode=":" 
d="M405 250h-1q-3 45 -7.5 89.5t-6.5 89.5h29q-4 -45 -7.5 -89.5t-6.5 -89.5zM354 421q5 -42 8 -84l6 -84q-11 40 -21.5 81t-21.5 81q6 3 13.5 3.5t14.5 2.5h1zM487 416q-11 -42 -21.5 -82t-20.5 -82q2 42 6 84.5t7 84.5q13 -1 29 -5zM526 370q-12 -24 -25 -47.5t-25 -46.5
q5 25 12.5 50.5t14.5 51.5q6 -2 11.5 -4t11.5 -4zM137 576h17q46 -7 85 -22.5t77 -31.5q16 -6 31 -12t34 -8q-1 -1 -3 -2t-1 -3q5 4 11 7.5t11 7.5q2 -2 2.5 -4t2.5 -4q2 6 4 7q5 -4 11 -7.5t11 -7.5q0 2 -2 3.5t-2 2.5q17 1 31.5 6.5t29.5 11.5q14 5 27 11t28 12
q29 11 58 20q15 5 32 9.5t34 2.5q12 -1 21 -7t5 -21t-14 -29q-5 -7 -9 -13t-9 -10q5 6 9 12.5t9 15.5q4 7 8 19t-1 19q-3 4 -10 5t-14 0q-12 -1 -23.5 -4t-22.5 -8q-31 -11 -60.5 -26t-55.5 -29q9 -7 20.5 -11.5t28.5 -2.5q16 1 29.5 8t25.5 15q11 9 21.5 19t18.5 18
q-10 -13 -20 -25t-23 -23t-28.5 -19t-33.5 -10q-17 -1 -29 3t-22 10q-2 2 -4.5 4t-5.5 2q-5 1 -12.5 -3t-14.5 -6q-14 -5 -28 -5t-19 13q-4 -8 -11.5 -10.5t-16 -1t-17.5 4.5t-15 6q-4 1 -8 2.5t-6 0.5q-2 0 -6.5 -3.5t-7.5 -5.5q-24 -13 -48.5 -9t-43.5 16t-33 27.5
t-26 33.5q8 -10 18.5 -20t22.5 -19q12 -8 26 -14.5t30 -8.5q16 -1 27.5 3.5t19.5 12.5q-27 14 -58 29.5t-64 26.5q-11 4 -23.5 7.5t-24.5 2.5q-14 0 -17 -8t0.5 -18t7.5 -17q5 -9 9 -15.5t8 -13.5q-10 12 -18.5 25t-13.5 30v10q2 8 8.5 11t14.5 5zM280 377q6 2 11.5 4.5
t11.5 4.5q5 -19 10.5 -38t10.5 -39q2 -7 4 -13t3 -12v0l-26 46t-25 47zM144 141l11 -1q-3 -9 -10 -14t-15 -5q-10 0 -16 6q-5 5 -5 17q0 9 3 17q5 8 11 12q5 4 14 4t14 -5q6 -4 7 -13l-11 -1q-1 5 -3 7t-7 2q-3 0 -9 -2q-3 -3 -6 -9q-2 -4 -2 -12q0 -7 3 -10q4 -4 7 -4
q5 0 8 3q2 2 3 4t3 4zM196 146h-21l-5 -24h-11l12 54h11l-5 -21h21l5 21h11l-12 -54h-11zM225 122h-11l11 54h24q7 0 10 -1q3 -2 5 -5q2 -2 2 -8q0 -7 -4 -11q-5 -5 -12 -6q1 -1 1.5 -2t2.5 -3q2 -3 4 -7.5t4 -10.5h-12q-2 6 -6 14q-1 4 -4 7q-2 1 -6 1h-5zM231 152h6
q8 0 12 2q2 0 5 3q1 1 1 5q0 2 -2 4q-1 1 -7 1h-12zM267 122l12 54h11l-11 -54h-12zM291 140h10q0 -5 2 -7q1 -3 9 -3q4 0 8 2q2 4 2 5q0 2 -2 4q-1 1 -8 4q-3 2 -5 2.5t-4 2.5q-3 1 -4 4q-2 4 -2 7q0 6 5 11t14 5q10 0 15 -5q4 -2 6 -11l-11 -1q0 4 -3 6q-2 2 -7 2t-6 -1
q-2 -2 -2 -5q0 -2 2 -3q3 -3 8 -5q10 -3 11 -6q4 -4 4 -10t-6 -12q-5 -5 -15 -5q-6 0 -12 2q-6 3 -7 7q-3 5 -2 10zM366 122h-12l-9 54h11l7 -41l22 41h11zM389 122l11 54h11l-11 -54h-11zM411 122l11 54h11l-9 -45h27l-2 -9h-38zM456 122l12 54h40l-2 -9h-29l-3 -12h28
l-2 -9h-28l-3 -15h31l-1 -9h-43zM509 132h11l-3 -10h-10zM567 141l11 -1q-3 -9 -10 -14t-15 -5q-10 0 -16 6q-5 7 -5 17q0 9 3 17q5 8 11 12q5 4 14 4t14 -5q6 -4 7 -13l-11 -1q0 4 -3 7q-2 2 -7 2q-3 0 -9 -2q-3 -3 -6 -9q-2 -4 -2 -12q0 -7 3 -10q4 -4 7 -4q5 0 8 3
q4 3 6 8zM586 143q0 7 1 10q1 7 6 13q2 4 9 8q6 3 14 3q10 0 16 -6t6 -17q0 -9 -4 -16q-5 -9 -11 -13q-8 -4 -15 -4q-9 0 -13 4q-6 4 -7 8q-2 3 -2 10zM597 143q0 -5 3 -9q4 -4 9 -4t8 3q6 4 7 9q3 6 3 12q0 7 -3 10q-6 4 -9 4q-8 0 -13 -8q-5 -6 -5 -17zM672 122h-11l-2 45
l-8 -45h-10l11 54h16l1 -38l19 38h16l-11 -54h-11l11 45z" />
    <glyph glyph-name="semicolon" unicode=";" 
d="M405 250h-1q-3 45 -7.5 89.5t-6.5 89.5h29q-4 -45 -7.5 -89.5t-6.5 -89.5zM354 421q5 -42 8 -84l6 -84q-11 40 -21.5 81t-21.5 81q6 3 13.5 3.5t14.5 2.5h1zM487 416q-11 -42 -21.5 -82t-20.5 -82q2 42 6 84.5t7 84.5q13 -1 29 -5zM526 370q-12 -24 -25 -47.5t-25 -46.5
q5 25 12.5 50.5t14.5 51.5q6 -2 11.5 -4t11.5 -4zM137 576h17q46 -7 85 -22.5t77 -31.5q16 -6 31 -12t34 -8q-1 -1 -3 -2t-1 -3q5 4 11 7.5t11 7.5q2 -2 2.5 -4t2.5 -4q2 6 4 7q5 -4 11 -7.5t11 -7.5q0 2 -2 3.5t-2 2.5q17 1 31.5 6.5t29.5 11.5q14 5 27 11t28 12
q29 11 58 20q15 5 32 9.5t34 2.5q12 -1 21 -7t5 -21t-14 -29q-5 -7 -9 -13t-9 -10q5 6 9 12.5t9 15.5q4 7 8 19t-1 19q-3 4 -10 5t-14 0q-12 -1 -23.5 -4t-22.5 -8q-31 -11 -60.5 -26t-55.5 -29q9 -7 20.5 -11.5t28.5 -2.5q16 1 29.5 8t25.5 15q11 9 21.5 19t18.5 18
q-10 -13 -20 -25t-23 -23t-28.5 -19t-33.5 -10q-17 -1 -29 3t-22 10q-2 2 -4.5 4t-5.5 2q-5 1 -12.5 -3t-14.5 -6q-14 -5 -28 -5t-19 13q-4 -8 -11.5 -10.5t-16 -1t-17.5 4.5t-15 6q-4 1 -8 2.5t-6 0.5q-2 0 -6.5 -3.5t-7.5 -5.5q-24 -13 -48.5 -9t-43.5 16t-33 27.5
t-26 33.5q8 -10 18.5 -20t22.5 -19q12 -8 26 -14.5t30 -8.5q16 -1 27.5 3.5t19.5 12.5q-27 14 -58 29.5t-64 26.5q-11 4 -23.5 7.5t-24.5 2.5q-14 0 -17 -8t0.5 -18t7.5 -17q5 -9 9 -15.5t8 -13.5q-10 12 -18.5 25t-13.5 30v10q2 8 8.5 11t14.5 5zM280 377q6 2 11.5 4.5
t11.5 4.5q5 -19 10.5 -38t10.5 -39q2 -7 4 -13t3 -12v0l-26 46t-25 47zM144 141l11 -1q-3 -9 -10 -14t-15 -5q-10 0 -16 6q-5 5 -5 17q0 9 3 17q5 8 11 12q5 4 14 4t14 -5q6 -4 7 -13l-11 -1q-1 5 -3 7t-7 2q-3 0 -9 -2q-3 -3 -6 -9q-2 -4 -2 -12q0 -7 3 -10q4 -4 7 -4
q5 0 8 3q2 2 3 4t3 4zM196 146h-21l-5 -24h-11l12 54h11l-5 -21h21l5 21h11l-12 -54h-11zM225 122h-11l11 54h24q7 0 10 -1q3 -2 5 -5q2 -2 2 -8q0 -7 -4 -11q-5 -5 -12 -6q1 -1 1.5 -2t2.5 -3q2 -3 4 -7.5t4 -10.5h-12q-2 6 -6 14q-1 4 -4 7q-2 1 -6 1h-5zM231 152h6
q8 0 12 2q2 0 5 3q1 1 1 5q0 2 -2 4q-1 1 -7 1h-12zM267 122l12 54h11l-11 -54h-12zM291 140h10q0 -5 2 -7q1 -3 9 -3q4 0 8 2q2 4 2 5q0 2 -2 4q-1 1 -8 4q-3 2 -5 2.5t-4 2.5q-3 1 -4 4q-2 4 -2 7q0 6 5 11t14 5q10 0 15 -5q4 -2 6 -11l-11 -1q0 4 -3 6q-2 2 -7 2t-6 -1
q-2 -2 -2 -5q0 -2 2 -3q3 -3 8 -5q10 -3 11 -6q4 -4 4 -10t-6 -12q-5 -5 -15 -5q-6 0 -12 2q-6 3 -7 7q-3 5 -2 10zM366 122h-12l-9 54h11l7 -41l22 41h11zM389 122l11 54h11l-11 -54h-11zM411 122l11 54h11l-9 -45h27l-2 -9h-38zM456 122l12 54h40l-2 -9h-29l-3 -12h28
l-2 -9h-28l-3 -15h31l-1 -9h-43zM509 132h11l-3 -10h-10zM567 141l11 -1q-3 -9 -10 -14t-15 -5q-10 0 -16 6q-5 7 -5 17q0 9 3 17q5 8 11 12q5 4 14 4t14 -5q6 -4 7 -13l-11 -1q0 4 -3 7q-2 2 -7 2q-3 0 -9 -2q-3 -3 -6 -9q-2 -4 -2 -12q0 -7 3 -10q4 -4 7 -4q5 0 8 3
q4 3 6 8zM586 143q0 7 1 10q1 7 6 13q2 4 9 8q6 3 14 3q10 0 16 -6t6 -17q0 -9 -4 -16q-5 -9 -11 -13q-8 -4 -15 -4q-9 0 -13 4q-6 4 -7 8q-2 3 -2 10zM597 143q0 -5 3 -9q4 -4 9 -4t8 3q6 4 7 9q3 6 3 12q0 7 -3 10q-6 4 -9 4q-8 0 -13 -8q-5 -6 -5 -17zM672 122h-11l-2 45
l-8 -45h-10l11 54h16l1 -38l19 38h16l-11 -54h-11l11 45z" />
    <glyph glyph-name="less" unicode="&#x3c;" 
d="M405 250h-1q-3 45 -7.5 89.5t-6.5 89.5h29q-4 -45 -7.5 -89.5t-6.5 -89.5zM354 421q5 -42 8 -84l6 -84q-11 40 -21.5 81t-21.5 81q6 3 13.5 3.5t14.5 2.5h1zM487 416q-11 -42 -21.5 -82t-20.5 -82q2 42 6 84.5t7 84.5q13 -1 29 -5zM526 370q-12 -24 -25 -47.5t-25 -46.5
q5 25 12.5 50.5t14.5 51.5q6 -2 11.5 -4t11.5 -4zM137 576h17q46 -7 85 -22.5t77 -31.5q16 -6 31 -12t34 -8q-1 -1 -3 -2t-1 -3q5 4 11 7.5t11 7.5q2 -2 2.5 -4t2.5 -4q2 6 4 7q5 -4 11 -7.5t11 -7.5q0 2 -2 3.5t-2 2.5q17 1 31.5 6.5t29.5 11.5q14 5 27 11t28 12
q29 11 58 20q15 5 32 9.5t34 2.5q12 -1 21 -7t5 -21t-14 -29q-5 -7 -9 -13t-9 -10q5 6 9 12.5t9 15.5q4 7 8 19t-1 19q-3 4 -10 5t-14 0q-12 -1 -23.5 -4t-22.5 -8q-31 -11 -60.5 -26t-55.5 -29q9 -7 20.5 -11.5t28.5 -2.5q16 1 29.5 8t25.5 15q11 9 21.5 19t18.5 18
q-10 -13 -20 -25t-23 -23t-28.5 -19t-33.5 -10q-17 -1 -29 3t-22 10q-2 2 -4.5 4t-5.5 2q-5 1 -12.5 -3t-14.5 -6q-14 -5 -28 -5t-19 13q-4 -8 -11.5 -10.5t-16 -1t-17.5 4.5t-15 6q-4 1 -8 2.5t-6 0.5q-2 0 -6.5 -3.5t-7.5 -5.5q-24 -13 -48.5 -9t-43.5 16t-33 27.5
t-26 33.5q8 -10 18.5 -20t22.5 -19q12 -8 26 -14.5t30 -8.5q16 -1 27.5 3.5t19.5 12.5q-27 14 -58 29.5t-64 26.5q-11 4 -23.5 7.5t-24.5 2.5q-14 0 -17 -8t0.5 -18t7.5 -17q5 -9 9 -15.5t8 -13.5q-10 12 -18.5 25t-13.5 30v10q2 8 8.5 11t14.5 5zM280 377q6 2 11.5 4.5
t11.5 4.5q5 -19 10.5 -38t10.5 -39q2 -7 4 -13t3 -12v0l-26 46t-25 47zM144 141l11 -1q-3 -9 -10 -14t-15 -5q-10 0 -16 6q-5 5 -5 17q0 9 3 17q5 8 11 12q5 4 14 4t14 -5q6 -4 7 -13l-11 -1q-1 5 -3 7t-7 2q-3 0 -9 -2q-3 -3 -6 -9q-2 -4 -2 -12q0 -7 3 -10q4 -4 7 -4
q5 0 8 3q2 2 3 4t3 4zM196 146h-21l-5 -24h-11l12 54h11l-5 -21h21l5 21h11l-12 -54h-11zM225 122h-11l11 54h24q7 0 10 -1q3 -2 5 -5q2 -2 2 -8q0 -7 -4 -11q-5 -5 -12 -6q1 -1 1.5 -2t2.5 -3q2 -3 4 -7.5t4 -10.5h-12q-2 6 -6 14q-1 4 -4 7q-2 1 -6 1h-5zM231 152h6
q8 0 12 2q2 0 5 3q1 1 1 5q0 2 -2 4q-1 1 -7 1h-12zM267 122l12 54h11l-11 -54h-12zM291 140h10q0 -5 2 -7q1 -3 9 -3q4 0 8 2q2 4 2 5q0 2 -2 4q-1 1 -8 4q-3 2 -5 2.5t-4 2.5q-3 1 -4 4q-2 4 -2 7q0 6 5 11t14 5q10 0 15 -5q4 -2 6 -11l-11 -1q0 4 -3 6q-2 2 -7 2t-6 -1
q-2 -2 -2 -5q0 -2 2 -3q3 -3 8 -5q10 -3 11 -6q4 -4 4 -10t-6 -12q-5 -5 -15 -5q-6 0 -12 2q-6 3 -7 7q-3 5 -2 10zM366 122h-12l-9 54h11l7 -41l22 41h11zM389 122l11 54h11l-11 -54h-11zM411 122l11 54h11l-9 -45h27l-2 -9h-38zM456 122l12 54h40l-2 -9h-29l-3 -12h28
l-2 -9h-28l-3 -15h31l-1 -9h-43zM509 132h11l-3 -10h-10zM567 141l11 -1q-3 -9 -10 -14t-15 -5q-10 0 -16 6q-5 7 -5 17q0 9 3 17q5 8 11 12q5 4 14 4t14 -5q6 -4 7 -13l-11 -1q0 4 -3 7q-2 2 -7 2q-3 0 -9 -2q-3 -3 -6 -9q-2 -4 -2 -12q0 -7 3 -10q4 -4 7 -4q5 0 8 3
q4 3 6 8zM586 143q0 7 1 10q1 7 6 13q2 4 9 8q6 3 14 3q10 0 16 -6t6 -17q0 -9 -4 -16q-5 -9 -11 -13q-8 -4 -15 -4q-9 0 -13 4q-6 4 -7 8q-2 3 -2 10zM597 143q0 -5 3 -9q4 -4 9 -4t8 3q6 4 7 9q3 6 3 12q0 7 -3 10q-6 4 -9 4q-8 0 -13 -8q-5 -6 -5 -17zM672 122h-11l-2 45
l-8 -45h-10l11 54h16l1 -38l19 38h16l-11 -54h-11l11 45z" />
    <glyph glyph-name="equal" unicode="=" 
d="M405 250h-1q-3 45 -7.5 89.5t-6.5 89.5h29q-4 -45 -7.5 -89.5t-6.5 -89.5zM354 421q5 -42 8 -84l6 -84q-11 40 -21.5 81t-21.5 81q6 3 13.5 3.5t14.5 2.5h1zM487 416q-11 -42 -21.5 -82t-20.5 -82q2 42 6 84.5t7 84.5q13 -1 29 -5zM526 370q-12 -24 -25 -47.5t-25 -46.5
q5 25 12.5 50.5t14.5 51.5q6 -2 11.5 -4t11.5 -4zM137 576h17q46 -7 85 -22.5t77 -31.5q16 -6 31 -12t34 -8q-1 -1 -3 -2t-1 -3q5 4 11 7.5t11 7.5q2 -2 2.5 -4t2.5 -4q2 6 4 7q5 -4 11 -7.5t11 -7.5q0 2 -2 3.5t-2 2.5q17 1 31.5 6.5t29.5 11.5q14 5 27 11t28 12
q29 11 58 20q15 5 32 9.5t34 2.5q12 -1 21 -7t5 -21t-14 -29q-5 -7 -9 -13t-9 -10q5 6 9 12.5t9 15.5q4 7 8 19t-1 19q-3 4 -10 5t-14 0q-12 -1 -23.5 -4t-22.5 -8q-31 -11 -60.5 -26t-55.5 -29q9 -7 20.5 -11.5t28.5 -2.5q16 1 29.5 8t25.5 15q11 9 21.5 19t18.5 18
q-10 -13 -20 -25t-23 -23t-28.5 -19t-33.5 -10q-17 -1 -29 3t-22 10q-2 2 -4.5 4t-5.5 2q-5 1 -12.5 -3t-14.5 -6q-14 -5 -28 -5t-19 13q-4 -8 -11.5 -10.5t-16 -1t-17.5 4.5t-15 6q-4 1 -8 2.5t-6 0.5q-2 0 -6.5 -3.5t-7.5 -5.5q-24 -13 -48.5 -9t-43.5 16t-33 27.5
t-26 33.5q8 -10 18.5 -20t22.5 -19q12 -8 26 -14.5t30 -8.5q16 -1 27.5 3.5t19.5 12.5q-27 14 -58 29.5t-64 26.5q-11 4 -23.5 7.5t-24.5 2.5q-14 0 -17 -8t0.5 -18t7.5 -17q5 -9 9 -15.5t8 -13.5q-10 12 -18.5 25t-13.5 30v10q2 8 8.5 11t14.5 5zM280 377q6 2 11.5 4.5
t11.5 4.5q5 -19 10.5 -38t10.5 -39q2 -7 4 -13t3 -12v0l-26 46t-25 47zM144 141l11 -1q-3 -9 -10 -14t-15 -5q-10 0 -16 6q-5 5 -5 17q0 9 3 17q5 8 11 12q5 4 14 4t14 -5q6 -4 7 -13l-11 -1q-1 5 -3 7t-7 2q-3 0 -9 -2q-3 -3 -6 -9q-2 -4 -2 -12q0 -7 3 -10q4 -4 7 -4
q5 0 8 3q2 2 3 4t3 4zM196 146h-21l-5 -24h-11l12 54h11l-5 -21h21l5 21h11l-12 -54h-11zM225 122h-11l11 54h24q7 0 10 -1q3 -2 5 -5q2 -2 2 -8q0 -7 -4 -11q-5 -5 -12 -6q1 -1 1.5 -2t2.5 -3q2 -3 4 -7.5t4 -10.5h-12q-2 6 -6 14q-1 4 -4 7q-2 1 -6 1h-5zM231 152h6
q8 0 12 2q2 0 5 3q1 1 1 5q0 2 -2 4q-1 1 -7 1h-12zM267 122l12 54h11l-11 -54h-12zM291 140h10q0 -5 2 -7q1 -3 9 -3q4 0 8 2q2 4 2 5q0 2 -2 4q-1 1 -8 4q-3 2 -5 2.5t-4 2.5q-3 1 -4 4q-2 4 -2 7q0 6 5 11t14 5q10 0 15 -5q4 -2 6 -11l-11 -1q0 4 -3 6q-2 2 -7 2t-6 -1
q-2 -2 -2 -5q0 -2 2 -3q3 -3 8 -5q10 -3 11 -6q4 -4 4 -10t-6 -12q-5 -5 -15 -5q-6 0 -12 2q-6 3 -7 7q-3 5 -2 10zM366 122h-12l-9 54h11l7 -41l22 41h11zM389 122l11 54h11l-11 -54h-11zM411 122l11 54h11l-9 -45h27l-2 -9h-38zM456 122l12 54h40l-2 -9h-29l-3 -12h28
l-2 -9h-28l-3 -15h31l-1 -9h-43zM509 132h11l-3 -10h-10zM567 141l11 -1q-3 -9 -10 -14t-15 -5q-10 0 -16 6q-5 7 -5 17q0 9 3 17q5 8 11 12q5 4 14 4t14 -5q6 -4 7 -13l-11 -1q0 4 -3 7q-2 2 -7 2q-3 0 -9 -2q-3 -3 -6 -9q-2 -4 -2 -12q0 -7 3 -10q4 -4 7 -4q5 0 8 3
q4 3 6 8zM586 143q0 7 1 10q1 7 6 13q2 4 9 8q6 3 14 3q10 0 16 -6t6 -17q0 -9 -4 -16q-5 -9 -11 -13q-8 -4 -15 -4q-9 0 -13 4q-6 4 -7 8q-2 3 -2 10zM597 143q0 -5 3 -9q4 -4 9 -4t8 3q6 4 7 9q3 6 3 12q0 7 -3 10q-6 4 -9 4q-8 0 -13 -8q-5 -6 -5 -17zM672 122h-11l-2 45
l-8 -45h-10l11 54h16l1 -38l19 38h16l-11 -54h-11l11 45z" />
    <glyph glyph-name="greater" unicode="&#x3e;" 
d="M405 250h-1q-3 45 -7.5 89.5t-6.5 89.5h29q-4 -45 -7.5 -89.5t-6.5 -89.5zM354 421q5 -42 8 -84l6 -84q-11 40 -21.5 81t-21.5 81q6 3 13.5 3.5t14.5 2.5h1zM487 416q-11 -42 -21.5 -82t-20.5 -82q2 42 6 84.5t7 84.5q13 -1 29 -5zM526 370q-12 -24 -25 -47.5t-25 -46.5
q5 25 12.5 50.5t14.5 51.5q6 -2 11.5 -4t11.5 -4zM137 576h17q46 -7 85 -22.5t77 -31.5q16 -6 31 -12t34 -8q-1 -1 -3 -2t-1 -3q5 4 11 7.5t11 7.5q2 -2 2.5 -4t2.5 -4q2 6 4 7q5 -4 11 -7.5t11 -7.5q0 2 -2 3.5t-2 2.5q17 1 31.5 6.5t29.5 11.5q14 5 27 11t28 12
q29 11 58 20q15 5 32 9.5t34 2.5q12 -1 21 -7t5 -21t-14 -29q-5 -7 -9 -13t-9 -10q5 6 9 12.5t9 15.5q4 7 8 19t-1 19q-3 4 -10 5t-14 0q-12 -1 -23.5 -4t-22.5 -8q-31 -11 -60.5 -26t-55.5 -29q9 -7 20.5 -11.5t28.5 -2.5q16 1 29.5 8t25.5 15q11 9 21.5 19t18.5 18
q-10 -13 -20 -25t-23 -23t-28.5 -19t-33.5 -10q-17 -1 -29 3t-22 10q-2 2 -4.5 4t-5.5 2q-5 1 -12.5 -3t-14.5 -6q-14 -5 -28 -5t-19 13q-4 -8 -11.5 -10.5t-16 -1t-17.5 4.5t-15 6q-4 1 -8 2.5t-6 0.5q-2 0 -6.5 -3.5t-7.5 -5.5q-24 -13 -48.5 -9t-43.5 16t-33 27.5
t-26 33.5q8 -10 18.5 -20t22.5 -19q12 -8 26 -14.5t30 -8.5q16 -1 27.5 3.5t19.5 12.5q-27 14 -58 29.5t-64 26.5q-11 4 -23.5 7.5t-24.5 2.5q-14 0 -17 -8t0.5 -18t7.5 -17q5 -9 9 -15.5t8 -13.5q-10 12 -18.5 25t-13.5 30v10q2 8 8.5 11t14.5 5zM280 377q6 2 11.5 4.5
t11.5 4.5q5 -19 10.5 -38t10.5 -39q2 -7 4 -13t3 -12v0l-26 46t-25 47zM144 141l11 -1q-3 -9 -10 -14t-15 -5q-10 0 -16 6q-5 5 -5 17q0 9 3 17q5 8 11 12q5 4 14 4t14 -5q6 -4 7 -13l-11 -1q-1 5 -3 7t-7 2q-3 0 -9 -2q-3 -3 -6 -9q-2 -4 -2 -12q0 -7 3 -10q4 -4 7 -4
q5 0 8 3q2 2 3 4t3 4zM196 146h-21l-5 -24h-11l12 54h11l-5 -21h21l5 21h11l-12 -54h-11zM225 122h-11l11 54h24q7 0 10 -1q3 -2 5 -5q2 -2 2 -8q0 -7 -4 -11q-5 -5 -12 -6q1 -1 1.5 -2t2.5 -3q2 -3 4 -7.5t4 -10.5h-12q-2 6 -6 14q-1 4 -4 7q-2 1 -6 1h-5zM231 152h6
q8 0 12 2q2 0 5 3q1 1 1 5q0 2 -2 4q-1 1 -7 1h-12zM267 122l12 54h11l-11 -54h-12zM291 140h10q0 -5 2 -7q1 -3 9 -3q4 0 8 2q2 4 2 5q0 2 -2 4q-1 1 -8 4q-3 2 -5 2.5t-4 2.5q-3 1 -4 4q-2 4 -2 7q0 6 5 11t14 5q10 0 15 -5q4 -2 6 -11l-11 -1q0 4 -3 6q-2 2 -7 2t-6 -1
q-2 -2 -2 -5q0 -2 2 -3q3 -3 8 -5q10 -3 11 -6q4 -4 4 -10t-6 -12q-5 -5 -15 -5q-6 0 -12 2q-6 3 -7 7q-3 5 -2 10zM366 122h-12l-9 54h11l7 -41l22 41h11zM389 122l11 54h11l-11 -54h-11zM411 122l11 54h11l-9 -45h27l-2 -9h-38zM456 122l12 54h40l-2 -9h-29l-3 -12h28
l-2 -9h-28l-3 -15h31l-1 -9h-43zM509 132h11l-3 -10h-10zM567 141l11 -1q-3 -9 -10 -14t-15 -5q-10 0 -16 6q-5 7 -5 17q0 9 3 17q5 8 11 12q5 4 14 4t14 -5q6 -4 7 -13l-11 -1q0 4 -3 7q-2 2 -7 2q-3 0 -9 -2q-3 -3 -6 -9q-2 -4 -2 -12q0 -7 3 -10q4 -4 7 -4q5 0 8 3
q4 3 6 8zM586 143q0 7 1 10q1 7 6 13q2 4 9 8q6 3 14 3q10 0 16 -6t6 -17q0 -9 -4 -16q-5 -9 -11 -13q-8 -4 -15 -4q-9 0 -13 4q-6 4 -7 8q-2 3 -2 10zM597 143q0 -5 3 -9q4 -4 9 -4t8 3q6 4 7 9q3 6 3 12q0 7 -3 10q-6 4 -9 4q-8 0 -13 -8q-5 -6 -5 -17zM672 122h-11l-2 45
l-8 -45h-10l11 54h16l1 -38l19 38h16l-11 -54h-11l11 45z" />
    <glyph glyph-name="question" unicode="?" 
d="M405 250h-1q-3 45 -7.5 89.5t-6.5 89.5h29q-4 -45 -7.5 -89.5t-6.5 -89.5zM354 421q5 -42 8 -84l6 -84q-11 40 -21.5 81t-21.5 81q6 3 13.5 3.5t14.5 2.5h1zM487 416q-11 -42 -21.5 -82t-20.5 -82q2 42 6 84.5t7 84.5q13 -1 29 -5zM526 370q-12 -24 -25 -47.5t-25 -46.5
q5 25 12.5 50.5t14.5 51.5q6 -2 11.5 -4t11.5 -4zM137 576h17q46 -7 85 -22.5t77 -31.5q16 -6 31 -12t34 -8q-1 -1 -3 -2t-1 -3q5 4 11 7.5t11 7.5q2 -2 2.5 -4t2.5 -4q2 6 4 7q5 -4 11 -7.5t11 -7.5q0 2 -2 3.5t-2 2.5q17 1 31.5 6.5t29.5 11.5q14 5 27 11t28 12
q29 11 58 20q15 5 32 9.5t34 2.5q12 -1 21 -7t5 -21t-14 -29q-5 -7 -9 -13t-9 -10q5 6 9 12.5t9 15.5q4 7 8 19t-1 19q-3 4 -10 5t-14 0q-12 -1 -23.5 -4t-22.5 -8q-31 -11 -60.5 -26t-55.5 -29q9 -7 20.5 -11.5t28.5 -2.5q16 1 29.5 8t25.5 15q11 9 21.5 19t18.5 18
q-10 -13 -20 -25t-23 -23t-28.5 -19t-33.5 -10q-17 -1 -29 3t-22 10q-2 2 -4.5 4t-5.5 2q-5 1 -12.5 -3t-14.5 -6q-14 -5 -28 -5t-19 13q-4 -8 -11.5 -10.5t-16 -1t-17.5 4.5t-15 6q-4 1 -8 2.5t-6 0.5q-2 0 -6.5 -3.5t-7.5 -5.5q-24 -13 -48.5 -9t-43.5 16t-33 27.5
t-26 33.5q8 -10 18.5 -20t22.5 -19q12 -8 26 -14.5t30 -8.5q16 -1 27.5 3.5t19.5 12.5q-27 14 -58 29.5t-64 26.5q-11 4 -23.5 7.5t-24.5 2.5q-14 0 -17 -8t0.5 -18t7.5 -17q5 -9 9 -15.5t8 -13.5q-10 12 -18.5 25t-13.5 30v10q2 8 8.5 11t14.5 5zM280 377q6 2 11.5 4.5
t11.5 4.5q5 -19 10.5 -38t10.5 -39q2 -7 4 -13t3 -12v0l-26 46t-25 47zM144 141l11 -1q-3 -9 -10 -14t-15 -5q-10 0 -16 6q-5 5 -5 17q0 9 3 17q5 8 11 12q5 4 14 4t14 -5q6 -4 7 -13l-11 -1q-1 5 -3 7t-7 2q-3 0 -9 -2q-3 -3 -6 -9q-2 -4 -2 -12q0 -7 3 -10q4 -4 7 -4
q5 0 8 3q2 2 3 4t3 4zM196 146h-21l-5 -24h-11l12 54h11l-5 -21h21l5 21h11l-12 -54h-11zM225 122h-11l11 54h24q7 0 10 -1q3 -2 5 -5q2 -2 2 -8q0 -7 -4 -11q-5 -5 -12 -6q1 -1 1.5 -2t2.5 -3q2 -3 4 -7.5t4 -10.5h-12q-2 6 -6 14q-1 4 -4 7q-2 1 -6 1h-5zM231 152h6
q8 0 12 2q2 0 5 3q1 1 1 5q0 2 -2 4q-1 1 -7 1h-12zM267 122l12 54h11l-11 -54h-12zM291 140h10q0 -5 2 -7q1 -3 9 -3q4 0 8 2q2 4 2 5q0 2 -2 4q-1 1 -8 4q-3 2 -5 2.5t-4 2.5q-3 1 -4 4q-2 4 -2 7q0 6 5 11t14 5q10 0 15 -5q4 -2 6 -11l-11 -1q0 4 -3 6q-2 2 -7 2t-6 -1
q-2 -2 -2 -5q0 -2 2 -3q3 -3 8 -5q10 -3 11 -6q4 -4 4 -10t-6 -12q-5 -5 -15 -5q-6 0 -12 2q-6 3 -7 7q-3 5 -2 10zM366 122h-12l-9 54h11l7 -41l22 41h11zM389 122l11 54h11l-11 -54h-11zM411 122l11 54h11l-9 -45h27l-2 -9h-38zM456 122l12 54h40l-2 -9h-29l-3 -12h28
l-2 -9h-28l-3 -15h31l-1 -9h-43zM509 132h11l-3 -10h-10zM567 141l11 -1q-3 -9 -10 -14t-15 -5q-10 0 -16 6q-5 7 -5 17q0 9 3 17q5 8 11 12q5 4 14 4t14 -5q6 -4 7 -13l-11 -1q0 4 -3 7q-2 2 -7 2q-3 0 -9 -2q-3 -3 -6 -9q-2 -4 -2 -12q0 -7 3 -10q4 -4 7 -4q5 0 8 3
q4 3 6 8zM586 143q0 7 1 10q1 7 6 13q2 4 9 8q6 3 14 3q10 0 16 -6t6 -17q0 -9 -4 -16q-5 -9 -11 -13q-8 -4 -15 -4q-9 0 -13 4q-6 4 -7 8q-2 3 -2 10zM597 143q0 -5 3 -9q4 -4 9 -4t8 3q6 4 7 9q3 6 3 12q0 7 -3 10q-6 4 -9 4q-8 0 -13 -8q-5 -6 -5 -17zM672 122h-11l-2 45
l-8 -45h-10l11 54h16l1 -38l19 38h16l-11 -54h-11l11 45z" />
    <glyph glyph-name="at" unicode="@" 
d="M405 250h-1q-3 45 -7.5 89.5t-6.5 89.5h29q-4 -45 -7.5 -89.5t-6.5 -89.5zM354 421q5 -42 8 -84l6 -84q-11 40 -21.5 81t-21.5 81q6 3 13.5 3.5t14.5 2.5h1zM487 416q-11 -42 -21.5 -82t-20.5 -82q2 42 6 84.5t7 84.5q13 -1 29 -5zM526 370q-12 -24 -25 -47.5t-25 -46.5
q5 25 12.5 50.5t14.5 51.5q6 -2 11.5 -4t11.5 -4zM137 576h17q46 -7 85 -22.5t77 -31.5q16 -6 31 -12t34 -8q-1 -1 -3 -2t-1 -3q5 4 11 7.5t11 7.5q2 -2 2.5 -4t2.5 -4q2 6 4 7q5 -4 11 -7.5t11 -7.5q0 2 -2 3.5t-2 2.5q17 1 31.5 6.5t29.5 11.5q14 5 27 11t28 12
q29 11 58 20q15 5 32 9.5t34 2.5q12 -1 21 -7t5 -21t-14 -29q-5 -7 -9 -13t-9 -10q5 6 9 12.5t9 15.5q4 7 8 19t-1 19q-3 4 -10 5t-14 0q-12 -1 -23.5 -4t-22.5 -8q-31 -11 -60.5 -26t-55.5 -29q9 -7 20.5 -11.5t28.5 -2.5q16 1 29.5 8t25.5 15q11 9 21.5 19t18.5 18
q-10 -13 -20 -25t-23 -23t-28.5 -19t-33.5 -10q-17 -1 -29 3t-22 10q-2 2 -4.5 4t-5.5 2q-5 1 -12.5 -3t-14.5 -6q-14 -5 -28 -5t-19 13q-4 -8 -11.5 -10.5t-16 -1t-17.5 4.5t-15 6q-4 1 -8 2.5t-6 0.5q-2 0 -6.5 -3.5t-7.5 -5.5q-24 -13 -48.5 -9t-43.5 16t-33 27.5
t-26 33.5q8 -10 18.5 -20t22.5 -19q12 -8 26 -14.5t30 -8.5q16 -1 27.5 3.5t19.5 12.5q-27 14 -58 29.5t-64 26.5q-11 4 -23.5 7.5t-24.5 2.5q-14 0 -17 -8t0.5 -18t7.5 -17q5 -9 9 -15.5t8 -13.5q-10 12 -18.5 25t-13.5 30v10q2 8 8.5 11t14.5 5zM280 377q6 2 11.5 4.5
t11.5 4.5q5 -19 10.5 -38t10.5 -39q2 -7 4 -13t3 -12v0l-26 46t-25 47zM144 141l11 -1q-3 -9 -10 -14t-15 -5q-10 0 -16 6q-5 5 -5 17q0 9 3 17q5 8 11 12q5 4 14 4t14 -5q6 -4 7 -13l-11 -1q-1 5 -3 7t-7 2q-3 0 -9 -2q-3 -3 -6 -9q-2 -4 -2 -12q0 -7 3 -10q4 -4 7 -4
q5 0 8 3q2 2 3 4t3 4zM196 146h-21l-5 -24h-11l12 54h11l-5 -21h21l5 21h11l-12 -54h-11zM225 122h-11l11 54h24q7 0 10 -1q3 -2 5 -5q2 -2 2 -8q0 -7 -4 -11q-5 -5 -12 -6q1 -1 1.5 -2t2.5 -3q2 -3 4 -7.5t4 -10.5h-12q-2 6 -6 14q-1 4 -4 7q-2 1 -6 1h-5zM231 152h6
q8 0 12 2q2 0 5 3q1 1 1 5q0 2 -2 4q-1 1 -7 1h-12zM267 122l12 54h11l-11 -54h-12zM291 140h10q0 -5 2 -7q1 -3 9 -3q4 0 8 2q2 4 2 5q0 2 -2 4q-1 1 -8 4q-3 2 -5 2.5t-4 2.5q-3 1 -4 4q-2 4 -2 7q0 6 5 11t14 5q10 0 15 -5q4 -2 6 -11l-11 -1q0 4 -3 6q-2 2 -7 2t-6 -1
q-2 -2 -2 -5q0 -2 2 -3q3 -3 8 -5q10 -3 11 -6q4 -4 4 -10t-6 -12q-5 -5 -15 -5q-6 0 -12 2q-6 3 -7 7q-3 5 -2 10zM366 122h-12l-9 54h11l7 -41l22 41h11zM389 122l11 54h11l-11 -54h-11zM411 122l11 54h11l-9 -45h27l-2 -9h-38zM456 122l12 54h40l-2 -9h-29l-3 -12h28
l-2 -9h-28l-3 -15h31l-1 -9h-43zM509 132h11l-3 -10h-10zM567 141l11 -1q-3 -9 -10 -14t-15 -5q-10 0 -16 6q-5 7 -5 17q0 9 3 17q5 8 11 12q5 4 14 4t14 -5q6 -4 7 -13l-11 -1q0 4 -3 7q-2 2 -7 2q-3 0 -9 -2q-3 -3 -6 -9q-2 -4 -2 -12q0 -7 3 -10q4 -4 7 -4q5 0 8 3
q4 3 6 8zM586 143q0 7 1 10q1 7 6 13q2 4 9 8q6 3 14 3q10 0 16 -6t6 -17q0 -9 -4 -16q-5 -9 -11 -13q-8 -4 -15 -4q-9 0 -13 4q-6 4 -7 8q-2 3 -2 10zM597 143q0 -5 3 -9q4 -4 9 -4t8 3q6 4 7 9q3 6 3 12q0 7 -3 10q-6 4 -9 4q-8 0 -13 -8q-5 -6 -5 -17zM672 122h-11l-2 45
l-8 -45h-10l11 54h16l1 -38l19 38h16l-11 -54h-11l11 45z" />
    <glyph glyph-name="A" unicode="A" horiz-adv-x="903" 
d="M840 734v-733h-172v561h-443q0 -42 -0.5 -77.5t-0.5 -72.5q42 -3 85.5 -1.5t85.5 -1.5v-170h-170q0 -63 -0.5 -120.5t-0.5 -117.5h-172v733h788zM451 410h166v-171h-167v168q0 3 1 3z" />
    <glyph glyph-name="B" unicode="B" horiz-adv-x="878" 
d="M37 741h764q-9 -59 -19 -116.5t-19 -116.5q15 -1 31.5 0t30.5 -1q-1 -127 -1 -254.5v-249.5q-198 0 -394.5 -0.5t-392.5 1.5v737zM209 566v-59h380q3 15 5.5 30.5t4.5 31.5h-389q-1 0 -1 -3zM209 332v-158h444v161h-443q-1 0 -1 -3z" />
    <glyph glyph-name="C" unicode="C" horiz-adv-x="861" 
d="M45 740h770q-1 -43 0 -86.5t-1 -85.5h-598v-394q0 -1 2 -1q95 -1 189.5 0t188.5 -1v-169q0 -1 -1 -1h-550v738zM644 173h166v-171h-167v168q0 3 1 3z" />
    <glyph glyph-name="D" unicode="D" horiz-adv-x="914" 
d="M62 740h788q-1 -185 0 -369.5t-1 -368.5q-198 1 -394.5 0t-392.5 1v737zM234 566v-392h444v395h-443q-1 0 -1 -3zM461 399h167q-1 -43 0 -86.5t-1 -85.5q-42 1 -84.5 0t-82.5 1v167q0 3 1 4z" />
    <glyph glyph-name="E" unicode="E" horiz-adv-x="880" 
d="M49 746h779v-172h-606q-2 -26 -1.5 -54.5t0.5 -56.5h299v-172h-299v-118q151 -2 303 -1t304 0v-171h-756h-11.5t-11.5 2v743zM568 463h167q-1 -43 0 -86.5t-1 -85.5q-42 1 -84.5 0t-82.5 1v167q0 3 1 4z" />
    <glyph glyph-name="F" unicode="F" horiz-adv-x="890" 
d="M59 731q195 -1 389.5 0t388.5 -1v-170h-607q-2 -37 -1 -75t0 -76h270q0 -43 0.5 -86.5t-1.5 -85.5h-269v-236h-171v727q0 3 1 3zM547 410h166v-172h-168q0 42 0.5 84t-0.5 85q0 2 2 3z" />
    <glyph glyph-name="G" unicode="G" horiz-adv-x="891" 
d="M48 727h778q-2 -41 -1 -85t2 -87h-608v-381q110 -2 221.5 -1t222.5 0v105h-85q0 42 -0.5 84t-0.5 87h258v-447h-788v722q0 3 1 3zM367 447h165v-84.5t1 -86.5h-168v168q0 3 2 3z" />
    <glyph glyph-name="H" unicode="H" horiz-adv-x="895" 
d="M58 733h171v-280q110 -2 221.5 -1.5t223.5 -0.5q0 17 0.5 33.5t0.5 33.5q42 -1 85.5 -1h84.5v-516h-172v280h-444v-280h-172v729q0 3 1 3zM841 722v-171h-167q0 42 -0.5 85.5t-0.5 85.5h18.5h45h55h49.5z" />
    <glyph glyph-name="I" unicode="I" horiz-adv-x="303" 
d="M65 725h166q2 -42 1 -85.5t0 -85.5h-169v168q0 3 2 3zM64 512h171v-511h-172v508q0 3 1 3z" />
    <glyph glyph-name="J" unicode="J" horiz-adv-x="901" 
d="M245 728h166v-171h-167v168q0 3 1 3zM452 726h388q-1 -182 0 -363t-1 -361h-783v301h171v-130h441q2 94 1 190t0 192h-217q-2 41 -1 83.5t0 84.5q0 3 1 3z" />
    <glyph glyph-name="K" unicode="K" horiz-adv-x="865" 
d="M54 737q42 -1 85 0t85 -1v-171q56 -2 113.5 -1t114.5 0q2 42 1 85.5t0 87.5h171q2 -42 1 -86t0 -87h195v-337h-171v79t-1 85h-423q-2 -97 -1 -194t0 -194q-44 0 -86.5 -0.5t-84.5 -1.5v732q0 3 1 4zM646 172h177v-171h-179v168q0 3 2 3z" />
    <glyph glyph-name="L" unicode="L" horiz-adv-x="876" 
d="M48 736q43 -1 87 0t86 -1v-171h-175v169q0 1 2 3zM51 504h169q2 -81 1.5 -164t-0.5 -166q153 -2 306 -1t307 0v-170q-195 -2 -391 -1.5t-393 0.5v499q0 3 1 3z" />
    <glyph glyph-name="M" unicode="M" horiz-adv-x="871" 
d="M52 742h765v-741q-43 1 -86 0t-85 1v568q-31 2 -64 1t-65 0v-219h-171v219h-123v-569q-42 -2 -85.5 -1t-86.5 0v738q0 3 1 3zM346 300h166v-172h-167v169q0 3 1 3z" />
    <glyph glyph-name="N" unicode="N" horiz-adv-x="863" 
d="M52 733h765v-733h-172v562h-422q-2 -78 -1 -158t0 -159h-171v485q0 3 1 3zM56 173h166v-172h-167v169q0 3 1 3z" />
    <glyph glyph-name="O" unicode="O" horiz-adv-x="880" 
d="M45 731h786v-729h-787v726q0 2 1 3zM215 556v-383h445v386h-444q-1 0 -1 -3zM353 453h165q2 -42 1 -85t0 -86h-168v168q0 3 2 3z" />
    <glyph glyph-name="P" unicode="P" horiz-adv-x="876" 
d="M55 732h766q2 -113 2 -228.5t-2 -228.5h-595v-45h-172v499q0 3 1 3zM226 558v-111h425v114h-424q-1 0 -1 -3zM57 173h165q0 -44 0.5 -86.5t1.5 -85.5h-169v169q0 1 2 3z" />
    <glyph glyph-name="Q" unicode="Q" horiz-adv-x="863" 
d="M50 733q194 0 387.5 -0.5t385.5 -0.5v-490q-44 0 -86.5 -0.5t-85.5 -0.5v320h-215t-216 1v-197.5t-1 -191.5h377v-172h-547q-2 182 -1.5 364t0.5 365q0 3 2 3zM416 413h167v-171h-168v168q0 3 1 3zM655 174h167v-172h-168v169q0 3 1 3z" />
    <glyph glyph-name="R" unicode="R" horiz-adv-x="884" 
d="M46 731h775q-5 -69 -13.5 -140t-15.5 -142q8 -2 18.5 -1.5t19.5 0.5q0 -59 0.5 -112.5t0.5 -109.5h-83t-88 -1v48q-110 2 -221.5 1.5t-223.5 -0.5v-273q-42 1 -86.5 1h-84.5v726q0 3 2 3zM215 557v-111h405q2 29 5.5 57t5.5 57h-415q-1 -1 -1 -3zM664 174h165
q2 -42 1.5 -85.5t-0.5 -86.5h-168v168q0 2 2 4z" />
    <glyph glyph-name="S" unicode="S" horiz-adv-x="850" 
d="M44 735h525v-171h-354q-2 -16 -1 -34t0 -35q145 -2 290.5 -1t291.5 0v-492q-187 -2 -374 -1t-375 0v172h577q2 36 1 74t0 76h-582v409q0 3 1 3zM626 735h165q2 -42 1 -85t0 -86h-168v168q0 3 2 3z" />
    <glyph glyph-name="T" unicode="T" horiz-adv-x="852" 
d="M48 713q191 -1 381.5 0t379.5 -1v-170h-286q-2 -81 -1 -163t0 -163h-172v326h-303v168q0 3 1 3zM354 172h165q2 -42 1 -85.5t0 -85.5h-169q0 42 0.5 84t-0.5 84q0 3 3 3z" />
    <glyph glyph-name="U" unicode="U" horiz-adv-x="869" 
d="M45 729h171v-555q107 -2 215 -1.5t217 0.5v334h170q2 -125 1.5 -251.5t-0.5 -253.5q-193 -2 -387.5 -2t-387.5 2v724q0 3 1 3zM649 729h166v-171h-167v168q0 3 1 3z" />
    <glyph glyph-name="V" unicode="V" horiz-adv-x="856" 
d="M41 733h171v-561h428v557h171v-727q-192 -2 -384 -1t-386 0q-2 182 -1 364t0 365q0 3 1 3zM454 381h151v-172h-153v169q0 1 2 3zM248 382h151v-172h-152v169q0 3 1 3z" />
    <glyph glyph-name="W" unicode="W" horiz-adv-x="856" 
d="M43 725h171v-551q29 -2 61 -1.5t63 0.5v197h171v-197h127q2 137 1 275t0 277h171v-724q-192 1 -383.5 0t-382.5 1v720q0 3 1 3zM339 593h165q2 -42 1.5 -85.5t-0.5 -86.5h-168v168q0 2 2 4z" />
    <glyph glyph-name="X" unicode="X" horiz-adv-x="865" 
d="M49 726h170v-120h427q2 29 1 59.5t0 60.5h170q2 -72 1.5 -145.5t-0.5 -146.5h-306q-2 -34 -1 -69.5t0 -70.5q76 -2 153 -1.5t154 0.5v-291q-42 -2 -85 -1t-86 0v119q-106 2 -213.5 1t-214.5 0v-120h-171q-2 72 -1 145.5t0 146.5h310q2 33 1.5 69t-0.5 71
q-76 2 -154.5 1.5t-156.5 -0.5v289q0 1 2 3z" />
    <glyph glyph-name="Y" unicode="Y" horiz-adv-x="858" 
d="M44 735h170v-212h428v208h171v-379h-297v-133h-171v133h-302v380q0 3 1 3zM346 172h170v-171h-172v168q0 3 2 3z" />
    <glyph glyph-name="Z" unicode="Z" horiz-adv-x="856" 
d="M57 732h166v-171h-167v168q0 3 1 3zM279 732h527q-1 -103 0 -206t-1 -206h-582v-147q146 -1 290.5 0t288.5 -1v-171h-750v491h582v68q-88 2 -179 2h-177v167q0 3 1 3z" />
    <glyph glyph-name="bracketleft" unicode="[" 
d="M405 250h-1q-3 45 -7.5 89.5t-6.5 89.5h29q-4 -45 -7.5 -89.5t-6.5 -89.5zM354 421q5 -42 8 -84l6 -84q-11 40 -21.5 81t-21.5 81q6 3 13.5 3.5t14.5 2.5h1zM487 416q-11 -42 -21.5 -82t-20.5 -82q2 42 6 84.5t7 84.5q13 -1 29 -5zM526 370q-12 -24 -25 -47.5t-25 -46.5
q5 25 12.5 50.5t14.5 51.5q6 -2 11.5 -4t11.5 -4zM137 576h17q46 -7 85 -22.5t77 -31.5q16 -6 31 -12t34 -8q-1 -1 -3 -2t-1 -3q5 4 11 7.5t11 7.5q2 -2 2.5 -4t2.5 -4q2 6 4 7q5 -4 11 -7.5t11 -7.5q0 2 -2 3.5t-2 2.5q17 1 31.5 6.5t29.5 11.5q14 5 27 11t28 12
q29 11 58 20q15 5 32 9.5t34 2.5q12 -1 21 -7t5 -21t-14 -29q-5 -7 -9 -13t-9 -10q5 6 9 12.5t9 15.5q4 7 8 19t-1 19q-3 4 -10 5t-14 0q-12 -1 -23.5 -4t-22.5 -8q-31 -11 -60.5 -26t-55.5 -29q9 -7 20.5 -11.5t28.5 -2.5q16 1 29.5 8t25.5 15q11 9 21.5 19t18.5 18
q-10 -13 -20 -25t-23 -23t-28.5 -19t-33.5 -10q-17 -1 -29 3t-22 10q-2 2 -4.5 4t-5.5 2q-5 1 -12.5 -3t-14.5 -6q-14 -5 -28 -5t-19 13q-4 -8 -11.5 -10.5t-16 -1t-17.5 4.5t-15 6q-4 1 -8 2.5t-6 0.5q-2 0 -6.5 -3.5t-7.5 -5.5q-24 -13 -48.5 -9t-43.5 16t-33 27.5
t-26 33.5q8 -10 18.5 -20t22.5 -19q12 -8 26 -14.5t30 -8.5q16 -1 27.5 3.5t19.5 12.5q-27 14 -58 29.5t-64 26.5q-11 4 -23.5 7.5t-24.5 2.5q-14 0 -17 -8t0.5 -18t7.5 -17q5 -9 9 -15.5t8 -13.5q-10 12 -18.5 25t-13.5 30v10q2 8 8.5 11t14.5 5zM280 377q6 2 11.5 4.5
t11.5 4.5q5 -19 10.5 -38t10.5 -39q2 -7 4 -13t3 -12v0l-26 46t-25 47zM144 141l11 -1q-3 -9 -10 -14t-15 -5q-10 0 -16 6q-5 5 -5 17q0 9 3 17q5 8 11 12q5 4 14 4t14 -5q6 -4 7 -13l-11 -1q-1 5 -3 7t-7 2q-3 0 -9 -2q-3 -3 -6 -9q-2 -4 -2 -12q0 -7 3 -10q4 -4 7 -4
q5 0 8 3q2 2 3 4t3 4zM196 146h-21l-5 -24h-11l12 54h11l-5 -21h21l5 21h11l-12 -54h-11zM225 122h-11l11 54h24q7 0 10 -1q3 -2 5 -5q2 -2 2 -8q0 -7 -4 -11q-5 -5 -12 -6q1 -1 1.5 -2t2.5 -3q2 -3 4 -7.5t4 -10.5h-12q-2 6 -6 14q-1 4 -4 7q-2 1 -6 1h-5zM231 152h6
q8 0 12 2q2 0 5 3q1 1 1 5q0 2 -2 4q-1 1 -7 1h-12zM267 122l12 54h11l-11 -54h-12zM291 140h10q0 -5 2 -7q1 -3 9 -3q4 0 8 2q2 4 2 5q0 2 -2 4q-1 1 -8 4q-3 2 -5 2.5t-4 2.5q-3 1 -4 4q-2 4 -2 7q0 6 5 11t14 5q10 0 15 -5q4 -2 6 -11l-11 -1q0 4 -3 6q-2 2 -7 2t-6 -1
q-2 -2 -2 -5q0 -2 2 -3q3 -3 8 -5q10 -3 11 -6q4 -4 4 -10t-6 -12q-5 -5 -15 -5q-6 0 -12 2q-6 3 -7 7q-3 5 -2 10zM366 122h-12l-9 54h11l7 -41l22 41h11zM389 122l11 54h11l-11 -54h-11zM411 122l11 54h11l-9 -45h27l-2 -9h-38zM456 122l12 54h40l-2 -9h-29l-3 -12h28
l-2 -9h-28l-3 -15h31l-1 -9h-43zM509 132h11l-3 -10h-10zM567 141l11 -1q-3 -9 -10 -14t-15 -5q-10 0 -16 6q-5 7 -5 17q0 9 3 17q5 8 11 12q5 4 14 4t14 -5q6 -4 7 -13l-11 -1q0 4 -3 7q-2 2 -7 2q-3 0 -9 -2q-3 -3 -6 -9q-2 -4 -2 -12q0 -7 3 -10q4 -4 7 -4q5 0 8 3
q4 3 6 8zM586 143q0 7 1 10q1 7 6 13q2 4 9 8q6 3 14 3q10 0 16 -6t6 -17q0 -9 -4 -16q-5 -9 -11 -13q-8 -4 -15 -4q-9 0 -13 4q-6 4 -7 8q-2 3 -2 10zM597 143q0 -5 3 -9q4 -4 9 -4t8 3q6 4 7 9q3 6 3 12q0 7 -3 10q-6 4 -9 4q-8 0 -13 -8q-5 -6 -5 -17zM672 122h-11l-2 45
l-8 -45h-10l11 54h16l1 -38l19 38h16l-11 -54h-11l11 45z" />
    <glyph glyph-name="backslash" unicode="\" 
d="M405 250h-1q-3 45 -7.5 89.5t-6.5 89.5h29q-4 -45 -7.5 -89.5t-6.5 -89.5zM354 421q5 -42 8 -84l6 -84q-11 40 -21.5 81t-21.5 81q6 3 13.5 3.5t14.5 2.5h1zM487 416q-11 -42 -21.5 -82t-20.5 -82q2 42 6 84.5t7 84.5q13 -1 29 -5zM526 370q-12 -24 -25 -47.5t-25 -46.5
q5 25 12.5 50.5t14.5 51.5q6 -2 11.5 -4t11.5 -4zM137 576h17q46 -7 85 -22.5t77 -31.5q16 -6 31 -12t34 -8q-1 -1 -3 -2t-1 -3q5 4 11 7.5t11 7.5q2 -2 2.5 -4t2.5 -4q2 6 4 7q5 -4 11 -7.5t11 -7.5q0 2 -2 3.5t-2 2.5q17 1 31.5 6.5t29.5 11.5q14 5 27 11t28 12
q29 11 58 20q15 5 32 9.5t34 2.5q12 -1 21 -7t5 -21t-14 -29q-5 -7 -9 -13t-9 -10q5 6 9 12.5t9 15.5q4 7 8 19t-1 19q-3 4 -10 5t-14 0q-12 -1 -23.5 -4t-22.5 -8q-31 -11 -60.5 -26t-55.5 -29q9 -7 20.5 -11.5t28.5 -2.5q16 1 29.5 8t25.5 15q11 9 21.5 19t18.5 18
q-10 -13 -20 -25t-23 -23t-28.5 -19t-33.5 -10q-17 -1 -29 3t-22 10q-2 2 -4.5 4t-5.5 2q-5 1 -12.5 -3t-14.5 -6q-14 -5 -28 -5t-19 13q-4 -8 -11.5 -10.5t-16 -1t-17.5 4.5t-15 6q-4 1 -8 2.5t-6 0.5q-2 0 -6.5 -3.5t-7.5 -5.5q-24 -13 -48.5 -9t-43.5 16t-33 27.5
t-26 33.5q8 -10 18.5 -20t22.5 -19q12 -8 26 -14.5t30 -8.5q16 -1 27.5 3.5t19.5 12.5q-27 14 -58 29.5t-64 26.5q-11 4 -23.5 7.5t-24.5 2.5q-14 0 -17 -8t0.5 -18t7.5 -17q5 -9 9 -15.5t8 -13.5q-10 12 -18.5 25t-13.5 30v10q2 8 8.5 11t14.5 5zM280 377q6 2 11.5 4.5
t11.5 4.5q5 -19 10.5 -38t10.5 -39q2 -7 4 -13t3 -12v0l-26 46t-25 47zM144 141l11 -1q-3 -9 -10 -14t-15 -5q-10 0 -16 6q-5 5 -5 17q0 9 3 17q5 8 11 12q5 4 14 4t14 -5q6 -4 7 -13l-11 -1q-1 5 -3 7t-7 2q-3 0 -9 -2q-3 -3 -6 -9q-2 -4 -2 -12q0 -7 3 -10q4 -4 7 -4
q5 0 8 3q2 2 3 4t3 4zM196 146h-21l-5 -24h-11l12 54h11l-5 -21h21l5 21h11l-12 -54h-11zM225 122h-11l11 54h24q7 0 10 -1q3 -2 5 -5q2 -2 2 -8q0 -7 -4 -11q-5 -5 -12 -6q1 -1 1.5 -2t2.5 -3q2 -3 4 -7.5t4 -10.5h-12q-2 6 -6 14q-1 4 -4 7q-2 1 -6 1h-5zM231 152h6
q8 0 12 2q2 0 5 3q1 1 1 5q0 2 -2 4q-1 1 -7 1h-12zM267 122l12 54h11l-11 -54h-12zM291 140h10q0 -5 2 -7q1 -3 9 -3q4 0 8 2q2 4 2 5q0 2 -2 4q-1 1 -8 4q-3 2 -5 2.5t-4 2.5q-3 1 -4 4q-2 4 -2 7q0 6 5 11t14 5q10 0 15 -5q4 -2 6 -11l-11 -1q0 4 -3 6q-2 2 -7 2t-6 -1
q-2 -2 -2 -5q0 -2 2 -3q3 -3 8 -5q10 -3 11 -6q4 -4 4 -10t-6 -12q-5 -5 -15 -5q-6 0 -12 2q-6 3 -7 7q-3 5 -2 10zM366 122h-12l-9 54h11l7 -41l22 41h11zM389 122l11 54h11l-11 -54h-11zM411 122l11 54h11l-9 -45h27l-2 -9h-38zM456 122l12 54h40l-2 -9h-29l-3 -12h28
l-2 -9h-28l-3 -15h31l-1 -9h-43zM509 132h11l-3 -10h-10zM567 141l11 -1q-3 -9 -10 -14t-15 -5q-10 0 -16 6q-5 7 -5 17q0 9 3 17q5 8 11 12q5 4 14 4t14 -5q6 -4 7 -13l-11 -1q0 4 -3 7q-2 2 -7 2q-3 0 -9 -2q-3 -3 -6 -9q-2 -4 -2 -12q0 -7 3 -10q4 -4 7 -4q5 0 8 3
q4 3 6 8zM586 143q0 7 1 10q1 7 6 13q2 4 9 8q6 3 14 3q10 0 16 -6t6 -17q0 -9 -4 -16q-5 -9 -11 -13q-8 -4 -15 -4q-9 0 -13 4q-6 4 -7 8q-2 3 -2 10zM597 143q0 -5 3 -9q4 -4 9 -4t8 3q6 4 7 9q3 6 3 12q0 7 -3 10q-6 4 -9 4q-8 0 -13 -8q-5 -6 -5 -17zM672 122h-11l-2 45
l-8 -45h-10l11 54h16l1 -38l19 38h16l-11 -54h-11l11 45z" />
    <glyph glyph-name="bracketright" unicode="]" 
d="M405 250h-1q-3 45 -7.5 89.5t-6.5 89.5h29q-4 -45 -7.5 -89.5t-6.5 -89.5zM354 421q5 -42 8 -84l6 -84q-11 40 -21.5 81t-21.5 81q6 3 13.5 3.5t14.5 2.5h1zM487 416q-11 -42 -21.5 -82t-20.5 -82q2 42 6 84.5t7 84.5q13 -1 29 -5zM526 370q-12 -24 -25 -47.5t-25 -46.5
q5 25 12.5 50.5t14.5 51.5q6 -2 11.5 -4t11.5 -4zM137 576h17q46 -7 85 -22.5t77 -31.5q16 -6 31 -12t34 -8q-1 -1 -3 -2t-1 -3q5 4 11 7.5t11 7.5q2 -2 2.5 -4t2.5 -4q2 6 4 7q5 -4 11 -7.5t11 -7.5q0 2 -2 3.5t-2 2.5q17 1 31.5 6.5t29.5 11.5q14 5 27 11t28 12
q29 11 58 20q15 5 32 9.5t34 2.5q12 -1 21 -7t5 -21t-14 -29q-5 -7 -9 -13t-9 -10q5 6 9 12.5t9 15.5q4 7 8 19t-1 19q-3 4 -10 5t-14 0q-12 -1 -23.5 -4t-22.5 -8q-31 -11 -60.5 -26t-55.5 -29q9 -7 20.5 -11.5t28.5 -2.5q16 1 29.5 8t25.5 15q11 9 21.5 19t18.5 18
q-10 -13 -20 -25t-23 -23t-28.5 -19t-33.5 -10q-17 -1 -29 3t-22 10q-2 2 -4.5 4t-5.5 2q-5 1 -12.5 -3t-14.5 -6q-14 -5 -28 -5t-19 13q-4 -8 -11.5 -10.5t-16 -1t-17.5 4.5t-15 6q-4 1 -8 2.5t-6 0.5q-2 0 -6.5 -3.5t-7.5 -5.5q-24 -13 -48.5 -9t-43.5 16t-33 27.5
t-26 33.5q8 -10 18.5 -20t22.5 -19q12 -8 26 -14.5t30 -8.5q16 -1 27.5 3.5t19.5 12.5q-27 14 -58 29.5t-64 26.5q-11 4 -23.5 7.5t-24.5 2.5q-14 0 -17 -8t0.5 -18t7.5 -17q5 -9 9 -15.5t8 -13.5q-10 12 -18.5 25t-13.5 30v10q2 8 8.5 11t14.5 5zM280 377q6 2 11.5 4.5
t11.5 4.5q5 -19 10.5 -38t10.5 -39q2 -7 4 -13t3 -12v0l-26 46t-25 47zM144 141l11 -1q-3 -9 -10 -14t-15 -5q-10 0 -16 6q-5 5 -5 17q0 9 3 17q5 8 11 12q5 4 14 4t14 -5q6 -4 7 -13l-11 -1q-1 5 -3 7t-7 2q-3 0 -9 -2q-3 -3 -6 -9q-2 -4 -2 -12q0 -7 3 -10q4 -4 7 -4
q5 0 8 3q2 2 3 4t3 4zM196 146h-21l-5 -24h-11l12 54h11l-5 -21h21l5 21h11l-12 -54h-11zM225 122h-11l11 54h24q7 0 10 -1q3 -2 5 -5q2 -2 2 -8q0 -7 -4 -11q-5 -5 -12 -6q1 -1 1.5 -2t2.5 -3q2 -3 4 -7.5t4 -10.5h-12q-2 6 -6 14q-1 4 -4 7q-2 1 -6 1h-5zM231 152h6
q8 0 12 2q2 0 5 3q1 1 1 5q0 2 -2 4q-1 1 -7 1h-12zM267 122l12 54h11l-11 -54h-12zM291 140h10q0 -5 2 -7q1 -3 9 -3q4 0 8 2q2 4 2 5q0 2 -2 4q-1 1 -8 4q-3 2 -5 2.5t-4 2.5q-3 1 -4 4q-2 4 -2 7q0 6 5 11t14 5q10 0 15 -5q4 -2 6 -11l-11 -1q0 4 -3 6q-2 2 -7 2t-6 -1
q-2 -2 -2 -5q0 -2 2 -3q3 -3 8 -5q10 -3 11 -6q4 -4 4 -10t-6 -12q-5 -5 -15 -5q-6 0 -12 2q-6 3 -7 7q-3 5 -2 10zM366 122h-12l-9 54h11l7 -41l22 41h11zM389 122l11 54h11l-11 -54h-11zM411 122l11 54h11l-9 -45h27l-2 -9h-38zM456 122l12 54h40l-2 -9h-29l-3 -12h28
l-2 -9h-28l-3 -15h31l-1 -9h-43zM509 132h11l-3 -10h-10zM567 141l11 -1q-3 -9 -10 -14t-15 -5q-10 0 -16 6q-5 7 -5 17q0 9 3 17q5 8 11 12q5 4 14 4t14 -5q6 -4 7 -13l-11 -1q0 4 -3 7q-2 2 -7 2q-3 0 -9 -2q-3 -3 -6 -9q-2 -4 -2 -12q0 -7 3 -10q4 -4 7 -4q5 0 8 3
q4 3 6 8zM586 143q0 7 1 10q1 7 6 13q2 4 9 8q6 3 14 3q10 0 16 -6t6 -17q0 -9 -4 -16q-5 -9 -11 -13q-8 -4 -15 -4q-9 0 -13 4q-6 4 -7 8q-2 3 -2 10zM597 143q0 -5 3 -9q4 -4 9 -4t8 3q6 4 7 9q3 6 3 12q0 7 -3 10q-6 4 -9 4q-8 0 -13 -8q-5 -6 -5 -17zM672 122h-11l-2 45
l-8 -45h-10l11 54h16l1 -38l19 38h16l-11 -54h-11l11 45z" />
    <glyph glyph-name="asciicircum" unicode="^" 
d="M405 250h-1q-3 45 -7.5 89.5t-6.5 89.5h29q-4 -45 -7.5 -89.5t-6.5 -89.5zM354 421q5 -42 8 -84l6 -84q-11 40 -21.5 81t-21.5 81q6 3 13.5 3.5t14.5 2.5h1zM487 416q-11 -42 -21.5 -82t-20.5 -82q2 42 6 84.5t7 84.5q13 -1 29 -5zM526 370q-12 -24 -25 -47.5t-25 -46.5
q5 25 12.5 50.5t14.5 51.5q6 -2 11.5 -4t11.5 -4zM137 576h17q46 -7 85 -22.5t77 -31.5q16 -6 31 -12t34 -8q-1 -1 -3 -2t-1 -3q5 4 11 7.5t11 7.5q2 -2 2.5 -4t2.5 -4q2 6 4 7q5 -4 11 -7.5t11 -7.5q0 2 -2 3.5t-2 2.5q17 1 31.5 6.5t29.5 11.5q14 5 27 11t28 12
q29 11 58 20q15 5 32 9.5t34 2.5q12 -1 21 -7t5 -21t-14 -29q-5 -7 -9 -13t-9 -10q5 6 9 12.5t9 15.5q4 7 8 19t-1 19q-3 4 -10 5t-14 0q-12 -1 -23.5 -4t-22.5 -8q-31 -11 -60.5 -26t-55.5 -29q9 -7 20.5 -11.5t28.5 -2.5q16 1 29.5 8t25.5 15q11 9 21.5 19t18.5 18
q-10 -13 -20 -25t-23 -23t-28.5 -19t-33.5 -10q-17 -1 -29 3t-22 10q-2 2 -4.5 4t-5.5 2q-5 1 -12.5 -3t-14.5 -6q-14 -5 -28 -5t-19 13q-4 -8 -11.5 -10.5t-16 -1t-17.5 4.5t-15 6q-4 1 -8 2.5t-6 0.5q-2 0 -6.5 -3.5t-7.5 -5.5q-24 -13 -48.5 -9t-43.5 16t-33 27.5
t-26 33.5q8 -10 18.5 -20t22.5 -19q12 -8 26 -14.5t30 -8.5q16 -1 27.5 3.5t19.5 12.5q-27 14 -58 29.5t-64 26.5q-11 4 -23.5 7.5t-24.5 2.5q-14 0 -17 -8t0.5 -18t7.5 -17q5 -9 9 -15.5t8 -13.5q-10 12 -18.5 25t-13.5 30v10q2 8 8.5 11t14.5 5zM280 377q6 2 11.5 4.5
t11.5 4.5q5 -19 10.5 -38t10.5 -39q2 -7 4 -13t3 -12v0l-26 46t-25 47zM144 141l11 -1q-3 -9 -10 -14t-15 -5q-10 0 -16 6q-5 5 -5 17q0 9 3 17q5 8 11 12q5 4 14 4t14 -5q6 -4 7 -13l-11 -1q-1 5 -3 7t-7 2q-3 0 -9 -2q-3 -3 -6 -9q-2 -4 -2 -12q0 -7 3 -10q4 -4 7 -4
q5 0 8 3q2 2 3 4t3 4zM196 146h-21l-5 -24h-11l12 54h11l-5 -21h21l5 21h11l-12 -54h-11zM225 122h-11l11 54h24q7 0 10 -1q3 -2 5 -5q2 -2 2 -8q0 -7 -4 -11q-5 -5 -12 -6q1 -1 1.5 -2t2.5 -3q2 -3 4 -7.5t4 -10.5h-12q-2 6 -6 14q-1 4 -4 7q-2 1 -6 1h-5zM231 152h6
q8 0 12 2q2 0 5 3q1 1 1 5q0 2 -2 4q-1 1 -7 1h-12zM267 122l12 54h11l-11 -54h-12zM291 140h10q0 -5 2 -7q1 -3 9 -3q4 0 8 2q2 4 2 5q0 2 -2 4q-1 1 -8 4q-3 2 -5 2.5t-4 2.5q-3 1 -4 4q-2 4 -2 7q0 6 5 11t14 5q10 0 15 -5q4 -2 6 -11l-11 -1q0 4 -3 6q-2 2 -7 2t-6 -1
q-2 -2 -2 -5q0 -2 2 -3q3 -3 8 -5q10 -3 11 -6q4 -4 4 -10t-6 -12q-5 -5 -15 -5q-6 0 -12 2q-6 3 -7 7q-3 5 -2 10zM366 122h-12l-9 54h11l7 -41l22 41h11zM389 122l11 54h11l-11 -54h-11zM411 122l11 54h11l-9 -45h27l-2 -9h-38zM456 122l12 54h40l-2 -9h-29l-3 -12h28
l-2 -9h-28l-3 -15h31l-1 -9h-43zM509 132h11l-3 -10h-10zM567 141l11 -1q-3 -9 -10 -14t-15 -5q-10 0 -16 6q-5 7 -5 17q0 9 3 17q5 8 11 12q5 4 14 4t14 -5q6 -4 7 -13l-11 -1q0 4 -3 7q-2 2 -7 2q-3 0 -9 -2q-3 -3 -6 -9q-2 -4 -2 -12q0 -7 3 -10q4 -4 7 -4q5 0 8 3
q4 3 6 8zM586 143q0 7 1 10q1 7 6 13q2 4 9 8q6 3 14 3q10 0 16 -6t6 -17q0 -9 -4 -16q-5 -9 -11 -13q-8 -4 -15 -4q-9 0 -13 4q-6 4 -7 8q-2 3 -2 10zM597 143q0 -5 3 -9q4 -4 9 -4t8 3q6 4 7 9q3 6 3 12q0 7 -3 10q-6 4 -9 4q-8 0 -13 -8q-5 -6 -5 -17zM672 122h-11l-2 45
l-8 -45h-10l11 54h16l1 -38l19 38h16l-11 -54h-11l11 45z" />
    <glyph glyph-name="underscore" unicode="_" 
d="M405 250h-1q-3 45 -7.5 89.5t-6.5 89.5h29q-4 -45 -7.5 -89.5t-6.5 -89.5zM354 421q5 -42 8 -84l6 -84q-11 40 -21.5 81t-21.5 81q6 3 13.5 3.5t14.5 2.5h1zM487 416q-11 -42 -21.5 -82t-20.5 -82q2 42 6 84.5t7 84.5q13 -1 29 -5zM526 370q-12 -24 -25 -47.5t-25 -46.5
q5 25 12.5 50.5t14.5 51.5q6 -2 11.5 -4t11.5 -4zM137 576h17q46 -7 85 -22.5t77 -31.5q16 -6 31 -12t34 -8q-1 -1 -3 -2t-1 -3q5 4 11 7.5t11 7.5q2 -2 2.5 -4t2.5 -4q2 6 4 7q5 -4 11 -7.5t11 -7.5q0 2 -2 3.5t-2 2.5q17 1 31.5 6.5t29.5 11.5q14 5 27 11t28 12
q29 11 58 20q15 5 32 9.5t34 2.5q12 -1 21 -7t5 -21t-14 -29q-5 -7 -9 -13t-9 -10q5 6 9 12.5t9 15.5q4 7 8 19t-1 19q-3 4 -10 5t-14 0q-12 -1 -23.5 -4t-22.5 -8q-31 -11 -60.5 -26t-55.5 -29q9 -7 20.5 -11.5t28.5 -2.5q16 1 29.5 8t25.5 15q11 9 21.5 19t18.5 18
q-10 -13 -20 -25t-23 -23t-28.5 -19t-33.5 -10q-17 -1 -29 3t-22 10q-2 2 -4.5 4t-5.5 2q-5 1 -12.5 -3t-14.5 -6q-14 -5 -28 -5t-19 13q-4 -8 -11.5 -10.5t-16 -1t-17.5 4.5t-15 6q-4 1 -8 2.5t-6 0.5q-2 0 -6.5 -3.5t-7.5 -5.5q-24 -13 -48.5 -9t-43.5 16t-33 27.5
t-26 33.5q8 -10 18.5 -20t22.5 -19q12 -8 26 -14.5t30 -8.5q16 -1 27.5 3.5t19.5 12.5q-27 14 -58 29.5t-64 26.5q-11 4 -23.5 7.5t-24.5 2.5q-14 0 -17 -8t0.5 -18t7.5 -17q5 -9 9 -15.5t8 -13.5q-10 12 -18.5 25t-13.5 30v10q2 8 8.5 11t14.5 5zM280 377q6 2 11.5 4.5
t11.5 4.5q5 -19 10.5 -38t10.5 -39q2 -7 4 -13t3 -12v0l-26 46t-25 47zM144 141l11 -1q-3 -9 -10 -14t-15 -5q-10 0 -16 6q-5 5 -5 17q0 9 3 17q5 8 11 12q5 4 14 4t14 -5q6 -4 7 -13l-11 -1q-1 5 -3 7t-7 2q-3 0 -9 -2q-3 -3 -6 -9q-2 -4 -2 -12q0 -7 3 -10q4 -4 7 -4
q5 0 8 3q2 2 3 4t3 4zM196 146h-21l-5 -24h-11l12 54h11l-5 -21h21l5 21h11l-12 -54h-11zM225 122h-11l11 54h24q7 0 10 -1q3 -2 5 -5q2 -2 2 -8q0 -7 -4 -11q-5 -5 -12 -6q1 -1 1.5 -2t2.5 -3q2 -3 4 -7.5t4 -10.5h-12q-2 6 -6 14q-1 4 -4 7q-2 1 -6 1h-5zM231 152h6
q8 0 12 2q2 0 5 3q1 1 1 5q0 2 -2 4q-1 1 -7 1h-12zM267 122l12 54h11l-11 -54h-12zM291 140h10q0 -5 2 -7q1 -3 9 -3q4 0 8 2q2 4 2 5q0 2 -2 4q-1 1 -8 4q-3 2 -5 2.5t-4 2.5q-3 1 -4 4q-2 4 -2 7q0 6 5 11t14 5q10 0 15 -5q4 -2 6 -11l-11 -1q0 4 -3 6q-2 2 -7 2t-6 -1
q-2 -2 -2 -5q0 -2 2 -3q3 -3 8 -5q10 -3 11 -6q4 -4 4 -10t-6 -12q-5 -5 -15 -5q-6 0 -12 2q-6 3 -7 7q-3 5 -2 10zM366 122h-12l-9 54h11l7 -41l22 41h11zM389 122l11 54h11l-11 -54h-11zM411 122l11 54h11l-9 -45h27l-2 -9h-38zM456 122l12 54h40l-2 -9h-29l-3 -12h28
l-2 -9h-28l-3 -15h31l-1 -9h-43zM509 132h11l-3 -10h-10zM567 141l11 -1q-3 -9 -10 -14t-15 -5q-10 0 -16 6q-5 7 -5 17q0 9 3 17q5 8 11 12q5 4 14 4t14 -5q6 -4 7 -13l-11 -1q0 4 -3 7q-2 2 -7 2q-3 0 -9 -2q-3 -3 -6 -9q-2 -4 -2 -12q0 -7 3 -10q4 -4 7 -4q5 0 8 3
q4 3 6 8zM586 143q0 7 1 10q1 7 6 13q2 4 9 8q6 3 14 3q10 0 16 -6t6 -17q0 -9 -4 -16q-5 -9 -11 -13q-8 -4 -15 -4q-9 0 -13 4q-6 4 -7 8q-2 3 -2 10zM597 143q0 -5 3 -9q4 -4 9 -4t8 3q6 4 7 9q3 6 3 12q0 7 -3 10q-6 4 -9 4q-8 0 -13 -8q-5 -6 -5 -17zM672 122h-11l-2 45
l-8 -45h-10l11 54h16l1 -38l19 38h16l-11 -54h-11l11 45z" />
    <glyph glyph-name="grave" unicode="`" 
d="M405 250h-1q-3 45 -7.5 89.5t-6.5 89.5h29q-4 -45 -7.5 -89.5t-6.5 -89.5zM354 421q5 -42 8 -84l6 -84q-11 40 -21.5 81t-21.5 81q6 3 13.5 3.5t14.5 2.5h1zM487 416q-11 -42 -21.5 -82t-20.5 -82q2 42 6 84.5t7 84.5q13 -1 29 -5zM526 370q-12 -24 -25 -47.5t-25 -46.5
q5 25 12.5 50.5t14.5 51.5q6 -2 11.5 -4t11.5 -4zM137 576h17q46 -7 85 -22.5t77 -31.5q16 -6 31 -12t34 -8q-1 -1 -3 -2t-1 -3q5 4 11 7.5t11 7.5q2 -2 2.5 -4t2.5 -4q2 6 4 7q5 -4 11 -7.5t11 -7.5q0 2 -2 3.5t-2 2.5q17 1 31.5 6.5t29.5 11.5q14 5 27 11t28 12
q29 11 58 20q15 5 32 9.5t34 2.5q12 -1 21 -7t5 -21t-14 -29q-5 -7 -9 -13t-9 -10q5 6 9 12.5t9 15.5q4 7 8 19t-1 19q-3 4 -10 5t-14 0q-12 -1 -23.5 -4t-22.5 -8q-31 -11 -60.5 -26t-55.5 -29q9 -7 20.5 -11.5t28.5 -2.5q16 1 29.5 8t25.5 15q11 9 21.5 19t18.5 18
q-10 -13 -20 -25t-23 -23t-28.5 -19t-33.5 -10q-17 -1 -29 3t-22 10q-2 2 -4.5 4t-5.5 2q-5 1 -12.5 -3t-14.5 -6q-14 -5 -28 -5t-19 13q-4 -8 -11.5 -10.5t-16 -1t-17.5 4.5t-15 6q-4 1 -8 2.5t-6 0.5q-2 0 -6.5 -3.5t-7.5 -5.5q-24 -13 -48.5 -9t-43.5 16t-33 27.5
t-26 33.5q8 -10 18.5 -20t22.5 -19q12 -8 26 -14.5t30 -8.5q16 -1 27.5 3.5t19.5 12.5q-27 14 -58 29.5t-64 26.5q-11 4 -23.5 7.5t-24.5 2.5q-14 0 -17 -8t0.5 -18t7.5 -17q5 -9 9 -15.5t8 -13.5q-10 12 -18.5 25t-13.5 30v10q2 8 8.5 11t14.5 5zM280 377q6 2 11.5 4.5
t11.5 4.5q5 -19 10.5 -38t10.5 -39q2 -7 4 -13t3 -12v0l-26 46t-25 47zM144 141l11 -1q-3 -9 -10 -14t-15 -5q-10 0 -16 6q-5 5 -5 17q0 9 3 17q5 8 11 12q5 4 14 4t14 -5q6 -4 7 -13l-11 -1q-1 5 -3 7t-7 2q-3 0 -9 -2q-3 -3 -6 -9q-2 -4 -2 -12q0 -7 3 -10q4 -4 7 -4
q5 0 8 3q2 2 3 4t3 4zM196 146h-21l-5 -24h-11l12 54h11l-5 -21h21l5 21h11l-12 -54h-11zM225 122h-11l11 54h24q7 0 10 -1q3 -2 5 -5q2 -2 2 -8q0 -7 -4 -11q-5 -5 -12 -6q1 -1 1.5 -2t2.5 -3q2 -3 4 -7.5t4 -10.5h-12q-2 6 -6 14q-1 4 -4 7q-2 1 -6 1h-5zM231 152h6
q8 0 12 2q2 0 5 3q1 1 1 5q0 2 -2 4q-1 1 -7 1h-12zM267 122l12 54h11l-11 -54h-12zM291 140h10q0 -5 2 -7q1 -3 9 -3q4 0 8 2q2 4 2 5q0 2 -2 4q-1 1 -8 4q-3 2 -5 2.5t-4 2.5q-3 1 -4 4q-2 4 -2 7q0 6 5 11t14 5q10 0 15 -5q4 -2 6 -11l-11 -1q0 4 -3 6q-2 2 -7 2t-6 -1
q-2 -2 -2 -5q0 -2 2 -3q3 -3 8 -5q10 -3 11 -6q4 -4 4 -10t-6 -12q-5 -5 -15 -5q-6 0 -12 2q-6 3 -7 7q-3 5 -2 10zM366 122h-12l-9 54h11l7 -41l22 41h11zM389 122l11 54h11l-11 -54h-11zM411 122l11 54h11l-9 -45h27l-2 -9h-38zM456 122l12 54h40l-2 -9h-29l-3 -12h28
l-2 -9h-28l-3 -15h31l-1 -9h-43zM509 132h11l-3 -10h-10zM567 141l11 -1q-3 -9 -10 -14t-15 -5q-10 0 -16 6q-5 7 -5 17q0 9 3 17q5 8 11 12q5 4 14 4t14 -5q6 -4 7 -13l-11 -1q0 4 -3 7q-2 2 -7 2q-3 0 -9 -2q-3 -3 -6 -9q-2 -4 -2 -12q0 -7 3 -10q4 -4 7 -4q5 0 8 3
q4 3 6 8zM586 143q0 7 1 10q1 7 6 13q2 4 9 8q6 3 14 3q10 0 16 -6t6 -17q0 -9 -4 -16q-5 -9 -11 -13q-8 -4 -15 -4q-9 0 -13 4q-6 4 -7 8q-2 3 -2 10zM597 143q0 -5 3 -9q4 -4 9 -4t8 3q6 4 7 9q3 6 3 12q0 7 -3 10q-6 4 -9 4q-8 0 -13 -8q-5 -6 -5 -17zM672 122h-11l-2 45
l-8 -45h-10l11 54h16l1 -38l19 38h16l-11 -54h-11l11 45z" />
    <glyph glyph-name="a" unicode="a" horiz-adv-x="903" 
d="M840 734v-733h-172v561h-443q0 -42 -0.5 -77.5t-0.5 -72.5q42 -3 85.5 -1.5t85.5 -1.5v-170h-170q0 -63 -0.5 -120.5t-0.5 -117.5h-172v733h788zM451 410h166v-171h-167v168q0 3 1 3z" />
    <glyph glyph-name="b" unicode="b" horiz-adv-x="878" 
d="M37 741h764q-9 -59 -19 -116.5t-19 -116.5q15 -1 31.5 0t30.5 -1q-1 -127 -1 -254.5v-249.5q-198 0 -394.5 -0.5t-392.5 1.5v737zM209 566v-59h380q3 15 5.5 30.5t4.5 31.5h-389q-1 0 -1 -3zM209 332v-158h444v161h-443q-1 0 -1 -3z" />
    <glyph glyph-name="c" unicode="c" horiz-adv-x="861" 
d="M45 740h770q-1 -43 0 -86.5t-1 -85.5h-598v-394q0 -1 2 -1q95 -1 189.5 0t188.5 -1v-169q0 -1 -1 -1h-550v738zM644 173h166v-171h-167v168q0 3 1 3z" />
    <glyph glyph-name="d" unicode="d" horiz-adv-x="914" 
d="M62 740h788q-1 -185 0 -369.5t-1 -368.5q-198 1 -394.5 0t-392.5 1v737zM234 566v-392h444v395h-443q-1 0 -1 -3zM461 399h167q-1 -43 0 -86.5t-1 -85.5q-42 1 -84.5 0t-82.5 1v167q0 3 1 4z" />
    <glyph glyph-name="e" unicode="e" horiz-adv-x="880" 
d="M49 746h779v-172h-606q-2 -26 -1.5 -54.5t0.5 -56.5h299v-172h-299v-118q151 -2 303 -1t304 0v-171h-756h-11.5t-11.5 2v743zM568 463h167q-1 -43 0 -86.5t-1 -85.5q-42 1 -84.5 0t-82.5 1v167q0 3 1 4z" />
    <glyph glyph-name="f" unicode="f" horiz-adv-x="890" 
d="M59 731q195 -1 389.5 0t388.5 -1v-170h-607q-2 -37 -1 -75t0 -76h270q0 -43 0.5 -86.5t-1.5 -85.5h-269v-236h-171v727q0 3 1 3zM547 410h166v-172h-168q0 42 0.5 84t-0.5 85q0 2 2 3z" />
    <glyph glyph-name="g" unicode="g" horiz-adv-x="891" 
d="M48 727h778q-2 -41 -1 -85t2 -87h-608v-381q110 -2 221.5 -1t222.5 0v105h-85q0 42 -0.5 84t-0.5 87h258v-447h-788v722q0 3 1 3zM367 447h165v-84.5t1 -86.5h-168v168q0 3 2 3z" />
    <glyph glyph-name="h" unicode="h" horiz-adv-x="895" 
d="M58 733h171v-280q110 -2 221.5 -1.5t223.5 -0.5q0 17 0.5 33.5t0.5 33.5q42 -1 85.5 -1h84.5v-516h-172v280h-444v-280h-172v729q0 3 1 3zM841 722v-171h-167q0 42 -0.5 85.5t-0.5 85.5h18.5h45h55h49.5z" />
    <glyph glyph-name="i" unicode="i" horiz-adv-x="303" 
d="M65 725h166q2 -42 1 -85.5t0 -85.5h-169v168q0 3 2 3zM64 512h171v-511h-172v508q0 3 1 3z" />
    <glyph glyph-name="j" unicode="j" horiz-adv-x="901" 
d="M245 728h166v-171h-167v168q0 3 1 3zM452 726h388q-1 -182 0 -363t-1 -361h-783v301h171v-130h441q2 94 1 190t0 192h-217q-2 41 -1 83.5t0 84.5q0 3 1 3z" />
    <glyph glyph-name="k" unicode="k" horiz-adv-x="865" 
d="M54 737q42 -1 85 0t85 -1v-171q56 -2 113.5 -1t114.5 0q2 42 1 85.5t0 87.5h171q2 -42 1 -86t0 -87h195v-337h-171v79t-1 85h-423q-2 -97 -1 -194t0 -194q-44 0 -86.5 -0.5t-84.5 -1.5v732q0 3 1 4zM646 172h177v-171h-179v168q0 3 2 3z" />
    <glyph glyph-name="l" unicode="l" horiz-adv-x="876" 
d="M48 736q43 -1 87 0t86 -1v-171h-175v169q0 1 2 3zM51 504h169q2 -81 1.5 -164t-0.5 -166q153 -2 306 -1t307 0v-170q-195 -2 -391 -1.5t-393 0.5v499q0 3 1 3z" />
    <glyph glyph-name="m" unicode="m" horiz-adv-x="871" 
d="M52 742h765v-741q-43 1 -86 0t-85 1v568q-31 2 -64 1t-65 0v-219h-171v219h-123v-569q-42 -2 -85.5 -1t-86.5 0v738q0 3 1 3zM346 300h166v-172h-167v169q0 3 1 3z" />
    <glyph glyph-name="n" unicode="n" horiz-adv-x="863" 
d="M52 733h765v-733h-172v562h-422q-2 -78 -1 -158t0 -159h-171v485q0 3 1 3zM56 173h166v-172h-167v169q0 3 1 3z" />
    <glyph glyph-name="o" unicode="o" horiz-adv-x="880" 
d="M45 731h786v-729h-787v726q0 2 1 3zM215 556v-383h445v386h-444q-1 0 -1 -3zM353 453h165q2 -42 1 -85t0 -86h-168v168q0 3 2 3z" />
    <glyph glyph-name="p" unicode="p" horiz-adv-x="876" 
d="M55 732h766q2 -113 2 -228.5t-2 -228.5h-595v-45h-172v499q0 3 1 3zM226 558v-111h425v114h-424q-1 0 -1 -3zM57 173h165q0 -44 0.5 -86.5t1.5 -85.5h-169v169q0 1 2 3z" />
    <glyph glyph-name="q" unicode="q" horiz-adv-x="863" 
d="M50 733q194 0 387.5 -0.5t385.5 -0.5v-490q-44 0 -86.5 -0.5t-85.5 -0.5v320h-215t-216 1v-197.5t-1 -191.5h377v-172h-547q-2 182 -1.5 364t0.5 365q0 3 2 3zM416 413h167v-171h-168v168q0 3 1 3zM655 174h167v-172h-168v169q0 3 1 3z" />
    <glyph glyph-name="r" unicode="r" horiz-adv-x="884" 
d="M46 731h775q-5 -69 -13.5 -140t-15.5 -142q8 -2 18.5 -1.5t19.5 0.5q0 -59 0.5 -112.5t0.5 -109.5h-83t-88 -1v48q-110 2 -221.5 1.5t-223.5 -0.5v-273q-42 1 -86.5 1h-84.5v726q0 3 2 3zM215 557v-111h405q2 29 5.5 57t5.5 57h-415q-1 -1 -1 -3zM664 174h165
q2 -42 1.5 -85.5t-0.5 -86.5h-168v168q0 2 2 4z" />
    <glyph glyph-name="s" unicode="s" horiz-adv-x="850" 
d="M44 735h525v-171h-354q-2 -16 -1 -34t0 -35q145 -2 290.5 -1t291.5 0v-492q-187 -2 -374 -1t-375 0v172h577q2 36 1 74t0 76h-582v409q0 3 1 3zM626 735h165q2 -42 1 -85t0 -86h-168v168q0 3 2 3z" />
    <glyph glyph-name="t" unicode="t" horiz-adv-x="852" 
d="M48 713q191 -1 381.5 0t379.5 -1v-170h-286q-2 -81 -1 -163t0 -163h-172v326h-303v168q0 3 1 3zM354 172h165q2 -42 1 -85.5t0 -85.5h-169q0 42 0.5 84t-0.5 84q0 3 3 3z" />
    <glyph glyph-name="u" unicode="u" horiz-adv-x="869" 
d="M45 729h171v-555q107 -2 215 -1.5t217 0.5v334h170q2 -125 1.5 -251.5t-0.5 -253.5q-193 -2 -387.5 -2t-387.5 2v724q0 3 1 3zM649 729h166v-171h-167v168q0 3 1 3z" />
    <glyph glyph-name="v" unicode="v" horiz-adv-x="856" 
d="M41 733h171v-561h428v557h171v-727q-192 -2 -384 -1t-386 0q-2 182 -1 364t0 365q0 3 1 3zM454 381h151v-172h-153v169q0 1 2 3zM248 382h151v-172h-152v169q0 3 1 3z" />
    <glyph glyph-name="w" unicode="w" horiz-adv-x="856" 
d="M43 725h171v-551q29 -2 61 -1.5t63 0.5v197h171v-197h127q2 137 1 275t0 277h171v-724q-192 1 -383.5 0t-382.5 1v720q0 3 1 3zM339 593h165q2 -42 1.5 -85.5t-0.5 -86.5h-168v168q0 2 2 4z" />
    <glyph glyph-name="x" unicode="x" horiz-adv-x="865" 
d="M49 726h170v-120h427q2 29 1 59.5t0 60.5h170q2 -72 1.5 -145.5t-0.5 -146.5h-306q-2 -34 -1 -69.5t0 -70.5q76 -2 153 -1.5t154 0.5v-291q-42 -2 -85 -1t-86 0v119q-106 2 -213.5 1t-214.5 0v-120h-171q-2 72 -1 145.5t0 146.5h310q2 33 1.5 69t-0.5 71
q-76 2 -154.5 1.5t-156.5 -0.5v289q0 1 2 3z" />
    <glyph glyph-name="y" unicode="y" horiz-adv-x="858" 
d="M44 735h170v-212h428v208h171v-379h-297v-133h-171v133h-302v380q0 3 1 3zM346 172h170v-171h-172v168q0 3 2 3z" />
    <glyph glyph-name="z" unicode="z" horiz-adv-x="856" 
d="M57 732h166v-171h-167v168q0 3 1 3zM279 732h527q-1 -103 0 -206t-1 -206h-582v-147q146 -1 290.5 0t288.5 -1v-171h-750v491h582v68q-88 2 -179 2h-177v167q0 3 1 3z" />
    <glyph glyph-name="braceleft" unicode="{" 
d="M405 250h-1q-3 45 -7.5 89.5t-6.5 89.5h29q-4 -45 -7.5 -89.5t-6.5 -89.5zM354 421q5 -42 8 -84l6 -84q-11 40 -21.5 81t-21.5 81q6 3 13.5 3.5t14.5 2.5h1zM487 416q-11 -42 -21.5 -82t-20.5 -82q2 42 6 84.5t7 84.5q13 -1 29 -5zM526 370q-12 -24 -25 -47.5t-25 -46.5
q5 25 12.5 50.5t14.5 51.5q6 -2 11.5 -4t11.5 -4zM137 576h17q46 -7 85 -22.5t77 -31.5q16 -6 31 -12t34 -8q-1 -1 -3 -2t-1 -3q5 4 11 7.5t11 7.5q2 -2 2.5 -4t2.5 -4q2 6 4 7q5 -4 11 -7.5t11 -7.5q0 2 -2 3.5t-2 2.5q17 1 31.5 6.5t29.5 11.5q14 5 27 11t28 12
q29 11 58 20q15 5 32 9.5t34 2.5q12 -1 21 -7t5 -21t-14 -29q-5 -7 -9 -13t-9 -10q5 6 9 12.5t9 15.5q4 7 8 19t-1 19q-3 4 -10 5t-14 0q-12 -1 -23.5 -4t-22.5 -8q-31 -11 -60.5 -26t-55.5 -29q9 -7 20.5 -11.5t28.5 -2.5q16 1 29.5 8t25.5 15q11 9 21.5 19t18.5 18
q-10 -13 -20 -25t-23 -23t-28.5 -19t-33.5 -10q-17 -1 -29 3t-22 10q-2 2 -4.5 4t-5.5 2q-5 1 -12.5 -3t-14.5 -6q-14 -5 -28 -5t-19 13q-4 -8 -11.5 -10.5t-16 -1t-17.5 4.5t-15 6q-4 1 -8 2.5t-6 0.5q-2 0 -6.5 -3.5t-7.5 -5.5q-24 -13 -48.5 -9t-43.5 16t-33 27.5
t-26 33.5q8 -10 18.5 -20t22.5 -19q12 -8 26 -14.5t30 -8.5q16 -1 27.5 3.5t19.5 12.5q-27 14 -58 29.5t-64 26.5q-11 4 -23.5 7.5t-24.5 2.5q-14 0 -17 -8t0.5 -18t7.5 -17q5 -9 9 -15.5t8 -13.5q-10 12 -18.5 25t-13.5 30v10q2 8 8.5 11t14.5 5zM280 377q6 2 11.5 4.5
t11.5 4.5q5 -19 10.5 -38t10.5 -39q2 -7 4 -13t3 -12v0l-26 46t-25 47zM144 141l11 -1q-3 -9 -10 -14t-15 -5q-10 0 -16 6q-5 5 -5 17q0 9 3 17q5 8 11 12q5 4 14 4t14 -5q6 -4 7 -13l-11 -1q-1 5 -3 7t-7 2q-3 0 -9 -2q-3 -3 -6 -9q-2 -4 -2 -12q0 -7 3 -10q4 -4 7 -4
q5 0 8 3q2 2 3 4t3 4zM196 146h-21l-5 -24h-11l12 54h11l-5 -21h21l5 21h11l-12 -54h-11zM225 122h-11l11 54h24q7 0 10 -1q3 -2 5 -5q2 -2 2 -8q0 -7 -4 -11q-5 -5 -12 -6q1 -1 1.5 -2t2.5 -3q2 -3 4 -7.5t4 -10.5h-12q-2 6 -6 14q-1 4 -4 7q-2 1 -6 1h-5zM231 152h6
q8 0 12 2q2 0 5 3q1 1 1 5q0 2 -2 4q-1 1 -7 1h-12zM267 122l12 54h11l-11 -54h-12zM291 140h10q0 -5 2 -7q1 -3 9 -3q4 0 8 2q2 4 2 5q0 2 -2 4q-1 1 -8 4q-3 2 -5 2.5t-4 2.5q-3 1 -4 4q-2 4 -2 7q0 6 5 11t14 5q10 0 15 -5q4 -2 6 -11l-11 -1q0 4 -3 6q-2 2 -7 2t-6 -1
q-2 -2 -2 -5q0 -2 2 -3q3 -3 8 -5q10 -3 11 -6q4 -4 4 -10t-6 -12q-5 -5 -15 -5q-6 0 -12 2q-6 3 -7 7q-3 5 -2 10zM366 122h-12l-9 54h11l7 -41l22 41h11zM389 122l11 54h11l-11 -54h-11zM411 122l11 54h11l-9 -45h27l-2 -9h-38zM456 122l12 54h40l-2 -9h-29l-3 -12h28
l-2 -9h-28l-3 -15h31l-1 -9h-43zM509 132h11l-3 -10h-10zM567 141l11 -1q-3 -9 -10 -14t-15 -5q-10 0 -16 6q-5 7 -5 17q0 9 3 17q5 8 11 12q5 4 14 4t14 -5q6 -4 7 -13l-11 -1q0 4 -3 7q-2 2 -7 2q-3 0 -9 -2q-3 -3 -6 -9q-2 -4 -2 -12q0 -7 3 -10q4 -4 7 -4q5 0 8 3
q4 3 6 8zM586 143q0 7 1 10q1 7 6 13q2 4 9 8q6 3 14 3q10 0 16 -6t6 -17q0 -9 -4 -16q-5 -9 -11 -13q-8 -4 -15 -4q-9 0 -13 4q-6 4 -7 8q-2 3 -2 10zM597 143q0 -5 3 -9q4 -4 9 -4t8 3q6 4 7 9q3 6 3 12q0 7 -3 10q-6 4 -9 4q-8 0 -13 -8q-5 -6 -5 -17zM672 122h-11l-2 45
l-8 -45h-10l11 54h16l1 -38l19 38h16l-11 -54h-11l11 45z" />
    <glyph glyph-name="bar" unicode="|" 
d="M405 250h-1q-3 45 -7.5 89.5t-6.5 89.5h29q-4 -45 -7.5 -89.5t-6.5 -89.5zM354 421q5 -42 8 -84l6 -84q-11 40 -21.5 81t-21.5 81q6 3 13.5 3.5t14.5 2.5h1zM487 416q-11 -42 -21.5 -82t-20.5 -82q2 42 6 84.5t7 84.5q13 -1 29 -5zM526 370q-12 -24 -25 -47.5t-25 -46.5
q5 25 12.5 50.5t14.5 51.5q6 -2 11.5 -4t11.5 -4zM137 576h17q46 -7 85 -22.5t77 -31.5q16 -6 31 -12t34 -8q-1 -1 -3 -2t-1 -3q5 4 11 7.5t11 7.5q2 -2 2.5 -4t2.5 -4q2 6 4 7q5 -4 11 -7.5t11 -7.5q0 2 -2 3.5t-2 2.5q17 1 31.5 6.5t29.5 11.5q14 5 27 11t28 12
q29 11 58 20q15 5 32 9.5t34 2.5q12 -1 21 -7t5 -21t-14 -29q-5 -7 -9 -13t-9 -10q5 6 9 12.5t9 15.5q4 7 8 19t-1 19q-3 4 -10 5t-14 0q-12 -1 -23.5 -4t-22.5 -8q-31 -11 -60.5 -26t-55.5 -29q9 -7 20.5 -11.5t28.5 -2.5q16 1 29.5 8t25.5 15q11 9 21.5 19t18.5 18
q-10 -13 -20 -25t-23 -23t-28.5 -19t-33.5 -10q-17 -1 -29 3t-22 10q-2 2 -4.5 4t-5.5 2q-5 1 -12.5 -3t-14.5 -6q-14 -5 -28 -5t-19 13q-4 -8 -11.5 -10.5t-16 -1t-17.5 4.5t-15 6q-4 1 -8 2.5t-6 0.5q-2 0 -6.5 -3.5t-7.5 -5.5q-24 -13 -48.5 -9t-43.5 16t-33 27.5
t-26 33.5q8 -10 18.5 -20t22.5 -19q12 -8 26 -14.5t30 -8.5q16 -1 27.5 3.5t19.5 12.5q-27 14 -58 29.5t-64 26.5q-11 4 -23.5 7.5t-24.5 2.5q-14 0 -17 -8t0.5 -18t7.5 -17q5 -9 9 -15.5t8 -13.5q-10 12 -18.5 25t-13.5 30v10q2 8 8.5 11t14.5 5zM280 377q6 2 11.5 4.5
t11.5 4.5q5 -19 10.5 -38t10.5 -39q2 -7 4 -13t3 -12v0l-26 46t-25 47zM144 141l11 -1q-3 -9 -10 -14t-15 -5q-10 0 -16 6q-5 5 -5 17q0 9 3 17q5 8 11 12q5 4 14 4t14 -5q6 -4 7 -13l-11 -1q-1 5 -3 7t-7 2q-3 0 -9 -2q-3 -3 -6 -9q-2 -4 -2 -12q0 -7 3 -10q4 -4 7 -4
q5 0 8 3q2 2 3 4t3 4zM196 146h-21l-5 -24h-11l12 54h11l-5 -21h21l5 21h11l-12 -54h-11zM225 122h-11l11 54h24q7 0 10 -1q3 -2 5 -5q2 -2 2 -8q0 -7 -4 -11q-5 -5 -12 -6q1 -1 1.5 -2t2.5 -3q2 -3 4 -7.5t4 -10.5h-12q-2 6 -6 14q-1 4 -4 7q-2 1 -6 1h-5zM231 152h6
q8 0 12 2q2 0 5 3q1 1 1 5q0 2 -2 4q-1 1 -7 1h-12zM267 122l12 54h11l-11 -54h-12zM291 140h10q0 -5 2 -7q1 -3 9 -3q4 0 8 2q2 4 2 5q0 2 -2 4q-1 1 -8 4q-3 2 -5 2.5t-4 2.5q-3 1 -4 4q-2 4 -2 7q0 6 5 11t14 5q10 0 15 -5q4 -2 6 -11l-11 -1q0 4 -3 6q-2 2 -7 2t-6 -1
q-2 -2 -2 -5q0 -2 2 -3q3 -3 8 -5q10 -3 11 -6q4 -4 4 -10t-6 -12q-5 -5 -15 -5q-6 0 -12 2q-6 3 -7 7q-3 5 -2 10zM366 122h-12l-9 54h11l7 -41l22 41h11zM389 122l11 54h11l-11 -54h-11zM411 122l11 54h11l-9 -45h27l-2 -9h-38zM456 122l12 54h40l-2 -9h-29l-3 -12h28
l-2 -9h-28l-3 -15h31l-1 -9h-43zM509 132h11l-3 -10h-10zM567 141l11 -1q-3 -9 -10 -14t-15 -5q-10 0 -16 6q-5 7 -5 17q0 9 3 17q5 8 11 12q5 4 14 4t14 -5q6 -4 7 -13l-11 -1q0 4 -3 7q-2 2 -7 2q-3 0 -9 -2q-3 -3 -6 -9q-2 -4 -2 -12q0 -7 3 -10q4 -4 7 -4q5 0 8 3
q4 3 6 8zM586 143q0 7 1 10q1 7 6 13q2 4 9 8q6 3 14 3q10 0 16 -6t6 -17q0 -9 -4 -16q-5 -9 -11 -13q-8 -4 -15 -4q-9 0 -13 4q-6 4 -7 8q-2 3 -2 10zM597 143q0 -5 3 -9q4 -4 9 -4t8 3q6 4 7 9q3 6 3 12q0 7 -3 10q-6 4 -9 4q-8 0 -13 -8q-5 -6 -5 -17zM672 122h-11l-2 45
l-8 -45h-10l11 54h16l1 -38l19 38h16l-11 -54h-11l11 45z" />
    <glyph glyph-name="braceright" unicode="}" 
d="M405 250h-1q-3 45 -7.5 89.5t-6.5 89.5h29q-4 -45 -7.5 -89.5t-6.5 -89.5zM354 421q5 -42 8 -84l6 -84q-11 40 -21.5 81t-21.5 81q6 3 13.5 3.5t14.5 2.5h1zM487 416q-11 -42 -21.5 -82t-20.5 -82q2 42 6 84.5t7 84.5q13 -1 29 -5zM526 370q-12 -24 -25 -47.5t-25 -46.5
q5 25 12.5 50.5t14.5 51.5q6 -2 11.5 -4t11.5 -4zM137 576h17q46 -7 85 -22.5t77 -31.5q16 -6 31 -12t34 -8q-1 -1 -3 -2t-1 -3q5 4 11 7.5t11 7.5q2 -2 2.5 -4t2.5 -4q2 6 4 7q5 -4 11 -7.5t11 -7.5q0 2 -2 3.5t-2 2.5q17 1 31.5 6.5t29.5 11.5q14 5 27 11t28 12
q29 11 58 20q15 5 32 9.5t34 2.5q12 -1 21 -7t5 -21t-14 -29q-5 -7 -9 -13t-9 -10q5 6 9 12.5t9 15.5q4 7 8 19t-1 19q-3 4 -10 5t-14 0q-12 -1 -23.5 -4t-22.5 -8q-31 -11 -60.5 -26t-55.5 -29q9 -7 20.5 -11.5t28.5 -2.5q16 1 29.5 8t25.5 15q11 9 21.5 19t18.5 18
q-10 -13 -20 -25t-23 -23t-28.5 -19t-33.5 -10q-17 -1 -29 3t-22 10q-2 2 -4.5 4t-5.5 2q-5 1 -12.5 -3t-14.5 -6q-14 -5 -28 -5t-19 13q-4 -8 -11.5 -10.5t-16 -1t-17.5 4.5t-15 6q-4 1 -8 2.5t-6 0.5q-2 0 -6.5 -3.5t-7.5 -5.5q-24 -13 -48.5 -9t-43.5 16t-33 27.5
t-26 33.5q8 -10 18.5 -20t22.5 -19q12 -8 26 -14.5t30 -8.5q16 -1 27.5 3.5t19.5 12.5q-27 14 -58 29.5t-64 26.5q-11 4 -23.5 7.5t-24.5 2.5q-14 0 -17 -8t0.5 -18t7.5 -17q5 -9 9 -15.5t8 -13.5q-10 12 -18.5 25t-13.5 30v10q2 8 8.5 11t14.5 5zM280 377q6 2 11.5 4.5
t11.5 4.5q5 -19 10.5 -38t10.5 -39q2 -7 4 -13t3 -12v0l-26 46t-25 47zM144 141l11 -1q-3 -9 -10 -14t-15 -5q-10 0 -16 6q-5 5 -5 17q0 9 3 17q5 8 11 12q5 4 14 4t14 -5q6 -4 7 -13l-11 -1q-1 5 -3 7t-7 2q-3 0 -9 -2q-3 -3 -6 -9q-2 -4 -2 -12q0 -7 3 -10q4 -4 7 -4
q5 0 8 3q2 2 3 4t3 4zM196 146h-21l-5 -24h-11l12 54h11l-5 -21h21l5 21h11l-12 -54h-11zM225 122h-11l11 54h24q7 0 10 -1q3 -2 5 -5q2 -2 2 -8q0 -7 -4 -11q-5 -5 -12 -6q1 -1 1.5 -2t2.5 -3q2 -3 4 -7.5t4 -10.5h-12q-2 6 -6 14q-1 4 -4 7q-2 1 -6 1h-5zM231 152h6
q8 0 12 2q2 0 5 3q1 1 1 5q0 2 -2 4q-1 1 -7 1h-12zM267 122l12 54h11l-11 -54h-12zM291 140h10q0 -5 2 -7q1 -3 9 -3q4 0 8 2q2 4 2 5q0 2 -2 4q-1 1 -8 4q-3 2 -5 2.5t-4 2.5q-3 1 -4 4q-2 4 -2 7q0 6 5 11t14 5q10 0 15 -5q4 -2 6 -11l-11 -1q0 4 -3 6q-2 2 -7 2t-6 -1
q-2 -2 -2 -5q0 -2 2 -3q3 -3 8 -5q10 -3 11 -6q4 -4 4 -10t-6 -12q-5 -5 -15 -5q-6 0 -12 2q-6 3 -7 7q-3 5 -2 10zM366 122h-12l-9 54h11l7 -41l22 41h11zM389 122l11 54h11l-11 -54h-11zM411 122l11 54h11l-9 -45h27l-2 -9h-38zM456 122l12 54h40l-2 -9h-29l-3 -12h28
l-2 -9h-28l-3 -15h31l-1 -9h-43zM509 132h11l-3 -10h-10zM567 141l11 -1q-3 -9 -10 -14t-15 -5q-10 0 -16 6q-5 7 -5 17q0 9 3 17q5 8 11 12q5 4 14 4t14 -5q6 -4 7 -13l-11 -1q0 4 -3 7q-2 2 -7 2q-3 0 -9 -2q-3 -3 -6 -9q-2 -4 -2 -12q0 -7 3 -10q4 -4 7 -4q5 0 8 3
q4 3 6 8zM586 143q0 7 1 10q1 7 6 13q2 4 9 8q6 3 14 3q10 0 16 -6t6 -17q0 -9 -4 -16q-5 -9 -11 -13q-8 -4 -15 -4q-9 0 -13 4q-6 4 -7 8q-2 3 -2 10zM597 143q0 -5 3 -9q4 -4 9 -4t8 3q6 4 7 9q3 6 3 12q0 7 -3 10q-6 4 -9 4q-8 0 -13 -8q-5 -6 -5 -17zM672 122h-11l-2 45
l-8 -45h-10l11 54h16l1 -38l19 38h16l-11 -54h-11l11 45z" />
    <glyph glyph-name="asciitilde" unicode="~" 
d="M405 250h-1q-3 45 -7.5 89.5t-6.5 89.5h29q-4 -45 -7.5 -89.5t-6.5 -89.5zM354 421q5 -42 8 -84l6 -84q-11 40 -21.5 81t-21.5 81q6 3 13.5 3.5t14.5 2.5h1zM487 416q-11 -42 -21.5 -82t-20.5 -82q2 42 6 84.5t7 84.5q13 -1 29 -5zM526 370q-12 -24 -25 -47.5t-25 -46.5
q5 25 12.5 50.5t14.5 51.5q6 -2 11.5 -4t11.5 -4zM137 576h17q46 -7 85 -22.5t77 -31.5q16 -6 31 -12t34 -8q-1 -1 -3 -2t-1 -3q5 4 11 7.5t11 7.5q2 -2 2.5 -4t2.5 -4q2 6 4 7q5 -4 11 -7.5t11 -7.5q0 2 -2 3.5t-2 2.5q17 1 31.5 6.5t29.5 11.5q14 5 27 11t28 12
q29 11 58 20q15 5 32 9.5t34 2.5q12 -1 21 -7t5 -21t-14 -29q-5 -7 -9 -13t-9 -10q5 6 9 12.5t9 15.5q4 7 8 19t-1 19q-3 4 -10 5t-14 0q-12 -1 -23.5 -4t-22.5 -8q-31 -11 -60.5 -26t-55.5 -29q9 -7 20.5 -11.5t28.5 -2.5q16 1 29.5 8t25.5 15q11 9 21.5 19t18.5 18
q-10 -13 -20 -25t-23 -23t-28.5 -19t-33.5 -10q-17 -1 -29 3t-22 10q-2 2 -4.5 4t-5.5 2q-5 1 -12.5 -3t-14.5 -6q-14 -5 -28 -5t-19 13q-4 -8 -11.5 -10.5t-16 -1t-17.5 4.5t-15 6q-4 1 -8 2.5t-6 0.5q-2 0 -6.5 -3.5t-7.5 -5.5q-24 -13 -48.5 -9t-43.5 16t-33 27.5
t-26 33.5q8 -10 18.5 -20t22.5 -19q12 -8 26 -14.5t30 -8.5q16 -1 27.5 3.5t19.5 12.5q-27 14 -58 29.5t-64 26.5q-11 4 -23.5 7.5t-24.5 2.5q-14 0 -17 -8t0.5 -18t7.5 -17q5 -9 9 -15.5t8 -13.5q-10 12 -18.5 25t-13.5 30v10q2 8 8.5 11t14.5 5zM280 377q6 2 11.5 4.5
t11.5 4.5q5 -19 10.5 -38t10.5 -39q2 -7 4 -13t3 -12v0l-26 46t-25 47zM144 141l11 -1q-3 -9 -10 -14t-15 -5q-10 0 -16 6q-5 5 -5 17q0 9 3 17q5 8 11 12q5 4 14 4t14 -5q6 -4 7 -13l-11 -1q-1 5 -3 7t-7 2q-3 0 -9 -2q-3 -3 -6 -9q-2 -4 -2 -12q0 -7 3 -10q4 -4 7 -4
q5 0 8 3q2 2 3 4t3 4zM196 146h-21l-5 -24h-11l12 54h11l-5 -21h21l5 21h11l-12 -54h-11zM225 122h-11l11 54h24q7 0 10 -1q3 -2 5 -5q2 -2 2 -8q0 -7 -4 -11q-5 -5 -12 -6q1 -1 1.5 -2t2.5 -3q2 -3 4 -7.5t4 -10.5h-12q-2 6 -6 14q-1 4 -4 7q-2 1 -6 1h-5zM231 152h6
q8 0 12 2q2 0 5 3q1 1 1 5q0 2 -2 4q-1 1 -7 1h-12zM267 122l12 54h11l-11 -54h-12zM291 140h10q0 -5 2 -7q1 -3 9 -3q4 0 8 2q2 4 2 5q0 2 -2 4q-1 1 -8 4q-3 2 -5 2.5t-4 2.5q-3 1 -4 4q-2 4 -2 7q0 6 5 11t14 5q10 0 15 -5q4 -2 6 -11l-11 -1q0 4 -3 6q-2 2 -7 2t-6 -1
q-2 -2 -2 -5q0 -2 2 -3q3 -3 8 -5q10 -3 11 -6q4 -4 4 -10t-6 -12q-5 -5 -15 -5q-6 0 -12 2q-6 3 -7 7q-3 5 -2 10zM366 122h-12l-9 54h11l7 -41l22 41h11zM389 122l11 54h11l-11 -54h-11zM411 122l11 54h11l-9 -45h27l-2 -9h-38zM456 122l12 54h40l-2 -9h-29l-3 -12h28
l-2 -9h-28l-3 -15h31l-1 -9h-43zM509 132h11l-3 -10h-10zM567 141l11 -1q-3 -9 -10 -14t-15 -5q-10 0 -16 6q-5 7 -5 17q0 9 3 17q5 8 11 12q5 4 14 4t14 -5q6 -4 7 -13l-11 -1q0 4 -3 7q-2 2 -7 2q-3 0 -9 -2q-3 -3 -6 -9q-2 -4 -2 -12q0 -7 3 -10q4 -4 7 -4q5 0 8 3
q4 3 6 8zM586 143q0 7 1 10q1 7 6 13q2 4 9 8q6 3 14 3q10 0 16 -6t6 -17q0 -9 -4 -16q-5 -9 -11 -13q-8 -4 -15 -4q-9 0 -13 4q-6 4 -7 8q-2 3 -2 10zM597 143q0 -5 3 -9q4 -4 9 -4t8 3q6 4 7 9q3 6 3 12q0 7 -3 10q-6 4 -9 4q-8 0 -13 -8q-5 -6 -5 -17zM672 122h-11l-2 45
l-8 -45h-10l11 54h16l1 -38l19 38h16l-11 -54h-11l11 45z" />
  </font>
</defs>
</svg>
