<?xml version="1.0" standalone="no"?>
<!DOCTYPE svg PUBLIC "-//W3C//DTD SVG 1.1//EN" "http://www.w3.org/Graphics/SVG/1.1/DTD/svg11.dtd" >
<svg xmlns="http://www.w3.org/2000/svg" xmlns:xlink="http://www.w3.org/1999/xlink" version="1.1">
<metadata>
Created by FontForge 20170731 at Sat Jan  5 15:19:33 2019
 By Aleksey,,,
Copyright (c) 2019 by Misti"s Fonts. All rights reserved.
</metadata>
<defs>
<font id="FlameFetish-Regular" horiz-adv-x="1027" >
  <font-face 
    font-family="Flame Fetish"
    font-weight="400"
    font-stretch="normal"
    units-per-em="1000"
    panose-1="0 0 0 0 0 0 0 0 0 0"
    ascent="800"
    descent="-200"
    x-height="404"
    cap-height="716"
    bbox="-2889 -565 1515 1011"
    underline-thickness="50"
    underline-position="-175"
    unicode-range="U+000D-E005"
  />
<missing-glyph horiz-adv-x="250" 
 />
    <glyph glyph-name="uniE001" unicode="__" horiz-adv-x="41" 
d="M-1773 -420q-1 -11 -10 -11t-25 12t-35.5 27t-40.5 27t-41 12q-31 0 -51 -38q-3 -7 -7 -7q-6 0 -6 19q0 16 8 41.5t28.5 55t56 59.5t91.5 54t135 39.5t185 15.5q68 0 163 -10t205 -22t229 -22t235 -10q87 0 169 7.5t154.5 26t133 49t104 77t68 110.5t24.5 148q0 8 6 14
t14 6q14 0 17 -10t3 -21q0 -103 -25.5 -180.5t-71 -133.5t-109 -93.5t-140 -59.5t-163 -31t-178.5 -9q-121 0 -246.5 11.5t-243.5 25t-223.5 25t-187.5 11.5q-55 0 -93.5 -15t-64.5 -43t-42 -68t-25 -89z" />
    <glyph glyph-name="uniE002" unicode="___" horiz-adv-x="41" 
d="M-1973 -420q-1 -11 -10 -11t-25 12t-35.5 27t-40.5 27t-41 12q-31 0 -51 -38q-3 -7 -7 -7q-6 0 -6 19q0 16 8 41.5t28.5 55t56 59.5t91.5 54t135 39.5t185 15.5q68 0 171 -10t226 -22t258 -22t269 -10q100 0 195 7.5t179.5 26t155.5 49t122.5 77t80 110.5t28.5 148
q0 8 6 14t14 6q14 0 17 -10t3 -21q0 -103 -30 -180.5t-83.5 -133.5t-127.5 -93.5t-162.5 -59.5t-188.5 -31t-205 -9q-138 0 -279.5 11.5t-272.5 25t-244 25t-195 11.5q-55 0 -93.5 -15t-64.5 -43t-42 -68t-25 -89z" />
    <glyph glyph-name="uniE003" unicode="____" horiz-adv-x="41" 
d="M-2173 -420q-1 -11 -10 -11t-25 12t-35.5 27t-40.5 27t-41 12q-31 0 -51 -38q-3 -7 -7 -7q-6 0 -6 19q0 16 8 41.5t28.5 55t56 59.5t91.5 54t135 39.5t185 15.5q45 0 110 -4.5t144.5 -12t170.5 -15.5t188.5 -15.5t199.5 -12t203 -4.5q113 0 221 7.5t204.5 26t178 49
t140.5 77t92 110.5t33 148q0 8 6 14t14 6q14 0 17 -10t3 -21q0 -103 -34.5 -180.5t-95.5 -133.5t-146 -93.5t-185.5 -59.5t-214 -31t-232.5 -9q-104 0 -209 5.5t-207 13.5t-198 17.5t-181.5 17.5t-157.5 13.5t-127 5.5t-93.5 -15t-64.5 -43t-42 -68t-25 -89z" />
    <glyph glyph-name="uniE004" unicode="_____" horiz-adv-x="41" 
d="M-2473 -420q-1 -11 -10 -11t-25 12t-35.5 27t-40.5 27t-41 12q-31 0 -51 -38q-3 -7 -7 -7q-6 0 -6 19q0 16 8 41.5t28.5 55t56 59.5t91.5 54t135 39.5t185 15.5q45 0 115.5 -4.5t159 -12t192.5 -15.5t217 -15.5t232 -12t237 -4.5q132 0 260 7.5t243 26t212 49t167.5 77
t110 110.5t39.5 148q0 8 6 14t14 6q14 0 17 -10t3 -21q0 -103 -41 -180.5t-114 -133.5t-173.5 -93.5t-219.5 -59.5t-252.5 -31t-272.5 -9q-121 0 -243 5.5t-239 13.5t-225.5 17.5t-203 17.5t-172.5 13.5t-132 5.5q-55 0 -93.5 -15t-64.5 -43t-42 -68t-25 -89z" />
    <glyph glyph-name="uniE005" unicode="______" horiz-adv-x="41" 
d="M-2673 -420q-1 -11 -10 -11t-25 12t-35.5 27t-40.5 27t-41 12q-31 0 -51 -38q-3 -7 -7 -7q-6 0 -6 19q0 16 8 41.5t28.5 55t56 59.5t91.5 54t135 39.5t185 15.5q45 0 119 -4.5t169 -12t207.5 -15.5t235.5 -15.5t253.5 -12t260.5 -4.5q146 0 287 7.5t267.5 26t234 49
t185.5 77t122 110.5t44 148q0 8 6 14t14 6q14 0 17 -10t3 -21q0 -103 -45.5 -180.5t-126 -133.5t-192 -93.5t-243 -59.5t-278 -31t-298.5 -9q-133 0 -266 5.5t-260 13.5t-244 17.5t-218 17.5t-181.5 13.5t-135.5 5.5t-93.5 -15t-64.5 -43t-42 -68t-25 -89z" />
    <glyph glyph-name=".notdef" horiz-adv-x="250" 
 />
    <glyph glyph-name="uni0000" horiz-adv-x="0" 
 />
    <glyph glyph-name="uni0000" horiz-adv-x="0" 
 />
    <glyph glyph-name="uni000D" unicode="&#xd;" horiz-adv-x="250" 
 />
    <glyph glyph-name="space" unicode=" " horiz-adv-x="260" 
 />
    <glyph glyph-name="exclam" unicode="!" horiz-adv-x="246" 
d="M152 137q-3 -11 -8 -11t-12 11t-15 11t-16 -14q-2 -3 -2 13.5t1 45.5t3 68.5t4 82t4.5 85t5 78.5t4 62.5t2.5 36.5q1 18 1.5 34.5t1 28.5t0.5 17.5t1 2.5q2 -11 7.5 -14.5t13.5 -3.5q9 0 19 4t20 9.5t18.5 9.5t13.5 4q6 0 6 -7q0 -24 -3.5 -68.5t-10 -99t-14 -114
t-16 -113t-16 -96t-13.5 -63.5zM74 44q0 20 12 32t32 12t32 -12t12 -32t-12 -32t-32 -12t-32 12t-12 32z" />
    <glyph glyph-name="quotedbl" unicode="&#x22;" horiz-adv-x="373" 
d="M137 367q-3 -8 -6 -8q-4 0 -8.5 8.5t-10 19t-12 19t-12.5 8.5t-12 -10l-2 -2q-2 0 -1 17t3 41t5 50.5t4 45.5q1 18 2 34.5t2 28.5t1.5 17.5t1.5 2.5q2 -11 7.5 -14.5t11.5 -3.5q8 0 17 4t18 9.5t17 9.5t12 4q5 0 5 -7q0 -73 -12.5 -141.5t-30.5 -132.5zM257 367
q-3 -8 -6 -8q-4 0 -8.5 8.5t-10 19t-12 19t-12.5 8.5t-12 -10l-2 -2q-2 0 -1 17t3 41t5 50.5t4 45.5q1 18 2 34.5t2 28.5t1.5 17.5t1.5 2.5q2 -11 7.5 -14.5t11.5 -3.5q8 0 17 4t18 9.5t17 9.5t12 4q5 0 5 -7q0 -73 -12.5 -141.5t-30.5 -132.5z" />
    <glyph glyph-name="numbersign" unicode="#" horiz-adv-x="557" 
d="M287 -33q-3 -7 -6 -7t-5.5 9.5t-5 21.5t-6 21.5t-9.5 9.5q-5 0 -11 -8q-2 -3 0 10t7 36.5t12 55.5t16 69h-27h-32.5t-30.5 1q-12 -39 -22.5 -74t-20 -64t-17 -50t-12.5 -31q-3 -7 -6 -7t-5.5 9.5t-5 21.5t-6 21.5t-9.5 9.5q-5 0 -11 -8q-2 -3 0 10t7.5 37t12.5 57.5
t16 70.5q-17 2 -32.5 3.5t-26.5 3.5q-15 3 -6.5 11t21.5 18.5t20.5 21t-10.5 16.5q-5 2 10 2.5t42 0.5q6 26 12.5 51.5t12.5 49.5q-32 2 -58 4t-44 5q-15 3 -6.5 11t21.5 18.5t20.5 21t-10.5 16.5q-6 2 22.5 2.5t73.5 1.5l20 79q5 18 11.5 48t13 58t11.5 47t5 15
q1 -22 20 -22q15 0 33.5 8.5t28.5 8.5q6 0 5 -8q-2 -13 -7.5 -36t-13 -53.5t-17 -66.5t-20.5 -76q21 1 41.5 1t39.5 2l19 74q5 18 11.5 48t13 58t11.5 47t5 15q1 -22 20 -22q15 0 33.5 8.5t28.5 8.5q6 0 5 -8q-5 -25 -19.5 -84.5t-34.5 -134.5q17 2 31 3t21 1q6 0 4 -1
q-13 -6 -14.5 -14t3 -17.5t12.5 -18.5t14 -17t8 -13t-6 -6q-45 -6 -98 -9q-6 -24 -12.5 -48t-13.5 -47l24 3q26 4 48 6.5t31 2.5q8 0 4 -2q-13 -6 -14.5 -14t3 -17.5t12.5 -18.5t14 -17t8 -13t-6 -6q-34 -5 -72 -7.5t-78 -4.5q-23 -78 -42 -138.5t-30 -81.5zM212 267l87 3
l23 96q-21 -1 -41.5 -1h-40.5z" />
    <glyph glyph-name="dollar" unicode="$" horiz-adv-x="823" 
d="M460 -282q-4 -11 -9 -11q-3 0 -5.5 3.5t-5.5 8t-6.5 8.5t-8.5 4q-8 0 -16 -11q-1 -1 5 31q-43 2 -78.5 14.5t-61 33.5t-39.5 50t-14 63q0 16 4.5 26t7.5 10q2 0 2 -2q6 -17 19 -17q8 0 17.5 5t18 11.5t16 11.5t11.5 5t4 -6q0 -29 4.5 -56.5t15.5 -50t31 -38t51 -19.5
q9 39 22.5 95t29.5 122t33.5 138.5t35.5 145.5q-32 60 -60 120.5t-37 118.5q-23 1 -45 1.5t-44 0.5q-60 0 -113.5 -6t-94 -23.5t-64 -50t-23.5 -85.5q0 -33 10 -56.5t26.5 -39t37 -23t41.5 -7.5q58 0 87.5 64.5t29.5 177.5q0 6 4 6t11.5 -5t16.5 -11.5t18.5 -11.5t17.5 -5
q13 0 19 17q0 2 2 2q3 0 7.5 -10t4.5 -26q0 -45 -14.5 -87.5t-42.5 -76t-68.5 -54t-92.5 -20.5q-36 0 -70.5 13t-62.5 35.5t-45 53t-17 64.5q0 68 33.5 108.5t89 62t126.5 28t146 6.5q17 0 33 -0.5t33 -0.5v1q0 48 18 82.5t48 57.5t68.5 35t79.5 15q7 33 10.5 56.5t4.5 17.5
q3 -21 18 -21q7 0 15 3.5t15.5 7t14 7t10.5 3.5q6 0 5 -8l-14 -68q22 -3 44 -10t39.5 -19.5t28.5 -31.5t11 -47q0 -30 -13.5 -52t-37.5 -37t-57 -23.5t-72 -12.5q-11 -45 -22.5 -92t-24.5 -96q20 -36 39.5 -73.5t35.5 -76.5t25.5 -78.5t9.5 -80.5q0 -62 -23 -111.5
t-61 -84.5t-86.5 -56t-100.5 -27q-8 -26 -12 -35zM644 12q0 48 -13 93.5t-36 92.5q-32 -122 -61 -229t-49 -175q33 7 61.5 24.5t50.5 45.5t34.5 65t12.5 83zM540 597v-13.5t1 -13.5h71q12 51 21.5 89.5t15.5 62.5q-49 -8 -79 -38t-30 -87zM790 655q0 29 -18.5 44.5
t-44.5 21.5q-7 -31 -15.5 -66.5t-19.5 -77.5q45 8 71.5 25.5t26.5 52.5zM550 528q5 -22 13 -43.5t17 -42.5q5 22 10.5 43.5t10.5 41.5h-25.5t-25.5 1z" />
    <glyph glyph-name="percent" unicode="%" horiz-adv-x="343" 
d="M82 7q-3 -7 -6 -7t-5.5 9.5t-5 21.5t-6 21.5t-9.5 9.5q-5 0 -11 -8q-3 -4 5 26t22.5 78.5t32.5 107.5t34.5 113t29 95t15.5 54q5 18 13 49t16 60.5t14.5 50t6.5 16.5q1 -22 20 -22q15 0 33.5 8.5t28.5 8.5q6 0 5 -8q-4 -24 -20.5 -78.5t-39 -124t-49 -146t-51 -144.5
t-44 -119.5t-29.5 -71.5zM69 655q0 20 12 32t32 12t32 -12t12 -32t-12 -32t-32 -12t-32 12t-12 32zM169 44q0 20 12 32t32 12t32 -12t12 -32t-12 -32t-32 -12t-32 12t-12 32z" />
    <glyph glyph-name="ampersand" unicode="&#x26;" horiz-adv-x="594" 
d="M551 78q6 0 6 -4t-5 -8t-11.5 -9t-11.5 -11.5t-5 -14.5q0 -13 17 -19q2 0 2 -2q0 -3 -10 -7.5t-26 -4.5q-52 0 -94 13.5t-75 38.5q-33 -25 -70.5 -38.5t-77.5 -13.5q-24 0 -50 7.5t-47 23t-34.5 40t-13.5 58.5q0 32 12.5 64.5t32.5 65t46 65t53 63.5q-3 39 -3 78
q0 29 6 70t20.5 79.5t39 65.5t61.5 27q21 0 39.5 -9t32.5 -23.5t22 -33.5t8 -39q0 -28 -15.5 -60t-40 -67t-55 -72t-60.5 -75q14 -51 39 -95.5t62 -77.5q26 51 42.5 111.5t27.5 117.5q2 6 4 6q4 0 10 -5t13 -11.5t15 -11.5t16 -5q13 0 19 17q0 2 2 2q3 0 8.5 -10t3.5 -26
q-9 -61 -35.5 -119.5t-66.5 -106.5q63 -34 147 -34zM190 38q33 0 60 12.5t49 35.5q-35 38 -57.5 87t-35.5 104q-36 -48 -60.5 -93t-24.5 -84q0 -25 14 -43.5t55 -18.5zM226 463v-17.5t1 -17.5q23 26 43 51.5t36 50t25 47.5t9 44q0 12 -5.5 28t-25.5 16q-24 0 -39.5 -24.5
t-25.5 -57.5t-14 -67t-4 -53z" />
    <glyph glyph-name="quotesingle" unicode="'" horiz-adv-x="182" 
d="M120 367q-3 -8 -6 -8q-4 0 -8.5 8.5t-10 19t-12 19t-12.5 8.5t-12 -10l-2 -2q-2 0 -1 17t3 41t5 50.5t4 45.5q1 18 2 34.5t2 28.5t1.5 17.5t1.5 2.5q2 -11 7.5 -14.5t11.5 -3.5q8 0 17 4t18 9.5t17 9.5t12 4q5 0 5 -7q0 -73 -12.5 -141.5t-30.5 -132.5z" />
    <glyph glyph-name="parenleft" unicode="(" horiz-adv-x="459" 
d="M438 705q10 0 15 -6t5 -14t-5 -14t-15 -6q-43 0 -81.5 -22.5t-71 -61.5t-58.5 -90.5t-44.5 -109.5t-28 -118t-9.5 -117q0 -54 9 -101t28.5 -82t49.5 -55.5t72 -20.5q11 0 17 -6t6 -14t-6 -14t-17 -6q-67 0 -115.5 25.5t-79.5 68.5t-45.5 100.5t-14.5 121.5q0 61 12.5 125
t36.5 124.5t58 113.5t77.5 93t95 63t109.5 23z" />
    <glyph glyph-name="parenright" unicode=")" horiz-adv-x="406" 
d="M-35 -153q-10 0 -15 6t-5 14t5 14t15 6q43 0 81.5 22.5t71 61.5t58.5 90.5t44.5 109.5t28 118.5t9.5 116.5q0 54 -9 101t-28.5 82t-49.5 55.5t-72 20.5q-11 0 -17 6t-6 14t6 14t17 6q67 0 115.5 -25.5t79.5 -68.5t45.5 -100.5t14.5 -121.5q0 -61 -12.5 -125t-36.5 -124.5
t-58 -113.5t-77.5 -93t-95 -63t-109.5 -23z" />
    <glyph glyph-name="asterisk" unicode="*" horiz-adv-x="337" 
d="M86 224q-2 -2 -6 -2t-3.5 8t1.5 17.5t0.5 17.5t-7.5 8q-1 0 -7 -2q-5 -3 12 15t43 45q-23 24 -42 46t-31 39q-6 10 6 10q6 0 14 -1.5t16 -1.5t12 3t-1 12q-2 4 8.5 -5.5t27.5 -26.5q1 21 1.5 36.5t1.5 13.5q4 -14 14 -14q6 0 12.5 3t12.5 7t11.5 7t8.5 3q4 0 4 -5v-39
q14 18 24.5 31t8.5 9q-5 -14 4.5 -19t22 -6t22 -2t4.5 -8q-18 -23 -37 -45.5t-38 -42.5q13 -13 28 -23q20 -16 35.5 -28t10.5 -11q-6 2 -9 2q-9 0 -12 -8.5t-4 -19t-1.5 -19.5t-4.5 -9q-2 0 -4 2l-28 22t-27 22q-2 -20 -4.5 -37.5t-6.5 -31.5q-1 -6 -4 -6t-6.5 6.5t-8 14
t-8.5 13.5t-9 6q-4 0 -8 -7q-2 -5 -4 6t-3 29q-12 -11 -22.5 -19t-19.5 -15z" />
    <glyph glyph-name="plus" unicode="+" horiz-adv-x="434" 
d="M250 15q-1 -9 -6 -9q-4 0 -10 7t-13 16t-14 16t-13 7q-7 0 -11 -12q-1 -4 -2 3.5t-1.5 24t-0.5 39t-1 48.5q-95 0 -156 11q-15 3 -6.5 11t21.5 18.5t20.5 21t-10.5 16.5q-4 1 5 1.5t27 1t42.5 1t52.5 1.5q-1 17 -2.5 33.5t-3.5 31.5q-3 18 -5 34t-3 28t-0.5 18t1.5 3
q7 -15 19 -15q8 0 17.5 6t18 13t15.5 13t11 6t5 -6q5 -41 8 -81t5 -79l26 2t24 3q26 4 48 6.5t31 2.5q8 0 4 -2q-13 -6 -14.5 -14t3 -17.5t12.5 -18.5t14 -17t8 -13t-6 -6q-38 -5 -75.5 -8t-73.5 -5q-1 -42 -3.5 -78t-7.5 -63z" />
    <glyph glyph-name="comma" unicode="," horiz-adv-x="220" 
d="M120 -183q-3 -8 -6 -8q-4 0 -8.5 8.5t-10 19t-12 19t-12.5 8.5t-12 -10l-2 -2q-2 0 -1 17t3 41t5 50.5t4 45.5q1 18 2 34.5t2 28.5t1.5 17.5t1.5 2.5q2 -11 7.5 -14.5t11.5 -3.5q8 0 17 4t18 9.5t17 9.5t12 4q5 0 5 -7q0 -73 -12.5 -141.5t-30.5 -132.5z" />
    <glyph glyph-name="hyphen" unicode="-" horiz-adv-x="534" 
d="M65 166q-15 3 -6.5 11t21.5 18.5t20.5 21t-10.5 16.5q-7 2 19 3t67.5 1.5t90 3t86.5 7.5q26 4 48 6.5t31 2.5q8 0 4 -2q-13 -6 -14.5 -14t3 -17.5t12.5 -18.5t14 -17t8 -13t-6 -6q-57 -8 -113 -11t-107 -3t-93.5 3t-74.5 8z" />
    <glyph glyph-name="period" unicode="." horiz-adv-x="142" 
d="M29 44q0 20 12 32t32 12t32 -12t12 -32t-12 -32t-32 -12t-32 12t-12 32z" />
    <glyph glyph-name="slash" unicode="/" horiz-adv-x="282" 
d="M67 -33q-3 -7 -6 -7t-5.5 9.5t-5 21.5t-6 21.5t-9.5 9.5q-5 0 -11 -8q-3 -4 3.5 29t18.5 85.5t27.5 116.5t29.5 122t25 102t14 57q5 18 11.5 48t13 58t11.5 47t5 15q1 -22 20 -22q15 0 33.5 8.5t28.5 8.5q6 0 5 -8q-3 -18 -12 -55t-21.5 -86t-28 -106.5t-32 -116
t-33 -115t-31 -104t-26.5 -82t-19 -49.5z" />
    <glyph glyph-name="zero" unicode="0" horiz-adv-x="648" 
d="M65 268q0 48 10.5 99t30.5 99.5t49 92.5t66.5 76.5t82.5 52t97 19.5q57 0 98.5 -22t68.5 -58.5t40 -85.5t13 -103q0 -50 -10.5 -102t-30.5 -100.5t-48.5 -91.5t-65.5 -75t-81 -50.5t-95 -18.5q-57 0 -99.5 21t-70.5 57.5t-41.5 85.5t-13.5 104zM539 441q0 46 -8 87
t-24.5 72t-42 49t-59.5 18q-35 0 -65.5 -15t-56 -40.5t-46 -59t-36.5 -71.5q-6 -30 -4.5 -58.5t12 -50.5t29.5 -35t48 -13q20 0 38.5 10.5t32.5 34t23 61.5t9 93q0 5 3 5t9 -4t13.5 -9.5t15 -9.5t14.5 -4q10 0 16 14q0 2 1 2q2 0 6 -8t4 -22q0 -51 -15.5 -88t-40 -61
t-55.5 -35.5t-63 -11.5q-48 0 -81.5 15.5t-53.5 41.5q-9 -52 -9 -95q0 -35 6 -73t21.5 -69t42 -51t67.5 -20q59 0 105.5 37.5t78.5 95.5t48.5 129.5t16.5 138.5z" />
    <glyph glyph-name="one" unicode="1" horiz-adv-x="193" 
d="M71 1q-3 -11 -8 -11t-12 11t-15 11t-16 -14q-2 -3 0 19t5.5 61t9 90.5t11.5 107t12 110t11 100t8.5 78t4.5 42.5q1 18 1.5 34.5t1 28.5t0.5 17.5t1 2.5q2 -11 7.5 -14.5t13.5 -3.5q9 0 19 4t20 9.5t18.5 9.5t13.5 4q6 0 6 -7q0 -24 -6.5 -79t-17.5 -124.5t-23.5 -146
t-25.5 -145t-23.5 -121.5t-16.5 -74z" />
    <glyph glyph-name="two" unicode="2" horiz-adv-x="589" 
d="M312 650q-28 0 -47.5 -14t-30.5 -37.5t-16 -53t-5 -61.5q0 -6 -4 -6t-11.5 5t-16 11.5t-18 11.5t-17.5 5q-13 0 -19 -17q0 -2 -2 -2q-3 0 -7.5 10t-4.5 26q0 36 15 66t41 51t60 33t71 12q53 0 91 -20t62 -52t35 -71t11 -77q0 -43 -13 -92t-36.5 -98.5t-55.5 -96
t-70 -84.5q20 -26 37.5 -44.5t40.5 -18.5q29 0 45.5 40.5t16.5 137.5q0 6 4 6t11.5 -5t16.5 -11.5t18.5 -11.5t17.5 -5q13 0 19 17q0 2 2 2q3 0 7.5 -10t4.5 -26q0 -39 -14 -70t-38 -53.5t-55.5 -34.5t-67.5 -12q-45 0 -71.5 16t-45.5 39q-38 -29 -78 -45.5t-81 -16.5
q-45 0 -67 23.5t-22 54.5q0 21 9.5 42t27.5 38t45 28t62 11q38 0 65 -13t48 -32q27 39 49 85.5t37.5 95.5t24 96.5t8.5 87.5q0 12 -2 35.5t-10.5 46.5t-26.5 40.5t-50 17.5zM114 33q35 0 67 17.5t61 46.5q-16 22 -34.5 37.5t-47.5 15.5q-21 0 -38.5 -7.5t-30 -19
t-19.5 -25.5t-7 -27q0 -16 11.5 -27t37.5 -11z" />
    <glyph glyph-name="three" unicode="3" horiz-adv-x="579" 
d="M395 240q0 46 -11 79.5t-30 57t-44.5 38t-54.5 21.5q-7 2 -11 7.5t-4 12.5q0 10 7 14l159 159q-20 -2 -42 -2h-45q-53 0 -110.5 3t-114.5 11q-6 1 -6 5t6 11t13 15.5t13 18t6 17.5q0 12 -15 19q-4 2 4 2q9 0 31 -2.5t48 -6.5q33 -5 75 -7t80 -3t67.5 -1.5t38.5 -1.5h43
q17 0 28 -6t16.5 -15t5 -19t-7.5 -17l-204 -206q34 -14 62 -31.5t48.5 -41t31.5 -55t11 -73.5q0 -63 -23.5 -109t-61 -75.5t-84.5 -44t-94 -14.5q-40 0 -76.5 12.5t-64.5 35.5t-45 57t-17 77q0 16 4.5 26t7.5 10q2 0 2 -2q6 -17 19 -17q8 0 17.5 5t18 11.5t16 11.5t11.5 5
t4 -6q0 -48 9.5 -84t26 -60t37.5 -36.5t43 -12.5q28 0 55.5 12.5t50 38t36.5 64.5t14 92z" />
    <glyph glyph-name="four" unicode="4" horiz-adv-x="598" 
d="M23 254q-12 0 -17 10q-6 9 -1 19q1 2 11 20t29 46.5t46.5 64.5t62.5 74q40 43 85.5 80.5t96.5 65.5t107 44.5t117 16.5q8 0 14 -6t6 -14t-6 -14t-14 -6q-40 0 -81 -17.5t-81 -47t-78 -67.5t-71.5 -78t-61.5 -79t-48 -72h249l23 219q1 18 1.5 34.5t1 28.5t0.5 17.5t1 2.5
q2 -11 7.5 -14.5t13.5 -3.5q9 0 19 4t20 9.5t18.5 9.5t13.5 4q6 0 6 -7q0 -24 -5.5 -72t-14.5 -107t-20.5 -124t-22.5 -123t-20.5 -104t-15.5 -67q-3 -11 -8 -11t-12 11t-15 11t-16 -14q-2 -3 -0.5 17.5t4.5 57t7.5 84t9.5 97.5h-361z" />
    <glyph glyph-name="five" unicode="5" horiz-adv-x="588" 
d="M234 40q40 0 72 20.5t54.5 53.5t34.5 74.5t12 83.5q0 32 -5 61t-18.5 51t-37.5 35t-61 13q-41 0 -81 -16.5t-74 -46.5q-7 -5 -13 -5q-12 0 -16 7.5t-4 16.5l44 250q-3 3 1 8l8 44q1 7 6.5 11.5t12.5 4.5h75q21 0 46 1t50.5 2t50.5 3t46 5q26 4 48 6.5t31 2.5q8 0 4 -2
q-13 -6 -14.5 -14t3 -17.5t12.5 -18.5t14 -17t8 -13t-6 -6q-58 -8 -115.5 -11t-110.5 -3h-31.5t-29.5 1l-28 -161q34 8 63 8q48 0 88 -12.5t69 -37.5t45 -62.5t16 -87.5q0 -59 -24.5 -109t-64.5 -86t-91 -56.5t-105 -20.5q-41 0 -76.5 12t-62 33t-42 51t-15.5 66
q0 16 4.5 26t7.5 10q2 0 2 -2q6 -17 19 -17q8 0 17.5 5t18 11.5t16 11.5t11.5 5t4 -6q0 -31 5 -61t17.5 -53.5t34.5 -37.5t55 -14z" />
    <glyph glyph-name="six" unicode="6" horiz-adv-x="556" 
d="M244 40q31 0 55.5 13.5t42 35t27.5 49.5t12 56q2 21 -1 41.5t-12.5 36.5t-26.5 25.5t-43 9.5q-27 0 -51 -10t-45 -25.5t-39.5 -35t-34.5 -38.5q-1 -26 4.5 -54t19 -51t36.5 -38t56 -15zM135 262q36 37 75.5 61t95.5 24q32 0 63 -9t55 -28t37.5 -48t10.5 -69
q-4 -41 -24.5 -76.5t-52.5 -61.5t-72.5 -40.5t-83.5 -14.5q-46 0 -85.5 18.5t-66.5 56.5t-39 97.5t-5 140.5q9 99 40.5 172t76.5 121t99.5 71t108.5 23q78 0 120.5 -42.5t36.5 -112.5q-2 -16 -7 -26t-8 -10q-2 0 -2 2q-4 17 -17 17q-8 0 -18 -5t-19 -11.5t-17 -11.5t-12 -5
t-4 6q8 83 -7.5 121t-47.5 38q-25 0 -58 -22.5t-66 -70.5t-62 -123.5t-45 -181.5z" />
    <glyph glyph-name="seven" unicode="7" horiz-adv-x="474" 
d="M213 -33q-3 -7 -6 -7t-5.5 9.5t-5 21.5t-6 21.5t-9.5 9.5q-5 0 -11 -8q-3 -4 5 29t22.5 85.5t32 116.5t34 122t29 102t15.5 57q4 17 10.5 44.5t14.5 55.5q-19 -1 -39 -1.5t-41 -0.5q-51 0 -105.5 3t-109.5 11q-8 1 -6 6t8 13t14 17t12.5 18.5t3 17.5t-14.5 14q-4 2 4 2
q9 0 31 -2.5t48 -6.5q32 -4 71.5 -6.5t77 -3.5t67 -1.5t41.5 -1.5q9 2 17 3t16 1q9 0 14.5 -2.5t3.5 -10.5q-3 -18 -13 -55.5t-25 -87.5t-33 -108.5t-37 -118.5t-38.5 -118t-36 -106.5t-30 -83.5t-20.5 -50z" />
    <glyph glyph-name="eight" unicode="8" horiz-adv-x="555" 
d="M87 528q0 41 22 74t57.5 56t79 35.5t86.5 12.5q34 0 69.5 -8t64.5 -25t47.5 -43t18.5 -62q0 -35 -15 -64.5t-40.5 -54.5t-59 -47t-69.5 -43q23 -16 43 -34.5t36 -40.5t25 -48.5t9 -59.5q0 -40 -22 -72.5t-57 -55t-78.5 -34.5t-86.5 -12q-34 0 -68.5 8t-62 25t-44.5 43
t-17 62q0 35 15 63.5t40 53.5t57.5 47t68.5 42q-24 17 -45.5 35t-38 40t-26 48.5t-9.5 58.5zM452 568q0 24 -9.5 42.5t-25.5 31t-38 19t-47 6.5q-27 0 -54 -8t-48.5 -25t-34.5 -43t-13 -62q0 -22 9 -40t24.5 -34t36 -30.5t42.5 -29.5q32 18 60.5 37.5t50.5 40.5t34.5 44.5
t12.5 50.5zM366 178q0 21 -8.5 39t-23 33.5t-33.5 30t-40 28.5q-32 -18 -60.5 -36.5t-49.5 -39t-33.5 -43.5t-12.5 -50q0 -48 29.5 -73.5t79.5 -25.5q28 0 55 8.5t48.5 25.5t35 42.5t13.5 60.5z" />
    <glyph glyph-name="nine" unicode="9" horiz-adv-x="558" 
d="M312 660q-31 0 -55.5 -13.5t-42 -35t-27.5 -49t-12 -56.5q-2 -21 1 -41.5t12.5 -36.5t26.5 -25.5t43 -9.5q27 0 51 10t45 25.5t39.5 35t34.5 38.5q2 26 -4 54t-19.5 51t-36.5 38t-56 15zM421 438q-36 -37 -75.5 -61t-95.5 -24q-32 0 -63 9t-55 28t-37.5 48t-10.5 69
q4 41 24.5 76.5t53.5 61.5t75.5 40.5t88.5 14.5q43 0 80.5 -14.5t64 -48t39 -89t5.5 -137.5q-9 -100 -41 -176.5t-78 -128.5t-101.5 -79t-111.5 -27q-37 0 -66.5 11t-49.5 31.5t-29.5 49t-6.5 63.5q2 16 7 26t8 10q2 0 2 -2q4 -17 17 -17q8 0 18 5t19 11.5t17 11.5t12 5
t4 -6q-8 -83 7.5 -121t47.5 -38q25 0 58 22.5t66 70.5t62 123.5t45 181.5z" />
    <glyph glyph-name="colon" unicode=":" horiz-adv-x="228" 
d="M70 44q0 20 12 32t32 12t32 -12t12 -32t-12 -32t-32 -12t-32 12t-12 32zM71 344q0 20 12 32t32 12t32 -12t12 -32t-12 -32t-32 -12t-32 12t-12 32z" />
    <glyph glyph-name="semicolon" unicode=";" horiz-adv-x="268" 
d="M120 -183q-3 -8 -6 -8q-4 0 -8.5 8.5t-10 19t-12 19t-12.5 8.5t-12 -10l-2 -2q-2 0 -1 17t3 41t5 50.5t4 45.5q1 18 2 34.5t2 28.5t1.5 17.5t1.5 2.5q2 -11 7.5 -14.5t11.5 -3.5q8 0 17 4t18 9.5t17 9.5t12 4q5 0 5 -7q0 -73 -12.5 -141.5t-30.5 -132.5zM70 344
q0 20 12 32t32 12t32 -12t12 -32t-12 -32t-32 -12t-32 12t-12 32z" />
    <glyph glyph-name="less" unicode="&#x3c;" horiz-adv-x="538" 
d="M507 302q-28 -4 -72.5 -16.5t-96.5 -26t-108 -23.5t-109 -10q-25 0 -49 3l7 9t16 24.5t17 35.5t10 42t-5 44t-28 41q-3 3 5 3q10 0 31.5 -3t46.5 -7q26 -3 60 -10t70 -15.5t70 -17t60 -16.5t40.5 -13.5t9.5 -6.5q-18 -6 -10.5 -12t20.5 -10.5t21.5 -8t-6.5 -6.5z" />
    <glyph glyph-name="equal" unicode="=" horiz-adv-x="542" 
d="M71 166q-15 3 -6.5 11t21.5 18.5t20.5 21t-10.5 16.5q-7 2 19 3t67.5 1.5t90 3t86.5 7.5q26 4 48 6.5t31 2.5q8 0 4 -2q-13 -6 -14.5 -14t3 -17.5t12.5 -18.5t14 -17t8 -13t-6 -6q-57 -8 -113 -11t-107 -3t-93.5 3t-74.5 8zM71 286q-15 3 -6.5 11t21.5 18.5t20.5 21
t-10.5 16.5q-7 2 19 3t67.5 1.5t90 3t86.5 7.5q26 4 48 6.5t31 2.5q8 0 4 -2q-13 -6 -14.5 -14t3 -17.5t12.5 -18.5t14 -17t8 -13t-6 -6q-57 -8 -113 -11t-107 -3t-93.5 3t-74.5 8z" />
    <glyph glyph-name="greater" unicode="&#x3e;" horiz-adv-x="539" 
d="M31 302q-15 3 -6.5 6.5t21.5 8t20.5 10.5t-10.5 12q-4 2 10 7t40 13t60 16.5t70 17t70.5 15t59.5 10.5t46.5 7t31.5 3q8 0 5 -3q-31 -29 -32.5 -63t10 -63.5t25.5 -49.5l14 -20q-24 -3 -49 -3q-52 0 -108.5 10t-108.5 23.5t-96 26t-73 16.5z" />
    <glyph glyph-name="question" unicode="?" horiz-adv-x="475" 
d="M144 44q0 20 12 32t32 12t32 -12t12 -32t-12 -32t-32 -12t-32 12t-12 32zM209 139q0 -9 -5.5 -13.5t-12.5 -4.5q-8 0 -13.5 4.5t-5.5 13.5q0 34 13.5 67t33.5 65t44 64t44 65.5t33.5 68.5t13.5 73q0 10 -2 29.5t-10.5 39t-26.5 34.5t-50 15q-28 0 -47.5 -14t-30.5 -37.5
t-16 -53t-5 -61.5q0 -6 -4 -6t-11.5 5t-16 11.5t-18 11.5t-17.5 5q-13 0 -19 -17q0 -2 -2 -2q-3 0 -7.5 10t-4.5 26q0 36 15 66t41 51t60 33t71 12q53 0 91 -16.5t62 -42t35 -57t11 -61.5q0 -37 -18 -74.5t-45 -73.5t-58.5 -70t-58.5 -64t-45 -56t-18 -46z" />
    <glyph glyph-name="at" unicode="@" horiz-adv-x="777" 
d="M713 322q0 -71 -28.5 -146t-80 -136.5t-122 -100.5t-154.5 -39q-67 0 -116.5 22.5t-82 60t-48.5 87t-16 103.5q0 69 25 138.5t74 125.5t121 91t165 35q70 0 119.5 -19.5t81.5 -52.5t47 -76.5t15 -92.5zM153 158q0 -44 10.5 -83.5t31.5 -69.5t53.5 -47.5t75.5 -17.5
q54 0 100 22.5t84 60.5q-26 9 -37.5 41t-13.5 77q-8 -20 -20 -41.5t-28 -39t-37 -29t-48 -11.5t-50 12t-39.5 33t-26 50.5t-9.5 63.5q0 44 15.5 89.5t42.5 82.5t65 60t83 23q26 0 45.5 -8.5t31.5 -22.5q2 7 3 13l2 12q2 6 5 6q4 0 12 -6.5t17 -14.5t19 -14.5t19 -6.5
q11 0 18 14q1 2 1 -1q0 -7 -4 -30.5t-9 -52.5q-6 -29 -13.5 -62.5t-14.5 -66t-12 -61t-5 -46.5q0 -25 9 -25q2 0 7 4t13 14t19 27.5t26 45.5q18 42 28 85.5t10 85.5q0 41 -10.5 77t-32 63t-55.5 43t-82 16q-72 0 -127.5 -33.5t-94 -86.5t-58 -117.5t-19.5 -126.5zM289 147
q0 -12 2 -27t7.5 -28.5t14.5 -22.5t23 -9q20 0 36.5 17.5t30 45t24 61t18.5 64.5t12.5 56.5t6.5 37.5q0 22 -12 37t-35 15q-21 0 -39 -13.5t-32 -35t-25 -49t-18 -55t-10.5 -52.5t-3.5 -42z" />
    <glyph glyph-name="A" unicode="A" horiz-adv-x="1083" 
d="M0 506q0 49 16 83.5t43 58t63 37t75.5 20.5t81 9t78.5 2q102 0 203 -3t203 -3h8q65 0 106.5 -19.5t65.5 -54t33 -81t9 -99.5q0 -47 -5 -96.5t-12 -100.5q26 5 43.5 7t12.5 0q-14 -7 -14 -18q0 -9 6.5 -18t14.5 -17.5t14.5 -15.5t6.5 -11q0 -3 -6 -5q-30 -6 -92 -11
q-10 -61 -17.5 -115.5t-7.5 -96.5q0 -51 15 -79.5t54 -28.5q6 0 6 -4t-5 -11.5t-11.5 -16t-11.5 -18t-5 -17.5q0 -13 17 -19q2 0 2 -2q0 -3 -10 -7.5t-26 -4.5q-35 0 -58.5 12.5t-37.5 35t-20 54.5t-6 71q0 52 7.5 112.5t17.5 126.5q-31 -2 -63 -4t-62 -4t-56.5 -3t-47.5 -2
q-16 -73 -41 -145t-65 -128t-97 -91t-136 -35q-46 0 -91 12.5t-81 36t-58.5 57.5t-22.5 78q0 40 18.5 72t48.5 55t67.5 35.5t75.5 12.5t71.5 -12t59.5 -33t41 -51t15 -66q0 -16 -4.5 -26t-7.5 -10q-2 0 -2 2q-6 17 -19 17q-8 0 -17.5 -5t-18 -11.5t-16 -11.5t-11.5 -5t-4 6
q0 31 -5 61t-16 53.5t-30 37.5t-48 14q-20 0 -41 -7.5t-38 -23t-28 -39t-11 -56.5q0 -30 10.5 -57.5t31.5 -49t52.5 -34t73.5 -12.5q73 0 117 36.5t69.5 91.5t37.5 118.5t21 117.5q-36 6 -58 22t-22 45q0 11 6.5 16t14.5 5t14 -4.5t6 -14.5q0 -9 25 -9h24q7 45 18 109
t28.5 129t41.5 124t58 94q-82 2 -163.5 4t-163.5 2q-46 0 -95.5 -3t-90 -19t-66.5 -50.5t-26 -97.5q0 -27 9.5 -50t25 -40.5t35.5 -27.5t41 -10q22 0 43.5 13t39 41.5t28 75.5t10.5 114q0 6 4 6t11.5 -5t16 -11.5t18 -11.5t17.5 -5q13 0 19 17q0 2 2 2q3 0 7.5 -10t4.5 -26
q0 -62 -19 -106.5t-49.5 -73t-69.5 -42t-79 -13.5q-37 0 -72 11t-62.5 32t-44 51.5t-16.5 68.5zM763 670q-2 0 -3.5 -0.5t-3.5 -0.5q-27 -5 -43 -44.5t-27.5 -101.5t-21 -140.5t-23.5 -161.5q56 5 118 11t111 12q11 66 18.5 129.5t7.5 120.5q0 38 -5 70t-19 55.5t-38 37
t-63 13.5h-8z" />
    <glyph glyph-name="B" unicode="B" horiz-adv-x="1098" 
d="M935 13q0 51 -16 94t-47 72q-29 -17 -59.5 -26t-62.5 -9q-15 0 -30 3t-27 10.5t-20 19t-8 29.5q0 23 19.5 42t57.5 19q67 0 127 -24q21 23 38 52.5t28 61t17 63.5t6 60q0 71 -26 120.5t-71 80.5t-106 45.5t-130 14.5q-57 0 -119 -9.5t-121.5 -28t-113 -47t-94 -67
t-64 -87t-23.5 -107.5q0 -39 10 -66t26.5 -44.5t37 -25t41.5 -7.5q58 0 87.5 64.5t29.5 177.5q0 6 4 6t11.5 -5t16.5 -11.5t18.5 -11.5t17.5 -5q13 0 19 17q0 2 2 2q3 0 7.5 -10t4.5 -26q0 -45 -14.5 -87.5t-42.5 -76t-68.5 -54t-92.5 -20.5q-36 0 -70.5 14t-62.5 40.5
t-45 65t-17 88.5q0 62 27 112.5t73 89.5t107 68t129.5 47.5t140.5 27.5t139 9q89 0 168 -16t137.5 -51t92.5 -90t34 -133q0 -36 -10 -73t-28 -72t-43 -66.5t-55 -57.5q51 -33 82 -84.5t31 -120.5q0 -65 -23 -113.5t-62 -81t-90 -49t-107 -16.5q-48 0 -87.5 12.5t-67.5 37.5
t-43.5 63t-15.5 89q0 16 4.5 26t7.5 10q2 0 2 -2q6 -17 19 -17q8 0 17.5 5t18.5 11.5t16.5 11.5t11.5 5t4 -6q0 -113 28 -159.5t85 -46.5q37 0 70 16.5t58 46t39.5 70.5t14.5 90zM297 -97q0 31 -5 61t-16 53.5t-30 37.5t-48 14q-20 0 -41 -7.5t-38 -23t-28 -39t-11 -56.5
q0 -30 10.5 -57.5t31.5 -49t52.5 -34t73.5 -12.5q51 0 87 18.5t61.5 48.5t42 69.5t27 82t17.5 84.5l13 78q5 28 12.5 76t19 103.5t28.5 112t41 102.5t55.5 75t71.5 29q8 0 14 -6t6 -14t-6 -14t-14 -6q-24 0 -42 -26.5t-30 -68t-20 -92t-13.5 -98t-9 -86t-6.5 -56.5
q-14 -79 -38 -159.5t-64.5 -145.5t-101 -106t-146.5 -41q-46 0 -91 12.5t-81 36t-58.5 57.5t-22.5 78q0 40 18.5 72t48.5 55t67.5 35.5t75.5 12.5t71.5 -12t59.5 -33t41 -51t15 -66q0 -16 -4.5 -26t-7.5 -10q-2 0 -2 2q-6 17 -19 17q-8 0 -17.5 -5t-18 -11.5t-16 -11.5
t-11.5 -5t-4 6zM745 184q23 0 43.5 6.5t39.5 17.5q-40 19 -86 19q-18 0 -27.5 -6.5t-9.5 -14.5t9.5 -15t30.5 -7z" />
    <glyph glyph-name="C" unicode="C" 
d="M423 577q35 0 70 -1t70 -3q30 42 66 77.5t77 61t86.5 39.5t96.5 14q27 0 56 -5.5t53 -19t39 -35.5t15 -55q0 -31 -14 -52t-36.5 -35t-51 -21.5t-58 -11.5t-57.5 -4.5t-50 -0.5q-39 0 -78 1t-78 3q-31 -54 -54 -115t-38 -121t-22.5 -115t-7.5 -97q0 -29 2.5 -62t9.5 -65.5
t20 -63t34 -53.5t51.5 -36.5t71.5 -13.5q59 0 97.5 27.5t61 72t31.5 100.5t9 112q0 6 4 6t11.5 -5t16.5 -11.5t18.5 -11.5t17.5 -5q13 0 19 17q0 2 2 2q3 0 7.5 -10t4.5 -26q0 -45 -19.5 -98.5t-58.5 -100t-98 -78t-138 -31.5q-78 0 -130.5 31t-84.5 82t-45.5 115.5
t-13.5 130.5q0 48 8.5 102t25 109.5t40.5 111t55 105.5q-29 1 -57 2t-56 1q-30 0 -67 -1t-75 -6t-74.5 -15t-65 -28.5t-45.5 -47t-17 -70.5q0 -33 10 -56.5t26.5 -39t37 -23t41.5 -7.5q58 0 87.5 64.5t29.5 177.5q0 6 4 6t11.5 -5t16.5 -11.5t18.5 -11.5t17.5 -5q13 0 19 17
q0 2 2 2q3 0 7.5 -10t4.5 -26q0 -45 -14.5 -87.5t-42.5 -76t-68.5 -54t-92.5 -20.5q-36 0 -70.5 13t-62.5 35.5t-45 53t-17 64.5q0 49 21 83t56 57.5t79.5 37t91.5 20t93 8.5t82 2zM891 725q-37 0 -70 -11.5t-63 -32.5t-56 -49.5t-49 -62.5q75 -3 151 -3q24 0 55 1.5
t58.5 10t46 25.5t18.5 47q0 23 -7.5 37.5t-20.5 22.5t-29 11.5t-34 3.5z" />
    <glyph glyph-name="D" unicode="D" horiz-adv-x="1167" 
d="M297 -97q0 31 -5 61t-16 53.5t-30 37.5t-48 14q-20 0 -41 -7.5t-38 -23t-28 -39t-11 -56.5q0 -30 10.5 -57.5t31.5 -49t52.5 -34t73.5 -12.5q51 0 87 18.5t61.5 48.5t42 69.5t27 82t17.5 84.5l13 78q5 28 12.5 76t19 103.5t28.5 112t41 102.5t55.5 75t71.5 29q8 0 14 -6
t6 -14t-6 -14t-14 -6q-24 0 -42 -26.5t-30 -68t-20 -92t-13.5 -98t-9 -86t-6.5 -56.5q-14 -79 -38 -159.5t-64.5 -145.5t-101 -106t-146.5 -41q-46 0 -91 12.5t-81 36t-58.5 57.5t-22.5 78q0 40 18.5 72t48.5 55t67.5 35.5t75.5 12.5t71.5 -12t59.5 -33t41 -51t15 -66
q0 -16 -4.5 -26t-7.5 -10q-2 0 -2 2q-6 17 -19 17q-8 0 -17.5 -5t-18 -11.5t-16 -11.5t-11.5 -5t-4 6zM640 -4q0 -100 24.5 -152.5t85.5 -52.5q54 0 99 40t77.5 105t50.5 149t18 172q0 90 -21 177t-68.5 155t-124 110t-187.5 42q-50 0 -106.5 -9.5t-112.5 -28t-108 -47
t-91.5 -67t-63 -87t-23.5 -107.5q0 -39 10 -66t26.5 -44.5t37 -25t41.5 -7.5q58 0 87.5 64.5t29.5 177.5q0 6 4 6t11.5 -5t16.5 -11.5t18.5 -11.5t17.5 -5q13 0 19 17q0 2 2 2q3 0 7.5 -10t4.5 -26q0 -45 -14.5 -87.5t-42.5 -76t-68.5 -54t-92.5 -20.5q-36 0 -70.5 14
t-62.5 40.5t-45 65t-17 88.5q0 62 27 112.5t71.5 89.5t103.5 68t123 47.5t129 27.5t122 9q135 0 231.5 -46t158.5 -121t91 -170t29 -193q0 -62 -11 -123t-32.5 -116t-52 -101.5t-70 -81t-86.5 -53.5t-101 -19q-48 0 -85.5 15t-64 42t-40 64t-13.5 81q0 16 4.5 26t7.5 10
q2 0 2 -2q6 -17 19 -17q8 0 17.5 5t18.5 11.5t16.5 11.5t11.5 5t4 -6z" />
    <glyph glyph-name="E" unicode="E" 
d="M666 -251q-58 0 -111 16.5t-93.5 48.5t-64.5 80.5t-24 112.5q0 46 12.5 88.5t35 79t53.5 67t67 51.5q-16 30 -24 65.5t-8 73.5q0 53 16 104q-26 1 -51 1.5t-50 0.5q-30 0 -67 -1t-75 -5.5t-74.5 -15t-65 -29t-45.5 -47t-17 -70.5q0 -33 10 -56.5t26.5 -39t37 -23
t41.5 -7.5q58 0 87.5 64.5t29.5 177.5q0 6 4 6t11.5 -5t16.5 -11.5t18.5 -11.5t17.5 -5q13 0 19 17q0 2 2 2q3 0 7.5 -10t4.5 -26q0 -45 -14.5 -87.5t-42.5 -76t-68.5 -54t-92.5 -20.5q-36 0 -70.5 13t-62.5 35.5t-45 53t-17 64.5q0 49 21 83t56 57.5t79.5 37t91.5 20
t93 8.5t82 2q58 0 116 -3q18 40 47 75t70 61.5t93.5 41.5t118.5 15q38 0 71.5 -7.5t58.5 -22.5t39.5 -36.5t14.5 -50.5q0 -31 -14 -52t-36.5 -35t-51 -21.5t-58 -11.5t-57.5 -4.5t-50 -0.5q-42 0 -83.5 1.5t-83.5 3.5q-18 -58 -18 -119q0 -47 11 -88q44 14 86 14
q17 0 35.5 -3t33.5 -11.5t25 -22t10 -34.5q0 -28 -25.5 -52.5t-74.5 -24.5q-40 0 -71.5 14.5t-55.5 40.5q-24 -21 -44 -49t-33.5 -59t-21 -63.5t-7.5 -64.5q0 -36 11 -75t35.5 -71t64 -53t97.5 -21q66 0 108.5 27.5t67 72t33.5 100.5t9 112q0 6 4 6t11.5 -5t16.5 -11.5
t18.5 -11.5t17.5 -5q13 0 19 17q0 2 2 2q3 0 7.5 -10t4.5 -26q0 -45 -19.5 -98.5t-60 -100t-102.5 -78t-147 -31.5zM863 730q-44 0 -80.5 -12.5t-65 -34t-49.5 -50.5t-36 -62q39 -2 78 -3t78 -1h16q24 0 55 1.5t58.5 10t46 25.5t18.5 47q0 37 -34 58t-85 21zM701 298
q-20 0 -38 -4.5t-35 -12.5q13 -24 31.5 -37.5t41.5 -13.5q32 0 46 13t14 24q0 10 -7 16t-16.5 9.5t-19.5 4.5t-17 1z" />
    <glyph glyph-name="F" unicode="F" horiz-adv-x="837" 
d="M380 221q0 11 6.5 16t14.5 5t14 -4.5t6 -14.5q0 -9 25 -9q17 0 41 3.5t53 8.5q6 37 15 84.5t21.5 96.5t29.5 96t39.5 84t50.5 59.5t64 22.5q8 0 14 -6t6 -14t-6 -14t-14 -6q-21 0 -37 -20t-28 -52.5t-20.5 -74t-14 -84t-9.5 -82.5l-7 -70l38 8q18 3 34 6t28 5t18 2.5
t3 -1.5q-14 -7 -14 -18q0 -9 6.5 -18t14.5 -17.5t14.5 -15.5t6.5 -11q0 -3 -6 -5q-35 -7 -75 -14t-82 -12q-16 -74 -41 -146.5t-65 -130t-97.5 -93t-137.5 -35.5q-46 0 -91 12.5t-81 36t-58.5 57.5t-22.5 78q0 40 18.5 72t48.5 55t67.5 35.5t75.5 12.5t71.5 -12t59.5 -33
t41 -51t15 -66q0 -16 -4.5 -26t-7.5 -10q-2 0 -2 2q-6 17 -19 17q-8 0 -17.5 -5t-18 -11.5t-16 -11.5t-11.5 -5t-4 6q0 31 -5 61t-16 53.5t-30 37.5t-48 14q-20 0 -41 -7.5t-38 -23t-28 -39t-11 -56.5q0 -30 10.5 -57.5t31.5 -49t52.5 -34t73.5 -12.5q48 0 83.5 16.5
t60.5 44.5t41.5 64.5t27.5 76.5t18 80.5t13 76.5h-1q-31 0 -58 3.5t-46.5 12t-31 22t-11.5 34.5zM312 622q0 6 4 6t11.5 -5t16 -11.5t18 -11.5t17.5 -5q13 0 19 17q0 2 2 2q3 0 7.5 -10t4.5 -26q0 -62 -19 -106.5t-49.5 -73t-69.5 -42t-79 -13.5q-37 0 -72 11t-62.5 32
t-44 51.5t-16.5 68.5q0 49 19.5 83.5t52.5 58t75.5 37t87.5 20.5t90 9t82 2q68 0 135 -3q65 -3 124 -3q88 0 130 31.5t42 108.5q0 6 4 6t11.5 -5t16 -11.5t18 -11.5t17.5 -5q13 0 19 17q0 2 2 2q3 0 7.5 -10t4.5 -26q0 -19 -10 -42.5t-39.5 -44.5t-83 -35t-139.5 -14
q-59 0 -125 3t-133 3q-31 0 -67.5 -1t-73 -6t-70 -15t-60 -29t-42 -48t-15.5 -71q0 -27 9.5 -50t25 -40.5t35.5 -27.5t41 -10q22 0 43.5 13t39 41.5t28 75.5t10.5 114z" />
    <glyph glyph-name="G" unicode="G" horiz-adv-x="1121" 
d="M725 -97q0 31 -5 61t-16 53.5t-30 37.5t-48 14q-20 0 -41 -7.5t-38 -23t-28 -39t-11 -56.5q0 -30 10.5 -57.5t31.5 -49t52.5 -34t73.5 -12.5q51 0 87 18.5t61.5 48.5t42 69.5t27 82t17.5 84.5l13 78l8 52q-72 -86 -181 -86q-52 0 -93 19t-69 51t-42.5 75t-14.5 91
q0 42 10.5 82.5t29.5 78.5q-29 1 -57.5 2t-57.5 1q-30 0 -67 -1t-75 -6t-74.5 -15t-65 -28.5t-45.5 -47t-17 -70.5q0 -33 10 -56.5t26.5 -39t37 -23t41.5 -7.5q58 0 87.5 64.5t29.5 177.5q0 6 4 6t11.5 -5t16.5 -11.5t18.5 -11.5t17.5 -5q13 0 19 17q0 2 2 2q3 0 7.5 -10
t4.5 -26q0 -45 -14.5 -87.5t-42.5 -76t-68.5 -54t-92.5 -20.5q-36 0 -70.5 13t-62.5 35.5t-45 53t-17 64.5q0 49 21 83t56 57.5t79.5 37t91.5 20t93 8.5t82 2q35 0 70 -1t70 -3q27 42 63.5 77t79 60.5t89 40t94.5 14.5q27 0 56 -5.5t53 -19t39 -35.5t15 -55v-4q13 11 27 17
t30 6q8 0 14 -6t6 -14t-6 -14t-14 -6q-19 0 -34 -26.5t-26.5 -68t-19.5 -92t-14 -98t-10 -86t-7 -56.5q-14 -79 -38 -159.5t-64.5 -145.5t-101 -106t-146.5 -41q-46 0 -91 12.5t-81 36t-58.5 57.5t-22.5 78q0 40 18.5 72t48.5 55t67.5 35.5t75.5 12.5t71.5 -12t59.5 -33
t41 -51t15 -66q0 -16 -4.5 -26t-7.5 -10q-2 0 -2 2q-6 17 -19 17q-8 0 -17.5 -5t-18 -11.5t-16 -11.5t-11.5 -5t-4 6zM745 177q44 0 77.5 13t59 36t44 55t31.5 69q12 53 28 107t37 99q-22 -11 -49.5 -17.5t-55 -9.5t-53.5 -3.5t-46 -0.5q-36 0 -72.5 1t-72.5 3
q-21 -47 -31.5 -97t-10.5 -98q0 -28 4.5 -56.5t17.5 -50.5t35 -36t57 -14zM924 725q-38 0 -72 -12t-63 -33t-53 -49.5t-43 -61.5q72 -3 144 -3q24 0 55 1.5t58.5 10t46 25.5t18.5 47q0 23 -7.5 37.5t-20.5 22.5t-29 11.5t-34 3.5z" />
    <glyph glyph-name="H" unicode="H" horiz-adv-x="1210" 
d="M53 506q0 49 16 83.5t43 58t63 37t75.5 20.5t81 9t78.5 2q102 0 203 -3t203 -3h4q8 0 14 -6t6 -14t-6 -14t-14 -6h-7q-2 0 -2.5 -0.5t-1.5 -0.5q-27 -5 -43.5 -44.5t-27.5 -102t-20.5 -141t-23.5 -161.5q33 2 70.5 5l75 6t73.5 6.5t66 6.5q15 79 37 162.5t52 152
t68.5 112.5t85.5 44q8 0 14 -6t6 -14t-6 -14t-15 -6q-23 0 -43.5 -37.5t-38.5 -97.5t-33 -134t-26 -147q27 5 44.5 7t12.5 0q-14 -7 -14 -18q0 -9 6.5 -18t14.5 -17.5t14.5 -15.5t6.5 -11q0 -3 -6 -5q-14 -3 -37.5 -5.5t-54.5 -5.5q-9 -68 -13.5 -119.5t-4.5 -68.5
q0 -18 2 -41t10 -43.5t26 -34t49 -13.5q6 0 6 -4t-5 -11.5t-11.5 -16t-11.5 -18t-5 -17.5q0 -13 17 -19q2 0 2 -2q0 -3 -10 -7.5t-26 -4.5q-46 0 -74.5 24t-43.5 60t-20 79.5t-5 82.5q0 22 4 66t12 101q-40 -3 -81 -5t-78.5 -4t-70 -3.5t-55.5 -1.5q-16 -73 -41 -145
t-64.5 -128t-96.5 -91t-136 -35q-46 0 -91 12.5t-81 36t-58.5 57.5t-22.5 78q0 40 18.5 72t48.5 55t67.5 35.5t75.5 12.5t71.5 -12t59.5 -33t41 -51t15 -66q0 -16 -4.5 -26t-7.5 -10q-2 0 -2 2q-6 17 -19 17q-8 0 -17.5 -5t-18 -11.5t-16 -11.5t-11.5 -5t-4 6q0 31 -5 61
t-16 53.5t-30 37.5t-48 14q-20 0 -41 -7.5t-38 -23t-28 -39t-11 -56.5q0 -30 10.5 -57.5t31.5 -49t52.5 -34t73.5 -12.5q49 0 84.5 17t61 45.5t41.5 66t27 78t18 81.5t13 77q-32 7 -51.5 22.5t-19.5 43.5q0 11 6.5 16t14.5 5t14 -4.5t6 -14.5q0 -9 25 -9h15q7 45 17.5 109
t28 129t42 123.5t58.5 94.5q-82 2 -163.5 4t-163.5 2q-46 0 -95.5 -3t-90 -19t-66.5 -50.5t-26 -97.5q0 -27 9.5 -50t25 -40.5t35.5 -27.5t41 -10q22 0 43.5 13t39 41.5t28 75.5t10.5 114q0 6 4 6t11.5 -5t16 -11.5t18 -11.5t17.5 -5q13 0 19 17q0 2 2 2q3 0 7.5 -10
t4.5 -26q0 -62 -19 -106.5t-49.5 -73t-69.5 -42t-79 -13.5q-37 0 -72 11t-62.5 32t-44 51.5t-16.5 68.5z" />
    <glyph glyph-name="I" unicode="I" horiz-adv-x="742" 
d="M0 506q0 49 16 83.5t43 58t63 37t75.5 20.5t81 9t78.5 2q102 0 203 -3t203 -3h4q8 0 14 -6t6 -14t-6 -14t-14 -6h-7q-2 0 -2.5 -0.5t-1.5 -0.5q-28 -5 -44 -46.5t-27.5 -106.5t-21.5 -147t-25 -167q-14 -79 -38 -159.5t-64.5 -145.5t-100.5 -106t-146 -41q-46 0 -91 12.5
t-81 36t-58.5 57.5t-22.5 78q0 40 18.5 72t48.5 55t67.5 35.5t75.5 12.5t71.5 -12t59.5 -33t41 -51t15 -66q0 -16 -4.5 -26t-7.5 -10q-2 0 -2 2q-6 17 -19 17q-8 0 -17.5 -5t-18 -11.5t-16 -11.5t-11.5 -5t-4 6q0 31 -5 61t-16 53.5t-30 37.5t-48 14q-20 0 -41 -7.5t-38 -23
t-28 -39t-11 -56.5q0 -30 10.5 -57.5t31.5 -49t52.5 -34t73.5 -12.5q51 0 87 18.5t61.5 48.5t42 69.5t27 82t17.5 84.5l13 78q4 24 9.5 62.5t14 85t20 97t27.5 98.5t36 88.5t46 67.5q-82 2 -163.5 4t-163.5 2q-46 0 -95.5 -3t-90 -19t-66.5 -50.5t-26 -97.5q0 -27 9.5 -50
t25 -40.5t35.5 -27.5t41 -10q22 0 43.5 13t39 41.5t28 75.5t10.5 114q0 6 4 6t11.5 -5t16 -11.5t18 -11.5t17.5 -5q13 0 19 17q0 2 2 2q3 0 7.5 -10t4.5 -26q0 -62 -19 -106.5t-49.5 -73t-69.5 -42t-79 -13.5q-37 0 -72 11t-62.5 32t-44 51.5t-16.5 68.5z" />
    <glyph glyph-name="J" unicode="J" horiz-adv-x="742" 
d="M0 506q0 49 16 83.5t43 58t63 37t75.5 20.5t81 9t78.5 2q102 0 203 -3t203 -3h4q8 0 14 -6t6 -14t-6 -14t-14 -6h-4q-2 0 -3.5 -0.5t-3.5 -0.5q-28 -5 -44.5 -46.5t-27.5 -106.5t-21 -147t-25 -167q-14 -79 -38 -159.5t-64.5 -145.5t-100.5 -106t-146 -41
q-64 0 -111.5 20.5t-79 54t-47 76.5t-15.5 87q0 42 14 82t40.5 70.5t65.5 49.5t90 19q38 0 71.5 -12t59.5 -33t41 -51t15 -66q0 -16 -4.5 -26t-7.5 -10q-2 0 -2 2q-6 17 -19 17q-8 0 -17.5 -5t-18 -11.5t-16 -11.5t-11.5 -5t-4 6q0 32 -5 61.5t-16 53t-30 37.5t-48 14
q-28 0 -50 -14.5t-37 -38.5t-23 -55.5t-8 -64.5q0 -38 10 -74.5t30.5 -66t52.5 -47.5t75 -18q51 0 87 18.5t61.5 48.5t42 69.5t27 82t17.5 84.5l13 78q4 24 9.5 62.5t14 85t20 97t27.5 98.5t36 88.5t46 67.5q-82 2 -163.5 4t-163.5 2q-46 0 -95.5 -3t-90 -19t-66.5 -50.5
t-26 -97.5q0 -27 9.5 -50t25 -40.5t35.5 -27.5t41 -10q22 0 43.5 13t39 41.5t28 75.5t10.5 114q0 6 4 6t11.5 -5t16 -11.5t18 -11.5t17.5 -5q13 0 19 17q0 2 2 2q3 0 7.5 -10t4.5 -26q0 -62 -19 -106.5t-49.5 -73t-69.5 -42t-79 -13.5q-37 0 -72 11t-62.5 32t-44 51.5
t-16.5 68.5z" />
    <glyph glyph-name="K" unicode="K" horiz-adv-x="1110" 
d="M0 506q0 49 16 83.5t43 58t63 37t75.5 20.5t81 9t78.5 2q102 0 203 -3t203 -3h4q8 0 14 -6t6 -14t-6 -14t-14 -6h-7q-2 0 -2.5 -0.5t-1.5 -0.5q-24 -4 -39 -35.5t-25.5 -81.5t-19 -114.5t-18.5 -135.5q69 9 133.5 36t117 73t88 110.5t47.5 148.5q0 6 4 6t10 -5t13 -11.5
t15 -11.5t16 -5q13 0 19 17q0 2 2 2q3 0 7.5 -10t4.5 -26q0 -32 -14.5 -80.5t-55 -99.5t-112 -96.5t-184.5 -71.5q78 -23 120.5 -63.5t63.5 -88t27.5 -96.5t12 -89t16.5 -65.5t41 -25.5q6 0 6 -4t-5 -11.5t-11.5 -16t-11.5 -18t-5 -17.5q0 -13 17 -19q2 0 2 -2
q0 -3 -10 -7.5t-26 -4.5q-40 0 -61 20t-31 53t-14 75.5t-9.5 88t-17 90t-37 81.5t-70 63t-115.5 34l-9 -53q-14 -79 -38 -159.5t-64.5 -145.5t-100.5 -106t-146 -41q-46 0 -91 12.5t-81 36t-58.5 57.5t-22.5 78q0 40 18.5 72t48.5 55t67.5 35.5t75.5 12.5t71.5 -12t59.5 -33
t41 -51t15 -66q0 -16 -4.5 -26t-7.5 -10q-2 0 -2 2q-6 17 -19 17q-8 0 -17.5 -5t-18 -11.5t-16 -11.5t-11.5 -5t-4 6q0 31 -5 61t-16 53.5t-30 37.5t-48 14q-20 0 -41 -7.5t-38 -23t-28 -39t-11 -56.5q0 -30 10.5 -57.5t31.5 -49t52.5 -34t73.5 -12.5q51 0 87 18.5
t61.5 48.5t42 69.5t27 82t17.5 84.5l13 78q4 24 9.5 62.5t14 85t20 97t27.5 98.5t36 88.5t46 67.5q-82 2 -163.5 4t-163.5 2q-46 0 -95.5 -3t-90 -19t-66.5 -50.5t-26 -97.5q0 -27 9.5 -50t25 -40.5t35.5 -27.5t41 -10q22 0 43.5 13t39 41.5t28 75.5t10.5 114q0 6 4 6
t11.5 -5t16 -11.5t18 -11.5t17.5 -5q13 0 19 17q0 2 2 2q3 0 7.5 -10t4.5 -26q0 -62 -19 -106.5t-49.5 -73t-69.5 -42t-79 -13.5q-37 0 -72 11t-62.5 32t-44 51.5t-16.5 68.5z" />
    <glyph glyph-name="L" unicode="L" horiz-adv-x="1016" 
d="M668 357q-6 -47 -15.5 -108t-25.5 -125.5t-39.5 -127.5t-58.5 -114q35 -39 76 -66t98 -27q51 0 87 23t58.5 62t32.5 90t10 107q0 6 4 6t11.5 -5t16.5 -11.5t18.5 -11.5t17.5 -5q13 0 19 17q0 2 2 2q3 0 7.5 -10t4.5 -26q0 -45 -20.5 -94t-58 -90t-90 -67.5t-117.5 -26.5
q-34 0 -63 8t-53.5 21.5t-45.5 31.5t-39 39q-38 -45 -88.5 -72.5t-116.5 -27.5q-63 0 -111 18t-81 46.5t-49.5 65t-16.5 72.5q0 32 14 61.5t39.5 52.5t61.5 36.5t80 13.5q47 0 83 -16t64.5 -41.5t52.5 -57t48 -63.5q11 29 19 60t14 62.5t11 61t9 55.5q5 27 11.5 67.5
t16.5 88.5t24 100t33 101l-67 4q-38 2 -76.5 3t-76.5 1q-46 0 -95.5 -6.5t-89.5 -27t-66 -58t-26 -99.5q0 -38 10 -65t26.5 -44t37 -24.5t41.5 -7.5q58 0 87.5 64.5t29.5 177.5q0 6 4 6t11.5 -5t16.5 -11.5t18.5 -11.5t17.5 -5q13 0 19 17q0 2 2 2q3 0 7.5 -10t4.5 -26
q0 -45 -14.5 -87.5t-42.5 -76t-68.5 -54t-92.5 -20.5q-36 0 -70.5 13.5t-62.5 39.5t-45 63.5t-17 84.5q0 73 35.5 115t89.5 63.5t118 27t120 5.5q37 0 74 -1t75 -3q14 -1 35 -2t46 -2q18 39 39.5 73.5t47 60t56 40t66.5 14.5q22 0 45 -6t42 -18.5t31 -32t12 -45.5
q0 -40 -27 -64.5t-68.5 -38.5t-90.5 -19t-94 -5q-14 -52 -20 -100t-10 -75zM300 -211q62 0 101.5 30t65.5 77q-24 32 -47 64t-48.5 57.5t-55.5 41.5t-68 16q-31 0 -54.5 -10.5t-39.5 -28.5t-24 -41.5t-8 -48.5q0 -29 10.5 -57t32.5 -50t55.5 -36t79.5 -14zM853 721
q-28 0 -50 -12t-39.5 -32.5t-31 -47.5t-23.5 -57q36 0 72 4.5t64 15t45.5 29.5t17.5 49q0 20 -11.5 35.5t-43.5 15.5z" />
    <glyph glyph-name="M" unicode="M" horiz-adv-x="1386" 
d="M1166 -8q0 58 8 122t20.5 127.5t28 123t31.5 109.5t31 86.5t25 54.5q7 13 17 27q-45 -23 -93 -60t-96 -83.5t-93.5 -99.5t-85.5 -109q2 -29 3 -54t1 -44t-1 -50.5t-5 -67.5t-12 -73t-22 -66.5t-34.5 -48t-49.5 -18.5q-37 0 -54 23.5t-17 57.5q0 59 29 133.5t78 154.5
q-6 64 -16.5 136t-25 135t-31.5 108t-37 54h-2q-2 0 -3.5 -0.5t-3.5 -0.5q-28 -5 -44.5 -46.5t-27.5 -106.5t-21 -147t-25 -167q-14 -79 -38 -159.5t-64.5 -145.5t-100.5 -106t-146 -41q-46 0 -91 12.5t-81 36t-58.5 57.5t-22.5 78q0 40 18.5 72t48.5 55t67.5 35.5
t75.5 12.5t71.5 -12t59.5 -33t41 -51t15 -66q0 -16 -4.5 -26t-7.5 -10q-2 0 -2 2q-6 17 -19 17q-8 0 -17.5 -5t-18 -11.5t-16 -11.5t-11.5 -5t-4 6q0 31 -5 61t-16 53.5t-30 37.5t-48 14q-20 0 -41 -7.5t-38 -23t-28 -39t-11 -56.5q0 -30 10.5 -57.5t31.5 -49t52.5 -34
t73.5 -12.5q51 0 87 18.5t61.5 48.5t42 69.5t27 82t17.5 84.5l13 78q4 24 9.5 62.5t14 85t20 97t27.5 98.5t36 88.5t46 67.5q-82 2 -163.5 4t-163.5 2q-46 0 -95.5 -3t-90 -19t-66.5 -50.5t-26 -97.5q0 -27 9.5 -50t25 -40.5t35.5 -27.5t41 -10q22 0 43.5 13t39 41.5
t28 75.5t10.5 114q0 6 4 6t11.5 -5t16 -11.5t18 -11.5t17.5 -5q13 0 19 17q0 2 2 2q3 0 7.5 -10t4.5 -26q0 -62 -19 -106.5t-49.5 -73t-69.5 -42t-79 -13.5q-37 0 -72 11t-62.5 32t-44 51.5t-16.5 68.5q0 49 16 83.5t43 58t63 37t75.5 20.5t81 9t78.5 2q102 0 203 -3t203 -3
h7q44 -1 76 -35t53.5 -86t34.5 -115.5t19 -123.5q54 71 116 135.5t124.5 114.5t122.5 80.5t111 33.5q3 1 9 1q4 0 5 -1q6 -2 8 -4l2 -2q1 -2 3 -4v-2q1 0 1 -2q1 -1 1 -5v-2v-1q0 -1 -1 -2q0 -2 -1 -3q-2 -4 -6 -8t-9 -4h-5q-12 -2 -32.5 -31t-43.5 -98q-6 -17 -15 -50.5
t-19 -78t-20.5 -97.5t-19 -110t-13.5 -116t-5 -115q0 -17 2 -39.5t10 -42.5t26 -33.5t49 -13.5q6 0 6 -4t-5 -11.5t-11.5 -16t-11.5 -18t-5 -17.5q0 -13 17 -19q2 0 2 -2q0 -3 -10 -7.5t-26 -4.5q-46 0 -74.5 23.5t-43.5 59.5t-20 78.5t-5 80.5zM884 98q0 27 -3 69
q-34 -62 -53.5 -117.5t-19.5 -100.5q0 -15 3.5 -23.5t8 -12.5t10 -4.5t9.5 -0.5q14 0 23 19t14 47.5t6.5 62t1.5 61.5z" />
    <glyph glyph-name="N" unicode="N" horiz-adv-x="1205" 
d="M0 506q0 49 16 83.5t43 58t63 37t75.5 20.5t81 9t78.5 2q102 0 203 -3t203 -3h6q36 0 69.5 -17.5t65 -49t59 -74.5t51.5 -94q35 73 75 133t85 95q13 10 21 10q10 0 15.5 -10.5t11.5 -23.5t14 -24.5t23 -14.5q-13 -10 -32.5 -23t-42.5 -35.5t-49.5 -57t-55.5 -88.5
q-15 -27 -27 -54q32 -90 49.5 -184.5t17.5 -179.5q0 -57 -8.5 -106t-27.5 -85t-48 -56.5t-70 -20.5q-18 0 -35 8.5t-31 27.5t-22.5 49.5t-8.5 75.5q0 39 7 90.5t19.5 110.5t31 122.5t41.5 126.5q-16 51 -37 98.5t-46.5 88t-56 72t-66.5 50.5h-1q-2 0 -2.5 -0.5t-1.5 -0.5
q-28 -5 -44.5 -46.5t-27.5 -106.5t-21 -147t-25 -167q-14 -79 -38 -159.5t-64.5 -145.5t-100.5 -106t-146 -41q-46 0 -91 12.5t-81 36t-58.5 57.5t-22.5 78q0 40 18.5 72t48.5 55t67.5 35.5t75.5 12.5t71.5 -12t59.5 -33t41 -51t15 -66q0 -16 -4.5 -26t-7.5 -10q-2 0 -2 2
q-6 17 -19 17q-8 0 -17.5 -5t-18 -11.5t-16 -11.5t-11.5 -5t-4 6q0 31 -5 61t-16 53.5t-30 37.5t-48 14q-20 0 -41 -7.5t-38 -23t-28 -39t-11 -56.5q0 -30 10.5 -57.5t31.5 -49t52.5 -34t73.5 -12.5q51 0 87 18.5t61.5 48.5t42 69.5t27 82t17.5 84.5l13 78q4 24 9.5 62.5
t14 85t20 97t27.5 98.5t36 88.5t46 67.5q-82 2 -163.5 4t-163.5 2q-46 0 -95.5 -3t-90 -19t-66.5 -50.5t-26 -97.5q0 -27 9.5 -50t25 -40.5t35.5 -27.5t41 -10q22 0 43.5 13t39 41.5t28 75.5t10.5 114q0 6 4 6t11.5 -5t16 -11.5t18 -11.5t17.5 -5q13 0 19 17q0 2 2 2
q3 0 7.5 -10t4.5 -26q0 -62 -19 -106.5t-49.5 -73t-69.5 -42t-79 -13.5q-37 0 -72 11t-62.5 32t-44 51.5t-16.5 68.5zM1023 -4q0 56 -6.5 120t-20.5 130q-18 -52 -32.5 -102.5t-24.5 -97t-15.5 -86.5t-5.5 -70q0 -50 12.5 -74t29.5 -24q15 0 27 15t20 42t12 64.5t4 82.5z
" />
    <glyph glyph-name="O" unicode="O" horiz-adv-x="849" 
d="M0 119q0 59 13 117t36.5 108t57.5 90t76 62q21 50 55.5 91t77.5 70t91 44.5t96 15.5q54 0 106 -21.5t93 -67t66 -118t25 -174.5q0 -67 -14 -137t-40.5 -135t-66 -122t-90.5 -100t-113 -67.5t-134 -24.5q-88 0 -151 31.5t-104 83t-60.5 118t-19.5 136.5zM237 342
q0 -42 10 -71t26 -46.5t35.5 -25.5t38.5 -8q24 0 46.5 13t40.5 41.5t28.5 75.5t10.5 114q0 6 4 6t11.5 -5t16 -11.5t18 -11.5t17.5 -5q13 0 19 17q0 2 2 2q3 0 7.5 -10t4.5 -26q0 -62 -19 -107t-49 -74.5t-68 -44t-77 -14.5t-75.5 14t-65 41t-45.5 66.5t-17 90.5v7
q-26 -52 -40.5 -118t-14.5 -135q0 -62 13.5 -121t41.5 -105t71.5 -73.5t103.5 -27.5q58 0 107.5 24.5t89.5 66t70.5 97t51.5 118.5t31.5 130t10.5 130q0 86 -16 147t-42.5 99.5t-61.5 56.5t-73 18q-63 0 -123 -42t-98 -115q11 0 20.5 -2.5t9.5 -16.5q0 -8 -6 -14.5t-14 -6.5
q-13 0 -30 -5q-11 -30 -16.5 -63.5t-5.5 -69.5z" />
    <glyph glyph-name="P" unicode="P" horiz-adv-x="1181" 
d="M297 -97q0 31 -5 61t-16 53.5t-30 37.5t-48 14q-20 0 -41 -7.5t-38 -23t-28 -39t-11 -56.5q0 -30 10.5 -57.5t31.5 -49t52.5 -34t73.5 -12.5q51 0 87 18.5t61.5 48.5t42 69.5t27 82t17.5 84.5l13 78q5 28 12.5 76t19 103.5t28.5 112t41 102.5t55.5 75t71.5 29q8 0 14 -6
t6 -14t-6 -14t-14 -6q-24 0 -42 -26.5t-30 -68t-20 -92t-13.5 -98t-9 -86t-6.5 -56.5q-14 -79 -38 -159.5t-64.5 -145.5t-101 -106t-146.5 -41q-46 0 -91 12.5t-81 36t-58.5 57.5t-22.5 78q0 40 18.5 72t48.5 55t67.5 35.5t75.5 12.5t71.5 -12t59.5 -33t41 -51t15 -66
q0 -16 -4.5 -26t-7.5 -10q-2 0 -2 2q-6 17 -19 17q-8 0 -17.5 -5t-18 -11.5t-16 -11.5t-11.5 -5t-4 6zM710 276q0 -100 30.5 -152.5t99.5 -52.5q46 0 83 23t63.5 61t40.5 88t14 105q0 69 -24.5 139t-78 126.5t-138.5 92t-206 35.5q-50 0 -106.5 -9.5t-112.5 -28t-108 -47
t-91.5 -67t-63 -87t-23.5 -107.5q0 -39 10 -66t26.5 -44.5t37 -25t41.5 -7.5q58 0 87.5 64.5t29.5 177.5q0 6 4 6t11.5 -5t16.5 -11.5t18.5 -11.5t17.5 -5q13 0 19 17q0 2 2 2q3 0 7.5 -10t4.5 -26q0 -45 -14.5 -87.5t-42.5 -76t-68.5 -54t-92.5 -20.5q-36 0 -70.5 14
t-62.5 40.5t-45 65t-17 88.5q0 62 27 112.5t71.5 89.5t103.5 68t123 47.5t129 27.5t122 9q146 0 251 -38.5t173 -100t100 -138.5t32 -153q0 -62 -20 -118.5t-59 -100t-95 -69.5t-128 -26q-54 0 -97 15t-72.5 42t-45 64t-15.5 81q0 16 4.5 26t7.5 10q2 0 2 -2q6 -17 19 -17
q8 0 17.5 5t18.5 11.5t16.5 11.5t11.5 5t4 -6z" />
    <glyph glyph-name="Q" unicode="Q" horiz-adv-x="846" 
d="M0 119q0 59 13 117t36.5 108t57.5 90t76 62q21 50 55.5 91t77.5 70t91 44.5t96 15.5q54 0 106 -21.5t93 -67t66 -118t25 -174.5q0 -67 -14 -137t-40.5 -135t-66 -122t-90.5 -100t-113 -67.5t-134 -24.5q-88 0 -151 31.5t-104 83t-60.5 118t-19.5 136.5zM237 342
q0 -42 10 -71t26 -46.5t35.5 -25.5t38.5 -8q24 0 46.5 13t40.5 41.5t28.5 75.5t10.5 114q0 6 4 6t11.5 -5t16 -11.5t18 -11.5t17.5 -5q13 0 19 17q0 2 2 2q3 0 7.5 -10t4.5 -26q0 -62 -19 -107t-49 -74.5t-68 -44t-77 -14.5t-75.5 14t-65 41t-45.5 66.5t-17 90.5v7
q-26 -52 -40.5 -118t-14.5 -135q0 -62 13.5 -121t41.5 -105t71.5 -73.5t103.5 -27.5q58 0 107.5 24.5t89.5 66t70.5 97t51.5 118.5t31.5 130t10.5 130q0 86 -16 147t-42.5 99.5t-61.5 56.5t-73 18q-63 0 -123 -42t-98 -115q11 0 20.5 -2.5t9.5 -16.5q0 -8 -6 -14.5t-14 -6.5
q-13 0 -30 -5q-11 -30 -16.5 -63.5t-5.5 -69.5zM977 -444q-6 30 -15 54t-25 41t-39.5 26t-56.5 9q-50 0 -107.5 -6.5t-119.5 -14.5q-68 -9 -136 -16t-133 -7q-78 0 -141.5 15t-108.5 50t-70 94t-25 148q0 6 2 12t10 6q12 0 12 -12q0 -75 23 -123.5t64 -76.5t97.5 -39
t124.5 -11q59 0 121 5.5t124 12.5q60 7 117 12.5t108 5.5q96 0 156 -20t93 -46.5t44.5 -53.5t11.5 -41q0 -11 -4 -11q-3 0 -4 4q-7 13 -14.5 18t-16.5 5q-12 0 -25 -7.5t-24.5 -16t-21 -16t-15.5 -7.5q-5 0 -6 7z" />
    <glyph glyph-name="R" unicode="R" horiz-adv-x="1070" 
d="M1017 -150q6 0 6 -4t-5 -11.5t-11.5 -16t-11.5 -18t-5 -17.5q0 -13 17 -19q2 0 2 -2q0 -3 -10 -7.5t-26 -4.5q-44 0 -66 21t-31.5 55t-11.5 76.5t-6 85.5q-4 39 -13 75t-30 64t-58 45t-96 17q-8 0 -14 6t-6 14t6 14t14 6q60 0 113.5 15t94 46.5t64 80t23.5 115.5
q0 75 -24 123.5t-65 76.5t-97 39t-121 11q-50 0 -111.5 -8t-124 -25t-121.5 -44t-105 -65t-73.5 -87.5t-27.5 -111.5q0 -38 10 -65t26.5 -44t37 -24.5t41.5 -7.5q58 0 87.5 64.5t29.5 177.5q0 6 4 6t11.5 -5t16.5 -11.5t18.5 -11.5t17.5 -5q13 0 19 17q0 2 2 2q3 0 7.5 -10
t4.5 -26q0 -45 -14.5 -87.5t-42.5 -76t-68.5 -54t-92.5 -20.5q-36 0 -70.5 13.5t-62.5 39.5t-45 63.5t-17 84.5q0 64 31.5 115.5t83.5 91.5t119.5 69.5t138.5 48t141 27.5t127 9q68 0 140.5 -11.5t132 -42.5t98 -85.5t38.5 -140.5q0 -58 -21 -104.5t-57 -82t-82.5 -60.5
t-97.5 -40q42 -14 69 -35t44 -46.5t26 -53.5t13 -56q5 -33 7 -63t7 -53.5t17 -37.5t36 -14zM297 -97q0 31 -5 61t-16 53.5t-30 37.5t-48 14q-20 0 -41 -7.5t-38 -23t-28 -39t-11 -56.5q0 -30 10.5 -57.5t31.5 -49t52.5 -34t73.5 -12.5q51 0 87 18.5t61.5 48.5t42 69.5t27 82
t17.5 84.5l13 78q5 28 12.5 76t19 103.5t28.5 112t41 102.5t55.5 75t71.5 29q8 0 14 -6t6 -14t-6 -14t-14 -6q-24 0 -42 -26.5t-30 -68t-20 -92t-13.5 -98t-9 -86t-6.5 -56.5q-14 -79 -38 -159.5t-64.5 -145.5t-101 -106t-146.5 -41q-46 0 -91 12.5t-81 36t-58.5 57.5
t-22.5 78q0 40 18.5 72t48.5 55t67.5 35.5t75.5 12.5t71.5 -12t59.5 -33t41 -51t15 -66q0 -16 -4.5 -26t-7.5 -10q-2 0 -2 2q-6 17 -19 17q-8 0 -17.5 -5t-18 -11.5t-16 -11.5t-11.5 -5t-4 6z" />
    <glyph glyph-name="S" unicode="S" horiz-adv-x="823" 
d="M420 -210q49 0 90 15t71 43.5t46.5 69.5t16.5 94q0 66 -24.5 129.5t-62.5 129.5q-18 32 -35.5 65t-32.5 66t-26 66t-16 64q-23 1 -45 1.5t-44 0.5q-60 0 -113.5 -6t-94 -23.5t-64 -50t-23.5 -85.5q0 -33 10 -56.5t26.5 -39t37 -23t41.5 -7.5q58 0 87.5 64.5t29.5 177.5
q0 6 4 6t11.5 -5t16.5 -11.5t18.5 -11.5t17.5 -5q13 0 19 17q0 2 2 2q3 0 7.5 -10t4.5 -26q0 -45 -14.5 -87.5t-42.5 -76t-68.5 -54t-92.5 -20.5q-36 0 -70.5 13t-62.5 35.5t-45 53t-17 64.5q0 68 33.5 108.5t89 62t126.5 28t146 6.5q17 0 33 -0.5t33 -0.5v1q0 52 21.5 88.5
t56 59t78 33t88.5 10.5q23 0 53 -3.5t56.5 -15.5t44.5 -34t18 -58t-19 -60t-51.5 -39t-77 -21.5t-95.5 -6.5h-33.5t-33.5 1q11 -45 30.5 -88t39.5 -77q21 -37 43 -77t40 -82t29 -84.5t11 -86.5q0 -69 -28.5 -122t-73.5 -88.5t-102 -54t-114 -18.5q-46 0 -91 12.5t-81 36
t-58.5 57.5t-22.5 78q0 40 18.5 72t48.5 55t67.5 35.5t75.5 12.5t71.5 -12t59.5 -33t41 -51t15 -66q0 -16 -4.5 -26t-7.5 -10q-2 0 -2 2q-6 17 -19 17q-8 0 -17.5 -5t-18 -11.5t-16 -11.5t-11.5 -5t-4 6q0 31 -5 61t-16 53.5t-30 37.5t-48 14q-20 0 -41 -7.5t-38 -23
t-28 -39t-11 -56.5q0 -30 10.5 -57.5t31.5 -49t52.5 -34t73.5 -12.5zM540 597v-13.5t1 -13.5h26q47 0 88 3t71 12t47 25.5t17 44.5q0 21 -9 34.5t-24 21.5t-34 11t-39 3q-63 0 -103.5 -31t-40.5 -97z" />
    <glyph glyph-name="T" unicode="T" horiz-adv-x="786" 
d="M333 -97q0 31 -5 61t-16 53.5t-30 37.5t-48 14q-20 0 -41 -7.5t-38 -23t-28 -39t-11 -56.5q0 -30 10.5 -57.5t31.5 -49t52.5 -34t73.5 -12.5q51 0 87 18.5t61.5 48.5t42 69.5t27 82t17.5 84.5l13 78q5 28 12.5 76t19 103.5t28.5 112t41 102.5t55.5 75t71.5 29q8 0 14 -6
t6 -14t-6 -14t-14 -6q-24 0 -42 -26.5t-30 -68t-20 -92t-13.5 -98t-9 -86t-6.5 -56.5q-14 -79 -38 -159.5t-64.5 -145.5t-101 -106t-146.5 -41q-46 0 -91 12.5t-81 36t-58.5 57.5t-22.5 78q0 40 18.5 72t48.5 55t67.5 35.5t75.5 12.5t71.5 -12t59.5 -33t41 -51t15 -66
q0 -16 -4.5 -26t-7.5 -10q-2 0 -2 2q-6 17 -19 17q-8 0 -17.5 -5t-18 -11.5t-16 -11.5t-11.5 -5t-4 6zM312 622q0 6 4 6t11.5 -5t16 -11.5t18 -11.5t17.5 -5q13 0 19 17q0 2 2 2q3 0 7.5 -10t4.5 -26q0 -62 -19 -106.5t-49.5 -73t-69.5 -42t-79 -13.5q-37 0 -72 11t-62.5 32
t-44 51.5t-16.5 68.5q0 66 32 107t84 63t117.5 29.5t131.5 7.5q68 0 129 -4t106 -4q37 0 71 5.5t60 21.5t41.5 44.5t15.5 73.5q0 6 4 6t11.5 -5t16 -11.5t18 -11.5t17.5 -5q13 0 19 17q0 2 2 2q3 0 7.5 -10t4.5 -26q0 -43 -25 -70t-65 -42t-90.5 -20t-101.5 -5q-40 0 -97 4
t-120 4q-57 0 -112 -6.5t-99 -25t-71 -52t-27 -87.5q0 -27 9.5 -50t25 -40.5t35.5 -27.5t41 -10q22 0 43.5 13t39 41.5t28 75.5t10.5 114z" />
    <glyph glyph-name="U" unicode="U" horiz-adv-x="1214" 
d="M942 4q-19 -45 -42.5 -90t-55 -81.5t-74 -59t-98.5 -22.5q-49 0 -84 17.5t-57.5 48t-33.5 72.5t-11 92q0 74 14 146t30.5 143.5t30 144t13.5 145.5q0 45 -13.5 78t-36.5 54.5t-53.5 32t-65.5 10.5q-60 0 -118.5 -29t-104 -80.5t-74 -123t-28.5 -156.5q0 -38 10 -65
t26.5 -44t37 -24.5t41.5 -7.5q22 0 43.5 13t39 41.5t28 75.5t10.5 114q0 6 4 6t11.5 -5t16 -11.5t18 -11.5t17.5 -5q13 0 19 17q0 2 2 2q3 0 7.5 -10t4.5 -26q0 -62 -19 -107t-50 -74.5t-70.5 -44t-81.5 -14.5q-36 0 -70.5 13.5t-62.5 39.5t-45 63.5t-17 84.5
q0 96 37.5 171.5t97 128t132 80t142.5 27.5q51 0 98.5 -15.5t84 -47t59 -80.5t22.5 -116q0 -73 -13.5 -145t-30 -143.5t-30.5 -143t-14 -144.5q0 -29 3.5 -55.5t14 -47t29.5 -32.5t51 -12q43 0 78 22.5t63.5 58.5t51 81.5t40 92.5t30 91t20.5 76q9 54 22 112t29.5 114
t37 106t45.5 88t53.5 60t61.5 22q8 0 14 -6t6 -14t-6 -14t-15 -6q-19 0 -36.5 -26.5t-33 -71t-29 -102t-25 -119t-20.5 -122.5t-15.5 -112t-9.5 -88.5t-3 -51.5q0 -18 2 -41t10 -43.5t26 -34t49 -13.5q6 0 6 -4t-5 -11.5t-11.5 -16t-11.5 -18t-5 -17.5q0 -13 17 -19
q2 0 2 -2q0 -3 -10 -7.5t-26 -4.5q-46 0 -74.5 24t-43.5 60t-20 79.5t-5 82.5v8z" />
    <glyph glyph-name="V" unicode="V" horiz-adv-x="1152" 
d="M686 -209q54 0 97.5 33t76.5 88.5t57.5 127t40.5 149.5t25.5 155.5t13 144.5t2.5 117.5t-6 73.5q-1 6 4 6q4 0 11.5 -5t16.5 -11.5t18.5 -11.5t17.5 -5q13 0 19 17q0 2 2 2q3 0 6.5 -10t5.5 -26q5 -35 6 -91.5t-4.5 -125.5t-18.5 -145t-35 -150t-54 -142t-76 -119
t-100.5 -81.5t-127.5 -30.5q-53 0 -90.5 17.5t-61.5 48t-35 72.5t-11 92q0 74 14 146t30.5 143.5t30 144t13.5 145.5q0 45 -13.5 78t-36.5 54.5t-53.5 32t-65.5 10.5q-60 0 -118.5 -29t-104 -80.5t-74 -123t-28.5 -156.5q0 -38 10 -65t26.5 -44t37 -24.5t41.5 -7.5
q22 0 43.5 13t39 41.5t28 75.5t10.5 114q0 6 4 6t11.5 -5t16 -11.5t18 -11.5t17.5 -5q13 0 19 17q0 2 2 2q3 0 7.5 -10t4.5 -26q0 -62 -19 -107t-50 -74.5t-70.5 -44t-81.5 -14.5q-36 0 -70.5 13.5t-62.5 39.5t-45 63.5t-17 84.5q0 96 37.5 171.5t97 128t132 80t142.5 27.5
q51 0 98.5 -15.5t84 -47t59 -80.5t22.5 -116q0 -73 -13.5 -145t-30 -143.5t-30.5 -143t-14 -144.5q0 -29 3.5 -55.5t14 -47t30.5 -32.5t53 -12z" />
    <glyph glyph-name="W" unicode="W" horiz-adv-x="1508" 
d="M676 -209q45 0 87.5 27t80.5 70q-12 32 -17.5 67.5t-5.5 70.5q0 26 4 59.5t13 70t23 71.5t33.5 62.5t46 44.5t59.5 17q35 0 47 -25t12 -56q0 -32 -9.5 -73.5t-27 -87.5t-42.5 -93.5t-56 -90.5q4 -29 11.5 -53.5t20 -43t30.5 -29t42 -10.5q59 0 105.5 33t81.5 88.5t60 127
t41.5 149.5t25.5 155.5t12 144.5t1.5 117.5t-6.5 73.5q-1 6 4 6q4 0 11.5 -5t16.5 -11.5t18.5 -11.5t17.5 -5q13 0 19 17q0 2 2 2q3 0 6.5 -10t5.5 -26q5 -35 6 -91.5t-4.5 -125.5t-19 -145t-36 -150t-55.5 -142t-78 -119t-103.5 -81.5t-131.5 -30.5q-61 0 -101.5 28.5
t-65.5 72.5q-45 -45 -95.5 -72t-106.5 -27q-44 0 -76.5 17.5t-54 48t-32 72.5t-10.5 92q0 74 14 146t30.5 143.5t30 144t13.5 145.5q0 45 -13.5 78t-36.5 54.5t-53.5 32t-65.5 10.5q-60 0 -118.5 -29t-104 -80.5t-74 -123t-28.5 -156.5q0 -38 10 -65t26.5 -44t37 -24.5
t41.5 -7.5q22 0 43.5 13t39 41.5t28 75.5t10.5 114q0 6 4 6t11.5 -5t16 -11.5t18 -11.5t17.5 -5q13 0 19 17q0 2 2 2q3 0 7.5 -10t4.5 -26q0 -62 -19 -107t-50 -74.5t-70.5 -44t-81.5 -14.5q-36 0 -70.5 13.5t-62.5 39.5t-45 63.5t-17 84.5q0 96 37.5 171.5t97 128t132 80
t142.5 27.5q51 0 98.5 -15.5t84 -47t59 -80.5t22.5 -116q0 -73 -13.5 -145t-30 -143.5t-30.5 -143t-14 -144.5q0 -29 3.5 -55.5t13 -47t27.5 -32.5t47 -12zM948 223q-5 -15 -10.5 -40t-10 -56t-7 -66t-1.5 -70q23 38 41 77.5t31.5 76t20.5 69t7 56.5q0 14 -3 27.5t-13 13.5
q-8 0 -23 -18t-32 -70z" />
    <glyph glyph-name="X" unicode="X" horiz-adv-x="1207" 
d="M1117 -159q6 0 6 -4t-5 -10t-11.5 -13t-11.5 -15t-5 -16q0 -13 17 -19q2 0 2 -2q0 -3 -10 -7.5t-26 -4.5q-57 0 -98 33.5t-70 87t-49 121t-36 134.5q-52 -75 -105 -142.5t-111 -119.5t-122 -82.5t-139 -30.5q-48 0 -93 13t-79.5 37.5t-55.5 59.5t-21 78q0 40 18.5 73
t48.5 56t67.5 35.5t75.5 12.5t72 -12t59.5 -33t41 -51t15.5 -66q0 -16 -4.5 -26t-7.5 -10q-2 0 -2 2q-6 17 -19 17q-8 0 -17.5 -5t-18.5 -11.5t-16.5 -11.5t-11.5 -5t-4 6q0 31 -5 61t-16 53.5t-30 37.5t-48 14q-20 0 -41 -7.5t-38 -23t-28 -39t-11 -56.5q0 -30 10 -58.5
t30 -51t49.5 -36t68.5 -13.5q66 0 127 40t117.5 105.5t109.5 149.5t104 173q-11 49 -25.5 103t-34 107t-45 101t-59.5 85t-77.5 58.5t-98.5 21.5q-52 0 -106 -21t-98 -63.5t-72 -106t-28 -148.5q0 -38 10 -65t26.5 -44t37 -24.5t41.5 -7.5q58 0 87.5 64.5t29.5 177.5
q0 6 4 6t11.5 -5t16.5 -11.5t18.5 -11.5t17.5 -5q13 0 19 17q0 2 2 2q3 0 7.5 -10t4.5 -26q0 -45 -14.5 -87.5t-42.5 -76t-68.5 -54t-92.5 -20.5q-36 0 -70.5 13.5t-62.5 39.5t-45 63.5t-17 84.5q0 96 37.5 163.5t95.5 110.5t128 63t135 20q87 0 152 -32t112.5 -85.5
t80.5 -124t55 -148.5q44 76 87.5 145t86.5 121t86 83t86 31q16 0 26 -4.5t10 -7.5q0 -2 -2 -2q-17 -5 -17 -14q0 -4 5 -8.5t11.5 -8.5t11.5 -7.5t5 -6.5q0 -4 -6 -4q-26 0 -63 -39.5t-82.5 -104t-98 -147.5t-111.5 -170q8 -35 18.5 -78t24 -87t31 -86t39.5 -74.5t48.5 -52.5
t58.5 -20z" />
    <glyph glyph-name="Y" unicode="Y" horiz-adv-x="1056" 
d="M660 -97q0 31 -5 61t-16 53.5t-30 37.5t-48 14q-20 0 -41 -7.5t-38 -23t-28 -39t-11 -56.5q0 -30 10.5 -57.5t31.5 -49t52.5 -34t73.5 -12.5q51 0 87 18.5t61.5 48.5t42 69.5t27 82t17.5 84.5l13 78l14 82q-19 -27 -40 -49.5t-46 -38.5t-54 -25t-64 -9q-80 0 -115.5 36.5
t-35.5 93.5q0 36 9 78t19.5 85.5t19.5 86.5t9 80q0 31 -6.5 57.5t-22.5 45.5t-43.5 30t-70.5 11q-70 0 -134 -29t-112.5 -80.5t-77 -123t-28.5 -156.5q0 -38 10 -65t26.5 -44t37 -24.5t41.5 -7.5q58 0 87.5 64.5t29.5 177.5q0 6 4 6t11.5 -5t16.5 -11.5t18.5 -11.5t17.5 -5
q13 0 19 17q0 2 2 2q3 0 7.5 -10t4.5 -26q0 -45 -14.5 -87.5t-42.5 -76t-68.5 -54t-92.5 -20.5q-36 0 -70.5 13.5t-62.5 39.5t-45 63.5t-17 84.5q0 96 38 171.5t101 128t143.5 80t164.5 27.5q65 0 108 -15.5t69.5 -42t37.5 -62t11 -76.5q0 -42 -9 -87.5t-20 -89t-20 -83.5
t-9 -71q0 -35 15 -55t53 -20q39 0 72 21.5t60.5 53.5t49 68.5t35.5 67.5q13 52 30 103.5t38.5 92t48.5 66t60 25.5q8 0 14 -6t6 -14t-6 -14t-14 -6q-19 0 -34 -26.5t-26.5 -68t-19.5 -92t-14 -98t-10 -86t-7 -56.5q-14 -79 -38 -159.5t-64.5 -145.5t-101 -106t-146.5 -41
q-46 0 -91 12.5t-81 36t-58.5 57.5t-22.5 78q0 40 18.5 72t48.5 55t67.5 35.5t75.5 12.5t71.5 -12t59.5 -33t41 -51t15 -66q0 -16 -4.5 -26t-7.5 -10q-2 0 -2 2q-6 17 -19 17q-8 0 -17.5 -5t-18 -11.5t-16 -11.5t-11.5 -5t-4 6z" />
    <glyph glyph-name="Z" unicode="Z" horiz-adv-x="1114" 
d="M337 -249q-63 0 -111 18t-81 46.5t-49.5 65t-16.5 72.5q0 32 14 61.5t39.5 52.5t61.5 36.5t80 13.5q42 0 80 -12.5t71.5 -33.5t63.5 -48t56 -55q36 58 72 128t72.5 143t75 144.5t80.5 134t88 111.5t98 75q-58 4 -115.5 6.5t-115.5 2.5q-57 0 -127.5 -1.5t-143 -10
t-141 -26.5t-122 -50t-86 -81.5t-32.5 -121.5q0 -38 10 -65t26.5 -44t37 -24.5t41.5 -7.5q58 0 87.5 64.5t29.5 177.5q0 6 4 6t11.5 -5t16.5 -11.5t18.5 -11.5t17.5 -5q13 0 19 17q0 2 2 2q3 0 7.5 -10t4.5 -26q0 -45 -14.5 -87.5t-42.5 -76t-68.5 -54t-92.5 -20.5
q-36 0 -70.5 13.5t-62.5 39.5t-45 63.5t-17 84.5q0 77 37 130t98.5 88t139.5 53.5t160.5 27.5t162 10.5t142.5 1.5h10q68 0 127.5 -3.5t104 -7t70.5 -7t27 -3.5q7 0 11.5 -6t4.5 -13.5t-4.5 -13.5t-15.5 -6q-48 0 -90.5 -40.5t-84 -106.5t-82.5 -151t-85 -173t-92.5 -172.5
t-104.5 -150.5q18 -22 38 -41.5t42.5 -34.5t48.5 -23.5t57 -8.5q51 0 87 23t58.5 62t32.5 90t10 107q0 6 4 6t11.5 -5t16.5 -11.5t18.5 -11.5t17.5 -5q13 0 19 17q0 2 2 2q3 0 7.5 -10t4.5 -26q0 -45 -20.5 -94t-58 -90t-90 -67.5t-117.5 -26.5q-38 0 -69 9.5t-57.5 25.5
t-48 37.5t-41.5 45.5q-52 -54 -111.5 -86t-128.5 -32zM337 -209q51 0 96.5 39t89.5 104q-25 28 -53.5 53.5t-58.5 45.5t-61.5 32t-64.5 12q-31 0 -54.5 -10.5t-39.5 -28.5t-24 -41.5t-8 -48.5q0 -29 10.5 -57t32.5 -50t55.5 -36t79.5 -14z" />
    <glyph glyph-name="backslash" unicode="\" horiz-adv-x="282" 
d="M214 -33q-7 15 -19 49.5t-26.5 82t-31 104t-33 115t-32 116t-28 106.5t-21.5 86t-12 55q-1 8 5 8q10 0 28.5 -8.5t33.5 -8.5q19 0 20 22q0 4 5 -15t11.5 -47t13.5 -58t11 -48q3 -13 14 -57t25 -102t29.5 -122t27.5 -116.5t18.5 -85.5t3.5 -29q-6 8 -11 8q-6 0 -9.5 -9.5
t-6 -21.5t-5 -21.5t-5.5 -9.5t-6 7z" />
    <glyph glyph-name="asciicircum" unicode="^" horiz-adv-x="404" 
d="M230 694q10 0 17 7t14 7q5 0 11 -13q9 -24 20 -51.5t21 -59t18 -66t10 -70.5q0 -10 -6 -10q-5 0 -14 5t-19 11.5t-21 11.5t-20 5q-8 0 -14.5 -6t-9.5 -21q-1 -4 -2.5 3.5t-3.5 23t-5 38.5t-7 48q-2 14 -3.5 26.5t-3.5 24.5l-24 -44q-12 -23 -23 -43.5t-18.5 -34.5
t-11.5 -20.5t-3 -2.5q5 22 -5 29t-25 7t-31.5 -3.5t-27.5 -3.5q-14 0 -9 12q15 33 34 62.5t40 55.5t41.5 48t37.5 40q6 7 11 7q4 0 7.5 -3.5t7 -8t7.5 -8t10 -3.5z" />
    <glyph glyph-name="underscore" unicode="_" horiz-adv-x="41" 
d="M-1573 -420q-1 -11 -10 -11t-25 12t-35.5 27t-40.5 27t-41 12q-31 0 -51 -38q-3 -7 -7 -7q-6 0 -6.5 21t13 52.5t45 68.5t88.5 68.5t144.5 52.5t213.5 21q85 0 178.5 -9t192.5 -20q103 -12 205.5 -21.5t199.5 -9.5q112 0 205.5 18t161 64.5t105 127t37.5 204.5q0 8 6 14
t14 6q14 0 17 -10t3 -21q0 -146 -41 -243.5t-115.5 -156t-179.5 -83t-233 -24.5q-108 0 -220.5 12.5t-224.5 26.5q-102 13 -197 23.5t-177 10.5q-55 0 -93.5 -15t-64.5 -43t-42 -68t-25 -89z" />
    <glyph glyph-name="grave" unicode="`" horiz-adv-x="219" 
d="M147 444q-13 12 -30 26.5t-34.5 31.5t-34 37t-30.5 43q-6 10 11 10q5 0 12.5 -0.5t15.5 -0.5q14 0 24 5t5 24q-1 3 2.5 -1t10.5 -14t16.5 -24t19.5 -29q11 -16 21 -30.5t17 -25.5t10 -18t-2 -7h-2q-1 0 -1.5 0.5t-2.5 0.5q-5 0 -6.5 -5.5t-2.5 -12t-2 -12t-5 -5.5t-12 7z
" />
    <glyph glyph-name="a" unicode="a" horiz-adv-x="433" 
d="M315 0q-37 0 -52.5 33.5t-18.5 87.5q-8 -21 -19.5 -42.5t-27.5 -39t-37 -28.5t-48 -11t-50 12t-39.5 33t-26 50.5t-9.5 63.5q0 44 15.5 89.5t42.5 82.5t65 60t83 23q26 0 45.5 -8.5t31.5 -22.5l5 25q2 6 5 6q4 0 12 -6.5t17 -14.5t19 -14.5t19 -6.5q11 0 18 14
q2 3 1.5 -3t-2.5 -18t-5 -28.5t-6 -34.5q-6 -29 -13.5 -62.5t-14.5 -66t-12 -61t-5 -46.5q0 -25 9 -25q2 0 7.5 4t13.5 15t20 29.5t27 48.5q21 39 34 70q8 17 14 32q5 12 19 12q11 0 16 -8.5t2 -17.5q-6 -19 -17.5 -44t-25 -51t-27.5 -50t-27 -40q-31 -41 -58 -41zM124 40
q20 0 36.5 17.5t30 45t24 61t18.5 64.5t12.5 56.5t6.5 37.5q0 22 -12 37t-35 15q-21 0 -39 -13.5t-32 -35t-25 -49t-18 -55t-10.5 -52.5t-3.5 -42q0 -12 2 -27t7.5 -28.5t14.5 -22.5t23 -9z" />
    <glyph glyph-name="b" unicode="b" horiz-adv-x="405" 
d="M55 0q-33 0 -46.5 39.5t-13.5 102.5q0 43 5 94t13 104.5t18 106.5t19 100t17.5 86t12.5 63q2 6 5 6q4 0 12 -6.5t17 -14.5t19 -14.5t19 -6.5q11 0 18 14q2 3 1.5 -3t-2.5 -18t-5 -28t-6 -34q-3 -15 -8.5 -40.5t-12.5 -57t-15.5 -68t-16.5 -74.5q17 26 42.5 44.5
t60.5 18.5q27 0 50 -12t39.5 -33t26 -50t9.5 -64q0 -44 -15 -88t-41 -81q43 27 75.5 66.5t52.5 87.5q5 12 19 12q11 0 16.5 -8t1.5 -18q-18 -46 -50 -87t-73 -72t-89 -49t-98 -18q-17 0 -29.5 2t-28.5 9q-5 -11 -19 -11zM196 374q-19 0 -36 -17.5t-30.5 -45t-24 -61
t-18.5 -64.5t-12.5 -56.5t-6.5 -37.5q0 -22 12 -37t35 -15q21 0 39 13.5t32 35t25 49t18 55t10.5 52.5t3.5 42q0 12 -2 27t-7 28.5t-14.5 22.5t-23.5 9z" />
    <glyph glyph-name="c" unicode="c" horiz-adv-x="355" 
d="M392 226q-16 -42 -38 -82.5t-52.5 -72.5t-69.5 -51.5t-90 -19.5q-37 0 -66 12.5t-49 34t-30 50t-10 61.5q0 42 14.5 87.5t41 83t64.5 61.5t85 24q39 0 63 -15.5t36 -39t12.5 -52t-7.5 -55.5q-1 -5 -5 -5q-7 0 -19 10t-28 10q-13 0 -26 -13q1 13 4 33.5t2 39.5t-7.5 33
t-24.5 14q-29 0 -50.5 -28.5t-36 -67.5t-21.5 -78.5t-7 -61.5q0 -16 4.5 -39.5t21 -41t48.5 -17.5q41 0 73 19t56.5 48.5t43 64.5t31.5 68q5 12 19 12q10 0 16 -8.5t2 -17.5z" />
    <glyph glyph-name="d" unicode="d" horiz-adv-x="432" 
d="M314 0q-33 0 -46.5 39.5t-13.5 102.5v5q-7 -21 -18 -47t-28.5 -48t-41 -37t-54.5 -15q-27 0 -50 12t-39.5 33t-26 50.5t-9.5 63.5q0 44 15.5 89.5t42.5 82.5t65 60t83 23q30 0 51 -11t33 -28q8 49 17 97t17.5 90t16 77t11.5 57q2 6 5 6q4 0 12 -6.5t17 -14.5t19 -14.5
t19 -6.5q11 0 18 14q2 3 1.5 -3t-2.5 -18t-5 -28t-6 -34q-4 -22 -14 -65t-21.5 -96t-24 -110.5t-22.5 -109.5t-16.5 -93t-6.5 -61q0 -15 4 -15q2 0 7.5 4t13.5 15t20 30t27 48q21 39 34 70q8 17 14 32q5 12 19 12q11 0 16.5 -8.5t1.5 -17.5q-8 -21 -19 -45.5t-23.5 -50
t-26.5 -48.5t-28 -41q-31 -41 -58 -41zM124 40q20 0 36.5 17.5t30 45t24 61t18.5 64.5t12.5 56.5t6.5 37.5q0 22 -12 37t-35 15q-21 0 -39 -13.5t-32 -35t-25 -49t-18 -55t-10.5 -52.5t-3.5 -42q0 -12 2 -27t7.5 -28.5t14.5 -22.5t23 -9z" />
    <glyph glyph-name="e" unicode="e" horiz-adv-x="347" 
d="M84 194q27 3 51.5 14t43.5 28.5t30 40t11 47.5q0 23 -9.5 36.5t-25.5 13.5q-21 0 -38.5 -20.5t-30.5 -49.5t-21 -59.5t-11 -50.5zM384 226q-15 -40 -37 -80t-51 -72.5t-67.5 -53t-86.5 -20.5q-37 0 -65.5 14t-48 37.5t-29 54t-9.5 64.5q0 43 14.5 86.5t40.5 78.5t62 57
t79 22q48 0 81 -27t33 -72q0 -36 -22.5 -65.5t-55.5 -50.5t-71.5 -33t-70.5 -13q0 -12 2 -31.5t10 -37.5t23 -31t42 -13q36 0 65.5 20.5t53.5 51t41.5 65.5t29.5 63q5 12 19 12q10 0 16 -8.5t2 -17.5z" />
    <glyph glyph-name="f" unicode="f" horiz-adv-x="175" 
d="M175 240q5 12 19 12q11 0 16.5 -8t1.5 -18q-44 -111 -144 -173q14 -14 22.5 -33.5t13.5 -40.5t7 -41.5t2 -38.5q0 -19 -3.5 -44.5t-11.5 -49t-22.5 -39.5t-36.5 -16q-18 0 -30 12.5t-19 35t-10 54t-3 69.5t2.5 80t5.5 88q7 91 19 188t25 181.5t24 148.5t16 89q2 6 5 6
q4 0 12 -6.5t17 -14.5t19 -14.5t19 -6.5q11 0 18 14q2 3 1.5 -3t-2.5 -18t-5 -28t-6 -34q-4 -18 -13 -69t-21 -119.5t-25.5 -148.5t-24.5 -157q38 26 66.5 63.5t45.5 79.5zM43 -210q9 0 15 14t9 32.5t4.5 37.5t1.5 29q0 9 -1 23t-3.5 29t-7 29.5t-10.5 26.5
q-8 -58 -12.5 -105.5t-4.5 -76.5q0 -39 9 -39z" />
    <glyph glyph-name="g" unicode="g" horiz-adv-x="435" 
d="M194 414q30 0 51.5 -11t33.5 -30l6 35q2 6 5 6q4 0 12 -6.5t17 -14.5t19 -14.5t19 -6.5q11 0 18 14q2 3 1 -3t-2.5 -18t-4.5 -28.5t-6 -34.5q-8 -47 -17.5 -98t-21.5 -104q36 27 64.5 61t46.5 79q5 12 19 12q8 0 15 -8t3 -18q-25 -64 -65 -106t-95 -74q-13 -51 -28 -99
t-33 -90q-49 -108 -108 -108q-23 0 -43.5 9t-36.5 25t-25 36.5t-9 43.5q0 34 17 58.5t45 44.5t64.5 38t74.5 37q4 20 7 39t6 39q-9 -17 -21 -33.5t-27.5 -29.5t-36 -21t-45.5 -8t-47.5 7.5t-40 24t-27.5 42t-10 61.5q0 43 15.5 88t42.5 81.5t65 59.5t83 23zM123 67
q23 0 41 15.5t31.5 40t24 54.5t17 58t10.5 51.5t6 35.5q0 22 -14.5 37t-37.5 15q-21 0 -38.5 -13.5t-31.5 -35t-24 -48.5t-16.5 -53.5t-10 -50.5t-3.5 -39q0 -29 11.5 -48t34.5 -19zM143 -211q8 1 16.5 14.5t16.5 34t15.5 45t13.5 47.5t10 42t6 27q-28 -15 -55.5 -31
t-49 -33t-34.5 -35t-13 -37q0 -14 6 -27.5t16.5 -24t23.5 -16.5t28 -6z" />
    <glyph glyph-name="h" unicode="h" horiz-adv-x="410" 
d="M362 138q21 39 34 70q8 17 14 32q5 12 19 12q11 0 16.5 -8.5t1.5 -17.5q-8 -21 -19 -45.5t-23.5 -50t-26.5 -48.5t-28 -41q-16 -21 -30.5 -31t-34.5 -10q-19 0 -31 8t-19 21t-10 29t-3 32q0 19 4.5 48.5t10.5 62.5t10.5 65t4.5 56q0 23 -5 37.5t-17 14.5q-18 0 -36 -22
t-35 -56t-32 -76t-26.5 -81t-18 -71t-7.5 -47v-5q-2 -7 -5.5 -10t-8.5 -5q-2 -1 -7 -1h-3q-31 2 -44 41.5t-13 100.5q0 43 5 94t13 104.5t18 106.5t19 100t17.5 86t12.5 63q2 6 5 6q4 0 12 -6.5t17 -14.5t19 -14.5t19 -6.5q11 0 18 14q2 3 1.5 -3t-2.5 -18t-5 -28t-6 -34
q-3 -17 -10 -46.5t-15 -66.5t-17.5 -79t-18.5 -85t-17.5 -84t-14.5 -76q5 21 13 48.5t19.5 56.5t25.5 56.5t32 49.5t39 35.5t46 13.5q27 0 46 -10.5t32 -28.5t19 -41.5t6 -50.5q0 -33 -9.5 -74.5t-20 -79t-17.5 -63t-1 -25.5q2 0 7.5 4t13.5 15t20 29.5t27 48.5z" />
    <glyph glyph-name="i" unicode="i" horiz-adv-x="183" 
d="M41 481q0 20 12.5 32.5t32.5 12.5t32.5 -12.5t12.5 -32.5t-12.5 -32.5t-32.5 -12.5t-32.5 12.5t-12.5 32.5zM65 0q-20 0 -33.5 11t-22 30.5t-12 46.5t-3.5 58q0 32 3 66t7.5 68.5t10 67t10.5 60.5q2 6 5 6q4 0 12 -6.5t17 -14.5t19 -14.5t19 -6.5q11 0 18 14q2 3 1.5 -3
t-2.5 -18t-5 -28.5t-6 -34.5q-6 -29 -13.5 -62.5t-14.5 -66t-12 -61t-5 -46.5q0 -25 9 -25q2 0 7.5 4t13.5 15t20 30t27 48q21 39 34 70q8 17 14 32q5 12 19 12q11 0 16.5 -8.5t1.5 -17.5q-8 -21 -19 -45.5t-23.5 -50t-26.5 -48.5t-28 -41q-31 -41 -58 -41z" />
    <glyph glyph-name="j" unicode="j" horiz-adv-x="171" 
d="M172 240q5 12 19 12q11 0 16.5 -8t1.5 -18q-22 -57 -61.5 -103.5t-92.5 -75.5q-14 -66 -30.5 -126.5t-36.5 -105.5q-13 -29 -28.5 -47.5t-32.5 -18.5q-11 0 -16 5.5t-5 13.5t5.5 14.5t15.5 6.5q2 0 6 15t8 40q12 70 21 140.5l18 141t19 141t23 140.5q2 6 5 6q4 0 12 -6.5
t17.5 -14.5t19.5 -14.5t19 -6.5q11 0 18 14q1 1 1 -3q0 -6 -2 -19t-4.5 -29.5t-5.5 -34t-6 -31.5l-30 -167q35 26 62 62.5t44 76.5zM38 481q0 20 12.5 32.5t32.5 12.5t32.5 -12.5t12.5 -32.5t-12.5 -32.5t-32.5 -12.5t-32.5 12.5t-12.5 32.5z" />
    <glyph glyph-name="k" unicode="k" horiz-adv-x="381" 
d="M417 226q-8 -21 -19 -45.5t-23.5 -50t-26.5 -48.5t-28 -41q-16 -21 -31 -31t-38 -10q-21 0 -35 8t-24 21t-15.5 30.5t-8.5 35.5q-2 12 -3 24.5t-3.5 24.5t-7 22.5t-14.5 19.5q-21 20 -52 26q-4 -1 -12 -1q-10 -53 -16.5 -94t-6.5 -61q0 -15 4 -15q10 0 14.5 -6t4.5 -14
t-5 -14.5t-16 -6.5q-33 0 -46.5 39.5t-13.5 102.5q0 43 5 94t13 104.5t18 106.5t19 100t17.5 86t12.5 63q2 6 5 6q4 0 12 -6.5t17 -14.5t19 -14.5t19 -6.5q11 0 18 14q2 3 1.5 -3t-2.5 -18t-5 -28t-6 -34q-4 -20 -12 -57t-18.5 -83t-21.5 -97.5t-21 -100.5h7q41 7 69.5 28.5
t48 48t31.5 53.5t19 43q4 10 11 10q5 0 10.5 -3.5t12.5 -8t13.5 -8t12.5 -3.5q9 0 18 13q2 2 2 -2q0 -8 -6.5 -32t-24 -53.5t-48 -59t-78.5 -47.5q35 -18 55.5 -53t20.5 -93v-13v-15t1 -12t4 -5q2 0 7.5 4t13.5 15t20 29.5t27 48.5q21 39 34 70q8 17 14 32q5 12 19 12
q11 0 16.5 -8.5t1.5 -17.5z" />
    <glyph glyph-name="l" unicode="l" horiz-adv-x="172" 
d="M55 0q-33 0 -46.5 39.5t-13.5 102.5q0 43 5 94t13 104.5t18 106.5t19 100t17.5 86t12.5 63q2 6 5 6q4 0 12 -6.5t17 -14.5t19 -14.5t19 -6.5q11 0 18 14q2 3 1.5 -3t-2.5 -18t-5 -28t-6 -34q-4 -22 -14 -65t-21.5 -96t-24 -110.5t-22.5 -109.5t-16.5 -93t-6.5 -61
q0 -15 4 -15q2 0 7.5 4t13.5 15t20 30t27 48q21 39 34 70q8 17 14 32q5 12 19 12q11 0 16.5 -8.5t1.5 -17.5q-8 -21 -19 -45.5t-23.5 -50t-26.5 -48.5t-28 -41q-31 -41 -58 -41z" />
    <glyph glyph-name="m" unicode="m" horiz-adv-x="633" 
d="M284 0q-18 1 -29 9.5t-18 21t-9.5 28.5t-2.5 31q0 19 4.5 48.5t10.5 62.5t10.5 65t4.5 56q0 23 -4.5 37.5t-15.5 14.5q-16 0 -33 -22.5t-33.5 -57.5t-31 -78t-25.5 -82.5t-17.5 -71.5t-6.5 -46q-3 -11 -15 -15q-1 -1 -2 -1h-7q-20 0 -33 11.5t-21 31t-11.5 46t-3.5 57.5
q0 32 3 66t7.5 68.5t10 67t10.5 60.5q2 6 5 6q4 0 12 -6.5t17 -14.5t19 -14.5t19 -6.5q11 0 18 14q2 3 1.5 -3t-2.5 -18t-5 -28.5t-6 -34.5q-4 -23 -10 -49.5t-12 -53.5t-11.5 -52.5t-8.5 -46.5q8 33 18 67.5t23 72.5q12 35 26.5 66.5t32 55.5t38.5 38t46 14
q47 0 71.5 -34.5t26.5 -83.5q23 51 53 84.5t69 33.5q26 0 44.5 -10.5t30.5 -28.5t18 -41.5t6 -50.5q0 -33 -9.5 -74.5t-20 -79t-17.5 -63t-1 -25.5q2 0 7.5 4t13.5 15t20 29.5t27 48.5q21 39 34 70q8 17 14 32q5 12 19 12q11 0 16.5 -8.5t1.5 -17.5q-8 -21 -19 -45.5
t-23.5 -50t-26.5 -48.5t-28 -41q-16 -21 -30.5 -31t-34.5 -10q-19 0 -31 8t-19 21t-10 29t-3 32q0 19 4.5 48.5t10.5 62.5t10.5 65t4.5 56q0 23 -4.5 37.5t-15.5 14.5q-12 0 -23 -10.5t-21.5 -29t-21 -43t-21.5 -51.5q-13 -33 -23.5 -67t-18 -64t-12 -54.5t-6.5 -38.5
q-3 -10 -10 -13q-4 -3 -10 -3h-4z" />
    <glyph glyph-name="n" unicode="n" horiz-adv-x="421" 
d="M373 138q21 39 34 70q8 17 14 32q5 12 19 12q11 0 16.5 -8.5t1.5 -17.5q-8 -21 -19 -45.5t-23.5 -50t-26.5 -48.5t-28 -41q-16 -21 -30.5 -31t-34.5 -10q-19 0 -31 8t-19 21t-10 29t-3 32q0 19 4.5 48.5t10.5 62.5t10.5 65t4.5 56q0 23 -5 37.5t-17 14.5
q-18 0 -36.5 -22.5t-35.5 -57t-32 -77t-26.5 -82t-18 -72t-6.5 -47.5q-3 -11 -15 -15q-1 -1 -2 -1h-7q-20 0 -33 11.5t-21 31t-11.5 46t-3.5 57.5q0 32 3 66t7.5 68.5t10 67t10.5 60.5q2 6 5 6q4 0 12 -6.5t17 -14.5t19 -14.5t19 -6.5q11 0 18 14q2 3 1.5 -3t-2.5 -18
t-5 -28.5t-6 -34.5q-6 -28 -13.5 -61t-14.5 -64.5t-12 -59.5t-5 -47q5 24 13 59t19 73t26.5 76t35 68t44.5 49t55 19q27 0 46 -10.5t32 -28.5t19 -41.5t6 -50.5q0 -33 -9.5 -74.5t-20 -79t-17.5 -63t-1 -25.5q2 0 7.5 4t13.5 15t20 29.5t27 48.5z" />
    <glyph glyph-name="o" unicode="o" horiz-adv-x="402" 
d="M402 240q5 12 19 12q8 0 13.5 -5.5t5.5 -13.5q0 -5 -1 -7q-8 -19 -36.5 -36t-68.5 -30q-12 -32 -30.5 -61t-43.5 -51t-55 -35t-65 -13q-42 0 -73 13t-51 34.5t-30 49.5t-10 57q0 44 20.5 84t60.5 62q5 21 17 39.5t30.5 33t44 23t58.5 8.5q38 0 65 -12t44.5 -32.5t26 -48
t8.5 -58.5q0 -11 -1 -22.5t-3 -22.5q23 9 38 18t17 14zM219 181q21 0 43 3q9 38 9 75q0 44 -15.5 74.5t-49.5 30.5q-25 0 -42 -13t-27 -33q5 -3 8 -9t3 -11q0 -8 -5.5 -14t-14.5 -6h-3q-1 -5 -1 -9.5v-9.5q0 -44 28 -61t67 -17zM142 40q35 0 62.5 30t44.5 73q-9 -1 -17.5 -1
h-16.5q-45 0 -83.5 13t-59.5 45q-6 -25 -6 -53q0 -21 4 -40t13 -34t23.5 -24t35.5 -9z" />
    <glyph glyph-name="p" unicode="p" horiz-adv-x="426" 
d="M153 0q-29 0 -54.5 9t-39.5 38q-14 -65 -30.5 -126t-36.5 -106q-13 -29 -28.5 -47.5t-32.5 -18.5q-11 0 -16 5.5t-5 13.5t5.5 14.5t15.5 6.5q2 0 6 15t8 40q23 140 39.5 282t41.5 281q2 6 5 6q4 0 12 -6.5t17.5 -14.5t19.5 -14.5t19 -6.5q11 0 18 14q1 1 1 -3
q0 -7 -2.5 -23t-5.5 -36q9 17 20 33.5t26 29.5t33 20.5t40 7.5q27 0 50 -12t39.5 -33t26 -50t9.5 -64q0 -44 -15 -88t-41 -81q43 27 75.5 66.5t52.5 87.5q5 12 19 12q11 0 16.5 -8t1.5 -18q-18 -46 -50 -87t-73 -72t-89 -49t-98 -18zM217 374q-19 0 -36 -17.5t-30.5 -45
t-24 -61t-18.5 -64.5t-12.5 -56.5t-6.5 -37.5q0 -22 12 -37t35 -15q21 0 39 13.5t32 35t25 49t18 55t10.5 52.5t3.5 42q0 12 -2 27t-7 28.5t-14.5 22.5t-23.5 9z" />
    <glyph glyph-name="q" unicode="q" horiz-adv-x="451" 
d="M452 240q5 12 19 12q11 0 16.5 -8t1.5 -18q-25 -63 -71.5 -113.5t-108.5 -78.5q-8 -36 -15 -71t-12 -65t-8 -54t-3 -38q0 -15 4 -15q10 0 14.5 -6t4.5 -14t-5 -14.5t-16 -6.5q-33 0 -46.5 39.5t-13.5 102.5q0 45 4.5 95.5t12.5 101.5q-9 -17 -20.5 -33t-26 -28.5t-32 -20
t-39.5 -7.5q-27 0 -50 12t-39.5 33t-26 50.5t-9.5 63.5q0 44 15.5 89.5t42.5 82.5t65 60t83 23q34 0 56 -13.5t33 -35.5q3 12 5 23t4 20q1 6 5 6t12 -6.5t17 -14.5t19 -14.5t19 -6.5q11 0 18 14q2 3 1.5 -3t-2.5 -18t-5 -28.5t-6 -33.5q-6 -31 -20 -90.5t-29 -128.5
q45 26 79 67.5t53 88.5zM124 40q20 0 36.5 17.5t30 45t24 61t18.5 64.5t12.5 56.5t6.5 37.5q0 22 -12 37t-35 15q-21 0 -39 -13.5t-32 -35t-25 -49t-18 -55t-10.5 -52.5t-3.5 -42q0 -12 2 -27t7.5 -28.5t14.5 -22.5t23 -9z" />
    <glyph glyph-name="r" unicode="r" horiz-adv-x="342" 
d="M27 309q-12 10 -16.5 25.5t-4.5 33.5q0 6 2.5 25.5t6.5 40.5t9 37t9 16t10.5 -6.5t14 -14.5t16 -14.5t16.5 -6.5q10 0 17 13q2 3 2 0q0 -5 -3.5 -21t-8 -35t-9 -37t-7.5 -26q23 3 40 10t29.5 15.5t20 16.5t10.5 11l3 16q2 6 5 6q4 0 12 -6.5t17 -14.5t19 -14.5t19 -6.5
q11 0 18 14q2 3 1.5 -3t-2.5 -18t-5 -28.5t-6 -34.5q-6 -29 -13.5 -62.5t-14.5 -66t-12 -61t-5 -46.5q0 -25 9 -25q2 0 7.5 4t13.5 15t20 29.5t27 48.5q21 39 34 70q8 17 14 32q5 12 19 12q11 0 16 -8.5t2 -17.5q-6 -19 -17.5 -44t-25 -51t-27.5 -50t-27 -40
q-31 -41 -58 -41q-20 0 -33.5 11t-22 30.5t-12 46.5t-3.5 58q0 43 5 91t12 93q-19 -12 -44.5 -21.5t-59.5 -9.5l-29 -73q-2 -6 -7.5 -9t-11.5 -3q-11 0 -16 8.5t-2 17.5z" />
    <glyph glyph-name="s" unicode="s" horiz-adv-x="326" 
d="M363 226q-13 -32 -44.5 -46t-71.5 -19q-10 -33 -29.5 -62.5t-45 -51.5t-56 -34.5t-63.5 -12.5q-46 0 -70.5 23.5t-24.5 57.5q0 40 18.5 62.5t48.5 34t67.5 14.5t74.5 4q1 4 1 14q0 18 -4.5 44t-13.5 50t-23.5 41.5t-34.5 18.5h-1q-2 -6 -10.5 -28t-18.5 -47
q-11 -29 -25 -63q-2 -6 -7.5 -9t-11.5 -3q-9 0 -14 6t-5 14q0 4 1 6q13 32 23 59q10 23 18.5 45.5t10.5 30.5q-13 10 -18 26t-5 36q0 6 2.5 25t6.5 39t8.5 36t8.5 16t10.5 -6.5t14 -14.5t16 -14.5t16.5 -6.5q10 0 17 13q1 2 2 2v-2q0 -5 -3 -20.5t-7.5 -34.5t-9.5 -37
t-8 -29q36 -2 64.5 -16t49 -36.5t31 -53t10.5 -66.5q0 -8 -0.5 -15t-1.5 -15q26 4 44 13t26 26q5 12 19 12q8 0 13.5 -5.5t5.5 -13.5q0 -5 -1 -7zM49 40q23 0 41 9.5t32 25.5t24 37t15 43q-32 -1 -61.5 -3.5t-52 -10t-36 -22t-13.5 -39.5q0 -17 12.5 -28.5t38.5 -11.5z" />
    <glyph glyph-name="t" unicode="t" horiz-adv-x="172" 
d="M55 0q-33 0 -46.5 39.5t-13.5 102.5q0 42 5 92t12.5 102t17 104t18.5 99h-33q-8 0 -14 6t-6 14t6 14t14 6h41q8 37 14 67l10 50q2 6 5 6q4 0 12 -6.5t17 -14.5t19 -14.5t19 -6.5q11 0 18 14q2 3 1.5 -3t-2.5 -18t-5 -28t-6 -34l-3 -12h32q8 0 14 -6t6 -14t-6 -14t-14 -6
h-40q-7 -33 -17 -77.5t-20.5 -92.5t-20.5 -96.5t-18 -91t-13 -75.5t-5 -50q0 -15 4 -15q2 0 7.5 4t13.5 15t20 30t27 48q21 39 34 70q8 17 14 32q5 12 19 12q11 0 16.5 -8.5t1.5 -17.5q-8 -21 -19 -45.5t-23.5 -50t-26.5 -48.5t-28 -41q-31 -41 -58 -41z" />
    <glyph glyph-name="u" unicode="u" horiz-adv-x="413" 
d="M295 0q-30 0 -46 23t-21 61q-42 -84 -116 -84q-33 0 -55.5 16t-36 42t-19 58t-5.5 64q0 29 3.5 59t8.5 59.5t11 57.5t10 52q2 6 5 6q4 0 12 -6.5t17 -14.5t19 -14.5t19 -6.5q11 0 18 14q2 3 1.5 -3t-2.5 -18t-5 -28.5t-6 -34.5q-2 -10 -7 -33.5t-9.5 -52.5t-7 -60
t-0.5 -57t10.5 -42.5t26.5 -16.5q25 0 43.5 21t31.5 50.5t21 60.5t12 52q5 49 12 97t15 87q2 6 5 6q4 0 12 -6.5t17 -14.5t19 -14.5t19 -6.5q11 0 18 14q2 3 1.5 -3t-2.5 -18t-5 -28.5t-6 -34.5q-6 -29 -13.5 -62.5t-14.5 -66t-12 -61t-5 -46.5q0 -25 9 -25q2 0 7.5 4
t13.5 15t20 30t27 48q21 39 34 70q8 17 14 32q5 12 19 12q11 0 16.5 -8.5t1.5 -17.5q-8 -21 -19 -45.5t-23.5 -50t-26.5 -48.5t-28 -41q-31 -41 -58 -41z" />
    <glyph glyph-name="v" unicode="v" horiz-adv-x="381" 
d="M381 240q5 12 19 12q11 0 16.5 -8t1.5 -18q-17 -44 -48 -84.5t-71 -72t-86.5 -50.5t-95.5 -19q-34 0 -57.5 16t-37 42t-19.5 58t-6 64q0 58 12 118.5t21 108.5q2 6 5 6q4 0 11 -6.5t15.5 -14.5t17.5 -14.5t18 -6.5q11 0 18 14q2 3 1.5 -3t-2.5 -18t-5 -28t-6 -34
q-2 -9 -6 -28t-8 -43.5t-7 -51.5t-3 -52q0 -36 9 -61.5t34 -25.5q24 0 45.5 27.5t38 68t26 86.5t9.5 83q0 24 -4 42t-14 27q-4 3 -4 8t6 11t13 11.5t13 11.5t6 11q0 4 -4 7q-1 1 -1 2q0 2 10.5 -2t23 -16.5t23 -35t10.5 -58.5q0 -22 -6.5 -53.5t-18 -66t-28.5 -69t-38 -62.5
q53 26 92 69.5t61 97.5z" />
    <glyph glyph-name="w" unicode="w" horiz-adv-x="592" 
d="M592 240q5 12 19 12q11 0 16.5 -8t1.5 -18q-17 -44 -48 -84.5t-71 -72t-86.5 -50.5t-95.5 -19q-48 0 -72 26.5t-33 65.5q-41 -92 -115 -92q-32 0 -53.5 16t-34 42t-18 58t-5.5 64q0 29 3.5 59t8.5 59.5t11 57.5t10 52q2 6 5 6q4 0 12 -6.5t17 -14.5t19 -14.5t19 -6.5
q11 0 18 14q2 3 1.5 -3t-2.5 -18t-5 -28.5t-6 -34.5q-2 -9 -6 -29t-7.5 -45t-6.5 -53t-3 -53q0 -35 7.5 -58.5t27.5 -23.5q17 0 30.5 11.5t24 30t18.5 41t13.5 44.5t9 41t5.5 30q0 4 1 5q5 35 10.5 65t10.5 52q2 6 5 6q4 0 11 -6.5t15.5 -14.5t17.5 -14.5t18 -6.5
q11 0 18 14q2 3 1.5 -3t-2.5 -18t-5 -28t-6 -34q-1 -8 -4 -23t-6 -33.5t-5.5 -38.5t-2.5 -40q0 -32 9 -56t34 -24q23 0 43 27.5t35 68t24 86.5t9 83q0 24 -4 42t-14 27q-4 3 -4 8t6 11t13 11.5t13 11.5t6 11q0 4 -4 7q-1 1 -1 2q0 2 10.5 -2t23 -16.5t23 -35t10.5 -58.5
q0 -22 -6 -53.5t-17 -65t-27 -67.5t-36 -63q51 26 89 69t59 96z" />
    <glyph glyph-name="x" unicode="x" horiz-adv-x="415" 
d="M299 41q2 0 7.5 4t13.5 15t20 30t27 48q21 39 34 70q8 17 14 32q5 12 19 12q11 0 16.5 -8.5t1.5 -17.5q-8 -21 -19 -45.5t-23.5 -50t-26.5 -48.5t-28 -41q-31 -41 -58 -41h-1q-25 0 -42.5 13t-29.5 34.5t-19 49.5t-12 59q-13 -16 -28 -36t-29 -39.5t-25 -38t-17 -32.5
q-4 -10 -11 -10q-4 0 -10 3.5t-13 8t-13.5 8t-12.5 3.5q-9 0 -18 -13q-2 -2 -2 2q0 9 15 31t39.5 50t55.5 59.5t63 59.5q-3 30 -6 59.5t-8 52t-13 36.5t-22 14q-15 0 -24.5 -16t-15.5 -41t-8 -56.5t-2 -63.5q0 -6 -4 -6t-9.5 5t-12 11.5t-14 11.5t-15.5 5q-13 0 -19 -17
q0 -2 -2 -2q-3 0 -7.5 10t-4.5 26q0 36 11 67.5t29.5 55t43 37t52.5 13.5q24 0 42.5 -10.5t31.5 -27.5t22 -40t15 -49q17 31 31.5 63.5t25.5 55.5q4 10 11 10q5 0 10.5 -3.5t12.5 -8t13.5 -8t12.5 -3.5q9 0 18 13q2 2 2 -2q0 -9 -9 -28t-25.5 -44.5t-39.5 -54t-50 -55.5
q4 -30 7.5 -62t8 -58.5t10 -43.5t13.5 -17z" />
    <glyph glyph-name="y" unicode="y" horiz-adv-x="405" 
d="M424 252q8 0 15 -8t3 -18q-25 -64 -65 -105.5t-95 -74.5q-13 -51 -28 -99t-33 -90q-49 -108 -108 -108q-23 0 -43.5 9t-36.5 25t-25 36.5t-9 43.5q0 34 17 58.5t45 44.5t64.5 38t74.5 37l6 35q-17 -14 -37 -22t-46 -8q-34 0 -58 13t-39 35t-22 51t-7 61q0 51 12 102
t21 99q2 6 5 6q4 0 12 -6.5t17 -14.5t19 -14.5t19 -6.5q11 0 18 14q2 3 1.5 -3t-2.5 -18t-5 -28t-6 -34q-2 -10 -6.5 -30t-9 -44t-6.5 -49.5t1 -46t12.5 -33.5t28.5 -13q25 0 42.5 14t29 35.5t18 47t10.5 49.5q6 45 12.5 88.5t14.5 87.5q2 6 5 6q4 0 12 -6.5t17 -14.5
t19 -14.5t19 -6.5q11 0 18 14q2 3 1 -3t-2.5 -18t-4.5 -28.5t-6 -34.5q-8 -47 -17.5 -98t-21.5 -104q36 27 64.5 61t46.5 79q5 12 19 12zM113 -211q8 1 16.5 14.5t16.5 34t15.5 45t13.5 47.5t10 42t6 27q-28 -15 -55.5 -30.5t-49 -33t-34.5 -35.5t-13 -37q0 -14 6 -27.5
t16.5 -24t23.5 -16.5t28 -6z" />
    <glyph glyph-name="z" unicode="z" horiz-adv-x="314" 
d="M351 226q-20 -54 -57.5 -93t-81.5 -71q21 -22 32.5 -51.5t11.5 -64.5q0 -39 -14 -74.5t-39 -62.5t-59 -43t-75 -16q-24 0 -45 8.5t-36.5 24t-25 36t-9.5 44.5q0 33 15 59t39.5 47.5t56 41t65.5 40.5q-15 20 -35 20q-4 0 -10 2l-2 2l-6 6q-2 4 -2 8v7q1 6 8 11q1 1 2 1
q2 2 4 2q2 1 6 1h1q12 3 23.5 31t21 64t16 71t9.5 50q-19 -11 -43.5 -19.5t-55.5 -8.5q-12 -30 -20.5 -51t-8.5 -22q-2 -6 -7.5 -9t-11.5 -3q-11 0 -16 8.5t-2 17.5q4 10 8 21q4 9 9 21.5t10 26.5q-12 10 -16.5 25.5t-4.5 33.5q0 6 2.5 25.5t6.5 40.5t9 37t9 16t10.5 -6.5
t14 -14.5t16 -14.5t16.5 -6.5q10 0 17 13q2 3 2 0q0 -5 -3.5 -21t-8 -35t-9 -37t-7.5 -26q35 4 58 18.5t34 25.5l5 25q2 6 5 6q4 0 11.5 -6.5t16 -14.5t18 -14.5t18.5 -6.5q11 0 18 14q2 3 1.5 -3t-2.5 -17.5t-5 -27.5t-6 -34q-4 -21 -11.5 -49t-19 -56.5t-27 -55.5
t-35.5 -45q6 -2 12 -5.5t11 -6.5q42 29 76.5 65.5t54.5 88.5q5 12 19 12q8 0 15 -8t3 -18zM166 -80q0 17 -4.5 44.5t-14.5 53.5q-31 -20 -59 -38t-49.5 -36t-34 -38t-12.5 -42q0 -14 6 -27.5t16.5 -24t23.5 -16.5t28 -6q28 0 47 11t31 29t17 41.5t5 48.5z" />
    <glyph glyph-name="bar" unicode="|" horiz-adv-x="222" 
d="M114 -63q-3 -11 -8 -11t-12 11t-15 11t-16 -14q-2 -3 -2 17.5t1 57t3 84.5t4 100t4.5 103.5t5 95t4 74t2.5 40.5q1 18 1.5 34.5t1 28.5t0.5 17.5t1 2.5q2 -11 7.5 -14.5t13.5 -3.5q9 0 19 4t20 9.5t18.5 9.5t13.5 4q6 0 6 -7q0 -24 -3.5 -76t-10 -117.5t-14 -138
t-16 -137t-16 -114.5t-13.5 -71z" />
    <glyph glyph-name="asciitilde" unicode="~" horiz-adv-x="572" 
d="M-2573 -420q-1 -11 -10 -11t-25 12t-35.5 27t-40.5 27t-41 12q-31 0 -51 -38q-3 -7 -7 -7q-6 0 -6.5 21t13 52.5t45 68.5t88.5 68.5t144.5 52.5t213.5 21q71 0 197.5 -9.5t287 -21.5t344 -21.5t368.5 -9.5q139 0 274 7.5t256 25.5t223.5 48.5t176.5 77t116 110t42 147.5
q0 8 6 14t14 6q14 0 17 -10t3 -21q0 -103 -43.5 -180.5t-120.5 -133.5t-183.5 -93t-232.5 -59t-266.5 -31t-286.5 -9q-127 0 -254 5.5t-248.5 13.5t-234 17t-209.5 17t-176 13.5t-133 5.5q-55 0 -93.5 -15t-64.5 -43t-42 -68t-25 -89z" />
    <glyph glyph-name="exclamdown" unicode="&#xa1;" horiz-adv-x="213" 
d="M48 311q3 11 8 11t12 -11t15 -11t16 14q2 3 2 -13.5t-1 -45.5t-3 -68.5t-4 -82t-4.5 -85t-5 -78.5t-4 -62.5t-2.5 -36.5q-1 -18 -1.5 -34.5t-1 -28.5t-0.5 -17.5t-1 -2.5q-2 11 -7.5 14.5t-13.5 3.5q-9 0 -19 -4t-20 -9.5t-18.5 -9.5t-13.5 -4q-6 0 -6 7q0 24 3.5 68.5
t10 99t14 114t16 113t16 96t13.5 63.5zM126 404q0 -20 -12 -32t-32 -12t-32 12t-12 32t12 32t32 12t32 -12t12 -32z" />
    <glyph glyph-name="sterling" unicode="&#xa3;" horiz-adv-x="1016" 
d="M394 128q-15 3 -6.5 11t21.5 18.5t20.5 21t-10.5 16.5q-4 1 4.5 1.5t25.5 1t41.5 1t51.5 1.5q5 30 12 69t16.5 82.5t22.5 90t30 91.5l-67 4q-38 2 -76.5 3t-76.5 1q-46 0 -95.5 -6.5t-89.5 -27t-66 -58t-26 -99.5q0 -38 10 -65t26.5 -44t37 -24.5t41.5 -7.5
q58 0 87.5 64.5t29.5 177.5q0 6 4 6t11.5 -5t16.5 -11.5t18.5 -11.5t17.5 -5q13 0 19 17q0 2 2 2q3 0 7.5 -10t4.5 -26q0 -45 -14.5 -87.5t-42.5 -76t-68.5 -54t-92.5 -20.5q-36 0 -70.5 13.5t-62.5 39.5t-45 63.5t-17 84.5q0 73 35.5 115t89.5 63.5t118 27t120 5.5
q37 0 74 -1t75 -3q14 -1 35 -2t46 -2q18 39 39.5 73.5t47 60t56 40t66.5 14.5q22 0 45 -6t42 -18.5t31 -32t12 -45.5q0 -40 -27 -64.5t-68.5 -38.5t-90.5 -19t-94 -5q-14 -52 -20 -100t-10 -75q-5 -32 -10.5 -70.5t-13.5 -80.5q10 1 19.5 1.5t18.5 2.5q26 4 48 6.5t31 2.5
q8 0 4 -2q-13 -6 -14.5 -14t3 -17.5t12.5 -18.5t14 -17t8 -13t-6 -6q-40 -5 -79.5 -8t-77.5 -5q-16 -63 -38.5 -124t-57.5 -112q35 -39 76 -66t98 -27q51 0 87 23t58.5 62t32.5 90t10 107q0 6 4 6t11.5 -5t16.5 -11.5t18.5 -11.5t17.5 -5q13 0 19 17q0 2 2 2q3 0 7.5 -10
t4.5 -26q0 -45 -20.5 -94t-58 -90t-90 -67.5t-117.5 -26.5q-34 0 -63 8t-53.5 21.5t-45.5 31.5t-39 39q-38 -45 -88.5 -72.5t-116.5 -27.5q-63 0 -111 18t-81 46.5t-49.5 65t-16.5 72.5q0 32 14 61.5t39.5 52.5t61.5 36.5t80 13.5q47 0 83 -16t64.5 -41.5t52.5 -57t48 -63.5
q17 43 26.5 89.5t17.5 90.5q-80 2 -135 11zM300 -211q62 0 101.5 30t65.5 77q-24 32 -47 64t-48.5 57.5t-55.5 41.5t-68 16q-31 0 -54.5 -10.5t-39.5 -28.5t-24 -41.5t-8 -48.5q0 -29 10.5 -57t32.5 -50t55.5 -36t79.5 -14zM853 721q-28 0 -50 -12t-39.5 -32.5t-31 -47.5
t-23.5 -57q36 0 72 4.5t64 15t45.5 29.5t17.5 49q0 20 -11.5 35.5t-43.5 15.5z" />
    <glyph glyph-name="dieresis" unicode="&#xa8;" horiz-adv-x="371" 
d="M82 480q0 20 12 32t32 12t32 -12t12 -32t-12 -32t-32 -12t-32 12t-12 32zM202 480q0 20 12 32t32 12t32 -12t12 -32t-12 -32t-32 -12t-32 12t-12 32z" />
    <glyph glyph-name="acute" unicode="&#xb4;" horiz-adv-x="219" 
d="M70 444q-8 -7 -12 -7t-5 5.5t-2 12t-2.5 12t-6.5 5.5q-2 0 -2.5 -0.5t-1.5 -0.5h-2q-4 0 -1.5 7t9.5 18t17 25.5t21 30.5q11 15 20 29t16 24t10.5 14t2.5 1q-5 -19 5 -24t24 -5q8 0 15.5 0.5t12.5 0.5q17 0 11 -10q-13 -23 -30 -43t-34.5 -37t-34.5 -31.5t-30 -26.5z" />
    <glyph glyph-name="cedilla" unicode="&#xb8;" horiz-adv-x="268" 
d="M82 -251q-24 0 -47 3q-9 2 -13.5 8.5t-3.5 14.5q1 10 7.5 13.5t15.5 3.5q3 -1 13 -1.5t13 -0.5q34 0 58.5 18t24.5 54q0 53 -49 53q-11 0 -17.5 7.5t-4.5 18.5l18 82q3 15 19 15q13 0 16 -8t3 -17l-11 -57q21 0 40 -7.5t34 -20.5t23.5 -31t8.5 -40q0 -30 -14 -50.5
t-35.5 -33t-47.5 -18.5t-51 -6z" />
    <glyph glyph-name="questiondown" unicode="&#xbf;" horiz-adv-x="444" 
d="M281 406q0 -20 -12 -32t-32 -12t-32 12t-12 32t12 32t32 12t32 -12t12 -32zM216 311q0 9 5.5 13.5t13.5 4.5q7 0 12.5 -4.5t5.5 -13.5q0 -34 -13.5 -67t-33.5 -65t-44 -64t-44 -65.5t-33.5 -68.5t-13.5 -73q0 -10 2 -29.5t10.5 -39t26.5 -34.5t50 -15q29 0 48 14t30 37.5
t16 53t5 61.5q0 6 4 6t11.5 -5t16 -11.5t18 -11.5t17.5 -5q13 0 19 17q0 2 2 2q3 0 7.5 -10t4.5 -26q0 -36 -15 -66t-41 -51t-59.5 -33t-71.5 -12q-53 0 -91 16.5t-62 42t-35 57t-11 61.5q0 37 18 74.5t45 73.5t58.5 70t58.5 64t45 56t18 46z" />
    <glyph glyph-name="Agrave" unicode="&#xc0;" horiz-adv-x="1083" 
d="M0 506q0 49 16 83.5t43 58t63 37t75.5 20.5t81 9t78.5 2q102 0 203 -3t203 -3h8q65 0 106.5 -19.5t65.5 -54t33 -81t9 -99.5q0 -47 -5 -96.5t-12 -100.5q26 5 43.5 7t12.5 0q-14 -7 -14 -18q0 -9 6.5 -18t14.5 -17.5t14.5 -15.5t6.5 -11q0 -3 -6 -5q-30 -6 -92 -11
q-10 -61 -17.5 -115.5t-7.5 -96.5q0 -51 15 -79.5t54 -28.5q6 0 6 -4t-5 -11.5t-11.5 -16t-11.5 -18t-5 -17.5q0 -13 17 -19q2 0 2 -2q0 -3 -10 -7.5t-26 -4.5q-35 0 -58.5 12.5t-37.5 35t-20 54.5t-6 71q0 52 7.5 112.5t17.5 126.5q-31 -2 -63 -4t-62 -4t-56.5 -3t-47.5 -2
q-16 -73 -41 -145t-65 -128t-97 -91t-136 -35q-46 0 -91 12.5t-81 36t-58.5 57.5t-22.5 78q0 40 18.5 72t48.5 55t67.5 35.5t75.5 12.5t71.5 -12t59.5 -33t41 -51t15 -66q0 -16 -4.5 -26t-7.5 -10q-2 0 -2 2q-6 17 -19 17q-8 0 -17.5 -5t-18 -11.5t-16 -11.5t-11.5 -5t-4 6
q0 31 -5 61t-16 53.5t-30 37.5t-48 14q-20 0 -41 -7.5t-38 -23t-28 -39t-11 -56.5q0 -30 10.5 -57.5t31.5 -49t52.5 -34t73.5 -12.5q73 0 117 36.5t69.5 91.5t37.5 118.5t21 117.5q-36 6 -58 22t-22 45q0 11 6.5 16t14.5 5t14 -4.5t6 -14.5q0 -9 25 -9h24q7 45 18 109
t28.5 129t41.5 124t58 94q-82 2 -163.5 4t-163.5 2q-46 0 -95.5 -3t-90 -19t-66.5 -50.5t-26 -97.5q0 -27 9.5 -50t25 -40.5t35.5 -27.5t41 -10q22 0 43.5 13t39 41.5t28 75.5t10.5 114q0 6 4 6t11.5 -5t16 -11.5t18 -11.5t17.5 -5q13 0 19 17q0 2 2 2q3 0 7.5 -10t4.5 -26
q0 -62 -19 -106.5t-49.5 -73t-69.5 -42t-79 -13.5q-37 0 -72 11t-62.5 32t-44 51.5t-16.5 68.5zM760 670q-2 0 -2.5 -0.5t-1.5 -0.5q-27 -5 -43 -44.5t-27.5 -101.5t-21 -140.5t-23.5 -161.5q56 5 118 11t111 12q11 66 18.5 129.5t7.5 120.5q0 38 -5 70t-19 55.5t-38 37
t-63 13.5h-11zM793 744q-13 12 -30 26.5t-34.5 31.5t-34 37t-30.5 43q-6 10 11 10q5 0 12.5 -0.5t15.5 -0.5q14 0 24 5t5 24q-1 3 2.5 -1t10.5 -14t16.5 -24t19.5 -29q11 -16 21 -30.5t17 -25.5t10 -18t-2 -7h-2q-1 0 -1.5 0.5t-2.5 0.5q-5 0 -6.5 -5.5t-2.5 -12t-2 -12
t-5 -5.5t-12 7z" />
    <glyph glyph-name="Aacute" unicode="&#xc1;" horiz-adv-x="1083" 
d="M0 506q0 49 16 83.5t43 58t63 37t75.5 20.5t81 9t78.5 2q102 0 203 -3t203 -3h8q65 0 106.5 -19.5t65.5 -54t33 -81t9 -99.5q0 -47 -5 -96.5t-12 -100.5q26 5 43.5 7t12.5 0q-14 -7 -14 -18q0 -9 6.5 -18t14.5 -17.5t14.5 -15.5t6.5 -11q0 -3 -6 -5q-30 -6 -92 -11
q-10 -61 -17.5 -115.5t-7.5 -96.5q0 -51 15 -79.5t54 -28.5q6 0 6 -4t-5 -11.5t-11.5 -16t-11.5 -18t-5 -17.5q0 -13 17 -19q2 0 2 -2q0 -3 -10 -7.5t-26 -4.5q-35 0 -58.5 12.5t-37.5 35t-20 54.5t-6 71q0 52 7.5 112.5t17.5 126.5q-31 -2 -63 -4t-62 -4t-56.5 -3t-47.5 -2
q-16 -73 -41 -145t-65 -128t-97 -91t-136 -35q-46 0 -91 12.5t-81 36t-58.5 57.5t-22.5 78q0 40 18.5 72t48.5 55t67.5 35.5t75.5 12.5t71.5 -12t59.5 -33t41 -51t15 -66q0 -16 -4.5 -26t-7.5 -10q-2 0 -2 2q-6 17 -19 17q-8 0 -17.5 -5t-18 -11.5t-16 -11.5t-11.5 -5t-4 6
q0 31 -5 61t-16 53.5t-30 37.5t-48 14q-20 0 -41 -7.5t-38 -23t-28 -39t-11 -56.5q0 -30 10.5 -57.5t31.5 -49t52.5 -34t73.5 -12.5q73 0 117 36.5t69.5 91.5t37.5 118.5t21 117.5q-36 6 -58 22t-22 45q0 11 6.5 16t14.5 5t14 -4.5t6 -14.5q0 -9 25 -9h24q7 45 18 109
t28.5 129t41.5 124t58 94q-82 2 -163.5 4t-163.5 2q-46 0 -95.5 -3t-90 -19t-66.5 -50.5t-26 -97.5q0 -27 9.5 -50t25 -40.5t35.5 -27.5t41 -10q22 0 43.5 13t39 41.5t28 75.5t10.5 114q0 6 4 6t11.5 -5t16 -11.5t18 -11.5t17.5 -5q13 0 19 17q0 2 2 2q3 0 7.5 -10t4.5 -26
q0 -62 -19 -106.5t-49.5 -73t-69.5 -42t-79 -13.5q-37 0 -72 11t-62.5 32t-44 51.5t-16.5 68.5zM765 670q-7 0 -9 -1q-27 -5 -43 -44.5t-27.5 -101.5t-21 -140.5t-23.5 -161.5q56 5 118 11t111 12q11 66 18.5 129.5t7.5 120.5q0 38 -5 70t-19 55.5t-38 37t-63 13.5h-6z
M816 744q-8 -7 -12 -7t-5 5.5t-2 12t-2.5 12t-6.5 5.5q-2 0 -2.5 -0.5t-1.5 -0.5h-2q-4 0 -1.5 7t9.5 18t17 25.5t21 30.5q11 15 20 29t16 24t10.5 14t2.5 1q-5 -19 5 -24t24 -5q8 0 15.5 0.5t12.5 0.5q17 0 11 -10q-13 -23 -30 -43t-34.5 -37t-34.5 -31.5t-30 -26.5z" />
    <glyph glyph-name="Acircumflex" unicode="&#xc2;" horiz-adv-x="1083" 
d="M0 506q0 49 16 83.5t43 58t63 37t75.5 20.5t81 9t78.5 2q102 0 203 -3t203 -3h8q65 0 106.5 -19.5t65.5 -54t33 -81t9 -99.5q0 -47 -5 -96.5t-12 -100.5q26 5 43.5 7t12.5 0q-14 -7 -14 -18q0 -9 6.5 -18t14.5 -17.5t14.5 -15.5t6.5 -11q0 -3 -6 -5q-30 -6 -92 -11
q-10 -61 -17.5 -115.5t-7.5 -96.5q0 -51 15 -79.5t54 -28.5q6 0 6 -4t-5 -11.5t-11.5 -16t-11.5 -18t-5 -17.5q0 -13 17 -19q2 0 2 -2q0 -3 -10 -7.5t-26 -4.5q-35 0 -58.5 12.5t-37.5 35t-20 54.5t-6 71q0 52 7.5 112.5t17.5 126.5q-31 -2 -63 -4t-62 -4t-56.5 -3t-47.5 -2
q-16 -73 -41 -145t-65 -128t-97 -91t-136 -35q-46 0 -91 12.5t-81 36t-58.5 57.5t-22.5 78q0 40 18.5 72t48.5 55t67.5 35.5t75.5 12.5t71.5 -12t59.5 -33t41 -51t15 -66q0 -16 -4.5 -26t-7.5 -10q-2 0 -2 2q-6 17 -19 17q-8 0 -17.5 -5t-18 -11.5t-16 -11.5t-11.5 -5t-4 6
q0 31 -5 61t-16 53.5t-30 37.5t-48 14q-20 0 -41 -7.5t-38 -23t-28 -39t-11 -56.5q0 -30 10.5 -57.5t31.5 -49t52.5 -34t73.5 -12.5q73 0 117 36.5t69.5 91.5t37.5 118.5t21 117.5q-36 6 -58 22t-22 45q0 11 6.5 16t14.5 5t14 -4.5t6 -14.5q0 -9 25 -9h24q7 45 18 109
t28.5 129t41.5 124t58 94q-82 2 -163.5 4t-163.5 2q-46 0 -95.5 -3t-90 -19t-66.5 -50.5t-26 -97.5q0 -27 9.5 -50t25 -40.5t35.5 -27.5t41 -10q22 0 43.5 13t39 41.5t28 75.5t10.5 114q0 6 4 6t11.5 -5t16 -11.5t18 -11.5t17.5 -5q13 0 19 17q0 2 2 2q3 0 7.5 -10t4.5 -26
q0 -62 -19 -106.5t-49.5 -73t-69.5 -42t-79 -13.5q-37 0 -72 11t-62.5 32t-44 51.5t-16.5 68.5zM760 670q-2 0 -2.5 -0.5t-1.5 -0.5q-27 -5 -43 -44.5t-27.5 -101.5t-21 -140.5t-23.5 -161.5q56 5 118 11t111 12q11 66 18.5 129.5t7.5 120.5q0 38 -5 70t-19 55.5t-38 37
t-63 13.5h-11zM842 918q7 0 12.5 5t10.5 5q4 0 8 -9q13 -35 30.5 -81.5t20.5 -100.5q0 -7 -4 -7t-10.5 4t-14 8.5t-15.5 8t-15 3.5q-14 0 -18 -20q-1 -3 -2 2.5t-2.5 17t-3.5 28t-5 35.5l-5 38l-18 -33q-9 -17 -17 -32t-13.5 -25.5t-8.5 -15t-2 -1.5q3 16 -4 21.5t-18 5.5
t-23.5 -3t-20.5 -3q-10 0 -6 9q22 49 54.5 87.5t57.5 64.5q4 5 8 5q7 0 11 -8.5t13 -8.5z" />
    <glyph glyph-name="Atilde" unicode="&#xc3;" horiz-adv-x="1083" 
d="M0 506q0 49 16 83.5t43 58t63 37t75.5 20.5t81 9t78.5 2q102 0 203 -3t203 -3h8q65 0 106.5 -19.5t65.5 -54t33 -81t9 -99.5q0 -47 -5 -96.5t-12 -100.5q26 5 43.5 7t12.5 0q-14 -7 -14 -18q0 -9 6.5 -18t14.5 -17.5t14.5 -15.5t6.5 -11q0 -3 -6 -5q-30 -6 -92 -11
q-10 -61 -17.5 -115.5t-7.5 -96.5q0 -51 15 -79.5t54 -28.5q6 0 6 -4t-5 -11.5t-11.5 -16t-11.5 -18t-5 -17.5q0 -13 17 -19q2 0 2 -2q0 -3 -10 -7.5t-26 -4.5q-35 0 -58.5 12.5t-37.5 35t-20 54.5t-6 71q0 52 7.5 112.5t17.5 126.5q-31 -2 -63 -4t-62 -4t-56.5 -3t-47.5 -2
q-16 -73 -41 -145t-65 -128t-97 -91t-136 -35q-46 0 -91 12.5t-81 36t-58.5 57.5t-22.5 78q0 40 18.5 72t48.5 55t67.5 35.5t75.5 12.5t71.5 -12t59.5 -33t41 -51t15 -66q0 -16 -4.5 -26t-7.5 -10q-2 0 -2 2q-6 17 -19 17q-8 0 -17.5 -5t-18 -11.5t-16 -11.5t-11.5 -5t-4 6
q0 31 -5 61t-16 53.5t-30 37.5t-48 14q-20 0 -41 -7.5t-38 -23t-28 -39t-11 -56.5q0 -30 10.5 -57.5t31.5 -49t52.5 -34t73.5 -12.5q73 0 117 36.5t69.5 91.5t37.5 118.5t21 117.5q-36 6 -58 22t-22 45q0 11 6.5 16t14.5 5t14 -4.5t6 -14.5q0 -9 25 -9h24q7 45 18 109
t28.5 129t41.5 124t58 94q-82 2 -163.5 4t-163.5 2q-46 0 -95.5 -3t-90 -19t-66.5 -50.5t-26 -97.5q0 -27 9.5 -50t25 -40.5t35.5 -27.5t41 -10q22 0 43.5 13t39 41.5t28 75.5t10.5 114q0 6 4 6t11.5 -5t16 -11.5t18 -11.5t17.5 -5q13 0 19 17q0 2 2 2q3 0 7.5 -10t4.5 -26
q0 -62 -19 -106.5t-49.5 -73t-69.5 -42t-79 -13.5q-37 0 -72 11t-62.5 32t-44 51.5t-16.5 68.5zM760 670q-2 0 -2.5 -0.5t-1.5 -0.5q-27 -5 -43 -44.5t-27.5 -101.5t-21 -140.5t-23.5 -161.5q56 5 118 11t111 12q11 66 18.5 129.5t7.5 120.5q0 38 -5 70t-19 55.5t-38 37
t-63 13.5h-11zM871 739q-22 0 -39.5 4.5t-32.5 10t-29 10t-29 4.5q-14 0 -17.5 -11.5t-3.5 -24.5q0 -7 -2 -7t-6 5t-9.5 11.5t-11 11.5t-10.5 5q-7 0 -13 -14q0 -2 -2 -2q-3 0 -8 9t-5 20q0 26 20 36t47 10q22 0 39.5 -4.5t32.5 -10t29 -10t29 -4.5q14 0 17.5 11.5t3.5 24.5
q0 7 2 7t6 -5t9.5 -11.5t11 -11.5t10.5 -5q7 0 13 14q0 2 2 2q3 0 8 -9t5 -20q0 -26 -20 -36t-47 -10z" />
    <glyph glyph-name="Adieresis" unicode="&#xc4;" horiz-adv-x="1083" 
d="M0 506q0 49 16 83.5t43 58t63 37t75.5 20.5t81 9t78.5 2q102 0 203 -3t203 -3h8q65 0 106.5 -19.5t65.5 -54t33 -81t9 -99.5q0 -47 -5 -96.5t-12 -100.5q26 5 43.5 7t12.5 0q-14 -7 -14 -18q0 -9 6.5 -18t14.5 -17.5t14.5 -15.5t6.5 -11q0 -3 -6 -5q-30 -6 -92 -11
q-10 -61 -17.5 -115.5t-7.5 -96.5q0 -51 15 -79.5t54 -28.5q6 0 6 -4t-5 -11.5t-11.5 -16t-11.5 -18t-5 -17.5q0 -13 17 -19q2 0 2 -2q0 -3 -10 -7.5t-26 -4.5q-35 0 -58.5 12.5t-37.5 35t-20 54.5t-6 71q0 52 7.5 112.5t17.5 126.5q-31 -2 -63 -4t-62 -4t-56.5 -3t-47.5 -2
q-16 -73 -41 -145t-65 -128t-97 -91t-136 -35q-46 0 -91 12.5t-81 36t-58.5 57.5t-22.5 78q0 40 18.5 72t48.5 55t67.5 35.5t75.5 12.5t71.5 -12t59.5 -33t41 -51t15 -66q0 -16 -4.5 -26t-7.5 -10q-2 0 -2 2q-6 17 -19 17q-8 0 -17.5 -5t-18 -11.5t-16 -11.5t-11.5 -5t-4 6
q0 31 -5 61t-16 53.5t-30 37.5t-48 14q-20 0 -41 -7.5t-38 -23t-28 -39t-11 -56.5q0 -30 10.5 -57.5t31.5 -49t52.5 -34t73.5 -12.5q73 0 117 36.5t69.5 91.5t37.5 118.5t21 117.5q-36 6 -58 22t-22 45q0 11 6.5 16t14.5 5t14 -4.5t6 -14.5q0 -9 25 -9h24q7 45 18 109
t28.5 129t41.5 124t58 94q-82 2 -163.5 4t-163.5 2q-46 0 -95.5 -3t-90 -19t-66.5 -50.5t-26 -97.5q0 -27 9.5 -50t25 -40.5t35.5 -27.5t41 -10q22 0 43.5 13t39 41.5t28 75.5t10.5 114q0 6 4 6t11.5 -5t16 -11.5t18 -11.5t17.5 -5q13 0 19 17q0 2 2 2q3 0 7.5 -10t4.5 -26
q0 -62 -19 -106.5t-49.5 -73t-69.5 -42t-79 -13.5q-37 0 -72 11t-62.5 32t-44 51.5t-16.5 68.5zM760 670q-2 0 -2.5 -0.5t-1.5 -0.5q-27 -5 -43 -44.5t-27.5 -101.5t-21 -140.5t-23.5 -161.5q56 5 118 11t111 12q11 66 18.5 129.5t7.5 120.5q0 38 -5 70t-19 55.5t-38 37
t-63 13.5h-11zM704 780q0 20 12 32t32 12t32 -12t12 -32t-12 -32t-32 -12t-32 12t-12 32zM824 780q0 20 12 32t32 12t32 -12t12 -32t-12 -32t-32 -12t-32 12t-12 32z" />
    <glyph glyph-name="Aring" unicode="&#xc5;" horiz-adv-x="1083" 
d="M0 506q0 49 16 83.5t43 58t63 37t75.5 20.5t81 9t78.5 2q102 0 203 -3t203 -3h8q65 0 106.5 -19.5t65.5 -54t33 -81t9 -99.5q0 -47 -5 -96.5t-12 -100.5q26 5 43.5 7t12.5 0q-14 -7 -14 -18q0 -9 6.5 -18t14.5 -17.5t14.5 -15.5t6.5 -11q0 -3 -6 -5q-30 -6 -92 -11
q-10 -61 -17.5 -115.5t-7.5 -96.5q0 -51 15 -79.5t54 -28.5q6 0 6 -4t-5 -11.5t-11.5 -16t-11.5 -18t-5 -17.5q0 -13 17 -19q2 0 2 -2q0 -3 -10 -7.5t-26 -4.5q-35 0 -58.5 12.5t-37.5 35t-20 54.5t-6 71q0 52 7.5 112.5t17.5 126.5q-31 -2 -63 -4t-62 -4t-56.5 -3t-47.5 -2
q-16 -73 -41 -145t-65 -128t-97 -91t-136 -35q-46 0 -91 12.5t-81 36t-58.5 57.5t-22.5 78q0 40 18.5 72t48.5 55t67.5 35.5t75.5 12.5t71.5 -12t59.5 -33t41 -51t15 -66q0 -16 -4.5 -26t-7.5 -10q-2 0 -2 2q-6 17 -19 17q-8 0 -17.5 -5t-18 -11.5t-16 -11.5t-11.5 -5t-4 6
q0 31 -5 61t-16 53.5t-30 37.5t-48 14q-20 0 -41 -7.5t-38 -23t-28 -39t-11 -56.5q0 -30 10.5 -57.5t31.5 -49t52.5 -34t73.5 -12.5q73 0 117 36.5t69.5 91.5t37.5 118.5t21 117.5q-36 6 -58 22t-22 45q0 11 6.5 16t14.5 5t14 -4.5t6 -14.5q0 -9 25 -9h24q7 45 18 109
t28.5 129t41.5 124t58 94q-82 2 -163.5 4t-163.5 2q-46 0 -95.5 -3t-90 -19t-66.5 -50.5t-26 -97.5q0 -27 9.5 -50t25 -40.5t35.5 -27.5t41 -10q22 0 43.5 13t39 41.5t28 75.5t10.5 114q0 6 4 6t11.5 -5t16 -11.5t18 -11.5t17.5 -5q13 0 19 17q0 2 2 2q3 0 7.5 -10t4.5 -26
q0 -62 -19 -106.5t-49.5 -73t-69.5 -42t-79 -13.5q-37 0 -72 11t-62.5 32t-44 51.5t-16.5 68.5zM760 670q-2 0 -2.5 -0.5t-1.5 -0.5q-27 -5 -43 -44.5t-27.5 -101.5t-21 -140.5t-23.5 -161.5q56 5 118 11t111 12q11 66 18.5 129.5t7.5 120.5q0 38 -5 70t-19 55.5t-38 37
t-63 13.5h-11zM831 929q52 0 75.5 -23.5t23.5 -54.5q0 -19 -8.5 -38.5t-24.5 -35t-39.5 -25.5t-52.5 -10q-52 0 -75.5 23.5t-23.5 54.5q0 20 8.5 39t24.5 35t39.5 25.5t52.5 9.5zM805 782q23 0 38 16.5t20 37t-2 37t-30 16.5t-38.5 -16.5t-20 -37t3 -37t29.5 -16.5z" />
    <glyph glyph-name="AE" unicode="&#xc6;" horiz-adv-x="1490" 
d="M0 506q0 49 16 83.5t43 58t63 37t75.5 20.5t81 9t78.5 2q102 0 203 -3t203 -3h8q56 0 94 -14.5t62.5 -40.5t37.5 -61.5t17 -77.5q12 49 39 94.5t70 80.5t102.5 56t137.5 21q38 0 71.5 -7.5t58.5 -22.5t39.5 -36.5t14.5 -50.5q0 -31 -14 -52t-36.5 -35t-51 -21.5
t-58 -11.5t-57.5 -4.5t-50 -0.5q-42 0 -83.5 1.5t-83.5 3.5q-18 -60 -18 -119q0 -47 11 -88q44 14 86 14q17 0 35.5 -3t33.5 -11.5t25 -22t10 -34.5q0 -28 -25.5 -52.5t-74.5 -24.5q-40 0 -71.5 14.5t-55.5 40.5q-24 -21 -44 -49t-33.5 -59t-21 -63.5t-7.5 -64.5
q0 -36 11 -75t35.5 -71t64 -53t97.5 -21q66 0 108.5 27.5t67 72t33.5 100.5t9 112q0 6 4 6t11.5 -5t16.5 -11.5t18.5 -11.5t17.5 -5q13 0 19 17q0 2 2 2q3 0 7.5 -10t4.5 -26q0 -45 -19.5 -98.5t-60 -100t-102.5 -78t-147 -31.5q-58 0 -111 16.5t-93.5 48.5t-64.5 80.5
t-24 112.5q0 20 2.5 40.5t7.5 39.5l12 80q-57 -6 -120 -11t-110 -7q-16 -73 -41 -145t-65 -128t-97 -91t-136 -35q-46 0 -91 12.5t-81 36t-58.5 57.5t-22.5 78q0 40 18.5 72t48.5 55t67.5 35.5t75.5 12.5t71.5 -12t59.5 -33t41 -51t15 -66q0 -16 -4.5 -26t-7.5 -10
q-2 0 -2 2q-6 17 -19 17q-8 0 -17.5 -5t-18 -11.5t-16 -11.5t-11.5 -5t-4 6q0 31 -5 61t-16 53.5t-30 37.5t-48 14q-20 0 -41 -7.5t-38 -23t-28 -39t-11 -56.5q0 -30 10.5 -57.5t31.5 -49t52.5 -34t73.5 -12.5q73 0 117 36.5t69.5 91.5t37.5 118.5t21 117.5q-36 6 -58 22
t-22 45q0 11 6.5 16t14.5 5t14 -4.5t6 -14.5q0 -9 25 -9h10t14 1l11.5 69t15 82t20 87t26 84.5t33 75t40.5 57.5q-82 2 -163.5 4t-163.5 2q-46 0 -95.5 -3t-90 -19t-66.5 -50.5t-26 -97.5q0 -27 9.5 -50t25 -40.5t35.5 -27.5t41 -10q22 0 43.5 13t39 41.5t28 75.5t10.5 114
q0 6 4 6t11.5 -5t16 -11.5t18 -11.5t17.5 -5q13 0 19 17q0 2 2 2q3 0 7.5 -10t4.5 -26q0 -62 -19 -106.5t-49.5 -73t-69.5 -42t-79 -13.5q-37 0 -72 11t-62.5 32t-44 51.5t-16.5 68.5zM767 670q-8 0 -11 -1q-27 -5 -43 -44t-27.5 -100.5t-20.5 -139.5t-23 -161q29 3 59 7
t58.5 8t52.5 8t41 7l20 4q9 63 16 122.5t7 113.5q0 38 -5 70t-19 55.5t-38 37t-63 13.5h-4zM1326 730q-44 0 -80 -12.5t-64.5 -34t-50 -50.5t-35.5 -62q38 -2 77 -3t78 -1h16q24 0 55 1.5t58.5 10t46 25.5t18.5 47q0 37 -34 58t-85 21zM1164 298q-20 0 -38 -4.5t-35 -12.5
q13 -24 31.5 -37.5t41.5 -13.5q32 0 46 13t14 24q0 10 -7 16t-16.5 9.5t-19.5 4.5t-17 1zM1004 293q-16 30 -25 69q-2 -23 -4.5 -46.5t-6.5 -46.5q9 7 17.5 13t18.5 11z" />
    <glyph glyph-name="Ccedilla" unicode="&#xc7;" 
d="M635 -520q-24 0 -47 3q-9 2 -13.5 8.5t-3.5 14.5q1 10 7.5 13.5t15.5 3.5q3 -1 13 -1.5t13 -0.5q34 0 58.5 18t24.5 54q0 53 -49 53q-11 0 -17.5 7.5t-4.5 18.5l17 77q-68 7 -114 40t-74.5 82.5t-40.5 110.5t-12 124q0 48 8.5 102t25 109.5t40.5 111t55 105.5
q-29 1 -57 2t-56 1q-30 0 -67 -1t-75 -6t-74.5 -15t-65 -28.5t-45.5 -47t-17 -70.5q0 -33 10 -56.5t26.5 -39t37 -23t41.5 -7.5q58 0 87.5 64.5t29.5 177.5q0 6 4 6t11.5 -5t16.5 -11.5t18.5 -11.5t17.5 -5q13 0 19 17q0 2 2 2q3 0 7.5 -10t4.5 -26q0 -45 -14.5 -87.5
t-42.5 -76t-68.5 -54t-92.5 -20.5q-36 0 -70.5 13t-62.5 35.5t-45 53t-17 64.5q0 49 21 83t56 57.5t79.5 37t91.5 20t93 8.5t82 2q35 0 70 -1t70 -3q30 42 66 77.5t77 61t86.5 39.5t96.5 14q27 0 56 -5.5t53 -19t39 -35.5t15 -55q0 -31 -14 -52t-36.5 -35t-51 -21.5
t-58 -11.5t-57.5 -4.5t-50 -0.5q-39 0 -78 1t-78 3q-31 -54 -54 -115t-38 -121t-22.5 -115t-7.5 -97q0 -29 2.5 -62t9.5 -65.5t20 -63t34 -53.5t51.5 -36.5t71.5 -13.5q59 0 97.5 27.5t61 72t31.5 100.5t9 112q0 6 4 6t11.5 -5t16.5 -11.5t18.5 -11.5t17.5 -5q13 0 19 17
q0 2 2 2q3 0 7.5 -10t4.5 -26q0 -44 -19 -97t-57.5 -99.5t-96 -78.5t-135.5 -33v-3l-11 -57q21 0 40 -7.5t34 -20.5t23.5 -31t8.5 -40q0 -30 -14 -50.5t-35.5 -33t-47.5 -18.5t-51 -6zM891 725q-37 0 -70 -11.5t-63 -32.5t-56 -49.5t-49 -62.5q75 -3 151 -3q24 0 55 1.5
t58.5 10t46 25.5t18.5 47q0 23 -7.5 37.5t-20.5 22.5t-29 11.5t-34 3.5z" />
    <glyph glyph-name="Egrave" unicode="&#xc8;" 
d="M666 -251q-58 0 -111 16.5t-93.5 48.5t-64.5 80.5t-24 112.5q0 46 12.5 88.5t35 79t53.5 67t67 51.5q-16 30 -24 65.5t-8 73.5q0 53 16 104q-26 1 -51 1.5t-50 0.5q-30 0 -67 -1t-75 -5.5t-74.5 -15t-65 -29t-45.5 -47t-17 -70.5q0 -33 10 -56.5t26.5 -39t37 -23
t41.5 -7.5q58 0 87.5 64.5t29.5 177.5q0 6 4 6t11.5 -5t16.5 -11.5t18.5 -11.5t17.5 -5q13 0 19 17q0 2 2 2q3 0 7.5 -10t4.5 -26q0 -45 -14.5 -87.5t-42.5 -76t-68.5 -54t-92.5 -20.5q-36 0 -70.5 13t-62.5 35.5t-45 53t-17 64.5q0 49 21 83t56 57.5t79.5 37t91.5 20
t93 8.5t82 2q58 0 116 -3q18 40 47 75t70 61.5t93.5 41.5t118.5 15q38 0 71.5 -7.5t58.5 -22.5t39.5 -36.5t14.5 -50.5q0 -31 -14 -52t-36.5 -35t-51 -21.5t-58 -11.5t-57.5 -4.5t-50 -0.5q-42 0 -83.5 1.5t-83.5 3.5q-18 -58 -18 -119q0 -47 11 -88q44 14 86 14
q17 0 35.5 -3t33.5 -11.5t25 -22t10 -34.5q0 -28 -25.5 -52.5t-74.5 -24.5q-40 0 -71.5 14.5t-55.5 40.5q-24 -21 -44 -49t-33.5 -59t-21 -63.5t-7.5 -64.5q0 -36 11 -75t35.5 -71t64 -53t97.5 -21q66 0 108.5 27.5t67 72t33.5 100.5t9 112q0 6 4 6t11.5 -5t16.5 -11.5
t18.5 -11.5t17.5 -5q13 0 19 17q0 2 2 2q3 0 7.5 -10t4.5 -26q0 -45 -19.5 -98.5t-60 -100t-102.5 -78t-147 -31.5zM863 730q-44 0 -80.5 -12.5t-65 -34t-49.5 -50.5t-36 -62q39 -2 78 -3t78 -1h16q24 0 55 1.5t58.5 10t46 25.5t18.5 47q0 37 -34 58t-85 21zM857 790
q-13 12 -30 26.5t-34.5 31.5t-34 37t-30.5 43q-6 10 11 10q5 0 12.5 -0.5t15.5 -0.5q14 0 24 5t5 24q-1 3 2.5 -1t10.5 -14t16.5 -24t19.5 -29q11 -16 21 -30.5t17 -25.5t10 -18t-2 -7h-2q-1 0 -1.5 0.5t-2.5 0.5q-5 0 -6.5 -5.5t-2.5 -12t-2 -12t-5 -5.5t-12 7zM701 298
q-20 0 -38 -4.5t-35 -12.5q13 -24 31.5 -37.5t41.5 -13.5q32 0 46 13t14 24q0 10 -7 16t-16.5 9.5t-19.5 4.5t-17 1z" />
    <glyph glyph-name="Eacute" unicode="&#xc9;" 
d="M666 -251q-58 0 -111 16.5t-93.5 48.5t-64.5 80.5t-24 112.5q0 46 12.5 88.5t35 79t53.5 67t67 51.5q-16 30 -24 65.5t-8 73.5q0 53 16 104q-26 1 -51 1.5t-50 0.5q-30 0 -67 -1t-75 -5.5t-74.5 -15t-65 -29t-45.5 -47t-17 -70.5q0 -33 10 -56.5t26.5 -39t37 -23
t41.5 -7.5q58 0 87.5 64.5t29.5 177.5q0 6 4 6t11.5 -5t16.5 -11.5t18.5 -11.5t17.5 -5q13 0 19 17q0 2 2 2q3 0 7.5 -10t4.5 -26q0 -45 -14.5 -87.5t-42.5 -76t-68.5 -54t-92.5 -20.5q-36 0 -70.5 13t-62.5 35.5t-45 53t-17 64.5q0 49 21 83t56 57.5t79.5 37t91.5 20
t93 8.5t82 2q58 0 116 -3q18 40 47 75t70 61.5t93.5 41.5t118.5 15q38 0 71.5 -7.5t58.5 -22.5t39.5 -36.5t14.5 -50.5q0 -31 -14 -52t-36.5 -35t-51 -21.5t-58 -11.5t-57.5 -4.5t-50 -0.5q-42 0 -83.5 1.5t-83.5 3.5q-18 -58 -18 -119q0 -47 11 -88q44 14 86 14
q17 0 35.5 -3t33.5 -11.5t25 -22t10 -34.5q0 -28 -25.5 -52.5t-74.5 -24.5q-40 0 -71.5 14.5t-55.5 40.5q-24 -21 -44 -49t-33.5 -59t-21 -63.5t-7.5 -64.5q0 -36 11 -75t35.5 -71t64 -53t97.5 -21q66 0 108.5 27.5t67 72t33.5 100.5t9 112q0 6 4 6t11.5 -5t16.5 -11.5
t18.5 -11.5t17.5 -5q13 0 19 17q0 2 2 2q3 0 7.5 -10t4.5 -26q0 -45 -19.5 -98.5t-60 -100t-102.5 -78t-147 -31.5zM863 730q-44 0 -80.5 -12.5t-65 -34t-49.5 -50.5t-36 -62q39 -2 78 -3t78 -1h16q24 0 55 1.5t58.5 10t46 25.5t18.5 47q0 37 -34 58t-85 21zM880 790
q-8 -7 -12 -7t-5 5.5t-2 12t-2.5 12t-6.5 5.5q-2 0 -2.5 -0.5t-1.5 -0.5h-2q-4 0 -1.5 7t9.5 18t17 25.5t21 30.5q11 15 20 29t16 24t10.5 14t2.5 1q-5 -19 5 -24t24 -5q8 0 15.5 0.5t12.5 0.5q17 0 11 -10q-13 -23 -30 -43t-34.5 -37t-34.5 -31.5t-30 -26.5zM701 298
q-20 0 -38 -4.5t-35 -12.5q13 -24 31.5 -37.5t41.5 -13.5q32 0 46 13t14 24q0 10 -7 16t-16.5 9.5t-19.5 4.5t-17 1z" />
    <glyph glyph-name="Ecircumflex" unicode="&#xca;" 
d="M666 -251q-58 0 -111 16.5t-93.5 48.5t-64.5 80.5t-24 112.5q0 46 12.5 88.5t35 79t53.5 67t67 51.5q-16 30 -24 65.5t-8 73.5q0 53 16 104q-26 1 -51 1.5t-50 0.5q-30 0 -67 -1t-75 -5.5t-74.5 -15t-65 -29t-45.5 -47t-17 -70.5q0 -33 10 -56.5t26.5 -39t37 -23
t41.5 -7.5q58 0 87.5 64.5t29.5 177.5q0 6 4 6t11.5 -5t16.5 -11.5t18.5 -11.5t17.5 -5q13 0 19 17q0 2 2 2q3 0 7.5 -10t4.5 -26q0 -45 -14.5 -87.5t-42.5 -76t-68.5 -54t-92.5 -20.5q-36 0 -70.5 13t-62.5 35.5t-45 53t-17 64.5q0 49 21 83t56 57.5t79.5 37t91.5 20
t93 8.5t82 2q58 0 116 -3q18 40 47 75t70 61.5t93.5 41.5t118.5 15q38 0 71.5 -7.5t58.5 -22.5t39.5 -36.5t14.5 -50.5q0 -31 -14 -52t-36.5 -35t-51 -21.5t-58 -11.5t-57.5 -4.5t-50 -0.5q-42 0 -83.5 1.5t-83.5 3.5q-18 -58 -18 -119q0 -47 11 -88q44 14 86 14
q17 0 35.5 -3t33.5 -11.5t25 -22t10 -34.5q0 -28 -25.5 -52.5t-74.5 -24.5q-40 0 -71.5 14.5t-55.5 40.5q-24 -21 -44 -49t-33.5 -59t-21 -63.5t-7.5 -64.5q0 -36 11 -75t35.5 -71t64 -53t97.5 -21q66 0 108.5 27.5t67 72t33.5 100.5t9 112q0 6 4 6t11.5 -5t16.5 -11.5
t18.5 -11.5t17.5 -5q13 0 19 17q0 2 2 2q3 0 7.5 -10t4.5 -26q0 -45 -19.5 -98.5t-60 -100t-102.5 -78t-147 -31.5zM863 730q-44 0 -80.5 -12.5t-65 -34t-49.5 -50.5t-36 -62q39 -2 78 -3t78 -1h16q24 0 55 1.5t58.5 10t46 25.5t18.5 47q0 37 -34 58t-85 21zM906 964
q7 0 12.5 5t10.5 5q4 0 8 -9q13 -35 30.5 -81.5t20.5 -100.5q0 -7 -4 -7t-10.5 4t-14 8.5t-15.5 8t-15 3.5q-14 0 -18 -20q-1 -3 -2 2.5t-2.5 17t-3.5 28t-5 35.5l-5 38l-18 -33q-9 -17 -17 -32t-13.5 -25.5t-8.5 -15t-2 -1.5q3 16 -4 21.5t-18 5.5t-23.5 -3t-20.5 -3
q-10 0 -6 9q22 49 54.5 87.5t57.5 64.5q4 5 8 5q7 0 11 -8.5t13 -8.5zM701 298q-20 0 -38 -4.5t-35 -12.5q13 -24 31.5 -37.5t41.5 -13.5q32 0 46 13t14 24q0 10 -7 16t-16.5 9.5t-19.5 4.5t-17 1z" />
    <glyph glyph-name="Edieresis" unicode="&#xcb;" 
d="M666 -251q-58 0 -111 16.5t-93.5 48.5t-64.5 80.5t-24 112.5q0 46 12.5 88.5t35 79t53.5 67t67 51.5q-16 30 -24 65.5t-8 73.5q0 53 16 104q-26 1 -51 1.5t-50 0.5q-30 0 -67 -1t-75 -5.5t-74.5 -15t-65 -29t-45.5 -47t-17 -70.5q0 -33 10 -56.5t26.5 -39t37 -23
t41.5 -7.5q58 0 87.5 64.5t29.5 177.5q0 6 4 6t11.5 -5t16.5 -11.5t18.5 -11.5t17.5 -5q13 0 19 17q0 2 2 2q3 0 7.5 -10t4.5 -26q0 -45 -14.5 -87.5t-42.5 -76t-68.5 -54t-92.5 -20.5q-36 0 -70.5 13t-62.5 35.5t-45 53t-17 64.5q0 49 21 83t56 57.5t79.5 37t91.5 20
t93 8.5t82 2q58 0 116 -3q18 40 47 75t70 61.5t93.5 41.5t118.5 15q38 0 71.5 -7.5t58.5 -22.5t39.5 -36.5t14.5 -50.5q0 -31 -14 -52t-36.5 -35t-51 -21.5t-58 -11.5t-57.5 -4.5t-50 -0.5q-42 0 -83.5 1.5t-83.5 3.5q-18 -58 -18 -119q0 -47 11 -88q44 14 86 14
q17 0 35.5 -3t33.5 -11.5t25 -22t10 -34.5q0 -28 -25.5 -52.5t-74.5 -24.5q-40 0 -71.5 14.5t-55.5 40.5q-24 -21 -44 -49t-33.5 -59t-21 -63.5t-7.5 -64.5q0 -36 11 -75t35.5 -71t64 -53t97.5 -21q66 0 108.5 27.5t67 72t33.5 100.5t9 112q0 6 4 6t11.5 -5t16.5 -11.5
t18.5 -11.5t17.5 -5q13 0 19 17q0 2 2 2q3 0 7.5 -10t4.5 -26q0 -45 -19.5 -98.5t-60 -100t-102.5 -78t-147 -31.5zM863 730q-44 0 -80.5 -12.5t-65 -34t-49.5 -50.5t-36 -62q39 -2 78 -3t78 -1h16q24 0 55 1.5t58.5 10t46 25.5t18.5 47q0 37 -34 58t-85 21zM701 298
q-20 0 -38 -4.5t-35 -12.5q13 -24 31.5 -37.5t41.5 -13.5q32 0 46 13t14 24q0 10 -7 16t-16.5 9.5t-19.5 4.5t-17 1zM888 826q0 20 12 32t32 12t32 -12t12 -32t-12 -32t-32 -12t-32 12t-12 32zM768 826q0 20 12 32t32 12t32 -12t12 -32t-12 -32t-32 -12t-32 12t-12 32z" />
    <glyph glyph-name="Igrave" unicode="&#xcc;" horiz-adv-x="742" 
d="M0 506q0 49 16 83.5t43 58t63 37t75.5 20.5t81 9t78.5 2q102 0 203 -3t203 -3h4q8 0 14 -6t6 -14t-6 -14t-14 -6h-4q-2 0 -3.5 -0.5t-3.5 -0.5q-28 -5 -44 -46.5t-27.5 -106.5t-21.5 -147t-25 -167q-14 -79 -38 -159.5t-64.5 -145.5t-100.5 -106t-146 -41q-46 0 -91 12.5
t-81 36t-58.5 57.5t-22.5 78q0 40 18.5 72t48.5 55t67.5 35.5t75.5 12.5t71.5 -12t59.5 -33t41 -51t15 -66q0 -16 -4.5 -26t-7.5 -10q-2 0 -2 2q-6 17 -19 17q-8 0 -17.5 -5t-18 -11.5t-16 -11.5t-11.5 -5t-4 6q0 31 -5 61t-16 53.5t-30 37.5t-48 14q-20 0 -41 -7.5t-38 -23
t-28 -39t-11 -56.5q0 -30 10.5 -57.5t31.5 -49t52.5 -34t73.5 -12.5q51 0 87 18.5t61.5 48.5t42 69.5t27 82t17.5 84.5l13 78q4 24 9.5 62.5t14 85t20 97t27.5 98.5t36 88.5t46 67.5q-82 2 -163.5 4t-163.5 2q-46 0 -95.5 -3t-90 -19t-66.5 -50.5t-26 -97.5q0 -27 9.5 -50
t25 -40.5t35.5 -27.5t41 -10q22 0 43.5 13t39 41.5t28 75.5t10.5 114q0 6 4 6t11.5 -5t16 -11.5t18 -11.5t17.5 -5q13 0 19 17q0 2 2 2q3 0 7.5 -10t4.5 -26q0 -62 -19 -106.5t-49.5 -73t-69.5 -42t-79 -13.5q-37 0 -72 11t-62.5 32t-44 51.5t-16.5 68.5zM430 743
q-13 12 -30 26.5t-34.5 31.5t-34 37t-30.5 43q-6 10 11 10q5 0 12.5 -0.5t15.5 -0.5q14 0 24 5t5 24q-1 3 2.5 -1t10.5 -14t16.5 -24t19.5 -29q11 -16 21 -30.5t17 -25.5t10 -18t-2 -7h-2q-1 0 -1.5 0.5t-2.5 0.5q-5 0 -6.5 -5.5t-2.5 -12t-2 -12t-5 -5.5t-12 7z" />
    <glyph glyph-name="Iacute" unicode="&#xcd;" horiz-adv-x="742" 
d="M0 506q0 49 16 83.5t43 58t63 37t75.5 20.5t81 9t78.5 2q102 0 203 -3t203 -3h4q8 0 14 -6t6 -14t-6 -14t-14 -6h-7q-2 0 -2.5 -0.5t-1.5 -0.5q-28 -5 -44 -46.5t-27.5 -106.5t-21.5 -147t-25 -167q-14 -79 -38 -159.5t-64.5 -145.5t-100.5 -106t-146 -41q-46 0 -91 12.5
t-81 36t-58.5 57.5t-22.5 78q0 40 18.5 72t48.5 55t67.5 35.5t75.5 12.5t71.5 -12t59.5 -33t41 -51t15 -66q0 -16 -4.5 -26t-7.5 -10q-2 0 -2 2q-6 17 -19 17q-8 0 -17.5 -5t-18 -11.5t-16 -11.5t-11.5 -5t-4 6q0 31 -5 61t-16 53.5t-30 37.5t-48 14q-20 0 -41 -7.5t-38 -23
t-28 -39t-11 -56.5q0 -30 10.5 -57.5t31.5 -49t52.5 -34t73.5 -12.5q51 0 87 18.5t61.5 48.5t42 69.5t27 82t17.5 84.5l13 78q4 24 9.5 62.5t14 85t20 97t27.5 98.5t36 88.5t46 67.5q-82 2 -163.5 4t-163.5 2q-46 0 -95.5 -3t-90 -19t-66.5 -50.5t-26 -97.5q0 -27 9.5 -50
t25 -40.5t35.5 -27.5t41 -10q22 0 43.5 13t39 41.5t28 75.5t10.5 114q0 6 4 6t11.5 -5t16 -11.5t18 -11.5t17.5 -5q13 0 19 17q0 2 2 2q3 0 7.5 -10t4.5 -26q0 -62 -19 -106.5t-49.5 -73t-69.5 -42t-79 -13.5q-37 0 -72 11t-62.5 32t-44 51.5t-16.5 68.5zM453 743
q-8 -7 -12 -7t-5 5.5t-2 12t-2.5 12t-6.5 5.5q-2 0 -2.5 -0.5t-1.5 -0.5h-2q-4 0 -1.5 7t9.5 18t17 25.5t21 30.5q11 15 20 29t16 24t10.5 14t2.5 1q-5 -19 5 -24t24 -5q8 0 15.5 0.5t12.5 0.5q17 0 11 -10q-13 -23 -30 -43t-34.5 -37t-34.5 -31.5t-30 -26.5z" />
    <glyph glyph-name="Icircumflex" unicode="&#xce;" horiz-adv-x="742" 
d="M0 506q0 49 16 83.5t43 58t63 37t75.5 20.5t81 9t78.5 2q102 0 203 -3t203 -3h4q8 0 14 -6t6 -14t-6 -14t-14 -6h-7q-2 0 -2.5 -0.5t-1.5 -0.5q-28 -5 -44 -46.5t-27.5 -106.5t-21.5 -147t-25 -167q-14 -79 -38 -159.5t-64.5 -145.5t-100.5 -106t-146 -41q-46 0 -91 12.5
t-81 36t-58.5 57.5t-22.5 78q0 40 18.5 72t48.5 55t67.5 35.5t75.5 12.5t71.5 -12t59.5 -33t41 -51t15 -66q0 -16 -4.5 -26t-7.5 -10q-2 0 -2 2q-6 17 -19 17q-8 0 -17.5 -5t-18 -11.5t-16 -11.5t-11.5 -5t-4 6q0 31 -5 61t-16 53.5t-30 37.5t-48 14q-20 0 -41 -7.5t-38 -23
t-28 -39t-11 -56.5q0 -30 10.5 -57.5t31.5 -49t52.5 -34t73.5 -12.5q51 0 87 18.5t61.5 48.5t42 69.5t27 82t17.5 84.5l13 78q4 24 9.5 62.5t14 85t20 97t27.5 98.5t36 88.5t46 67.5q-82 2 -163.5 4t-163.5 2q-46 0 -95.5 -3t-90 -19t-66.5 -50.5t-26 -97.5q0 -27 9.5 -50
t25 -40.5t35.5 -27.5t41 -10q22 0 43.5 13t39 41.5t28 75.5t10.5 114q0 6 4 6t11.5 -5t16 -11.5t18 -11.5t17.5 -5q13 0 19 17q0 2 2 2q3 0 7.5 -10t4.5 -26q0 -62 -19 -106.5t-49.5 -73t-69.5 -42t-79 -13.5q-37 0 -72 11t-62.5 32t-44 51.5t-16.5 68.5zM479 917
q7 0 12.5 5t10.5 5q4 0 8 -9q13 -35 30.5 -81.5t20.5 -100.5q0 -7 -4 -7t-10.5 4t-14 8.5t-15.5 8t-15 3.5q-14 0 -18 -20q-1 -3 -2 2.5t-2.5 17t-3.5 28t-5 35.5l-5 38l-18 -33q-9 -17 -17 -32t-13.5 -25.5t-8.5 -15t-2 -1.5q3 16 -4 21.5t-18 5.5t-23.5 -3t-20.5 -3
q-10 0 -6 9q22 49 54.5 87.5t57.5 64.5q4 5 8 5q7 0 11 -8.5t13 -8.5z" />
    <glyph glyph-name="Idieresis" unicode="&#xcf;" horiz-adv-x="742" 
d="M0 506q0 49 16 83.5t43 58t63 37t75.5 20.5t81 9t78.5 2q102 0 203 -3t203 -3h4q8 0 14 -6t6 -14t-6 -14t-14 -6h-7q-2 0 -2.5 -0.5t-1.5 -0.5q-28 -5 -44 -46.5t-27.5 -106.5t-21.5 -147t-25 -167q-14 -79 -38 -159.5t-64.5 -145.5t-100.5 -106t-146 -41q-46 0 -91 12.5
t-81 36t-58.5 57.5t-22.5 78q0 40 18.5 72t48.5 55t67.5 35.5t75.5 12.5t71.5 -12t59.5 -33t41 -51t15 -66q0 -16 -4.5 -26t-7.5 -10q-2 0 -2 2q-6 17 -19 17q-8 0 -17.5 -5t-18 -11.5t-16 -11.5t-11.5 -5t-4 6q0 31 -5 61t-16 53.5t-30 37.5t-48 14q-20 0 -41 -7.5t-38 -23
t-28 -39t-11 -56.5q0 -30 10.5 -57.5t31.5 -49t52.5 -34t73.5 -12.5q51 0 87 18.5t61.5 48.5t42 69.5t27 82t17.5 84.5l13 78q4 24 9.5 62.5t14 85t20 97t27.5 98.5t36 88.5t46 67.5q-82 2 -163.5 4t-163.5 2q-46 0 -95.5 -3t-90 -19t-66.5 -50.5t-26 -97.5q0 -27 9.5 -50
t25 -40.5t35.5 -27.5t41 -10q22 0 43.5 13t39 41.5t28 75.5t10.5 114q0 6 4 6t11.5 -5t16 -11.5t18 -11.5t17.5 -5q13 0 19 17q0 2 2 2q3 0 7.5 -10t4.5 -26q0 -62 -19 -106.5t-49.5 -73t-69.5 -42t-79 -13.5q-37 0 -72 11t-62.5 32t-44 51.5t-16.5 68.5zM461 779
q0 20 12 32t32 12t32 -12t12 -32t-12 -32t-32 -12t-32 12t-12 32zM341 779q0 20 12 32t32 12t32 -12t12 -32t-12 -32t-32 -12t-32 12t-12 32z" />
    <glyph glyph-name="Eth" unicode="&#xd0;" horiz-adv-x="1167" 
d="M640 -4q0 -100 24.5 -152.5t85.5 -52.5q54 0 99 40t77.5 105t50.5 149t18 172q0 90 -21 177t-68.5 155t-124 110t-187.5 42q-50 0 -106.5 -9.5t-112.5 -28t-108 -47t-91.5 -67t-63 -87t-23.5 -107.5q0 -39 10 -66t26.5 -44.5t37 -25t41.5 -7.5q58 0 87.5 64.5t29.5 177.5
q0 6 4 6t11.5 -5t16.5 -11.5t18.5 -11.5t17.5 -5q13 0 19 17q0 2 2 2q3 0 7.5 -10t4.5 -26q0 -45 -14.5 -87.5t-42.5 -76t-68.5 -54t-92.5 -20.5q-36 0 -70.5 14t-62.5 40.5t-45 65t-17 88.5q0 62 27 112.5t71.5 89.5t103.5 68t123 47.5t129 27.5t122 9q135 0 231.5 -46
t158.5 -121t91 -170t29 -193q0 -62 -11 -123t-32.5 -116t-52 -101.5t-70 -81t-86.5 -53.5t-101 -19q-48 0 -85.5 15t-64 42t-40 64t-13.5 81q0 16 4.5 26t7.5 10q2 0 2 -2q6 -17 19 -17q8 0 17.5 5t18.5 11.5t16.5 11.5t11.5 5t4 -6zM380 202q-15 3 -6.5 11t21.5 18.5
t20.5 21t-10.5 16.5q-4 1 3.5 1.5t22.5 1t36 1t46 1.5q7 39 16 83.5t22 88.5t29.5 84t38 71t47.5 49.5t58 18.5q8 0 14 -6t6 -14t-6 -14t-14 -6q-19 0 -34.5 -17t-27 -45.5t-19.5 -65t-14 -75.5t-10.5 -77.5t-7.5 -70.5q32 2 57 6q26 4 48 6.5t31 2.5q8 0 4 -2
q-13 -6 -14.5 -14t3 -17.5t12.5 -18.5t14 -17t8 -13t-6 -6q-42 -5 -84 -8.5t-83 -4.5q-10 -52 -23.5 -105t-33.5 -102t-47 -92t-62 -74.5t-80 -50t-102 -18.5q-46 0 -91 12.5t-81 36t-58.5 57.5t-22.5 78q0 40 18.5 72t48.5 55t67.5 35.5t75.5 12.5t71.5 -12t59.5 -33
t41 -51t15 -66q0 -16 -4.5 -26t-7.5 -10q-2 0 -2 2q-6 17 -19 17q-8 0 -17.5 -5t-18 -11.5t-16 -11.5t-11.5 -5t-4 6q0 31 -5 61t-16 53.5t-30 37.5t-48 14q-20 0 -41 -7.5t-38 -23t-28 -39t-11 -56.5q0 -30 10.5 -57.5t31.5 -49t52.5 -34t73.5 -12.5q51 0 87 18.5
t61.5 48.5t42 69.5t27 82t17.5 84.5l13 78l3 21q-35 1 -65.5 3.5t-53.5 6.5z" />
    <glyph glyph-name="Ntilde" unicode="&#xd1;" horiz-adv-x="1205" 
d="M0 506q0 49 16 83.5t43 58t63 37t75.5 20.5t81 9t78.5 2q102 0 203 -3t203 -3h6q36 0 69.5 -17.5t65 -49t59 -74.5t51.5 -94q35 73 75 133t85 95q13 10 21 10q10 0 15.5 -10.5t11.5 -23.5t14 -24.5t23 -14.5q-13 -10 -32.5 -23t-42.5 -35.5t-49.5 -57t-55.5 -88.5
q-15 -27 -27 -54q32 -90 49.5 -184.5t17.5 -179.5q0 -57 -8.5 -106t-27.5 -85t-48 -56.5t-70 -20.5q-18 0 -35 8.5t-31 27.5t-22.5 49.5t-8.5 75.5q0 39 7 90.5t19.5 110.5t31 122.5t41.5 126.5q-16 51 -37 98.5t-46.5 88t-56 72t-66.5 50.5h-1q-2 0 -2.5 -0.5t-1.5 -0.5
q-28 -5 -44.5 -46.5t-27.5 -106.5t-21 -147t-25 -167q-14 -79 -38 -159.5t-64.5 -145.5t-100.5 -106t-146 -41q-46 0 -91 12.5t-81 36t-58.5 57.5t-22.5 78q0 40 18.5 72t48.5 55t67.5 35.5t75.5 12.5t71.5 -12t59.5 -33t41 -51t15 -66q0 -16 -4.5 -26t-7.5 -10q-2 0 -2 2
q-6 17 -19 17q-8 0 -17.5 -5t-18 -11.5t-16 -11.5t-11.5 -5t-4 6q0 31 -5 61t-16 53.5t-30 37.5t-48 14q-20 0 -41 -7.5t-38 -23t-28 -39t-11 -56.5q0 -30 10.5 -57.5t31.5 -49t52.5 -34t73.5 -12.5q51 0 87 18.5t61.5 48.5t42 69.5t27 82t17.5 84.5l13 78q4 24 9.5 62.5
t14 85t20 97t27.5 98.5t36 88.5t46 67.5q-82 2 -163.5 4t-163.5 2q-46 0 -95.5 -3t-90 -19t-66.5 -50.5t-26 -97.5q0 -27 9.5 -50t25 -40.5t35.5 -27.5t41 -10q22 0 43.5 13t39 41.5t28 75.5t10.5 114q0 6 4 6t11.5 -5t16 -11.5t18 -11.5t17.5 -5q13 0 19 17q0 2 2 2
q3 0 7.5 -10t4.5 -26q0 -62 -19 -106.5t-49.5 -73t-69.5 -42t-79 -13.5q-37 0 -72 11t-62.5 32t-44 51.5t-16.5 68.5zM1023 -4q0 56 -6.5 120t-20.5 130q-18 -52 -32.5 -102.5t-24.5 -97t-15.5 -86.5t-5.5 -70q0 -50 12.5 -74t29.5 -24q15 0 27 15t20 42t12 64.5t4 82.5z
M1048 738q-22 0 -39.5 4.5t-32.5 10t-29 10t-29 4.5q-14 0 -17.5 -11.5t-3.5 -24.5q0 -7 -2 -7t-6 5t-9.5 11.5t-11 11.5t-10.5 5q-7 0 -13 -14q0 -2 -2 -2q-3 0 -8 9t-5 20q0 26 20 36t47 10q22 0 39.5 -4.5t32.5 -10t29 -10t29 -4.5q14 0 17.5 11.5t3.5 24.5q0 7 2 7t6 -5
t9.5 -11.5t11 -11.5t10.5 -5q7 0 13 14q0 2 2 2q3 0 8 -9t5 -20q0 -26 -20 -36t-47 -10z" />
    <glyph glyph-name="Ograve" unicode="&#xd2;" horiz-adv-x="849" 
d="M0 119q0 59 13 117t36.5 108t57.5 90t76 62q21 50 55.5 91t77.5 70t91 44.5t96 15.5q54 0 106 -21.5t93 -67t66 -118t25 -174.5q0 -67 -14 -137t-40.5 -135t-66 -122t-90.5 -100t-113 -67.5t-134 -24.5q-88 0 -151 31.5t-104 83t-60.5 118t-19.5 136.5zM237 342
q0 -42 10 -71t26 -46.5t35.5 -25.5t38.5 -8q24 0 46.5 13t40.5 41.5t28.5 75.5t10.5 114q0 6 4 6t11.5 -5t16 -11.5t18 -11.5t17.5 -5q13 0 19 17q0 2 2 2q3 0 7.5 -10t4.5 -26q0 -62 -19 -107t-49 -74.5t-68 -44t-77 -14.5t-75.5 14t-65 41t-45.5 66.5t-17 90.5v7
q-26 -52 -40.5 -118t-14.5 -135q0 -62 13.5 -121t41.5 -105t71.5 -73.5t103.5 -27.5q58 0 107.5 24.5t89.5 66t70.5 97t51.5 118.5t31.5 130t10.5 130q0 86 -16 147t-42.5 99.5t-61.5 56.5t-73 18q-63 0 -123 -42t-98 -115q11 0 20.5 -2.5t9.5 -16.5q0 -8 -6 -14.5t-14 -6.5
q-13 0 -30 -5q-11 -30 -16.5 -63.5t-5.5 -69.5zM492 743q-13 12 -30 26.5t-34.5 31.5t-34 37t-30.5 43q-6 10 11 10q5 0 12.5 -0.5t15.5 -0.5q14 0 24 5t5 24q-1 3 2.5 -1t10.5 -14t16.5 -24t19.5 -29q11 -16 21 -30.5t17 -25.5t10 -18t-2 -7h-2q-1 0 -1.5 0.5t-2.5 0.5
q-5 0 -6.5 -5.5t-2.5 -12t-2 -12t-5 -5.5t-12 7z" />
    <glyph glyph-name="Oacute" unicode="&#xd3;" horiz-adv-x="849" 
d="M0 119q0 59 13 117t36.5 108t57.5 90t76 62q21 50 55.5 91t77.5 70t91 44.5t96 15.5q54 0 106 -21.5t93 -67t66 -118t25 -174.5q0 -67 -14 -137t-40.5 -135t-66 -122t-90.5 -100t-113 -67.5t-134 -24.5q-88 0 -151 31.5t-104 83t-60.5 118t-19.5 136.5zM237 342
q0 -42 10 -71t26 -46.5t35.5 -25.5t38.5 -8q24 0 46.5 13t40.5 41.5t28.5 75.5t10.5 114q0 6 4 6t11.5 -5t16 -11.5t18 -11.5t17.5 -5q13 0 19 17q0 2 2 2q3 0 7.5 -10t4.5 -26q0 -62 -19 -107t-49 -74.5t-68 -44t-77 -14.5t-75.5 14t-65 41t-45.5 66.5t-17 90.5v7
q-26 -52 -40.5 -118t-14.5 -135q0 -62 13.5 -121t41.5 -105t71.5 -73.5t103.5 -27.5q58 0 107.5 24.5t89.5 66t70.5 97t51.5 118.5t31.5 130t10.5 130q0 86 -16 147t-42.5 99.5t-61.5 56.5t-73 18q-63 0 -123 -42t-98 -115q11 0 20.5 -2.5t9.5 -16.5q0 -8 -6 -14.5t-14 -6.5
q-13 0 -30 -5q-11 -30 -16.5 -63.5t-5.5 -69.5zM515 743q-8 -7 -12 -7t-5 5.5t-2 12t-2.5 12t-6.5 5.5q-2 0 -2.5 -0.5t-1.5 -0.5h-2q-4 0 -1.5 7t9.5 18t17 25.5t21 30.5q11 15 20 29t16 24t10.5 14t2.5 1q-5 -19 5 -24t24 -5q8 0 15.5 0.5t12.5 0.5q17 0 11 -10
q-13 -23 -30 -43t-34.5 -37t-34.5 -31.5t-30 -26.5z" />
    <glyph glyph-name="Ocircumflex" unicode="&#xd4;" horiz-adv-x="849" 
d="M0 119q0 59 13 117t36.5 108t57.5 90t76 62q21 50 55.5 91t77.5 70t91 44.5t96 15.5q54 0 106 -21.5t93 -67t66 -118t25 -174.5q0 -67 -14 -137t-40.5 -135t-66 -122t-90.5 -100t-113 -67.5t-134 -24.5q-88 0 -151 31.5t-104 83t-60.5 118t-19.5 136.5zM237 342
q0 -42 10 -71t26 -46.5t35.5 -25.5t38.5 -8q24 0 46.5 13t40.5 41.5t28.5 75.5t10.5 114q0 6 4 6t11.5 -5t16 -11.5t18 -11.5t17.5 -5q13 0 19 17q0 2 2 2q3 0 7.5 -10t4.5 -26q0 -62 -19 -107t-49 -74.5t-68 -44t-77 -14.5t-75.5 14t-65 41t-45.5 66.5t-17 90.5v7
q-26 -52 -40.5 -118t-14.5 -135q0 -62 13.5 -121t41.5 -105t71.5 -73.5t103.5 -27.5q58 0 107.5 24.5t89.5 66t70.5 97t51.5 118.5t31.5 130t10.5 130q0 86 -16 147t-42.5 99.5t-61.5 56.5t-73 18q-63 0 -123 -42t-98 -115q11 0 20.5 -2.5t9.5 -16.5q0 -8 -6 -14.5t-14 -6.5
q-13 0 -30 -5q-11 -30 -16.5 -63.5t-5.5 -69.5zM541 917q7 0 12.5 5t10.5 5q4 0 8 -9q13 -35 30.5 -81.5t20.5 -100.5q0 -7 -4 -7t-10.5 4t-14 8.5t-15.5 8t-15 3.5q-14 0 -18 -20q-1 -3 -2 2.5t-2.5 17t-3.5 28t-5 35.5l-5 38l-18 -33q-9 -17 -17 -32t-13.5 -25.5t-8.5 -15
t-2 -1.5q3 16 -4 21.5t-18 5.5t-23.5 -3t-20.5 -3q-10 0 -6 9q22 49 54.5 87.5t57.5 64.5q4 5 8 5q7 0 11 -8.5t13 -8.5z" />
    <glyph glyph-name="Otilde" unicode="&#xd5;" horiz-adv-x="849" 
d="M0 119q0 59 13 117t36.5 108t57.5 90t76 62q21 50 55.5 91t77.5 70t91 44.5t96 15.5q54 0 106 -21.5t93 -67t66 -118t25 -174.5q0 -67 -14 -137t-40.5 -135t-66 -122t-90.5 -100t-113 -67.5t-134 -24.5q-88 0 -151 31.5t-104 83t-60.5 118t-19.5 136.5zM237 342
q0 -42 10 -71t26 -46.5t35.5 -25.5t38.5 -8q24 0 46.5 13t40.5 41.5t28.5 75.5t10.5 114q0 6 4 6t11.5 -5t16 -11.5t18 -11.5t17.5 -5q13 0 19 17q0 2 2 2q3 0 7.5 -10t4.5 -26q0 -62 -19 -107t-49 -74.5t-68 -44t-77 -14.5t-75.5 14t-65 41t-45.5 66.5t-17 90.5v7
q-26 -52 -40.5 -118t-14.5 -135q0 -62 13.5 -121t41.5 -105t71.5 -73.5t103.5 -27.5q58 0 107.5 24.5t89.5 66t70.5 97t51.5 118.5t31.5 130t10.5 130q0 86 -16 147t-42.5 99.5t-61.5 56.5t-73 18q-63 0 -123 -42t-98 -115q11 0 20.5 -2.5t9.5 -16.5q0 -8 -6 -14.5t-14 -6.5
q-13 0 -30 -5q-11 -30 -16.5 -63.5t-5.5 -69.5zM570 738q-22 0 -39.5 4.5t-32.5 10t-29 10t-29 4.5q-14 0 -17.5 -11.5t-3.5 -24.5q0 -7 -2 -7t-6 5t-9.5 11.5t-11 11.5t-10.5 5q-7 0 -13 -14q0 -2 -2 -2q-3 0 -8 9t-5 20q0 26 20 36t47 10q22 0 39.5 -4.5t32.5 -10t29 -10
t29 -4.5q14 0 17.5 11.5t3.5 24.5q0 7 2 7t6 -5t9.5 -11.5t11 -11.5t10.5 -5q7 0 13 14q0 2 2 2q3 0 8 -9t5 -20q0 -26 -20 -36t-47 -10z" />
    <glyph glyph-name="Odieresis" unicode="&#xd6;" horiz-adv-x="849" 
d="M0 119q0 59 13 117t36.5 108t57.5 90t76 62q21 50 55.5 91t77.5 70t91 44.5t96 15.5q54 0 106 -21.5t93 -67t66 -118t25 -174.5q0 -67 -14 -137t-40.5 -135t-66 -122t-90.5 -100t-113 -67.5t-134 -24.5q-88 0 -151 31.5t-104 83t-60.5 118t-19.5 136.5zM237 342
q0 -42 10 -71t26 -46.5t35.5 -25.5t38.5 -8q24 0 46.5 13t40.5 41.5t28.5 75.5t10.5 114q0 6 4 6t11.5 -5t16 -11.5t18 -11.5t17.5 -5q13 0 19 17q0 2 2 2q3 0 7.5 -10t4.5 -26q0 -62 -19 -107t-49 -74.5t-68 -44t-77 -14.5t-75.5 14t-65 41t-45.5 66.5t-17 90.5v7
q-26 -52 -40.5 -118t-14.5 -135q0 -62 13.5 -121t41.5 -105t71.5 -73.5t103.5 -27.5q58 0 107.5 24.5t89.5 66t70.5 97t51.5 118.5t31.5 130t10.5 130q0 86 -16 147t-42.5 99.5t-61.5 56.5t-73 18q-63 0 -123 -42t-98 -115q11 0 20.5 -2.5t9.5 -16.5q0 -8 -6 -14.5t-14 -6.5
q-13 0 -30 -5q-11 -30 -16.5 -63.5t-5.5 -69.5zM523 779q0 20 12 32t32 12t32 -12t12 -32t-12 -32t-32 -12t-32 12t-12 32zM403 779q0 20 12 32t32 12t32 -12t12 -32t-12 -32t-32 -12t-32 12t-12 32z" />
    <glyph glyph-name="Oslash" unicode="&#xd8;" horiz-adv-x="849" 
d="M304 -317q-4 -7 -6 -7q-4 0 -6 9.5t-4.5 21.5t-6 21.5t-9.5 9.5q-5 0 -11 -8q-1 -1 3 27q-69 12 -118.5 47t-82 84t-48 108.5t-15.5 122.5q0 59 13 117t36.5 108t57.5 90t76 62q20 47 52 86t71.5 67.5t84.5 46t90 20.5q5 21 8 34t4 10q1 -22 20 -22q15 0 33.5 8.5
t28.5 8.5q6 0 5 -8q-2 -6 -3.5 -16t-4.5 -23q44 -12 84 -39.5t70.5 -73t48.5 -109.5t18 -150q0 -67 -14 -137t-40.5 -135t-66 -122t-90.5 -100t-113 -67.5t-134 -24.5h-8q-8 -25 -13.5 -42t-9.5 -25zM436 153q-27 -105 -52.5 -200t-45.5 -163q57 1 105.5 26.5t88 67t69.5 97
t50.5 118t31 128.5t10.5 129q0 68 -10 120t-27.5 90t-41.5 62t-52 36q-9 -39 -21.5 -90.5t-27 -111.5t-31 -125.5t-33.5 -131.5q22 10 41 28.5t33 46.5t22 66.5t8 88.5q0 6 4 6t11.5 -5t16 -11.5t18 -11.5t17.5 -5q13 0 19 17q0 2 2 2q3 0 7.5 -10t4.5 -26q0 -56 -18.5 -98
t-48.5 -71.5t-69 -46.5t-81 -22zM272 -202q6 30 15 70t19 86t21.5 97.5t23.5 103.5q-39 6 -74 23t-62 43t-42.5 61.5t-15.5 80.5v7q-26 -52 -40.5 -118t-14.5 -135q0 -54 10 -105.5t31 -94.5t53 -74.5t76 -44.5zM237 342q0 -37 10.5 -64t28 -45t39.5 -28t44 -13
q17 72 32.5 140t28.5 123t21.5 91.5t10.5 45.5q4 14 9 36.5t10 45.5q-56 -9 -107.5 -49t-84.5 -105q11 0 20.5 -2.5t9.5 -16.5q0 -8 -6 -14.5t-14 -6.5q-13 0 -30 -5q-11 -30 -16.5 -63.5t-5.5 -69.5z" />
    <glyph glyph-name="Ugrave" unicode="&#xd9;" horiz-adv-x="1214" 
d="M942 4q-19 -45 -42.5 -90t-55 -81.5t-74 -59t-98.5 -22.5q-49 0 -84 17.5t-57.5 48t-33.5 72.5t-11 92q0 74 14 146t30.5 143.5t30 144t13.5 145.5q0 45 -13.5 78t-36.5 54.5t-53.5 32t-65.5 10.5q-60 0 -118.5 -29t-104 -80.5t-74 -123t-28.5 -156.5q0 -38 10 -65
t26.5 -44t37 -24.5t41.5 -7.5q22 0 43.5 13t39 41.5t28 75.5t10.5 114q0 6 4 6t11.5 -5t16 -11.5t18 -11.5t17.5 -5q13 0 19 17q0 2 2 2q3 0 7.5 -10t4.5 -26q0 -62 -19 -107t-50 -74.5t-70.5 -44t-81.5 -14.5q-36 0 -70.5 13.5t-62.5 39.5t-45 63.5t-17 84.5
q0 96 37.5 171.5t97 128t132 80t142.5 27.5q51 0 98.5 -15.5t84 -47t59 -80.5t22.5 -116q0 -73 -13.5 -145t-30 -143.5t-30.5 -143t-14 -144.5q0 -29 3.5 -55.5t14 -47t29.5 -32.5t51 -12q43 0 78 22.5t63.5 58.5t51 81.5t40 92.5t30 91t20.5 76q9 54 22 112t29.5 114
t37 106t45.5 88t53.5 60t61.5 22q8 0 14 -6t6 -14t-6 -14t-15 -6q-19 0 -36.5 -26.5t-33 -71t-29 -102t-25 -119t-20.5 -122.5t-15.5 -112t-9.5 -88.5t-3 -51.5q0 -18 2 -41t10 -43.5t26 -34t49 -13.5q6 0 6 -4t-5 -11.5t-11.5 -16t-11.5 -18t-5 -17.5q0 -13 17 -19
q2 0 2 -2q0 -3 -10 -7.5t-26 -4.5q-46 0 -74.5 24t-43.5 60t-20 79.5t-5 82.5v8zM847 744q-13 12 -30 26.5t-34.5 31.5t-34 37t-30.5 43q-6 10 11 10q5 0 12.5 -0.5t15.5 -0.5q14 0 24 5t5 24q-1 3 2.5 -1t10.5 -14t16.5 -24t19.5 -29q11 -16 21 -30.5t17 -25.5t10 -18
t-2 -7h-2q-1 0 -1.5 0.5t-2.5 0.5q-5 0 -6.5 -5.5t-2.5 -12t-2 -12t-5 -5.5t-12 7z" />
    <glyph glyph-name="Uacute" unicode="&#xda;" horiz-adv-x="1214" 
d="M942 4q-19 -45 -42.5 -90t-55 -81.5t-74 -59t-98.5 -22.5q-49 0 -84 17.5t-57.5 48t-33.5 72.5t-11 92q0 74 14 146t30.5 143.5t30 144t13.5 145.5q0 45 -13.5 78t-36.5 54.5t-53.5 32t-65.5 10.5q-60 0 -118.5 -29t-104 -80.5t-74 -123t-28.5 -156.5q0 -38 10 -65
t26.5 -44t37 -24.5t41.5 -7.5q22 0 43.5 13t39 41.5t28 75.5t10.5 114q0 6 4 6t11.5 -5t16 -11.5t18 -11.5t17.5 -5q13 0 19 17q0 2 2 2q3 0 7.5 -10t4.5 -26q0 -62 -19 -107t-50 -74.5t-70.5 -44t-81.5 -14.5q-36 0 -70.5 13.5t-62.5 39.5t-45 63.5t-17 84.5
q0 96 37.5 171.5t97 128t132 80t142.5 27.5q51 0 98.5 -15.5t84 -47t59 -80.5t22.5 -116q0 -73 -13.5 -145t-30 -143.5t-30.5 -143t-14 -144.5q0 -29 3.5 -55.5t14 -47t29.5 -32.5t51 -12q43 0 78 22.5t63.5 58.5t51 81.5t40 92.5t30 91t20.5 76q9 54 22 112t29.5 114
t37 106t45.5 88t53.5 60t61.5 22q8 0 14 -6t6 -14t-6 -14t-15 -6q-19 0 -36.5 -26.5t-33 -71t-29 -102t-25 -119t-20.5 -122.5t-15.5 -112t-9.5 -88.5t-3 -51.5q0 -18 2 -41t10 -43.5t26 -34t49 -13.5q6 0 6 -4t-5 -11.5t-11.5 -16t-11.5 -18t-5 -17.5q0 -13 17 -19
q2 0 2 -2q0 -3 -10 -7.5t-26 -4.5q-46 0 -74.5 24t-43.5 60t-20 79.5t-5 82.5v8zM870 744q-8 -7 -12 -7t-5 5.5t-2 12t-2.5 12t-6.5 5.5q-2 0 -2.5 -0.5t-1.5 -0.5h-2q-4 0 -1.5 7t9.5 18t17 25.5t21 30.5q11 15 20 29t16 24t10.5 14t2.5 1q-5 -19 5 -24t24 -5q8 0 15.5 0.5
t12.5 0.5q17 0 11 -10q-13 -23 -30 -43t-34.5 -37t-34.5 -31.5t-30 -26.5z" />
    <glyph glyph-name="Ucircumflex" unicode="&#xdb;" horiz-adv-x="1214" 
d="M942 4q-19 -45 -42.5 -90t-55 -81.5t-74 -59t-98.5 -22.5q-49 0 -84 17.5t-57.5 48t-33.5 72.5t-11 92q0 74 14 146t30.5 143.5t30 144t13.5 145.5q0 45 -13.5 78t-36.5 54.5t-53.5 32t-65.5 10.5q-60 0 -118.5 -29t-104 -80.5t-74 -123t-28.5 -156.5q0 -38 10 -65
t26.5 -44t37 -24.5t41.5 -7.5q22 0 43.5 13t39 41.5t28 75.5t10.5 114q0 6 4 6t11.5 -5t16 -11.5t18 -11.5t17.5 -5q13 0 19 17q0 2 2 2q3 0 7.5 -10t4.5 -26q0 -62 -19 -107t-50 -74.5t-70.5 -44t-81.5 -14.5q-36 0 -70.5 13.5t-62.5 39.5t-45 63.5t-17 84.5
q0 96 37.5 171.5t97 128t132 80t142.5 27.5q51 0 98.5 -15.5t84 -47t59 -80.5t22.5 -116q0 -73 -13.5 -145t-30 -143.5t-30.5 -143t-14 -144.5q0 -29 3.5 -55.5t14 -47t29.5 -32.5t51 -12q43 0 78 22.5t63.5 58.5t51 81.5t40 92.5t30 91t20.5 76q9 54 22 112t29.5 114
t37 106t45.5 88t53.5 60t61.5 22q8 0 14 -6t6 -14t-6 -14t-15 -6q-19 0 -36.5 -26.5t-33 -71t-29 -102t-25 -119t-20.5 -122.5t-15.5 -112t-9.5 -88.5t-3 -51.5q0 -18 2 -41t10 -43.5t26 -34t49 -13.5q6 0 6 -4t-5 -11.5t-11.5 -16t-11.5 -18t-5 -17.5q0 -13 17 -19
q2 0 2 -2q0 -3 -10 -7.5t-26 -4.5q-46 0 -74.5 24t-43.5 60t-20 79.5t-5 82.5v8zM896 918q7 0 12.5 5t10.5 5q4 0 8 -9q13 -35 30.5 -81.5t20.5 -100.5q0 -7 -4 -7t-10.5 4t-14 8.5t-15.5 8t-15 3.5q-14 0 -18 -20q-1 -3 -2 2.5t-2.5 17t-3.5 28t-5 35.5l-5 38l-18 -33
q-9 -17 -17 -32t-13.5 -25.5t-8.5 -15t-2 -1.5q3 16 -4 21.5t-18 5.5t-23.5 -3t-20.5 -3q-10 0 -6 9q22 49 54.5 87.5t57.5 64.5q4 5 8 5q7 0 11 -8.5t13 -8.5z" />
    <glyph glyph-name="Udieresis" unicode="&#xdc;" horiz-adv-x="1214" 
d="M942 4q-19 -45 -42.5 -90t-55 -81.5t-74 -59t-98.5 -22.5q-49 0 -84 17.5t-57.5 48t-33.5 72.5t-11 92q0 74 14 146t30.5 143.5t30 144t13.5 145.5q0 45 -13.5 78t-36.5 54.5t-53.5 32t-65.5 10.5q-60 0 -118.5 -29t-104 -80.5t-74 -123t-28.5 -156.5q0 -38 10 -65
t26.5 -44t37 -24.5t41.5 -7.5q22 0 43.5 13t39 41.5t28 75.5t10.5 114q0 6 4 6t11.5 -5t16 -11.5t18 -11.5t17.5 -5q13 0 19 17q0 2 2 2q3 0 7.5 -10t4.5 -26q0 -62 -19 -107t-50 -74.5t-70.5 -44t-81.5 -14.5q-36 0 -70.5 13.5t-62.5 39.5t-45 63.5t-17 84.5
q0 96 37.5 171.5t97 128t132 80t142.5 27.5q51 0 98.5 -15.5t84 -47t59 -80.5t22.5 -116q0 -73 -13.5 -145t-30 -143.5t-30.5 -143t-14 -144.5q0 -29 3.5 -55.5t14 -47t29.5 -32.5t51 -12q43 0 78 22.5t63.5 58.5t51 81.5t40 92.5t30 91t20.5 76q9 54 22 112t29.5 114
t37 106t45.5 88t53.5 60t61.5 22q8 0 14 -6t6 -14t-6 -14t-15 -6q-19 0 -36.5 -26.5t-33 -71t-29 -102t-25 -119t-20.5 -122.5t-15.5 -112t-9.5 -88.5t-3 -51.5q0 -18 2 -41t10 -43.5t26 -34t49 -13.5q6 0 6 -4t-5 -11.5t-11.5 -16t-11.5 -18t-5 -17.5q0 -13 17 -19
q2 0 2 -2q0 -3 -10 -7.5t-26 -4.5q-46 0 -74.5 24t-43.5 60t-20 79.5t-5 82.5v8zM878 780q0 20 12 32t32 12t32 -12t12 -32t-12 -32t-32 -12t-32 12t-12 32zM758 780q0 20 12 32t32 12t32 -12t12 -32t-12 -32t-32 -12t-32 12t-12 32z" />
    <glyph glyph-name="Yacute" unicode="&#xdd;" horiz-adv-x="1056" 
d="M660 -97q0 31 -5 61t-16 53.5t-30 37.5t-48 14q-20 0 -41 -7.5t-38 -23t-28 -39t-11 -56.5q0 -30 10.5 -57.5t31.5 -49t52.5 -34t73.5 -12.5q51 0 87 18.5t61.5 48.5t42 69.5t27 82t17.5 84.5l13 78l14 82q-19 -27 -40 -49.5t-46 -38.5t-54 -25t-64 -9q-80 0 -115.5 36.5
t-35.5 93.5q0 36 9 78t19.5 85.5t19.5 86.5t9 80q0 31 -6.5 57.5t-22.5 45.5t-43.5 30t-70.5 11q-70 0 -134 -29t-112.5 -80.5t-77 -123t-28.5 -156.5q0 -38 10 -65t26.5 -44t37 -24.5t41.5 -7.5q58 0 87.5 64.5t29.5 177.5q0 6 4 6t11.5 -5t16.5 -11.5t18.5 -11.5t17.5 -5
q13 0 19 17q0 2 2 2q3 0 7.5 -10t4.5 -26q0 -45 -14.5 -87.5t-42.5 -76t-68.5 -54t-92.5 -20.5q-36 0 -70.5 13.5t-62.5 39.5t-45 63.5t-17 84.5q0 96 38 171.5t101 128t143.5 80t164.5 27.5q65 0 108 -15.5t69.5 -42t37.5 -62t11 -76.5q0 -42 -9 -87.5t-20 -89t-20 -83.5
t-9 -71q0 -35 15 -55t53 -20q39 0 72 21.5t60.5 53.5t49 68.5t35.5 67.5q13 52 30 103.5t38.5 92t48.5 66t60 25.5q8 0 14 -6t6 -14t-6 -14t-14 -6q-19 0 -34 -26.5t-26.5 -68t-19.5 -92t-14 -98t-10 -86t-7 -56.5q-14 -79 -38 -159.5t-64.5 -145.5t-101 -106t-146.5 -41
q-46 0 -91 12.5t-81 36t-58.5 57.5t-22.5 78q0 40 18.5 72t48.5 55t67.5 35.5t75.5 12.5t71.5 -12t59.5 -33t41 -51t15 -66q0 -16 -4.5 -26t-7.5 -10q-2 0 -2 2q-6 17 -19 17q-8 0 -17.5 -5t-18 -11.5t-16 -11.5t-11.5 -5t-4 6zM849 743q-8 -7 -12 -7t-5 5.5t-2 12t-2.5 12
t-6.5 5.5q-2 0 -2.5 -0.5t-1.5 -0.5h-2q-4 0 -1.5 7t9.5 18t17 25.5t21 30.5q11 15 20 29t16 24t10.5 14t2.5 1q-5 -19 5 -24t24 -5q8 0 15.5 0.5t12.5 0.5q17 0 11 -10q-13 -23 -30 -43t-34.5 -37t-34.5 -31.5t-30 -26.5z" />
    <glyph glyph-name="Thorn" unicode="&#xde;" horiz-adv-x="1181" 
d="M710 276q0 -100 30.5 -152.5t99.5 -52.5q46 0 83 23t63.5 61t40.5 88t14 105q0 59 -18 119.5t-57 112.5t-100.5 91.5t-147.5 57.5q-17 -26 -32 -71t-26.5 -98.5t-21 -110.5t-16.5 -107t-11.5 -87.5t-7.5 -52.5q-14 -79 -38 -159.5t-64.5 -145.5t-101 -106t-146.5 -41
q-46 0 -91 12.5t-81 36t-58.5 57.5t-22.5 78q0 40 18.5 72t48.5 55t67.5 35.5t75.5 12.5t71.5 -12t59.5 -33t41 -51t15 -66q0 -16 -4.5 -26t-7.5 -10q-2 0 -2 2q-6 17 -19 17q-8 0 -17.5 -5t-18 -11.5t-16 -11.5t-11.5 -5t-4 6q0 31 -5 61t-16 53.5t-30 37.5t-48 14
q-20 0 -41 -7.5t-38 -23t-28 -39t-11 -56.5q0 -30 10.5 -57.5t31.5 -49t52.5 -34t73.5 -12.5q51 0 87 18.5t61.5 48.5t42 69.5t27 82t17.5 84.5l13 78q4 22 11 63t17.5 92.5t24.5 109t31.5 113t39 104.5t46.5 84q-17 2 -35 3t-37 1q-50 0 -106.5 -9.5t-112.5 -28t-108 -47
t-91.5 -67t-63 -87t-23.5 -107.5q0 -39 10 -66t26.5 -44.5t37 -25t41.5 -7.5q58 0 87.5 64.5t29.5 177.5q0 6 4 6t11.5 -5t16.5 -11.5t18.5 -11.5t17.5 -5q13 0 19 17q0 2 2 2q3 0 7.5 -10t4.5 -26q0 -45 -14.5 -87.5t-42.5 -76t-68.5 -54t-92.5 -20.5q-36 0 -70.5 14
t-62.5 40.5t-45 65t-17 88.5q0 62 27 112.5t71.5 89.5t103.5 68t123 47.5t129 27.5t122 9q29 0 55.5 -2t52.5 -5q15 14 31 22t34 8q8 0 14 -6t6 -14t-6 -14t-14 -6h-1q100 -21 172.5 -64.5t119.5 -99.5t69.5 -120.5t22.5 -128.5q0 -62 -20 -118.5t-59 -100t-95 -69.5
t-128 -26q-54 0 -97 15t-72.5 42t-45 64t-15.5 81q0 16 4.5 26t7.5 10q2 0 2 -2q6 -17 19 -17q8 0 17.5 5t18.5 11.5t16.5 11.5t11.5 5t4 -6z" />
    <glyph glyph-name="germandbls" unicode="&#xdf;" horiz-adv-x="518" 
d="M465 573q0 -48 -44 -102.5t-126 -110.5q33 -5 64.5 -18t55.5 -34t39 -50t15 -67q0 -53 -27 -89.5t-68.5 -59t-90 -32.5t-92.5 -10q-20 0 -46.5 1t-55.5 6q-16 4 -16 21q0 10 8 14.5t16 4.5q24 -5 47 -6t47 -1q34 0 67 9.5t59.5 28t42.5 47t16 66.5q0 24 -9 48t-28 43
t-48 31t-68 12q-7 0 -12 4t-7 10t0 12t8 10q45 31 76 60t50 55.5t27.5 49.5t8.5 41t-7 31.5t-18 21.5t-25 12t-28 4q-12 0 -26.5 -3.5t-32.5 -12.5t-40.5 -25t-50.5 -42q-7 -32 -17 -76t-20.5 -93.5t-21.5 -100t-19.5 -95t-13.5 -79.5t-5 -53q0 -15 4 -15q10 0 14.5 -6
t4.5 -14t-5 -14.5t-16 -6.5q-33 0 -46.5 39.5t-13.5 102.5q0 43 5 94t13 104.5t18 106.5t19 100t17.5 86t12.5 63q2 6 5 6q4 0 12 -6.5t17 -14.5t19 -14.5t19 -6.5q11 0 18 14q2 5 0 -12.5t-7 -44.5q30 23 67.5 41t83.5 18q17 0 43 -3.5t51 -15t43 -31.5t18 -53z" />
    <glyph glyph-name="agrave" unicode="&#xe0;" horiz-adv-x="433" 
d="M315 0q-37 0 -52.5 33.5t-18.5 87.5q-8 -21 -19.5 -42.5t-27.5 -39t-37 -28.5t-48 -11t-50 12t-39.5 33t-26 50.5t-9.5 63.5q0 44 15.5 89.5t42.5 82.5t65 60t83 23q26 0 45.5 -8.5t31.5 -22.5l5 25q2 6 5 6q4 0 12 -6.5t17 -14.5t19 -14.5t19 -6.5q11 0 18 14
q2 3 1.5 -3t-2.5 -18t-5 -28.5t-6 -34.5q-6 -29 -13.5 -62.5t-14.5 -66t-12 -61t-5 -46.5q0 -25 9 -25q2 0 7.5 4t13.5 15t20 29.5t27 48.5q21 39 34 70q8 17 14 32q5 12 19 12q11 0 16 -8.5t2 -17.5q-6 -19 -17.5 -44t-25 -51t-27.5 -50t-27 -40q-31 -41 -58 -41zM124 40
q20 0 36.5 17.5t30 45t24 61t18.5 64.5t12.5 56.5t6.5 37.5q0 22 -12 37t-35 15q-21 0 -39 -13.5t-32 -35t-25 -49t-18 -55t-10.5 -52.5t-3.5 -42q0 -12 2 -27t7.5 -28.5t14.5 -22.5t23 -9zM182 444q-13 12 -30 26.5t-34.5 31.5t-34 37t-30.5 43q-6 10 11 10q5 0 12.5 -0.5
t15.5 -0.5q14 0 24 5t5 24q-1 3 2.5 -1t10.5 -14t16.5 -24t19.5 -29q11 -16 21 -30.5t17 -25.5t10 -18t-2 -7h-2q-1 0 -1.5 0.5t-2.5 0.5q-5 0 -6.5 -5.5t-2.5 -12t-2 -12t-5 -5.5t-12 7z" />
    <glyph glyph-name="aacute" unicode="&#xe1;" horiz-adv-x="433" 
d="M315 0q-37 0 -52.5 33.5t-18.5 87.5q-8 -21 -19.5 -42.5t-27.5 -39t-37 -28.5t-48 -11t-50 12t-39.5 33t-26 50.5t-9.5 63.5q0 44 15.5 89.5t42.5 82.5t65 60t83 23q26 0 45.5 -8.5t31.5 -22.5l5 25q2 6 5 6q4 0 12 -6.5t17 -14.5t19 -14.5t19 -6.5q11 0 18 14
q2 3 1.5 -3t-2.5 -18t-5 -28.5t-6 -34.5q-6 -29 -13.5 -62.5t-14.5 -66t-12 -61t-5 -46.5q0 -25 9 -25q2 0 7.5 4t13.5 15t20 29.5t27 48.5q21 39 34 70q8 17 14 32q5 12 19 12q11 0 16 -8.5t2 -17.5q-6 -19 -17.5 -44t-25 -51t-27.5 -50t-27 -40q-31 -41 -58 -41zM124 40
q20 0 36.5 17.5t30 45t24 61t18.5 64.5t12.5 56.5t6.5 37.5q0 22 -12 37t-35 15q-21 0 -39 -13.5t-32 -35t-25 -49t-18 -55t-10.5 -52.5t-3.5 -42q0 -12 2 -27t7.5 -28.5t14.5 -22.5t23 -9zM205 444q-8 -7 -12 -7t-5 5.5t-2 12t-2.5 12t-6.5 5.5q-2 0 -2.5 -0.5t-1.5 -0.5
h-2q-4 0 -1.5 7t9.5 18t17 25.5t21 30.5q11 15 20 29t16 24t10.5 14t2.5 1q-5 -19 5 -24t24 -5q8 0 15.5 0.5t12.5 0.5q17 0 11 -10q-13 -23 -30 -43t-34.5 -37t-34.5 -31.5t-30 -26.5z" />
    <glyph glyph-name="acircumflex" unicode="&#xe2;" horiz-adv-x="433" 
d="M315 0q-37 0 -52.5 33.5t-18.5 87.5q-8 -21 -19.5 -42.5t-27.5 -39t-37 -28.5t-48 -11t-50 12t-39.5 33t-26 50.5t-9.5 63.5q0 44 15.5 89.5t42.5 82.5t65 60t83 23q26 0 45.5 -8.5t31.5 -22.5l5 25q2 6 5 6q4 0 12 -6.5t17 -14.5t19 -14.5t19 -6.5q11 0 18 14
q2 3 1.5 -3t-2.5 -18t-5 -28.5t-6 -34.5q-6 -29 -13.5 -62.5t-14.5 -66t-12 -61t-5 -46.5q0 -25 9 -25q2 0 7.5 4t13.5 15t20 29.5t27 48.5q21 39 34 70q8 17 14 32q5 12 19 12q11 0 16 -8.5t2 -17.5q-6 -19 -17.5 -44t-25 -51t-27.5 -50t-27 -40q-31 -41 -58 -41zM124 40
q20 0 36.5 17.5t30 45t24 61t18.5 64.5t12.5 56.5t6.5 37.5q0 22 -12 37t-35 15q-21 0 -39 -13.5t-32 -35t-25 -49t-18 -55t-10.5 -52.5t-3.5 -42q0 -12 2 -27t7.5 -28.5t14.5 -22.5t23 -9zM231 618q7 0 12.5 5t10.5 5q4 0 8 -9q13 -35 30.5 -81.5t20.5 -100.5q0 -7 -4 -7
t-10.5 4t-14 8.5t-15.5 8t-15 3.5q-14 0 -18 -20q-1 -3 -2 2.5t-2.5 17t-3.5 28t-5 35.5l-5 38l-18 -33q-9 -17 -17 -32t-13.5 -25.5t-8.5 -15t-2 -1.5q3 16 -4 21.5t-18 5.5t-23.5 -3t-20.5 -3q-10 0 -6 9q22 49 54.5 87.5t57.5 64.5q4 5 8 5q7 0 11 -8.5t13 -8.5z" />
    <glyph glyph-name="atilde" unicode="&#xe3;" horiz-adv-x="433" 
d="M315 0q-37 0 -52.5 33.5t-18.5 87.5q-8 -21 -19.5 -42.5t-27.5 -39t-37 -28.5t-48 -11t-50 12t-39.5 33t-26 50.5t-9.5 63.5q0 44 15.5 89.5t42.5 82.5t65 60t83 23q26 0 45.5 -8.5t31.5 -22.5l5 25q2 6 5 6q4 0 12 -6.5t17 -14.5t19 -14.5t19 -6.5q11 0 18 14
q2 3 1.5 -3t-2.5 -18t-5 -28.5t-6 -34.5q-6 -29 -13.5 -62.5t-14.5 -66t-12 -61t-5 -46.5q0 -25 9 -25q2 0 7.5 4t13.5 15t20 29.5t27 48.5q21 39 34 70q8 17 14 32q5 12 19 12q11 0 16 -8.5t2 -17.5q-6 -19 -17.5 -44t-25 -51t-27.5 -50t-27 -40q-31 -41 -58 -41zM124 40
q20 0 36.5 17.5t30 45t24 61t18.5 64.5t12.5 56.5t6.5 37.5q0 22 -12 37t-35 15q-21 0 -39 -13.5t-32 -35t-25 -49t-18 -55t-10.5 -52.5t-3.5 -42q0 -12 2 -27t7.5 -28.5t14.5 -22.5t23 -9zM260 439q-22 0 -39.5 4.5t-32.5 10t-29 10t-29 4.5q-14 0 -17.5 -11.5t-3.5 -24.5
q0 -7 -2 -7t-6 5t-9.5 11.5t-11 11.5t-10.5 5q-7 0 -13 -14q0 -2 -2 -2q-3 0 -8 9t-5 20q0 26 20 36t47 10q22 0 39.5 -4.5t32.5 -10t29 -10t29 -4.5q14 0 17.5 11.5t3.5 24.5q0 7 2 7t6 -5t9.5 -11.5t11 -11.5t10.5 -5q7 0 13 14q0 2 2 2q3 0 8 -9t5 -20q0 -26 -20 -36
t-47 -10z" />
    <glyph glyph-name="adieresis" unicode="&#xe4;" horiz-adv-x="433" 
d="M315 0q-37 0 -52.5 33.5t-18.5 87.5q-8 -21 -19.5 -42.5t-27.5 -39t-37 -28.5t-48 -11t-50 12t-39.5 33t-26 50.5t-9.5 63.5q0 44 15.5 89.5t42.5 82.5t65 60t83 23q26 0 45.5 -8.5t31.5 -22.5l5 25q2 6 5 6q4 0 12 -6.5t17 -14.5t19 -14.5t19 -6.5q11 0 18 14
q2 3 1.5 -3t-2.5 -18t-5 -28.5t-6 -34.5q-6 -29 -13.5 -62.5t-14.5 -66t-12 -61t-5 -46.5q0 -25 9 -25q2 0 7.5 4t13.5 15t20 29.5t27 48.5q21 39 34 70q8 17 14 32q5 12 19 12q11 0 16 -8.5t2 -17.5q-6 -19 -17.5 -44t-25 -51t-27.5 -50t-27 -40q-31 -41 -58 -41zM124 40
q20 0 36.5 17.5t30 45t24 61t18.5 64.5t12.5 56.5t6.5 37.5q0 22 -12 37t-35 15q-21 0 -39 -13.5t-32 -35t-25 -49t-18 -55t-10.5 -52.5t-3.5 -42q0 -12 2 -27t7.5 -28.5t14.5 -22.5t23 -9zM93 480q0 20 12 32t32 12t32 -12t12 -32t-12 -32t-32 -12t-32 12t-12 32zM213 480
q0 20 12 32t32 12t32 -12t12 -32t-12 -32t-32 -12t-32 12t-12 32z" />
    <glyph glyph-name="aring" unicode="&#xe5;" horiz-adv-x="433" 
d="M315 0q-37 0 -52.5 33.5t-18.5 87.5q-8 -21 -19.5 -42.5t-27.5 -39t-37 -28.5t-48 -11t-50 12t-39.5 33t-26 50.5t-9.5 63.5q0 44 15.5 89.5t42.5 82.5t65 60t83 23q26 0 45.5 -8.5t31.5 -22.5l5 25q2 6 5 6q4 0 12 -6.5t17 -14.5t19 -14.5t19 -6.5q11 0 18 14
q2 3 1.5 -3t-2.5 -18t-5 -28.5t-6 -34.5q-6 -29 -13.5 -62.5t-14.5 -66t-12 -61t-5 -46.5q0 -25 9 -25q2 0 7.5 4t13.5 15t20 29.5t27 48.5q21 39 34 70q8 17 14 32q5 12 19 12q11 0 16 -8.5t2 -17.5q-6 -19 -17.5 -44t-25 -51t-27.5 -50t-27 -40q-31 -41 -58 -41zM124 40
q20 0 36.5 17.5t30 45t24 61t18.5 64.5t12.5 56.5t6.5 37.5q0 22 -12 37t-35 15q-21 0 -39 -13.5t-32 -35t-25 -49t-18 -55t-10.5 -52.5t-3.5 -42q0 -12 2 -27t7.5 -28.5t14.5 -22.5t23 -9zM220 629q52 0 75.5 -23.5t23.5 -54.5q0 -19 -8.5 -38.5t-24.5 -35t-39.5 -25.5
t-52.5 -10q-52 0 -75.5 23.5t-23.5 54.5q0 20 8.5 39t24.5 35t39.5 25.5t52.5 9.5zM194 482q23 0 38 16.5t20 37t-2 37t-30 16.5t-38.5 -16.5t-20 -37t3 -37t29.5 -16.5z" />
    <glyph glyph-name="ae" unicode="&#xe6;" horiz-adv-x="590" 
d="M627 226q-15 -40 -37 -80t-51 -72.5t-67.5 -53t-86.5 -20.5q-59 0 -95 32t-50 80q-8 -20 -19.5 -40t-27.5 -36t-36 -26t-45 -10q-27 0 -50 12t-39.5 33t-26 50.5t-9.5 63.5q0 44 15.5 89.5t42.5 82.5t65 60t83 23q44 0 68.5 -22t29.5 -54q26 34 61 55t77 21q48 0 81 -27
t33 -72q0 -36 -22.5 -65.5t-55.5 -50.5t-71.5 -33t-70.5 -13q0 -12 2 -31.5t10 -37.5t23 -31t42 -13q36 0 65.5 20.5t53.5 51t41.5 65.5t29.5 63q5 12 19 12q10 0 16 -8.5t2 -17.5zM124 40q20 0 36.5 17.5t30 45t24 61t18.5 64.5t12.5 56.5t6.5 37.5q0 22 -12 37t-35 15
q-21 0 -39 -13.5t-32 -35t-25 -49t-18 -55t-10.5 -52.5t-3.5 -42q0 -12 2 -27t7.5 -28.5t14.5 -22.5t23 -9zM327 194q27 3 51.5 14t43.5 28.5t30 40t11 47.5q0 23 -9.5 36.5t-25.5 13.5q-21 0 -38.5 -20.5t-30.5 -49.5t-21 -59.5t-11 -50.5z" />
    <glyph glyph-name="ccedilla" unicode="&#xe7;" horiz-adv-x="355" 
d="M135 -251q-24 0 -47 3q-9 2 -13.5 8.5t-3.5 14.5q1 10 7.5 13.5t15.5 3.5q3 -1 13 -1.5t13 -0.5q34 0 58.5 18t24.5 54q0 53 -49 53q-11 0 -17.5 7.5t-4.5 18.5l13 59h-3q-37 0 -66 12.5t-49 34t-30 50t-10 61.5q0 42 14.5 87.5t41 83t64.5 61.5t85 24q39 0 63 -15.5
t36 -39t12.5 -52t-7.5 -55.5q-1 -5 -5 -5q-7 0 -19 10t-28 10q-13 0 -26 -13q1 13 4 33.5t2 39.5t-7.5 33t-24.5 14q-29 0 -50.5 -28.5t-36 -67.5t-21.5 -78.5t-7 -61.5q0 -16 4.5 -39.5t21 -41t48.5 -17.5q41 0 73 19t56.5 48.5t43 64.5t31.5 68q5 12 19 12q10 0 16 -8.5
t2 -17.5q-14 -37 -32.5 -73t-43 -66t-56.5 -51.5t-74 -30.5l-9 -49q21 0 40 -7.5t34 -20.5t23.5 -31t8.5 -40q0 -30 -14 -50.5t-35.5 -33t-47.5 -18.5t-51 -6z" />
    <glyph glyph-name="egrave" unicode="&#xe8;" horiz-adv-x="347" 
d="M84 194q27 3 51.5 14t43.5 28.5t30 40t11 47.5q0 23 -9.5 36.5t-25.5 13.5q-21 0 -38.5 -20.5t-30.5 -49.5t-21 -59.5t-11 -50.5zM384 226q-15 -40 -37 -80t-51 -72.5t-67.5 -53t-86.5 -20.5q-37 0 -65.5 14t-48 37.5t-29 54t-9.5 64.5q0 43 14.5 86.5t40.5 78.5t62 57
t79 22q48 0 81 -27t33 -72q0 -36 -22.5 -65.5t-55.5 -50.5t-71.5 -33t-70.5 -13q0 -12 2 -31.5t10 -37.5t23 -31t42 -13q36 0 65.5 20.5t53.5 51t41.5 65.5t29.5 63q5 12 19 12q10 0 16 -8.5t2 -17.5zM175 444q-13 12 -30 26.5t-34.5 31.5t-34 37t-30.5 43q-6 10 11 10
q5 0 12.5 -0.5t15.5 -0.5q14 0 24 5t5 24q-1 3 2.5 -1t10.5 -14t16.5 -24t19.5 -29q11 -16 21 -30.5t17 -25.5t10 -18t-2 -7h-2q-1 0 -1.5 0.5t-2.5 0.5q-5 0 -6.5 -5.5t-2.5 -12t-2 -12t-5 -5.5t-12 7z" />
    <glyph glyph-name="eacute" unicode="&#xe9;" horiz-adv-x="347" 
d="M84 194q27 3 51.5 14t43.5 28.5t30 40t11 47.5q0 23 -9.5 36.5t-25.5 13.5q-21 0 -38.5 -20.5t-30.5 -49.5t-21 -59.5t-11 -50.5zM384 226q-15 -40 -37 -80t-51 -72.5t-67.5 -53t-86.5 -20.5q-37 0 -65.5 14t-48 37.5t-29 54t-9.5 64.5q0 43 14.5 86.5t40.5 78.5t62 57
t79 22q48 0 81 -27t33 -72q0 -36 -22.5 -65.5t-55.5 -50.5t-71.5 -33t-70.5 -13q0 -12 2 -31.5t10 -37.5t23 -31t42 -13q36 0 65.5 20.5t53.5 51t41.5 65.5t29.5 63q5 12 19 12q10 0 16 -8.5t2 -17.5zM198 444q-8 -7 -12 -7t-5 5.5t-2 12t-2.5 12t-6.5 5.5q-2 0 -2.5 -0.5
t-1.5 -0.5h-2q-4 0 -1.5 7t9.5 18t17 25.5t21 30.5q11 15 20 29t16 24t10.5 14t2.5 1q-5 -19 5 -24t24 -5q8 0 15.5 0.5t12.5 0.5q17 0 11 -10q-13 -23 -30 -43t-34.5 -37t-34.5 -31.5t-30 -26.5z" />
    <glyph glyph-name="ecircumflex" unicode="&#xea;" horiz-adv-x="347" 
d="M384 226q-15 -40 -37 -80t-51 -72.5t-67.5 -53t-86.5 -20.5q-37 0 -65.5 14t-48 37.5t-29 54t-9.5 64.5q0 43 14.5 86.5t40.5 78.5t62 57t79 22q48 0 81 -27t33 -72q0 -36 -22.5 -65.5t-55.5 -50.5t-71.5 -33t-70.5 -13q0 -12 2 -31.5t10 -37.5t23 -31t42 -13
q36 0 65.5 20.5t53.5 51t41.5 65.5t29.5 63q5 12 19 12q10 0 16 -8.5t2 -17.5zM224 618q7 0 12.5 5t10.5 5q4 0 8 -9q13 -35 30.5 -81.5t20.5 -100.5q0 -7 -4 -7t-10.5 4t-14 8.5t-15.5 8t-15 3.5q-14 0 -18 -20q-1 -3 -2 2.5t-2.5 17t-3.5 28t-5 35.5l-5 38l-18 -33
q-9 -17 -17 -32t-13.5 -25.5t-8.5 -15t-2 -1.5q3 16 -4 21.5t-18 5.5t-23.5 -3t-20.5 -3q-10 0 -6 9q22 49 54.5 87.5t57.5 64.5q4 5 8 5q7 0 11 -8.5t13 -8.5zM84 194q27 3 51.5 14t43.5 28.5t30 40t11 47.5q0 23 -9.5 36.5t-25.5 13.5q-21 0 -38.5 -20.5t-30.5 -49.5
t-21 -59.5t-11 -50.5z" />
    <glyph glyph-name="edieresis" unicode="&#xeb;" horiz-adv-x="347" 
d="M84 194q27 3 51.5 14t43.5 28.5t30 40t11 47.5q0 23 -9.5 36.5t-25.5 13.5q-21 0 -38.5 -20.5t-30.5 -49.5t-21 -59.5t-11 -50.5zM384 226q-15 -40 -37 -80t-51 -72.5t-67.5 -53t-86.5 -20.5q-37 0 -65.5 14t-48 37.5t-29 54t-9.5 64.5q0 43 14.5 86.5t40.5 78.5t62 57
t79 22q48 0 81 -27t33 -72q0 -36 -22.5 -65.5t-55.5 -50.5t-71.5 -33t-70.5 -13q0 -12 2 -31.5t10 -37.5t23 -31t42 -13q36 0 65.5 20.5t53.5 51t41.5 65.5t29.5 63q5 12 19 12q10 0 16 -8.5t2 -17.5zM86 480q0 20 12 32t32 12t32 -12t12 -32t-12 -32t-32 -12t-32 12t-12 32
zM206 480q0 20 12 32t32 12t32 -12t12 -32t-12 -32t-32 -12t-32 12t-12 32z" />
    <glyph glyph-name="igrave" unicode="&#xec;" horiz-adv-x="183" 
d="M60 435q-9 15 -18.5 30t-18.5 31.5t-17 36t-14 45.5q-1 8 4 8q8 0 24 -7.5t30 -7.5q11 0 14.5 7t3.5 17q1 0 3.5 -17.5t11.5 -47.5q11 -35 18.5 -58t1.5 -23l-4 2t-5 2q-4 0 -7 -4.5t-5.5 -10t-5 -10t-5.5 -4.5q-4 0 -11 11zM65 0q-20 0 -33.5 11t-22 30.5t-12 46.5
t-3.5 58q0 32 3 66t7.5 68.5t10 67t10.5 60.5q2 6 5 6q4 0 12 -6.5t17 -14.5t19 -14.5t19 -6.5q11 0 18 14q2 3 1.5 -3t-2.5 -18t-5 -28.5t-6 -34.5q-6 -29 -13.5 -62.5t-14.5 -66t-12 -61t-5 -46.5q0 -25 9 -25q2 0 7.5 4t13.5 15t20 30t27 48q21 39 34 70q8 17 14 32
q5 12 19 12q11 0 16.5 -8.5t1.5 -17.5q-8 -21 -19 -45.5t-23.5 -50t-26.5 -48.5t-28 -41q-31 -41 -58 -41z" />
    <glyph glyph-name="iacute" unicode="&#xed;" horiz-adv-x="183" 
d="M105 435q-7 -11 -11 -11q-3 0 -5.5 4.5t-5 10t-5.5 10t-7 4.5q-1 0 -5 -2l-4 -2q-6 0 1.5 23t18.5 58q9 30 11.5 47.5t3.5 17.5q0 -10 3.5 -17t14.5 -7q14 0 30 7.5t24 7.5q5 0 4 -8q-6 -26 -14 -45.5t-17 -36t-18.5 -31.5t-18.5 -30zM65 0q-20 0 -33.5 11t-22 30.5
t-12 46.5t-3.5 58q0 32 3 66t7.5 68.5t10 67t10.5 60.5q2 6 5 6q4 0 12 -6.5t17 -14.5t19 -14.5t19 -6.5q11 0 18 14q2 3 1.5 -3t-2.5 -18t-5 -28.5t-6 -34.5q-6 -29 -13.5 -62.5t-14.5 -66t-12 -61t-5 -46.5q0 -25 9 -25q2 0 7.5 4t13.5 15t20 30t27 48q21 39 34 70
q8 17 14 32q5 12 19 12q11 0 16.5 -8.5t1.5 -17.5q-8 -21 -19 -45.5t-23.5 -50t-26.5 -48.5t-28 -41q-31 -41 -58 -41z" />
    <glyph glyph-name="icircumflex" unicode="&#xee;" horiz-adv-x="183" 
d="M65 0q-20 0 -33.5 11t-22 30.5t-12 46.5t-3.5 58q0 32 3 66t7.5 68.5t10 67t10.5 60.5q2 6 5 6q4 0 12 -6.5t17 -14.5t19 -14.5t19 -6.5q11 0 18 14q2 3 1.5 -3t-2.5 -18t-5 -28.5t-6 -34.5q-6 -29 -13.5 -62.5t-14.5 -66t-12 -61t-5 -46.5q0 -25 9 -25q2 0 7.5 4
t13.5 15t20 30t27 48q21 39 34 70q8 17 14 32q5 12 19 12q11 0 16.5 -8.5t1.5 -17.5q-8 -21 -19 -45.5t-23.5 -50t-26.5 -48.5t-28 -41q-31 -41 -58 -41zM113 583q5 0 10 4.5t9 4.5t7 -8q11 -29 25.5 -68t16.5 -84q0 -6 -3 -6q-7 0 -20.5 10t-25.5 10t-15 -17
q-1 -5 -3.5 16.5t-7.5 53.5q-2 8 -2 16t-2 16l-15 -28q-15 -29 -25 -48t-9 -14q2 14 -3.5 18.5t-15.5 4.5q-9 0 -19.5 -2.5t-17.5 -2.5q-8 0 -5 7q19 42 46 73.5t48 53.5q4 4 7 4q5 0 8.5 -7t11.5 -7z" />
    <glyph glyph-name="idieresis" unicode="&#xef;" horiz-adv-x="183" 
d="M3 473q0 16 10 26t27 10t26.5 -10t9.5 -26q0 -17 -9.5 -27t-26.5 -10t-27 10t-10 27zM95 473q0 16 10 26t26 10q17 0 27 -10t10 -26q0 -17 -10 -27t-27 -10q-16 0 -26 10t-10 27zM65 0q-20 0 -33.5 11t-22 30.5t-12 46.5t-3.5 58q0 32 3 66t7.5 68.5t10 67t10.5 60.5
q2 6 5 6q4 0 12 -6.5t17 -14.5t19 -14.5t19 -6.5q11 0 18 14q2 3 1.5 -3t-2.5 -18t-5 -28.5t-6 -34.5q-6 -29 -13.5 -62.5t-14.5 -66t-12 -61t-5 -46.5q0 -25 9 -25q2 0 7.5 4t13.5 15t20 30t27 48q21 39 34 70q8 17 14 32q5 12 19 12q11 0 16.5 -8.5t1.5 -17.5
q-8 -21 -19 -45.5t-23.5 -50t-26.5 -48.5t-28 -41q-31 -41 -58 -41z" />
    <glyph glyph-name="eth" unicode="&#xf0;" horiz-adv-x="470" 
d="M469 240q5 12 19 12q11 0 16.5 -8t1.5 -18q-22 -57 -60.5 -99.5t-87 -71t-105.5 -42.5t-116 -14q-32 0 -61.5 10.5t-51.5 29.5t-35 45.5t-13 59.5q0 44 15.5 80t40.5 61t57 38.5t65 13.5q36 0 67.5 -15.5t62.5 -59.5q5 38 7.5 71.5t2.5 63.5q0 33 -3 61t-8 53
q-29 -20 -55.5 -34.5t-53.5 -26.5q-6 -2 -7 -2q-7 0 -3.5 11.5t8 25t5.5 24.5t-11 11q-5 0 -8 -1q-5 -1 1 4.5t19.5 16t33.5 25t42 31.5q-18 33 -40.5 48.5t-42.5 15.5q-32 0 -58.5 -38t-43.5 -121q-1 -6 -6 -6q-4 0 -10 5t-13.5 11.5t-16 11.5t-16.5 5q-14 0 -22 -17
q-2 -2 -3 -2q-6 0 -6 19q0 4 0.5 8t1.5 9q7 35 25 63.5t44.5 49t59 31.5t69.5 11q39 0 74.5 -13.5t64.5 -39.5q26 22 44 36.5t15 9.5q-8 -12 -4.5 -20t12.5 -13t20.5 -8.5t21 -6.5t14 -6.5t-1.5 -8.5q-19 -16 -35.5 -30t-32.5 -26q15 -32 23.5 -71t8.5 -86
q0 -132 -31.5 -217.5t-78.5 -133.5q62 25 108 68t71 106zM61 132q0 -44 22 -68t53 -24q18 0 38 9t38.5 28.5t34 49.5t25.5 71q-29 56 -55.5 77t-54.5 21q-19 0 -37 -10.5t-32.5 -31t-23 -51t-8.5 -71.5z" />
    <glyph glyph-name="ntilde" unicode="&#xf1;" horiz-adv-x="421" 
d="M373 138q21 39 34 70q8 17 14 32q5 12 19 12q11 0 16.5 -8.5t1.5 -17.5q-8 -21 -19 -45.5t-23.5 -50t-26.5 -48.5t-28 -41q-16 -21 -30.5 -31t-34.5 -10q-19 0 -31 8t-19 21t-10 29t-3 32q0 19 4.5 48.5t10.5 62.5t10.5 65t4.5 56q0 23 -5 37.5t-17 14.5
q-18 0 -36.5 -22.5t-35.5 -57t-32 -77t-26.5 -82t-18 -72t-6.5 -47.5q-3 -11 -15 -15q-1 -1 -2 -1h-5q-20 0 -33.5 11t-22 30.5t-12 46.5t-3.5 58q0 32 3 66t7.5 68.5t10 67t10.5 60.5q2 6 5 6q4 0 12 -6.5t17 -14.5t19 -14.5t19 -6.5q11 0 18 14q2 3 1.5 -3t-2.5 -18
t-5 -28.5t-6 -34.5q-6 -28 -13.5 -61t-14.5 -64.5t-12 -59.5t-5 -47q5 24 13 59t19 73t26.5 76t35 68t44.5 49t55 19q27 0 46 -10.5t32 -28.5t19 -41.5t6 -50.5q0 -33 -9.5 -74.5t-20 -79t-17.5 -63t-1 -25.5q2 0 7.5 4t13.5 15t20 29.5t27 48.5zM311 439q-22 0 -39.5 4.5
t-32.5 10t-29 10t-29 4.5q-14 0 -17.5 -11.5t-3.5 -24.5q0 -7 -2 -7t-6 5t-9.5 11.5t-11 11.5t-10.5 5q-7 0 -13 -14q0 -2 -2 -2q-3 0 -8 9t-5 20q0 26 20 36t47 10q22 0 39.5 -4.5t32.5 -10t29 -10t29 -4.5q14 0 17.5 11.5t3.5 24.5q0 7 2 7t6 -5t9.5 -11.5t11 -11.5
t10.5 -5q7 0 13 14q0 2 2 2q3 0 8 -9t5 -20q0 -26 -20 -36t-47 -10z" />
    <glyph glyph-name="ograve" unicode="&#xf2;" horiz-adv-x="402" 
d="M402 240q5 12 19 12q8 0 13.5 -5.5t5.5 -13.5q0 -5 -1 -7q-8 -19 -36.5 -36t-68.5 -30q-12 -32 -30.5 -61t-43.5 -51t-55 -35t-65 -13q-42 0 -73 13t-51 34.5t-30 49.5t-10 57q0 44 20.5 84t60.5 62q5 21 17 39.5t30.5 33t44 23t58.5 8.5q38 0 65 -12t44.5 -32.5t26 -48
t8.5 -58.5q0 -11 -1 -22.5t-3 -22.5q23 9 38 18t17 14zM219 181q21 0 43 3q9 38 9 75q0 44 -15.5 74.5t-49.5 30.5q-25 0 -42 -13t-27 -33q5 -3 8 -9t3 -11q0 -8 -5.5 -14t-14.5 -6h-3q-1 -5 -1 -9.5v-9.5q0 -44 28 -61t67 -17zM142 40q35 0 62.5 30t44.5 73q-9 -1 -17.5 -1
h-16.5q-45 0 -83.5 13t-59.5 45q-6 -25 -6 -53q0 -21 4 -40t13 -34t23.5 -24t35.5 -9zM197 444q-13 12 -30 26.5t-34.5 31.5t-34 37t-30.5 43q-6 10 11 10q5 0 12.5 -0.5t15.5 -0.5q14 0 24 5t5 24q-1 3 2.5 -1t10.5 -14t16.5 -24t19.5 -29q11 -16 21 -30.5t17 -25.5t10 -18
t-2 -7h-2q-1 0 -1.5 0.5t-2.5 0.5q-5 0 -6.5 -5.5t-2.5 -12t-2 -12t-5 -5.5t-12 7z" />
    <glyph glyph-name="oacute" unicode="&#xf3;" horiz-adv-x="402" 
d="M402 240q5 12 19 12q8 0 13.5 -5.5t5.5 -13.5q0 -5 -1 -7q-8 -19 -36.5 -36t-68.5 -30q-12 -32 -30.5 -61t-43.5 -51t-55 -35t-65 -13q-42 0 -73 13t-51 34.5t-30 49.5t-10 57q0 44 20.5 84t60.5 62q5 21 17 39.5t30.5 33t44 23t58.5 8.5q38 0 65 -12t44.5 -32.5t26 -48
t8.5 -58.5q0 -11 -1 -22.5t-3 -22.5q23 9 38 18t17 14zM219 181q21 0 43 3q9 38 9 75q0 44 -15.5 74.5t-49.5 30.5q-25 0 -42 -13t-27 -33q5 -3 8 -9t3 -11q0 -8 -5.5 -14t-14.5 -6h-3q-1 -5 -1 -9.5v-9.5q0 -44 28 -61t67 -17zM142 40q35 0 62.5 30t44.5 73q-9 -1 -17.5 -1
h-16.5q-45 0 -83.5 13t-59.5 45q-6 -25 -6 -53q0 -21 4 -40t13 -34t23.5 -24t35.5 -9zM220 444q-8 -7 -12 -7t-5 5.5t-2 12t-2.5 12t-6.5 5.5q-2 0 -2.5 -0.5t-1.5 -0.5h-2q-4 0 -1.5 7t9.5 18t17 25.5t21 30.5q11 15 20 29t16 24t10.5 14t2.5 1q-5 -19 5 -24t24 -5
q8 0 15.5 0.5t12.5 0.5q17 0 11 -10q-13 -23 -30 -43t-34.5 -37t-34.5 -31.5t-30 -26.5z" />
    <glyph glyph-name="ocircumflex" unicode="&#xf4;" horiz-adv-x="402" 
d="M402 240q5 12 19 12q8 0 13.5 -5.5t5.5 -13.5q0 -5 -1 -7q-8 -19 -36.5 -36t-68.5 -30q-12 -32 -30.5 -61t-43.5 -51t-55 -35t-65 -13q-42 0 -73 13t-51 34.5t-30 49.5t-10 57q0 44 20.5 84t60.5 62q5 21 17 39.5t30.5 33t44 23t58.5 8.5q38 0 65 -12t44.5 -32.5t26 -48
t8.5 -58.5q0 -11 -1 -22.5t-3 -22.5q23 9 38 18t17 14zM246 618q7 0 12.5 5t10.5 5q4 0 8 -9q13 -35 30.5 -81.5t20.5 -100.5q0 -7 -4 -7t-10.5 4t-14 8.5t-15.5 8t-15 3.5q-14 0 -18 -20q-1 -3 -2 2.5t-2.5 17t-3.5 28t-5 35.5l-5 38l-18 -33q-9 -17 -17 -32t-13.5 -25.5
t-8.5 -15t-2 -1.5q3 16 -4 21.5t-18 5.5t-23.5 -3t-20.5 -3q-10 0 -6 9q22 49 54.5 87.5t57.5 64.5q4 5 8 5q7 0 11 -8.5t13 -8.5zM219 181q21 0 43 3q9 38 9 75q0 44 -15.5 74.5t-49.5 30.5q-25 0 -42 -13t-27 -33q5 -3 8 -9t3 -11q0 -8 -5.5 -14t-14.5 -6h-3
q-1 -5 -1 -9.5v-9.5q0 -44 28 -61t67 -17zM142 40q35 0 62.5 30t44.5 73q-9 -1 -17.5 -1h-16.5q-45 0 -83.5 13t-59.5 45q-6 -25 -6 -53q0 -21 4 -40t13 -34t23.5 -24t35.5 -9z" />
    <glyph glyph-name="otilde" unicode="&#xf5;" horiz-adv-x="402" 
d="M402 240q5 12 19 12q8 0 13.5 -5.5t5.5 -13.5q0 -5 -1 -7q-8 -19 -36.5 -36t-68.5 -30q-12 -32 -30.5 -61t-43.5 -51t-55 -35t-65 -13q-42 0 -73 13t-51 34.5t-30 49.5t-10 57q0 44 20.5 84t60.5 62q5 21 17 39.5t30.5 33t44 23t58.5 8.5q38 0 65 -12t44.5 -32.5t26 -48
t8.5 -58.5q0 -11 -1 -22.5t-3 -22.5q23 9 38 18t17 14zM219 181q21 0 43 3q9 38 9 75q0 44 -15.5 74.5t-49.5 30.5q-25 0 -42 -13t-27 -33q5 -3 8 -9t3 -11q0 -8 -5.5 -14t-14.5 -6h-3q-1 -5 -1 -9.5v-9.5q0 -44 28 -61t67 -17zM142 40q35 0 62.5 30t44.5 73q-9 -1 -17.5 -1
h-16.5q-45 0 -83.5 13t-59.5 45q-6 -25 -6 -53q0 -21 4 -40t13 -34t23.5 -24t35.5 -9zM275 439q-22 0 -39.5 4.5t-32.5 10t-29 10t-29 4.5q-14 0 -17.5 -11.5t-3.5 -24.5q0 -7 -2 -7t-6 5t-9.5 11.5t-11 11.5t-10.5 5q-7 0 -13 -14q0 -2 -2 -2q-3 0 -8 9t-5 20q0 26 20 36
t47 10q22 0 39.5 -4.5t32.5 -10t29 -10t29 -4.5q14 0 17.5 11.5t3.5 24.5q0 7 2 7t6 -5t9.5 -11.5t11 -11.5t10.5 -5q7 0 13 14q0 2 2 2q3 0 8 -9t5 -20q0 -26 -20 -36t-47 -10z" />
    <glyph glyph-name="odieresis" unicode="&#xf6;" horiz-adv-x="402" 
d="M402 240q5 12 19 12q8 0 13.5 -5.5t5.5 -13.5q0 -5 -1 -7q-8 -19 -36.5 -36t-68.5 -30q-12 -32 -30.5 -61t-43.5 -51t-55 -35t-65 -13q-42 0 -73 13t-51 34.5t-30 49.5t-10 57q0 44 20.5 84t60.5 62q5 21 17 39.5t30.5 33t44 23t58.5 8.5q38 0 65 -12t44.5 -32.5t26 -48
t8.5 -58.5q0 -11 -1 -22.5t-3 -22.5q23 9 38 18t17 14zM219 181q21 0 43 3q9 38 9 75q0 44 -15.5 74.5t-49.5 30.5q-25 0 -42 -13t-27 -33q5 -3 8 -9t3 -11q0 -8 -5.5 -14t-14.5 -6h-3q-1 -5 -1 -9.5v-9.5q0 -44 28 -61t67 -17zM142 40q35 0 62.5 30t44.5 73q-9 -1 -17.5 -1
h-16.5q-45 0 -83.5 13t-59.5 45q-6 -25 -6 -53q0 -21 4 -40t13 -34t23.5 -24t35.5 -9zM108 480q0 20 12 32t32 12t32 -12t12 -32t-12 -32t-32 -12t-32 12t-12 32zM228 480q0 20 12 32t32 12t32 -12t12 -32t-12 -32t-32 -12t-32 12t-12 32z" />
    <glyph glyph-name="oslash" unicode="&#xf8;" horiz-adv-x="402" 
d="M402 240q5 12 19 12q8 0 13.5 -5.5t5.5 -13.5q0 -5 -1 -7q-8 -19 -36.5 -36t-68.5 -30q-11 -29 -27.5 -56t-38.5 -48t-48.5 -35.5t-56.5 -18.5q-8 -20 -14 -36.5t-11 -27.5q-3 -7 -6 -7t-5.5 9.5t-5 21.5t-6 21.5t-9.5 9.5q-5 0 -11 -8q-3 -3 0 19q-61 14 -90 56.5
t-29 93.5q0 44 20.5 84t60.5 62q9 38 41.5 68t89.5 35q4 17 6.5 27t3.5 8q1 -22 20 -22q15 0 33.5 8.5t28.5 8.5q6 0 5 -8l-7 -36q38 -19 55.5 -55t17.5 -81q0 -11 -1 -22.5t-3 -22.5q23 9 38 18t17 14zM105 50q5 23 11 50.5t13 55.5q-18 7 -32.5 17.5t-24.5 26.5
q-6 -25 -6 -53q0 -30 9 -56.5t30 -40.5zM261 321q-17 -65 -40 -140q20 0 41 3q9 38 9 75q0 17 -2.5 33t-7.5 29zM177 358q-14 -6 -23.5 -16.5t-16.5 -23.5q5 -3 8 -9t3 -11q0 -8 -5.5 -14t-14.5 -6h-3q-1 -5 -1 -9.5v-9.5q0 -33 17 -52l16 63zM181 51q22 13 39 37.5t29 54.5
q-9 -1 -17.5 -1h-16.5h-5z" />
    <glyph glyph-name="ugrave" unicode="&#xf9;" horiz-adv-x="413" 
d="M295 0q-30 0 -46 23t-21 61q-42 -84 -116 -84q-33 0 -55.5 16t-36 42t-19 58t-5.5 64q0 29 3.5 59t8.5 59.5t11 57.5t10 52q2 6 5 6q4 0 12 -6.5t17 -14.5t19 -14.5t19 -6.5q11 0 18 14q2 3 1.5 -3t-2.5 -18t-5 -28.5t-6 -34.5q-2 -10 -7 -33.5t-9.5 -52.5t-7 -60
t-0.5 -57t10.5 -42.5t26.5 -16.5q25 0 43.5 21t31.5 50.5t21 60.5t12 52q5 49 12 97t15 87q2 6 5 6q4 0 12 -6.5t17 -14.5t19 -14.5t19 -6.5q11 0 18 14q2 3 1.5 -3t-2.5 -18t-5 -28.5t-6 -34.5q-6 -29 -13.5 -62.5t-14.5 -66t-12 -61t-5 -46.5q0 -25 9 -25q2 0 7.5 4
t13.5 15t20 30t27 48q21 39 34 70q8 17 14 32q5 12 19 12q11 0 16.5 -8.5t1.5 -17.5q-8 -21 -19 -45.5t-23.5 -50t-26.5 -48.5t-28 -41q-31 -41 -58 -41zM176 444q-13 12 -30 26.5t-34.5 31.5t-34 37t-30.5 43q-6 10 11 10q5 0 12.5 -0.5t15.5 -0.5q14 0 24 5t5 24
q-1 3 2.5 -1t10.5 -14t16.5 -24t19.5 -29q11 -16 21 -30.5t17 -25.5t10 -18t-2 -7h-2q-1 0 -1.5 0.5t-2.5 0.5q-5 0 -6.5 -5.5t-2.5 -12t-2 -12t-5 -5.5t-12 7z" />
    <glyph glyph-name="uacute" unicode="&#xfa;" horiz-adv-x="413" 
d="M295 0q-30 0 -46 23t-21 61q-42 -84 -116 -84q-33 0 -55.5 16t-36 42t-19 58t-5.5 64q0 29 3.5 59t8.5 59.5t11 57.5t10 52q2 6 5 6q4 0 12 -6.5t17 -14.5t19 -14.5t19 -6.5q11 0 18 14q2 3 1.5 -3t-2.5 -18t-5 -28.5t-6 -34.5q-2 -10 -7 -33.5t-9.5 -52.5t-7 -60
t-0.5 -57t10.5 -42.5t26.5 -16.5q25 0 43.5 21t31.5 50.5t21 60.5t12 52q5 49 12 97t15 87q2 6 5 6q4 0 12 -6.5t17 -14.5t19 -14.5t19 -6.5q11 0 18 14q2 3 1.5 -3t-2.5 -18t-5 -28.5t-6 -34.5q-6 -29 -13.5 -62.5t-14.5 -66t-12 -61t-5 -46.5q0 -25 9 -25q2 0 7.5 4
t13.5 15t20 30t27 48q21 39 34 70q8 17 14 32q5 12 19 12q11 0 16.5 -8.5t1.5 -17.5q-8 -21 -19 -45.5t-23.5 -50t-26.5 -48.5t-28 -41q-31 -41 -58 -41zM199 444q-8 -7 -12 -7t-5 5.5t-2 12t-2.5 12t-6.5 5.5q-2 0 -2.5 -0.5t-1.5 -0.5h-2q-4 0 -1.5 7t9.5 18t17 25.5
t21 30.5q11 15 20 29t16 24t10.5 14t2.5 1q-5 -19 5 -24t24 -5q8 0 15.5 0.5t12.5 0.5q17 0 11 -10q-13 -23 -30 -43t-34.5 -37t-34.5 -31.5t-30 -26.5z" />
    <glyph glyph-name="ucircumflex" unicode="&#xfb;" horiz-adv-x="413" 
d="M295 0q-30 0 -46 23t-21 61q-42 -84 -116 -84q-33 0 -55.5 16t-36 42t-19 58t-5.5 64q0 29 3.5 59t8.5 59.5t11 57.5t10 52q2 6 5 6q4 0 12 -6.5t17 -14.5t19 -14.5t19 -6.5q11 0 18 14q2 3 1.5 -3t-2.5 -18t-5 -28.5t-6 -34.5q-2 -10 -7 -33.5t-9.5 -52.5t-7 -60
t-0.5 -57t10.5 -42.5t26.5 -16.5q25 0 43.5 21t31.5 50.5t21 60.5t12 52q5 49 12 97t15 87q2 6 5 6q4 0 12 -6.5t17 -14.5t19 -14.5t19 -6.5q11 0 18 14q2 3 1.5 -3t-2.5 -18t-5 -28.5t-6 -34.5q-6 -29 -13.5 -62.5t-14.5 -66t-12 -61t-5 -46.5q0 -25 9 -25q2 0 7.5 4
t13.5 15t20 30t27 48q21 39 34 70q8 17 14 32q5 12 19 12q11 0 16.5 -8.5t1.5 -17.5q-8 -21 -19 -45.5t-23.5 -50t-26.5 -48.5t-28 -41q-31 -41 -58 -41zM225 618q7 0 12.5 5t10.5 5q4 0 8 -9q13 -35 30.5 -81.5t20.5 -100.5q0 -7 -4 -7t-10.5 4t-14 8.5t-15.5 8t-15 3.5
q-14 0 -18 -20q-1 -3 -2 2.5t-2.5 17t-3.5 28t-5 35.5l-5 38l-18 -33q-9 -17 -17 -32t-13.5 -25.5t-8.5 -15t-2 -1.5q3 16 -4 21.5t-18 5.5t-23.5 -3t-20.5 -3q-10 0 -6 9q22 49 54.5 87.5t57.5 64.5q4 5 8 5q7 0 11 -8.5t13 -8.5z" />
    <glyph glyph-name="udieresis" unicode="&#xfc;" horiz-adv-x="413" 
d="M295 0q-30 0 -46 23t-21 61q-42 -84 -116 -84q-33 0 -55.5 16t-36 42t-19 58t-5.5 64q0 29 3.5 59t8.5 59.5t11 57.5t10 52q2 6 5 6q4 0 12 -6.5t17 -14.5t19 -14.5t19 -6.5q11 0 18 14q2 3 1.5 -3t-2.5 -18t-5 -28.5t-6 -34.5q-2 -10 -7 -33.5t-9.5 -52.5t-7 -60
t-0.5 -57t10.5 -42.5t26.5 -16.5q25 0 43.5 21t31.5 50.5t21 60.5t12 52q5 49 12 97t15 87q2 6 5 6q4 0 12 -6.5t17 -14.5t19 -14.5t19 -6.5q11 0 18 14q2 3 1.5 -3t-2.5 -18t-5 -28.5t-6 -34.5q-6 -29 -13.5 -62.5t-14.5 -66t-12 -61t-5 -46.5q0 -25 9 -25q2 0 7.5 4
t13.5 15t20 30t27 48q21 39 34 70q8 17 14 32q5 12 19 12q11 0 16.5 -8.5t1.5 -17.5q-8 -21 -19 -45.5t-23.5 -50t-26.5 -48.5t-28 -41q-31 -41 -58 -41zM207 480q0 20 12 32t32 12t32 -12t12 -32t-12 -32t-32 -12t-32 12t-12 32zM87 480q0 20 12 32t32 12t32 -12t12 -32
t-12 -32t-32 -12t-32 12t-12 32z" />
    <glyph glyph-name="yacute" unicode="&#xfd;" horiz-adv-x="405" 
d="M424 252q8 0 15 -8t3 -18q-25 -64 -65 -105.5t-95 -74.5q-13 -51 -28 -99t-33 -90q-49 -108 -108 -108q-23 0 -43.5 9t-36.5 25t-25 36.5t-9 43.5q0 34 17 58.5t45 44.5t64.5 38t74.5 37l6 35q-17 -14 -37 -22t-46 -8q-34 0 -58 13t-39 35t-22 51t-7 61q0 51 12 102
t21 99q2 6 5 6q4 0 12 -6.5t17 -14.5t19 -14.5t19 -6.5q11 0 18 14q2 3 1.5 -3t-2.5 -18t-5 -28t-6 -34q-2 -10 -6.5 -30t-9 -44t-6.5 -49.5t1 -46t12.5 -33.5t28.5 -13q25 0 42.5 14t29 35.5t18 47t10.5 49.5q6 45 12.5 88.5t14.5 87.5q2 6 5 6q4 0 12 -6.5t17 -14.5
t19 -14.5t19 -6.5q11 0 18 14q2 3 1 -3t-2.5 -18t-4.5 -28.5t-6 -34.5q-8 -47 -17.5 -98t-21.5 -104q36 27 64.5 61t46.5 79q5 12 19 12zM113 -211q8 1 16.5 14.5t16.5 34t15.5 45t13.5 47.5t10 42t6 27q-28 -15 -55.5 -30.5t-49 -33t-34.5 -35.5t-13 -37q0 -14 6 -27.5
t16.5 -24t23.5 -16.5t28 -6zM331 582q-13 -23 -30 -43t-34.5 -37t-34.5 -31.5t-30 -26.5q-8 -7 -12 -7t-5 5.5t-2 12t-2.5 12t-6.5 5.5q-2 0 -2.5 -0.5t-1.5 -0.5h-2q-4 0 -1.5 7t9.5 18t17 25.5t21 30.5q11 15 20 29t16 24t10.5 14t2.5 1q-5 -19 5 -24t24 -5q8 0 15.5 0.5
t12.5 0.5q17 0 11 -10z" />
    <glyph glyph-name="thorn" unicode="&#xfe;" horiz-adv-x="425" 
d="M152 0q-31 0 -59 13t-40 45q-17 -81 -32.5 -146t-29.5 -97q-13 -29 -28.5 -47.5t-32.5 -18.5q-11 0 -16 5.5t-5 13.5t5.5 14.5t15.5 6.5q2 0 6 15t8 40q8 47 17.5 115t20.5 147.5t22.5 164t23 163.5t22 147.5t18.5 114.5q2 6 5 6q4 0 12 -6.5t17.5 -14.5t19.5 -14.5
t19 -6.5q10 0 18 14q1 2 1 -3q0 -6 -2 -19t-4.5 -29.5t-5.5 -34t-6 -31.5q-7 -37 -18.5 -105.5t-25.5 -151.5q8 20 20 40t27.5 36.5t36 27t46.5 10.5q27 0 50 -12t39.5 -33t26 -50t9.5 -64q0 -44 -15 -88t-41 -81q43 27 75.5 66.5t52.5 87.5q5 12 19 12q11 0 16.5 -8
t1.5 -18q-18 -46 -50 -87t-73 -72t-89 -49t-98 -18zM216 374q-19 0 -36 -17.5t-30.5 -45t-24 -61t-18.5 -64.5t-12.5 -56.5t-6.5 -37.5q0 -22 12 -37t35 -15q21 0 39 13.5t32 35t25 49t18 55t10.5 52.5t3.5 42q0 12 -2 27t-7 28.5t-14.5 22.5t-23.5 9z" />
    <glyph glyph-name="ydieresis" unicode="&#xff;" horiz-adv-x="405" 
d="M424 252q8 0 15 -8t3 -18q-25 -64 -65 -105.5t-95 -74.5q-13 -51 -28 -99t-33 -90q-49 -108 -108 -108q-23 0 -43.5 9t-36.5 25t-25 36.5t-9 43.5q0 34 17 58.5t45 44.5t64.5 38t74.5 37l6 35q-17 -14 -37 -22t-46 -8q-34 0 -58 13t-39 35t-22 51t-7 61q0 51 12 102
t21 99q2 6 5 6q4 0 12 -6.5t17 -14.5t19 -14.5t19 -6.5q11 0 18 14q2 3 1.5 -3t-2.5 -18t-5 -28t-6 -34q-2 -10 -6.5 -30t-9 -44t-6.5 -49.5t1 -46t12.5 -33.5t28.5 -13q25 0 42.5 14t29 35.5t18 47t10.5 49.5q6 45 12.5 88.5t14.5 87.5q2 6 5 6q4 0 12 -6.5t17 -14.5
t19 -14.5t19 -6.5q11 0 18 14q2 3 1 -3t-2.5 -18t-4.5 -28.5t-6 -34.5q-8 -47 -17.5 -98t-21.5 -104q36 27 64.5 61t46.5 79q5 12 19 12zM113 -211q8 1 16.5 14.5t16.5 34t15.5 45t13.5 47.5t10 42t6 27q-28 -15 -55.5 -30.5t-49 -33t-34.5 -35.5t-13 -37q0 -14 6 -27.5
t16.5 -24t23.5 -16.5t28 -6zM254 436q-20 0 -32 12t-12 32t12 32t32 12t32 -12t12 -32t-12 -32t-32 -12zM134 436q-20 0 -32 12t-12 32t12 32t32 12t32 -12t12 -32t-12 -32t-32 -12z" />
    <glyph glyph-name="Abreve" unicode="&#x102;" horiz-adv-x="1083" 
d="M0 506q0 49 16 83.5t43 58t63 37t75.5 20.5t81 9t78.5 2q102 0 203 -3t203 -3h8q65 0 106.5 -19.5t65.5 -54t33 -81t9 -99.5q0 -47 -5 -96.5t-12 -100.5q26 5 43.5 7t12.5 0q-14 -7 -14 -18q0 -9 6.5 -18t14.5 -17.5t14.5 -15.5t6.5 -11q0 -3 -6 -5q-30 -6 -92 -11
q-10 -61 -17.5 -115.5t-7.5 -96.5q0 -51 15 -79.5t54 -28.5q6 0 6 -4t-5 -11.5t-11.5 -16t-11.5 -18t-5 -17.5q0 -13 17 -19q2 0 2 -2q0 -3 -10 -7.5t-26 -4.5q-35 0 -58.5 12.5t-37.5 35t-20 54.5t-6 71q0 52 7.5 112.5t17.5 126.5q-31 -2 -63 -4t-62 -4t-56.5 -3t-47.5 -2
q-16 -73 -41 -145t-65 -128t-97 -91t-136 -35q-46 0 -91 12.5t-81 36t-58.5 57.5t-22.5 78q0 40 18.5 72t48.5 55t67.5 35.5t75.5 12.5t71.5 -12t59.5 -33t41 -51t15 -66q0 -16 -4.5 -26t-7.5 -10q-2 0 -2 2q-6 17 -19 17q-8 0 -17.5 -5t-18 -11.5t-16 -11.5t-11.5 -5t-4 6
q0 31 -5 61t-16 53.5t-30 37.5t-48 14q-20 0 -41 -7.5t-38 -23t-28 -39t-11 -56.5q0 -30 10.5 -57.5t31.5 -49t52.5 -34t73.5 -12.5q73 0 117 36.5t69.5 91.5t37.5 118.5t21 117.5q-36 6 -58 22t-22 45q0 11 6.5 16t14.5 5t14 -4.5t6 -14.5q0 -9 25 -9h24q7 45 18 109
t28.5 129t41.5 124t58 94q-82 2 -163.5 4t-163.5 2q-46 0 -95.5 -3t-90 -19t-66.5 -50.5t-26 -97.5q0 -27 9.5 -50t25 -40.5t35.5 -27.5t41 -10q22 0 43.5 13t39 41.5t28 75.5t10.5 114q0 6 4 6t11.5 -5t16 -11.5t18 -11.5t17.5 -5q13 0 19 17q0 2 2 2q3 0 7.5 -10t4.5 -26
q0 -62 -19 -106.5t-49.5 -73t-69.5 -42t-79 -13.5q-37 0 -72 11t-62.5 32t-44 51.5t-16.5 68.5zM760 670q-2 0 -2.5 -0.5t-1.5 -0.5q-27 -5 -43 -44.5t-27.5 -101.5t-21 -140.5t-23.5 -161.5q56 5 118 11t111 12q11 66 18.5 129.5t7.5 120.5q0 38 -5 70t-19 55.5t-38 37
t-63 13.5h-11zM805 747q-36 0 -56 19t-30 47t-12.5 59.5t-2.5 55.5q0 7 4 7t10.5 -3.5t14 -8t15.5 -8.5t15 -4q14 0 18 20l2 6q1 0 0 -23.5t0 -51.5t5.5 -51.5t17.5 -23.5q11 0 21 16t18 37t14 42t8 30v-3q0 -11 6.5 -15t16.5 -4q11 0 23.5 3t20.5 3q7 0 7 -5q0 -2 -1 -4
q-12 -31 -25.5 -56.5t-29.5 -44t-35.5 -29t-44.5 -10.5zM868 917q-1 -2 -1 -5q1 2 1 4v1z" />
    <glyph glyph-name="abreve" unicode="&#x103;" horiz-adv-x="433" 
d="M315 0q-37 0 -52.5 33.5t-18.5 87.5q-8 -21 -19.5 -42.5t-27.5 -39t-37 -28.5t-48 -11t-50 12t-39.5 33t-26 50.5t-9.5 63.5q0 44 15.5 89.5t42.5 82.5t65 60t83 23q26 0 45.5 -8.5t31.5 -22.5l5 25q2 6 5 6q4 0 12 -6.5t17 -14.5t19 -14.5t19 -6.5q11 0 18 14
q2 3 1.5 -3t-2.5 -18t-5 -28.5t-6 -34.5q-6 -29 -13.5 -62.5t-14.5 -66t-12 -61t-5 -46.5q0 -25 9 -25q2 0 7.5 4t13.5 15t20 29.5t27 48.5q21 39 34 70q8 17 14 32q5 12 19 12q11 0 16 -8.5t2 -17.5q-6 -19 -17.5 -44t-25 -51t-27.5 -50t-27 -40q-31 -41 -58 -41zM124 40
q20 0 36.5 17.5t30 45t24 61t18.5 64.5t12.5 56.5t6.5 37.5q0 22 -12 37t-35 15q-21 0 -39 -13.5t-32 -35t-25 -49t-18 -55t-10.5 -52.5t-3.5 -42q0 -12 2 -27t7.5 -28.5t14.5 -22.5t23 -9zM194 447q-36 0 -56 19t-30 47t-12.5 59.5t-2.5 55.5q0 7 4 7t10.5 -3.5t14 -8
t15.5 -8.5t15 -4q14 0 18 20l2 6q1 0 0 -23.5t0 -51.5t5.5 -51.5t17.5 -23.5q11 0 21 16t18 37t14 42t8 30v-3q0 -11 6.5 -15t16.5 -4q11 0 23.5 3t20.5 3q7 0 7 -5q0 -2 -1 -4q-12 -31 -25.5 -56.5t-29.5 -44t-35.5 -29t-44.5 -10.5zM257 617q-1 -2 -1 -5q1 2 1 4v1z" />
    <glyph glyph-name="Aogonek" unicode="&#x104;" horiz-adv-x="1083" 
d="M0 506q0 49 16 83.5t43 58t63 37t75.5 20.5t81 9t78.5 2q102 0 203 -3t203 -3h8q65 0 106.5 -19.5t65.5 -54t33 -81t9 -99.5q0 -47 -5 -96.5t-12 -100.5q26 5 43.5 7t12.5 0q-14 -7 -14 -18q0 -9 6.5 -18t14.5 -17.5t14.5 -15.5t6.5 -11q0 -3 -6 -5q-30 -6 -92 -11
q-10 -61 -17.5 -115.5t-7.5 -96.5q0 -51 15 -79.5t54 -28.5q6 0 6 -4t-5 -11.5t-11.5 -16t-11.5 -18t-5 -17.5q0 -13 17 -19q2 0 2 -2q0 -3 -10 -7.5t-26 -4.5q-21 0 -34 4q-17 -15 -33 -32.5t-29 -37t-20.5 -40t-7.5 -42.5q0 -17 7.5 -35t29.5 -18q31 0 54 35q9 14 13 26
t4 13q3 11 6 11t5.5 -4t6.5 -8.5t8 -8t10 -3.5q5 0 13 5q1 1 -4 -16t-17 -36q-17 -26 -46.5 -40t-62.5 -14q-20 0 -39 5t-34 15.5t-24 27t-9 38.5q0 25 11.5 49.5t29.5 47.5t40.5 44t44.5 39q-25 22 -35 59.5t-10 88.5q0 52 7.5 112.5t17.5 126.5q-31 -2 -63 -4t-62 -4
t-56.5 -3t-47.5 -2q-16 -73 -41 -145t-65 -128t-97 -91t-136 -35q-46 0 -91 12.5t-81 36t-58.5 57.5t-22.5 78q0 40 18.5 72t48.5 55t67.5 35.5t75.5 12.5t71.5 -12t59.5 -33t41 -51t15 -66q0 -16 -4.5 -26t-7.5 -10q-2 0 -2 2q-6 17 -19 17q-8 0 -17.5 -5t-18 -11.5
t-16 -11.5t-11.5 -5t-4 6q0 31 -5 61t-16 53.5t-30 37.5t-48 14q-20 0 -41 -7.5t-38 -23t-28 -39t-11 -56.5q0 -30 10.5 -57.5t31.5 -49t52.5 -34t73.5 -12.5q73 0 117 36.5t69.5 91.5t37.5 118.5t21 117.5q-36 6 -58 22t-22 45q0 11 6.5 16t14.5 5t14 -4.5t6 -14.5
q0 -9 25 -9h24q7 45 18 109t28.5 129t41.5 124t58 94q-82 2 -163.5 4t-163.5 2q-46 0 -95.5 -3t-90 -19t-66.5 -50.5t-26 -97.5q0 -27 9.5 -50t25 -40.5t35.5 -27.5t41 -10q22 0 43.5 13t39 41.5t28 75.5t10.5 114q0 6 4 6t11.5 -5t16 -11.5t18 -11.5t17.5 -5q13 0 19 17
q0 2 2 2q3 0 7.5 -10t4.5 -26q0 -62 -19 -106.5t-49.5 -73t-69.5 -42t-79 -13.5q-37 0 -72 11t-62.5 32t-44 51.5t-16.5 68.5zM763 670q-2 0 -3.5 -0.5t-3.5 -0.5q-27 -5 -43 -44.5t-27.5 -101.5t-21 -140.5t-23.5 -161.5q56 5 118 11t111 12q11 66 18.5 129.5t7.5 120.5
q0 38 -5 70t-19 55.5t-38 37t-63 13.5h-8z" />
    <glyph glyph-name="aogonek" unicode="&#x105;" horiz-adv-x="433" 
d="M193 414q26 0 45.5 -8.5t31.5 -22.5l5 25q2 6 5 6q4 0 12 -6.5t17 -14.5t19 -14.5t19 -6.5q11 0 18 14q2 3 1.5 -3t-2.5 -18t-5 -28.5t-6 -34.5q-6 -29 -13.5 -62.5t-14.5 -66t-12 -61t-5 -46.5q0 -25 9 -25q2 0 7.5 4t13.5 15t20 29.5t27 48.5q21 39 34 70q8 17 14 32
q5 12 19 12q11 0 16 -8.5t2 -17.5q-8 -23 -20.5 -50.5t-27.5 -54.5t-31.5 -52t-31.5 -45l-4 -4q-8 -8 -16 -13q-18 -15 -36.5 -33.5t-33.5 -39.5t-24.5 -44t-9.5 -47q0 -17 7.5 -35t29.5 -18q31 0 54 35q9 14 13 26t4 13q3 11 6 11t5.5 -4t6.5 -8.5t8 -8t10 -3.5q5 0 13 5
q1 1 -4 -16t-17 -36q-17 -26 -46.5 -40t-62.5 -14q-20 0 -39 5t-34 15.5t-24 27t-9 38.5q0 25 11 49t29 46.5t40 42.5t44 37q-17 14 -25.5 43t-10.5 67q-8 -21 -19.5 -42.5t-27.5 -39t-37 -28.5t-48 -11t-50 12t-39.5 33t-26 50.5t-9.5 63.5q0 44 15.5 89.5t42.5 82.5t65 60
t83 23zM124 40q20 0 36.5 17.5t30 45t24 61t18.5 64.5t12.5 56.5t6.5 37.5q0 22 -12 37t-35 15q-21 0 -39 -13.5t-32 -35t-25 -49t-18 -55t-10.5 -52.5t-3.5 -42q0 -12 2 -27t7.5 -28.5t14.5 -22.5t23 -9z" />
    <glyph glyph-name="Cacute" unicode="&#x106;" 
d="M423 577q35 0 70 -1t70 -3q30 42 66 77.5t77 61t86.5 39.5t96.5 14q27 0 56 -5.5t53 -19t39 -35.5t15 -55q0 -31 -14 -52t-36.5 -35t-51 -21.5t-58 -11.5t-57.5 -4.5t-50 -0.5q-39 0 -78 1t-78 3q-31 -54 -54 -115t-38 -121t-22.5 -115t-7.5 -97q0 -29 2.5 -62t9.5 -65.5
t20 -63t34 -53.5t51.5 -36.5t71.5 -13.5q59 0 97.5 27.5t61 72t31.5 100.5t9 112q0 6 4 6t11.5 -5t16.5 -11.5t18.5 -11.5t17.5 -5q13 0 19 17q0 2 2 2q3 0 7.5 -10t4.5 -26q0 -45 -19.5 -98.5t-58.5 -100t-98 -78t-138 -31.5q-78 0 -130.5 31t-84.5 82t-45.5 115.5
t-13.5 130.5q0 48 8.5 102t25 109.5t40.5 111t55 105.5q-29 1 -57 2t-56 1q-30 0 -67 -1t-75 -6t-74.5 -15t-65 -28.5t-45.5 -47t-17 -70.5q0 -33 10 -56.5t26.5 -39t37 -23t41.5 -7.5q58 0 87.5 64.5t29.5 177.5q0 6 4 6t11.5 -5t16.5 -11.5t18.5 -11.5t17.5 -5q13 0 19 17
q0 2 2 2q3 0 7.5 -10t4.5 -26q0 -45 -14.5 -87.5t-42.5 -76t-68.5 -54t-92.5 -20.5q-36 0 -70.5 13t-62.5 35.5t-45 53t-17 64.5q0 49 21 83t56 57.5t79.5 37t91.5 20t93 8.5t82 2zM891 725q-37 0 -70 -11.5t-63 -32.5t-56 -49.5t-49 -62.5q75 -3 151 -3q24 0 55 1.5
t58.5 10t46 25.5t18.5 47q0 23 -7.5 37.5t-20.5 22.5t-29 11.5t-34 3.5zM900 786q-8 -7 -12 -7t-5 5.5t-2 12t-2.5 12t-6.5 5.5q-2 0 -2.5 -0.5t-1.5 -0.5h-2q-4 0 -1.5 7t9.5 18t17 25.5t21 30.5q11 15 20 29t16 24t10.5 14t2.5 1q-5 -19 5 -24t24 -5q8 0 15.5 0.5
t12.5 0.5q17 0 11 -10q-13 -23 -30 -43t-34.5 -37t-34.5 -31.5t-30 -26.5z" />
    <glyph glyph-name="cacute" unicode="&#x107;" horiz-adv-x="355" 
d="M392 226q-16 -42 -38 -82.5t-52.5 -72.5t-69.5 -51.5t-90 -19.5q-37 0 -66 12.5t-49 34t-30 50t-10 61.5q0 42 14.5 87.5t41 83t64.5 61.5t85 24q39 0 63 -15.5t36 -39t12.5 -52t-7.5 -55.5q-1 -5 -5 -5q-7 0 -19 10t-28 10q-13 0 -26 -13q1 13 4 33.5t2 39.5t-7.5 33
t-24.5 14q-29 0 -50.5 -28.5t-36 -67.5t-21.5 -78.5t-7 -61.5q0 -16 4.5 -39.5t21 -41t48.5 -17.5q41 0 73 19t56.5 48.5t43 64.5t31.5 68q5 12 19 12q10 0 16 -8.5t2 -17.5zM203 444q-8 -7 -12 -7t-5 5.5t-2 12t-2.5 12t-6.5 5.5q-2 0 -2.5 -0.5t-1.5 -0.5h-2q-4 0 -1.5 7
t9.5 18t17 25.5t21 30.5q11 15 20 29t16 24t10.5 14t2.5 1q-5 -19 5 -24t24 -5q8 0 15.5 0.5t12.5 0.5q17 0 11 -10q-13 -23 -30 -43t-34.5 -37t-34.5 -31.5t-30 -26.5z" />
    <glyph glyph-name="Ccaron" unicode="&#x10c;" 
d="M423 577q35 0 70 -1t70 -3q30 42 66 77.5t77 61t86.5 39.5t96.5 14q27 0 56 -5.5t53 -19t39 -35.5t15 -55q0 -31 -14 -52t-36.5 -35t-51 -21.5t-58 -11.5t-57.5 -4.5t-50 -0.5q-39 0 -78 1t-78 3q-31 -54 -54 -115t-38 -121t-22.5 -115t-7.5 -97q0 -29 2.5 -62t9.5 -65.5
t20 -63t34 -53.5t51.5 -36.5t71.5 -13.5q59 0 97.5 27.5t61 72t31.5 100.5t9 112q0 6 4 6t11.5 -5t16.5 -11.5t18.5 -11.5t17.5 -5q13 0 19 17q0 2 2 2q3 0 7.5 -10t4.5 -26q0 -45 -19.5 -98.5t-58.5 -100t-98 -78t-138 -31.5q-78 0 -130.5 31t-84.5 82t-45.5 115.5
t-13.5 130.5q0 48 8.5 102t25 109.5t40.5 111t55 105.5q-29 1 -57 2t-56 1q-30 0 -67 -1t-75 -6t-74.5 -15t-65 -28.5t-45.5 -47t-17 -70.5q0 -33 10 -56.5t26.5 -39t37 -23t41.5 -7.5q58 0 87.5 64.5t29.5 177.5q0 6 4 6t11.5 -5t16.5 -11.5t18.5 -11.5t17.5 -5q13 0 19 17
q0 2 2 2q3 0 7.5 -10t4.5 -26q0 -45 -14.5 -87.5t-42.5 -76t-68.5 -54t-92.5 -20.5q-36 0 -70.5 13t-62.5 35.5t-45 53t-17 64.5q0 49 21 83t56 57.5t79.5 37t91.5 20t93 8.5t82 2zM891 725q-37 0 -70 -11.5t-63 -32.5t-56 -49.5t-49 -62.5q75 -3 151 -3q24 0 55 1.5
t58.5 10t46 25.5t18.5 47q0 23 -7.5 37.5t-20.5 22.5t-29 11.5t-34 3.5zM889 796q-7 0 -12.5 -5t-10.5 -5q-4 0 -8 9q-13 35 -30.5 81.5t-20.5 100.5q0 7 4 7t10.5 -3.5t14 -8t15.5 -8.5t15 -4q14 0 18 20q1 3 2 -2.5t2.5 -17t3.5 -28t5 -35.5l5 -38l18 33q9 17 17 32
t13.5 25.5t8.5 15t2 1.5q-3 -16 4 -21.5t18 -5.5t23.5 3t20.5 3q10 0 6 -9q-22 -49 -54.5 -87.5t-57.5 -64.5q-4 -5 -8 -5q-7 0 -11 8.5t-13 8.5z" />
    <glyph glyph-name="ccaron" unicode="&#x10d;" horiz-adv-x="355" 
d="M392 226q-16 -42 -38 -82.5t-52.5 -72.5t-69.5 -51.5t-90 -19.5q-37 0 -66 12.5t-49 34t-30 50t-10 61.5q0 42 14.5 87.5t41 83t64.5 61.5t85 24q39 0 63 -15.5t36 -39t12.5 -52t-7.5 -55.5q-1 -5 -5 -5q-7 0 -19 10t-28 10q-13 0 -26 -13q1 13 4 33.5t2 39.5t-7.5 33
t-24.5 14q-29 0 -50.5 -28.5t-36 -67.5t-21.5 -78.5t-7 -61.5q0 -16 4.5 -39.5t21 -41t48.5 -17.5q41 0 73 19t56.5 48.5t43 64.5t31.5 68q5 12 19 12q10 0 16 -8.5t2 -17.5zM192 454q-7 0 -12.5 -5t-10.5 -5q-4 0 -8 9q-13 35 -30.5 81.5t-20.5 100.5q0 7 4 7t10.5 -3.5
t14 -8t15.5 -8.5t15 -4q14 0 18 20q1 3 2 -2.5t2.5 -17t3.5 -28t5 -35.5l5 -38l18 33q9 17 17 32t13.5 25.5t8.5 15t2 1.5q-3 -16 4 -21.5t18 -5.5t23.5 3t20.5 3q10 0 6 -9q-22 -49 -54.5 -87.5t-57.5 -64.5q-4 -5 -8 -5q-7 0 -11 8.5t-13 8.5z" />
    <glyph glyph-name="Dcaron" unicode="&#x10e;" horiz-adv-x="1167" 
d="M640 -4q0 -100 24.5 -152.5t85.5 -52.5q54 0 99 40t77.5 105t50.5 149t18 172q0 90 -21 177t-68.5 155t-124 110t-187.5 42q-50 0 -106.5 -9.5t-112.5 -28t-108 -47t-91.5 -67t-63 -87t-23.5 -107.5q0 -39 10 -66t26.5 -44.5t37 -25t41.5 -7.5q58 0 87.5 64.5t29.5 177.5
q0 6 4 6t11.5 -5t16.5 -11.5t18.5 -11.5t17.5 -5q13 0 19 17q0 2 2 2q3 0 7.5 -10t4.5 -26q0 -45 -14.5 -87.5t-42.5 -76t-68.5 -54t-92.5 -20.5q-36 0 -70.5 14t-62.5 40.5t-45 65t-17 88.5q0 62 27 112.5t71.5 89.5t103.5 68t123 47.5t129 27.5t122 9q135 0 231.5 -46
t158.5 -121t91 -170t29 -193q0 -62 -11 -123t-32.5 -116t-52 -101.5t-70 -81t-86.5 -53.5t-101 -19q-48 0 -85.5 15t-64 42t-40 64t-13.5 81q0 16 4.5 26t7.5 10q2 0 2 -2q6 -17 19 -17q8 0 17.5 5t18.5 11.5t16.5 11.5t11.5 5t4 -6zM297 -97q0 31 -5 61t-16 53.5t-30 37.5
t-48 14q-20 0 -41 -7.5t-38 -23t-28 -39t-11 -56.5q0 -30 10.5 -57.5t31.5 -49t52.5 -34t73.5 -12.5q51 0 87 18.5t61.5 48.5t42 69.5t27 82t17.5 84.5l13 78q5 28 12.5 76t19 103.5t28.5 112t41 102.5t55.5 75t71.5 29q8 0 14 -6t6 -14t-6 -14t-14 -6q-24 0 -42 -26.5
t-30 -68t-20 -92t-13.5 -98t-9 -86t-6.5 -56.5q-14 -79 -38 -159.5t-64.5 -145.5t-101 -106t-146.5 -41q-46 0 -91 12.5t-81 36t-58.5 57.5t-22.5 78q0 40 18.5 72t48.5 55t67.5 35.5t75.5 12.5t71.5 -12t59.5 -33t41 -51t15 -66q0 -16 -4.5 -26t-7.5 -10q-2 0 -2 2
q-6 17 -19 17q-8 0 -17.5 -5t-18 -11.5t-16 -11.5t-11.5 -5t-4 6zM583 823q-7 0 -12.5 -5t-10.5 -5q-4 0 -8 9q-13 35 -30.5 81.5t-20.5 100.5q0 7 4 7t10.5 -3.5t14 -8t15.5 -8.5t15 -4q14 0 18 20q1 3 2 -2.5t2.5 -17t3.5 -28t5 -35.5l5 -38l18 33q9 17 17 32t13.5 25.5
t8.5 15t2 1.5q-3 -16 4 -21.5t18 -5.5t23.5 3t20.5 3q10 0 6 -9q-22 -49 -54.5 -87.5t-57.5 -64.5q-4 -5 -8 -5q-7 0 -11 8.5t-13 8.5z" />
    <glyph glyph-name="dcaron" unicode="&#x10f;" horiz-adv-x="547" 
d="M314 0q-33 0 -46.5 39.5t-13.5 102.5v5q-7 -21 -18 -47t-28.5 -48t-41 -37t-54.5 -15q-27 0 -50 12t-39.5 33t-26 50.5t-9.5 63.5q0 44 15.5 89.5t42.5 82.5t65 60t83 23q30 0 51 -11t33 -28q8 49 17 97t17.5 90t16 77t11.5 57q2 6 5 6q4 0 12 -6.5t17 -14.5t19 -14.5
t19 -6.5q11 0 18 14q2 3 1.5 -3t-2.5 -18t-5 -28t-6 -34q-4 -22 -14 -65t-21.5 -96t-24 -110.5t-22.5 -109.5t-16.5 -93t-6.5 -61q0 -15 4 -15q2 0 7.5 4t13.5 15t20 30t27 48q21 39 34 70q8 17 14 32q5 12 19 12q11 0 16.5 -8.5t1.5 -17.5q-8 -21 -19 -45.5t-23.5 -50
t-26.5 -48.5t-28 -41q-31 -41 -58 -41zM124 40q20 0 36.5 17.5t30 45t24 61t18.5 64.5t12.5 56.5t6.5 37.5q0 22 -12 37t-35 15q-21 0 -39 -13.5t-32 -35t-25 -49t-18 -55t-10.5 -52.5t-3.5 -42q0 -12 2 -27t7.5 -28.5t14.5 -22.5t23 -9zM502 367q-3 -8 -6 -8q-4 0 -8.5 8.5
t-10 19t-12 19t-12.5 8.5t-12 -10l-2 -2q-2 0 -1 17t3 41t5 50.5t4 45.5q1 18 2 34.5t2 28.5t1.5 17.5t1.5 2.5q2 -11 7.5 -14.5t11.5 -3.5q8 0 17 4t18 9.5t17 9.5t12 4q5 0 5 -7q0 -73 -12.5 -141.5t-30.5 -132.5z" />
    <glyph glyph-name="Dcroat" unicode="&#x110;" horiz-adv-x="1167" 
d="M640 -4q0 -100 24.5 -152.5t85.5 -52.5q54 0 99 40t77.5 105t50.5 149t18 172q0 90 -21 177t-68.5 155t-124 110t-187.5 42q-50 0 -106.5 -9.5t-112.5 -28t-108 -47t-91.5 -67t-63 -87t-23.5 -107.5q0 -39 10 -66t26.5 -44.5t37 -25t41.5 -7.5q58 0 87.5 64.5t29.5 177.5
q0 6 4 6t11.5 -5t16.5 -11.5t18.5 -11.5t17.5 -5q13 0 19 17q0 2 2 2q3 0 7.5 -10t4.5 -26q0 -45 -14.5 -87.5t-42.5 -76t-68.5 -54t-92.5 -20.5q-36 0 -70.5 14t-62.5 40.5t-45 65t-17 88.5q0 62 27 112.5t71.5 89.5t103.5 68t123 47.5t129 27.5t122 9q135 0 231.5 -46
t158.5 -121t91 -170t29 -193q0 -62 -11 -123t-32.5 -116t-52 -101.5t-70 -81t-86.5 -53.5t-101 -19q-48 0 -85.5 15t-64 42t-40 64t-13.5 81q0 16 4.5 26t7.5 10q2 0 2 -2q6 -17 19 -17q8 0 17.5 5t18.5 11.5t16.5 11.5t11.5 5t4 -6zM380 202q-15 3 -6.5 11t21.5 18.5
t20.5 21t-10.5 16.5q-4 1 3.5 1.5t22.5 1t36 1t46 1.5q7 39 16 83.5t22 88.5t29.5 84t38 71t47.5 49.5t58 18.5q8 0 14 -6t6 -14t-6 -14t-14 -6q-19 0 -34.5 -17t-27 -45.5t-19.5 -65t-14 -75.5t-10.5 -77.5t-7.5 -70.5q32 2 57 6q26 4 48 6.5t31 2.5q8 0 4 -2
q-13 -6 -14.5 -14t3 -17.5t12.5 -18.5t14 -17t8 -13t-6 -6q-42 -5 -84 -8.5t-83 -4.5q-10 -52 -23.5 -105t-33.5 -102t-47 -92t-62 -74.5t-80 -50t-102 -18.5q-46 0 -91 12.5t-81 36t-58.5 57.5t-22.5 78q0 40 18.5 72t48.5 55t67.5 35.5t75.5 12.5t71.5 -12t59.5 -33
t41 -51t15 -66q0 -16 -4.5 -26t-7.5 -10q-2 0 -2 2q-6 17 -19 17q-8 0 -17.5 -5t-18 -11.5t-16 -11.5t-11.5 -5t-4 6q0 31 -5 61t-16 53.5t-30 37.5t-48 14q-20 0 -41 -7.5t-38 -23t-28 -39t-11 -56.5q0 -30 10.5 -57.5t31.5 -49t52.5 -34t73.5 -12.5q51 0 87 18.5
t61.5 48.5t42 69.5t27 82t17.5 84.5l13 78l3 21q-35 1 -65.5 3.5t-53.5 6.5z" />
    <glyph glyph-name="dcroat" unicode="&#x111;" horiz-adv-x="432" 
d="M314 0q-33 0 -46.5 39.5t-13.5 102.5v5q-7 -21 -18 -47t-28.5 -48t-41 -37t-54.5 -15q-27 0 -50 12t-39.5 33t-26 50.5t-9.5 63.5q0 44 15.5 89.5t42.5 82.5t65 60t83 23q30 0 51 -11t33 -28q5 32 11 64t12 62h-36q-51 0 -94 3t-75 8q-15 3 -6.5 11t21.5 18.5t20.5 21
t-10.5 16.5q-6 2 10.5 2.5t45.5 1t66.5 1.5t74.5 3l22 109q2 6 5 6q4 0 12 -6.5t17 -14.5t19 -14.5t19 -6.5q11 0 18 14q3 5 -1 -18.5t-10 -56.5q15 2 27 2.5t18 0.5q5 0 3 -1q-13 -6 -14.5 -14t3 -17.5t12.5 -18.5t14 -17t8 -13t-6 -6q-42 -6 -84 -9q-8 -35 -17.5 -78
t-19 -88t-19 -89t-16.5 -82t-11 -67.5t-4 -45.5q0 -15 4 -15q2 0 7.5 4t13.5 15t20 30t27 48q21 39 34 70q8 17 14 32q5 12 19 12q11 0 16.5 -8.5t1.5 -17.5q-8 -21 -19 -45.5t-23.5 -50t-26.5 -48.5t-28 -41q-31 -41 -58 -41zM124 40q20 0 36.5 17.5t30 45t24 61t18.5 64.5
t12.5 56.5t6.5 37.5q0 22 -12 37t-35 15q-21 0 -39 -13.5t-32 -35t-25 -49t-18 -55t-10.5 -52.5t-3.5 -42q0 -12 2 -27t7.5 -28.5t14.5 -22.5t23 -9z" />
    <glyph glyph-name="Eogonek" unicode="&#x118;" 
d="M716 -486q-20 0 -39 5t-34 15.5t-24 27t-9 38.5q0 41 28 80t65 71q-9 -1 -18.5 -1.5t-18.5 -0.5q-58 0 -111 16.5t-93.5 48.5t-64.5 80.5t-24 112.5q0 46 12.5 88.5t35 79t53.5 67t67 51.5q-16 30 -24 65.5t-8 73.5q0 53 16 104q-26 1 -51 1.5t-50 0.5q-30 0 -67 -1
t-75 -5.5t-74.5 -15t-65 -29t-45.5 -47t-17 -70.5q0 -33 10 -56.5t26.5 -39t37 -23t41.5 -7.5q58 0 87.5 64.5t29.5 177.5q0 6 4 6t11.5 -5t16.5 -11.5t18.5 -11.5t17.5 -5q13 0 19 17q0 2 2 2q3 0 7.5 -10t4.5 -26q0 -45 -14.5 -87.5t-42.5 -76t-68.5 -54t-92.5 -20.5
q-36 0 -70.5 13t-62.5 35.5t-45 53t-17 64.5q0 49 21 83t56 57.5t79.5 37t91.5 20t93 8.5t82 2q58 0 116 -3q18 40 47 75t70 61.5t93.5 41.5t118.5 15q38 0 71.5 -7.5t58.5 -22.5t39.5 -36.5t14.5 -50.5q0 -31 -14 -52t-36.5 -35t-51 -21.5t-58 -11.5t-57.5 -4.5t-50 -0.5
q-42 0 -83.5 1.5t-83.5 3.5q-18 -58 -18 -119q0 -47 11 -88q44 14 86 14q17 0 35.5 -3t33.5 -11.5t25 -22t10 -34.5q0 -28 -25.5 -52.5t-74.5 -24.5q-40 0 -71.5 14.5t-55.5 40.5q-24 -21 -44 -49t-33.5 -59t-21 -63.5t-7.5 -64.5q0 -36 11 -75t35.5 -71t64 -53t97.5 -21
q66 0 108.5 27.5t67 72t33.5 100.5t9 112q0 6 4 6t11.5 -5t16.5 -11.5t18.5 -11.5t17.5 -5q13 0 19 17q0 2 2 2q3 0 7.5 -10t4.5 -26q0 -35 -12 -76t-37 -80.5t-62.5 -73t-88.5 -54.5q-18 -15 -37 -34t-34.5 -40t-25 -44.5t-9.5 -47.5q0 -17 7.5 -35t29.5 -18q31 0 54 35
q9 14 13 26t4 13q3 11 6 11t5.5 -4t6.5 -8.5t8 -8t10 -3.5q5 0 13 5q1 1 -4 -16t-17 -36q-17 -26 -46.5 -40t-62.5 -14zM863 730q-44 0 -80.5 -12.5t-65 -34t-49.5 -50.5t-36 -62q39 -2 78 -3t78 -1h16q24 0 55 1.5t58.5 10t46 25.5t18.5 47q0 37 -34 58t-85 21zM701 298
q-20 0 -38 -4.5t-35 -12.5q13 -24 31.5 -37.5t41.5 -13.5q32 0 46 13t14 24q0 10 -7 16t-16.5 9.5t-19.5 4.5t-17 1z" />
    <glyph glyph-name="eogonek" unicode="&#x119;" horiz-adv-x="347" 
d="M384 226q-12 -30 -26 -59.5t-32.5 -56t-41.5 -49t-53 -38.5l-1 -1q-19 -15 -40 -35t-39 -43t-29.5 -48.5t-11.5 -52.5q0 -17 7.5 -35t29.5 -18q31 0 54 35q9 14 13 26t4 13q3 11 6 11t5.5 -4t6.5 -8.5t8 -8t10 -3.5q5 0 13 5q1 1 -4 -16t-17 -36q-17 -26 -46.5 -40
t-62.5 -14q-20 0 -39 5t-34 15.5t-24 27t-9 38.5t9.5 44.5t24.5 43.5t34.5 40t39.5 36q-37 0 -64.5 14.5t-46.5 37.5t-28.5 54t-9.5 64q0 43 14.5 86.5t40.5 78.5t62 57t79 22q48 0 81 -27t33 -72q0 -36 -22.5 -65.5t-55.5 -50.5t-71.5 -33t-70.5 -13q0 -12 2 -31.5
t10 -37.5t23 -31t42 -13q25 0 49 12q2 2 4 2q26 14 46.5 35t37 46t30 52t23.5 53q5 12 19 12q10 0 16 -8.5t2 -17.5zM84 194q27 3 51.5 14t43.5 28.5t30 40t11 47.5q0 23 -9.5 36.5t-25.5 13.5q-21 0 -38.5 -20.5t-30.5 -49.5t-21 -59.5t-11 -50.5z" />
    <glyph glyph-name="Ecaron" unicode="&#x11a;" 
d="M666 -251q-58 0 -111 16.5t-93.5 48.5t-64.5 80.5t-24 112.5q0 46 12.5 88.5t35 79t53.5 67t67 51.5q-16 30 -24 65.5t-8 73.5q0 53 16 104q-26 1 -51 1.5t-50 0.5q-30 0 -67 -1t-75 -5.5t-74.5 -15t-65 -29t-45.5 -47t-17 -70.5q0 -33 10 -56.5t26.5 -39t37 -23
t41.5 -7.5q58 0 87.5 64.5t29.5 177.5q0 6 4 6t11.5 -5t16.5 -11.5t18.5 -11.5t17.5 -5q13 0 19 17q0 2 2 2q3 0 7.5 -10t4.5 -26q0 -45 -14.5 -87.5t-42.5 -76t-68.5 -54t-92.5 -20.5q-36 0 -70.5 13t-62.5 35.5t-45 53t-17 64.5q0 49 21 83t56 57.5t79.5 37t91.5 20
t93 8.5t82 2q58 0 116 -3q18 40 47 75t70 61.5t93.5 41.5t118.5 15q38 0 71.5 -7.5t58.5 -22.5t39.5 -36.5t14.5 -50.5q0 -31 -14 -52t-36.5 -35t-51 -21.5t-58 -11.5t-57.5 -4.5t-50 -0.5q-42 0 -83.5 1.5t-83.5 3.5q-18 -58 -18 -119q0 -47 11 -88q44 14 86 14
q17 0 35.5 -3t33.5 -11.5t25 -22t10 -34.5q0 -28 -25.5 -52.5t-74.5 -24.5q-40 0 -71.5 14.5t-55.5 40.5q-24 -21 -44 -49t-33.5 -59t-21 -63.5t-7.5 -64.5q0 -36 11 -75t35.5 -71t64 -53t97.5 -21q66 0 108.5 27.5t67 72t33.5 100.5t9 112q0 6 4 6t11.5 -5t16.5 -11.5
t18.5 -11.5t17.5 -5q13 0 19 17q0 2 2 2q3 0 7.5 -10t4.5 -26q0 -45 -19.5 -98.5t-60 -100t-102.5 -78t-147 -31.5zM863 730q-44 0 -80.5 -12.5t-65 -34t-49.5 -50.5t-36 -62q39 -2 78 -3t78 -1h16q24 0 55 1.5t58.5 10t46 25.5t18.5 47q0 37 -34 58t-85 21zM869 800
q-7 0 -12.5 -5t-10.5 -5q-4 0 -8 9q-13 35 -30.5 81.5t-20.5 100.5q0 7 4 7t10.5 -3.5t14 -8t15.5 -8.5t15 -4q14 0 18 20q1 3 2 -2.5t2.5 -17t3.5 -28t5 -35.5l5 -38l18 33q9 17 17 32t13.5 25.5t8.5 15t2 1.5q-3 -16 4 -21.5t18 -5.5t23.5 3t20.5 3q10 0 6 -9
q-22 -49 -54.5 -87.5t-57.5 -64.5q-4 -5 -8 -5q-7 0 -11 8.5t-13 8.5zM701 298q-20 0 -38 -4.5t-35 -12.5q13 -24 31.5 -37.5t41.5 -13.5q32 0 46 13t14 24q0 10 -7 16t-16.5 9.5t-19.5 4.5t-17 1z" />
    <glyph glyph-name="ecaron" unicode="&#x11b;" horiz-adv-x="347" 
d="M384 226q-15 -40 -37 -80t-51 -72.5t-67.5 -53t-86.5 -20.5q-37 0 -65.5 14t-48 37.5t-29 54t-9.5 64.5q0 43 14.5 86.5t40.5 78.5t62 57t79 22q48 0 81 -27t33 -72q0 -36 -22.5 -65.5t-55.5 -50.5t-71.5 -33t-70.5 -13q0 -12 2 -31.5t10 -37.5t23 -31t42 -13
q36 0 65.5 20.5t53.5 51t41.5 65.5t29.5 63q5 12 19 12q10 0 16 -8.5t2 -17.5zM187 454q-7 0 -12.5 -5t-10.5 -5q-4 0 -8 9q-13 35 -30.5 81.5t-20.5 100.5q0 7 4 7t10.5 -3.5t14 -8t15.5 -8.5t15 -4q14 0 18 20q1 3 2 -2.5t2.5 -17t3.5 -28t5 -35.5l5 -38l18 33q9 17 17 32
t13.5 25.5t8.5 15t2 1.5q-3 -16 4 -21.5t18 -5.5t23.5 3t20.5 3q10 0 6 -9q-22 -49 -54.5 -87.5t-57.5 -64.5q-4 -5 -8 -5q-7 0 -11 8.5t-13 8.5zM84 194q27 3 51.5 14t43.5 28.5t30 40t11 47.5q0 23 -9.5 36.5t-25.5 13.5q-21 0 -38.5 -20.5t-30.5 -49.5t-21 -59.5
t-11 -50.5z" />
    <glyph glyph-name="dotlessi" unicode="&#x131;" horiz-adv-x="183" 
d="M65 0q-20 0 -33.5 11t-22 30.5t-12 46.5t-3.5 58q0 32 3 66t7.5 68.5t10 67t10.5 60.5q2 6 5 6q4 0 12 -6.5t17 -14.5t19 -14.5t19 -6.5q11 0 18 14q2 3 1.5 -3t-2.5 -18t-5 -28.5t-6 -34.5q-6 -29 -13.5 -62.5t-14.5 -66t-12 -61t-5 -46.5q0 -25 9 -25q2 0 7.5 4
t13.5 15t20 30t27 48q21 39 34 70q8 17 14 32q5 12 19 12q11 0 16.5 -8.5t1.5 -17.5q-8 -21 -19 -45.5t-23.5 -50t-26.5 -48.5t-28 -41q-31 -41 -58 -41z" />
    <glyph glyph-name="Lacute" unicode="&#x139;" horiz-adv-x="1016" 
d="M668 357q-6 -47 -15.5 -108t-25.5 -125.5t-39.5 -127.5t-58.5 -114q35 -39 76 -66t98 -27q51 0 87 23t58.5 62t32.5 90t10 107q0 6 4 6t11.5 -5t16.5 -11.5t18.5 -11.5t17.5 -5q13 0 19 17q0 2 2 2q3 0 7.5 -10t4.5 -26q0 -45 -20.5 -94t-58 -90t-90 -67.5t-117.5 -26.5
q-34 0 -63 8t-53.5 21.5t-45.5 31.5t-39 39q-38 -45 -88.5 -72.5t-116.5 -27.5q-63 0 -111 18t-81 46.5t-49.5 65t-16.5 72.5q0 32 14 61.5t39.5 52.5t61.5 36.5t80 13.5q47 0 83 -16t64.5 -41.5t52.5 -57t48 -63.5q11 29 19 60t14 62.5t11 61t9 55.5q5 27 11.5 67.5
t16.5 88.5t24 100t33 101l-67 4q-38 2 -76.5 3t-76.5 1q-46 0 -95.5 -6.5t-89.5 -27t-66 -58t-26 -99.5q0 -38 10 -65t26.5 -44t37 -24.5t41.5 -7.5q58 0 87.5 64.5t29.5 177.5q0 6 4 6t11.5 -5t16.5 -11.5t18.5 -11.5t17.5 -5q13 0 19 17q0 2 2 2q3 0 7.5 -10t4.5 -26
q0 -45 -14.5 -87.5t-42.5 -76t-68.5 -54t-92.5 -20.5q-36 0 -70.5 13.5t-62.5 39.5t-45 63.5t-17 84.5q0 73 35.5 115t89.5 63.5t118 27t120 5.5q37 0 74 -1t75 -3q14 -1 35 -2t46 -2q18 39 39.5 73.5t47 60t56 40t66.5 14.5q22 0 45 -6t42 -18.5t31 -32t12 -45.5
q0 -40 -27 -64.5t-68.5 -38.5t-90.5 -19t-94 -5q-14 -52 -20 -100t-10 -75zM300 -211q62 0 101.5 30t65.5 77q-24 32 -47 64t-48.5 57.5t-55.5 41.5t-68 16q-31 0 -54.5 -10.5t-39.5 -28.5t-24 -41.5t-8 -48.5q0 -29 10.5 -57t32.5 -50t55.5 -36t79.5 -14zM853 721
q-28 0 -50 -12t-39.5 -32.5t-31 -47.5t-23.5 -57q36 0 72 4.5t64 15t45.5 29.5t17.5 49q0 20 -11.5 35.5t-43.5 15.5zM836 788q-8 -7 -12 -7t-5 5.5t-2 12t-2.5 12t-6.5 5.5q-2 0 -2.5 -0.5t-1.5 -0.5h-2q-4 0 -1.5 7t9.5 18t17 25.5t21 30.5q11 15 20 29t16 24t10.5 14
t2.5 1q-5 -19 5 -24t24 -5q8 0 15.5 0.5t12.5 0.5q17 0 11 -10q-13 -23 -30 -43t-34.5 -37t-34.5 -31.5t-30 -26.5z" />
    <glyph glyph-name="lacute" unicode="&#x13a;" horiz-adv-x="172" 
d="M55 0q-33 0 -46.5 39.5t-13.5 102.5q0 43 5 94t13 104.5t18 106.5t19 100t17.5 86t12.5 63q2 6 5 6q4 0 12 -6.5t17 -14.5t19 -14.5t19 -6.5q11 0 18 14q2 3 1.5 -3t-2.5 -18t-5 -28t-6 -34q-4 -22 -14 -65t-21.5 -96t-24 -110.5t-22.5 -109.5t-16.5 -93t-6.5 -61
q0 -15 4 -15q2 0 7.5 4t13.5 15t20 30t27 48q21 39 34 70q8 17 14 32q5 12 19 12q11 0 16.5 -8.5t1.5 -17.5q-8 -21 -19 -45.5t-23.5 -50t-26.5 -48.5t-28 -41q-31 -41 -58 -41zM141 727q-8 -7 -12 -7t-5 5.5t-2 12t-2.5 12t-6.5 5.5q-2 0 -2.5 -0.5t-1.5 -0.5h-2
q-4 0 -1.5 7t9.5 18t17 25.5t21 30.5q11 15 20 29t16 24t10.5 14t2.5 1q-5 -19 5 -24t24 -5q8 0 15.5 0.5t12.5 0.5q17 0 11 -10q-13 -23 -30 -43t-34.5 -37t-34.5 -31.5t-30 -26.5z" />
    <glyph glyph-name="Lcaron" unicode="&#x13d;" horiz-adv-x="1016" 
d="M668 357q-6 -47 -15.5 -108t-25.5 -125.5t-39.5 -127.5t-58.5 -114q35 -39 76 -66t98 -27q51 0 87 23t58.5 62t32.5 90t10 107q0 6 4 6t11.5 -5t16.5 -11.5t18.5 -11.5t17.5 -5q13 0 19 17q0 2 2 2q3 0 7.5 -10t4.5 -26q0 -45 -20.5 -94t-58 -90t-90 -67.5t-117.5 -26.5
q-34 0 -63 8t-53.5 21.5t-45.5 31.5t-39 39q-38 -45 -88.5 -72.5t-116.5 -27.5q-63 0 -111 18t-81 46.5t-49.5 65t-16.5 72.5q0 32 14 61.5t39.5 52.5t61.5 36.5t80 13.5q47 0 83 -16t64.5 -41.5t52.5 -57t48 -63.5q11 29 19 60t14 62.5t11 61t9 55.5q5 27 11.5 67.5
t16.5 88.5t24 100t33 101l-67 4q-38 2 -76.5 3t-76.5 1q-46 0 -95.5 -6.5t-89.5 -27t-66 -58t-26 -99.5q0 -38 10 -65t26.5 -44t37 -24.5t41.5 -7.5q58 0 87.5 64.5t29.5 177.5q0 6 4 6t11.5 -5t16.5 -11.5t18.5 -11.5t17.5 -5q13 0 19 17q0 2 2 2q3 0 7.5 -10t4.5 -26
q0 -45 -14.5 -87.5t-42.5 -76t-68.5 -54t-92.5 -20.5q-36 0 -70.5 13.5t-62.5 39.5t-45 63.5t-17 84.5q0 73 35.5 115t89.5 63.5t118 27t120 5.5q37 0 74 -1t75 -3q14 -1 35 -2t46 -2q18 39 39.5 73.5t47 60t56 40t66.5 14.5q22 0 45 -6t42 -18.5t31 -32t12 -45.5
q0 -40 -27 -64.5t-68.5 -38.5t-90.5 -19t-94 -5q-14 -52 -20 -100t-10 -75zM300 -211q62 0 101.5 30t65.5 77q-24 32 -47 64t-48.5 57.5t-55.5 41.5t-68 16q-31 0 -54.5 -10.5t-39.5 -28.5t-24 -41.5t-8 -48.5q0 -29 10.5 -57t32.5 -50t55.5 -36t79.5 -14zM938 263
q-3 -8 -6 -8q-4 0 -8.5 8.5t-10 19t-12 19t-12.5 8.5t-12 -10l-2 -2q-2 0 -1 17t3 41t5 50.5t4 45.5q1 18 2 34.5t2 28.5t1.5 17.5t1.5 2.5q2 -11 7.5 -14.5t11.5 -3.5q8 0 17 4t18 9.5t17 9.5t12 4q5 0 5 -7q0 -73 -12.5 -141.5t-30.5 -132.5zM853 721q-28 0 -50 -12
t-39.5 -32.5t-31 -47.5t-23.5 -57q36 0 72 4.5t64 15t45.5 29.5t17.5 49q0 20 -11.5 35.5t-43.5 15.5z" />
    <glyph glyph-name="lcaron" unicode="&#x13e;" horiz-adv-x="392" 
d="M55 0q-33 0 -46.5 39.5t-13.5 102.5q0 43 5 94t13 104.5t18 106.5t19 100t17.5 86t12.5 63q2 6 5 6q4 0 12 -6.5t17 -14.5t19 -14.5t19 -6.5q11 0 18 14q2 3 1.5 -3t-2.5 -18t-5 -28t-6 -34q-4 -22 -14 -65t-21.5 -96t-24 -110.5t-22.5 -109.5t-16.5 -93t-6.5 -61
q0 -15 4 -15q2 0 7.5 4t13.5 15t20 30t27 48q21 39 34 70q8 17 14 32q5 12 19 12q11 0 16.5 -8.5t1.5 -17.5q-8 -21 -19 -45.5t-23.5 -50t-26.5 -48.5t-28 -41q-31 -41 -58 -41zM292 367q-3 -8 -6 -8q-4 0 -8.5 8.5t-10 19t-12 19t-12.5 8.5t-12 -10l-2 -2q-2 0 -1 17t3 41
t5 50.5t4 45.5q1 18 2 34.5t2 28.5t1.5 17.5t1.5 2.5q2 -11 7.5 -14.5t11.5 -3.5q8 0 17 4t18 9.5t17 9.5t12 4q5 0 5 -7q0 -73 -12.5 -141.5t-30.5 -132.5z" />
    <glyph glyph-name="Lslash" unicode="&#x141;" horiz-adv-x="1016" 
d="M659 292q14 9 22 13t6 1q-14 -16 -5.5 -25.5t22.5 -15.5l24.5 -10.5t0.5 -11.5q-27 -18 -48.5 -32t-40.5 -25q-16 -79 -41.5 -159.5t-69.5 -144.5q35 -39 76 -66t98 -27q51 0 87 23t58.5 62t32.5 90t10 107q0 6 4 6t11.5 -5t16.5 -11.5t18.5 -11.5t17.5 -5q13 0 19 17
q0 2 2 2q3 0 7.5 -10t4.5 -26q0 -45 -20.5 -94t-58 -90t-90 -67.5t-117.5 -26.5q-34 0 -63 8t-53.5 21.5t-45.5 31.5t-39 39q-38 -45 -88.5 -72.5t-116.5 -27.5q-63 0 -111 18t-81 46.5t-49.5 65t-16.5 72.5q0 32 14 61.5t39.5 52.5t61.5 36.5t80 13.5q47 0 83 -16
t64.5 -41.5t52.5 -57t48 -63.5q19 47 28.5 98t17.5 98l-49 -15q-3 -1 -7 -1q-7 0 -2.5 9t10.5 19.5t7.5 19t-11.5 8.5h-6q-10 -2 12 10t60 35q5 30 12 67.5t16.5 79t21.5 84.5t28 84l-67 4q-38 2 -76.5 3t-76.5 1q-46 0 -95.5 -6.5t-89.5 -27t-66 -58t-26 -99.5
q0 -38 10 -65t26.5 -44t37 -24.5t41.5 -7.5q58 0 87.5 64.5t29.5 177.5q0 6 4 6t11.5 -5t16.5 -11.5t18.5 -11.5t17.5 -5q13 0 19 17q0 2 2 2q3 0 7.5 -10t4.5 -26q0 -45 -14.5 -87.5t-42.5 -76t-68.5 -54t-92.5 -20.5q-36 0 -70.5 13.5t-62.5 39.5t-45 63.5t-17 84.5
q0 73 35.5 115t89.5 63.5t118 27t120 5.5q37 0 74 -1t75 -3q14 -1 35 -2t46 -2q18 39 39.5 73.5t47 60t56 40t66.5 14.5q22 0 45 -6t42 -18.5t31 -32t12 -45.5q0 -40 -27 -64.5t-68.5 -38.5t-90.5 -19t-94 -5q-14 -52 -20 -100t-10 -75zM300 -211q62 0 101.5 30t65.5 77
q-24 32 -47 64t-48.5 57.5t-55.5 41.5t-68 16q-31 0 -54.5 -10.5t-39.5 -28.5t-24 -41.5t-8 -48.5q0 -29 10.5 -57t32.5 -50t55.5 -36t79.5 -14zM853 721q-28 0 -50 -12t-39.5 -32.5t-31 -47.5t-23.5 -57q36 0 72 4.5t64 15t45.5 29.5t17.5 49q0 20 -11.5 35.5t-43.5 15.5z
" />
    <glyph glyph-name="lslash" unicode="&#x142;" horiz-adv-x="172" 
d="M55 0q-33 0 -46.5 39.5t-13.5 102.5q0 42 4.5 91t12.5 100l-50 -15q-3 -1 -7 -1q-8 0 -3 9t11 19.5t7.5 19t-11.5 8.5h-6q-9 -2 12.5 10t59.5 35q15 88 31 162.5t24 115.5q2 6 5 6q4 0 12 -6.5t17 -14.5t19 -14.5t19 -6.5q11 0 18 14q2 3 1.5 -3t-2.5 -18t-5 -28t-6 -34
q-3 -16 -9 -42.5t-13 -58.5q15 10 24 14.5t7 1.5q-14 -16 -5.5 -25.5t22.5 -15.5l24.5 -10.5t0.5 -11.5q-30 -20 -53.5 -35.5t-43.5 -26.5q-11 -49 -21.5 -99.5t-19 -94.5t-13.5 -78.5t-5 -52.5q0 -15 4 -15q2 0 7.5 4t13.5 15t20 30t27 48q21 39 34 70q8 17 14 32
q5 12 19 12q11 0 16.5 -8.5t1.5 -17.5q-8 -21 -19 -45.5t-23.5 -50t-26.5 -48.5t-28 -41q-31 -41 -58 -41z" />
    <glyph glyph-name="Nacute" unicode="&#x143;" horiz-adv-x="1205" 
d="M0 506q0 49 16 83.5t43 58t63 37t75.5 20.5t81 9t78.5 2q102 0 203 -3t203 -3h6q36 0 69.5 -17.5t65 -49t59 -74.5t51.5 -94q35 73 75 133t85 95q13 10 21 10q10 0 15.5 -10.5t11.5 -23.5t14 -24.5t23 -14.5q-13 -10 -32.5 -23t-42.5 -35.5t-49.5 -57t-55.5 -88.5
q-15 -27 -27 -54q32 -90 49.5 -184.5t17.5 -179.5q0 -57 -8.5 -106t-27.5 -85t-48 -56.5t-70 -20.5q-18 0 -35 8.5t-31 27.5t-22.5 49.5t-8.5 75.5q0 39 7 90.5t19.5 110.5t31 122.5t41.5 126.5q-16 51 -37 98.5t-46.5 88t-56 72t-66.5 50.5q-2 0 -3 -0.5t-2 -0.5
q-28 -5 -44.5 -46.5t-27.5 -106.5t-21 -147t-25 -167q-14 -79 -38 -159.5t-64.5 -145.5t-100.5 -106t-146 -41q-46 0 -91 12.5t-81 36t-58.5 57.5t-22.5 78q0 40 18.5 72t48.5 55t67.5 35.5t75.5 12.5t71.5 -12t59.5 -33t41 -51t15 -66q0 -16 -4.5 -26t-7.5 -10q-2 0 -2 2
q-6 17 -19 17q-8 0 -17.5 -5t-18 -11.5t-16 -11.5t-11.5 -5t-4 6q0 31 -5 61t-16 53.5t-30 37.5t-48 14q-20 0 -41 -7.5t-38 -23t-28 -39t-11 -56.5q0 -30 10.5 -57.5t31.5 -49t52.5 -34t73.5 -12.5q51 0 87 18.5t61.5 48.5t42 69.5t27 82t17.5 84.5l13 78q4 24 9.5 62.5
t14 85t20 97t27.5 98.5t36 88.5t46 67.5q-82 2 -163.5 4t-163.5 2q-46 0 -95.5 -3t-90 -19t-66.5 -50.5t-26 -97.5q0 -27 9.5 -50t25 -40.5t35.5 -27.5t41 -10q22 0 43.5 13t39 41.5t28 75.5t10.5 114q0 6 4 6t11.5 -5t16 -11.5t18 -11.5t17.5 -5q13 0 19 17q0 2 2 2
q3 0 7.5 -10t4.5 -26q0 -62 -19 -106.5t-49.5 -73t-69.5 -42t-79 -13.5q-37 0 -72 11t-62.5 32t-44 51.5t-16.5 68.5zM1023 -4q0 56 -6.5 120t-20.5 130q-18 -52 -32.5 -102.5t-24.5 -97t-15.5 -86.5t-5.5 -70q0 -50 12.5 -74t29.5 -24q15 0 27 15t20 42t12 64.5t4 82.5z
M993 743q-8 -7 -12 -7t-5 5.5t-2 12t-2.5 12t-6.5 5.5q-2 0 -2.5 -0.5t-1.5 -0.5h-2q-4 0 -1.5 7t9.5 18t17 25.5t21 30.5q11 15 20 29t16 24t10.5 14t2.5 1q-5 -19 5 -24t24 -5q8 0 15.5 0.5t12.5 0.5q17 0 11 -10q-13 -23 -30 -43t-34.5 -37t-34.5 -31.5t-30 -26.5z" />
    <glyph glyph-name="nacute" unicode="&#x144;" horiz-adv-x="421" 
d="M373 138q21 39 34 70q8 17 14 32q5 12 19 12q11 0 16.5 -8.5t1.5 -17.5q-8 -21 -19 -45.5t-23.5 -50t-26.5 -48.5t-28 -41q-16 -21 -30.5 -31t-34.5 -10q-19 0 -31 8t-19 21t-10 29t-3 32q0 19 4.5 48.5t10.5 62.5t10.5 65t4.5 56q0 23 -5 37.5t-17 14.5
q-18 0 -36.5 -22.5t-35.5 -57t-32 -77t-26.5 -82t-18 -72t-6.5 -47.5q-3 -11 -15 -15q-1 -1 -2 -1h-6q-20 0 -33.5 11.5t-21.5 31t-11.5 46t-3.5 57.5q0 32 3 66t7.5 68.5t10 67t10.5 60.5q2 6 5 6q4 0 12 -6.5t17 -14.5t19 -14.5t19 -6.5q11 0 18 14q2 3 1.5 -3t-2.5 -18
t-5 -28.5t-6 -34.5q-6 -28 -13.5 -61t-14.5 -64.5t-12 -59.5t-5 -47q5 24 13 59t19 73t26.5 76t35 68t44.5 49t55 19q27 0 46 -10.5t32 -28.5t19 -41.5t6 -50.5q0 -33 -9.5 -74.5t-20 -79t-17.5 -63t-1 -25.5q2 0 7.5 4t13.5 15t20 29.5t27 48.5zM256 444q-8 -7 -12 -7
t-5 5.5t-2 12t-2.5 12t-6.5 5.5q-2 0 -2.5 -0.5t-1.5 -0.5h-2q-4 0 -1.5 7t9.5 18t17 25.5t21 30.5q11 15 20 29t16 24t10.5 14t2.5 1q-5 -19 5 -24t24 -5q8 0 15.5 0.5t12.5 0.5q17 0 11 -10q-13 -23 -30 -43t-34.5 -37t-34.5 -31.5t-30 -26.5z" />
    <glyph glyph-name="Ncaron" unicode="&#x147;" horiz-adv-x="1205" 
d="M0 506q0 49 16 83.5t43 58t63 37t75.5 20.5t81 9t78.5 2q102 0 203 -3t203 -3h6q36 0 69.5 -17.5t65 -49t59 -74.5t51.5 -94q35 73 75 133t85 95q13 10 21 10q10 0 15.5 -10.5t11.5 -23.5t14 -24.5t23 -14.5q-13 -10 -32.5 -23t-42.5 -35.5t-49.5 -57t-55.5 -88.5
q-15 -27 -27 -54q32 -90 49.5 -184.5t17.5 -179.5q0 -57 -8.5 -106t-27.5 -85t-48 -56.5t-70 -20.5q-18 0 -35 8.5t-31 27.5t-22.5 49.5t-8.5 75.5q0 39 7 90.5t19.5 110.5t31 122.5t41.5 126.5q-16 51 -37 98.5t-46.5 88t-56 72t-66.5 50.5h-1q-2 0 -2.5 -0.5t-1.5 -0.5
q-28 -5 -44.5 -46.5t-27.5 -106.5t-21 -147t-25 -167q-14 -79 -38 -159.5t-64.5 -145.5t-100.5 -106t-146 -41q-46 0 -91 12.5t-81 36t-58.5 57.5t-22.5 78q0 40 18.5 72t48.5 55t67.5 35.5t75.5 12.5t71.5 -12t59.5 -33t41 -51t15 -66q0 -16 -4.5 -26t-7.5 -10q-2 0 -2 2
q-6 17 -19 17q-8 0 -17.5 -5t-18 -11.5t-16 -11.5t-11.5 -5t-4 6q0 31 -5 61t-16 53.5t-30 37.5t-48 14q-20 0 -41 -7.5t-38 -23t-28 -39t-11 -56.5q0 -30 10.5 -57.5t31.5 -49t52.5 -34t73.5 -12.5q51 0 87 18.5t61.5 48.5t42 69.5t27 82t17.5 84.5l13 78q4 24 9.5 62.5
t14 85t20 97t27.5 98.5t36 88.5t46 67.5q-82 2 -163.5 4t-163.5 2q-46 0 -95.5 -3t-90 -19t-66.5 -50.5t-26 -97.5q0 -27 9.5 -50t25 -40.5t35.5 -27.5t41 -10q22 0 43.5 13t39 41.5t28 75.5t10.5 114q0 6 4 6t11.5 -5t16 -11.5t18 -11.5t17.5 -5q13 0 19 17q0 2 2 2
q3 0 7.5 -10t4.5 -26q0 -62 -19 -106.5t-49.5 -73t-69.5 -42t-79 -13.5q-37 0 -72 11t-62.5 32t-44 51.5t-16.5 68.5zM1023 -4q0 56 -6.5 120t-20.5 130q-18 -52 -32.5 -102.5t-24.5 -97t-15.5 -86.5t-5.5 -70q0 -50 12.5 -74t29.5 -24q15 0 27 15t20 42t12 64.5t4 82.5z
M982 753q-7 0 -12.5 -5t-10.5 -5q-4 0 -8 9q-13 35 -30.5 81.5t-20.5 100.5q0 7 4 7t10.5 -3.5t14 -8t15.5 -8.5t15 -4q14 0 18 20q1 3 2 -2.5t2.5 -17t3.5 -28t5 -35.5l5 -38l18 33q9 17 17 32t13.5 25.5t8.5 15t2 1.5q-3 -16 4 -21.5t18 -5.5t23.5 3t20.5 3q10 0 6 -9
q-22 -49 -54.5 -87.5t-57.5 -64.5q-4 -5 -8 -5q-7 0 -11 8.5t-13 8.5z" />
    <glyph glyph-name="ncaron" unicode="&#x148;" horiz-adv-x="421" 
d="M373 138q21 39 34 70q8 17 14 32q5 12 19 12q11 0 16.5 -8.5t1.5 -17.5q-8 -21 -19 -45.5t-23.5 -50t-26.5 -48.5t-28 -41q-16 -21 -30.5 -31t-34.5 -10q-19 0 -31 8t-19 21t-10 29t-3 32q0 19 4.5 48.5t10.5 62.5t10.5 65t4.5 56q0 23 -5 37.5t-17 14.5
q-18 0 -36.5 -22.5t-35.5 -57t-32 -77t-26.5 -82t-18 -72t-6.5 -47.5q-3 -11 -15 -15q-1 -1 -2 -1h-5q-20 0 -33.5 11t-22 30.5t-12 46.5t-3.5 58q0 32 3 66t7.5 68.5t10 67t10.5 60.5q2 6 5 6q4 0 12 -6.5t17 -14.5t19 -14.5t19 -6.5q11 0 18 14q2 3 1.5 -3t-2.5 -18
t-5 -28.5t-6 -34.5q-6 -28 -13.5 -61t-14.5 -64.5t-12 -59.5t-5 -47q5 24 13 59t19 73t26.5 76t35 68t44.5 49t55 19q27 0 46 -10.5t32 -28.5t19 -41.5t6 -50.5q0 -33 -9.5 -74.5t-20 -79t-17.5 -63t-1 -25.5q2 0 7.5 4t13.5 15t20 29.5t27 48.5zM245 454q-7 0 -12.5 -5
t-10.5 -5q-4 0 -8 9q-13 35 -30.5 81.5t-20.5 100.5q0 7 4 7t10.5 -3.5t14 -8t15.5 -8.5t15 -4q14 0 18 20q1 3 2 -2.5t2.5 -17t3.5 -28t5 -35.5l5 -38l18 33q9 17 17 32t13.5 25.5t8.5 15t2 1.5q-3 -16 4 -21.5t18 -5.5t23.5 3t20.5 3q10 0 6 -9q-22 -49 -54.5 -87.5
t-57.5 -64.5q-4 -5 -8 -5q-7 0 -11 8.5t-13 8.5z" />
    <glyph glyph-name="Ohungarumlaut" unicode="&#x150;" horiz-adv-x="849" 
d="M0 119q0 59 13 117t36.5 108t57.5 90t76 62q21 50 55.5 91t77.5 70t91 44.5t96 15.5q54 0 106 -21.5t93 -67t66 -118t25 -174.5q0 -67 -14 -137t-40.5 -135t-66 -122t-90.5 -100t-113 -67.5t-134 -24.5q-88 0 -151 31.5t-104 83t-60.5 118t-19.5 136.5zM237 342
q0 -42 10 -71t26 -46.5t35.5 -25.5t38.5 -8q24 0 46.5 13t40.5 41.5t28.5 75.5t10.5 114q0 6 4 6t11.5 -5t16 -11.5t18 -11.5t17.5 -5q13 0 19 17q0 2 2 2q3 0 7.5 -10t4.5 -26q0 -62 -19 -107t-49 -74.5t-68 -44t-77 -14.5t-75.5 14t-65 41t-45.5 66.5t-17 90.5v7
q-26 -52 -40.5 -118t-14.5 -135q0 -62 13.5 -121t41.5 -105t71.5 -73.5t103.5 -27.5q58 0 107.5 24.5t89.5 66t70.5 97t51.5 118.5t31.5 130t10.5 130q0 86 -16 147t-42.5 99.5t-61.5 56.5t-73 18q-63 0 -123 -42t-98 -115q11 0 20.5 -2.5t9.5 -16.5q0 -8 -6 -14.5t-14 -6.5
q-13 0 -30 -5q-11 -30 -16.5 -63.5t-5.5 -69.5zM460 743q-8 -7 -12 -7t-5 5.5t-2 12t-2.5 12t-6.5 5.5q-2 0 -2.5 -0.5t-1.5 -0.5h-2q-4 0 -1.5 7t9.5 18t17 25.5t21 30.5q11 15 20 29t16 24t10.5 14t2.5 1q-5 -19 5 -24t24 -5q8 0 15.5 0.5t12.5 0.5q17 0 11 -10
q-13 -23 -30 -43t-34.5 -37t-34.5 -31.5t-30 -26.5zM579 743q-8 -7 -12 -7t-5 5.5t-2 12t-2.5 12t-6.5 5.5q-2 0 -2.5 -0.5t-1.5 -0.5h-2q-4 0 -1.5 7t9.5 18t17 25.5t21 30.5q11 15 20 29t16 24t10.5 14t2.5 1q-5 -19 5 -24t24 -5q8 0 15.5 0.5t12.5 0.5q17 0 11 -10
q-13 -23 -30 -43t-34.5 -37t-34.5 -31.5t-30 -26.5z" />
    <glyph glyph-name="ohungarumlaut" unicode="&#x151;" horiz-adv-x="402" 
d="M402 240q5 12 19 12q8 0 13.5 -5.5t5.5 -13.5q0 -5 -1 -7q-8 -19 -36.5 -36t-68.5 -30q-12 -32 -30.5 -61t-43.5 -51t-55 -35t-65 -13q-42 0 -73 13t-51 34.5t-30 49.5t-10 57q0 44 20.5 84t60.5 62q5 21 17 39.5t30.5 33t44 23t58.5 8.5q38 0 65 -12t44.5 -32.5t26 -48
t8.5 -58.5q0 -11 -1 -22.5t-3 -22.5q23 9 38 18t17 14zM219 181q21 0 43 3q9 38 9 75q0 44 -15.5 74.5t-49.5 30.5q-25 0 -42 -13t-27 -33q5 -3 8 -9t3 -11q0 -8 -5.5 -14t-14.5 -6h-3q-1 -5 -1 -9.5v-9.5q0 -44 28 -61t67 -17zM142 40q35 0 62.5 30t44.5 73q-9 -1 -17.5 -1
h-16.5q-45 0 -83.5 13t-59.5 45q-6 -25 -6 -53q0 -21 4 -40t13 -34t23.5 -24t35.5 -9zM165 444q-8 -7 -12 -7t-5 5.5t-2 12t-2.5 12t-6.5 5.5q-2 0 -2.5 -0.5t-1.5 -0.5h-2q-4 0 -1.5 7t9.5 18t17 25.5t21 30.5q11 15 20 29t16 24t10.5 14t2.5 1q-5 -19 5 -24t24 -5
q8 0 15.5 0.5t12.5 0.5q17 0 11 -10q-13 -23 -30 -43t-34.5 -37t-34.5 -31.5t-30 -26.5zM284 444q-8 -7 -12 -7t-5 5.5t-2 12t-2.5 12t-6.5 5.5q-2 0 -2.5 -0.5t-1.5 -0.5h-2q-4 0 -1.5 7t9.5 18t17 25.5t21 30.5q11 15 20 29t16 24t10.5 14t2.5 1q-5 -19 5 -24t24 -5
q8 0 15.5 0.5t12.5 0.5q17 0 11 -10q-13 -23 -30 -43t-34.5 -37t-34.5 -31.5t-30 -26.5z" />
    <glyph glyph-name="OE" unicode="&#x152;" horiz-adv-x="1298" 
d="M1056 526q-42 0 -83.5 1.5t-83.5 3.5q-18 -60 -18 -119q0 -47 11 -88q44 14 86 14q17 0 35.5 -3t33.5 -11.5t25 -22t10 -34.5q0 -28 -25.5 -52.5t-74.5 -24.5q-40 0 -71.5 14.5t-55.5 40.5q-24 -21 -44 -49t-33.5 -59t-21 -63.5t-7.5 -64.5q0 -36 11 -75t35.5 -71t64 -53
t97.5 -21q66 0 108.5 27.5t67 72t33.5 100.5t9 112q0 6 4 6t11.5 -5t16.5 -11.5t18.5 -11.5t17.5 -5q13 0 19 17q0 2 2 2q3 0 7.5 -10t4.5 -26q0 -45 -19.5 -98.5t-60 -100t-102.5 -78t-147 -31.5q-47 0 -91.5 11t-81.5 32.5t-64.5 53.5t-42.5 75q-58 -76 -139 -123.5
t-183 -47.5q-88 0 -151 31.5t-104 83t-60.5 118t-19.5 136.5q0 59 13 117t36.5 108t57.5 90t76 62q21 50 55.5 91t77.5 70t91 44.5t96 15.5q45 0 88.5 -14.5t81 -46t66 -80.5t42.5 -117q5 57 28 112t66.5 99t109 71t154.5 27q38 0 71.5 -7.5t58.5 -22.5t39.5 -36.5
t14.5 -50.5q0 -31 -14 -52t-36.5 -35t-51 -21.5t-58 -11.5t-57.5 -4.5t-50 -0.5zM237 342q0 -42 10 -71t26 -46.5t35.5 -25.5t38.5 -8q24 0 46.5 13t40.5 41.5t28.5 75.5t10.5 114q0 6 4 6t11.5 -5t16 -11.5t18 -11.5t17.5 -5q13 0 19 17q0 2 2 2q3 0 7.5 -10t4.5 -26
q0 -62 -19 -107t-49 -74.5t-68 -44t-77 -14.5t-75.5 14t-65 41t-45.5 66.5t-17 90.5v7q-26 -52 -40.5 -118t-14.5 -135q0 -62 13.5 -121t41.5 -105t71.5 -73.5t103.5 -27.5q58 0 107.5 24.5t89.5 66t70.5 97t51.5 118.5t31.5 130t10.5 130q0 86 -16 147t-42.5 99.5
t-61.5 56.5t-73 18q-63 0 -123 -42t-98 -115q11 0 20.5 -2.5t9.5 -16.5q0 -8 -6 -14.5t-14 -6.5q-13 0 -30 -5q-11 -30 -16.5 -63.5t-5.5 -69.5zM1134 730q-44 0 -80 -12.5t-64.5 -34t-50 -50.5t-35.5 -62q38 -2 77 -3t78 -1h16q24 0 55 1.5t58.5 10t46 25.5t18.5 47
q0 37 -34 58t-85 21zM972 298q-20 0 -38 -4.5t-35 -12.5q13 -24 31.5 -37.5t41.5 -13.5q32 0 46 13t14 24q0 10 -7 16t-16.5 9.5t-19.5 4.5t-17 1zM812 293q-6 11 -10.5 23t-8.5 24v-4q0 -28 -3 -57q5 4 10.5 7.5t11.5 6.5z" />
    <glyph glyph-name="oe" unicode="&#x153;" horiz-adv-x="623" 
d="M660 226q-15 -40 -37 -80t-51 -72.5t-67.5 -53t-86.5 -20.5t-80.5 21t-50.5 56q-28 -34 -65 -55.5t-82 -21.5q-42 0 -73 13t-51 34.5t-30 49.5t-10 57q0 44 20.5 84t60.5 62q5 21 17 39.5t30.5 33t44 23t58.5 8.5q45 0 74.5 -17t46.5 -44q26 32 59.5 51.5t74.5 19.5
q48 0 81 -27t33 -72q0 -36 -22.5 -65.5t-55.5 -50.5t-71.5 -33t-70.5 -13q0 -12 2 -31.5t10 -37.5t23 -31t42 -13q36 0 65.5 20.5t53.5 51t41.5 65.5t29.5 63q5 12 19 12q10 0 16 -8.5t2 -17.5zM219 181q21 0 43 3q9 38 9 75q0 44 -15.5 74.5t-49.5 30.5q-25 0 -42 -13
t-27 -33q5 -3 8 -9t3 -11q0 -8 -5.5 -14t-14.5 -6h-3q-1 -5 -1 -9.5v-9.5q0 -44 28 -61t67 -17zM142 40q35 0 62.5 30t44.5 73q-9 -1 -17.5 -1h-16.5q-45 0 -83.5 13t-59.5 45q-6 -25 -6 -53q0 -21 4 -40t13 -34t23.5 -24t35.5 -9zM360 194q27 3 51.5 14t43.5 28.5t30 40
t11 47.5q0 23 -9.5 36.5t-25.5 13.5q-21 0 -38.5 -20.5t-30.5 -49.5t-21 -59.5t-11 -50.5z" />
    <glyph glyph-name="Racute" unicode="&#x154;" horiz-adv-x="1070" 
d="M1017 -150q6 0 6 -4t-5 -11.5t-11.5 -16t-11.5 -18t-5 -17.5q0 -13 17 -19q2 0 2 -2q0 -3 -10 -7.5t-26 -4.5q-44 0 -66 21t-31.5 55t-11.5 76.5t-6 85.5q-4 39 -13 75t-30 64t-58 45t-96 17q-8 0 -14 6t-6 14t6 14t14 6q60 0 113.5 15t94 46.5t64 80t23.5 115.5
q0 75 -24 123.5t-65 76.5t-97 39t-121 11q-50 0 -111.5 -8t-124 -25t-121.5 -44t-105 -65t-73.5 -87.5t-27.5 -111.5q0 -38 10 -65t26.5 -44t37 -24.5t41.5 -7.5q58 0 87.5 64.5t29.5 177.5q0 6 4 6t11.5 -5t16.5 -11.5t18.5 -11.5t17.5 -5q13 0 19 17q0 2 2 2q3 0 7.5 -10
t4.5 -26q0 -45 -14.5 -87.5t-42.5 -76t-68.5 -54t-92.5 -20.5q-36 0 -70.5 13.5t-62.5 39.5t-45 63.5t-17 84.5q0 64 31.5 115.5t83.5 91.5t119.5 69.5t138.5 48t141 27.5t127 9q68 0 140.5 -11.5t132 -42.5t98 -85.5t38.5 -140.5q0 -58 -21 -104.5t-57 -82t-82.5 -60.5
t-97.5 -40q42 -14 69 -35t44 -46.5t26 -53.5t13 -56q5 -33 7 -63t7 -53.5t17 -37.5t36 -14zM297 -97q0 31 -5 61t-16 53.5t-30 37.5t-48 14q-20 0 -41 -7.5t-38 -23t-28 -39t-11 -56.5q0 -30 10.5 -57.5t31.5 -49t52.5 -34t73.5 -12.5q51 0 87 18.5t61.5 48.5t42 69.5t27 82
t17.5 84.5l13 78q5 28 12.5 76t19 103.5t28.5 112t41 102.5t55.5 75t71.5 29q8 0 14 -6t6 -14t-6 -14t-14 -6q-24 0 -42 -26.5t-30 -68t-20 -92t-13.5 -98t-9 -86t-6.5 -56.5q-14 -79 -38 -159.5t-64.5 -145.5t-101 -106t-146.5 -41q-46 0 -91 12.5t-81 36t-58.5 57.5
t-22.5 78q0 40 18.5 72t48.5 55t67.5 35.5t75.5 12.5t71.5 -12t59.5 -33t41 -51t15 -66q0 -16 -4.5 -26t-7.5 -10q-2 0 -2 2q-6 17 -19 17q-8 0 -17.5 -5t-18 -11.5t-16 -11.5t-11.5 -5t-4 6zM661 798q-8 -7 -12 -7t-5 5.5t-2 12t-2.5 12t-6.5 5.5q-2 0 -2.5 -0.5t-1.5 -0.5
h-2q-4 0 -1.5 7t9.5 18t17 25.5t21 30.5q11 15 20 29t16 24t10.5 14t2.5 1q-5 -19 5 -24t24 -5q8 0 15.5 0.5t12.5 0.5q17 0 11 -10q-13 -23 -30 -43t-34.5 -37t-34.5 -31.5t-30 -26.5z" />
    <glyph glyph-name="racute" unicode="&#x155;" horiz-adv-x="342" 
d="M27 309q-12 10 -16.5 25.5t-4.5 33.5q0 6 2.5 25.5t6.5 40.5t9 37t9 16t10.5 -6.5t14 -14.5t16 -14.5t16.5 -6.5q10 0 17 13q2 3 2 0q0 -5 -3.5 -21t-8 -35t-9 -37t-7.5 -26q23 3 40 10t29.5 15.5t20 16.5t10.5 11l3 16q2 6 5 6q4 0 12 -6.5t17 -14.5t19 -14.5t19 -6.5
q11 0 18 14q2 3 1.5 -3t-2.5 -18t-5 -28.5t-6 -34.5q-6 -29 -13.5 -62.5t-14.5 -66t-12 -61t-5 -46.5q0 -25 9 -25q2 0 7.5 4t13.5 15t20 29.5t27 48.5q21 39 34 70q8 17 14 32q5 12 19 12q11 0 16 -8.5t2 -17.5q-6 -19 -17.5 -44t-25 -51t-27.5 -50t-27 -40
q-31 -41 -58 -41q-20 0 -33.5 11t-22 30.5t-12 46.5t-3.5 58q0 43 5 91t12 93q-19 -12 -44.5 -21.5t-59.5 -9.5l-29 -73q-2 -6 -7.5 -9t-11.5 -3q-11 0 -16 8.5t-2 17.5zM186 470q-8 -7 -12 -7t-5 5.5t-2 12t-2.5 12t-6.5 5.5q-2 0 -2.5 -0.5t-1.5 -0.5h-2q-4 0 -1.5 7
t9.5 18t17 25.5t21 30.5q11 15 20 29t16 24t10.5 14t2.5 1q-5 -19 5 -24t24 -5q8 0 15.5 0.5t12.5 0.5q17 0 11 -10q-13 -23 -30 -43t-34.5 -37t-34.5 -31.5t-30 -26.5z" />
    <glyph glyph-name="Rcaron" unicode="&#x158;" horiz-adv-x="1070" 
d="M1017 -150q6 0 6 -4t-5 -11.5t-11.5 -16t-11.5 -18t-5 -17.5q0 -13 17 -19q2 0 2 -2q0 -3 -10 -7.5t-26 -4.5q-44 0 -66 21t-31.5 55t-11.5 76.5t-6 85.5q-4 39 -13 75t-30 64t-58 45t-96 17q-8 0 -14 6t-6 14t6 14t14 6q60 0 113.5 15t94 46.5t64 80t23.5 115.5
q0 75 -24 123.5t-65 76.5t-97 39t-121 11q-50 0 -111.5 -8t-124 -25t-121.5 -44t-105 -65t-73.5 -87.5t-27.5 -111.5q0 -38 10 -65t26.5 -44t37 -24.5t41.5 -7.5q58 0 87.5 64.5t29.5 177.5q0 6 4 6t11.5 -5t16.5 -11.5t18.5 -11.5t17.5 -5q13 0 19 17q0 2 2 2q3 0 7.5 -10
t4.5 -26q0 -45 -14.5 -87.5t-42.5 -76t-68.5 -54t-92.5 -20.5q-36 0 -70.5 13.5t-62.5 39.5t-45 63.5t-17 84.5q0 64 31.5 115.5t83.5 91.5t119.5 69.5t138.5 48t141 27.5t127 9q68 0 140.5 -11.5t132 -42.5t98 -85.5t38.5 -140.5q0 -58 -21 -104.5t-57 -82t-82.5 -60.5
t-97.5 -40q42 -14 69 -35t44 -46.5t26 -53.5t13 -56q5 -33 7 -63t7 -53.5t17 -37.5t36 -14zM297 -97q0 31 -5 61t-16 53.5t-30 37.5t-48 14q-20 0 -41 -7.5t-38 -23t-28 -39t-11 -56.5q0 -30 10.5 -57.5t31.5 -49t52.5 -34t73.5 -12.5q51 0 87 18.5t61.5 48.5t42 69.5t27 82
t17.5 84.5l13 78q5 28 12.5 76t19 103.5t28.5 112t41 102.5t55.5 75t71.5 29q8 0 14 -6t6 -14t-6 -14t-14 -6q-24 0 -42 -26.5t-30 -68t-20 -92t-13.5 -98t-9 -86t-6.5 -56.5q-14 -79 -38 -159.5t-64.5 -145.5t-101 -106t-146.5 -41q-46 0 -91 12.5t-81 36t-58.5 57.5
t-22.5 78q0 40 18.5 72t48.5 55t67.5 35.5t75.5 12.5t71.5 -12t59.5 -33t41 -51t15 -66q0 -16 -4.5 -26t-7.5 -10q-2 0 -2 2q-6 17 -19 17q-8 0 -17.5 -5t-18 -11.5t-16 -11.5t-11.5 -5t-4 6zM650 808q-7 0 -12.5 -5t-10.5 -5q-4 0 -8 9q-13 35 -30.5 81.5t-20.5 100.5
q0 7 4 7t10.5 -3.5t14 -8t15.5 -8.5t15 -4q14 0 18 20q1 3 2 -2.5t2.5 -17t3.5 -28t5 -35.5l5 -38l18 33q9 17 17 32t13.5 25.5t8.5 15t2 1.5q-3 -16 4 -21.5t18 -5.5t23.5 3t20.5 3q10 0 6 -9q-22 -49 -54.5 -87.5t-57.5 -64.5q-4 -5 -8 -5q-7 0 -11 8.5t-13 8.5z" />
    </font>
</defs>
</svg>
